<?xml version="1.0" encoding="utf-8"?>
<!-- Generator: Adobe Illustrator 17.0.0, SVG Export Plug-In . SVG Version: 6.00 Build 0)  -->
<!DOCTYPE svg PUBLIC "-//W3C//DTD SVG 1.1//EN" "http://www.w3.org/Graphics/SVG/1.1/DTD/svg11.dtd">
<svg version="1.1" id="Layer_1" xmlns="http://www.w3.org/2000/svg" xmlns:xlink="http://www.w3.org/1999/xlink" x="0px" y="0px"
	 width="976px" height="240px" viewBox="0 0 976 240" enable-background="new 0 0 976 240" xml:space="preserve">
<g>
	<path fill-rule="evenodd" clip-rule="evenodd" fill="#F16067" d="M89.186,19.098c2.797,0.737,5.324,1.91,7.103,4.332
		c4.571,6.221,1.329,15.127-6.266,16.638c-6.871,1.367-13.703,2.807-20.11,5.707c-25.422,11.507-41.38,30.924-46.892,58.295
		c-7.771,38.593,13.31,76.886,50.196,90.396c28.8,10.548,55.59,5.527,79.163-14.201c15.041-12.588,23.849-29.048,26.87-48.438
		c2.353-15.101,0.461-29.779-5.523-43.883c-0.102-0.241-0.245-0.464-0.636-1.196c-0.459,0.687-0.725,1.26-1.142,1.684
		c-9.636,9.786-19.303,19.541-28.917,29.349c-0.919,0.938-1.817,1.335-3.126,1.331c-14.977-0.041-29.953-0.012-44.93-0.052
		c-1.2-0.003-2.02,0.36-2.854,1.207c-8.1,8.227-16.224,16.43-24.374,24.606c-4.521,4.535-10.709,4.844-15.137,0.837
		c-4.11-3.719-4.623-10.091-1.147-14.398c0.48-0.595,0.996-1.165,1.534-1.708c10.093-10.18,20.201-20.345,30.273-30.547
		c0.836-0.846,1.663-1.194,2.857-1.191c14.977,0.039,29.953,0.01,44.93,0.054c1.262,0.004,2.119-0.399,2.985-1.278
		c13.782-13.997,27.592-27.965,41.398-41.938c1.789-1.811,2.905-1.701,4.181,0.474c3.76,6.413,7.761,12.702,11.182,19.293
		c5.517,10.63,8.644,22.035,9.953,33.958c1.702,15.499,0.058,30.613-5.254,45.253c-8.863,24.431-24.765,42.904-47.539,55.33
		c-12.644,6.899-26.236,10.705-40.622,11.607c-0.48,0.03-0.952,0.187-1.427,0.285c-3.389,0-6.779,0-10.168,0
		c-0.475-0.098-0.947-0.229-1.427-0.287c-3.683-0.452-7.401-0.706-11.047-1.363c-22.736-4.095-41.866-14.833-57.232-32.047
		c-15.281-17.118-23.761-37.258-25.492-60.203c-1.159-15.365,0.874-30.312,6.704-44.557c12.8-31.271,35.486-51.65,67.991-60.892
		c3.605-1.025,7.324-1.647,10.99-2.456C87.218,19.098,88.202,19.098,89.186,19.098z"/>
	<path fill-rule="evenodd" clip-rule="evenodd" fill="#626A6E" d="M975.764,72.342c-0.234,0.532-0.52,1.047-0.696,1.597
		c-9.956,31.193-19.903,62.389-29.854,93.584c-0.215,0.674-0.461,1.338-0.723,2.092c-5.101,0-10.182,0.038-15.259-0.067
		c-0.442-0.009-1.09-0.892-1.264-1.482c-2.787-9.437-5.514-18.892-8.252-28.344c-4.289-14.808-8.575-29.616-12.864-44.424
		c-0.134-0.461-0.301-0.913-0.786-1.429c-7.407,25.224-14.815,50.448-22.229,75.692c-5.463,0-10.812,0-16.3,0
		c-10.29-32.544-20.584-65.101-30.945-97.872c3.615,0,7.038,0,10.461,0c1.585,0,3.179,0.101,4.753-0.031
		c1.341-0.113,1.876,0.357,2.24,1.652c3.679,13.106,7.428,26.193,11.157,39.285c3.504,12.303,7.008,24.606,10.515,36.909
		c0.118,0.415,0.269,0.821,0.531,1.615c1.074-3.739,2.056-7.12,3.017-10.507c6.359-22.404,12.727-44.805,19.033-67.225
		c0.355-1.263,0.88-1.622,2.112-1.613c4.099,0.032,8.201,0.006,12.298-0.109c1.209-0.034,1.68,0.36,2.005,1.507
		c6.105,21.567,12.253,43.12,18.392,64.678c1.226,4.303,2.453,8.607,3.966,12.934c7.461-26.329,14.922-52.659,22.415-79.101
		c5.467,0,10.871,0,16.274,0C975.764,71.905,975.764,72.123,975.764,72.342z"/>
	<path fill-rule="evenodd" clip-rule="evenodd" fill="#626A6E" d="M305.356,170.291c-27.844,0.016-49.449-21.61-49.527-49.576
		c-0.078-27.942,21.502-49.456,49.556-49.403c27.989,0.053,49.486,21.51,49.46,49.365
		C354.818,148.611,333.209,170.275,305.356,170.291z M271.758,121.567c0.34,2.211,0.549,5.3,1.314,8.243
		c3.549,13.658,15.342,24.414,29.762,25.478c10.374,0.765,19.241-2.63,26.244-10.176c12.618-13.596,12.845-33.809,0.857-47.884
		c-8.974-10.536-25.157-14.244-37.683-8.347C278.88,95.176,272.428,106.099,271.758,121.567z"/>
	<path fill-rule="evenodd" clip-rule="evenodd" fill="#626A6E" d="M832.992,120.65c0.008,27.906-21.632,49.619-49.472,49.64
		c-27.938,0.021-49.58-21.707-49.516-49.712c0.064-27.991,21.446-49.277,49.491-49.267
		C811.447,71.321,832.984,92.789,832.992,120.65z M816.859,119.837c-0.203-1.597-0.417-4.052-0.839-6.47
		c-2.389-13.68-13.741-24.752-27.487-26.875c-16.707-2.581-33.269,8.427-37.361,24.938c-3.689,14.887,1.732,30.007,14.459,38.597
		c10.14,6.844,24.916,7.213,35.022,0.532C811.329,143.5,816.455,133.385,816.859,119.837z"/>
	<path fill-rule="evenodd" clip-rule="evenodd" fill="#626A6E" d="M701.44,136.908c6.977,10.914,13.857,21.676,20.91,32.709
		c-0.833,0-1.354,0-1.875,0c-4.7,0-9.402-0.058-14.101,0.036c-1.376,0.027-2.135-0.372-2.826-1.589
		c-5.077-8.94-10.253-17.823-15.341-26.756c-0.567-0.996-1.163-1.31-2.301-1.299c-7.652,0.072-15.304,0.052-22.956,0.062
		c-0.593,0-1.185,0-1.938,0c0,9.848,0,19.572,0,29.421c-5.31,0-10.462,0-15.711,0c0-32.552,0-65.06,0-97.802
		c0.609,0,1.186,0,1.762,0c11.807,0,23.613-0.023,35.419,0.009c7.491,0.02,14.831,0.921,21.663,4.29
		c9.307,4.59,14.492,12.226,16.037,22.361c1.103,7.241,0.699,14.422-1.904,21.355c-2.829,7.534-7.931,12.986-15.194,16.412
		C702.595,136.349,702.108,136.587,701.44,136.908z M661.024,125.438c9.334-0.177,18.51-0.222,27.673-0.591
		c3.618-0.146,6.992-1.558,10.066-3.603c8.557-5.689,8.509-20.089,4.279-26.478c-3.508-5.3-8.85-7.556-14.79-7.862
		c-8.938-0.461-17.909-0.277-26.866-0.36c-0.092-0.001-0.185,0.09-0.362,0.182C661.024,99.473,661.024,112.26,661.024,125.438z"/>
	<path fill-rule="evenodd" clip-rule="evenodd" fill="#626A6E" d="M623.589,84.815c-3.133,4.264-6.044,8.224-9.01,12.258
		c-0.421-0.325-0.77-0.563-1.084-0.841c-7.261-6.451-15.713-10.127-25.434-10.207c-11.558-0.096-21.104,4.461-27.862,13.939
		c-7.491,10.505-8.683,22.145-4.039,34.021c4.45,11.381,13.024,18.401,25.095,20.821c9.793,1.963,18.71-0.634,27.092-5.594
		c0.481-0.285,0.798-1.239,0.802-1.884c0.054-7.885,0.035-15.772,0.035-23.658c0-0.646,0-1.291,0-2.052c4.625,0,9.07,0,13.72,0
		c0,0.642,0,1.227,0,1.812c0,10.844-0.023,21.687,0.031,32.53c0.006,1.249-0.399,1.958-1.398,2.665
		c-11.095,7.862-23.389,11.977-37.003,11.593c-23.52-0.663-43.068-18.27-46.334-41.634c-2.263-16.194,1.725-30.557,13.163-42.442
		c8.275-8.6,18.566-13.25,30.414-14.497c11.979-1.261,23.132,1.307,33.477,7.368C618.112,80.687,620.716,82.797,623.589,84.815z"/>
	<path fill-rule="evenodd" clip-rule="evenodd" fill="#626A6E" d="M369.899,71.772c5.223,0,10.335,0,15.633,0
		c0,0.765,0,1.466,0,2.166c0,17.966-0.006,35.932,0.005,53.898c0.003,4.456,0.405,8.854,2.068,13.052
		c3.287,8.299,9.53,12.837,18.173,14.215c5.213,0.831,10.377,0.477,15.308-1.514c7.657-3.09,11.881-9.048,13.415-16.97
		c0.558-2.879,0.75-5.868,0.761-8.808c0.067-17.966,0.033-35.932,0.033-53.898c0-0.651,0-1.302,0-2.087c5.251,0,10.399,0,15.651,0
		c0.027,0.327,0.076,0.641,0.075,0.954c-0.023,19.718,0.082,39.438-0.139,59.154c-0.091,8.163-2.205,15.913-6.932,22.751
		c-5.441,7.872-13.02,12.455-22.281,14.379c-10.367,2.154-20.561,1.678-30.357-2.574c-9.518-4.13-15.699-11.409-19.01-21.186
		c-1.881-5.555-2.481-11.313-2.485-17.144c-0.013-18.24-0.006-36.48-0.002-54.719C369.815,72.909,369.867,72.378,369.899,71.772z"/>
	<path fill-rule="evenodd" clip-rule="evenodd" fill="#626A6E" d="M537.244,86.493c-9.837,0-19.549,0-29.464,0
		c0,27.727,0,55.34,0,83.038c-5.316,0-10.427,0-15.747,0c0-27.651,0-55.264,0-83.032c-9.908,0-19.609,0-29.413,0
		c0-4.948,0-9.742,0-14.673c24.825,0,49.652,0,74.624,0C537.244,76.62,537.244,81.451,537.244,86.493z"/>
</g>
</svg>
