<?xml version="1.0" encoding="utf-8"?>
<!-- Generator: Adobe Illustrator 17.0.0, SVG Export Plug-In . SVG Version: 6.00 Build 0)  -->
<!DOCTYPE svg PUBLIC "-//W3C//DTD SVG 1.1//EN" "http://www.w3.org/Graphics/SVG/1.1/DTD/svg11.dtd">
<svg version="1.1" id="Layer_1" xmlns="http://www.w3.org/2000/svg" xmlns:xlink="http://www.w3.org/1999/xlink" x="0px" y="0px"
	 width="976px" height="240px" viewBox="0 0 976 240" enable-background="new 0 0 976 240" xml:space="preserve">
<g>
	<path fill-rule="evenodd" clip-rule="evenodd" fill="#F16067" d="M474.46,2.543c3.256,0.857,6.197,2.223,8.268,5.042
		c5.321,7.242,1.547,17.609-7.294,19.367c-7.998,1.591-15.951,3.267-23.41,6.643c-29.593,13.395-48.169,35.998-54.585,67.859
		c-9.046,44.924,15.494,89.501,58.431,105.227c33.525,12.279,64.711,6.434,92.151-16.531c17.508-14.653,27.762-33.814,31.279-56.385
		c2.739-17.579,0.536-34.665-6.429-51.083c-0.119-0.28-0.285-0.54-0.74-1.392c-0.534,0.8-0.843,1.467-1.329,1.96
		c-11.217,11.391-22.47,22.747-33.661,34.164c-1.07,1.092-2.116,1.554-3.639,1.55c-17.434-0.048-34.868-0.014-52.301-0.061
		c-1.397-0.004-2.352,0.42-3.322,1.405c-9.428,9.577-18.885,19.126-28.373,28.643c-5.263,5.28-12.466,5.639-17.621,0.974
		c-4.784-4.329-5.381-11.747-1.335-16.76c0.559-0.692,1.159-1.356,1.786-1.988c11.749-11.851,23.516-23.683,35.24-35.559
		c0.973-0.985,1.936-1.39,3.325-1.386c17.434,0.046,34.868,0.012,52.301,0.063c1.47,0.004,2.467-0.464,3.474-1.488
		c16.043-16.293,32.119-32.553,48.19-48.819c2.082-2.108,3.382-1.98,4.867,0.552c4.377,7.465,9.034,14.786,13.016,22.458
		c6.422,12.374,10.062,25.65,11.586,39.53c1.981,18.042,0.067,35.636-6.116,52.678c-10.317,28.439-28.828,49.943-55.338,64.407
		c-14.719,8.031-30.54,12.462-47.287,13.511c-0.559,0.035-1.108,0.217-1.661,0.331c-3.945,0-7.891,0-11.836,0
		c-0.553-0.114-1.102-0.266-1.661-0.334c-4.287-0.526-8.615-0.822-12.859-1.587c-26.466-4.766-48.735-17.266-66.622-37.304
		c-17.788-19.926-27.66-43.371-29.674-70.08c-1.349-17.886,1.017-35.285,7.804-51.867c14.9-36.401,41.308-60.123,79.146-70.882
		c4.196-1.193,8.526-1.917,12.793-2.859C472.169,2.543,473.314,2.543,474.46,2.543z"/>
</g>
</svg>
