<?xml version="1.0" standalone="no"?>
<!DOCTYPE svg PUBLIC "-//W3C//DTD SVG 1.1//EN" "http://www.w3.org/Graphics/SVG/1.1/DTD/svg11.dtd" >
<svg xmlns="http://www.w3.org/2000/svg" xmlns:xlink="http://www.w3.org/1999/xlink" version="1.1">
<metadata></metadata>
<defs>
<font id="afarat_ibn_bladyregular" horiz-adv-x="1166" >
<font-face units-per-em="2048" ascent="1638" descent="-410" />
<missing-glyph horiz-adv-x="403" />
<glyph horiz-adv-x="0" />
<glyph unicode="&#xd;" horiz-adv-x="512" />
<glyph unicode=" "  horiz-adv-x="403" />
<glyph unicode="&#x09;" horiz-adv-x="403" />
<glyph unicode="&#xa0;" horiz-adv-x="403" />
<glyph unicode="!" horiz-adv-x="688" d="M230 1260q0 56 29 96q33 45 86 45q114 0 114 -181q0 -133 -38 -423q-29 -217 -57 -435h-39q-29 225 -58 452q-37 287 -37 446zM231 84q0 46 33 78.5t79 32.5t79.5 -32.5t33.5 -78.5t-33.5 -79t-79.5 -33q-47 0 -79.5 32t-32.5 80z" />
<glyph unicode="&#x22;" d="M59 1399q0 78 49 139q52 65 128 65q52 0 91 -34t39 -85q0 -43 -30 -74.5t-73 -31.5q-14 0 -38.5 8t-37.5 8q-33 0 -32 -63q0 -121 164 -207v-42q-114 38 -183 116q-77 87 -77 201zM542 1400q0 77 48 138q51 65 127 65q53 0 93 -34.5t40 -86.5q0 -43 -30 -73.5t-74 -30.5 q-12 0 -37.5 8t-37.5 8q-35 0 -35 -57q0 -77 50 -130q33 -36 116 -83v-42q-115 33 -185 115q-76 87 -75 203z" />
<glyph unicode="#" horiz-adv-x="1584" d="M18 -269q0 402 260 598q-45 -103 -91 -207q-52 -135 -52 -214q0 -168 204 -275q169 -90 353 -90q178 0 442 90q304 101 362 228q-55 71 -188 114q-115 38 -222 38q23 98 128 162q89 46 179 91q91 56 91 146q0 76 -71 163q-83 -118 -88 -123q-57 -63 -129 -64 q-146 0 -146 189q0 106 75 254q85 167 177 167q88 0 181 -234q84 -207 84 -323q0 -80 -53 -171q-50 -77 -101 -152q95 -80 104 -93q38 -46 37 -134q0 -238 -350 -416q-300 -153 -565 -153q-215 0 -398 97q-222 116 -223 312zM454 -942l138 134l135 -136l137 136l138 -134 l-139 -138l-136 136l-136 -136zM945 1332l157 157l156 -157l-156 -153zM1154 686q0 -32 26.5 -65t56.5 -33q27 0 54.5 21.5t27.5 48.5q0 25 -40.5 65t-65.5 40q-23 0 -41 -27t-18 -50z" />
<glyph unicode="$" horiz-adv-x="0" d="M97 1511q0 98 40 167q48 82 141 82q69 0 115 -63q42 -57 42 -129q0 -84 -58 -150t-141 -66q-138 0 -139 159zM139 1560q0 -78 123 -78q100 0 100 53q0 33 -56 73q-53 39 -88 39q-79 0 -79 -87z" />
<glyph unicode="%" d="M91 1027l141 261l210 -203l-139 -249zM189 92l724 1269l52 -67l-726 -1272zM726 264l142 259l210 -204l-140 -248z" />
<glyph unicode="&#x26;" d="M167 331l356 357l-355 355l58 59l356 -356l355 356l57 -58l-356 -355l358 -358l-58 -58l-357 357l-357 -356z" />
<glyph unicode="'" d="M270 1482q0 52 40 86.5t93 34.5q76 0 127 -65q48 -61 48 -138q0 -116 -75 -203q-70 -82 -185 -115v42q83 47 116 83q50 53 50 130q0 56 -35 57q-11 0 -36.5 -8t-39.5 -8q-43 0 -73 30.5t-30 73.5zM754 1484q0 51 38.5 85t91.5 34q77 0 129 -65q49 -61 49 -139 q0 -114 -78 -201q-70 -78 -184 -116v42q166 86 166 207q0 62 -33 63q-13 0 -37.5 -8t-38.5 -8q-42 0 -72.5 31.5t-30.5 74.5z" />
<glyph unicode="(" d="M85 496q0 297 144 553q153 270 413 387v-42q-362 -199 -362 -872q0 -325 61 -516q83 -260 301 -412v-36q-263 131 -412 387q-145 250 -145 551z" />
<glyph unicode=")" d="M248 -406q364 204 363 874q0 324 -61 516q-83 261 -302 410v42q265 -131 414 -387q144 -248 144 -551q0 -298 -144 -553q-153 -270 -414 -387v36z" />
<glyph unicode="*" horiz-adv-x="1550" d="M220 375q0 110 201 173q147 41 293 81q-38 19 -184.5 54t-210.5 68q-99 52 -99 134q0 43 34.5 76t78.5 33q89 0 216 -124q171 -167 199 -185q0 73 -47 208t-47 204q0 161 130 160q56 0 89 -52q27 -45 27 -105q0 -74 -39 -207q-44 -146 -50 -208q26 16 195 183 q125 123 209 123q47 0 82.5 -34t35.5 -81q0 -101 -201 -167q-145 -40 -293 -80q38 -19 183 -54t208 -68q99 -51 99 -132q0 -45 -34.5 -78.5t-79.5 -33.5q-81 0 -210 125q-96 94 -194 187q0 -75 44.5 -216t44.5 -215q0 -51 -30 -95q-34 -49 -83 -49q-134 0 -134 145 q0 79 42 215q46 153 53 215q-19 -13 -199 -184q-135 -128 -205 -128q-47 0 -85.5 32.5t-38.5 79.5z" />
<glyph unicode="+" d="M37 646v83h503v502h81v-502h505v-83h-505v-504h-81v504h-503z" />
<glyph unicode="," horiz-adv-x="871" d="M267 184q0 231 301 334v-44q-93 -30 -153 -96q-66 -72 -66 -164q0 -32 24 -41q7 2 42 18q27 10 45 11q108 0 108 -110q0 -51 -39.5 -85.5t-91.5 -34.5q-78 0 -127 69q-43 62 -43 143z" />
<glyph unicode="-" d="M37 646v83h1089v-83h-1089z" />
<glyph unicode="." horiz-adv-x="871" d="M314 83q0 46 33 79t79 33q48 0 80 -32t32 -80q0 -46 -33 -78.5t-79 -32.5q-47 0 -79.5 32t-32.5 79z" />
<glyph unicode="/" horiz-adv-x="1290" d="M244 -262l752 1811l125 -51l-752 -1808z" />
<glyph unicode="0" horiz-adv-x="1290" d="M292 483q0 179 103 481q122 358 260 358q140 0 243 -297q83 -239 83 -416q0 -212 -91 -368q-110 -186 -307 -187q-291 0 -291 429zM401 561q0 -75 76 -114q59 -31 141 -30q87 0 157 37q85 45 85 125q0 170 -162 301q-55 44 -73 44q-51 0 -140 -157q-84 -148 -84 -206z " />
<glyph unicode="1" horiz-adv-x="1290" d="M348 1251q68 238 86 374q436 -654 436 -1221q0 -83 -18 -206q-16 -102 -31 -206q-67 506 -287 931q-69 109 -186 328z" />
<glyph unicode="2" horiz-adv-x="735" d="M-56 1417q0 -84 57 -176q34 35 68 69q43 38 84 38q65 0 142 -190t64 -477q0 -181 -158 -309q-132 -105 -241 -150v-34q0 -26 43 -113q40 -82 63 -110q142 94 270 94q34 0 103 -29.5t108 -29.5h165v266q-199 0 -293 80q35 101 35 164q114 469 -137 894q-106 202 -223 202 q-75 0 -114 -60q-36 -50 -36 -129z" />
<glyph unicode="3" horiz-adv-x="1290" d="M281 346q43 -160 220 -260q158 -89 336 -89q113 0 195 40q108 52 108 153q0 87 -254 435l144 98q85 70 85 139q0 125 -213 353q-141 150 -319 293q25 -88 59 -267q87 0 161.5 -49.5t105.5 -129.5q-6 -8 -139 -117q-102 -85 -102 -132q0 -71 120.5 -231t120.5 -193 q0 -104 -227 -104q-245 0 -401 61z" />
<glyph unicode="4" horiz-adv-x="1290" d="M263 1257l85 392q151 -325 351 -325q101 0 159 55q30 29 77 121q45 87 90 125q2 -14 14 -97q9 -59 9 -96q0 -203 -100 -294q-71 -62 -285 -129q97 -273 97 -557q0 -290 -85 -448q0 306 -127 651q-91 250 -285 602z" />
<glyph unicode="5" horiz-adv-x="1044" d="M16 284q216 92 289 183q92 -175 288 -181q100 25 37 197l-64 172q-91 250 -284 602l85 392q151 -325 351 -325q101 0 159 55q30 29 76 121q45 87 90 125q2 -14 15 -97q8 -59 8 -96q0 -203 -99 -294q-71 -62 -286 -129q97 -273 97 -557q0 -290 -85 -448q-511 -72 -677 280 z" />
<glyph unicode="6" horiz-adv-x="1290" d="M246 1256l72 364q131 -198 192 -412q78 -278 123 -373q101 60 192 60q280 0 280 -290q0 -191 -85 -382q-105 -233 -272 -233q-129 0 -219 397q-51 259 -101 518q-39 110 -182 351zM706 461q0 -5 21.5 -45.5t28.5 -49.5q30 -39 63 -39q34 0 80.5 67.5t46.5 102.5 q0 27 -65 57q-61 28 -98 28q-19 -1 -77 -13v-108z" />
<glyph unicode="7" horiz-adv-x="1290" d="M172 1330v218q95 -100 125 -115q38 -16 176 -17q132 0 351 60q30 -309 52 -456q45 -287 114 -434q9 -18 74 -117q60 -91 60 -97q0 -59 -37 -178q-41 -132 -46 -180q-136 136 -237 503q-89 323 -89 560l-43 6q-34 0 -105 -9t-106 -9q-289 0 -289 265z" />
<glyph unicode="8" horiz-adv-x="1290" d="M246 282q85 299 295 433q-280 0 -280 290q0 191 85 381q105 233 272 234q129 0 219 -397q102 -272 30 -410q231 -111 253 -460l-72 -363q-73 -103 -282 -108q-507 -4 -520 400zM420 1113q0 -27 65 -57q61 -28 98 -28q19 0 77 12v109q0 5 -21.5 45.5t-28.5 49.5 q-30 39 -63 39q-34 0 -80.5 -67.5t-46.5 -102.5zM510 284q0 -42 101 -89q95 -43 151 -43q31 0 121 19v168q0 8 -33.5 70.5t-44.5 76.5q-46 60 -98 61q-52 0 -124.5 -105t-72.5 -158z" />
<glyph unicode="9" horiz-adv-x="1290" d="M246 1005q0 191 85 381q105 233 272 234q129 0 218 -397l102 -518q39 -111 182 -352l-73 -363q-131 198 -191 411q-78 278 -123 374q-101 -60 -193 -60q-280 0 -279 290zM404 1113q0 -27 66 -57q61 -28 97 -28q20 0 78 12v109q0 5 -21.5 45.5t-28.5 49.5q-30 39 -64 39 t-80.5 -67.5t-46.5 -102.5z" />
<glyph unicode=":" horiz-adv-x="862" d="M314 84q0 47 32.5 80t79.5 33t80 -33t33 -80t-33 -79.5t-80 -32.5q-48 0 -80 32t-32 80zM316 643q0 47 33 79.5t79 32.5t79 -32.5t33 -79.5q0 -45 -33 -78.5t-79 -33.5q-48 0 -80 32t-32 80z" />
<glyph unicode=";" horiz-adv-x="871" d="M267 738q0 231 301 335v-45q-93 -29 -153 -95q-66 -73 -66 -164q0 -32 24 -42q7 2 42 18q27 10 45 11q108 0 108 -110q0 -51 -39.5 -85.5t-91.5 -34.5q-78 0 -127 69q-43 62 -43 143zM314 83q0 46 33 79t79 33q48 0 80 -32t32 -80q0 -46 -33 -78.5t-79 -32.5 q-47 0 -79.5 32t-32.5 79z" />
<glyph unicode="&#x3c;" horiz-adv-x="924" d="M293 317q0 -174 87 -271q92 -103 264 -103q134 0 174 16q73 30 73 141q0 14 -13 158q-105 -58 -210 -58q-77 0 -186 22q-141 29 -141 72q0 110 128 209q122 95 232 95l2 187q1 81 -13 141q-189 -62 -297 -238q-100 -163 -100 -371z" />
<glyph unicode="=" d="M37 480v83h1090v-83h-1090zM37 809v83h1090v-83h-1090z" />
<glyph unicode="&#x3e;" horiz-adv-x="924" d="M293 100q0 14 13 158q105 -58 210 -58q77 0 185 22q141 29 142 72q0 110 -128 209q-122 95 -233 95l-2 187q-1 81 14 141q189 -62 297 -238q100 -163 100 -371q0 -174 -87 -271q-92 -103 -264 -103q-134 0 -174 16q-73 30 -73 141z" />
<glyph unicode="?" horiz-adv-x="917" d="M45 1083q0 152 117 239q105 79 262 79q142 0 246 -72q118 -82 118 -218q0 -58 -26 -104q-32 -54 -86 -55q-35 0 -57.5 25t-22.5 61q0 29 30 86t30 89q0 62 -65 100q-55 31 -123 30q-112 0 -177 -85q-58 -79 -59 -193q0 -101 60 -229q56 -114 112 -229q59 -144 60 -284 h-42q0 144 -97 280q-90 109 -182 219q-98 130 -98 261zM323 85q0 47 33 80t80 33t79.5 -33t32.5 -80q0 -48 -32 -80t-80 -32q-47 0 -80 32.5t-33 79.5z" />
<glyph unicode="@" horiz-adv-x="917" d="M-56 0v266q212 0 212 47q0 20 -13 63.5t-13 66.5q0 57 39 145q37 84 79 128q-3 10 -19.5 28t-16.5 31q0 38 44 139q46 108 74 108q168 -118 309 -257q207 -204 207 -325q0 -175 -21 -226q-39 -95 -185 -95q-92 0 -293 47q-157 -166 -262 -166h-141zM213 458 q89 -47 134 -47q32 0 69 20q44 22 44 51q0 45 -44 92q-39 42 -85 60q-3 -5 -67 -81q-36 -44 -51 -95zM506 352q62 -8 123 -17q85 -12 111 -30l24 23q-15 55 -104 145q-84 84 -143 114q24 -48 24 -97q0 -50 -35 -138z" />
<glyph unicode="A" horiz-adv-x="881" d="M26 171q0 177 127 306q86 86 284 190l-15 177q-2 32 -90 32h-1q-87 0 -191 -54l-43 161q121 52 209 52q30 0 56 -6q104 -23 142 -101q4 -97 49 -324q58 -288 143 -326q27 -11 242 -12v-266h-220q-81 0 -132 99q-34 85 -67 171q-77 -108 -151 -139q-58 -25 -196 -25 q-146 0 -146 65zM202 399q63 -23 102 -23h3q35 0 94 16q71 19 71 43q0 14 -23 104q-113 -50 -247 -140z" />
<glyph unicode="B" horiz-adv-x="1139" d="M-56 0v266h109q75 78 220 238v832q-70 62 -83 106q73 201 177 280q0 -126 12 -160q24 -58 117 -98q-20 -63 -42 -127q-33 -82 -75 -106l11 -656l228 164q142 93 253 94q235 0 235 -206q0 -241 -272 -441q-253 -186 -503 -186h-387zM215 266h210q404 1 516 226 q-130 94 -235 94q-174 0 -491 -320zM567 1175l156 156l157 -156l-157 -154z" />
<glyph unicode="C" horiz-adv-x="819" d="M22 482q0 151 93 280q101 141 247 141q226 0 317 -222q-129 47 -235 47q-71 0 -185 -45q-132 -51 -132 -108q0 -69 89.5 -164.5t162.5 -95.5q8 0 16 2l411 94q-26 -54 -82 -223q-83 -67 -366 -130h-2q-227 0 -287 208q-47 93 -47 216z" />
<glyph unicode="D" horiz-adv-x="881" d="M26 171q0 177 127 306q86 86 284 190q-37 200 -37 410q0 93 7 189q-2 31 86 142q-1 -40 0 -81q0 -347 60 -723q58 -288 143 -326q27 -11 242 -12v-266h-220q-81 0 -132 99q-34 85 -67 171q-77 -108 -151 -139q-58 -25 -196 -25q-146 0 -146 65zM202 399q63 -23 102 -23h3 q35 0 94 16q71 19 71 43q0 14 -23 104q-113 -50 -247 -140z" />
<glyph unicode="E" horiz-adv-x="1028" d="M-79 0h200q94 -232 193 -348q144 -167 346 -167q233 0 411 175q-189 -16 -290 -16q-185 0 -321 88q-122 77 -234 245q95 14 191 29q102 28 102 135q0 86 -70 225q-78 151 -151 151h-1q-58 0 -116 -102q-36 -78 -71 -156q-50 -4 -97 -4.5t-92 4.5v-259zM250 176 q13 68 28.5 89.5t77.5 50.5q23 -39 47 -87q-12 -10 -12 -41q-82 -12 -141 -12z" />
<glyph unicode="F" horiz-adv-x="542" d="M-110 1753q0 57 37 75q26 12 89 12q76 95 122 134q79 67 161 67q118 0 118 -125q0 -135 -145 -172q-53 -13 -254 -17q-50 -1 -60 -10q-3 -27 -4 -89q-63 42 -64 125zM83 183q0 -68 30 -106q39 -39 78 -79v857q68 65 171 65q33 0 70 -7l-4 165q-12 -1 -23 0 q-117 0 -181 93l32 43q77 100 335 101v266h-212q-120 0 -188 -86q-82 -106 -102 -624q-6 -153 -6 -688zM88 1840h101q133 0 133 76q0 47 -56 47q-84 0 -178 -123z" />
<glyph unicode="G" horiz-adv-x="1218" d="M32 -2q0 112 35 231q44 154 120 184q-61 -204 -61 -293q0 -315 399 -316q162 0 304 56q156 62 250 177v94q-88 -11 -112 -11q-252 0 -252 199q0 92 63 209q72 131 154 131q111 0 176 -194q51 -148 51 -286q0 -251 -213 -445q-208 -187 -462 -188q-216 0 -334 118 t-118 334zM596 1093l137 134l136 -136l136 136l138 -134l-139 -138l-135 136l-137 -136zM809 355q77 -36 93 -36h1l82 11v60q-55 93 -88 93q-16 0 -88 -93v-35z" />
<glyph unicode="H" horiz-adv-x="1246" d="M-72 17v264q93 -46 199 -47q103 0 221 44q132 46 189 116l-95 509q-2 13 61 233q50 -279 93 -461q113 42 200 42q137 0 210 -104q94 -122 134 -252q32 -102 131 -103q27 0 58 8v-273q-40 -5 -75 -5q-177 0 -208 128q-85 259 -141 330q-42 72 -131 72q-57 0 -134 -30 q44 -186 169 -408q-43 -89 -145 -89q-25 0 -54 5q-20 190 -49 274q-135 -196 -175 -227q-84 -65 -278 -65q-19 -2 -37 -2q-87 0 -143 41z" />
<glyph unicode="I" horiz-adv-x="657" d="M39 258q105 -58 210 -58q77 0 185 22q141 29 141 72q0 110 -128 209q-122 95 -232 95l-2 187v11q0 74 13 130q189 -62 297 -238q101 -163 101 -371q0 -174 -87 -271q-92 -103 -265 -103q-134 0 -174 16q-72 30 -72 138q0 17 13 161zM162 1356l156 157l157 -157l-157 -153 z" />
<glyph unicode="J" horiz-adv-x="881" d="M-69 -351q59 -14 120 -30q76 -18 120 -18q102 0 303 142q208 147 208 241q0 8 -53 91q-61 98 -64 103q32 73 47 174q70 -71 132 -82q19 -4 162 -4v-266l-86 1q-33 0 -56 -15q-18 -157 -148 -341q-145 -207 -287 -207q-103 0 -219 65q-101 56 -179 146zM424 816l157 157 l156 -157l-156 -153z" />
<glyph unicode="K" horiz-adv-x="892" d="M-32 9v262q81 -37 187 -37q103 0 221 44q132 46 188 116l-127 847q-2 13 61 233q83 -302 149 -799l21 -187q63 201 275 202l40 -170q-150 -3 -267 -156v-7q0 -55 58 -83q23 -11 81 -11q29 0 67 3v-266h-158q-74 0 -120 102q-27 84 -55 168q-135 -196 -175 -227 q-84 -65 -279 -65q-168 0 -168 27q0 2 1 4z" />
<glyph unicode="L" horiz-adv-x="526" d="M66 1398q0 68 29 106l79 79v-857q0 -274 65 -359q77 -100 334 -101v-266h-212q-120 0 -187 86q-82 106 -102 624q-6 153 -6 688z" />
<glyph unicode="M" horiz-adv-x="1489" d="M-57 0v266q32 0 79 -1t65 -1q110 0 165 31q62 36 159 163q0 -117 61 -162q52 -37 173 -37q139 0 201 67l116 178q0 -89 -24 -187q35 -58 136 -58q80 0 137 87q39 79 79 158q16 -45 17 -83q0 -12 -8.5 -37t-8.5 -33q0 -87 174 -87q17 0 46.5 1t37.5 1v-266h-223 q-29 0 -122 82q-74 -82 -148 -82q-40 0 -101 31q-49 26 -98 51q-122 -82 -240 -82q-59 0 -138 33q-67 31 -132 61q-96 -94 -157 -94h-246z" />
<glyph unicode="N" horiz-adv-x="1182" d="M-73 0v266q200 0 243 26q31 20 132 189q7 -67 15 -131q8 -61 41 -85q40 -31 137 -31q133 0 216 91q72 95 142 191q-1 -16 -7 -63q-5 -40 -5 -63q0 -120 187 -120q28 0 58 14q16 41 17 41q0 23 -39 115q20 50 82 169q28 -90 28 -116q0 -141 -37 -277q-52 -193 -154 -193 h-1q-32 0 -105 44q-52 32 -105 62q-132 -129 -271 -129q-57 0 -134 32q-61 32 -125 62q-114 -94 -150 -94h-165z" />
<glyph unicode="O" horiz-adv-x="625" d="M122 217q0 134 106 347q-1 9 -6.5 29t-5.5 32q0 76 60 219q43 -53 142 -135q89 -73 122 -123q52 -78 52 -192q0 -154 -69 -264q-81 -130 -225 -130q-176 0 -176 217zM227 352q0 -118 94 -118q38 0 104 35q73 36 73 66q0 34 -199 181q-72 -72 -72 -164z" />
<glyph unicode="P" horiz-adv-x="711" d="M-165 -447l67 -262q131 198 191 412q78 278 123 374q101 -60 193 -61q279 0 279 288q0 193 -85 384q-105 233 -272 234q-129 0 -218 -398q2 -39 2 -77q0 -262 -78 -498q-97 -264 -202 -396zM289 342v109q0 5 11.5 74t18.5 78q30 39 64 39t90 -77t56 -150q0 -91 -65 -128 q-61 -28 -97 -28q-39 0 -78 83z" />
<glyph unicode="Q" horiz-adv-x="704" d="M-57 0v266h421q46 0 133 25q102 30 102 61q0 33 -59 128q-93 -71 -174 -71h-2q-79 0 -124 56q-41 52 -41 133q0 98 59 216q67 136 153 136q20 0 74 -43q183 -148 183 -491q0 -156 -126.5 -286t-281.5 -130h-317zM242 1306l157 156l156 -156l-156 -154zM283 609l46 -21 q31 -13 47 -14q25 0 94 24v34q-37 66 -94 105q-52 -35 -63.5 -50t-29.5 -78z" />
<glyph unicode="R" horiz-adv-x="735" d="M-57 0v266q199 0 293 80q-35 101 -35 164q39 186 133 354q106 157 223 157q75 0 115 -59q36 -50 36 -131q0 -83 -32 -143q-59 3 -93 37q-43 38 -84 38q-65 0 -115 -56t-50 -121q-8 -17 -8 -36q0 -76 128 -178q132 -105 240 -150v-34q0 -26 -43 -113q-40 -82 -62 -110 q-142 94 -271 94q-34 0 -103 -29.5t-107 -29.5h-165zM206 -474l137 135l136 -136l136 136l138 -135l-139 -137l-135 136l-137 -136z" />
<glyph unicode="S" horiz-adv-x="1379" d="M74 197q55 154 127 188q-57 -202 -58 -298q0 -347 397 -347q142 0 348 74q236 83 290 185q-94 4 -190 7q-117 10 -177 48q-79 49 -79 155q0 175 186 416q191 251 359 251l45 -27q19 -39 19 -66q0 -52 -28 -116q-26 -52 -53 -107q-35 37 -41 42q-13 12 -52 29 q-89 -27 -206 -118q-134 -106 -135 -182q0 -72 125 -97q115 -22 231 -41q124 -41 124 -153q0 -222 -310 -399q-273 -157 -514 -157q-227 0 -343 128q-113 122 -113 348q0 103 48 237z" />
<glyph unicode="T" horiz-adv-x="536" d="M31 1398q0 68 29 106l79 79v-429q68 -34 136 -34q55 0 109 22l68 -70q-177 -134 -289 -134q-12 0 -24 2v-214q0 -274 65 -359q77 -100 335 -101v-266h-212q-120 0 -188 86q-82 106 -102 624q-6 153 -6 688z" />
<glyph unicode="U" horiz-adv-x="1672" d="M16 365q0 159 174 324q-56 -136 -56 -206q0 -158 242 -232q168 -53 370 -53q179 0 416 46q291 57 370 144q0 100 -118 187q66 165 86 256q140 -92 140 -299q0 -558 -1006 -558q-617 0 -618 391zM591 946l137 135l136 -136l136 136l138 -135l-139 -137l-135 136l-137 -136 z" />
<glyph unicode="V" horiz-adv-x="1672" d="M15 371q0 95 48 188.5t126 145.5q-70 -134 -70 -206q0 -164 236 -244q168 -57 371 -57q447 0 734 287q18 -135 64 -177t180 -42v-266h-99q-105 0 -208 198q-431 -243 -856 -243q-214 0 -359 98q-167 114 -167 318zM515 -416l157 156l156 -156l-156 -154z" />
<glyph unicode="W" horiz-adv-x="1600" d="M20 138q0 117 65 189q31 36 135 100q89 57 120 111q-19 60 -19 69q0 47 62 116q0 -193 39 -327q62 -209 206 -209q216 0 216 147q0 13 -2 27l-65 543q-4 34 110 136q61 -728 99 -776q59 -77 193 -77q201 0 201 81q0 349 -99 751q62 163 143 208l-3 -66v-14q0 -54 21 -80 q30 -35 59 -70q-3 -19 -29.5 -79t-26.5 -64q0 -72 11.5 -216.5t11.5 -216.5q0 -169 -49 -277q-67 -148 -215 -148q-130 0 -180 29t-115 139q-71 -108 -102 -131q-47 -33 -163 -33t-160 40q-25 22 -90 146q-93 -86 -108 -93q-31 -16 -128 -16q-68 0 -87 4q-50 12 -51 57z M153 274q12 0 36.5 -4.5t33.5 -4.5q74 0 126 46q-10 36 -10 84q-63 -38 -186 -121zM601 1211q0 61 44 104q24 -109 49 -109q33 0 57 62q3 8 26 90q1 0 35 -49q26 -36 36 -36q72 0 72 151h32q0 -15 6.5 -45t6.5 -43q0 -159 -120 -159h-2q-15 0 -44 7q-55 -77 -115 -77 q-38 0 -62 34q-20 32 -21 70zM710 1737q0 63 44 104q0 -51 17 -155t17 -153q0 -38 -55 -130q6 39 6 96q0 40 -14.5 119.5t-14.5 118.5z" />
<glyph unicode="X" horiz-adv-x="1518" d="M9 1321q0 45 27 92q31 54 73 54q150 0 404 -270q224 -237 305 -411q29 -63 83 -281q72 242 87 425q7 89 7 467q39 54 175 199q0 6 -4.5 -129t-4.5 -256q0 -862 204 -930q45 -14 191 -15v-266h-210q-160 0 -230 242q-49 169 -49 428q0 60 3 116q-71 -464 -212 -650 q-190 -251 -626 -251q132 61 346 239q231 194 275 300q-67 361 -480 667q-78 -25 -139 -25q-225 0 -225 255z" />
<glyph unicode="Y" horiz-adv-x="1295" d="M99 1333q0 55 27 97q31 48 84 48q141 0 418 -348q32 -40 350 -484q23 38 56 256q33 205 33 273q0 18 -31 62q-34 50 -40 72q48 179 165 276q-11 -61 -11 -102q0 -97 128 -156q-31 -110 -39 -129q-30 -77 -78 -105l-19 21q-31 -81 -56 -277q-27 -199 -62 -296 q82 -117 82 -317q0 -159 -52 -205q-48 -43 -208 -43q-172 0 -278 32v252l105 -36q51 32 135 133q76 91 112 155q-89 129 -235 311q-189 237 -259 281q-8 -4 -44 -32q-19 -16 -63 -16q-91 0 -159 95q-60 86 -61 182zM109 1915q0 47 103 129q100 81 148 81q25 0 44.5 -19.5 t19.5 -44.5q0 -62 -32 -62q-15 0 -45 9.5t-45 9.5q-65 0 -99 -92q70 -50 186 -50q20 0 64 2t67 2q-24 -38 -45 -75q-5 -4 -90 -4q-103 0 -241 -110q-3 20 -3 32t8 37.5t8 37.5q0 22 -24 61t-24 56zM814 224q30 0 199 10q11 57 11 49q0 2 -26 63q-30 65 -32 77 q-38 -95 -152 -199z" />
<glyph unicode="Z" horiz-adv-x="1154" d="M-57 0v266q129 0 253 22q-56 104 -57 250q0 191 172 296q164 81 328 161q-60 49 -143 95q-102 57 -155 57q-45 0 -172 -69l-8 11q0 94 77 190q82 102 173 102q53 0 176 -64q176 -90 248 -118q166 -64 320 -64q-25 -81 -70 -246q-49 7 -97 7q-120 0 -439 -99 q-353 -109 -353 -188q0 -78 83 -142q50 -38 174 -95q119 -54 152 -84q-38 -86 -94 -264q-156 70 -220 70h-2q-42 0 -140 -47t-206 -47z" />
<glyph unicode="[" horiz-adv-x="495" d="M-2 417q0 -232 112 -329q103 -88 337 -88h68v266l-75 -1q-298 -4 -360 74q14 50 73 162q-38 71 -100 211q-55 -229 -55 -295zM49 1048l158 -153l155 153l-155 157z" />
<glyph unicode="\" horiz-adv-x="1290" d="M244 1498l752 -1808l125 48l-752 1811z" />
<glyph unicode="]" horiz-adv-x="486" d="M-67 0v266l75 -1q298 -4 361 74q-14 50 -73 162q38 71 99 211q56 -229 56 -295q0 -232 -112 -329q-103 -88 -338 -88h-68zM86 1048l156 157l157 -157l-157 -153z" />
<glyph unicode="^" horiz-adv-x="0" d="M87 1982q0 43 29 131l29 5q0 -143 52 -144q55 0 87 81q12 33 31 131l24 9q27 -130 74 -130q90 0 90 193l31 13q17 -69 17 -126q0 -85 -27 -143q-36 -77 -111 -77q-44 0 -83 26q-6 -42 -50 -77.5t-87 -35.5q-52 0 -82 47q-24 40 -24 97zM97 1345q0 53 19 80q16 23 66 52 l359 209q0 -87 -46 -114zM97 1533q0 89 85 139l354 208q0 -94 -41 -118z" />
<glyph unicode="_" horiz-adv-x="1257" d="M-57 0v266h109l232 -21l423 -11q251 17 438 5q122 25 160 27v-266h-1362z" />
<glyph unicode="`" horiz-adv-x="585" d="M-67 0v266l75 -1q298 -4 361 74q-14 50 -73 162q38 71 99 211q56 -229 56 -295q0 -232 -112 -329q-103 -88 -338 -88h-68zM-5 -346l137 134l136 -136l136 136l138 -134l-139 -138l-135 136l-137 -136z" />
<glyph unicode="a" horiz-adv-x="881" d="M26 171q0 177 127 306q86 86 284 190l-15 177q-2 32 -90 32h-1q-87 0 -191 -54l-43 161q121 52 209 52q30 0 56 -6q104 -23 142 -101q4 -97 49 -324q58 -288 143 -326q27 -11 242 -12v-266h-220q-81 0 -132 99q-34 85 -67 171q-77 -108 -151 -139q-58 -25 -196 -25 q-146 0 -146 65zM202 399q63 -23 102 -23h3q35 0 94 16q71 19 71 43q0 14 -23 104q-113 -50 -247 -140z" />
<glyph unicode="b" horiz-adv-x="1368" d="M-10 268l130 -1q41 -22 80 -22q64 -1 122 57q94 92 95 121v879q0 16 -35 62t-35 71q0 44 63 145q59 96 102 131q-11 -61 -11 -102q0 -96 127 -156q-26 -97 -38 -128q-31 -78 -78 -106l10 -748q138 92 279 184q191 120 296 120q93 0 173 -67q84 -70 84 -162 q0 -131 -45 -282q-49 -136 -291 -216q-188 -62 -580 -62q-113 0 -243 5l-202 -2zM417 236q49 -11 99 -12q129 0 355 49q285 61 285 140q0 51 -95 86q-75 29 -137 29h-4q-206 0 -503 -292zM755 1154l156 157l157 -157l-157 -153z" />
<glyph unicode="c" horiz-adv-x="819" d="M22 482q0 151 93 280q101 141 247 141q226 0 317 -222q-129 47 -235 47q-71 0 -185 -45q-132 -51 -132 -108q0 -69 89.5 -164.5t162.5 -95.5q8 0 16 2l411 94q-26 -54 -82 -223q-83 -67 -366 -130h-2q-227 0 -287 208q-47 93 -47 216z" />
<glyph unicode="d" horiz-adv-x="881" d="M26 171q0 177 127 306q86 86 284 190q-37 200 -37 410q0 93 7 189q-2 31 86 142q-1 -40 0 -81q0 -347 60 -723q58 -288 143 -326q27 -11 242 -12v-266h-220q-81 0 -132 99q-34 85 -67 171q-77 -108 -151 -139q-58 -25 -196 -25q-146 0 -146 65zM202 399q63 -23 102 -23h3 q35 0 94 16q71 19 71 43q0 14 -23 104q-113 -50 -247 -140z" />
<glyph unicode="e" horiz-adv-x="814" d="M-57 0v266q148 0 281 15q-11 70 -11 129q0 128 87 298q98 195 210 195h1q75 0 121 -102q38 -83 38 -169q0 -175 -105 -331q35 -35 136 -39q-31 1 -31 2q0 2 179 2v-266h-226q-89 0 -234 117q-177 -117 -281 -117h-165zM157 1199l137 134l135 -136l137 136l139 -134 l-140 -137l-136 135l-136 -135zM295 457q0 -27 42 -66t64 -39q35 0 87 57.5t52 93.5q0 32 -28 69t-59 37q-57 0 -107.5 -47t-50.5 -105z" />
<glyph unicode="f" horiz-adv-x="542" d="M-110 1753q0 57 37 75q26 12 89 12q76 95 122 134q79 67 161 67q118 0 118 -125q0 -135 -145 -172q-53 -13 -254 -17q-50 -1 -60 -10q-3 -27 -4 -89q-63 42 -64 125zM83 183q0 -68 30 -106q39 -39 78 -79v857q68 65 171 65q33 0 70 -7l-4 165q-12 -1 -23 -1 q-117 0 -181 94l32 43q77 100 335 101v266h-212q-120 0 -188 -86q-82 -106 -102 -624q-6 -153 -6 -688zM88 1840h101q133 0 133 76q0 47 -56 47q-84 0 -178 -123z" />
<glyph unicode="g" horiz-adv-x="1218" d="M32 -2q0 112 35 231q44 154 120 184q-61 -204 -61 -293q0 -315 399 -316q162 0 304 56q156 62 250 177v94q-88 -11 -112 -11q-252 0 -252 199q0 92 63 209q72 131 154 131q111 0 176 -194q51 -148 51 -286q0 -251 -213 -445q-208 -187 -462 -188q-216 0 -334 118 t-118 334zM596 1093l137 134l136 -136l136 136l138 -134l-139 -138l-135 136l-137 -136zM809 355q77 -36 93 -36h1l82 11v60q-55 93 -88 93q-16 0 -88 -93v-35z" />
<glyph unicode="h" horiz-adv-x="1246" d="M-72 17v264q93 -46 199 -47q103 0 221 44q132 46 189 116l-95 509q-2 13 61 233q50 -279 93 -461q113 42 200 42q137 0 210 -104q94 -122 134 -252q32 -102 131 -103q27 0 58 8v-273q-40 -5 -75 -5q-177 0 -208 128q-85 259 -141 330q-42 72 -131 72q-57 0 -134 -30 q44 -186 169 -408q-43 -89 -145 -89q-25 0 -54 5q-20 190 -49 274q-135 -196 -175 -227q-84 -65 -278 -65q-19 -2 -37 -2q-87 0 -143 41z" />
<glyph unicode="i" horiz-adv-x="666" d="M35 100q0 14 13 158q105 -58 210 -58q77 0 185 22q141 29 142 72q0 110 -128 209q-122 95 -233 95l-2 187v10q0 75 14 131q189 -62 296 -238q101 -163 101 -371q0 -174 -87 -271q-92 -103 -264 -103q-134 0 -174 16q-73 30 -73 141zM171 1356l157 157l156 -157l-156 -153 z" />
<glyph unicode="j" horiz-adv-x="881" d="M-69 -351q59 -14 120 -30q76 -18 120 -18q102 0 303 142q208 147 208 241q0 8 -53 91q-61 98 -64 103q32 73 47 174q70 -71 132 -82q19 -4 162 -4v-266l-86 1q-33 0 -56 -15q-18 -157 -148 -341q-145 -207 -287 -207q-103 0 -219 65q-101 56 -179 146zM424 816l157 157 l156 -157l-156 -153z" />
<glyph unicode="k" horiz-adv-x="892" d="M-32 9v262q81 -37 187 -37q103 0 221 44q132 46 188 116l-127 847q-2 13 61 233q83 -302 149 -799l21 -187q63 201 275 202l40 -170q-150 -3 -267 -156v-7q0 -55 58 -83q23 -11 81 -11q29 0 67 3v-266h-158q-74 0 -120 102q-27 84 -55 168q-135 -196 -175 -227 q-84 -65 -279 -65q-168 0 -168 27q0 2 1 4z" />
<glyph unicode="l" horiz-adv-x="570" d="M17 -384q0 47 104 130q99 80 147 80q25 0 45 -19t20 -44q0 -63 -33 -63q-14 0 -44.5 9.5t-45.5 9.5q-63 0 -98 -92q58 -43 145 -48q-4 0 -4 1t163 1h12q-48 -60 -165 -92q-136 -37 -211 -97q-3 20 -3 33t8.5 37.5t8.5 36.5q0 22 -24.5 61.5t-24.5 55.5zM110 1398 q0 68 29 106l79 79v-857q0 -274 65 -359q77 -100 334 -101v-266h-211q-120 0 -188 86q-82 106 -102 624q-6 153 -6 688z" />
<glyph unicode="m" horiz-adv-x="1489" d="M-57 0v266q32 0 79 -1t65 -1q110 0 165 31q62 36 159 163q0 -117 61 -162q52 -37 173 -37q139 0 201 67l116 178q0 -89 -24 -187q35 -58 136 -58q80 0 137 87q39 79 79 158q16 -45 17 -83q0 -12 -8.5 -37t-8.5 -33q0 -87 174 -87q17 0 46.5 1t37.5 1v-266h-223 q-29 0 -122 82q-74 -82 -148 -82q-40 0 -101 31q-49 26 -98 51q-122 -82 -240 -82q-59 0 -138 33q-67 31 -132 61q-96 -94 -157 -94h-246z" />
<glyph unicode="n" horiz-adv-x="1182" d="M-73 0v266q200 0 243 26q31 20 132 189q7 -67 15 -131q8 -61 41 -85q40 -31 137 -31q133 0 216 91q72 95 142 191q-1 -16 -7 -63q-5 -40 -5 -63q0 -120 187 -120q28 0 58 14q16 41 17 41q0 23 -39 115q20 50 82 169q28 -90 28 -116q0 -141 -37 -277q-52 -193 -154 -193 h-1q-32 0 -105 44q-52 32 -105 62q-132 -129 -271 -129q-57 0 -134 32q-61 32 -125 62q-114 -94 -150 -94h-165z" />
<glyph unicode="o" horiz-adv-x="625" d="M122 217q0 134 106 347q-1 9 -6.5 29t-5.5 32q0 76 60 219q43 -53 142 -135q89 -73 122 -123q52 -78 52 -192q0 -154 -69 -264q-81 -130 -225 -130q-176 0 -176 217zM227 352q0 -118 94 -118q38 0 104 35q73 36 73 66q0 34 -199 181q-72 -72 -72 -164z" />
<glyph unicode="p" horiz-adv-x="711" d="M-165 -447l67 -262q131 198 191 412q78 278 123 374q101 -60 193 -61q279 0 279 288q0 193 -85 384q-105 233 -272 234q-129 0 -218 -398q2 -39 2 -77q0 -262 -78 -498q-97 -264 -202 -396zM289 342v109q0 5 11.5 74t18.5 78q30 39 64 39t90 -77t56 -150q0 -91 -65 -128 q-61 -28 -97 -28q-39 0 -78 83z" />
<glyph unicode="q" horiz-adv-x="704" d="M-57 0v266h421q46 0 133 25q102 30 102 61q0 33 -59 128q-93 -71 -174 -71h-2q-79 0 -124 56q-41 52 -41 133q0 98 59 216q67 136 153 136q20 0 74 -43q183 -148 183 -491q0 -156 -126.5 -286t-281.5 -130h-317zM242 1306l157 156l156 -156l-156 -154zM283 609l46 -21 q31 -13 47 -14q25 0 94 24v34q-37 66 -94 105q-52 -35 -63.5 -50t-29.5 -78z" />
<glyph unicode="r" horiz-adv-x="735" d="M-57 0v266q199 0 293 80q-35 101 -35 164q39 186 133 354q106 157 223 157q75 0 115 -59q36 -50 36 -131q0 -83 -32 -143q-59 3 -93 37q-43 38 -84 38q-65 0 -115 -56t-50 -121q-8 -17 -8 -36q0 -76 128 -178q132 -105 240 -150v-34q0 -26 -43 -113q-40 -82 -62 -110 q-142 94 -271 94q-34 0 -103 -29.5t-107 -29.5h-165zM206 -474l137 135l136 -136l136 136l138 -135l-139 -137l-135 136l-137 -136z" />
<glyph unicode="s" horiz-adv-x="1379" d="M74 197q55 154 127 188q-57 -202 -58 -298q0 -347 397 -347q142 0 348 74q236 83 290 185q-94 4 -190 7q-117 10 -177 48q-79 49 -79 155q0 175 186 416q191 251 359 251l45 -27q19 -39 19 -66q0 -52 -28 -116q-26 -52 -53 -107q-35 37 -41 42q-13 12 -52 29 q-89 -27 -206 -118q-134 -106 -135 -182q0 -72 125 -97q115 -22 231 -41q124 -41 124 -153q0 -222 -310 -399q-273 -157 -514 -157q-227 0 -343 128q-113 122 -113 348q0 103 48 237z" />
<glyph unicode="t" horiz-adv-x="536" d="M31 1398q0 68 29 106l79 79v-429q68 -34 136 -34q55 0 109 22l68 -70q-177 -134 -289 -134q-12 0 -24 2v-214q0 -274 65 -359q77 -100 335 -101v-266h-212q-120 0 -188 86q-82 106 -102 624q-6 153 -6 688z" />
<glyph unicode="u" horiz-adv-x="1096" d="M40 134q0 137 55 287q61 171 159 235q-84 -294 -84 -340q0 -134 106 -212q94 -70 231 -70h4q159 0 283 57q161 73 161 211q0 67 -45 159q-43 85 -94 136q47 75 106 224q5 -3 56 -63.5t74 -392.5q0 -261 -176 -427q-172 -161 -436 -161q-182 0 -286 86q-114 93 -114 271z M385 1110l156 157l157 -157l-157 -154z" />
<glyph unicode="v" horiz-adv-x="1672" d="M15 371q0 95 48 188.5t126 145.5q-70 -134 -70 -206q0 -164 236 -244q168 -57 371 -57q447 0 734 287q18 -135 64 -177t180 -42v-266h-99q-105 0 -208 198q-431 -243 -856 -243q-214 0 -359 98q-167 114 -167 318zM515 -416l157 156l156 -156l-156 -154z" />
<glyph unicode="w" horiz-adv-x="1600" d="M20 138q0 117 65 189q31 36 135 100q89 57 120 111q-19 60 -19 69q0 47 62 116q0 -193 39 -327q62 -209 206 -209q216 0 216 147q0 13 -2 27l-65 543q-4 34 110 136q61 -728 99 -776q59 -77 193 -77q201 0 201 81q0 349 -99 751q62 163 143 208l-3 -66v-14q0 -54 21 -80 q30 -35 59 -70q-3 -19 -29.5 -79t-26.5 -64q0 -72 11.5 -216.5t11.5 -216.5q0 -169 -49 -277q-67 -148 -215 -148q-130 0 -180 29t-115 139q-71 -108 -102 -131q-47 -33 -163 -33t-160 40q-25 22 -90 146q-93 -86 -108 -93q-31 -16 -128 -16q-68 0 -87 4q-50 12 -51 57z M153 274q12 0 36.5 -4.5t33.5 -4.5q74 0 126 46q-10 36 -10 84q-63 -38 -186 -121zM601 1211q0 61 44 104q24 -109 49 -109q33 0 57 62q3 8 26 90q1 0 35 -49q26 -36 36 -36q72 0 72 151h32q0 -15 6.5 -45t6.5 -43q0 -159 -120 -159h-2q-15 0 -44 7q-55 -77 -115 -77 q-38 0 -62 34q-20 32 -21 70zM710 1737q0 63 44 104q0 -51 17 -155t17 -153q0 -38 -55 -130q6 39 6 96q0 40 -14.5 119.5t-14.5 118.5z" />
<glyph unicode="x" horiz-adv-x="1513" d="M9 1321q0 45 27 92q31 54 73 54q150 0 404 -270q224 -237 305 -411q29 -63 83 -281q72 242 87 425q7 89 7 467q39 54 175 199q0 6 -4.5 -129t-4.5 -256q0 -862 204 -930q45 -14 191 -15v-266h-210q-160 0 -230 242q-49 169 -49 428q0 60 3 116q-71 -464 -212 -650 q-190 -251 -626 -251q132 61 346 239q231 194 275 300q-67 361 -480 667q-78 -25 -139 -25q-225 0 -225 255zM750 -383q0 47 103 130q100 80 148 80q25 0 45 -19t20 -44q0 -63 -33 -63q-15 0 -44.5 9.5t-45.5 9.5q-63 0 -99 -92q59 -43 146 -48q-5 0 -5 1t163 1h13 q-23 -37 -45 -74q-4 -5 -90 -5q-102 0 -240 -110q-3 20 -3 32q0 14 7.5 38.5t7.5 36.5q0 22 -24 61.5t-24 55.5z" />
<glyph unicode="y" horiz-adv-x="1639" d="M26 -206q0 112 37 236q44 145 115 204q-60 -219 -60 -280q0 -318 411 -319q119 0 264 49q184 61 184 151q0 181 -130 399q44 70 118 212q30 -87 96 -141q71 -58 160 -58q138 0 205 74q61 92 124 183q0 -114 -23 -181q54 -63 135 -64v-271q-54 12 -124 42q-92 39 -99 41 q-115 -82 -224 -82q-67 0 -145 45q-46 -322 -183 -484q-162 -193 -473 -193h-3q-215 0 -305 115q-80 100 -80 317v5z" />
<glyph unicode="z" horiz-adv-x="1454" d="M-57 552q74 -181 74 -186q28 -48 77 -57q15 -2 181 -2q133 0 293 -80q136 -74 274 -147q164 -80 309 -80h266v266q-262 0 -403 21q-203 32 -379 124q292 88 598 129q-85 173 -224 229l-270 62q-175 43 -301 173q-61 82 -124 162q-85 113 -137 113q-60 0 -92 -95 q-24 -67 -24 -141q0 -162 93 -222q0 141 59 222q83 -63 492 -387q-189 -34 -379 -66q-222 -38 -383 -38zM80 -165l157 -153l156 153l-156 157z" />
<glyph unicode="{" horiz-adv-x="1456" d="M15 -289q0 106 89 263q88 153 180 214q-42 -92 -83 -184q-47 -111 -47 -194q0 -172 173 -238q111 -42 319 -42q126 0 329 46q244 54 278 122q-33 20 -142 36q-118 17 -164 38q-78 36 -78 112q0 169 147 280q135 102 309 102h188v-266q-467 0 -512 -68q118 -18 236 -37 q170 -34 170 -120q0 -51 -76 -147q-244 -309 -756 -309q-226 0 -374 82q-185 102 -186 310zM293 -942l137 134l136 -136l136 136l138 -134l-139 -138l-135 136l-137 -136z" />
<glyph unicode="|" horiz-adv-x="677" d="M-59 0v259q120 0 131 1q88 12 88 67q0 162 -9.5 486t-9.5 486l-59 67l176 294q0 -67 38 -168q43 -112 91 -138l-85 -186l-29 2q-2 -90 -3 -190q-1 -110 -1 -251q0 -193 48 -259q26 -36 124 -70q102 -37 167 -111q-10 -42 -47 -131q-35 -84 -45 -134q-54 24 -108 47 q-62 25 -115 24q-49 0 -124.5 -47.5t-121.5 -47.5h-106z" />
<glyph unicode="}" horiz-adv-x="1434" d="M-7 0q467 0 512 -68q-118 -18 -236 -37q-170 -34 -170 -120q0 -51 76 -147q244 -309 756 -309q226 0 375 82q185 102 185 310q0 106 -89 263q-88 153 -179 214q42 -92 83 -184q47 -111 47 -194q0 -172 -173 -238q-111 -42 -320 -42q-126 0 -329 46q-244 54 -278 122 q33 20 142 36q118 17 164 38q78 36 78 112q0 169 -147 280q-135 102 -309 102h-188v-266zM667 -942l138 -138l135 136l137 -136l136 138l-137 134l-136 -136l-136 136z" />
<glyph unicode="~" horiz-adv-x="811" d="M-67 0v266q62 0 141.5 -2.5t100.5 -2.5q97 0 140 38q34 31 128 186q5 -137 57 -187q43 -41 147 -41q29 0 108 4.5t129 4.5v-266h-283q-55 0 -130 66q-65 56 -99 116q-68 -117 -75 -125q-48 -57 -127 -57h-237zM146 -387l138 135l135 -136l136 136l139 -135l-140 -137 l-135 136l-136 -136z" />
<glyph unicode="&#xad;" d="M37 646v83h1089v-83h-1089z" />
<glyph unicode="&#xd3;" horiz-adv-x="625" d="M18 1167l138 135l135 -137l136 137l139 -135l-140 -138l-135 136l-136 -136zM122 217q0 134 106 347q-1 9 -6.5 29t-5.5 32q0 76 60 219q43 -53 142 -135q89 -73 122 -123q52 -78 52 -192q0 -154 -69 -264q-81 -130 -225 -130q-176 0 -176 217zM227 352q0 -118 94 -118 q38 0 104 35q73 36 73 66q0 34 -199 181q-72 -72 -72 -164z" />
<glyph unicode="&#xf3;" horiz-adv-x="625" d="M18 1167l138 135l135 -137l136 137l139 -135l-140 -138l-135 136l-136 -136zM122 217q0 134 106 347q-1 9 -6.5 29t-5.5 32q0 76 60 219q43 -53 142 -135q89 -73 122 -123q52 -78 52 -192q0 -154 -69 -264q-81 -130 -225 -130q-176 0 -176 217zM227 352q0 -118 94 -118 q38 0 104 35q73 36 73 66q0 34 -199 181q-72 -72 -72 -164z" />
<glyph unicode="&#x2000;" horiz-adv-x="1135" />
<glyph unicode="&#x2001;" horiz-adv-x="2271" />
<glyph unicode="&#x2002;" horiz-adv-x="1135" />
<glyph unicode="&#x2003;" horiz-adv-x="2271" />
<glyph unicode="&#x2004;" horiz-adv-x="757" />
<glyph unicode="&#x2005;" horiz-adv-x="567" />
<glyph unicode="&#x2006;" horiz-adv-x="378" />
<glyph unicode="&#x2007;" horiz-adv-x="378" />
<glyph unicode="&#x2008;" horiz-adv-x="283" />
<glyph unicode="&#x2009;" horiz-adv-x="454" />
<glyph unicode="&#x200a;" horiz-adv-x="126" />
<glyph unicode="&#x2010;" d="M37 646v83h1089v-83h-1089z" />
<glyph unicode="&#x2011;" d="M37 646v83h1089v-83h-1089z" />
<glyph unicode="&#x2012;" d="M37 646v83h1089v-83h-1089z" />
<glyph unicode="&#x2013;" horiz-adv-x="1101" d="M37 646v83h1024v-83h-1024z" />
<glyph unicode="&#x2014;" horiz-adv-x="2125" d="M37 646v83h2048v-83h-2048z" />
<glyph unicode="&#x202f;" horiz-adv-x="454" />
<glyph unicode="&#x205f;" horiz-adv-x="567" />
<glyph unicode="&#x25fc;" horiz-adv-x="1597" d="M0 0v1597h1597v-1597h-1597z" />
</font>
</defs>
</svg>
