<?xml version="1.0" standalone="no"?>
<!DOCTYPE svg PUBLIC "-//W3C//DTD SVG 1.1//EN" "http://www.w3.org/Graphics/SVG/1.1/DTD/svg11.dtd" >
<svg>
<metadata>
Created by FontForge 20090914 at Thu Dec 15 05:21:04 2016
 By www-data
Comfortaa &#194;&#169; Johan Aakerlund. 2008. All Rights Reserved
</metadata>
<defs>
<font id="Comfortaa-Bold" horiz-adv-x="1014" >
  <font-face 
    font-family="Comfortaa"
    font-weight="700"
    font-stretch="expanded"
    units-per-em="2048"
    panose-1="2 15 8 3 0 0 0 6 0 3"
    ascent="1638"
    descent="-410"
    x-height="1037"
    cap-height="1479"
    bbox="-501 -467.998 2429 1893"
    underline-thickness="150"
    underline-position="-142"
    unicode-range="U+0020-U+F002"
  />
<missing-glyph horiz-adv-x="1024" 
d="M100 0v1434h824v-1434h-824zM150 50h724v1334h-724v-1334zM325 1148c20.667 18.667 40.002 32.998 58.002 42.998c35.333 20 72.666 30 111.999 30c61.333 0 110.666 -15.833 147.999 -47.5s56 -74.167 56 -127.5c0 -32.667 -7.66699 -65.5 -23 -98.5
s-44.333 -76.167 -87 -129.5c-42 -53.333 -75 -97.333 -99 -132s-36 -67.667 -36 -99c0 -25.333 8 -69.666 24 -132.999h-32c-23.333 64.667 -35 114 -35 148c0 50.667 27.167 123.334 81.5 218.001s81.5 167 81.5 217c0 38 -11 68 -33 90s-52.333 33 -91 33
c-25.333 0 -48.333 -5.66699 -69 -17c-17.333 -10 -36 -23.333 -56 -40v45zM389.002 333.998l57 57.999c7.33301 6.66699 14 10 20 10c6.66699 0 14 -3.66699 22 -11l56 -60c6 -7.33301 9 -14 9 -20c0 -7.33301 -3.33301 -14.666 -10 -21.999l-56 -62
c-9.33301 -9.33301 -16.333 -14 -21 -14c-7.33301 0 -14 3.33301 -20 10l-61 71c-4.66699 6 -7 12 -7 18c0 6.66699 3.66699 14 11 22z" />
    <glyph glyph-name=".notdef" horiz-adv-x="1024" 
d="M100 0v1434h824v-1434h-824zM150 50h724v1334h-724v-1334zM325 1148c20.667 18.667 40.002 32.998 58.002 42.998c35.333 20 72.666 30 111.999 30c61.333 0 110.666 -15.833 147.999 -47.5s56 -74.167 56 -127.5c0 -32.667 -7.66699 -65.5 -23 -98.5
s-44.333 -76.167 -87 -129.5c-42 -53.333 -75 -97.333 -99 -132s-36 -67.667 -36 -99c0 -25.333 8 -69.666 24 -132.999h-32c-23.333 64.667 -35 114 -35 148c0 50.667 27.167 123.334 81.5 218.001s81.5 167 81.5 217c0 38 -11 68 -33 90s-52.333 33 -91 33
c-25.333 0 -48.333 -5.66699 -69 -17c-17.333 -10 -36 -23.333 -56 -40v45zM389.002 333.998l57 57.999c7.33301 6.66699 14 10 20 10c6.66699 0 14 -3.66699 22 -11l56 -60c6 -7.33301 9 -14 9 -20c0 -7.33301 -3.33301 -14.666 -10 -21.999l-56 -62
c-9.33301 -9.33301 -16.333 -14 -21 -14c-7.33301 0 -14 3.33301 -20 10l-61 71c-4.66699 6 -7 12 -7 18c0 6.66699 3.66699 14 11 22z" />
    <glyph glyph-name="space" unicode=" " horiz-adv-x="508" 
 />
    <glyph glyph-name="space" unicode="&#xa0;" horiz-adv-x="508" 
 />
    <glyph glyph-name="exclam" unicode="!" horiz-adv-x="511" 
d="M245 1472h12c56 0 90.333 -32 103 -96v-961c-16 -66 -52.667 -99 -110 -99c-72 10.667 -108 43.667 -108 99v965c12.667 61.333 47 92 103 92zM236 236l9.99902 0.000976562c87.333 -12.667 131 -53.334 131 -122.001v-22c0 -63.333 -40.667 -104 -122 -122h-15
c-69.333 0 -112.666 44.333 -129.999 133c18 88.667 60 133 126 133z" />
    <glyph glyph-name="quotedbl" unicode="&#x22;" horiz-adv-x="557" 
d="M193 1589c68 -17.333 101.999 -50.333 101.999 -99c-15.333 -227.333 -41 -341 -77 -341l-28 -8c-55.333 0 -85.666 50.667 -90.999 152l-20 187c14.667 72.667 52.667 109 114 109zM434.999 1589c50.667 0 85.667 -34.333 105 -103
c-21.333 -219.333 -42.333 -329 -63 -329c-11.333 -10.667 -26 -16 -44 -16h-4c-57.333 0 -86 54.667 -86 164l-20 184c0 54 37.333 87.333 112 100z" />
    <glyph glyph-name="numbersign" unicode="#" horiz-adv-x="1336" 
d="M1030 1461c62.667 -17.333 94.001 -48.668 94.001 -94.001v-11c0 -21.333 -23 -141 -69 -359h71l34 4c54 0 88.667 -35.333 104 -106c-14 -70 -49.333 -105 -106 -105h-145l-26 -132h104c77.333 -7.33301 116 -43.666 116 -108.999c-12.667 -65.333 -36.667 -98 -72 -98
v-11l-52 11h-138c-52.667 -266 -85 -411 -97 -435c-24 -32 -52.667 -48 -86 -48h-11c-62.667 13.333 -94 46 -94 98v6l76 379h-178c2.66699 0 4 -5.66699 4 -17c0 -30 -9.33301 -98.333 -28 -205c-28.667 -142 -49 -216.667 -61 -224c-19.333 -27.333 -47.333 -41 -84 -41
c-68.667 13.333 -103 49.333 -103 108l76 379h-62l-22 -4c-56.667 0 -91.667 35.333 -105 106v7c0 50 34 82.667 102 98h133l26 132h-102c-68 13.333 -102 49 -102 107c11.333 66.667 33.666 100 66.999 100v7l70 -7h109c54.667 292 92.334 438 113.001 438
c18.667 14.667 41 22 67 22c58 0 91.667 -35.333 101 -106l-69 -354h158c51.333 264.667 83.333 405.667 96 423c25.333 27.333 55.666 41 90.999 41zM644.001 789.998l-26 -132h157l26 132h-157z" />
    <glyph glyph-name="dollar" unicode="$" 
d="M622 210c66 48.667 99 108.667 99 180v39c0 84 -33 146.333 -99 187v-406zM336 1091v-31c0 -70.667 25.333 -120 76 -148v316c-50.667 -25.333 -76 -71 -76 -137zM507 1682l19.999 -0.00195312c50 0 81.667 -33.333 95 -100v-103c50.667 -4 117.334 -43.333 200.001 -118
c34.667 -35.333 52 -64.666 52 -87.999v-23c0 -50.667 -33.667 -81.334 -101 -92.001c-30.667 0 -70.334 27 -119.001 81c-18 15.333 -28.667 23.333 -32 24v-398c112.667 -41.333 195.667 -112.333 249 -213c40.667 -77.333 61 -151.333 61 -222
c0 -198.667 -102.333 -342.667 -307 -432h-3v-106c-16 -66.667 -51.333 -100 -106 -100c-69.333 14.667 -104 49.334 -104 104.001v104c0 -8.66699 -9.66699 -13 -29 -13c-10 0 -22.333 1 -37 3c-124 42 -213.667 108.667 -269 200l-6 34c12 69.333 46.667 104 104 104
c36.667 0 79.667 -31 129 -93c50.667 -33.333 86.667 -50.666 108 -51.999v526c-80 24.667 -138.333 63.334 -175 116.001c-72 74 -108 160 -108 258v28c0 137.333 70 247.666 210 330.999c48 23.333 72.333 35 73 35v115c18.667 60 50.334 90 95.001 90z" />
    <glyph glyph-name="percent" unicode="%" horiz-adv-x="1610" 
d="M462 1486h19.001c121.333 0 224 -54.667 308 -164c49.333 -72.667 74 -147 74 -223c0 -168 -87.333 -292 -262 -372c-50 -14 -91.333 -21 -124 -21h-7c-152 0 -268.333 73.333 -349 220c-27.333 56 -41 112.667 -41 170c0 170.667 90 294.667 270 372
c37.333 12 74.666 18 111.999 18zM1316 1466h14c63.333 -13.333 95 -46.333 95 -99v-15c0 -21.333 -48.667 -94.333 -146 -219l-864 -1142c-28 -14 -49.667 -21 -65 -21h-7c-66 14 -99 45.333 -99 94v16c0 28 37.333 87.333 112 178l897 1184c23.333 16 44.333 24 63 24z
M288.001 1097v-5c0 -85.333 47.333 -143.666 142 -174.999l33 -3h18c83.333 0 140.333 48.667 171 146l4 37c0 87.333 -46.667 146.666 -140 177.999l-44 7c-86 0 -145.333 -45.333 -178 -136zM1209 743c152.667 0 272.999 -79 360.999 -237c19.333 -58 29 -108.667 29 -152
v-12c0 -152.667 -80.333 -270 -241 -352c-50 -20 -99.667 -30 -149 -30h-7c-133.333 0 -242.666 64 -327.999 192c-36.667 62.667 -55 124.667 -55 186v23c0 138 68.333 249 205 333c66 32.667 127.667 49 185 49zM1023 352c0 -84.667 44.333 -144 133 -178l48 -6h13
c81.333 0 138.333 46.667 171 140l3 29v24c0 84.667 -50 141.667 -150 171l-34 4c-90 0 -150.333 -51.333 -181 -154z" />
    <glyph glyph-name="ampersand" unicode="&#x26;" horiz-adv-x="1457" 
d="M529 655c-117.333 -105.333 -176 -181.333 -176 -228l-4 -31v-17c0 -84 48.333 -145 145 -183l51 -7c76 0 151.333 47.333 226 142l41 41zM530 959c80 70.667 119.999 124 119.999 160v15c0 50 -30.333 87 -91 111l-33 3c-47.333 0 -82.666 -26.333 -105.999 -79l-6 -23
v-27c0 -40.667 38.667 -94 116 -160zM965.999 525l136.998 138.998c24 17.333 47 26 69 26c64.667 0 101.334 -37.333 110.001 -112c0 -38.667 -47.333 -99.334 -142 -182.001l-21 -23l197 -198c15.333 -19.333 23 -39.666 23 -60.999v-15c-14 -66 -48 -99 -102 -99h-11
c-37.333 0 -91.666 41 -162.999 123l-98 96c-136 -148 -229 -222 -279 -222c-44 -18 -90.333 -27 -139 -27c-158 0 -283.333 78.667 -376 236c-27.333 64.667 -41 126.334 -41 185.001c0 138.667 73.667 268.334 221 389.001l25 26c-116 108 -174 184.667 -174 230
c-5.33301 0 -8 32.667 -8 98c0 137.333 73.333 241.333 220 312c40.667 11.333 76 17 106 17h19c142 0 246.667 -77.667 314 -233c8 -36 12 -66.667 12 -92v-19c0 -106.667 -55 -204 -165 -292l-16 -18z" />
    <glyph glyph-name="quotesingle" unicode="'" horiz-adv-x="346" 
d="M206 1576c68 -17.333 101.999 -50.333 101.999 -99c-15.333 -227.333 -41 -341 -77 -341l-28 -8c-55.333 0 -85.666 50.667 -90.999 152l-20 187c14.667 72.667 52.667 109 114 109z" />
    <glyph glyph-name="parenleft" unicode="(" horiz-adv-x="758" 
d="M633 1626h14.001c64 -12 96 -44.667 96 -98v-17l-78 -208c-86 -232 -129 -470 -129 -714c0 -304 68.333 -605.667 205 -905l7 -24c-13.333 -72 -48 -108 -104 -108h-7c-58.667 0 -102.667 52.667 -132 158c-118.667 275.333 -178 569.666 -178 882.999
c0 336.667 75.667 668.334 227 995.001c27.333 25.333 53.666 38 78.999 38z" />
    <glyph glyph-name="parenright" unicode=")" horiz-adv-x="758" 
d="M171 1630l15 0.000976562c50 0 91.333 -52.667 124 -158c118.667 -282 178 -574 178 -876c0 -356 -78.667 -694 -236 -1014c-28.667 -18.667 -53 -28 -73 -28h-8c-56.667 0 -91.334 36.667 -104.001 110l84 210c85.333 241.333 128 480.666 128 717.999
c0 298 -68.333 600 -205 906l-7 24c12.667 72 47.334 108 104.001 108z" />
    <glyph glyph-name="asterisk" unicode="*" horiz-adv-x="1024" 
d="M474 1366l-32 103.999v13c0 55.333 37 91 111 107c70 -18 105 -53.667 105 -107v-13l-32 -102l103 64l35 5c70.667 -13.333 106 -48.666 106 -105.999v-12c0 -40 -28 -72.667 -84 -98l-118 4l93 -76l17 -45v-25c0 -56 -34.333 -90 -103 -102c-68 0 -108 45 -120 135
l-3 10l-25 -84c-27.333 -40.667 -61.333 -61 -102 -61c-68.667 15.333 -103 48 -103 98v16c0 42.667 35 84.334 105 125.001l9 7l-121 -2c-56.667 22.667 -85 58 -85 106v4c0 57.333 35.667 92.666 107 105.999c26 0 71.667 -23.667 137 -71z" />
    <glyph glyph-name="plus" unicode="+" 
d="M542 1147l11.999 0.000976562c56 0 90 -34.333 102 -103v-197h183c80.667 -6.66699 121 -44.334 121 -113.001c-13.333 -68.667 -38.666 -103 -75.999 -103v-11l-53 11h-175v-201c-12.667 -68.667 -48 -103 -106 -103h-7c-68.667 13.333 -103 46 -103 98v206h-172l-24 -4
c-58 0 -94 37 -108 111v7c0 52 35.667 86 107 102h197v201c12.667 66 46.667 99 102 99z" />
    <glyph glyph-name="comma" unicode="," horiz-adv-x="557" 
d="M283 -28c-118 20 -177 78.002 -177 174.002v4c0 68 40.667 118.333 122 151c14 7.33301 32.667 11 56 11h19c108.667 -22.667 163 -74 163 -154l1 -31l7 -47v-18c0 -135.333 -66.333 -236 -199 -302c-28.667 -18.667 -53.667 -28 -75 -28c-44.667 0 -72 29.333 -82 88
c0 49.333 34.333 80.666 103 93.999c20 11.333 40.667 30.666 62 57.999z" />
    <glyph glyph-name="hyphen" unicode="-" horiz-adv-x="670" 
d="M175 698h400c55.333 0 90.666 -36.667 105.999 -110c-16.667 -70.667 -52 -106 -106 -106h-400c-61.333 0 -97 38.667 -107 116c18.667 66.667 54.334 100 107.001 100z" />
    <glyph glyph-name="hyphen" unicode="&#xad;" horiz-adv-x="670" 
d="M175 698h400c55.333 0 90.666 -36.667 105.999 -110c-16.667 -70.667 -52 -106 -106 -106h-400c-61.333 0 -97 38.667 -107 116c18.667 66.667 54.334 100 107.001 100z" />
    <glyph glyph-name="period" unicode="." horiz-adv-x="557" 
d="M299 304c86 0 140.999 -50.332 164.999 -150.999v-28c0 -62.667 -37.667 -111 -113 -145c-13.333 -6.66699 -30.666 -10 -51.999 -10h-4c-91.333 0 -146.333 55.667 -165 167c0 73.333 39.333 125.666 118 156.999c12.667 6.66699 29.667 10 51 10z" />
    <glyph glyph-name="slash" unicode="/" horiz-adv-x="770" 
d="M661 1547c68.667 -12 103.001 -46 103.001 -102v-25c-337.333 -930 -524 -1439 -560 -1527c-28.667 -30.667 -57.334 -46 -86.001 -46h-8c-58 0 -93.333 36.667 -106 110c3.33301 22.667 190 536 560 1540c32.667 33.333 65 50 97 50z" />
    <glyph glyph-name="zero" unicode="0" horiz-adv-x="989" 
d="M476 1467c177.333 0 312.667 -94.667 406 -284c49.333 -151.333 74 -291 74 -419v-87c0 -158 -32.667 -317.667 -98 -479c-98.667 -152 -223.334 -228 -374.001 -228h-12c-164 0 -292.667 86.333 -386 259c-57.333 146.667 -86 308.667 -86 486v11c0 188 34 359 102 513
c100.667 152 225.334 228 374.001 228zM196.001 737l-0.00195312 -41c0 -168.667 30 -309.334 90 -422.001c54 -66.667 115 -100 183 -100h11c152.667 0 242.334 122.333 269.001 367c7.33301 40.667 12.333 101 15 181c0 142.667 -24.333 278.334 -73 407.001
c-56 89.333 -126.333 134 -211 134c-103.333 0 -179.666 -57.667 -228.999 -173c-36.667 -122 -55 -239.667 -55 -353z" />
    <glyph glyph-name="one" unicode="1" horiz-adv-x="568" 
d="M331 1467h18.999c63.333 -14 95 -45.667 95 -95v-1303c-12 -66 -46 -99 -102 -99h-7c-66 14 -99 45.333 -99 94v1156c-44.667 -14.667 -79 -22 -103 -22c-47.333 0 -78.666 31.667 -93.999 95v23c0 53.333 58.333 92 175 116z" />
    <glyph glyph-name="two" unicode="2" horiz-adv-x="976" 
d="M461 1466c145.333 0 271.668 -64.667 379.001 -194c56.667 -86 85 -175 85 -267c0 -140 -67 -273 -201 -399l-375 -429h497c54 0 86.667 -32.667 98 -98v-9c-10 -66.667 -44 -100 -102 -100h-736c-65.333 12 -98 46 -98 102v4c0 32.667 26.333 73.667 79 123l584 666
c28.667 40 43 86.667 43 140c0 114 -60 194 -180 240c-18.667 6 -40.667 9 -66 9h-11c-109.333 0 -188.333 -58.667 -237 -176c-6 -24 -10.333 -56 -13 -96c-24.667 -50 -57.334 -75 -98.001 -75h-10c-66 12 -99 44.667 -99 98c0 161.333 76.667 293.333 230 396
c82 43.333 159 65 231 65z" />
    <glyph glyph-name="three" unicode="3" horiz-adv-x="955" 
d="M474 1462c122 0 227 -54.333 315 -163c49.333 -66.667 74 -140.334 74 -221.001v-15c0 -113.333 -39.333 -204.333 -118 -273c118.667 -86 178 -206 178 -360c0 -159.333 -75 -291.333 -225 -396c-78 -42.667 -155 -64 -231 -64h-11c-180 0 -320 92.667 -420 278
c-24 68.667 -36 130.334 -36 185.001c-0 52 35.333 84.667 106 98c57.333 0 91 -34.333 101 -103c0 -97.333 51 -174.333 153 -231c36 -13.333 71.667 -20 107 -20c100 0 176 53 228 159c11.333 30.667 17 57 17 79v30c0 94 -52.333 167 -157 219l-127 28
c-36.667 28 -55 58.667 -55 92v4c0 67.333 44 101 132 101c40 0 82.667 28 128 84c17.333 36.667 26 70.334 26 101.001c0 69.333 -34.667 123.333 -104 162c-24.667 12.667 -52.667 19 -84 19c-80 0 -137 -42.667 -171 -128c-9.33301 -88 -23.333 -132 -42 -132
c-18 -20 -41 -30 -69 -30c-68 15.333 -102 46.666 -102 93.999v19c0 142 70.667 255 212 339c54 27.333 112.333 42.333 175 45z" />
    <glyph glyph-name="four" unicode="4" horiz-adv-x="1103" 
d="M748 1455h23c41.333 0 73 -30 95 -90l-5 -43v-720h86l34 3c50.667 0 84.667 -33.667 102 -101c0 -50.667 -30 -87 -90 -109l-61 4h-71v-335c0 -48.667 -32.667 -80 -98 -94h-10c-66 12 -99 45.667 -99 101v328h-476l-98 -4c-53.333 22.667 -80 55.334 -80 98.001v15
c-0 27.333 15.333 53 46 77c399.333 519.333 610.333 796.666 633 831.999c23.333 25.333 46.333 38 69 38zM320 602h334v435z" />
    <glyph glyph-name="five" unicode="5" 
d="M183 1460l45.002 -5h573c56.667 0 91.667 -35 105 -105c0 -56.667 -35.333 -92.667 -106 -108h-497v-319h185c180 0 320.667 -92 422 -276c31.333 -76 47 -143 47 -201c0 -164.667 -78 -301 -234 -409c-80.667 -44.667 -160.334 -67 -239.001 -67h-12
c-186 0 -331 96 -435 288c-24.667 73.333 -37 136.333 -37 189c23.333 64 59.333 96 108 96c75.333 0 113 -52.667 113 -158c28.667 -86 73.334 -144 134.001 -174c49.333 -18.667 89.666 -28 120.999 -28c117.333 0 200.666 60 249.999 180c9.33301 23.333 14 51 14 83
c0 128 -67.667 213.333 -203 256l-85 8h-261c-49.333 0 -83 29.667 -101 89v563c0 42 31 74.667 93 98z" />
    <glyph glyph-name="six" unicode="6" horiz-adv-x="951" 
d="M211 446l-0.000976562 -35c0 -91.333 52.667 -163.666 158 -216.999c30 -8.66699 60.667 -14.334 92 -17.001c112.667 0 193 59.333 241 178l10 65v13c0 118 -63.667 198.667 -191 242l-66 7c-109.333 0 -188.666 -60.333 -237.999 -181zM439.999 889
l37.999 -0.000976562c148 0 273.333 -73.667 376 -221c46 -81.333 69 -160.666 69 -237.999c0 -152.667 -69.667 -280.334 -209 -383.001c-79.333 -51.333 -161.666 -77 -246.999 -77h-19c-146.667 0 -273 72.667 -379 218c-46 82.667 -69 163.334 -69 242.001
c0 103.333 37 204.333 111 303l410 706c30 18 56 27 78 27c50 0 82.667 -34.333 98 -103c0 -28 -31.667 -92 -95 -192z" />
    <glyph glyph-name="seven" unicode="7" horiz-adv-x="964" 
d="M679 1252l-535 0.000976562c-68.667 13.333 -103 49.333 -103 108c14.667 66 46 99 94 99h731c63.333 -13.333 95 -43.333 95 -90v-19c0 -19.333 -14 -50 -42 -92l-712 -1260c-28 -18.667 -52 -28 -72 -28h-6c-66 12 -99 46 -99 102v15
c8 29.333 224.333 417.666 649 1165z" />
    <glyph glyph-name="eight" unicode="8" horiz-adv-x="972" 
d="M477 1469c124 0 229.001 -54.666 315.001 -163.999c49.333 -67.333 74 -141.333 74 -222v-19c0 -108.667 -39.333 -198.667 -118 -270c119.333 -86.667 179 -207.334 179 -362.001c0 -153.333 -70 -281.666 -210 -384.999c-79.333 -51.333 -162 -77 -248 -77h-19
c-147.333 0 -274.333 72.667 -381 218c-46 83.333 -69 164.666 -69 243.999c0 160 64 285 192 375c-41.333 32 -72.333 89.333 -93 172c-8 20.667 -12 49 -12 85v19c0 137.333 65.667 248 197 332c65.333 36 129.666 54 192.999 54zM295.001 1066
c0 -80 48.667 -136.334 146 -169.001l37 -4c84.667 0 142.667 45.333 174 136l7 48c0 88.667 -47.667 147.334 -143 176.001l-44 4c-82 0 -139 -44 -171 -132zM208.001 433c0 -118 62.999 -200.001 188.999 -246.001c15.333 -6 39.333 -9 72 -9
c111.333 0 191.333 62 240 186l7 51v36c0 94.667 -55.667 168.334 -167 221.001c-30.667 9.33301 -58.667 14 -84 14c-121.333 0 -203.666 -62 -246.999 -186z" />
    <glyph glyph-name="nine" unicode="9" horiz-adv-x="972" 
d="M210 1023l-0.000976562 -33.998c0 -87.333 49.333 -158.333 148 -213c28.667 -12.667 63 -19 103 -19c96 0 169.667 45.667 221 137c17.333 33.333 26 70 26 110v4c0 113.333 -59.667 192.666 -179 237.999c-15.333 6 -36.666 9 -63.999 9h-23
c-93.333 0 -166.333 -53.667 -219 -161c-8.66699 -30.667 -13 -54.334 -13 -71.001zM429.999 548.002c-159.333 11.333 -285 93.667 -377 247c-35.333 72.667 -53 143.667 -53 213c0 170 82.667 304.667 248 404c72 35.333 143 53 213 53c160 0 291 -76.333 393 -229
c42.667 -81.333 64 -157.333 64 -228c0 -114.667 -46 -226 -138 -334l-504 -677c-26 -18 -50.333 -27 -73 -27c-68 13.333 -102 48.333 -102 105c0 30 42 96 126 198z" />
    <glyph glyph-name="colon" unicode=":" horiz-adv-x="557" 
d="M322 982c74 0 125.333 -42.999 154 -128.999v-37c0 -64 -43 -111.333 -129 -142h-27c-101.333 15.333 -152 67.666 -152 156.999c20 100.667 71.333 151 154 151zM310 314.001h16.001c79.333 0 129.333 -46.333 150 -139v-23c0 -74 -49.667 -123 -149 -147
c-106 18.667 -159 72.667 -159 162c21.333 98 68.666 147 141.999 147z" />
    <glyph glyph-name="semicolon" unicode=";" horiz-adv-x="557" 
d="M297 956c74 0 125.333 -42.999 154 -128.999v-37c0 -64 -43 -111.333 -129 -142h-27c-101.333 15.333 -152 67.666 -152 156.999c20 100.667 71.333 151 154 151zM321 288.001c105.333 0 158 -73.999 158 -221.999v-4c0 -138.667 -83 -235.334 -249 -290.001h-28
c-50 10.667 -75 36.667 -75 78v20c12.667 49.333 42 74 88 74l17 -3c40.667 22 64.667 33 72 33c2 0 3 -0.666992 3 -2l21 7c-110 17.333 -165 69 -165 155c0 72.667 41.667 124 125 154h33z" />
    <glyph glyph-name="semicolon" unicode="&#x37e;" horiz-adv-x="557" 
d="M297 956c74 0 125.333 -42.999 154 -128.999v-37c0 -64 -43 -111.333 -129 -142h-27c-101.333 15.333 -152 67.666 -152 156.999c20 100.667 71.333 151 154 151zM321 288.001c105.333 0 158 -73.999 158 -221.999v-4c0 -138.667 -83 -235.334 -249 -290.001h-28
c-50 10.667 -75 36.667 -75 78v20c12.667 49.333 42 74 88 74l17 -3c40.667 22 64.667 33 72 33c2 0 3 -0.666992 3 -2l21 7c-110 17.333 -165 69 -165 155c0 72.667 41.667 124 125 154h33z" />
    <glyph glyph-name="less" unicode="&#x3c;" 
d="M425 625c15.333 -6.66699 184.333 -110.667 507 -312c22.667 -26.667 34 -53 34 -79v-4c0 -60.667 -36 -96 -108 -106c-28 0 -83.333 28.333 -166 85l-539 334c-26 28 -39 55.667 -39 83c0 52.667 42.667 97.667 128 135c384 247.333 587.333 371 610 371h12
c68 -17.333 102 -52.666 102 -105.999v-8c0 -50.667 -46.667 -98.334 -140 -143.001c-3.33301 -4.66699 -137 -88 -401 -250z" />
    <glyph glyph-name="equal" unicode="=" 
d="M243 863h612c55.333 0 90.666 -36.667 105.999 -110c-16.667 -70.667 -52 -106 -106 -106h-612c-61.333 0 -97 38.667 -107 116c18.667 66.667 54.334 100 107.001 100zM243 531h611.001c71.333 -14 107 -51.667 107 -113c-14.667 -68.667 -50 -103 -106 -103h-620
c-54.667 0 -87.334 37.333 -98.001 112c0 53.333 35.333 88 106 104z" />
    <glyph glyph-name="greater" unicode="&#x3e;" 
d="M247 1150c25.333 0 109.334 -46.999 252.001 -140.999c286.667 -176.667 442 -275.334 466 -296.001c16 -21.333 24 -43 24 -65v-8c0 -50.667 -37.333 -91.667 -112 -123c-392 -250 -598 -375 -618 -375h-19c-68.667 12.667 -103 48 -103 106v4
c0 51.333 47.667 100 143 146l390 249c-318.667 195.333 -487.334 302.666 -506.001 321.999c-18 24.667 -27 49.334 -27 74.001c14 71.333 50.667 107 110 107z" />
    <glyph glyph-name="question" unicode="?" horiz-adv-x="980" 
d="M527 1463c128.667 0 244.999 -56.332 348.999 -168.999c72.667 -92 109 -192 109 -300c0 -135.333 -61 -256 -183 -362c-108 -59.333 -162 -145.333 -162 -258c-10 -68.667 -46 -103 -108 -103c-66 14.667 -99 46 -99 94v30c0 168.667 87 306.667 261 414
c55.333 54.667 83 120 83 196c0 95.333 -50.667 171.666 -152 228.999c-45.333 14 -81.666 21 -108.999 21c-99.333 0 -177 -52.667 -233 -158l-27 -132c-30 -38.667 -61.667 -58 -95 -58c-68.667 14.667 -103 48.667 -103 102c0 146 71.667 273 215 381
c87.333 48.667 172 73 254 73zM519.999 228.001h18.999c58.667 0 100 -36 124 -108v-34c-15.333 -81.333 -61.666 -122 -138.999 -122c-83.333 18 -125 60.667 -125 128c0 74.667 40.333 120 121 136z" />
    <glyph glyph-name="at" unicode="@" horiz-adv-x="2019" 
d="M568 635v-11.998c0 -146.667 74 -257.334 222 -332.001c46 -17.333 87.333 -26 124 -26h32c122 0 222.667 61.667 302 185c29.333 57.333 44 112.333 44 165v16c0 141.333 -70.333 249.666 -211 324.999c-48.667 22 -99 33 -151 33h-4
c-148.667 0 -260.667 -77.667 -336 -233c-14.667 -48 -22 -88.333 -22 -121zM1293 174.002c-88.667 -83.333 -204.336 -124.997 -347.003 -124.997h-32c-196.667 0 -360 98.333 -490 295c-48 95.333 -72 191 -72 287c0 215.333 105.333 385.666 316 510.999
c90 42 177.333 63 262 63c218.667 0 391.667 -106.667 519 -320c39.333 -88 59 -178 59 -270v-358c86 0 153.667 43.667 203 131c24.667 60 37 126.333 37 199v52c0 208 -87.333 393.667 -262 557c-152 126 -318.667 189 -500 189c-268 0 -485 -118.333 -651 -355
c-79.333 -128 -119 -265 -119 -411v-4c0 -242.667 100 -445.334 300 -608.001c143.333 -105.333 300 -158 470 -158c143.333 0 289 44.667 437 134l31 7c73.333 -14.667 110 -51.667 110 -111c0 -80.667 -119.333 -154.334 -358 -221.001
c-65.333 -16.667 -129.333 -25 -192 -25h-52c-239.333 0 -459.666 90.667 -660.999 272c-203.333 205.333 -305 444.666 -305 717.999c0 278.667 112.667 523.334 338 734.001c192.667 162.667 403.334 244 632.001 244h36c286.667 0 535.667 -122.333 747 -367
c146 -186.667 219 -391.667 219 -615c0 -284 -98 -465.333 -294 -544c-51.333 -22.667 -103.333 -34 -156 -34h-28c-105.333 0 -169.666 24 -192.999 72l-5 28z" />
    <glyph glyph-name="A" unicode="A" horiz-adv-x="1191" 
d="M709 744l-121 317l-117 -317h238zM586 1458c62 0 105.667 -53.3311 131 -159.998c302.667 -788.667 455.667 -1194.33 459 -1217v-13c0 -54 -32.667 -86.667 -98 -98h-7c-60 0 -101 49.667 -123 149l-161 418h-398l-202 -533c-30 -22.667 -56 -34 -78 -34h-11
c-65.333 12 -98 45.667 -98 101v9l130 352c223.333 581.333 345 905.666 365 972.999c32 35.333 62.333 53 91 53z" />
    <glyph glyph-name="B" unicode="B" horiz-adv-x="943" 
d="M72 1467l50 -8.00098h225l15 3c126.667 0 233.667 -58.333 321 -175c44.667 -65.333 67 -136.333 67 -213v-11c0 -93.333 -28.333 -172.333 -85 -237c152 -83.333 228 -216.666 228 -399.999c0 -184 -95.333 -325.333 -286 -424c-62 -21.333 -117.333 -32 -166 -32h-342
c-66 12 -99 46 -99 102v1287c10 66.667 34 100 72 100v8zM207 1252v-363.001h109c110 0 180 37.667 210 113c8.66699 22 13 43.667 13 65v11c0 82.667 -48.333 139.334 -145 170.001l-75 4h-112zM207 681.998v-505.001h166c132.667 0 221 36.667 265 110
c29.333 42 44 88.333 44 139v7c0 120.667 -66 201.334 -198 242.001l-101 7h-176z" />
    <glyph glyph-name="C" unicode="C" horiz-adv-x="1300" 
d="M744 1466c155.333 0 301.667 -48.666 439 -145.999c14.667 -28 22 -49.667 22 -65v-8c0 -60.667 -35.667 -94.667 -107 -102h-13l-136 70c-84 26.667 -152.333 40 -205 40c-170 0 -316.667 -77.667 -440 -233c-62 -104 -93 -205.333 -93 -304
c0 -198.667 93.333 -356.334 280 -473.001c82 -42.667 164 -64 246 -64h11c104.667 0 213.667 35.333 327 106h35c63.333 -14 95 -46.667 95 -98v-11c0 -68 -91.667 -129.333 -275 -184c-55.333 -16 -113.333 -24 -174 -24h-19c-246.667 0 -453 114 -619 342
c-78.667 132.667 -118 268 -118 406c0 259.333 118 470.333 354 633c126.667 76.667 256.667 115 390 115z" />
    <glyph glyph-name="D" unicode="D" horiz-adv-x="1140" 
d="M72 1478l52 -11.002h189l42 4c225.333 0 420.333 -97.333 585 -292c106 -137.333 159 -292.666 159 -465.999c0 -239.333 -105 -440.666 -315 -603.999c-134 -92.667 -275.333 -139 -424 -139h-261c-66 12 -99 46 -99 102v1295c10 66.667 34 100 72 100v11zM208 1263
l-0.000976562 -1085h133c228 0 397 110.333 507 331c28.667 74.667 43 146.334 43 215.001c0 164.667 -73.333 308.667 -220 432c-89.333 71.333 -224.666 107 -405.999 107h-57z" />
    <glyph glyph-name="E" unicode="E" horiz-adv-x="1031" 
d="M72 1479l52 -11h737l15 4c63.333 0 100 -38 110 -114c-14 -65.333 -51.667 -98 -113 -98h-665v-452h424l54 4c50.667 0 83.667 -34.333 99 -103c0 -48.667 -28.667 -85 -86 -109l-82 4h-409v-426h683c52.667 0 84.667 -37.333 96 -112c-19.333 -64 -52.333 -96 -99 -96
h-789c-66 12 -99 46 -99 102v1296c10 66.667 34 100 72 100v11z" />
    <glyph glyph-name="F" unicode="F" horiz-adv-x="959" 
d="M72 1479l52 -11h737l15 4c63.333 0 100 -38 110 -114c-14 -65.333 -51.667 -98 -113 -98h-665v-452h424l54 4c50.667 0 83.667 -34.333 99 -103c0 -48.667 -28.667 -85 -86 -109l-82 4h-409v-506l5 -27c-16 -67.333 -50.333 -101 -103 -101h-11c-66 12 -99 46 -99 102
v1296c10 66.667 34 100 72 100v11z" />
    <glyph glyph-name="G" unicode="G" horiz-adv-x="1250" 
d="M733 1466c158.667 0 303.003 -45.333 433.003 -136c18.667 -25.333 28 -49 28 -71v-4c0 -55.333 -34.333 -89.333 -103 -102c-14.667 0 -68.667 22 -162 66c-54.667 21.333 -107.334 32 -158.001 32h-61c-132 0 -259 -64.333 -381 -193
c-78.667 -108 -118 -218.667 -118 -332v-15c0 -185.333 86 -337 258 -455c89.333 -50 178.666 -75 267.999 -75h15c88 0 171.333 21.333 250 64v296h-246c-65.333 11.333 -98 45.333 -98 102v5c11.333 66.667 45 100 101 100h352c54 0 86.667 -33.333 98 -100v-421
c0 -74 -20.333 -120.667 -61 -140c-132.667 -78 -262.334 -117 -389.001 -117h-22c-246.667 0 -453 114 -619 342c-78.667 130 -118 265.333 -118 406c-0 250.667 111.333 458 334 622c137.333 84 270.333 126 399 126z" />
    <glyph glyph-name="H" unicode="H" horiz-adv-x="1100" 
d="M94 1463h18c63.333 -13.333 95 -43.333 95 -90v-568h652v560c11.333 65.333 44 98 98 98h14c63.333 -12 95 -44.667 95 -98v-1301c0 -48.667 -33 -80 -99 -94h-10c-65.333 12 -98 46 -98 102v530h-652v-534c0 -54 -32.667 -86.667 -98 -98h-7
c-55.333 0 -89.333 34.333 -102 103v1279c8 74 39.333 111 94 111z" />
    <glyph glyph-name="I" unicode="I" horiz-adv-x="539" 
d="M160 1479l23 -4h137l18 4c70.667 -15.333 106 -52 106 -110c-12 -68.667 -46 -103 -102 -103h14v-1087h-7c49.333 0 81 -33.333 95 -100v-10c-12 -66 -46 -99 -102 -99h-183c-66 12 -99 46 -99 102v7c14 66.667 45.667 100 95 100h-7v1087h14c-60 0 -94 36 -102 108v6
c0 46.667 33.333 79.667 100 99z" />
    <glyph glyph-name="J" unicode="J" horiz-adv-x="976" 
d="M846 1469h11.9961c53.333 0 86 -33 98 -99v-926c0 -170 -79.333 -306.333 -238 -409c-75.333 -43.333 -152.666 -65 -231.999 -65h-19c-157.333 0 -288.666 75.667 -393.999 227c-48.667 80.667 -73 165.334 -73 254.001c14.667 66 46.334 99 95.001 99h15
c68 0 102 -49 102 -147c3.33301 -46.667 33 -100.334 89 -161.001c54 -42.667 113 -64 177 -64c126.667 0 213.334 66.333 260.001 199c6.66699 23.333 10 47 10 71v926c12 63.333 44.667 95 98 95z" />
    <glyph glyph-name="K" unicode="K" horiz-adv-x="1070" 
d="M122 1464h5c66.667 -11.333 100 -44 100 -98v-581c438.667 438 663.334 657 674.001 657l27 4h12c63.333 -12 95 -44.667 95 -98v-12c0 -34 -29.667 -75.333 -89 -124l-445 -448l522 -646l4 -33v-13c0 -54 -32.667 -86.667 -98 -98h-7c-40.667 0 -90.334 43 -149.001 129
l-423 513l-123 -126v-422c0 -54 -33.333 -86.667 -100 -98h-5c-55.333 0 -89.333 34 -102 102v1290c12.667 68 46.667 102 102 102z" />
    <glyph glyph-name="L" unicode="L" horiz-adv-x="951" 
d="M94 1463h17.999c63.333 -13.333 95 -43.333 95 -90v-1196h587c58 0 92.333 -37 103 -111c-19.333 -64 -53.666 -96 -102.999 -96h-692c-55.333 0 -89.333 34.333 -102 103v1279c8 74 39.333 111 94 111z" />
    <glyph glyph-name="M" unicode="M" horiz-adv-x="1490" 
d="M267 874l-0.000976562 -805.999c0 -54 -32.667 -86.667 -98 -98h-7c-55.333 0 -89.333 34.333 -102 103v1278c8 74 39.333 111 94 111h15c55.333 0 92.333 -39.333 111 -118l459 -1026c6 23.333 106.667 257.666 302 702.999l188 405c22.667 24 47.334 36 74.001 36h15
c54.667 0 86 -37 94 -111v-1278c-12.667 -68.667 -46.667 -103 -102 -103h-7c-65.333 11.333 -98 44 -98 98v807c-248 -561.333 -377.667 -851 -389 -869c-27.333 -24 -54 -36 -80 -36c-58.667 0 -107 59.333 -145 178z" />
    <glyph glyph-name="N" unicode="N" horiz-adv-x="1283" 
d="M998 374l0.00195312 992c12 63.333 44.667 95 98 95h11c54 0 86.667 -32.667 98 -98v-1288c0 -58 -35.667 -93 -107 -105c-40.667 0 -93.334 48 -158.001 144l-733 936v-978c0 -54 -33.333 -86.667 -100 -98h-5c-55.333 0 -89.333 34 -102 102v1274
c8 74 39.333 111 94 111h15c44.667 0 80.667 -29.333 108 -88c35.333 -40 295.666 -373 780.999 -999z" />
    <glyph glyph-name="O" unicode="O" horiz-adv-x="1536" 
d="M748 1465c252 0 462.666 -116.668 631.999 -350.001c76.667 -132.667 115 -266.334 115 -401.001c0 -249.333 -112.667 -456.666 -338 -621.999c-128 -81.333 -262 -122 -402 -122h-15c-257.333 0 -467 119.333 -629 358c-74 121.333 -111 252.333 -111 393
c0 238.667 104.667 439.334 314 602.001c136.667 94.667 281.334 142 434.001 142zM206.999 709.999c0 -172.667 76.667 -318.333 230 -437c94.667 -64 195.667 -96 303 -96h19c168.667 0 311.667 75.333 429 226c66.667 96 100 201 100 315c0 195.333 -89.667 350 -269 464
c-88 50.667 -178.333 76 -271 76c-178.667 0 -327 -78 -445 -234c-64 -92 -96 -196.667 -96 -314z" />
    <glyph glyph-name="P" unicode="P" horiz-adv-x="917" 
d="M94 1468h346c145.333 0 269 -74.667 371 -224c38 -76.667 57 -146 57 -208v-27c0 -135.333 -61 -252 -183 -350c-83.333 -57.333 -165 -86 -245 -86h-232v-505c0 -53.333 -33 -86 -99 -98h-7c-55.333 0 -89.333 34.333 -102 103v1283c8 74.667 39.333 112 94 112z
M208 1260l-0.000976562 -479h205c113.333 0 191.333 54.333 234 163c8.66699 22 13 48.667 13 80c0 98.667 -51.333 172 -154 220c-23.333 10.667 -51.666 16 -84.999 16h-213z" />
    <glyph glyph-name="Q" unicode="Q" horiz-adv-x="1553" 
d="M1206 426c54.667 90 81.999 187.334 81.999 292.001c0 195.333 -89.667 350.333 -269 465c-87.333 50 -177.666 75 -270.999 75c-178.667 0 -327 -78 -445 -234c-64 -92 -96 -196.667 -96 -314c0 -172.667 76.667 -318.334 230 -437.001c94.667 -64 195.667 -96 303 -96
h19c118 0 218 32.667 300 98c-88.667 96.667 -140.667 157 -156 181v38c12 63.333 44.667 95 98 95h11c34.667 0 83.667 -38.667 147 -116zM1348 273.001c100.667 -99.333 151.002 -164.001 151.002 -194.001v-7c0 -53.333 -34.333 -87.333 -103 -102
c-40.667 0 -96.334 43.333 -167.001 130c-18.667 14 -28.334 21 -29.001 21c-129.333 -100.667 -277.666 -151 -444.999 -151h-15c-256.667 0 -466.334 119.333 -629.001 358c-74 121.333 -111 252.333 -111 393c0 238.667 104.667 439.334 314 602.001
c137.333 94.667 282 142 434 142c252 0 463 -116.667 633 -350c76 -132 114 -265.667 114 -401c0 -158 -49 -305 -147 -441z" />
    <glyph glyph-name="R" unicode="R" horiz-adv-x="934" 
d="M94 1465h315.002c145.333 0 263.666 -76 354.999 -228c30 -59.333 45 -121 45 -185v-15c0 -142.667 -69.333 -259.667 -208 -351l-10 -5c221.333 -382 332 -580 332 -594v-19c0 -54 -33.333 -86.667 -100 -98h-6c-48.667 0 -95.334 48.333 -140.001 145l-301 514h-168
v-561c0 -54 -33.333 -86.667 -100 -98h-6c-55.333 0 -89.333 34.333 -102 103v1280c8 74.667 39.333 112 94 112zM208.002 1261v-425h185c104 0 172.667 56.333 206 169l3 27v28c0 82 -46.667 144.667 -140 188c-26 8.66699 -69 13 -129 13h-125z" />
    <glyph glyph-name="S" unicode="S" horiz-adv-x="892" 
d="M451 1467c134 0 246.334 -61.6689 337.001 -185.002l7 -25v-27c0 -49.333 -33.667 -79.666 -101 -90.999c-30.667 0 -72.334 29.333 -125.001 88c-36.667 23.333 -72 35 -106 35h-23c-72 0 -126.667 -39 -164 -117c-8 -17.333 -12 -34.666 -12 -51.999v-31
c0 -82.667 50 -142.667 150 -180c87.333 0 183 -42 287 -126c100.667 -102 151 -214 151 -336c0 -150 -64.333 -272.667 -193 -368c-78.667 -54.667 -165.667 -82 -261 -82c-154.667 0 -283.667 68 -387 204l-11 43c12.667 68.667 47.334 103 104.001 103
c36 0 77 -29.333 123 -88c55.333 -38 106 -57 152 -57h34c89.333 0 161.666 51 216.999 153c8.66699 32.667 13 57 13 73v38c0 88.667 -51.333 161 -154 217l-195 54c-157.333 90.667 -236 209.334 -236 356.001v27c0 145.333 77 258.666 231 339.999
c58 22.667 112 34 162 34z" />
    <glyph glyph-name="T" unicode="T" horiz-adv-x="1187" 
d="M94 1466h936c63.333 -12 95 -44.667 95 -98v-15c0 -54.667 -37 -86 -111 -94h-348v-1191c0 -54 -33.333 -86.667 -100 -98h-5c-55.333 0 -89.333 34.333 -102 103v1186h-356c-68.667 13.333 -103 49.333 -103 108c14.667 66 46 99 94 99z" />
    <glyph glyph-name="U" unicode="U" horiz-adv-x="1168" 
d="M134 1463h18c63.333 -13.333 95 -43.333 95 -90v-806c0 -162 45 -269.667 135 -323c57.333 -44.667 121 -67 191 -67c134.667 0 236.334 69.333 305.001 208c14 43.333 21 89 21 137v843c11.333 65.333 44 98 98 98h14c63.333 -12 95 -44.667 95 -98v-881
c0 -160 -76 -299 -228 -417c-96.667 -64.667 -194.667 -97 -294 -97h-26c-166.667 0 -311.334 81.333 -434.001 244c-56 88 -84 195.667 -84 323v815c8 74 39.333 111 94 111z" />
    <glyph glyph-name="V" unicode="V" horiz-adv-x="1212" 
d="M585 378l393.001 1050c30 28.667 59 43 87 43h4c55.333 0 89.666 -36.333 102.999 -109l-480 -1295c-14.667 -64.667 -49.667 -97 -105 -97h-3c-61.333 0 -105.333 56.333 -132 169c-301.333 796 -452 1203.33 -452 1222v8c0 57.333 36 91.333 108 102
c58 0 102.333 -60 133 -180z" />
    <glyph glyph-name="W" unicode="W" horiz-adv-x="1739" 
d="M850 993l-280 -973c-27.333 -33.333 -56.666 -50 -87.999 -50h-15c-58.667 0 -96.667 55.667 -114 167c-216 736.667 -333.667 1145.67 -353 1227c15.333 68 47 102 95 102h16c59.333 0 96.666 -45.667 111.999 -137l254 -885c180 632.667 277.333 961 292 985
c24 24.667 49.667 37 77 37h11c62 0 100.667 -53 116 -159c16.667 -46 100 -333 250 -861l282 970c26 33.333 52.667 50 80 50h18c63.333 -13.333 95 -43.333 95 -90v-23l-387 -1339c-30 -29.333 -58.667 -44 -86 -44h-4c-64.667 0 -105 54.667 -121 164z" />
    <glyph glyph-name="X" unicode="X" horiz-adv-x="1271" 
d="M95 1467h16c41.333 0 73.666 -23.333 96.999 -70l400 -510l438 562c21.333 12 40.666 18 57.999 18h12c53.333 0 86 -33 98 -99v-6c0 -29.333 -36.333 -86.333 -109 -171l-368 -474l466 -597l11 -40v-11c-12 -66 -46 -99 -102 -99h-4
c-45.333 0 -81.666 28.667 -108.999 86l-391 498l-438 -561c-20.667 -15.333 -41.667 -23 -63 -23h-7c-66 12 -99 46 -99 102v11c0 24 56.333 105 169 243l308 398c-305.333 386.667 -462.666 590 -471.999 610l-6 32c15.333 67.333 47 101 95 101z" />
    <glyph glyph-name="Y" unicode="Y" horiz-adv-x="1111" 
d="M536 897c235.333 354 359.333 535.668 372 545.001c18.667 14 36 21 52 21h23c46 0 77.333 -32.667 94 -98c0 -30.667 -45 -107.334 -135 -230.001l-301 -450v-604c-8.66699 -74 -40 -111 -94 -111h-16c-48 0 -80.667 28.667 -98 86v626
c0 3.33301 -51.333 81.333 -154 234l-273 411l-6 35c15.333 67.333 47 101 95 101h16c46 0 81 -29.333 105 -88z" />
    <glyph glyph-name="Z" unicode="Z" horiz-adv-x="1237" 
d="M94 1467h1021c53.333 0 86 -33 98 -99v-6c0 -26.667 -30 -75 -90 -145l-804 -1039h794c66.667 -10 100 -44 100 -102v-7c-12 -66 -46 -99 -102 -99h-1009c-57.333 0 -91.333 36 -102 108c0 27.333 62.667 119 188 275l703 907h-788c-68.667 13.333 -103 49.333 -103 108
c14.667 66 46 99 94 99z" />
    <glyph glyph-name="bracketleft" unicode="[" horiz-adv-x="779" 
d="M319 1614l71 -6.99902h290l49 4c65.333 -22.667 98 -56.667 98 -102v-12c0 -46.667 -29.667 -82 -89 -106l-74 4h-201v-1632h265c66 -14.667 99 -47.334 99 -98.001v-12c0 -62 -37.333 -97.333 -112 -106h-361c-71.333 14 -107 50.667 -107 110v1833c6 78 30 117 72 117
v7z" />
    <glyph glyph-name="backslash" unicode="\" horiz-adv-x="691" 
d="M107 1578l4 0.000976562c66 0 114 -64.333 144 -193l511 -1394c-13.333 -75.333 -49 -113 -107 -113h-16c-56.667 0 -101 63 -133 189c-314.667 847.333 -484.667 1313.67 -510 1399c11.333 74.667 47 112 107 112z" />
    <glyph glyph-name="bracketright" unicode="]" horiz-adv-x="758" 
d="M120 1611l65 -4.00098h274l48 4c66 -18 99 -53.333 99 -106v-1860c0 -52 -34.333 -84.667 -103 -98h-371c-62 0 -97.333 37.333 -106 112v6c0 47.333 35 81.666 105 102.999l24 -5h235v1632h-189l-81 -4c-62.667 20.667 -94 57.334 -94 110.001
c0 50.667 31.333 87.334 94 110.001z" />
    <glyph glyph-name="asciicircum" unicode="^" horiz-adv-x="942" 
d="M409 1464l21 0.000976562c47.333 0 93.333 -43.667 138 -131c157.333 -238 236 -367 236 -387v-24c0 -54.667 -37.333 -87.334 -112 -98.001c-46.667 0 -102.667 60.667 -168 182l-101 150l-200 -309c-32 -15.333 -57.667 -23 -77 -23c-52 0 -86 35.667 -102 107
c0 29.333 28.333 85.333 85 168c140.667 222 220.667 338.667 240 350z" />
    <glyph glyph-name="underscore" unicode="_" horiz-adv-x="958" 
d="M106 1h886.999c68 -12 102 -45.333 102 -100v-15c-13.333 -64.667 -46.666 -97 -99.999 -97h-889c-60 0 -95 38 -105 114c18.667 65.333 53.667 98 105 98z" />
    <glyph glyph-name="grave" unicode="`" horiz-adv-x="752" 
d="M310 1441l15.002 -0.000976562c35.333 0 78.666 -31 129.999 -93c125.333 -118 188 -188 188 -210l5 -23c-15.333 -70.667 -51 -106 -107 -106h-8c-38.667 0 -100.334 48.333 -185.001 145c-91.333 78.667 -137 137.667 -137 177v12c0 50.667 33 83.334 99 98.001z" />
    <glyph glyph-name="a" unicode="a" horiz-adv-x="1202" 
d="M206 519l0.000976562 -10.999c0 -136.667 68.667 -239.334 206 -308.001c42.667 -16 81 -24 115 -24h29c113.333 0 207 57 281 171c26.667 53.333 40 104.333 40 153v15c0 131.333 -65 232 -195 302c-44.667 20 -91.334 30 -140.001 30h-4c-138 0 -242 -72 -312 -216
c-13.333 -44 -20 -81.333 -20 -112zM878.001 84.001c-81.333 -76 -188.667 -114.001 -322 -114.001h-29c-184 0 -337.333 92 -460 276c-44.667 89.333 -67 179 -67 269c0 201.333 98.667 361 296 479c84 39.333 166 59 246 59c204.667 0 366.667 -100 486 -300
c36.667 -82 55 -166.333 55 -253v-433c0 -53.333 -32.667 -85.666 -98 -96.999h-7c-45.333 0 -79 26.667 -101 80v11z" />
    <glyph glyph-name="b" unicode="b" horiz-adv-x="1201" 
d="M139 1462l17 -0.000976562c63.333 -14 95 -45.667 95 -95v-420c82 78.667 195.667 118 341 118c140.667 0 268.334 -53.333 383.001 -160c109.333 -114.667 164 -243.667 164 -387c0 -205.333 -97 -366.666 -291 -483.999c-84.667 -42.667 -166.334 -64 -245.001 -64h-30
c-148 0 -285.333 69 -412 207c-78 104 -117 226.333 -117 367v823c0 49.333 31.667 81 95 95zM251 528.999v-19c0 -141.333 74.333 -246.666 223 -315.999c38.667 -11.333 74 -17 106 -17h23c137.333 0 241.333 74 312 222c11.333 44.667 17 79 17 103v23
c0 140.667 -75.333 246 -226 316c-46 11.333 -81.667 17 -107 17h-15c-137.333 0 -241.333 -73 -312 -219c-14 -40.667 -21 -77.334 -21 -110.001z" />
    <glyph glyph-name="c" unicode="c" horiz-adv-x="1002" 
d="M543 1056c140 0 268.002 -53.333 384.002 -160c11.333 -20.667 17 -39.667 17 -57v-7c-12 -65.333 -45.667 -98 -101 -98h-4c-24.667 0 -70 25 -136 75c-49.333 25.333 -99 38 -149 38h-22c-132.667 0 -233.334 -70 -302.001 -210c-16 -47.333 -24 -90 -24 -128
c0 -135.333 70.333 -238.333 211 -309c41.333 -16 86 -24 134 -24c78.667 0 158.667 34.333 240 103l41 9h15c53.333 0 85.666 -32.667 96.999 -98v-6c0 -65.333 -87.333 -131.333 -262 -198c-57.333 -10.667 -100 -16 -128 -16h-30c-146.667 0 -282.667 68.667 -408 206
c-77.333 108.667 -116 221 -116 337c0 176.667 78 324.667 234 444c99.333 66 202.333 99 309 99z" />
    <glyph glyph-name="d" unicode="d" horiz-adv-x="1166" 
d="M978 1462l18.001 -0.000976562c63.333 -13.333 95 -43.666 95 -90.999v-748l4 -128c0 -105.333 -42.667 -215 -128 -329c-120.667 -130.667 -256.667 -196 -408 -196h-30c-148 0 -285.333 69 -412 207c-78 110 -117 223.667 -117 341c0 177.333 78.667 326.333 236 447
c100 66.667 204 100 312 100c138.667 0 252 -39.333 340 -118v359l-4 65c19.333 60.667 50.666 91 93.999 91zM207.001 528.999v-19c0 -141.333 74.333 -246.666 223 -315.999c38.667 -11.333 74 -17 106 -17h23c137.333 0 241.333 74 312 222c11.333 44.667 17 79 17 103
v23c0 140.667 -75.333 246 -226 316c-46 11.333 -81.667 17 -107 17h-15c-137.333 0 -241.333 -73 -312 -219c-14 -40.667 -21 -77.334 -21 -110.001z" />
    <glyph glyph-name="e" unicode="e" horiz-adv-x="1132" 
d="M539 1055c208.667 0 370.668 -99 486.001 -297c40 -78 60 -162.333 60 -253v-22c-12 -68 -45.667 -102 -101 -102h-749c19.333 -66 73.666 -123 162.999 -171c52.667 -20 102 -30 148 -30c53.333 0 117.333 18.667 192 56h32c62.667 -12 94 -44.667 94 -98v-11
c0 -78.667 -99 -131 -297 -157h-28c-194.667 0 -350.667 91 -468 273c-47.333 86 -71 176 -71 270c0 198.667 93.667 356.667 281 474c91.333 45.333 177.333 68 258 68zM217.001 587l655.001 -0.000976562c0 24.667 -27.667 74.334 -83 149.001
c-74.667 70.667 -148 106 -220 106h-41c-109.333 0 -199.333 -54 -270 -162c-24.667 -42.667 -38.334 -73.667 -41.001 -93z" />
    <glyph glyph-name="f" unicode="f" horiz-adv-x="837" 
d="M596 1467l94.001 -0.000976562c52 0 83.333 -36 94 -108c0 -51.333 -34.333 -84.666 -103 -99.999h-60c-76.667 0 -127.334 -42.333 -152.001 -127l-3 -75v-22h132l60 3c48.667 0 80.667 -33 96 -99v-14c0 -48 -31.667 -79.667 -95 -95h-193v-719l3 -42
c0 -50.667 -34 -83.667 -102 -99c-50.667 0 -87 30 -109 90l4 51v719h-168c-52 0 -83.333 36 -94 108c-0 39.333 28.333 72.666 85 99.999l82 -3h91v38c0 182.667 81.333 308.334 244 377.001z" />
    <glyph glyph-name="g" unicode="g" horiz-adv-x="1145" 
d="M544 1051c160.667 0 299.668 -66.667 417.001 -200c81.333 -111.333 122 -217 122 -317l-4 -126v-449c0 -94 -68.667 -193.667 -206 -299c-104.667 -68.667 -214.334 -103 -329.001 -103c-196 0 -358 87.333 -486 262c-25.333 42.667 -38 73 -38 91v11
c0 48.667 31.333 80 94 94h14c47.333 0 84.333 -36 111 -108c81.333 -102 183 -153 305 -153c146 0 255.333 65.333 328 196l6 40v97c-82 -76 -189.667 -114 -323 -114h-30c-145.333 0 -280.333 68 -405 204c-76.667 108 -115 219.667 -115 335
c0 175.333 77.333 322 232 440c98.667 66 201 99 307 99zM210.001 523v-18c0 -138.667 73 -242 219 -310c38 -11.333 72.667 -17 104 -17h22c135.333 0 237.666 72.667 306.999 218c10.667 43.333 16 77 16 101v23c0 138 -73.667 241.333 -221 310
c-46 10.667 -81.333 16 -106 16h-14c-135.333 0 -237.666 -71.667 -306.999 -215c-13.333 -39.333 -20 -75.333 -20 -108z" />
    <glyph glyph-name="h" unicode="h" horiz-adv-x="1100" 
d="M142 1460l18.001 -0.000976562c63.333 -13.333 95 -43.333 95 -90v-396c69.333 60 162.666 90 279.999 90c178.667 0 321.667 -84.333 429 -253c40.667 -75.333 61 -147 61 -215v-528c0 -54 -33.333 -86.667 -100 -98h-5c-51.333 0 -85.333 31.333 -102 94v510
c0 122.667 -63.667 211.334 -191 266.001c-30 8.66699 -60.667 13 -92 13c-126 0 -215 -67.667 -267 -203c-8.66699 -28.667 -13 -78 -13 -148v-434c0 -54 -33.333 -86.667 -100 -98h-5c-51.333 0 -85.333 31.333 -102 94v1298c14 65.333 45.333 98 94 98z" />
    <glyph glyph-name="i" unicode="i" horiz-adv-x="431" 
d="M211 1316c66 -16.667 99 -48 99 -94v-22c0 -52.667 -35.667 -84 -107 -94c-51.333 0 -85 35 -101 105c14 70 50.333 105 109 105zM211 1060c66 -16.667 99.001 -48 99.001 -94v-898c0 -54 -33.333 -86.667 -100 -98h-6c-54.667 0 -88.334 34 -101.001 102v874
c8 76 44 114 108 114z" />
    <glyph glyph-name="j" unicode="j" horiz-adv-x="656" 
d="M104 -438c-59.333 0 -94 36.334 -104 109.001c-0 55.333 36.333 88.333 109 99c125.333 0 208.333 62 249 186l8 106v894c0 56 35 89.333 105 100c66 -12.667 99 -46 99 -100v-928c0 -196.667 -93.333 -340.334 -280 -431.001c-60 -21.333 -115.667 -33 -167 -35h-19z
M465 1308c70 -14 105 -48.999 105 -104.999c0 -58.667 -36.667 -93.667 -110 -105c-62.667 18 -94 49.333 -94 94v22c0 45.333 33 76.666 99 93.999z" />
    <glyph glyph-name="k" unicode="k" horiz-adv-x="1056" 
d="M410 518l-125 -80v-370c0 -54 -33.333 -86.667 -100 -98h-6c-51.333 0 -85.333 31.333 -102 94v1302c14 66 45.333 99 94 99h18c64 -14 96 -44.333 96 -91v-690c326 216 521.333 342.333 586 379h27c57.333 0 91.333 -35.667 102 -107c0 -44 -45.333 -90 -136 -138
l-276 -189l406 -514l6 -33v-9c-12 -66 -46 -99 -102 -99h-7c-40 0 -92.333 46.667 -157 140z" />
    <glyph glyph-name="l" unicode="l" horiz-adv-x="473" 
d="M159 1457h18c63.333 -13.333 95 -43.333 95 -90v-1190h49c48.667 0 80 -33 94 -99v-8c-11.333 -66.667 -45.333 -100 -102 -100h-146c-55.333 0 -89.333 34 -102 102v1275c8 73.333 39.333 110 94 110z" />
    <glyph glyph-name="m" unicode="m" horiz-adv-x="1725" 
d="M171 1036c50 0 82 -22 96 -66v0c54 44 132.333 66 235 66c136 0 245.667 -50.667 329 -152c28.667 53.333 109 100 241 140l88 12c166 0 296.667 -78.667 392 -236c32 -66 48 -129.333 48 -190v-548c0 -48.667 -32.333 -79.334 -97 -92.001h-9
c-64.667 11.333 -97 44.666 -97 99.999v532c0 106.667 -56 180.334 -168 221.001l-46 6h-35c-88.667 0 -156.667 -52 -204 -156c-6 -22 -9 -40.667 -9 -56v-547c-12 -66.667 -45 -100 -99 -100h-7c-64.667 11.333 -97 43.333 -97 96v452
c0 116.667 -14.333 188.334 -43 215.001c-48 64 -109.333 96 -184 96h-11c-102.667 0 -175 -55.333 -217 -166c-6.66699 -26.667 -10 -63 -10 -109v-488c0 -52.667 -32.333 -84.667 -97 -96h-6c-54 0 -87.333 33.333 -100 100v853c7.33301 75.333 43 113 107 113z" />
    <glyph glyph-name="n" unicode="n" horiz-adv-x="1197" 
d="M187 1053c64.667 -16.667 97.002 -48.001 97.002 -94.001v-15c80 72.667 188 109 324 109c149.333 0 281.666 -62 396.999 -186c84 -104 126 -213.667 126 -329v-475c0 -49.333 -32.667 -80.333 -98 -93h-10c-65.333 12 -98 45.667 -98 101v418
c0 173.333 -73.667 287 -221 341c-36 9.33301 -68 14 -96 14h-11c-123.333 0 -219 -64.333 -287 -193c-17.333 -38 -26 -102 -26 -192v-392c0 -53.333 -32.667 -85.666 -98 -96.999h-7c-54.667 0 -88.334 34 -101.001 102v867c8 76 44.333 114 109 114z" />
    <glyph glyph-name="o" unicode="o" horiz-adv-x="1111" 
d="M539 1048c139.333 0 265.333 -52.667 378 -158c107.333 -112.667 161 -239.667 161 -381c0 -202 -95.333 -360.667 -286 -476c-83.333 -42 -164 -63 -242 -63h-30c-145.333 0 -280.333 68 -405 204c-76.667 108 -115 219.667 -115 335c-0 175.333 77.333 322 232 440
c98.667 66 201 99 307 99zM209 520l-0.000976562 -17.998c0 -124.667 60.333 -221.334 181 -290.001c42.667 -22 88.667 -33 138 -33h22c128.667 0 227.334 67 296.001 201c15.333 41.333 23 82 23 122v18c0 103.333 -47.667 190.666 -143 261.999
c-55.333 38 -119 57 -191 57c-140.667 0 -244 -74 -310 -222c-10.667 -34.667 -16 -67 -16 -97z" />
    <glyph glyph-name="p" unicode="p" horiz-adv-x="1172" 
d="M595 1050c139.333 0 264.998 -52.332 376.998 -156.999c107.333 -112.667 161 -239.334 161 -380.001c0 -201.333 -95 -359.333 -285 -474c-83.333 -42 -163.666 -63 -240.999 -63h-30c-125.333 0 -230 38 -314 114v-443c0 -47.333 -33.667 -78.333 -101 -93
c-53.333 0 -87.666 33.667 -102.999 101v825c0 270 127.667 452 383 546c32.667 10.667 83.667 18.667 153 24zM266.998 524.001v-18.999c0 -123.333 60 -219.333 180 -288c42.667 -22 88.667 -33 138 -33h22c128.667 0 227 66.667 295 200
c15.333 41.333 23 81.666 23 120.999v19c0 102.667 -47.333 189.667 -142 261c-56 38 -119.667 57 -191 57c-140 0 -242.667 -74 -308 -222c-11.333 -35.333 -17 -67.333 -17 -96z" />
    <glyph glyph-name="q" unicode="q" horiz-adv-x="1153" 
d="M555 1040c138 0 262.998 -51.667 374.998 -155c106.667 -104 160 -241.667 160 -413v-821c-15.333 -67.333 -49.666 -101 -102.999 -101c-67.333 14.667 -101 45.667 -101 93v440c-81.333 -75.333 -188 -113 -320 -113h-29c-144.667 0 -279 67.667 -403 203
c-76 107.333 -114 218 -114 332c0 174 76.667 319.667 230 437c98.667 65.333 200.334 98 305.001 98zM226.998 516l-0.000976562 -17.999c0 -123.333 60 -219 180 -287c42 -22 87.667 -33 137 -33h22c128 0 226 66.333 294 199c15.333 41.333 23 81.666 23 120.999v18
c0 102 -47.667 188.667 -143 260c-54.667 38 -117.667 57 -189 57c-139.333 0 -241.666 -73.667 -306.999 -221c-11.333 -34.667 -17 -66.667 -17 -96z" />
    <glyph glyph-name="r" unicode="r" horiz-adv-x="925" 
d="M208 1061c65.333 -16.667 98.002 -48 98.002 -94v-16c82.667 73.333 190.334 110 323.001 110c71.333 0 148.666 -18 231.999 -54c28.667 -29.333 43 -57.666 43 -84.999v-7c-11.333 -65.333 -45 -98 -101 -98h-9c-68.667 22 -118.667 33 -150 33h-22
c-134.667 0 -233.334 -70 -296.001 -210c-13.333 -36.667 -20 -79.334 -20 -128.001v-444c0 -54 -33.333 -86.667 -100 -98h-6c-54.667 0 -88.334 34 -101.001 102v874c8 76.667 44.333 115 109 115z" />
    <glyph glyph-name="s" unicode="s" horiz-adv-x="968" 
d="M704 327c-0.666992 13.333 -14.332 21.332 -40.999 23.999c-337.333 75.333 -517.333 123.333 -540 144c-68.667 52 -103 116.333 -103 193c0 104 72.667 202.667 218 296c80 42 159 63 237 63c182.667 0 327 -84.333 433 -253l4 -37v-6c0 -56.667 -34 -90 -102 -100
c-45.333 0 -87.333 32 -126 96c-60.667 59.333 -130.334 89 -209.001 89c-102.667 0 -183 -48 -241 -144l-2 -10c0 -13.333 28.667 -22.333 86 -27c286.667 -69.333 445 -109.666 475 -120.999c82 -54 123 -122.333 123 -205v-3c0 -114 -80.667 -217 -242 -309
c-70 -31.333 -143.667 -47 -221 -47c-160 0 -295 74.667 -405 224c-14 20 -21 39.333 -21 58v22c0 54 36.667 85 110 93c35.333 0 77 -34.333 125 -103c58.667 -54.667 127.334 -82 206.001 -82c93.333 0 170.666 43.667 231.999 131z" />
    <glyph glyph-name="t" unicode="t" horiz-adv-x="691" 
d="M287 1420l16.998 0.000976562c62 -13.333 93 -43 93 -89v-300h119l33 4c51.333 0 85 -33.333 101 -100c0 -50 -29.333 -85.667 -88 -107l-60 4h-105v-509c0 -80 22.667 -127.667 68 -143l79 -7h40c48.667 0 79.334 -32.333 92.001 -97v-9
c-11.333 -64.667 -44.666 -97 -99.999 -97h-77c-129.333 0 -225.333 70 -288 210c-11.333 35.333 -17 75.666 -17 120.999v531h-42l-64 -4c-58.667 20.667 -88 56 -88 106c11.333 64.667 33.333 97 66 97v7l69 -7h59v280c8 72.667 39 109 93 109z" />
    <glyph glyph-name="u" unicode="u" horiz-adv-x="1188" 
d="M921 80c-94 -73.333 -197.667 -109.999 -311 -109.999h-26c-165.333 0 -308.666 80.667 -429.999 242c-56 87.333 -84 194 -84 320v411c8 76 44.333 114 109 114c64.667 -16.667 97 -48 97 -94v-401c0 -160 44.333 -266.667 133 -320c57.333 -44 120.666 -66 189.999 -66
c132.667 0 233 68.667 301 206c14 44.667 21 89.667 21 135v438c13.333 68 49.333 102 108 102c65.333 -14.667 98 -48.334 98 -101.001v-892c0 -50 -32.667 -81.333 -98 -94h-10c-65.333 12 -98 45.667 -98 101v9z" />
    <glyph glyph-name="v" unicode="v" horiz-adv-x="1103" 
d="M98 1059l7.00098 0.000976562c53.333 0 96.666 -47.333 129.999 -142l294 -604c216.667 460 334 699.667 352 719c24 18 48 27 72 27c68 -12.667 102 -46.334 102 -101.001v-4c0 -17.333 -56 -142 -168 -374l-281 -577c-29.333 -22 -55 -33 -77 -33h-3
c-56.667 0 -103.667 54 -141 162c-242 494 -370.333 762.667 -385 806v26c12 63.333 44.667 95 98 95z" />
    <glyph glyph-name="w" unicode="w" horiz-adv-x="1382" 
d="M658 600l-187.999 -581.002c-24.667 -32.667 -53.334 -49 -86.001 -49h-3c-49.333 0 -83.666 29 -102.999 87l-278 876c14 70.667 49 106 105 106c62 0 103.333 -57 124 -171l153 -468c122 386.667 189 588 201 604c23.333 20 48.666 31.667 75.999 35
c62 0 101.667 -48.333 119 -145l160 -494c116 366.667 180.667 564.334 194 593.001c28.667 30.667 57.667 46 87 46c67.333 -13.333 101 -49.666 101 -108.999l-295 -918c-30 -28 -58.333 -42 -85 -42h-3c-62 0 -103.667 55.333 -125 166z" />
    <glyph glyph-name="x" unicode="x" horiz-adv-x="930" 
d="M450 662c34.667 40.667 127.668 155.999 279.001 345.999c14 13.333 37.333 23 70 29c66 -16 99 -47 99 -93v-22c0 -22.667 -46.333 -88 -139 -196l-180 -227c212.667 -254.667 319 -391.667 319 -411v-22c0 -52.667 -32.667 -84.667 -98 -96h-5
c-40 0 -80.333 32 -121 96l-224 275c-182 -227.333 -279.667 -345.666 -293 -354.999c-17.333 -10.667 -35 -16 -53 -16h-3c-56.667 0 -90 35 -100 105c0 28 49 97.333 147 208l171 220l-309 387l-10 43c14 68.667 48.667 103 104 103c40.667 0 86.667 -39.333 138 -118
c109.333 -130.667 178.666 -216 207.999 -256z" />
    <glyph glyph-name="y" unicode="y" horiz-adv-x="926" 
d="M455 383c166 404.667 255.671 614.667 269.004 630c23.333 19.333 47.666 29 72.999 29c64 -12 96 -44 96 -96v-6c-2.66699 -20.667 -118.334 -303.667 -347.001 -849c-108.667 -270 -171.334 -415.667 -188.001 -437c-16.667 -12.667 -38.334 -22.667 -65.001 -30
c-67.333 14.667 -101 45 -101 91v17c0 12.667 51.667 143.667 155 393l-330 805v12c12.667 64 46 96 100 96s97 -52.667 129 -158z" />
    <glyph glyph-name="z" unicode="z" horiz-adv-x="980" 
d="M66 1045l69 -7.00195h635l39 5c62 -19.333 93 -50.666 93 -93.999v-22c0 -23.333 -30.667 -68.333 -92 -135l-493 -618h492c62 -12 93 -44 93 -96v-12c0 -52.667 -32.333 -84.667 -97 -96h-705c-56.667 0 -90 35.333 -100 106c0 28 52.667 102.667 158 224l427 538h-432
l-64 -4c-59.333 20.667 -89 56.334 -89 107.001c11.333 64.667 33.333 97 66 97v7z" />
    <glyph glyph-name="braceleft" unicode="{" 
d="M712 1620l140.999 0.000976562c60 0 98 -29 114 -87v-27c0 -48 -31.667 -79.333 -95 -94h-148c-28 0 -42 -15.333 -42 -46v-579c0 -37.333 -13 -76.666 -39 -117.999c28 -31.333 42 -75.666 42 -132.999v-586c0 -20.667 14.333 -31 43 -31h144
c63.333 -13.333 95 -46 95 -98v-15c0 -49.333 -33 -81 -99 -95h-152c-114.667 0 -193 63.667 -235 191l-4 55v575c0 17.333 -8.66699 27.666 -26 30.999h-84c-68.667 13.333 -103 49.666 -103 108.999c14.667 66.667 46.334 100 95.001 100h61c35.333 0 53 7.66699 53 23
v574c0 125.333 64 207.666 192 246.999z" />
    <glyph glyph-name="bar" unicode="|" 
d="M534 1649h10.999c64 -12 96 -45 96 -99v-1908c0 -48 -34.667 -79.667 -104 -95c-57.333 0 -92.666 36 -105.999 108v1890c12 69.333 46.333 104 103 104z" />
    <glyph glyph-name="braceright" unicode="}" 
d="M207 1608l154 -0.00195312c108 0 184 -60 228 -180l4 -39v-582c0 -22.667 18.667 -34 56 -34h65c56.667 -17.333 85 -49.666 85 -96.999v-15c0 -50 -32.667 -81.333 -98 -94h-82c-20 0 -30 -21.333 -30 -64v-554c0 -98 -60 -170.333 -180 -217l-50 -4h-154
c-66 10 -99 43.667 -99 101v7c11.333 65.333 43.666 98 96.999 98h139c27.333 0 41 10 41 30v562c0 64 14 113 42 147c-25.333 36.667 -38 76.334 -38 119.001v580c0 20 -13.667 30 -41 30h-143c-53.333 0 -85.666 33.667 -96.999 101c10 70 43.667 105 101 105z" />
    <glyph glyph-name="asciitilde" unicode="~" 
d="M403 881h24c67.333 0 142.333 -27.667 225 -83l29 -8h16l98 30c85.333 -16.667 128 -59 128 -127c0 -82 -70 -132 -210 -150h-36c-66.667 0 -141 28 -223 84l-30 7h-17l-91 -24h-17c-75.333 14.667 -113 53.667 -113 117v14c0 64 42.333 105.667 127 125
c28 10 58 15 90 15z" />
    <glyph glyph-name="exclamdown" unicode="&#xa1;" horiz-adv-x="672" 
d="M330 1357h14c55.333 0 94 -28 116 -84l8 -33c0 -76.667 -43 -120.667 -129 -132c-68.667 0 -109.667 43 -123 129c17.333 80 55.333 120 114 120zM338 1095h9c62 -10.667 93 -42.667 93 -96v-931c-9.33301 -62.667 -41.333 -94 -96 -94h-9
c-60.667 11.333 -91 42.333 -91 93v935c0 51.333 31.333 82.333 94 93z" />
    <glyph glyph-name="cent" unicode="&#xa2;" horiz-adv-x="1105" 
d="M529 825c-109.333 -12.667 -194.333 -80.001 -255 -202.001c-15.333 -46.667 -23 -88 -23 -124c0 -85.333 29 -158.666 87 -219.999zM802 1417l14 -0.00195312c62 -11.333 93 -43.333 93 -96v-16l-110 -322c114.667 -52.667 172 -107 172 -163v-6
c-11.333 -64.667 -44.333 -97 -99 -97h-4c-24.667 0 -68.667 24.667 -132 74l-4 1l-214 -615c6 -2 28.667 -3 68 -3c76.667 0 155 33 235 99l39 11h15c52.667 0 84.667 -32.333 96 -97v-7c0 -63.333 -85.333 -127.666 -256 -192.999c-56 -10.667 -97.667 -16 -125 -16h-29
c-35.333 0 -72.666 5.33301 -111.999 16c-58.667 -179.333 -98.334 -276.333 -119.001 -291l-60 -22c-70 16 -105 50.667 -105 104c0 12.667 33.333 111.334 100 296.001c-144.667 108 -217 250.667 -217 428c0 191.333 91.667 346.333 275 465c90.667 44 177.667 66 261 66
l18 -1c75.333 227.333 120 346 134 356c20.667 19.333 42.667 29 66 29z" />
    <glyph glyph-name="sterling" unicode="&#xa3;" horiz-adv-x="946" 
d="M227 804c-62.667 120 -94.001 216.666 -94.001 289.999c0 166 87.333 294 262 384c55.333 16.667 96.333 25 123 25h39c131.333 0 244 -62.667 338 -188l6 -40c-16.667 -70.667 -52.667 -106 -108 -106c-32.667 0 -73 27 -121 81c-37.333 28 -75.666 42 -114.999 42h-23
c-88 0 -150 -52.333 -186 -157l-4 -45c0 -46 42 -141.333 126 -286h218c69.333 -13.333 104 -50 104 -110c-15.333 -67.333 -47.333 -101 -96 -101h-170l-1 5v-52c0 -88.667 -37 -206.334 -111 -353.001l-1 -3h345c-2.66699 0 -4 2 -4 6c0 10 7 30.667 21 62
c30 29.333 60 44 90 44c70 -14.667 105 -50.667 105 -108c0 -23.333 -26.667 -83.666 -80 -180.999c-26.667 -22.667 -52.667 -34 -78 -34h-568c-56 0 -90.333 34.667 -103 104c0 18.667 50.667 138 152 358c14.667 42 22 80.667 22 116l-2 36h-134
c-66.667 12.667 -100 48.334 -100 107.001c13.333 69.333 49 104 107 104h41z" />
    <glyph glyph-name="currency" unicode="&#xa4;" 
d="M442 715c0 -52.667 30.333 -89.333 91 -110h23c56.667 0 92 32.333 106 97v22c-15.333 64.667 -48.333 97 -99 97l-9 3c-74.667 -12 -112 -48.333 -112 -109zM689 423.001c-40.667 -20 -87.666 -29.999 -140.999 -29.999c-39.333 0 -83 10 -131 30
c-40 -49.333 -79 -74 -117 -74h-11c-66 12.667 -99 46.667 -99 102v12c0 37.333 24 76 72 116c-18.667 37.333 -28 77.333 -28 120v20c0 50.667 9.33301 94.667 28 132c-48 39.333 -72 76.666 -72 111.999v25c18.667 59.333 50 89 94 89h20c32.667 0 70.667 -24 114 -72
c33.333 18.667 72.666 28 117.999 28h24c54 0 97 -9.33301 129 -28c41.333 48 77 72 107 72h33c59.333 -18.667 89 -52.667 89 -102v-8c0 -34 -24.333 -73.333 -73 -118c19.333 -37.333 29 -82 29 -134c0 -46 -10 -92.333 -30 -139c49.333 -39.333 74 -77 74 -113v-21
c-19.333 -62 -52 -93 -98 -93h-20c-25.333 0 -62.333 24.667 -111 74z" />
    <glyph glyph-name="yen" unicode="&#xa5;" horiz-adv-x="1262" 
d="M538 445h-326.002l-36 -4c-70.667 14.667 -106 49.334 -106 104.001c0 56.667 34.667 91.334 104 104.001h239c-38 58 -57 91.333 -57 100c0 1.33301 0.666992 2 2 2h-196c-61.333 17.333 -92 50.666 -92 99.999c0 61.333 38 95.666 114 102.999h27
c-45.333 71.333 -67.666 107 -66.999 107c-49.333 21.333 -74 55.666 -74 102.999c0 48.667 33.667 80.667 101 96h172c57.333 0 92 -34.667 104 -104c0 -48.667 -17.667 -78 -53 -88l250 -378c172.667 250.667 264.667 376 276 376c0.666992 0 1 -0.666992 1 -2h18
c-42 25.333 -63 53.666 -63 84.999v22c18 59.333 52.667 89 104 89h144c58 0 92.333 -35 103 -105c0 -34 -22.333 -65.333 -67 -94l-72 -107h18c76 -7.33301 114 -40.666 114 -99.999v-7c0 -52 -32.333 -84 -97 -96h-175l-67 -102h235
c69.333 -13.333 104 -46.666 104 -99.999v-4c0 -57.333 -24.667 -89.333 -74 -96v-12l-68 8h-322v-379c0 -48.667 -33.667 -80.667 -101 -96h-6c-55.333 0 -93.666 28 -114.999 84l4 69v322z" />
    <glyph glyph-name="brokenbar" unicode="&#xa6;" horiz-adv-x="770" 
d="M389 1645h11c64 -12 96 -45 96 -99v-681c0 -54 -33.333 -87 -100 -99h-7c-56 0 -90.333 34.667 -103 104v671c12 69.333 46.333 104 103 104zM397 426c66 -17.333 98.999 -49 98.999 -95v-693c0 -48 -34.667 -79.667 -104 -95c-57.333 0 -92.666 36 -105.999 108v659
c8 77.333 45 116 111 116z" />
    <glyph glyph-name="section" unicode="&#xa7;" 
d="M541 1470l35.001 0.000976562c119.333 0 225.666 -56 318.999 -168l6 -36c-9.33301 -62 -37.333 -93 -84 -93h-19c-21.333 0 -59 25.333 -113 76c-38 24.667 -79.333 37 -124 37c-106 0 -176.333 -58.667 -211 -176v-42c0 -90 51 -156.667 153 -200
c130 -20 213.333 -50 250 -90c88.667 -78.667 133 -163.334 133 -254.001v-50c0 -86.667 -39.333 -164 -118 -232c96.667 -73.333 145 -174.666 145 -303.999c0 -147.333 -70 -263.333 -210 -348c-62.667 -31.333 -123 -47 -181 -47h-12c-130.667 0 -242 57.333 -334 172
l-6 35c0 53.333 32.667 84.666 98 93.999c26 0 61.667 -23 107 -69c44 -32 89 -48 135 -48c94.667 0 162.667 50 204 150l11 60c0 104.667 -59.667 176.667 -179 216c-82.667 10 -142.667 27 -180 51c-120.667 81.333 -181 179 -181 293v19c0 116 39.667 201 119 255
c-94.667 74.667 -142 173.667 -142 297v15c0 148 71.333 262.667 214 344c55.333 28.667 110.333 43 165 43zM373.001 518.001v-13.001c0 -74 41.667 -125.333 125 -154l34 -3h21c68 0 116.667 41.667 146 125l3 34c0 78.667 -46.333 131.334 -139 158.001l-35 4
c-71.333 0 -122 -40.333 -152 -121z" />
    <glyph glyph-name="dieresis" unicode="&#xa8;" horiz-adv-x="1024" 
d="M326 1339c70.667 -16.667 106 -54.333 106 -113c-14 -71.333 -51.667 -107 -113 -107c-71.333 14 -107 52 -107 114c16.667 70.667 54.667 106 114 106zM778 1339c70.667 -16.667 106 -54.333 106 -113c-14 -71.333 -51.667 -107 -113 -107c-71.333 14 -107 52 -107 114
c16.667 70.667 54.667 106 114 106z" />
    <glyph glyph-name="copyright" unicode="&#xa9;" horiz-adv-x="1674" 
d="M833 1441c240.667 0 440.333 -108 599 -324c80 -122 120 -255 120 -399c0 -257.333 -119.333 -464.333 -358 -621c-114 -65.333 -237 -98 -369 -98c-216.667 0 -403.667 93 -561 279c-102.667 137.333 -154 284 -154 440c0 234.667 103 431.667 309 591
c130.667 88 268.667 132 414 132zM218.999 729l-0.000976562 -17.999c0 -216 103 -392 309 -528c104.667 -52.667 206.334 -79 305.001 -79c209.333 0 381.333 94.333 516 283c65.333 105.333 98 217 98 335c0 212 -98 386.333 -294 523c-104.667 58 -205 87 -301 87h-38
c-187.333 0 -348 -85.333 -482 -256c-75.333 -108.667 -113 -224.334 -113 -347.001zM843.998 1230c126 0 242.667 -47.666 350 -142.999c10 -13.333 15 -27 15 -41v-8c0 -42.667 -26.333 -66.334 -79 -71.001h-3c-10 0 -51.667 26.333 -125 79
c-63.333 24.667 -118.333 37 -165 37c-151.333 0 -265.666 -77.667 -342.999 -233c-15.333 -43.333 -23 -84.666 -23 -123.999v-27c0 -122 61.667 -223.667 185 -305c63.333 -32.667 123.666 -49 180.999 -49c89.333 0 178.333 36.667 267 110l30 7
c50 -6.66699 75 -30.334 75 -71.001v-8c0 -48 -72.667 -102 -218 -162c-64 -14.667 -115.333 -22 -154 -22c-198.667 0 -353 96.333 -463 289c-35.333 77.333 -53 154 -53 230c0 178 82.667 323.667 248 437c82 50 173.667 75 275 75z" />
    <glyph glyph-name="ordfeminine" unicode="&#xaa;" horiz-adv-x="648" 
d="M318 1427l33 0.000976562c112.667 0 198.334 -62.667 257.001 -188l17 -84l-4 -67v-137l5 -27c-8.66699 -32 -26.334 -53.667 -53.001 -65h-18c-26 0 -48 15.333 -66 46v-8c-30 -25.333 -77.333 -38 -142 -38h-8c-137.333 0 -229.333 72 -276 216
c-6.66699 16 -10 39.333 -10 70c0 131.333 73 223.666 219 276.999zM189 1136c0 -70.667 43.333 -117.667 130 -141h28c64 0 110.333 39 139 117l3 34c0 64.667 -36.667 112 -110 142l-42 7c-66 0 -114 -37.667 -144 -113z" />
    <glyph glyph-name="guillemotleft" unicode="&#xab;" horiz-adv-x="944" 
d="M661 492c122.667 -143.333 189.667 -226.335 201 -249.002v-30c-8.66699 -44.667 -32 -67 -70 -67h-4c-31.333 0 -74 38.333 -128 115c-113.333 128.667 -170 204.334 -170 227.001v30c142 179.333 231.667 284 269 314l42 7c40.667 -21.333 61 -46.333 61 -75v-4
c0 -21.333 -67 -110.666 -201 -267.999zM545 841.998c46 -14.667 69.001 -35.332 69.001 -61.999v-20c0 -20.667 -63.667 -105.667 -191 -255l-8 -12c135.333 -154.667 203 -245.334 203 -272.001c-8.66699 -47.333 -32 -71 -70 -71h-30
c-30.667 22.667 -120.667 127 -270 313l-6 30c0 24 42.333 84.667 127 182c85.333 108.667 135.666 163 150.999 163l4 4h21z" />
    <glyph glyph-name="logicalnot" unicode="&#xac;" 
d="M177 782h715c66 -12.667 99 -46.667 99 -102v-348c0 -52 -34.333 -84.667 -103 -98h-10c-68.667 12.667 -103 48 -103 106v226h-589c-71.333 14 -107 51.667 -107 113c15.333 68.667 48 103 98 103z" />
    <glyph glyph-name="registered" unicode="&#xae;" horiz-adv-x="1674" 
d="M828 1446c242.667 0 444 -108.333 604 -325c80.667 -122.667 121 -256 121 -400c0 -258 -120 -465.667 -360 -623c-115.333 -65.333 -239.333 -98 -372 -98c-218.667 0 -407 93 -565 279c-104 138.667 -156 286 -156 442c0 235.333 103.667 433 311 593
c132 88 271 132 417 132zM210 732l0.00195312 -18c0 -216.667 103.667 -393 311 -529c105.333 -52.667 207.666 -79 306.999 -79c211.333 0 384.666 94.333 519.999 283c66 106 99 218 99 336c0 212.667 -98.667 387.667 -296 525c-105.333 58 -206.666 87 -303.999 87h-38
c-188.667 0 -350.334 -85.667 -485.001 -257c-76 -109.333 -114 -225.333 -114 -348zM616.002 1216l186.001 0.000976562c136.667 0 226.334 -69.333 269.001 -208c5.33301 -14 8 -35.333 8 -64c0 -99.333 -52 -177.333 -156 -234
c150 -258.667 228.333 -397.334 235 -416.001v-7c-10.667 -30 -25.667 -45 -45 -45h-15c-22.667 0 -49.334 32.667 -80.001 98l-201 347h-148v-396c-4.66699 -32.667 -18.667 -49 -42 -49h-26c-22.667 12.667 -34 27.667 -34 45v876c5.33301 35.333 21.666 53 48.999 53z
M669.003 1114l-0.00195312 -329h95c106.667 0 172.334 32.667 197.001 98c10 23.333 15 47.333 15 72c0 70.667 -40.333 121 -121 151c-11.333 5.33301 -27.666 8 -48.999 8h-137z" />
    <glyph glyph-name="macron" unicode="&#xaf;" horiz-adv-x="806" 
d="M18 1806h846.999c64.667 -12 97 -45.333 97 -100v-15c-12 -64.667 -44.333 -97 -97 -97h-847c-57.333 0 -90.666 38 -99.999 114c18 65.333 51.333 98 100 98z" />
    <glyph glyph-name="degree" unicode="&#xb0;" horiz-adv-x="674" 
d="M370 1311c-41.333 0 -76.667 -14.668 -106 -44.001s-44 -64.666 -44 -105.999s14.5 -76.333 43.5 -105s64.5 -43 106.5 -43s77.167 14.167 105.5 42.5s42.5 63.5 42.5 105.5s-14.5 77.5 -43.5 106.5s-63.833 43.5 -104.5 43.5zM368.999 1472
c84.667 0 157.002 -30.167 217.002 -90.5s90 -132.833 90 -217.5c0 -84 -30.333 -156.333 -91 -217s-133.334 -91 -218.001 -91c-86.667 0 -159.5 30 -218.5 90s-88.5 132.667 -88.5 218s30.167 158 90.5 218s133.166 90 218.499 90z" />
    <glyph glyph-name="plusminus" unicode="&#xb1;" 
d="M543 1218l24.001 0.000976562c42.667 0 75.667 -31.333 99 -94l-5 -45v-161h196c72 -11.333 108 -46.666 108 -105.999v-8c0 -52.667 -33.333 -88.334 -100 -107.001l-32 5h-172v-157l4 -44c0 -52.667 -35.667 -87 -107 -103c-52.667 0 -90.334 31.333 -113.001 94l4 53
v157h-172l-27 -5c-70 18 -105 53.667 -105 107v8c0 57.333 35.667 92.666 107 105.999h197v160l-5 41c20.667 66 53.667 99 99 99zM239.001 398.001l53 -4h533l40 4c66.667 -18 100 -53.333 100 -106v-8c0 -47.333 -29.667 -82.666 -89 -105.999l-74 4h-494l-69 -4
c-62.667 20.667 -94 56 -94 106v8c0 47.333 31.333 82.666 94 105.999z" />
    <glyph glyph-name="uni00B2" unicode="&#xb2;" 
d="M536 1567c72.667 0 135.999 -32.665 189.999 -97.998c28.667 -43.333 43 -88 43 -134c0 -70.667 -32.667 -136.667 -98 -198l-153 -174h198c34 0 54.667 -20 62 -60v-7c-6 -41.333 -27.333 -62 -64 -62h-346c-40 7.33301 -60 28.666 -60 63.999v2
c0 19.333 13.667 42 41 68l272 311c11.333 15.333 17 34 17 56c0 46 -24.333 78.333 -73 97c-7.33301 2 -16 3 -26 3h-5c-44 0 -75.667 -23.333 -95 -70c-2.66699 -10.667 -5 -25.667 -7 -45c-14.667 -31.333 -35 -47 -61 -47h-6c-40.667 7.33301 -61 28 -61 62
c0 81.333 38.667 147.666 116 198.999c40.667 22 79.334 33 116.001 33z" />
    <glyph glyph-name="uni00B3" unicode="&#xb3;" 
d="M532 1573c63.333 0 117.666 -28 162.999 -84c25.333 -34.667 38 -73 38 -115v-7c0 -58 -15.333 -101 -46 -129c50 -36 75 -93.333 75 -172c0 -81.333 -38 -148.333 -114 -201c-40 -22.667 -79.667 -34 -119 -34h-5c-92 0 -163.667 47.333 -215 142
c-12 35.333 -18 66.666 -18 93.999c0 32.667 21.667 53.667 65 63c37.333 0 59 -21.333 65 -64c0 -40.667 21.333 -73 64 -97c14.667 -5.33301 29.334 -8 44.001 -8c41.333 0 72.666 22 93.999 66c4.66699 12.667 7 23.334 7 32.001v14c0 38 -21.333 68 -64 90l-62 13
c-23.333 18 -35 37.333 -35 58v2c0 42.667 26 64 78 64c14 0 30 11 48 33c6.66699 14 10 27.333 10 40c0 26.667 -13.667 47.667 -41 63c-9.33301 4.66699 -20.333 7 -33 7c-30.667 0 -52.667 -16.333 -66 -49c-5.33301 -50 -14.666 -75 -27.999 -75
c-8 -9.33301 -22 -14 -42 -14c-42 9.33301 -63 29.333 -63 60v9c0 74 36.667 132.333 110 175c28 14.667 58 22.667 90 24z" />
    <glyph glyph-name="acute" unicode="&#xb4;" horiz-adv-x="889" 
d="M546 1444c62.667 0 99.333 -38.665 110 -115.998c0 -36.667 -64 -112.334 -192 -227.001c-50.667 -62 -94 -93 -130 -93h-15c-66 12.667 -99 46.667 -99 102v16c0 31.333 49.667 91.666 149 180.999c80 91.333 139 137 177 137z" />
    <glyph glyph-name="mu" unicode="&#xb5;" horiz-adv-x="1180" 
d="M966 77c-94 -73.333 -197.334 -109.999 -310.001 -109.999h-26c-124.667 0 -226.667 36 -306 108v-440c0 -47.333 -33.667 -78.333 -101 -93c-56 0 -90.667 35 -104 105v1289c8 75.333 44.333 113 109 113c64 -16.667 96 -47.667 96 -93v-399
c0 -160 44.333 -266 133 -318c56.667 -44 119.334 -66 188.001 -66c132.667 0 232.667 68.333 300 205c14 44 21 88.667 21 134v436c13.333 67.333 49 101 107 101c65.333 -14.667 98 -48.334 98 -101.001v-887c0 -48.667 -32.667 -80 -98 -94h-9
c-65.333 12 -98 45.667 -98 101v9z" />
    <glyph glyph-name="paragraph" unicode="&#xb6;" horiz-adv-x="1024" 
d="M433 1465l465 0.000976562c63.333 -14 95 -44.333 95 -91v-19c0 -54 -27.667 -86.667 -83 -98v-1184c-12.667 -68.667 -46.667 -103 -102 -103h-6c-66.667 11.333 -100 44 -100 98v1189h-80v-1187c-11.333 -66.667 -45.333 -100 -102 -100h-7c-66 12 -99 46 -99 102v644
c-122.667 0 -225 70.667 -307 212c-24.667 55.333 -37 110.666 -37 165.999c0 146 73.333 258.333 220 337c46 22.667 93.667 34 143 34z" />
    <glyph glyph-name="periodcentered" unicode="&#xb7;" horiz-adv-x="508" 
d="M305 776c76 0 124.668 -44.333 146.001 -133v-25c0 -55.333 -33 -98 -99 -128c-12 -6 -27.667 -9 -47 -9h-3c-80.667 0 -129.334 48.667 -146.001 146c0 66 34.667 112.667 104 140c11.333 6 26.333 9 45 9z" />
    <glyph glyph-name="periodcentered" unicode="&#x2219;" horiz-adv-x="508" 
d="M305 776c76 0 124.668 -44.333 146.001 -133v-25c0 -55.333 -33 -98 -99 -128c-12 -6 -27.667 -9 -47 -9h-3c-80.667 0 -129.334 48.667 -146.001 146c0 66 34.667 112.667 104 140c11.333 6 26.333 9 45 9z" />
    <glyph glyph-name="cedilla" unicode="&#xb8;" horiz-adv-x="1024" 
d="M578 68c64 -12.667 96 -42.667 96 -90v-40c69.333 -46 104 -108 104 -186c0 -112.667 -65.667 -185.334 -197 -218.001l-53 3h-50l-61 -3c-56.667 18.667 -85 48.334 -85 89.001v17c11.333 60 42.333 90 93 90h121c24 0 36 7.33301 36 22v3c0 10 -13.667 17.667 -41 23
c-42 20 -63 47.333 -63 82v111c0 52 33.333 84.333 100 97z" />
    <glyph glyph-name="uni00B9" unicode="&#xb9;" 
d="M561 1594l11.999 0.000976562c39.333 -8.66699 59 -29 59 -61v-614c-7.33301 -40.667 -28.666 -61 -63.999 -61h-4c-40.667 8.66699 -61 28.667 -61 60v522c-8.66699 -2.66699 -19.667 -4 -33 -4c-30 0 -50 19.333 -60 58v13c0 33.333 31.667 56.666 95 69.999z" />
    <glyph glyph-name="ordmasculine" unicode="&#xba;" horiz-adv-x="718" 
d="M400 1573c84 0 148 -44.666 192 -133.999c22 -68 33 -130.667 33 -188v-38c0 -70.667 -14.667 -142.334 -44 -215.001c-46.667 -72 -105.667 -108 -177 -108h-6c-77.333 0 -138 40.667 -182 122c-26 66 -39 138.667 -39 218v5c0 83.333 15.333 160 46 230
c48 72 107 108 177 108zM296 1239l0.000976562 -17c0 -71.333 12 -129.333 36 -174c19.333 -24 41 -36 65 -36h5c56 0 89 48.333 99 145c3.33301 17.333 5.66602 43 6.99902 77c0 59.333 -10 115.333 -30 168c-20.667 32 -46 48 -76 48c-37.333 0 -65 -21 -83 -63
c-15.333 -50.667 -23 -100 -23 -148z" />
    <glyph glyph-name="guillemotright" unicode="&#xbb;" horiz-adv-x="944" 
d="M282 829c32 0 81.999 -46.334 149.999 -139.001c100.667 -112.667 151 -181.667 151 -207c0 -22 -70 -114.667 -210 -278c-31.333 -45.333 -60.666 -68 -87.999 -68h-7c-47.333 8.66699 -71 33.334 -71 74.001c0 24 38.333 79.667 115 167l88 108
c-122 142 -188.333 224 -199 246v27c0 38 23.667 61.333 71 70zM657.999 484.999c-135.333 156 -203.002 246.999 -203.002 272.999c10.667 50 35.334 75 74.001 75c30.667 0 74.334 -39.667 131.001 -119c111.333 -125.333 167 -199.666 167 -222.999v-30
c-135.333 -173.333 -227 -280 -275 -320h-46c-23.333 10.667 -40.333 27.667 -51 51v27c0 24 67.667 112.667 203 266z" />
    <glyph glyph-name="onequarter" unicode="&#xbc;" horiz-adv-x="1470" 
d="M1215 1472l12 0.000976562c54 0 86.667 -33.333 98 -100v-6c0 -30 -43.667 -96 -131 -198c-64 -88.667 -366 -480.667 -906 -1176c-24.667 -14.667 -49.334 -22 -74.001 -22c-62.667 17.333 -94 49 -94 95v23c0 22.667 50.333 96 151 220
c542.667 707.333 836.334 1087.67 881.001 1141c20.667 15.333 41.667 23 63 23zM345 1464c30 0 56 -19 78 -57l-3 -65v-652l3 -39c-14 -45.333 -39 -68 -75 -68c-29.333 0 -53.333 17.667 -72 53v654l-32 -7h-29c-35.333 18.667 -53 42.334 -53 71.001
c0 49.333 36.667 79.666 110 90.999c0 2 24.333 8.33301 73 19zM1109 563.001l-150 -198h150v198zM1185 859.001c32.667 0 57.667 -20.999 75 -62.999l-3 -44v-387h57c40.667 0 65 -28 73 -84c-18 -42.667 -43.667 -64 -77 -64h-53v-195
c-20.667 -34.667 -45.667 -52 -75 -52c-48.667 9.33301 -73 34.666 -73 75.999v171h-311c-43.333 9.33301 -65 32 -65 68v29c227.333 292.667 357 462.667 389 510c16 23.333 37 35 63 35z" />
    <glyph glyph-name="onehalf" unicode="&#xbd;" horiz-adv-x="1492" 
d="M1202 1467l11.001 0.000976562c54 0 86.667 -33.333 98 -100v-6c0 -30 -43.667 -95.667 -131 -197c-63.333 -88 -364 -478.667 -902 -1172c-24.667 -14.667 -49.334 -22 -74.001 -22c-62.667 17.333 -94 48.666 -94 93.999v23c0 22.667 50 96 150 220
c541.333 704.667 834.333 1083.67 879 1137c20.667 15.333 41.667 23 63 23zM334.001 1459c30 0 56.667 -18.667 80 -56l-5 -66v-649l5 -39c-15.333 -46 -41 -69 -77 -69c-28.667 0 -52.667 17.667 -72 53v652l-31 -7h-29c-35.333 18.667 -53 42.667 -53 72
c0 48.667 36.667 78.667 110 90c0 2 24 8.33301 72 19zM1105 845.001c129.333 0 221 -69.667 275 -209l3 -44v-42c0 -74 -54.333 -163.333 -163 -268l-143 -165h227l20 5c47.333 -15.333 71 -35.666 71 -60.999v-22c-9.33301 -43.333 -32 -65 -68 -65h-417
c-38.667 0 -62.667 24 -72 72c0 20 63.333 98.667 190 236c136 151.333 204 233.666 204 246.999l4 27v29c-17.333 75.333 -59 113 -125 113c-58.667 0 -100.667 -32.333 -126 -97c0 -52.667 -19.667 -86 -59 -100h-20c-31.333 0 -55.333 20.667 -72 62
c0 124 65.667 214 197 270z" />
    <glyph glyph-name="threequarters" unicode="&#xbe;" horiz-adv-x="1541" 
d="M396 1468c96 0 168.001 -48.666 216.001 -145.999c12 -28 18 -53.667 18 -77v-22c0 -64 -19.333 -114.333 -58 -151c61.333 -42.667 92 -112 92 -208c0 -132 -73.333 -222.333 -220 -271l-58 -4h-8c-124.667 0 -212.667 73.333 -264 220l-4 58
c0 25.333 17.333 48.333 52 69h27c44.667 0 69.667 -35.667 75 -107c23.333 -62 62.333 -93 117 -93h12c60 0 100.667 36 122 108l3 26c0 57.333 -34.667 98.333 -104 123c-62 0 -93 27.667 -93 83c10.667 44.667 41 67 91 67c34.667 0 58.667 26.667 72 80v22
c0 33.333 -24.667 58.666 -74 75.999h-17c-42 0 -71 -24.333 -87 -73v-36c-18.667 -35.333 -41.334 -53 -68.001 -53h-14c-43.333 8 -65 30.333 -65 67v8c0 109.333 62 186 186 230zM1298 1460l11.9971 0.000976562c53.333 0 86 -33 98 -99v-6
c0 -30 -43.667 -95.667 -131 -197c-63.333 -88 -362.666 -476.667 -897.999 -1166c-24.667 -14.667 -49 -22 -73 -22c-62.667 17.333 -94 48.666 -94 93.999v23c0 22.667 49.667 95.667 149 219c538.667 701.333 830.334 1078.33 875.001 1131
c20.667 15.333 41.334 23 62.001 23zM1193 557.002l-148 -195h148v195zM1268 853.002c32.667 0 57.667 -21 75 -63l-3 -44v-384h56c40.667 0 65 -27.667 73 -83c-18 -42.667 -43.333 -64 -76 -64h-53v-193c-20.667 -34.667 -45.667 -52 -75 -52
c-48 9.33301 -72 34.333 -72 75v170h-309c-43.333 9.33301 -65 32 -65 68v29c226 290 354.667 458.333 386 505c16.667 24 37.667 36 63 36z" />
    <glyph glyph-name="questiondown" unicode="&#xbf;" horiz-adv-x="977" 
d="M471 1110h11.001c71.333 0 114 -45 128 -135c-15.333 -85.333 -59.333 -128 -132 -128h-4c-72.667 0 -116.334 41.667 -131.001 125v9c16 86 58.667 129 128 129zM474.001 805c68 -12 101.998 -46 101.998 -102v-7c0 -182 -85.667 -323.333 -257 -424
c-57.333 -54.667 -86 -120.667 -86 -198c0 -98.667 51.667 -174.667 155 -228c38.667 -14 72.334 -21 101.001 -21c97.333 0 173 49 227 147c12 20 22.333 66.667 31 140c33.333 40 67 60 101 60c67.333 -16 101 -50 101 -102c0 -150 -73.667 -277.667 -221 -383
c-82 -46 -161.667 -69 -239 -69c-152.667 0 -278.667 65.667 -378 197c-56.667 80 -85 168.667 -85 266c0 174 85.667 312.667 257 416c60 54 90 136 90 246c30.667 41.333 64.334 62 101.001 62z" />
    <glyph glyph-name="Agrave" unicode="&#xc0;" horiz-adv-x="1220" 
d="M507 1836h7c41.333 0 93.333 -45.333 156 -136c44.667 -47.333 67 -86 67 -116c-12 -68.667 -45.667 -103 -101 -103h-16c-34.667 0 -88.667 51 -162 153c-35.333 30 -53 66 -53 108c17.333 62.667 51.333 94 102 94zM715 749l-123 320l-118 -320h241zM590 1468
c62 0 105.668 -53.667 131.001 -161c305.333 -794 459.666 -1202.67 462.999 -1226v-13c0 -54 -33.333 -86.667 -100 -98h-6c-60 0 -101 50 -123 150l-163 421h-400l-205 -537c-30 -22.667 -56 -34 -78 -34h-10c-66 12 -99 46 -99 102v9l131 354
c225.333 585.333 348 912 368 980c32 35.333 62.333 53 91 53z" />
    <glyph glyph-name="Aacute" unicode="&#xc1;" horiz-adv-x="1212" 
d="M652 1828l6 -0.000976562c66 -12.667 99 -44 99 -94v-15c0 -29.333 -28.333 -74.666 -85 -135.999c-48.667 -72.667 -93 -109 -133 -109h-12c-53.333 0 -85.666 33.333 -96.999 100v6c0 32.667 40.667 94 122 184c27.333 42.667 60.666 64 99.999 64zM711 745.999
l-121 317l-118 -317h239zM588 1462c61.333 0 104.667 -53.666 130 -160.999c304 -790.667 457.667 -1197.33 461 -1220v-13c0 -54 -33.333 -86.667 -100 -98h-5c-60.667 0 -102 49.667 -124 149l-161 420h-399l-203 -535c-30 -22.667 -56 -34 -78 -34h-10
c-66 12 -99 46 -99 102v8l130 353c224.667 582.667 347 908 367 976c30.667 35.333 61 53 91 53z" />
    <glyph glyph-name="Acircumflex" unicode="&#xc2;" horiz-adv-x="1212" 
d="M593 1550c-47.333 -62 -88 -92.999 -122 -92.999h-11c-55.333 0 -89.333 34 -102 102c0 31.333 41 93.666 123 186.999c29.333 43.333 62.333 65 99 65h30c34 0 83.333 -44 148 -132c44.667 -47.333 67 -86.333 67 -117v-5c-10 -66.667 -44 -100 -102 -100h-7
c-37.333 0 -78.333 31 -123 93zM711 746.001l-121 317l-118 -317h239zM588 1462c61.333 0 104.667 -53.666 130 -160.999c304 -790.667 457.667 -1197.33 461 -1220v-13c0 -54 -33.333 -86.667 -100 -98h-5c-60.667 0 -102 49.667 -124 149l-161 420h-399l-203 -535
c-30 -22.667 -56 -34 -78 -34h-10c-66 12 -99 46 -99 102v8l130 353c224.667 582.667 347 908 367 976c30.667 35.333 61 53 91 53z" />
    <glyph glyph-name="Atilde" unicode="&#xc3;" horiz-adv-x="1216" 
d="M479 1765c60.667 0 128.001 -24 202.001 -72l20 -2l75 22h13c66.667 -11.333 100 -45.333 100 -102v-4c0 -64 -50 -104 -150 -120l-40 -4c-60.667 0 -125.334 24.333 -194.001 73l-17 2l-84 -23c-70.667 13.333 -106 47.333 -106 102v8c0 66 54.667 105 164 117z
M711.001 746l-121 317l-118 -317h239zM588.001 1462c61.333 0 104.667 -53.666 130 -160.999c304 -790.667 457.667 -1197.33 461 -1220v-13c0 -54 -33.333 -86.667 -100 -98h-5c-60.667 0 -102 49.667 -124 149l-161 420h-399l-203 -535c-30 -22.667 -56 -34 -78 -34h-10
c-66 12 -99 46 -99 102v8l130 353c224.667 582.667 347 908 367 976c30.667 35.333 61 53 91 53z" />
    <glyph glyph-name="Adieresis" unicode="&#xc4;" horiz-adv-x="1225" 
d="M438 1744h17c63.333 -14 95 -45.333 95 -94v-11c0 -57.333 -35.667 -91.333 -107 -102c-66.667 12.667 -100 46.667 -100 102v11c0 48.667 31.667 80 95 94zM727 1744h15c52.667 0 84 -35.667 94 -107c0 -51.333 -34.667 -85 -104 -101
c-68.667 12.667 -103 45.667 -103 99v24c18 56.667 50.667 85 98 85zM711 746l-121 317l-118 -317h239zM588 1462c61.333 0 104.667 -53.666 130 -160.999c304 -790.667 457.667 -1197.33 461 -1220v-13c0 -54 -33.333 -86.667 -100 -98h-5c-60.667 0 -102 49.667 -124 149
l-161 420h-399l-203 -535c-30 -22.667 -56 -34 -78 -34h-10c-66 12 -99 46 -99 102v8l130 353c224.667 582.667 347 908 367 976c30.667 35.333 61 53 91 53z" />
    <glyph glyph-name="Aring" unicode="&#xc5;" horiz-adv-x="1219" 
d="M581 1862l14.999 0.000976562c84.667 0 145.334 -50.667 182.001 -152l4 -39v-11c0 -82.667 -48.333 -143.334 -145 -182.001l-45 -8c-80 0 -140.667 39 -182 117c-13.333 28 -20 55.667 -20 83c0 88 51 150.667 153 188zM530.999 1666
c6.66699 -36.667 24.333 -55 53 -55c38.667 6 58 23 58 51v10c-5.33301 32.667 -20.333 49 -45 49h-16c-27.333 0 -44 -18.333 -50 -55zM712.998 748.001l-122 319l-118 -319h240zM588.998 1466c62 0 105.667 -53.667 131 -161c304.667 -793.333 458.667 -1201.33 462 -1224
v-13c0 -54 -33.333 -86.667 -100 -98h-6c-60 0 -101 49.667 -123 149l-162 421h-400l-204 -536c-30 -22.667 -56 -34 -78 -34h-10c-66 12 -99 46 -99 102v9l130 353c225.333 584.667 348 911 368 979c32 35.333 62.333 53 91 53z" />
    <glyph glyph-name="AE" unicode="&#xc6;" horiz-adv-x="1565" 
d="M810 1465l594.999 0.000976562c46 0 77.667 -33.667 95 -101c-14 -70.667 -49.667 -106 -107 -106h-470v-508h363c64 -14 96 -44.333 96 -91v-19c0 -54 -33.333 -86.667 -100 -98h-359v-364h474c55.333 0 89.333 -34.333 102 -103c0 -55.333 -34.333 -90.333 -103 -105
h-578c-55.333 0 -89.333 34.333 -102 103v469h-233c-6 -7.33301 -57.333 -101 -154 -281l-147 -257c-26 -22.667 -51.333 -34 -76 -34h-4c-57.333 0 -91.333 36 -102 108c0 21.333 82 175.666 246 462.999l496 891c26.667 22 49.334 33 68.001 33zM599.999 750.001h116v207z
" />
    <glyph glyph-name="Ccedilla" unicode="&#xc7;" horiz-adv-x="1399" 
d="M743 1462c155.333 0 297.002 -47.335 425.002 -142.002c18.667 -24.667 28 -49 28 -73c-12 -67.333 -46.667 -101 -104 -101c-16.667 0 -65.334 22 -146.001 66c-74.667 27.333 -142.334 41 -203.001 41c-166 0 -309.333 -76 -430 -228
c-61.333 -101.333 -92 -200.666 -92 -297.999c0 -194 91.333 -348.333 274 -463c80 -42 160.333 -63 241 -63h11c102 0 206 32.667 312 98l26 6h14c64.667 -11.333 97 -44.666 97 -99.999v-4c0 -77.333 -106 -143 -318 -197l-42 -4v-31
c74.667 -49.333 112 -115.333 112 -198c0 -120 -70 -196.667 -210 -230l-55 4h-53l-65 -4c-59.333 19.333 -89 50.333 -89 93v18c12 62.667 44.333 94 97 94h130c26.667 0 40 8.33301 40 25v4c0 11.333 -15.333 20 -46 26c-43.333 20.667 -65 49 -65 85v114
c-83.333 8 -184 48 -302 120c-211.333 164 -317 366.333 -317 607c0 254.667 116 462 348 622c124 75.333 251.333 113 382 113z" />
    <glyph glyph-name="Egrave" unicode="&#xc8;" horiz-adv-x="1039" 
d="M385 1859h7.99902c40.667 0 92.334 -45.333 155.001 -136c44.667 -47.333 67 -86 67 -116c-12 -68.667 -45.667 -103 -101 -103h-15c-36 0 -90 51 -162 153c-36 30 -54 66 -54 108c18.667 62.667 52.667 94 102 94zM71.999 1473l52 -11h733l15 4
c63.333 0 100 -38 110 -114c-14 -64.667 -51.667 -97 -113 -97h-662v-450h423l53 3c50.667 0 83.667 -34 99 -102c0 -48 -28.333 -84.333 -85 -109l-82 4h-408v-424h681c52 0 83.667 -37 95 -111c-19.333 -64 -52.333 -96 -99 -96h-785c-66 12 -99 46 -99 102v1290
c10 66.667 34 100 72 100v11z" />
    <glyph glyph-name="Eacute" unicode="&#xc9;" 
d="M506 1859l7.00098 -0.00292969c68 -13.333 102 -48.666 102 -105.999c0 -29.333 -32 -79.666 -96 -150.999c-46 -65.333 -85.667 -98 -119 -98h-22c-52.667 0 -84.334 36 -95.001 108c0 26.667 41.333 87.334 124 182.001c29.333 43.333 62.333 65 99 65zM72.001 1473
l52 -11h733l15 4c63.333 0 100 -38 110 -114c-14 -64.667 -51.667 -97 -113 -97h-662v-450h423l53 3c50.667 0 83.667 -34 99 -102c0 -48 -28.333 -84.333 -85 -109l-82 4h-408v-424h681c52 0 83.667 -37 95 -111c-19.333 -64 -52.333 -96 -99 -96h-785
c-66 12 -99 46 -99 102v1290c10 66.667 34 100 72 100v11z" />
    <glyph glyph-name="Ecircumflex" unicode="&#xca;" 
d="M488 1837l21.9971 0.000976562c40.667 0 87.334 -37.667 140.001 -113c55.333 -60.667 83 -103.334 83 -128.001v-18c-13.333 -63.333 -43.666 -95 -90.999 -95h-26c-31.333 0 -70 30.667 -116 92c-42 -61.333 -80.333 -92 -115 -92h-26
c-47.333 0 -77.666 31.667 -90.999 95v18c0 29.333 58 106.333 174 231zM71.9971 1473l52 -11h733l15 4c63.333 0 100 -38 110 -114c-14 -64.667 -51.667 -97 -113 -97h-662v-450h423l53 3c50.667 0 83.667 -34 99 -102c0 -48 -28.333 -84.333 -85 -109l-82 4h-408v-424h681
c52 0 83.667 -37 95 -111c-19.333 -64 -52.333 -96 -99 -96h-785c-66 12 -99 46 -99 102v1290c10 66.667 34 100 72 100v11z" />
    <glyph glyph-name="Edieresis" unicode="&#xcb;" horiz-adv-x="1027" 
d="M333 1734h17c63.333 -14 95 -45.333 95 -94v-11c0 -57.333 -35.333 -91.333 -106 -102c-67.333 12.667 -101 46.667 -101 102v11c0 48.667 31.667 80 95 94zM623 1734h14.999c52.667 0 84.334 -35.667 95.001 -107c0 -51.333 -35 -85 -105 -101
c-68.667 12 -103 45 -103 99v24c18 56.667 50.667 85 98 85zM71.999 1473l52 -11h733l15 4c63.333 0 100 -38 110 -114c-14 -64.667 -51.667 -97 -113 -97h-662v-450h423l53 3c50.667 0 83.667 -34 99 -102c0 -48 -28.333 -84.333 -85 -109l-82 4h-408v-424h681
c52 0 83.667 -37 95 -111c-19.333 -64 -52.333 -96 -99 -96h-785c-66 12 -99 46 -99 102v1290c10 66.667 34 100 72 100v11z" />
    <glyph glyph-name="Igrave" unicode="&#xcc;" horiz-adv-x="657" 
d="M246 1848c42 0 91 -39.999 147 -119.999c52 -56 78 -101 78 -135c-13.333 -68 -48.333 -102 -105 -102c-40.667 0 -84 34 -130 102c-61.333 69.333 -92 115.666 -92 138.999v22c0 50 34 81.333 102 94zM211 1462l22 -5h133l18 5c70.667 -16 106 -52.667 106 -110
c-12 -68 -46 -102 -102 -102h15v-1073h-7c48.667 0 80 -33 94 -99v-9c-12 -66 -46 -99 -102 -99h-179c-66 12 -99 46 -99 102v6c14 66 45.333 99 94 99h-7v1073h15c-60 0 -94 35.667 -102 107v6c0 45.333 33.667 78.333 101 99z" />
    <glyph glyph-name="Iacute" unicode="&#xcd;" horiz-adv-x="657" 
d="M404 1858l7 -0.00292969c68 -13.333 102 -48.666 102 -105.999c0 -29.333 -32 -79.666 -96 -150.999c-46 -65.333 -85.667 -98 -119 -98h-22c-52.667 0 -84 36 -94 108c0 26.667 41 87.334 123 182.001c29.333 43.333 62.333 65 99 65zM241 1466l23 -5.00098h132l18 5
c71.333 -15.333 107 -51.666 107 -108.999c-12 -68.667 -46 -103 -102 -103h15v-1077h-7c48.667 0 80 -32.667 94 -98v-10c-12 -66 -46 -99 -102 -99h-180c-66 12 -99 46 -99 102v7c14 65.333 45.333 98 94 98h-7v1077h15c-60 0 -94 35.667 -102 107v6
c0 46.667 33.667 79.667 101 99z" />
    <glyph glyph-name="Icircumflex" unicode="&#xce;" horiz-adv-x="657" 
d="M246 1467l23 -5h133l18 5c70.667 -16 106 -52.667 106 -110c-12 -68.667 -45.667 -103 -101 -103h15v-1077h-8c50 0 81.333 -32.667 94 -98v-9c-11.333 -66.667 -45 -100 -101 -100h-181c-66 12 -99 46 -99 102v7c14 65.333 45.667 98 95 98h-8v1077h15
c-60 0 -94 36 -102 108v6c0 45.333 33.667 78.333 101 99zM334 1573c-42.667 -63.333 -84.333 -94.999 -125 -94.999h-9c-66.667 11.333 -100 45.333 -100 102v4c0 31.333 39.667 91.666 119 180.999c32 45.333 64 68 96 68h30c42.667 0 95.667 -46.333 159 -139
c42.667 -44 64 -81.667 64 -113c-12 -68.667 -46 -103 -102 -103h-7c-39.333 0 -81 31.667 -125 95z" />
    <glyph glyph-name="Idieresis" unicode="&#xcf;" horiz-adv-x="657" 
d="M174 1713h18c63.333 -13.333 95 -43.333 95 -90v-19c0 -53.333 -34 -86.333 -102 -99c-70 14 -105 50.667 -105 110c14.667 65.333 46 98 94 98zM461 1713h17c63.333 -14 95 -45.333 95 -94v-11c0 -57.333 -35.333 -91.333 -106 -102
c-67.333 12.667 -101 46.667 -101 102v11c0 48.667 31.667 80 95 94zM241 1462l23 -5h132l18 5c70.667 -15.333 106 -52 106 -110c-12 -68 -45.667 -102 -101 -102h15v-1073h-8c50 0 81.333 -33 94 -99v-8c-11.333 -66.667 -45 -100 -101 -100h-180c-66 12 -99 46 -99 102v6
c14 66 45.333 99 94 99h-7v1073h15c-60 0 -94 35.667 -102 107v6c0 45.333 33.667 78.333 101 99z" />
    <glyph glyph-name="Eth" unicode="&#xd0;" horiz-adv-x="1275" 
d="M500 1460c230.667 0 428.334 -100.333 593.001 -301c99.333 -136 149 -285.333 149 -448c0 -259.333 -121.333 -472.333 -364 -639c-125.333 -68 -250 -102 -374 -102h-252c-50.667 0 -84.334 31.333 -101.001 94v561h-56c-63.333 14 -95 46.667 -95 98v15
c0 48.667 33 80 99 94h52v526c14 66 45.333 99 94 99h221zM357 1254l-0.000976562 -422h256c65.333 -12 98 -44.667 98 -98v-14c-12 -63.333 -44.667 -95 -98 -95h-256v-448h125c230 0 397.667 104.667 503 314c33.333 71.333 50 146 50 224
c0 193.333 -90.667 349.333 -272 468c-75.333 47.333 -196.666 71 -363.999 71h-42z" />
    <glyph glyph-name="Ntilde" unicode="&#xd1;" horiz-adv-x="1288" 
d="M480 1731c60.667 0 128.334 -24.332 203.001 -72.999l21 -2l69 22h19c66.667 -10 100 -44 100 -102v-4c0 -64 -50.333 -104 -151 -120l-40 -4c-60.667 0 -125.334 24.333 -194.001 73l-18 2l-84 -23c-70.667 13.333 -106 47.666 -106 102.999v7c0 66 54.667 105 164 117z
M1002 370.001l-0.000976562 997c12 63.333 44.667 95 98 95h11c54 0 86.667 -32.667 98 -98v-1295c-12 -66 -46 -99 -102 -99h-4c-45.333 0 -92.666 39.667 -141.999 119l-754 962v-983c0 -54 -32.667 -86.667 -98 -98h-7c-51.333 0 -85.333 31.333 -102 94v1300
c14 65.333 45.333 98 94 98h15c43.333 0 78.333 -27.333 105 -82z" />
    <glyph glyph-name="Ograve" unicode="&#xd2;" horiz-adv-x="1519" 
d="M676 1851l21.999 -0.000976562c32.667 0 74.334 -35 125.001 -105c59.333 -65.333 89 -114 89 -146c-12.667 -68 -47.667 -102 -105 -102h-3c-42 0 -90 41.333 -144 124c-52 50.667 -78 94.334 -78 131.001c14.667 65.333 46 98 94 98zM743.999 1457
c250.667 0 460.333 -116 629 -348c76 -132 114 -265 114 -399c0 -248 -112 -454.333 -336 -619c-128 -80.667 -261.333 -121 -400 -121h-15c-255.333 0 -464 118.667 -626 356c-73.333 120.667 -110 251 -110 391c0 237.333 104 437 312 599c136.667 94 280.667 141 432 141
zM205.998 705.999c0 -172 76.334 -316.666 229.001 -433.999c94 -64 194.333 -96 301 -96h19c167.333 0 309.333 75 426 225c66.667 95.333 100 199.666 100 312.999c0 194.667 -89.333 348.667 -268 462c-86.667 50 -176.334 75 -269.001 75
c-178 0 -325.333 -77.667 -442 -233c-64 -91.333 -96 -195.333 -96 -312z" />
    <glyph glyph-name="Oacute" unicode="&#xd3;" horiz-adv-x="1532" 
d="M798 1856h18.001c66 -14 99 -47.667 99 -101c0 -34 -43 -97.333 -129 -190c-21.333 -41.333 -55 -62 -101 -62c-54.667 0 -88.334 34 -101.001 102c0 34.667 38.333 93 115 175c31.333 50.667 64.333 76 99 76zM746.001 1461c251.333 0 461.667 -116.332 631 -348.999
c76 -132 114 -265.333 114 -400c0 -248.667 -112.333 -455.334 -337 -620.001c-128 -81.333 -261.667 -122 -401 -122h-15c-256 0 -465.333 119 -628 357c-73.333 121.333 -110 252 -110 392c0 238 104.333 438 313 600c136.667 94.667 281 142 433 142zM207.002 708.001
c0 -172.667 76.334 -317.667 229.001 -435c94 -64 194.667 -96 302 -96h19c168 0 310.667 75 428 225c66 95.333 99 200 99 314c0 194.667 -89.333 349 -268 463c-87.333 50 -177.333 75 -270 75c-178.667 0 -326.334 -77.667 -443.001 -233c-64 -92 -96 -196.333 -96 -313z
" />
    <glyph glyph-name="Ocircumflex" unicode="&#xd4;" horiz-adv-x="1523" 
d="M744 1457c250.667 0 460.333 -116 629 -348c76 -132 114 -265 114 -399c0 -248 -112 -454.333 -336 -619c-128 -80.667 -261.333 -121 -400 -121h-15c-255.333 0 -464 118.667 -626 356c-73.333 120.667 -110 251 -110 391c0 237.333 104 437 312 599
c136.667 94 280.667 141 432 141zM205.999 706c0 -172 76.334 -316.666 229.001 -433.999c94 -64 194.333 -96 301 -96h19c167.333 0 309.333 75 426 225c66.667 95.333 100 199.666 100 312.999c0 194.667 -89.333 348.667 -268 462c-86.667 50 -176.334 75 -269.001 75
c-178 0 -325.333 -77.667 -442 -233c-64 -91.333 -96 -195.333 -96 -312zM741 1583c-47.333 -62 -87.666 -92.999 -120.999 -92.999h-12c-54.667 0 -88.334 34 -101.001 102c0 31.333 40.667 93.666 122 186.999c30 42.667 63 64 99 64h31c33.333 0 82 -44 146 -132
c45.333 -47.333 68 -86 68 -116v-7c-11.333 -65.333 -45.333 -98 -102 -98h-7c-38 0 -79 31 -123 93z" />
    <glyph glyph-name="Otilde" unicode="&#xd5;" horiz-adv-x="1528" 
d="M620 1802h17.999c54 0 113.667 -21.667 179 -65l21 -6h10l79 24c70.667 -14 106 -49.333 106 -106c0 -68 -57 -109.333 -171 -124h-28c-53.333 0 -112.666 22 -177.999 66l-21 5h-11l-72 -19h-14c-63.333 13.333 -95 46 -95 98v11c0 54 35 88.667 105 104
c22 8 46 12 72 12zM743.999 1457c250.667 0 460.333 -116 629 -348c76 -132 114 -265 114 -399c0 -248 -112 -454.333 -336 -619c-128 -80.667 -261.333 -121 -400 -121h-15c-255.333 0 -464 118.667 -626 356c-73.333 120.667 -110 251 -110 391c0 237.333 104 437 312 599
c136.667 94 280.667 141 432 141zM205.998 706c0 -172 76.334 -316.666 229.001 -433.999c94 -64 194.333 -96 301 -96h19c167.333 0 309.333 75 426 225c66.667 95.333 100 199.666 100 312.999c0 194.667 -89.333 348.667 -268 462c-86.667 50 -176.334 75 -269.001 75
c-178 0 -325.333 -77.667 -442 -233c-64 -91.333 -96 -195.333 -96 -312z" />
    <glyph glyph-name="Odieresis" unicode="&#xd6;" horiz-adv-x="1540" 
d="M536 1736c51.333 0 85 -34.999 101 -104.999c-16 -70.667 -51 -106 -105 -106c-68.667 15.333 -103 46.666 -103 93.999v23c0 52 35.667 83.333 107 94zM962 1736c51.333 0 85 -34.999 101 -104.999c-16 -70.667 -51.333 -106 -106 -106
c-68 15.333 -102 46.666 -102 93.999v23c0 52 35.667 83.333 107 94zM746 1461c251.333 0 461.667 -116.332 631 -348.999c76 -132 114 -265.333 114 -400c0 -248.667 -112.333 -455.334 -337 -620.001c-128 -81.333 -261.667 -122 -401 -122h-15
c-256 0 -465.333 119 -628 357c-73.333 121.333 -110 252 -110 392c-0 238 104.333 438 313 600c136.667 94.667 281 142 433 142zM207.001 708.003c0 -172.667 76.334 -317.667 229.001 -435c94 -64 194.667 -96 302 -96h19c168 0 310.667 75 428 225
c66 95.333 99 200 99 314c0 194.667 -89.333 349 -268 463c-87.333 50 -177.333 75 -270 75c-178.667 0 -326.334 -77.667 -443.001 -233c-64 -92 -96 -196.333 -96 -313z" />
    <glyph glyph-name="multiply" unicode="&#xd7;" 
d="M725 638c100.667 -92.667 150.999 -152.667 150.999 -180l6 -23c-19.333 -84 -61.666 -126 -126.999 -126c-43.333 0 -103 44.667 -179 134l-25 21c-88 -100 -154 -150 -198 -150h-29c-68 21.333 -102 56.666 -102 105.999v24c0 40.667 36.667 91.334 110 152.001l41 44
c-100.667 99.333 -151 160.333 -151 183v32c14.667 75.333 53.334 113 116.001 113h15c41.333 0 99.666 -44.667 174.999 -134l20 -18c98.667 101.333 159.667 152 183 152h39c56 0 93 -39.333 111 -118c0 -47.333 -52 -118 -156 -212z" />
    <glyph glyph-name="Oslash" unicode="&#xd8;" horiz-adv-x="1561" 
d="M1215 971l-762 -713c78 -54.667 172.333 -82 283 -82h18c168 0 310.333 75 427 225c66 94.667 99 198.667 99 312c0 90 -21.667 176 -65 258zM1083 1131c-103.333 79.333 -216.667 119.001 -340 119.001c-177.333 0 -324.333 -77.333 -441 -232
c-64 -92 -96 -196 -96 -312c0 -122.667 33.667 -224.334 101 -305.001zM300.999 116.001c-98 -94.667 -156 -142 -174 -142l-19 -4h-7c-56.667 0 -90.334 35.667 -101.001 107c0 34.667 43 87.667 129 159c2.66699 8 10.334 16.333 23.001 25
c-101.333 129.333 -152 281.333 -152 456c0 236.667 104 436 312 598c136.667 94 280.334 141 431.001 141c185.333 0 348.666 -62.333 489.999 -187c92 94.667 152.667 142 182 142h12c64.667 -16.667 97 -50.334 97 -101.001v-7c0 -38 -38.333 -87 -115 -147l-42 -41
c79.333 -121.333 119 -256.666 119 -405.999c0 -247.333 -111.667 -453.333 -335 -618c-128 -80.667 -261.333 -121 -400 -121h-15c-157.333 0 -302.333 48.667 -435 146z" />
    <glyph glyph-name="Ugrave" unicode="&#xd9;" horiz-adv-x="1103" 
d="M471 1849c44.667 0 100.001 -47.334 166.001 -142.001c40 -38.667 60 -74 60 -106v-8c0 -55.333 -34.333 -89 -103 -101c-42.667 0 -95.334 45 -158.001 135c-44.667 46 -67 83.667 -67 113v8c0 52.667 34 86.334 102 101.001zM94.001 1458l18.001 -0.00195312
c63.333 -13.333 95 -43.666 95 -90.999v-802c0 -161.333 44.667 -268.666 134 -321.999c56.667 -44 120 -66 190 -66c134 0 235 69 303 207c14 42.667 21 88 21 136v839c12 66 44.667 99 98 99h14c63.333 -12 95 -44.667 95 -98v-878c0 -159.333 -75.667 -298 -227 -416
c-96.667 -64 -194.334 -96 -293.001 -96h-26c-166 0 -310 81 -432 243c-56 88 -84 195.333 -84 322v824c14 66 45.333 99 94 99z" />
    <glyph glyph-name="Uacute" unicode="&#xda;" horiz-adv-x="1107" 
d="M598 1849c66 -14 99 -47.668 99 -101.001v-8c0 -31.333 -33.667 -82.333 -101 -153c-39.333 -63.333 -81 -95 -125 -95c-68 14.667 -102 48.334 -102 101.001v8c0 32 33.333 83.333 100 154c40 62.667 83 94 129 94zM94 1458l18.001 -0.00195312
c63.333 -13.333 95 -43.666 95 -90.999v-802c0 -161.333 44.667 -268.666 134 -321.999c56.667 -44 120 -66 190 -66c134 0 235 69 303 207c14 42.667 21 88 21 136v839c12 66 44.667 99 98 99h14c63.333 -12 95 -44.667 95 -98v-878c0 -159.333 -75.667 -298 -227 -416
c-96.667 -64 -194.334 -96 -293.001 -96h-26c-166 0 -310 81 -432 243c-56 88 -84 195.333 -84 322v824c14 66 45.333 99 94 99z" />
    <glyph glyph-name="Ucircumflex" unicode="&#xdb;" horiz-adv-x="1124" 
d="M94 1463h18c63.333 -13.333 95 -43.333 95 -90v-806c0 -162 45 -269.667 135 -323c57.333 -44.667 121 -67 191 -67c134.667 0 236.334 69.333 305.001 208c14 43.333 21 89 21 137v843c11.333 65.333 44 98 98 98h14c63.333 -12 95 -44.667 95 -98v-881
c0 -160 -76 -299 -228 -417c-96.667 -64.667 -194.667 -97 -294 -97h-26c-166.667 0 -311.334 81.333 -434.001 244c-56 88 -84 195.667 -84 323v828c14 65.333 45.333 98 94 98zM543 1563c-48 -56 -77.334 -83.999 -88.001 -83.999l-23 -8h-24c-53.333 0 -86 33 -98 99v7
c0 33.333 44 98 132 194c0 29.333 33.333 47.666 100 54.999h10c43.333 0 96.333 -45 159 -135c45.333 -46.667 68 -87 68 -121c-15.333 -66 -47 -99 -95 -99h-19c-38 0 -77.333 30.333 -118 91c-1.33301 0 -2.66602 0.333008 -3.99902 1z" />
    <glyph glyph-name="Udieresis" unicode="&#xdc;" horiz-adv-x="1128" 
d="M379 1721h17c63.333 -14 95 -45.667 95 -95v-11c0 -57.333 -35.333 -91.333 -106 -102c-67.333 12.667 -101 46.667 -101 102v11c0 49.333 31.667 81 95 95zM669 1721h14.999c52.667 0 84.334 -36 95.001 -108c0 -51.333 -35 -85 -105 -101
c-68.667 12.667 -103 45.667 -103 99v24c18 57.333 50.667 86 98 86zM93.999 1463h18c63.333 -13.333 95 -43.333 95 -90v-806c0 -162 45 -269.667 135 -323c57.333 -44.667 121 -67 191 -67c134.667 0 236.334 69.333 305.001 208c14 43.333 21 89 21 137v843
c11.333 65.333 44 98 98 98h14c63.333 -12 95 -44.667 95 -98v-881c0 -160 -76 -299 -228 -417c-96.667 -64.667 -194.667 -97 -294 -97h-26c-166.667 0 -311.334 81.333 -434.001 244c-56 88 -84 195.667 -84 323v828c14 65.333 45.333 98 94 98z" />
    <glyph glyph-name="Yacute" unicode="&#xdd;" horiz-adv-x="1107" 
d="M629 1827l7 -0.000976562c68 -13.333 102 -48.333 102 -105c0 -30 -32.667 -80.667 -98 -152c-45.333 -65.333 -84.333 -98 -117 -98h-23c-52 0 -83.333 36 -94 108c0 26.667 41 87.334 123 182.001c30 43.333 63.333 65 100 65zM536 896.999
c235.333 354 359.333 535.668 372 545.001c18.667 14 36 21 52 21h23c46 0 77.333 -32.667 94 -98c0 -30.667 -45 -107.334 -135 -230.001l-301 -450v-604c-8.66699 -74 -40 -111 -94 -111h-16c-48 0 -80.667 28.667 -98 86v626c0 3.33301 -51.333 81.333 -154 234l-273 411
l-6 35c15.333 67.333 47 101 95 101h16c46 0 81 -29.333 105 -88z" />
    <glyph glyph-name="Thorn" unicode="&#xde;" horiz-adv-x="1100" 
d="M114 1466l19 -0.000976562c63.333 -13.333 95 -43.666 95 -90.999v-250h360c211.333 0 352 -92.667 422 -278c14 -43.333 21 -83.333 21 -120v-18c0 -142.667 -69.333 -257.667 -208 -345c-71.333 -35.333 -134 -53 -188 -53l-26 4h-381v-247
c0 -54 -33.333 -86.667 -100 -98h-6c-55.333 0 -89.333 34.333 -102 103v1282c8 74 39.333 111 94 111zM228 916.999v-394h405c93.333 0 155.333 53.667 186 161l4 37c0 88.667 -48.333 150.667 -145 186c-26 6.66699 -59.667 10 -101 10h-349z" />
    <glyph glyph-name="germandbls" unicode="&#xdf;" horiz-adv-x="1061" 
d="M409 1455l41.001 0.000976562c128 0 237 -60.333 327 -181c49.333 -72.667 74 -150.667 74 -234c0 -64 -20 -137.333 -60 -220v-31c0 -17.333 38.667 -69.333 116 -156c64.667 -78.667 97 -163.667 97 -255v-15c0 -158 -80.333 -278 -241 -360
c-50.667 -22 -102.667 -33 -156 -33h-3c-132.667 0 -242.334 58.667 -329.001 176l-4 39c14.667 66 48.334 99 101.001 99h7c31.333 0 68 -23.333 110 -70c39.333 -25.333 78.666 -38 117.999 -38c88.667 0 150.334 48.333 185.001 145l6 48v5c0 56 -33.333 119 -100 189
c-78 80.667 -117 161 -117 241c0 42 18.333 104.667 55 188c3.33301 7.33301 5 19.666 5 36.999v33c0 67.333 -39.667 123.333 -119 168c-24.667 12.667 -54.667 19 -90 19c-96.667 0 -163 -53 -199 -159l-7 -103v-912c0 -53.333 -32.667 -86 -98 -98h-7
c-54.667 0 -88.334 34 -101.001 102v942c0 202.667 95.333 340.667 286 414c38.667 13.333 73 20 103 20z" />
    <glyph glyph-name="agrave" unicode="&#xe0;" horiz-adv-x="1118" 
d="M493 1415h29.001c31.333 0 87.666 -53.333 168.999 -160c24 -25.333 36 -51 36 -77v-8c0 -54 -33.333 -87 -100 -99c-42 0 -85 33.333 -129 100c-60 66 -90 110.667 -90 134v15c0 47.333 28.333 79 85 95zM202.001 507l0.000976562 -11.001c0 -132.667 67 -233 201 -301
c41.333 -15.333 78.666 -23 111.999 -23h29c110 0 201 55.667 273 167c26.667 52 40 102 40 150v14c0 128 -63.667 226 -191 294c-44 20 -89.333 30 -136 30h-4c-134 0 -235.333 -70.333 -304 -211c-13.333 -43.333 -20 -79.666 -20 -108.999zM858.002 80.999
c-78.667 -74 -183.333 -111 -314 -111h-29c-180 0 -329.667 90 -449 270c-44 87.333 -66 175 -66 263c0 197.333 96.333 353.333 289 468c82.667 38.667 163 58 241 58c200 0 358.333 -97.667 475 -293c36 -80.667 54 -163 54 -247v-423c0 -52.667 -32 -84.667 -96 -96h-7
c-44.667 0 -77.667 26.333 -99 79v9z" />
    <glyph glyph-name="aacute" unicode="&#xe1;" horiz-adv-x="1114" 
d="M627 1419c66.667 -15.333 100.001 -48.333 100.001 -99v-7c0 -28 -28.667 -74.333 -86 -139c-45.333 -68.667 -91 -103 -137 -103h-4c-46.667 0 -77.334 32 -92.001 96v11c0 29.333 40 89 120 179c30.667 41.333 63.667 62 99 62zM202.001 507l0.000976562 -11.001
c0 -132.667 67 -233 201 -301c41.333 -15.333 78.666 -23 111.999 -23h29c110 0 201 55.667 273 167c26.667 52 40 102 40 150v14c0 128 -63.667 226 -191 294c-44 20 -89.333 30 -136 30h-4c-134 0 -235.333 -70.333 -304 -211c-13.333 -43.333 -20 -79.666 -20 -108.999z
M858.002 80.999c-78.667 -74 -183.333 -111 -314 -111h-29c-180 0 -329.667 90 -449 270c-44 87.333 -66 175 -66 263c0 197.333 96.333 353.333 289 468c82.667 38.667 163 58 241 58c200 0 358.333 -97.667 475 -293c36 -80.667 54 -163 54 -247v-423
c0 -52.667 -32 -84.667 -96 -96h-7c-44.667 0 -77.667 26.333 -99 79v9z" />
    <glyph glyph-name="acircumflex" unicode="&#xe2;" horiz-adv-x="1140" 
d="M203 509l0.00195312 -11.001c0 -133.333 67.333 -233.666 202 -300.999c41.333 -16 78.666 -24 111.999 -24h30c110.667 0 202 56 274 168c26.667 52 40 102 40 150v15c0 128 -64 226.333 -192 295c-44 20 -89.667 30 -137 30h-4
c-134.667 0 -236.334 -70.667 -305.001 -212c-13.333 -43.333 -20 -80 -20 -110zM862.002 80.999c-80 -74 -185 -111 -315 -111h-30c-180.667 0 -331 90.333 -451 271c-44 88 -66 176.333 -66 265c0 198 97 354.667 291 470c82.667 38.667 163 58 241 58
c201.333 0 360.666 -98 477.999 -294c36 -81.333 54 -164.333 54 -249v-425c0 -52.667 -32.333 -84.667 -97 -96h-6c-45.333 0 -78.666 26.333 -99.999 79v11zM538.002 1421c47.333 -5.33301 95.668 -44 145.001 -116c51.333 -54.667 77 -98.667 77 -132
c-12 -66.667 -46.333 -100 -103 -100c-37.333 0 -79 31 -125 93c-42.667 -62 -85.334 -93 -128.001 -93c-66.667 12.667 -100 47 -100 103c0 32.667 36.333 87.667 109 165c32 49.333 69.333 76 112 80l1 1h11z" />
    <glyph glyph-name="atilde" unicode="&#xe3;" horiz-adv-x="1122" 
d="M438 1384l19 0.000976562c52.667 0 110.667 -21.667 174 -65l21 -5h10l77 23c70 -14 105 -49 105 -105c0 -66.667 -56 -107.334 -168 -122.001h-28c-52 0 -110 21.667 -174 65l-21 5h-11l-70 -18h-14c-62 12 -93 44 -93 96v11c0 52.667 34 87 102 103
c22 8 45.667 12 71 12zM203 511.001v-11.001c0 -134 67.667 -235 203 -303c42 -16 79.667 -24 113 -24h30c111.333 0 203 56.333 275 169c27.333 52.667 41 103 41 151v15c0 128.667 -64.333 227.334 -193 296.001c-44.667 20.667 -90.667 31 -138 31h-4
c-135.333 0 -237.333 -71 -306 -213c-14 -44 -21 -81 -21 -111zM866 83c-80 -75.333 -185.667 -113 -317 -113h-30c-181.333 0 -332 91 -452 273c-44.667 88 -67 176.333 -67 265c-0 198.667 97.333 356 292 472c83.333 38.667 164 58 242 58
c202 0 361.667 -98.667 479 -296c36.667 -80.667 55 -163.667 55 -249v-427c0 -52.667 -32.333 -84.667 -97 -96h-7c-44.667 0 -77.667 26.333 -99 79v10z" />
    <glyph glyph-name="adieresis" unicode="&#xe4;" horiz-adv-x="1136" 
d="M382 1276h17c62 -14 93 -44.667 93 -92v-11c0 -56.667 -34.667 -90 -104 -100c-66 12 -99 45.333 -99 100v11c0 47.333 31 78 93 92zM664 1276h15c51.333 0 82 -35 92 -105c0 -50 -34 -83 -102 -99c-67.333 12 -101 44.333 -101 97v22c17.333 56.667 49.333 85 96 85z
M203 509l0.00195312 -11.001c0 -133.333 67.333 -233.666 202 -300.999c41.333 -16 78.666 -24 111.999 -24h30c110.667 0 202 56 274 168c26.667 52 40 102 40 150v15c0 128 -64 226.333 -192 295c-44 20 -89.667 30 -137 30h-4c-134.667 0 -236.334 -70.667 -305.001 -212
c-13.333 -43.333 -20 -80 -20 -110zM862.002 80.999c-80 -74 -185 -111 -315 -111h-30c-180.667 0 -331 90.333 -451 271c-44 88 -66 176.333 -66 265c0 198 97 354.667 291 470c82.667 38.667 163 58 241 58c201.333 0 360.666 -98 477.999 -294
c36 -81.333 54 -164.333 54 -249v-425c0 -52.667 -32.333 -84.667 -97 -96h-6c-45.333 0 -78.666 26.333 -99.999 79v11z" />
    <glyph glyph-name="aring" unicode="&#xe5;" horiz-adv-x="1131" 
d="M546 1477c82.667 0 147 -42.333 193 -127c14 -30 21 -60 21 -90c0 -96 -55.333 -164 -166 -204l-42 -5h-16c-92.667 0 -158.667 55.333 -198 166l-5 41v13c0 97.333 58.333 165 175 203zM497 1266v-14c8 -28.667 21 -43 39 -43h18c26.667 0 42.667 17.333 48 52
c-6 35.333 -22 53 -48 53c-38 -6 -57 -22 -57 -48zM203 509l0.00195312 -11.001c0 -133.333 67.333 -233.666 202 -300.999c41.333 -16 78.666 -24 111.999 -24h30c110.667 0 202 56 274 168c26.667 52 40 102 40 150v15c0 128 -64 226.333 -192 295
c-44 20 -89.667 30 -137 30h-4c-134.667 0 -236.334 -70.667 -305.001 -212c-13.333 -43.333 -20 -80 -20 -110zM862.002 80.999c-80 -74 -185 -111 -315 -111h-30c-180.667 0 -331 90.333 -451 271c-44 88 -66 176.333 -66 265c0 198 97 354.667 291 470
c82.667 38.667 163 58 241 58c201.333 0 360.666 -98 477.999 -294c36 -81.333 54 -164.333 54 -249v-425c0 -52.667 -32.333 -84.667 -97 -96h-6c-45.333 0 -78.666 26.333 -99.999 79v11z" />
    <glyph glyph-name="ae" unicode="&#xe6;" horiz-adv-x="1961" 
d="M1707 574c-9.33301 50 -44.333 107 -105 171c-68 52.667 -139.333 79 -214 79c-114 0 -206.333 -53.333 -277 -160c-26.667 -50 -40 -80 -40 -90h636zM202 511l0.000976562 -11c0 -132.667 67 -232.667 201 -300c42 -16 79.667 -24 113 -24h29c110 0 201 56 273 168
c26.667 51.333 40 101 40 149v14c0 128 -63.667 226.333 -191 295c-44 20 -89.667 30 -137 30h-3c-134.667 0 -236.334 -70.333 -305.001 -211c-13.333 -43.333 -20 -80 -20 -110zM859.001 84c-78.667 -73.333 -183.332 -110.001 -313.999 -110.001h-29
c-180.667 0 -330.667 90 -450 270c-44 87.333 -66 175 -66 263c0 198 96.667 354.333 290 469c82.667 38.667 162.667 58 240 58c177.333 0 321.333 -74.333 432 -223c58.667 88.667 149 154 271 196c59.333 15.333 112.333 23 159 23c197.333 0 353.333 -95.333 468 -286
c38.667 -80 58 -155.333 58 -226v-50c-11.333 -64 -44.333 -96 -99 -96h-726c24 -56.667 62.333 -103 115 -139c58 -38 118 -57 180 -57c54 0 116.667 18 188 54l29 5c68 -16 102 -50.667 102 -104c0 -79.333 -89.333 -131.666 -268 -156.999l-54 -4
c-136.667 0 -245 37 -325 111v-12c0 -59.333 -35 -92.333 -105 -99h-5c-38.667 0 -69.334 27.667 -92.001 83z" />
    <glyph glyph-name="ccedilla" unicode="&#xe7;" horiz-adv-x="986" 
d="M537 1026c136.667 0 261 -52.001 373 -156.001c11.333 -20 17 -38.667 17 -56v-6c-11.333 -64 -44.333 -96 -99 -96h-4c-24 0 -68 24.333 -132 73c-48 24 -96 36 -144 36h-22c-128 0 -225.333 -67.667 -292 -203c-15.333 -46 -23 -87 -23 -123c0 -132 68 -232 204 -300
c40 -15.333 83 -23 129 -23c76.667 0 154.667 33.333 234 100l39 9h15c52 0 83.667 -32 95 -96v-7c0 -63.333 -85 -127.333 -255 -192l-54 -8v-6c72.667 -48 109 -112.667 109 -194c0 -118 -68.667 -193.333 -206 -226l-54 4h-53l-63 -4c-58.667 19.333 -88 50 -88 92v17
c12 62 44 93 96 93h127c26 0 39 8 39 24v4c0 10.667 -15 19 -45 25c-42.667 20.667 -64 48.667 -64 84v90c-47.333 6.66699 -117.333 41.334 -210 104.001c-131.333 118 -197 255.667 -197 413c0 172 76 315.667 228 431c96.667 64.667 196.667 97 300 97z" />
    <glyph glyph-name="egrave" unicode="&#xe8;" horiz-adv-x="1127" 
d="M490 1411h31c31.333 0 88 -53.667 170 -161c24 -25.333 36 -51 36 -77v-8c0 -54.667 -33.667 -87.667 -101 -99c-42 0 -85 33.333 -129 100c-60 66 -90 111 -90 135v14c0 46.667 27.667 78.667 83 96zM528 1034c204.667 0 363.671 -96.999 477.004 -290.999
c39.333 -76.667 59 -159.334 59 -248.001v-22c-12 -66.667 -45.333 -100 -100 -100h-733c19.333 -63.333 72.666 -118.666 159.999 -165.999c51.333 -20 99.666 -30 144.999 -30c51.333 0 113.666 18.333 186.999 55h32c62 -12 93 -44 93 -96v-11
c0 -78 -97.333 -129.667 -292 -155h-28c-190.667 0 -343.334 89.333 -458.001 268c-46.667 84.667 -70 172.667 -70 264c0 195.333 91.667 350.666 275 465.999c90 44 174.333 66 253 66zM214.004 576.001h640.001c0 23.333 -27 71.333 -81 144
c-73.333 69.333 -145 104 -215 104h-41c-106.667 0 -194.334 -52.667 -263.001 -158c-24.667 -42 -38 -72 -40 -90z" />
    <glyph glyph-name="eacute" unicode="&#xe9;" horiz-adv-x="1118" 
d="M627 1415c66.667 -15.333 100 -48.668 100 -100.001v-7c0 -27.333 -29 -73.666 -87 -138.999c-45.333 -68.667 -91 -103 -137 -103h-4c-47.333 0 -78 32 -92 96v11c0 29.333 40 89.333 120 180c30.667 41.333 64 62 100 62zM528 1034
c204.667 0 363.671 -96.999 477.004 -290.999c39.333 -76.667 59 -159.334 59 -248.001v-22c-12 -66.667 -45.333 -100 -100 -100h-733c19.333 -63.333 72.666 -118.666 159.999 -165.999c51.333 -20 99.666 -30 144.999 -30c51.333 0 113.666 18.333 186.999 55h32
c62 -12 93 -44 93 -96v-11c0 -78 -97.333 -129.667 -292 -155h-28c-190.667 0 -343.334 89.333 -458.001 268c-46.667 84.667 -70 172.667 -70 264c0 195.333 91.667 350.666 275 465.999c90 44 174.333 66 253 66zM214.004 575.999h640.001c0 23.333 -27 71.333 -81 144
c-73.333 69.333 -145 104 -215 104h-41c-106.667 0 -194.334 -52.667 -263.001 -158c-24.667 -42 -38 -72 -40 -90z" />
    <glyph glyph-name="ecircumflex" unicode="&#xea;" horiz-adv-x="1144" 
d="M528 1034c204.667 0 363.671 -96.999 477.004 -290.999c39.333 -76.667 59 -159.334 59 -248.001v-22c-12 -66.667 -45.333 -100 -100 -100h-733c19.333 -63.333 72.666 -118.666 159.999 -165.999c51.333 -20 99.666 -30 144.999 -30
c51.333 0 113.666 18.333 186.999 55h32c62 -12 93 -44 93 -96v-11c0 -78 -97.333 -129.667 -292 -155h-28c-190.667 0 -343.334 89.333 -458.001 268c-46.667 84.667 -70 172.667 -70 264c0 195.333 91.667 350.666 275 465.999c90 44 174.333 66 253 66zM214.004 576.001
h640.001c0 23.333 -27 71.333 -81 144c-73.333 69.333 -145 104 -215 104h-41c-106.667 0 -194.334 -52.667 -263.001 -158c-24.667 -42 -38 -72 -40 -90zM538.005 1421c47.333 -5.33301 95.668 -44 145.001 -116c51.333 -54.667 77 -98.667 77 -132
c-12 -66.667 -46.333 -100 -103 -100c-37.333 0 -79 31 -125 93c-42.667 -62 -85.334 -93 -128.001 -93c-66.667 12.667 -100 47 -100 103c0 32.667 36.333 87.667 109 165c32 49.333 69.333 76 112 80l1 1h11z" />
    <glyph glyph-name="edieresis" unicode="&#xeb;" horiz-adv-x="1122" 
d="M382 1293l17 -0.000976562c61.333 -14 92 -44.667 92 -92v-11c0 -55.333 -34.667 -88.666 -104 -99.999c-65.333 12.667 -98 46 -98 100v11c0 47.333 31 78 93 92zM662 1293h15c51.333 0 82 -35 92 -105c0 -50 -34 -83 -102 -99c-66.667 12 -100 44.333 -100 97v24
c17.333 55.333 49 83 95 83zM527 1032c204 0 362.668 -96.667 476.001 -290c39.333 -76.667 59 -159.334 59 -248.001v-22c-12 -66.667 -45.333 -100 -100 -100h-731c19.333 -64 72.333 -119.333 159 -166c51.333 -20 99.666 -30 144.999 -30
c51.333 0 113.333 18.333 186 55h32c62 -12 93 -44 93 -96v-11c0 -77.333 -97 -128.666 -291 -153.999h-28c-190 0 -342.333 89 -457 267c-46.667 84.667 -70 172.667 -70 264c0 194.667 91.667 349.667 275 465c89.333 44 173.333 66 252 66zM214.001 574.999h638.001
c0 23.333 -27 71 -81 143c-72.667 69.333 -144.334 104 -215.001 104h-40c-106 0 -193.667 -52.667 -263 -158c-24 -41.333 -37 -71 -39 -89z" />
    <glyph glyph-name="igrave" unicode="&#xec;" horiz-adv-x="514" 
d="M175 1404h29c31.333 0 88 -53.667 170 -161c24 -26 36 -52 36 -78v-7c0 -54.667 -33.333 -88 -100 -100c-42.667 0 -86 33.333 -130 100c-60 67.333 -90 112.333 -90 135v15c0 46.667 28.333 78.667 85 96zM271 1033c64 -15.333 96 -46 96 -92v-875
c0 -52.667 -32.333 -84.667 -97 -96h-6c-54 0 -87.333 33.333 -100 100v851c8 74.667 43.667 112 107 112z" />
    <glyph glyph-name="iacute" unicode="&#xed;" horiz-adv-x="514" 
d="M340 1403c67.333 -15.333 101 -48.667 101 -100v-7c0 -28 -29 -74.667 -87 -140c-46 -69.333 -92 -104 -138 -104h-4c-47.333 0 -78 32.333 -92 97v11c0 29.333 40.333 89.333 121 180c30.667 42 63.667 63 99 63zM272 1037c63.333 -16.667 95 -47.333 95 -92v-879
c0 -52.667 -32 -84.667 -96 -96h-7c-54 0 -87.333 33.667 -100 101v854c8 74.667 44 112 108 112z" />
    <glyph glyph-name="icircumflex" unicode="&#xee;" horiz-adv-x="514" 
d="M267 1042c64 -16.667 96.001 -47.668 96.001 -93.001v-882c0 -53.333 -32.333 -85.666 -97 -96.999h-6c-54.667 0 -88.334 33.667 -101.001 101v858c8 75.333 44 113 108 113zM263.001 1397c49.333 -5.33301 99 -44.334 149 -117.001c51.333 -55.333 77 -99.333 77 -132
c-12 -67.333 -46.667 -101 -104 -101c-38 0 -79.333 31 -124 93c-44 -62 -87.333 -93 -130 -93c-67.333 12.667 -101 47.334 -101 104.001c0 32 36.333 87 109 165c32.667 50 69.667 77 111 81l1 1h11z" />
    <glyph glyph-name="idieresis" unicode="&#xef;" horiz-adv-x="514" 
d="M113 1303l17 -0.000976562c62 -14 93 -45 93 -93v-11c0 -55.333 -34.667 -88.666 -104 -99.999c-66 12.667 -99 46 -99 100v11c0 48 31 79 93 93zM396 1303h14c52 0 83 -35.333 93 -106c0 -50 -34.333 -83 -103 -99c-66.667 12 -100 44.333 -100 97v23
c17.333 56.667 49.333 85 96 85zM271 1038c64 -16.667 96 -47.667 96 -93v-879c0 -52.667 -32.333 -84.667 -97 -96h-7c-54 0 -87.333 33.667 -100 101v854c8 75.333 44 113 108 113z" />
    <glyph glyph-name="eth" unicode="&#xf0;" horiz-adv-x="1118" 
d="M578 1029l-29 44c-26.667 -16.667 -50 -30.667 -70 -42c18 2 36.333 3 55 3zM207 513l0.000976562 -17.999c0 -122.667 59.333 -218 178 -286c42 -21.333 87.333 -32 136 -32h22c126.667 0 223.667 66 291 198c15.333 40.667 23 80.667 23 120v18
c0 84.667 -39.333 165 -118 241c-60.667 48.667 -131 73 -211 73c-138.667 0 -240.334 -73 -305.001 -219c-10.667 -34.667 -16 -66.334 -16 -95.001zM360.001 1003c-34 9.33301 -56.3301 40.3301 -66.9971 92.9971v7c0 46 42 89 126 129l20 12
c-19.333 28.667 -29 52.334 -29 71.001v24c17.333 55.333 49.333 83 96 83h15c35.333 0 66.666 -23 93.999 -69c87.333 53.333 141.666 80 162.999 80h10c62 -13.333 93 -45.333 93 -96v-14c0 -41.333 -52.667 -89.333 -158 -144l263 -405c52 -87.333 78 -178 78 -272
c0 -199.333 -94 -355.666 -282 -468.999c-82.667 -42 -162.334 -63 -239.001 -63h-29c-144 0 -277.667 67.333 -401 202c-75.333 106 -113 216 -113 330c0 172.667 76.333 317.334 229 434.001c43.333 28.667 87 51 131 67z" />
    <glyph glyph-name="ntilde" unicode="&#xf1;" horiz-adv-x="1108" 
d="M429 1391l18 -0.000976562c52.667 0 110.667 -21.333 174 -64l20 -6h11l75 23c70 -13.333 105 -48 105 -104c0 -67.333 -55.667 -107.666 -167 -120.999h-28c-52 0 -109.667 21.333 -173 64l-21 5h-10l-70 -18h-14c-62 12 -93 44 -93 96v11c0 52.667 34 86.667 102 102
c22 8 45.667 12 71 12zM107 1032c64 -16.667 95.998 -47.3311 95.998 -91.998v-13c78.667 70 184.334 105 317.001 105c146 0 275.667 -60.667 389 -182c82.667 -102 124 -209.667 124 -323v-465c0 -48.667 -32 -79.334 -96 -92.001h-10
c-64.667 11.333 -97 44.666 -97 99.999v409c0 169.333 -72 280.333 -216 333c-35.333 9.33301 -66.666 14 -93.999 14h-11c-120.667 0 -214 -62.667 -280 -188c-17.333 -38 -26 -100.667 -26 -188v-384c0 -52.667 -32.333 -84.667 -97 -96h-6c-54 0 -87.333 33.333 -100 100
v849c7.33301 75.333 43 113 107 113z" />
    <glyph glyph-name="ograve" unicode="&#xf2;" horiz-adv-x="1118" 
d="M495 1422h30c30.667 0 87 -53.333 169 -160c24.667 -26 37 -52 37 -78v-8c0 -55.333 -34 -88.333 -102 -99c-42 0 -84.667 33.333 -128 100c-60.667 66 -91 111 -91 135v14c0 46.667 28.333 78.667 85 96zM532 1034c137.333 0 261.668 -52.002 373.001 -156.002
c106 -110.667 159 -236 159 -376c0 -199.333 -94 -355.666 -282 -468.999c-82.667 -42 -162.334 -63 -239.001 -63h-29c-144 0 -277.667 67.333 -401 202c-75.333 106 -113 216 -113 330c-0 172.667 76.333 317.334 229 434.001c98 65.333 199 98 303 98zM207.002 512.998
l0.000976562 -17.999c0 -122.667 59.333 -218 178 -286c42 -21.333 87.333 -32 136 -32h22c126.667 0 223.667 66 291 198c15.333 40.667 23 80.667 23 120v18c0 101.333 -46.667 187.333 -140 258c-55.333 37.333 -118.333 56 -189 56
c-138.667 0 -240.334 -73 -305.001 -219c-10.667 -34.667 -16 -66.334 -16 -95.001z" />
    <glyph glyph-name="oacute" unicode="&#xf3;" horiz-adv-x="1118" 
d="M627 1419c66.667 -15.333 100.001 -48.333 100.001 -99v-7c0 -28 -28.667 -74.333 -86 -139c-45.333 -68.667 -91 -103 -137 -103h-4c-46.667 0 -77.334 32 -92.001 96v11c0 29.333 40 89 120 179c30.667 41.333 63.667 62 99 62zM530.001 1029
c136 0 259.668 -51.666 371.001 -154.999c105.333 -110.667 158 -235.334 158 -374.001c0 -198.667 -93.667 -354.667 -281 -468c-82 -41.333 -161.333 -62 -238 -62h-29c-142.667 0 -275.334 67 -398.001 201c-75.333 106 -113 215.667 -113 329c0 172 76 316 228 432
c97.333 64.667 198 97 302 97zM206.002 510.001l-0.000976562 -18c0 -121.333 59 -216 177 -284c42 -21.333 87.333 -32 136 -32h21c126.667 0 223.334 65.667 290.001 197c15.333 40.667 23 80.334 23 119.001v18c0 101.333 -46.667 187 -140 257
c-54.667 37.333 -117 56 -187 56c-138 0 -239.333 -72.667 -304 -218c-10.667 -34.667 -16 -66.334 -16 -95.001z" />
    <glyph glyph-name="ocircumflex" unicode="&#xf4;" horiz-adv-x="1118" 
d="M530 1029c136 0 259.668 -51.666 371.001 -154.999c105.333 -110.667 158 -235.334 158 -374.001c0 -198.667 -93.667 -354.667 -281 -468c-82 -41.333 -161.333 -62 -238 -62h-29c-142.667 0 -275.334 67 -398.001 201c-75.333 106 -113 215.667 -113 329
c0 172 76 316 228 432c97.333 64.667 198 97 302 97zM206.001 510.001l-0.000976562 -18c0 -121.333 59 -216 177 -284c42 -21.333 87.333 -32 136 -32h21c126.667 0 223.334 65.667 290.001 197c15.333 40.667 23 80.334 23 119.001v18c0 101.333 -46.667 187 -140 257
c-54.667 37.333 -117 56 -187 56c-138 0 -239.333 -72.667 -304 -218c-10.667 -34.667 -16 -66.334 -16 -95.001zM533 1414c48.667 -5.33301 97.666 -43.667 146.999 -115c50.667 -54.667 76 -98.334 76 -131.001c-11.333 -67.333 -45.666 -101 -102.999 -101
c-37.333 0 -78 31 -122 93c-43.333 -62 -86 -93 -128 -93c-66.667 14 -100 48.333 -100 103c0 32.667 36 87.334 108 164.001c30.667 49.333 67 76 109 80l1 1h11z" />
    <glyph glyph-name="otilde" unicode="&#xf5;" horiz-adv-x="1118" 
d="M437 1378l17.999 0.000976562c52.667 0 110.334 -21.333 173.001 -64l21 -5h11l76 23c69.333 -14.667 104 -49.334 104 -104.001c0 -68 -55.667 -108.667 -167 -122h-27c-52 0 -110.333 21.333 -175 64l-20 6h-10l-70 -19h-14c-62 12 -93 44 -93 96v11
c0 52.667 34 86.667 102 102c22 8 45.667 12 71 12zM531.999 1034c137.333 0 261.668 -52.002 373.001 -156.002c106 -110.667 159 -236 159 -376c0 -199.333 -94 -355.666 -282 -468.999c-82.667 -42 -162.334 -63 -239.001 -63h-29c-144 0 -277.667 67.333 -401 202
c-75.333 106 -113 216 -113 330c0 172.667 76.333 317.334 229 434.001c98 65.333 199 98 303 98zM207.001 512.999l0.000976562 -17.999c0 -122.667 59.333 -218 178 -286c42 -21.333 87.333 -32 136 -32h22c126.667 0 223.667 66 291 198c15.333 40.667 23 80.667 23 120
v18c0 101.333 -46.667 187.333 -140 258c-55.333 37.333 -118.333 56 -189 56c-138.667 0 -240.334 -73 -305.001 -219c-10.667 -34.667 -16 -66.334 -16 -95.001z" />
    <glyph glyph-name="odieresis" unicode="&#xf6;" horiz-adv-x="1114" 
d="M381 1270l17 -0.000976562c61.333 -14 92 -44.667 92 -92v-11c0 -55.333 -34.667 -88.666 -104 -99.999c-65.333 12.667 -98 46 -98 100v11c0 47.333 31 78 93 92zM661 1270h14c51.333 0 82 -35 92 -105c0 -50 -34 -83 -102 -99c-66.667 12 -100 44.333 -100 97v22
c17.333 56.667 49.333 85 96 85zM530 1029c136 0 259.668 -51.666 371.001 -154.999c105.333 -110.667 158 -235.334 158 -374.001c0 -198.667 -93.667 -354.667 -281 -468c-82 -41.333 -161.333 -62 -238 -62h-29c-142.667 0 -275.334 67 -398.001 201
c-75.333 106 -113 215.667 -113 329c0 172 76 316 228 432c97.333 64.667 198 97 302 97zM206.001 510l-0.000976562 -18c0 -121.333 59 -216 177 -284c42 -21.333 87.333 -32 136 -32h21c126.667 0 223.334 65.667 290.001 197c15.333 40.667 23 80.334 23 119.001v18
c0 101.333 -46.667 187 -140 257c-54.667 37.333 -117 56 -187 56c-138 0 -239.333 -72.667 -304 -218c-10.667 -34.667 -16 -66.334 -16 -95.001z" />
    <glyph glyph-name="divide" unicode="&#xf7;" 
d="M552 1162h4c78 0 125.333 -42.333 142 -127v-22c-18.667 -84.667 -62 -127 -130 -127h-10c-90.667 9.33301 -136 55.333 -136 138v12c20 84 63.333 126 130 126zM253 830l614 0.000976562c68.667 -12.667 103 -48 103 -106v-12c0 -48.667 -32.667 -81.334 -98 -98.001
h-623c-66 12.667 -99 46.667 -99 102v16c0 52 34.333 84.667 103 98zM553 558.001h11c75.333 0 120 -46.667 134 -140v-6c0 -70 -46 -115 -138 -135c-92 20 -138 63.667 -138 131v20c0 66.667 43.667 110 131 130z" />
    <glyph glyph-name="oslash" unicode="&#xf8;" horiz-adv-x="1161" 
d="M277 357l425.999 440.001c-23.333 16 -68.666 24 -135.999 24c-138 0 -239 -72.333 -303 -217c-10.667 -34.667 -16 -66.334 -16 -95.001v-18c0 -47.333 9.66699 -92 29 -134zM851.999 660.001l-435 -450c37.333 -22.667 85 -34 143 -34h21c126 0 222.333 65.333 289 196
c15.333 40.667 23 80.334 23 119.001v18c0 65.333 -13.667 115.666 -41 150.999zM984.999 1042h4.00098c56 0 89 -35 99 -105c0 -29.333 -30.333 -73 -91 -131c68 -83.333 102 -185.666 102 -306.999c0 -198.667 -93.667 -354.334 -281 -467.001
c-81.333 -41.333 -160.333 -62 -237 -62h-29c-97.333 0 -190 30.667 -278 92c-48.667 -58.667 -90.667 -88 -126 -88h-14c-51.333 0 -82 34.667 -92 104c0 30 29.333 73.333 88 130c-58.667 80.667 -88 177.667 -88 291c0 171.333 76 315 228 431
c96.667 64.667 197 97 301 97c103.333 0 195.666 -27 276.999 -81c52 64 97.667 96 137 96z" />
    <glyph glyph-name="ugrave" unicode="&#xf9;" horiz-adv-x="1109" 
d="M494 1419h29c31.333 0 88 -53.667 170 -161c24 -25.333 36 -51 36 -77v-8c0 -54.667 -33.667 -87.667 -101 -99c-42 0 -85 33.333 -129 100c-60 66 -90 111 -90 135v14c0 46.667 28.333 78.667 85 96zM830 77c-92 -71.333 -193 -106.999 -303 -106.999h-25
c-161.333 0 -301.333 78.667 -420 236c-54.667 85.333 -82 189.666 -82 312.999v399c7.33301 76 43 114 107 114c64 -16.667 96 -47.667 96 -93v-391c0 -156 43 -259.667 129 -311c55.333 -42.667 116.666 -64 183.999 -64c130 0 228 66.667 294 200
c13.333 43.333 20 87 20 131v427c12.667 67.333 48.334 101 107.001 101c63.333 -15.333 95 -48.666 95 -99.999v-870c0 -48.667 -32 -79.334 -96 -92.001h-10c-64 11.333 -96 44.333 -96 99v8z" />
    <glyph glyph-name="uacute" unicode="&#xfa;" horiz-adv-x="1105" 
d="M632 1429c66.667 -14.667 100 -47.668 100 -99.001v-8c0 -27.333 -29 -73.666 -87 -138.999c-45.333 -69.333 -91.333 -104 -138 -104h-3c-47.333 0 -78.333 32.333 -93 97v10c0 30 40.333 90.333 121 181c30.667 41.333 64 62 100 62zM834 77.999
c-92 -72 -193.333 -107.998 -304 -107.998h-26c-162 0 -302.667 79 -422 237c-54.667 86 -82 191 -82 315v401c7.33301 75.333 43 113 107 113c64 -15.333 96 -46 96 -92v-393c0 -156.667 43.333 -261 130 -313c56 -43.333 118 -65 186 -65c130 0 228.333 67.333 295 202
c13.333 43.333 20 87.333 20 132v429c12.667 66.667 48 100 106 100c64.667 -14.667 97 -47.667 97 -99v-875c0 -48.667 -32.333 -79.334 -97 -92.001h-9c-64.667 11.333 -97 44.666 -97 99.999v8z" />
    <glyph glyph-name="ucircumflex" unicode="&#xfb;" horiz-adv-x="1114" 
d="M838 78c-92.667 -72 -194.667 -107.999 -306 -107.999h-26c-162.667 0 -303.667 79.333 -423 238c-55.333 86 -83 191.333 -83 316v405c8 75.333 44 113 108 113c64 -16.667 96 -47.667 96 -93v-395c0 -158 43.667 -263 131 -315c56 -43.333 118 -65 186 -65
c131.333 0 230.333 67.333 297 202c13.333 43.333 20 87.666 20 132.999v432c13.333 67.333 49.333 101 108 101c64 -15.333 96 -49 96 -101v-878c0 -49.333 -32.333 -80.333 -97 -93h-10c-64.667 12 -97 45.333 -97 100v8zM541 1432
c49.333 -7.33301 98.333 -46.333 147 -117c51.333 -55.333 77 -99.333 77 -132c-10.667 -68 -45.334 -102 -104.001 -102c-37.333 0 -78.666 31.333 -123.999 94c-44 -62.667 -87.333 -94 -130 -94c-67.333 13.333 -101 48 -101 104c0 32.667 36.667 88 110 166
c30 48 65.667 75 107 81l1 1h16z" />
    <glyph glyph-name="udieresis" unicode="&#xfc;" horiz-adv-x="1109" 
d="M830 76c-92 -70.667 -193 -105.996 -303 -105.996h-25c-161.333 0 -301.333 78.667 -420 236c-54.667 85.333 -82 189.666 -82 312.999v400c7.33301 75.333 43 113 107 113c64 -16.667 96 -47.334 96 -92.001v-391c0 -156.667 43 -260.667 129 -312
c55.333 -42.667 117 -64 185 -64c129.333 0 227 66.667 293 200c13.333 43.333 20 87.333 20 132v427c14 66.667 49.667 100 107 100c64 -14.667 96 -47.667 96 -99v-871c0 -48.667 -32 -79.334 -96 -92.001h-10c-64.667 11.333 -97 44.666 -97 99.999v6zM663 1274h14
c51.333 0 82.333 -35 93 -105c0 -50 -34.333 -83 -103 -99c-66.667 12 -100 44.333 -100 97v22c17.333 56.667 49.333 85 96 85zM382 1274h17c62 -14 93 -44.667 93 -92v-11c0 -56.667 -35 -90 -105 -100c-65.333 12.667 -98 46 -98 100v11c0 47.333 31 78 93 92z" />
    <glyph glyph-name="yacute" unicode="&#xfd;" horiz-adv-x="990" 
d="M650 1436c66.667 -15.333 100 -48.667 100 -100v-7c0 -28.667 -29 -75 -87 -139c-45.333 -69.333 -91 -104 -137 -104h-4c-47.333 0 -78 32.333 -92 97v10c0 29.333 40 89.333 120 180c30.667 42 64 63 100 63zM478 351.999
c175.333 427.333 269.668 648.668 283.001 664.001c24 20.667 49 31 75 31c67.333 -12.667 101 -46 101 -100v-5c-3.33301 -22 -125 -319.667 -365 -893c-114.667 -282.667 -180.334 -435 -197.001 -457c-17.333 -14.667 -40.333 -25.334 -69 -32.001
c-69.333 15.333 -104 46.333 -104 93v19c0 12.667 54.333 150 163 412l-346 846v13c14 66.667 48.333 100 103 100c56.667 0 101.667 -55.333 135 -166z" />
    <glyph glyph-name="thorn" unicode="&#xfe;" horiz-adv-x="1131" 
d="M103 1424h16.999c62 -13.333 93 -43 93 -89v-412c79.333 76 189.666 114 330.999 114c138 0 262.667 -52 374 -156c106.667 -111.333 160 -237.333 160 -378c0 -200 -94.667 -357 -284 -471c-82 -42 -161.667 -63 -239 -63h-29c-125.333 0 -229.666 37.667 -312.999 113
v-439c0 -47.333 -33.333 -78.333 -100 -93c-55.333 0 -89.666 34.667 -102.999 104v1661c8 72.667 39 109 93 109zM216.999 514v-17.999c0 -122.667 59.667 -218.334 179 -287.001c42 -21.333 87.667 -32 137 -32h22c127.333 0 225 66.333 293 199
c15.333 41.333 23 81.333 23 120v18c0 102 -47.333 188.667 -142 260c-55.333 37.333 -118.333 56 -189 56c-139.333 0 -241.333 -73.333 -306 -220c-11.333 -34.667 -17 -66.667 -17 -96z" />
    <glyph glyph-name="ydieresis" unicode="&#xff;" horiz-adv-x="990" 
d="M329 1271l17 -0.000976562c62 -14 93 -44.667 93 -92v-11c0 -55.333 -34.667 -88.666 -104 -99.999c-66 12.667 -99 46 -99 100v11c0 47.333 31 78 93 92zM609 1271h15c51.333 0 82 -35 92 -105c0 -50 -34 -83 -102 -99c-66.667 12 -100 44.333 -100 97v22
c17.333 56.667 49 85 95 85zM467 337.999c174.667 425.333 268.331 645.668 280.998 661.001c24 20.667 49.333 31 76 31c66.667 -12.667 100 -46 100 -100v-5c-3.33301 -22 -124.333 -318.333 -363 -889c-114 -281.333 -179.333 -433 -196 -455
c-17.333 -14.667 -40.666 -25.334 -69.999 -32.001c-68.667 15.333 -103 46.333 -103 93v18c0 12.667 54.333 149.667 163 411l-345 842v13c12.667 66.667 47 100 103 100c56.667 0 101.334 -55.333 134.001 -166z" />
    <glyph glyph-name="Amacron" unicode="&#x100;" horiz-adv-x="1184" 
d="M172 1727h847.001c64.667 -12 97 -45.333 97 -100v-15c-12 -64.667 -44.333 -97 -97 -97h-847c-58 0 -91.333 38 -100 114c17.333 65.333 50.666 98 99.999 98zM709.001 744l-121 317l-117 -317h238zM586.001 1458c62 0 105.667 -53.3311 131 -159.998
c302.667 -788.667 455.667 -1194.33 459 -1217v-13c0 -54 -32.667 -86.667 -98 -98h-7c-60 0 -101 49.667 -123 149l-161 418h-398l-202 -533c-30 -22.667 -56 -34 -78 -34h-11c-65.333 12 -98 45.667 -98 101v9l130 352c223.333 581.333 345 905.666 365 972.999
c32 35.333 62.333 53 91 53z" />
    <glyph glyph-name="amacron" unicode="&#x101;" horiz-adv-x="1100" 
d="M206 519l0.000976562 -10.999c0 -136.667 68.667 -239.334 206 -308.001c42.667 -16 81 -24 115 -24h29c113.333 0 207 57 281 171c26.667 53.333 40 104.333 40 153v15c0 131.333 -65 232 -195 302c-44.667 20 -91.334 30 -140.001 30h-4c-138 0 -242 -72 -312 -216
c-13.333 -44 -20 -81.333 -20 -112zM132.001 1327h847.001c64.667 -12 97 -45.333 97 -100v-15c-12 -64.667 -44.333 -97 -97 -97h-847c-58 0 -91.333 38 -100 114c17.333 65.333 50.666 98 99.999 98zM878.002 84.001c-81.333 -76 -188.667 -114.001 -322 -114.001h-29
c-184 0 -337.333 92 -460 276c-44.667 89.333 -67 179 -67 269c0 201.333 98.667 361 296 479c84 39.333 166 59 246 59c204.667 0 366.667 -100 486 -300c36.667 -82 55 -166.333 55 -253v-433c0 -53.333 -32.667 -85.666 -98 -96.999h-7c-45.333 0 -79 26.667 -101 80v11z
" />
    <glyph glyph-name="Abreve" unicode="&#x102;" horiz-adv-x="1202" 
d="M380 1836h11.998c48.667 0 85.334 -32.667 110.001 -98c26.667 -30.667 58 -46 94 -46c54.667 0 95.334 32.667 122.001 98c28.667 30.667 57.334 46 86.001 46h11c68.667 -12 103 -47.333 103 -106v-4c0 -65.333 -57.333 -138.333 -172 -219
c-56 -20.667 -104.667 -31 -146 -31h-8c-140.667 0 -245.334 76 -314.001 228v33c14 66 48 99 102 99zM708.998 744l-121 317l-117 -317h238zM585.998 1458c62 0 105.667 -53.3311 131 -159.998c302.667 -788.667 455.667 -1194.33 459 -1217v-13
c0 -54 -32.667 -86.667 -98 -98h-7c-60 0 -101 49.667 -123 149l-161 418h-398l-202 -533c-30 -22.667 -56 -34 -78 -34h-11c-65.333 12 -98 45.667 -98 101v9l130 352c223.333 581.333 345 905.666 365 972.999c32 35.333 62.333 53 91 53z" />
    <glyph glyph-name="abreve" unicode="&#x103;" horiz-adv-x="1118" 
d="M206 519l0.000976562 -10.999c0 -136.667 68.667 -239.334 206 -308.001c42.667 -16 81 -24 115 -24h29c113.333 0 207 57 281 171c26.667 53.333 40 104.333 40 153v15c0 131.333 -65 232 -195 302c-44.667 20 -91.334 30 -140.001 30h-4c-138 0 -242 -72 -312 -216
c-13.333 -44 -20 -81.333 -20 -112zM336.001 1444h11.998c48.667 0 85.334 -32.667 110.001 -98c26.667 -30.667 58 -46 94 -46c54.667 0 95.334 32.667 122.001 98c28.667 30.667 57.334 46 86.001 46h11c68.667 -12 103 -47.333 103 -106v-4
c0 -65.333 -57.333 -138.333 -172 -219c-56 -20.667 -104.667 -31 -146 -31h-8c-140.667 0 -245.334 76 -314.001 228v33c14 66 48 99 102 99zM877.999 84.001c-81.333 -76 -188.667 -114.001 -322 -114.001h-29c-184 0 -337.333 92 -460 276
c-44.667 89.333 -67 179 -67 269c0 201.333 98.667 361 296 479c84 39.333 166 59 246 59c204.667 0 366.667 -100 486 -300c36.667 -82 55 -166.333 55 -253v-433c0 -53.333 -32.667 -85.666 -98 -96.999h-7c-45.333 0 -79 26.667 -101 80v11z" />
    <glyph glyph-name="Aogonek" unicode="&#x104;" horiz-adv-x="1338" 
d="M729 739l-125 326l-120 -326h245zM602 1467c61.333 0 104.332 -50.335 128.999 -151.002c320 -833.333 480 -1258.67 480 -1276l4 -27v-97c0 -60 -34.667 -95.333 -104 -106c-7.33301 -4 -11 -11 -11 -21v-8c0 -10 10 -16.333 30 -19h146
c66.667 -12 100 -46.333 100 -103v-7c-14 -66.667 -45.667 -100 -95 -100h-161c-111.333 0 -186.333 61.333 -225 184l-8 51c0 86.667 39.667 155.334 119 206.001c-10 41.333 -76 220.333 -198 537h-407l-207 -545c-30 -22.667 -56 -34 -78 -34h-11
c-66.667 12 -100 46.333 -100 103v8l132 359c228.667 593.333 353 924.333 373 993c32.667 35.333 63.334 53 92.001 53z" />
    <glyph glyph-name="aogonek" unicode="&#x105;" horiz-adv-x="1241" 
d="M210 501v-10.998c0 -136.667 69 -239.667 207 -309c42.667 -16 81 -24 115 -24h30c114 0 208 57.333 282 172c27.333 53.333 41 104.666 41 153.999v15c0 131.333 -65.667 232 -197 302c-45.333 20.667 -92.333 31 -141 31h-3c-138.667 0 -243 -72.333 -313 -217
c-14 -44.667 -21 -82.334 -21 -113.001zM884 64.002c-82 -75.333 -189.334 -113 -322.001 -113h-30c-184.667 0 -338 92.333 -460 277c-45.333 89.333 -68 179.333 -68 270c0 202 99 362 297 480c84.667 39.333 166.667 59 246 59c206 0 368.667 -100 488 -300
c37.333 -83.333 56 -168 56 -254v-566c0 -56 -35.667 -91.667 -107 -107c-4 -2.66699 -6 -5.66699 -6 -9v-16c2.66699 -12 11.334 -18 26.001 -18h143c55.333 0 89.333 -35.333 102 -106c-15.333 -66.667 -47 -100 -95 -100h-157c-110 0 -185 61.667 -225 185l-4 50
c0 83.333 38.667 149 116 197l-3 36z" />
    <glyph glyph-name="Cacute" unicode="&#x106;" horiz-adv-x="1251" 
d="M680 1463c21.333 2 42.667 3.00391 64 3.00391c155.333 0 301.666 -48.667 438.999 -146c14.667 -28 22 -49.667 22 -65v-8c0 -60.667 -35.667 -94.667 -107 -102h-13l-136 70c-84 26.667 -152.333 40 -205 40c-170 0 -316.667 -77.667 -440 -233
c-62 -104 -93 -205.333 -93 -304c0 -198.667 93.333 -356.334 280 -473.001c82 -42.667 164 -64 246 -64h11c104.667 0 213.667 35.333 327 106h35c63.333 -14 95 -46.667 95 -98v-11c0 -68 -91.667 -129.333 -275 -184c-55.333 -16 -113.333 -24 -174 -24h-19
c-246.667 0 -453 114 -619 342c-78.667 132.667 -118 268 -118 406c0 259.333 118 470.333 354 633c92 55.333 185.667 90.666 281 105.999c-65.333 13.333 -98 47.333 -98 102v16c0 31.333 49.667 91.666 149 180.999c80 91.333 139 137 177 137
c62.667 0 99.334 -38.667 110.001 -116c0 -36.667 -64 -112.334 -192 -227.001c-38 -46 -71.667 -75 -101 -87z" />
    <glyph glyph-name="cacute" unicode="&#x107;" horiz-adv-x="973" 
d="M543 1056c140 0 268.002 -53.333 384.002 -160c11.333 -20.667 17 -39.667 17 -57v-7c-12 -65.333 -45.667 -98 -101 -98h-4c-24.667 0 -70 25 -136 75c-49.333 25.333 -99 38 -149 38h-22c-132.667 0 -233.334 -70 -302.001 -210c-16 -47.333 -24 -90 -24 -128
c0 -135.333 70.333 -238.333 211 -309c41.333 -16 86 -24 134 -24c78.667 0 158.667 34.333 240 103l41 9h15c53.333 0 85.666 -32.667 96.999 -98v-6c0 -65.333 -87.333 -131.333 -262 -198c-57.333 -10.667 -100 -16 -128 -16h-30c-146.667 0 -282.667 68.667 -408 206
c-77.333 108.667 -116 221 -116 337c0 176.667 78 324.667 234 444c99.333 66 202.333 99 309 99zM652.002 1497c62.667 0 99.333 -38.665 110 -115.998c0 -36.667 -64 -112.334 -192 -227.001c-50.667 -62 -94 -93 -130 -93h-15c-66 12.667 -99 46.667 -99 102v16
c0 31.333 49.667 91.666 149 180.999c80 91.333 139 137 177 137z" />
    <glyph glyph-name="Ccircumflex" unicode="&#x108;" horiz-adv-x="1254" 
d="M744 1466c155.333 0 301.667 -48.666 439 -145.999c14.667 -28 22 -49.667 22 -65v-8c0 -60.667 -35.667 -94.667 -107 -102h-13l-136 70c-84 26.667 -152.333 40 -205 40c-170 0 -316.667 -77.667 -440 -233c-62 -104 -93 -205.333 -93 -304
c0 -198.667 93.333 -356.334 280 -473.001c82 -42.667 164 -64 246 -64h11c104.667 0 213.667 35.333 327 106h35c63.333 -14 95 -46.667 95 -98v-11c0 -68 -91.667 -129.333 -275 -184c-55.333 -16 -113.333 -24 -174 -24h-19c-246.667 0 -453 114 -619 342
c-78.667 132.667 -118 268 -118 406c0 259.333 118 470.333 354 633c126.667 76.667 256.667 115 390 115zM716.001 1572c-49.333 -66.667 -92.668 -100 -130.001 -100h-15c-66 14 -99 48 -99 102v12c0 33.333 42 95.333 126 186c30 48 64.667 72 104 72h28
c42.667 0 95.667 -46.333 159 -139c47.333 -47.333 71 -87 71 -119v-15c-14 -66 -48 -99 -102 -99h-12c-37.333 0 -80.666 33.333 -129.999 100z" />
    <glyph glyph-name="ccircumflex" unicode="&#x109;" horiz-adv-x="982" 
d="M543 1056c140 0 268.002 -53.333 384.002 -160c11.333 -20.667 17 -39.667 17 -57v-7c-12 -65.333 -45.667 -98 -101 -98h-4c-24.667 0 -70 25 -136 75c-49.333 25.333 -99 38 -149 38h-22c-132.667 0 -233.334 -70 -302.001 -210c-16 -47.333 -24 -90 -24 -128
c0 -135.333 70.333 -238.333 211 -309c41.333 -16 86 -24 134 -24c78.667 0 158.667 34.333 240 103l41 9h15c53.333 0 85.666 -32.667 96.999 -98v-6c0 -65.333 -87.333 -131.333 -262 -198c-57.333 -10.667 -100 -16 -128 -16h-30c-146.667 0 -282.667 68.667 -408 206
c-77.333 108.667 -116 221 -116 337c0 176.667 78 324.667 234 444c99.333 66 202.333 99 309 99zM553.002 1207c-49.333 -66.667 -92.668 -100 -130.001 -100h-15c-66 14 -99 48 -99 102v12c0 33.333 42 95.333 126 186c30 48 64.667 72 104 72h28
c42.667 0 95.667 -46.333 159 -139c47.333 -47.333 71 -87 71 -119v-15c-14 -66 -48 -99 -102 -99h-12c-37.333 0 -80.666 33.333 -129.999 100z" />
    <glyph glyph-name="Cdotaccent" unicode="&#x10a;" horiz-adv-x="1259" 
d="M744 1466c155.333 0 301.667 -48.666 439 -145.999c14.667 -28 22 -49.667 22 -65v-8c0 -60.667 -35.667 -94.667 -107 -102h-13l-136 70c-84 26.667 -152.333 40 -205 40c-170 0 -316.667 -77.667 -440 -233c-62 -104 -93 -205.333 -93 -304
c0 -198.667 93.333 -356.334 280 -473.001c82 -42.667 164 -64 246 -64h11c104.667 0 213.667 35.333 327 106h35c63.333 -14 95 -46.667 95 -98v-11c0 -68 -91.667 -129.333 -275 -184c-55.333 -16 -113.333 -24 -174 -24h-19c-246.667 0 -453 114 -619 342
c-78.667 132.667 -118 268 -118 406c0 259.333 118 470.333 354 633c126.667 76.667 256.667 115 390 115zM749.001 1810c76 0 124.668 -44.333 146.001 -133v-25c0 -55.333 -33 -98 -99 -128c-12 -6 -27.667 -9 -47 -9h-3c-80.667 0 -129.334 48.667 -146.001 146
c0 66 34.667 112.667 104 140c11.333 6 26.333 9 45 9z" />
    <glyph glyph-name="cdotaccent" unicode="&#x10b;" horiz-adv-x="973" 
d="M543 1056c140 0 268.002 -53.333 384.002 -160c11.333 -20.667 17 -39.667 17 -57v-7c-12 -65.333 -45.667 -98 -101 -98h-4c-24.667 0 -70 25 -136 75c-49.333 25.333 -99 38 -149 38h-22c-132.667 0 -233.334 -70 -302.001 -210c-16 -47.333 -24 -90 -24 -128
c0 -135.333 70.333 -238.333 211 -309c41.333 -16 86 -24 134 -24c78.667 0 158.667 34.333 240 103l41 9h15c53.333 0 85.666 -32.667 96.999 -98v-6c0 -65.333 -87.333 -131.333 -262 -198c-57.333 -10.667 -100 -16 -128 -16h-30c-146.667 0 -282.667 68.667 -408 206
c-77.333 108.667 -116 221 -116 337c0 176.667 78 324.667 234 444c99.333 66 202.333 99 309 99zM564.002 1409c76 0 124.668 -44.333 146.001 -133v-25c0 -55.333 -33 -98 -99 -128c-12 -6 -27.667 -9 -47 -9h-3c-80.667 0 -129.334 48.667 -146.001 146
c0 66 34.667 112.667 104 140c11.333 6 26.333 9 45 9z" />
    <glyph glyph-name="Ccaron" unicode="&#x10c;" horiz-adv-x="1241" 
d="M744 1466c155.333 0 301.667 -48.666 439 -145.999c14.667 -28 22 -49.667 22 -65v-8c0 -60.667 -35.667 -94.667 -107 -102h-13l-136 70c-84 26.667 -152.333 40 -205 40c-170 0 -316.667 -77.667 -440 -233c-62 -104 -93 -205.333 -93 -304
c0 -198.667 93.333 -356.334 280 -473.001c82 -42.667 164 -64 246 -64h11c104.667 0 213.667 35.333 327 106h35c63.333 -14 95 -46.667 95 -98v-11c0 -68 -91.667 -129.333 -275 -184c-55.333 -16 -113.333 -24 -174 -24h-19c-246.667 0 -453 114 -619 342
c-78.667 132.667 -118 268 -118 406c0 259.333 118 470.333 354 633c126.667 76.667 256.667 115 390 115zM728.001 1743c49.333 66.667 92.668 100 130.001 100h15c66 -14 99 -48 99 -102v-12c0 -31.333 -34 -84.333 -102 -159c-45.333 -66 -88 -99 -128 -99h-28
c-42 0 -93.667 45 -155 135c-50 50 -75 91 -75 123v15c14 66 48 99 102 99h12c37.333 0 80.666 -33.333 129.999 -100z" />
    <glyph glyph-name="ccaron" unicode="&#x10d;" horiz-adv-x="990" 
d="M543 1056c140 0 268.002 -53.333 384.002 -160c11.333 -20.667 17 -39.667 17 -57v-7c-12 -65.333 -45.667 -98 -101 -98h-4c-24.667 0 -70 25 -136 75c-49.333 25.333 -99 38 -149 38h-22c-132.667 0 -233.334 -70 -302.001 -210c-16 -47.333 -24 -90 -24 -128
c0 -135.333 70.333 -238.333 211 -309c41.333 -16 86 -24 134 -24c78.667 0 158.667 34.333 240 103l41 9h15c53.333 0 85.666 -32.667 96.999 -98v-6c0 -65.333 -87.333 -131.333 -262 -198c-57.333 -10.667 -100 -16 -128 -16h-30c-146.667 0 -282.667 68.667 -408 206
c-77.333 108.667 -116 221 -116 337c0 176.667 78 324.667 234 444c99.333 66 202.333 99 309 99zM535.002 1369c49.333 66.667 92.668 100 130.001 100h15c66 -14 99 -48 99 -102v-12c0 -31.333 -34 -84.333 -102 -159c-45.333 -66 -88 -99 -128 -99h-28
c-42 0 -93.667 45 -155 135c-50 50 -75 91 -75 123v15c14 66 48 99 102 99h12c37.333 0 80.666 -33.333 129.999 -100z" />
    <glyph glyph-name="Dcaron" unicode="&#x10e;" horiz-adv-x="1162" 
d="M72 1478l52 -11.002h189l42 4c225.333 0 420.333 -97.333 585 -292c106 -137.333 159 -292.666 159 -465.999c0 -239.333 -105 -440.666 -315 -603.999c-134 -92.667 -275.333 -139 -424 -139h-261c-66 12 -99 46 -99 102v1295c10 66.667 34 100 72 100v11zM208 1263
l-0.000976562 -1085h133c228 0 397 110.333 507 331c28.667 74.667 43 146.334 43 215.001c0 164.667 -73.333 308.667 -220 432c-89.333 71.333 -224.666 107 -405.999 107h-57zM493.999 1748c49.333 66.667 92.668 100 130.001 100h15c66 -14 99 -48 99 -102v-12
c0 -31.333 -34 -84.333 -102 -159c-45.333 -66 -88 -99 -128 -99h-28c-42 0 -93.667 45 -155 135c-50 50 -75 91 -75 123v15c14 66 48 99 102 99h12c37.333 0 80.666 -33.333 129.999 -100z" />
    <glyph glyph-name="dcaron" unicode="&#x10f;" horiz-adv-x="1396" 
d="M978 1462l18.001 -0.000976562c63.333 -13.333 95 -43.666 95 -90.999v-748l4 -128c0 -105.333 -42.667 -215 -128 -329c-120.667 -130.667 -256.667 -196 -408 -196h-30c-148 0 -285.333 69 -412 207c-78 110 -117 223.667 -117 341c0 177.333 78.667 326.333 236 447
c100 66.667 204 100 312 100c138.667 0 252 -39.333 340 -118v359l-4 65c19.333 60.667 50.666 91 93.999 91zM207.001 528.999v-19c0 -141.333 74.333 -246.666 223 -315.999c38.667 -11.333 74 -17 106 -17h23c137.333 0 241.333 74 312 222c11.333 44.667 17 79 17 103
v23c0 140.667 -75.333 246 -226 316c-46 11.333 -81.667 17 -107 17h-15c-137.333 0 -241.333 -73 -312 -219c-14 -40.667 -21 -77.334 -21 -110.001zM1204 1544h28c73.333 0 120.666 -88 141.999 -264v-22c0 -95.333 -52.333 -186.333 -157 -273
c-25.333 -14 -47.666 -21 -66.999 -21c-22 8.66699 -39.333 24 -52 46v26c40 96 60 172.667 60 230v12c0 36 -16 81.333 -48 136v31c14 66 45.333 99 94 99z" />
    <glyph glyph-name="Dcroat" unicode="&#x110;" horiz-adv-x="1303" 
d="M185 877v489.998c10 66.667 34 100 72 100v11l52 -11h189l42 4c225.333 0 420.333 -97.333 585 -292c106 -137.333 159 -292.666 159 -465.999c0 -239.333 -105 -440.666 -315 -603.999c-134 -92.667 -275.333 -139 -424 -139h-261c-66 12 -99 46 -99 102v593h-18l-69 -4
c-62.667 22 -94 59.667 -94 113c12 68.667 46 103 102 103h79zM393 876.998l150.999 -0.000976562l36 4c54 0 90 -35.333 108 -106c0 -53.333 -31.333 -91.333 -94 -114l-65 4h-136v-487h133c228 0 397 110.333 507 331c28.667 74.667 43 146.334 43 215.001
c0 164.667 -73.333 308.667 -220 432c-89.333 71.333 -224.666 107 -405.999 107h-57v-386z" />
    <glyph glyph-name="dcroat" unicode="&#x111;" horiz-adv-x="1343" 
d="M238 529v-19c0 -141.333 74.333 -246.666 223 -315.999c38.667 -11.333 74 -17 106 -17h23c137.333 0 241.333 74 312 222c11.333 44.667 17 79 17 103v23c0 140.667 -75.333 246 -226 316c-46 11.333 -81.667 17 -107 17h-15c-137.333 0 -241.333 -73 -312 -219
c-14 -40.667 -21 -77.334 -21 -110.001zM917 1339l-1.99902 31.999c19.333 60.667 50.666 91 93.999 91h18c63.333 -13.333 95 -43.666 95 -90.999v-32h95l36 4c54 0 90 -35.333 108 -106c0 -53.333 -31.333 -91.333 -94 -114l-65 4h-80v-504l4 -128
c0 -105.333 -42.667 -215 -128 -329c-120.667 -130.667 -256.667 -196 -408 -196h-30c-148 0 -285.333 69 -412 207c-78 110 -117 223.667 -117 341c0 177.333 78.667 326.333 236 447c100 66.667 204 100 312 100c138.667 0 252 -39.333 340 -118v180h-79l-69 -4
c-62.667 22 -94 59.667 -94 113c12 68.667 36 103 72 103v7l71 -7h97z" />
    <glyph glyph-name="Emacron" unicode="&#x112;" horiz-adv-x="1100" 
d="M129 1473l53 -11h733l15 4c63.333 0 100 -38 110 -114c-14 -64.667 -52 -97 -114 -97h-662v-450h424l53 3c50 0 82.667 -34 98 -102c0 -48 -28.333 -84.333 -85 -109l-81 4h-409v-424h681c52 0 83.667 -37 95 -111c-18.667 -64 -51.667 -96 -99 -96h-784
c-66.667 12 -100 46 -100 102v1290c10.667 66.667 34.667 100 72 100v11zM115 1757h846.999c64.667 -12 97 -45.333 97 -100v-15c-12 -64.667 -44.333 -97 -97 -97h-847c-57.333 0 -90.666 38 -99.999 114c18 65.333 51.333 98 100 98z" />
    <glyph glyph-name="emacron" unicode="&#x113;" horiz-adv-x="1105" 
d="M528 1034c204.667 0 363.671 -96.999 477.004 -290.999c39.333 -76.667 59 -159.334 59 -248.001v-22c-12 -66.667 -45.333 -100 -100 -100h-733c19.333 -63.333 72.666 -118.666 159.999 -165.999c51.333 -20 99.666 -30 144.999 -30
c51.333 0 113.666 18.333 186.999 55h32c62 -12 93 -44 93 -96v-11c0 -78 -97.333 -129.667 -292 -155h-28c-190.667 0 -343.334 89.333 -458.001 268c-46.667 84.667 -70 172.667 -70 264c0 195.333 91.667 350.666 275 465.999c90 44 174.333 66 253 66zM214.004 576.001
h640.001c0 23.333 -27 71.333 -81 144c-73.333 69.333 -145 104 -215 104h-41c-106.667 0 -194.334 -52.667 -263.001 -158c-24.667 -42 -38 -72 -40 -90zM115.005 1348h847.001c64.667 -12 97 -45.333 97 -100v-15c-12 -64.667 -44.333 -97 -97 -97h-847
c-58 0 -91.333 38 -100 114c17.333 65.333 50.666 98 99.999 98z" />
    <glyph glyph-name="Ebreve" unicode="&#x114;" horiz-adv-x="1052" 
d="M107 1473l52 -11h733l15 4c63.333 0 100 -38 110 -114c-14 -64.667 -51.667 -97 -113 -97h-662v-450h423l53 3c50.667 0 83.667 -34 99 -102c0 -48 -28.333 -84.333 -85 -109l-82 4h-408v-424h681c52 0 83.667 -37 95 -111c-19.333 -64 -52.333 -96 -99 -96h-785
c-66 12 -99 46 -99 102v1290c10 66.667 34 100 72 100v11zM322 1854h11.998c48.667 0 85.334 -32.667 110.001 -98c26.667 -30.667 58 -46 94 -46c54.667 0 95.334 32.667 122.001 98c28.667 30.667 57.334 46 86.001 46h11c68.667 -12 103 -47.333 103 -106v-4
c0 -65.333 -57.333 -138.333 -172 -219c-56 -20.667 -104.667 -31 -146 -31h-8c-140.667 0 -245.334 76 -314.001 228v33c14 66 48 99 102 99z" />
    <glyph glyph-name="ebreve" unicode="&#x115;" horiz-adv-x="1101" 
d="M537 1034c204.667 0 363.671 -96.999 477.004 -290.999c39.333 -76.667 59 -159.334 59 -248.001v-22c-12 -66.667 -45.333 -100 -100 -100h-733c19.333 -63.333 72.666 -118.666 159.999 -165.999c51.333 -20 99.666 -30 144.999 -30
c51.333 0 113.666 18.333 186.999 55h32c62 -12 93 -44 93 -96v-11c0 -78 -97.333 -129.667 -292 -155h-28c-190.667 0 -343.334 89.333 -458.001 268c-46.667 84.667 -70 172.667 -70 264c0 195.333 91.667 350.666 275 465.999c90 44 174.333 66 253 66zM223.004 576.001
h640.001c0 23.333 -27 71.333 -81 144c-73.333 69.333 -145 104 -215 104h-41c-106.667 0 -194.334 -52.667 -263.001 -158c-24.667 -42 -38 -72 -40 -90zM331.005 1466h11.998c48.667 0 85.334 -32.667 110.001 -98c26.667 -30.667 58 -46 94 -46
c54.667 0 95.334 32.667 122.001 98c28.667 30.667 57.334 46 86.001 46h11c68.667 -12 103 -47.333 103 -106v-4c0 -65.333 -57.333 -138.333 -172 -219c-56 -20.667 -104.667 -31 -146 -31h-8c-140.667 0 -245.334 76 -314.001 228v33c14 66 48 99 102 99z" />
    <glyph glyph-name="Edotaccent" unicode="&#x116;" horiz-adv-x="1070" 
d="M155 1462h733l15 4c63.333 0 100 -38 110 -114c-14 -64.667 -51.667 -97 -113 -97h-662v-450h423l53 3c50.667 0 83.667 -34 99 -102c0 -48 -28.333 -84.333 -85 -109l-82 4h-408v-424h681c52 0 83.667 -37 95 -111c-19.333 -64 -52.333 -96 -99 -96h-785
c-66 12 -99 46 -99 102v1290c10 66.667 34 100 72 100h52zM534 1815c76 0 124.668 -44.333 146.001 -133v-25c0 -55.333 -33 -98 -99 -128c-12 -6 -27.667 -9 -47 -9h-3c-80.667 0 -129.334 48.667 -146.001 146c0 66 34.667 112.667 104 140c11.333 6 26.333 9 45 9z" />
    <glyph glyph-name="edotaccent" unicode="&#x117;" horiz-adv-x="1105" 
d="M550 1034c204.667 0 363.671 -96.999 477.004 -290.999c39.333 -76.667 59 -159.334 59 -248.001v-22c-12 -66.667 -45.333 -100 -100 -100h-733c19.333 -63.333 72.666 -118.666 159.999 -165.999c51.333 -20 99.666 -30 144.999 -30
c51.333 0 113.666 18.333 186.999 55h32c62 -12 93 -44 93 -96v-11c0 -78 -97.333 -129.667 -292 -155h-28c-190.667 0 -343.334 89.333 -458.001 268c-46.667 84.667 -70 172.667 -70 264c0 195.333 91.667 350.666 275 465.999c90 44 174.333 66 253 66zM236.004 576.001
h640.001c0 23.333 -27 71.333 -81 144c-73.333 69.333 -145 104 -215 104h-41c-106.667 0 -194.334 -52.667 -263.001 -158c-24.667 -42 -38 -72 -40 -90zM573.005 1379c76 0 124.668 -44.333 146.001 -133v-25c0 -55.333 -33 -98 -99 -128c-12 -6 -27.667 -9 -47 -9h-3
c-80.667 0 -129.334 48.667 -146.001 146c0 66 34.667 112.667 104 140c11.333 6 26.333 9 45 9z" />
    <glyph glyph-name="Eogonek" unicode="&#x118;" horiz-adv-x="1052" 
d="M594 -43l-0.999023 13.002h-463c-66 12 -99 46 -99 102v1290c10 66.667 34 100 72 100h785l15 4c63.333 0 100 -38 110 -114c-14 -64.667 -51.667 -97 -113 -97h-662v-450h423l53 3c50.667 0 83.667 -34 99 -102c0 -48 -28.333 -84.333 -85 -109l-82 4h-408v-424h681
c52 0 83.667 -37 95 -111c-19.333 -64 -52.333 -96 -99 -96h-118c-2.66699 12 -4.33398 19.667 -5.00098 23v-106c0 -56 -33 -89 -99 -99c-4.66699 -2.66699 -7 -8.33398 -7 -17.001c0 -15.333 12.333 -23 37 -23h98l18 5c67.333 -15.333 101 -48 101 -98v-7
c0 -44.667 -27 -77 -81 -97l-80 4h-34l-56 -4c-57.333 0 -114 35.333 -170 106c-20 38 -30 71.333 -30 100v28c0 75.333 35 132.666 105 171.999z" />
    <glyph glyph-name="eogonek" unicode="&#x119;" horiz-adv-x="1122" 
d="M236 576h640.001c0 23.333 -27 71.333 -81 144c-73.333 69.333 -145 104 -215 104h-41c-106.667 0 -194.334 -52.667 -263.001 -158c-24.667 -42 -38 -72 -40 -90zM516.001 -29c-174.667 10 -315.997 99.002 -423.997 267.002c-46.667 84.667 -70 172.667 -70 264
c0 195.333 91.667 350.666 275 465.999c90 44 174.333 66 253 66c204.667 0 363.667 -97 477 -291c39.333 -76.667 59 -159.334 59 -248.001v-22c-12 -66.667 -45.333 -100 -100 -100h-733c19.333 -63.333 72.666 -118.666 159.999 -165.999
c51.333 -20 99.666 -30 144.999 -30c51.333 0 113.666 18.333 186.999 55h32c62 -12 93 -44 93 -96v-11c0 -62 -47.333 -104.333 -142 -127l-6 -93c0 -56 -33 -89 -99 -99c-4.66699 -2.66699 -7 -8.33398 -7 -17.001c0 -15.333 12.333 -23 37 -23h98l18 5
c67.333 -15.333 101 -48 101 -98v-7c0 -44.667 -27 -77 -81 -97l-80 4h-34l-56 -4c-57.333 0 -114 35.333 -170 106c-20 38 -30 71.333 -30 100v28c0 72.667 32.333 128.667 97 168z" />
    <glyph glyph-name="Ecaron" unicode="&#x11a;" horiz-adv-x="1065" 
d="M159 1462h733l15 4c63.333 0 100 -38 110 -114c-14 -64.667 -51.667 -97 -113 -97h-662v-450h423l53 3c50.667 0 83.667 -34 99 -102c0 -48 -28.333 -84.333 -85 -109l-82 4h-408v-424h681c52 0 83.667 -37 95 -111c-19.333 -64 -52.333 -96 -99 -96h-785
c-66 12 -99 46 -99 102v1290c10 66.667 34 100 72 100h52zM529 1748c49.333 66.667 92.668 100 130.001 100h15c66 -14 99 -48 99 -102v-12c0 -31.333 -34 -84.333 -102 -159c-45.333 -66 -88 -99 -128 -99h-28c-42 0 -93.667 45 -155 135c-50 50 -75 91 -75 123v15
c14 66 48 99 102 99h12c37.333 0 80.666 -33.333 129.999 -100z" />
    <glyph glyph-name="ecaron" unicode="&#x11b;" horiz-adv-x="1136" 
d="M572 1034c204.667 0 363.671 -96.999 477.004 -290.999c39.333 -76.667 59 -159.334 59 -248.001v-22c-12 -66.667 -45.333 -100 -100 -100h-733c19.333 -63.333 72.666 -118.666 159.999 -165.999c51.333 -20 99.666 -30 144.999 -30
c51.333 0 113.666 18.333 186.999 55h32c62 -12 93 -44 93 -96v-11c0 -78 -97.333 -129.667 -292 -155h-28c-190.667 0 -343.334 89.333 -458.001 268c-46.667 84.667 -70 172.667 -70 264c0 195.333 91.667 350.666 275 465.999c90 44 174.333 66 253 66zM258.004 576.001
h640.001c0 23.333 -27 71.333 -81 144c-73.333 69.333 -145 104 -215 104h-41c-106.667 0 -194.334 -52.667 -263.001 -158c-24.667 -42 -38 -72 -40 -90zM587.005 1352c49.333 66.667 92.668 100 130.001 100h15c66 -14 99 -48 99 -102v-12
c0 -31.333 -34 -84.333 -102 -159c-45.333 -66 -88 -99 -128 -99h-28c-42 0 -93.667 45 -155 135c-50 50 -75 91 -75 123v15c14 66 48 99 102 99h12c37.333 0 80.666 -33.333 129.999 -100z" />
    <glyph glyph-name="Gcircumflex" unicode="&#x11c;" horiz-adv-x="1285" 
d="M768 1466c158.667 0 303.003 -45.333 433.003 -136c18.667 -25.333 28 -49 28 -71v-4c0 -55.333 -34.333 -89.333 -103 -102c-14.667 0 -68.667 22 -162 66c-54.667 21.333 -107.334 32 -158.001 32h-61c-132 0 -259 -64.333 -381 -193
c-78.667 -108 -118 -218.667 -118 -332v-15c0 -185.333 86 -337 258 -455c89.333 -50 178.666 -75 267.999 -75h15c88 0 171.333 21.333 250 64v296h-246c-65.333 11.333 -98 45.333 -98 102v5c11.333 66.667 45 100 101 100h352c54 0 86.667 -33.333 98 -100v-421
c0 -74 -20.333 -120.667 -61 -140c-132.667 -78 -262.334 -117 -389.001 -117h-22c-246.667 0 -453 114 -619 342c-78.667 130 -118 265.333 -118 406c0 250.667 111.333 458 334 622c137.333 84 270.333 126 399 126zM751.003 1594
c-49.333 -66.667 -92.668 -100 -130.001 -100h-15c-66 14 -99 48 -99 102v12c0 33.333 42 95.333 126 186c30 48 64.667 72 104 72h28c42.667 0 95.667 -46.333 159 -139c47.333 -47.333 71 -87 71 -119v-15c-14 -66 -48 -99 -102 -99h-12
c-37.333 0 -80.666 33.333 -129.999 100z" />
    <glyph glyph-name="gcircumflex" unicode="&#x11d;" horiz-adv-x="1167" 
d="M562 1051c160.667 0 299.668 -66.667 417.001 -200c81.333 -111.333 122 -217 122 -317l-4 -126v-449c0 -94 -68.667 -193.667 -206 -299c-104.667 -68.667 -214.334 -103 -329.001 -103c-196 0 -358 87.333 -486 262c-25.333 42.667 -38 73 -38 91v11
c0 48.667 31.333 80 94 94h14c47.333 0 84.333 -36 111 -108c81.333 -102 183 -153 305 -153c146 0 255.333 65.333 328 196l6 40v97c-82 -76 -189.667 -114 -323 -114h-30c-145.333 0 -280.333 68 -405 204c-76.667 108 -115 219.667 -115 335
c0 175.333 77.333 322 232 440c98.667 66 201 99 307 99zM228.001 523v-18c0 -138.667 73 -242 219 -310c38 -11.333 72.667 -17 104 -17h22c135.333 0 237.666 72.667 306.999 218c10.667 43.333 16 77 16 101v23c0 138 -73.667 241.333 -221 310
c-46 10.667 -81.333 16 -106 16h-14c-135.333 0 -237.666 -71.667 -306.999 -215c-13.333 -39.333 -20 -75.333 -20 -108zM571.001 1212c-49.333 -66.667 -92.668 -100 -130.001 -100h-15c-66 14 -99 48 -99 102v12c0 33.333 42 95.333 126 186c30 48 64.667 72 104 72h28
c42.667 0 95.667 -46.333 159 -139c47.333 -47.333 71 -87 71 -119v-15c-14 -66 -48 -99 -102 -99h-12c-37.333 0 -80.666 33.333 -129.999 100z" />
    <glyph glyph-name="Gbreve" unicode="&#x11e;" horiz-adv-x="1246" 
d="M755 1466c158.667 0 303.003 -45.333 433.003 -136c18.667 -25.333 28 -49 28 -71v-4c0 -55.333 -34.333 -89.333 -103 -102c-14.667 0 -68.667 22 -162 66c-54.667 21.333 -107.334 32 -158.001 32h-61c-132 0 -259 -64.333 -381 -193
c-78.667 -108 -118 -218.667 -118 -332v-15c0 -185.333 86 -337 258 -455c89.333 -50 178.666 -75 267.999 -75h15c88 0 171.333 21.333 250 64v296h-246c-65.333 11.333 -98 45.333 -98 102v5c11.333 66.667 45 100 101 100h352c54 0 86.667 -33.333 98 -100v-421
c0 -74 -20.333 -120.667 -61 -140c-132.667 -78 -262.334 -117 -389.001 -117h-22c-246.667 0 -453 114 -619 342c-78.667 130 -118 265.333 -118 406c0 250.667 111.333 458 334 622c137.333 84 270.333 126 399 126zM520.003 1837h11.998
c48.667 0 85.334 -32.667 110.001 -98c26.667 -30.667 58 -46 94 -46c54.667 0 95.334 32.667 122.001 98c28.667 30.667 57.334 46 86.001 46h11c68.667 -12 103 -47.333 103 -106v-4c0 -65.333 -57.333 -138.333 -172 -219c-56 -20.667 -104.667 -31 -146 -31h-8
c-140.667 0 -245.334 76 -314.001 228v33c14 66 48 99 102 99z" />
    <glyph glyph-name="gbreve" unicode="&#x11f;" horiz-adv-x="1140" 
d="M366 1466h11.998c48.667 0 85.334 -32.667 110.001 -98c26.667 -30.667 58 -46 94 -46c54.667 0 95.334 32.667 122.001 98c28.667 30.667 57.334 46 86.001 46h11c68.667 -12 103 -47.333 103 -106v-4c0 -65.333 -57.333 -138.333 -172 -219
c-56 -20.667 -104.667 -31 -146 -31h-8c-140.667 0 -245.334 76 -314.001 228v33c14 66 48 99 102 99zM574.998 1051c160.667 0 299.668 -66.667 417.001 -200c81.333 -111.333 122 -217 122 -317l-4 -126v-449c0 -94 -68.667 -193.667 -206 -299
c-104.667 -68.667 -214.334 -103 -329.001 -103c-196 0 -358 87.333 -486 262c-25.333 42.667 -38 73 -38 91v11c0 48.667 31.333 80 94 94h14c47.333 0 84.333 -36 111 -108c81.333 -102 183 -153 305 -153c146 0 255.333 65.333 328 196l6 40v97
c-82 -76 -189.667 -114 -323 -114h-30c-145.333 0 -280.333 68 -405 204c-76.667 108 -115 219.667 -115 335c0 175.333 77.333 322 232 440c98.667 66 201 99 307 99zM240.999 523v-18c0 -138.667 73 -242 219 -310c38 -11.333 72.667 -17 104 -17h22
c135.333 0 237.666 72.667 306.999 218c10.667 43.333 16 77 16 101v23c0 138 -73.667 241.333 -221 310c-46 10.667 -81.333 16 -106 16h-14c-135.333 0 -237.666 -71.667 -306.999 -215c-13.333 -39.333 -20 -75.333 -20 -108z" />
    <glyph glyph-name="Gdotaccent" unicode="&#x120;" horiz-adv-x="1272" 
d="M759 1466c158.667 0 303.003 -45.333 433.003 -136c18.667 -25.333 28 -49 28 -71v-4c0 -55.333 -34.333 -89.333 -103 -102c-14.667 0 -68.667 22 -162 66c-54.667 21.333 -107.334 32 -158.001 32h-61c-132 0 -259 -64.333 -381 -193
c-78.667 -108 -118 -218.667 -118 -332v-15c0 -185.333 86 -337 258 -455c89.333 -50 178.666 -75 267.999 -75h15c88 0 171.333 21.333 250 64v296h-246c-65.333 11.333 -98 45.333 -98 102v5c11.333 66.667 45 100 101 100h352c54 0 86.667 -33.333 98 -100v-421
c0 -74 -20.333 -120.667 -61 -140c-132.667 -78 -262.334 -117 -389.001 -117h-22c-246.667 0 -453 114 -619 342c-78.667 130 -118 265.333 -118 406c0 250.667 111.333 458 334 622c137.333 84 270.333 126 399 126zM780.003 1823c76 0 124.668 -44.333 146.001 -133v-25
c0 -55.333 -33 -98 -99 -128c-12 -6 -27.667 -9 -47 -9h-3c-80.667 0 -129.334 48.667 -146.001 146c0 66 34.667 112.667 104 140c11.333 6 26.333 9 45 9z" />
    <glyph glyph-name="gdotaccent" unicode="&#x121;" horiz-adv-x="1149" 
d="M609 1437c76 0 124.668 -44.333 146.001 -133v-25c0 -55.333 -33 -98 -99 -128c-12 -6 -27.667 -9 -47 -9h-3c-80.667 0 -129.334 48.667 -146.001 146c0 66 34.667 112.667 104 140c11.333 6 26.333 9 45 9zM584.001 1051c160.667 0 299.668 -66.667 417.001 -200
c81.333 -111.333 122 -217 122 -317l-4 -126v-449c0 -94 -68.667 -193.667 -206 -299c-104.667 -68.667 -214.334 -103 -329.001 -103c-196 0 -358 87.333 -486 262c-25.333 42.667 -38 73 -38 91v11c0 48.667 31.333 80 94 94h14c47.333 0 84.333 -36 111 -108
c81.333 -102 183 -153 305 -153c146 0 255.333 65.333 328 196l6 40v97c-82 -76 -189.667 -114 -323 -114h-30c-145.333 0 -280.333 68 -405 204c-76.667 108 -115 219.667 -115 335c0 175.333 77.333 322 232 440c98.667 66 201 99 307 99zM250.002 523v-18
c0 -138.667 73 -242 219 -310c38 -11.333 72.667 -17 104 -17h22c135.333 0 237.666 72.667 306.999 218c10.667 43.333 16 77 16 101v23c0 138 -73.667 241.333 -221 310c-46 10.667 -81.333 16 -106 16h-14c-135.333 0 -237.666 -71.667 -306.999 -215
c-13.333 -39.333 -20 -75.333 -20 -108z" />
    <glyph glyph-name="Gcommaaccent" unicode="&#x122;" horiz-adv-x="1276" 
d="M883 -25c58.667 -44.667 88.002 -102.667 88.002 -174c0 -112.667 -65.667 -185.334 -197 -218.001l-53 3h-50l-61 -3c-56.667 18.667 -85 48.334 -85 89.001v17c11.333 60 42.333 90 93 90h121c24 0 36 7.33301 36 22v3c0 10 -13.667 17.667 -41 23
c-42 20 -63 47.333 -63 82v67c-196 18.667 -368.667 130.667 -518 336c-78.667 130 -118 265.333 -118 406c0 250.667 111.333 458 334 622c137.333 84 270.333 126 399 126c158.667 0 303 -45.333 433 -136c18.667 -25.333 28 -49 28 -71v-4
c0 -55.333 -34.333 -89.333 -103 -102c-14.667 0 -68.667 22 -162 66c-54.667 21.333 -107.334 32 -158.001 32h-61c-132 0 -259 -64.333 -381 -193c-78.667 -108 -118 -218.667 -118 -332v-15c0 -185.333 86 -337 258 -455c89.333 -50 178.666 -75 267.999 -75h15
c88 0 171.333 21.333 250 64v296h-246c-65.333 11.333 -98 45.333 -98 102v5c11.333 66.667 45 100 101 100h352c54 0 86.667 -33.333 98 -100v-421c0 -74 -20.333 -120.667 -61 -140c-110 -64.667 -210 -102 -300 -112z" />
    <glyph glyph-name="gcommaaccent" unicode="&#x123;" horiz-adv-x="1184" 
d="M665 1701c39.333 -11.333 59 -32.667 59 -64v-14c-39.333 -94 -59.333 -173.333 -60 -238c0 -34.667 15.333 -77.667 46 -129l6 -28c0 -61.333 -37 -99 -111 -113c-84 0 -136.333 93.333 -157 280c0 100 53 194.667 159 284zM597 1051
c160.667 0 299.668 -66.667 417.001 -200c81.333 -111.333 122 -217 122 -317l-4 -126v-449c0 -94 -68.667 -193.667 -206 -299c-104.667 -68.667 -214.334 -103 -329.001 -103c-196 0 -358 87.333 -486 262c-25.333 42.667 -38 73 -38 91v11c0 48.667 31.333 80 94 94h14
c47.333 0 84.333 -36 111 -108c81.333 -102 183 -153 305 -153c146 0 255.333 65.333 328 196l6 40v97c-82 -76 -189.667 -114 -323 -114h-30c-145.333 0 -280.333 68 -405 204c-76.667 108 -115 219.667 -115 335c0 175.333 77.333 322 232 440c98.667 66 201 99 307 99z
M263.001 522.999v-18c0 -138.667 73 -242 219 -310c38 -11.333 72.667 -17 104 -17h22c135.333 0 237.666 72.667 306.999 218c10.667 43.333 16 77 16 101v23c0 138 -73.667 241.333 -221 310c-46 10.667 -81.333 16 -106 16h-14
c-135.333 0 -237.666 -71.667 -306.999 -215c-13.333 -39.333 -20 -75.333 -20 -108z" />
    <glyph glyph-name="Hcircumflex" unicode="&#x124;" horiz-adv-x="1176" 
d="M134 1463h18c63.333 -13.333 95 -43.333 95 -90v-568h652v560c11.333 65.333 44 98 98 98h14c63.333 -12 95 -44.667 95 -98v-1301c0 -48.667 -33 -80 -99 -94h-10c-65.333 12 -98 46 -98 102v530h-652v-534c0 -54 -32.667 -86.667 -98 -98h-7
c-55.333 0 -89.333 34.333 -102 103v1279c8 74 39.333 111 94 111zM602 1594c-49.333 -66.667 -92.668 -100 -130.001 -100h-15c-66 14 -99 48 -99 102v12c0 33.333 42 95.333 126 186c30 48 64.667 72 104 72h28c42.667 0 95.667 -46.333 159 -139
c47.333 -47.333 71 -87 71 -119v-15c-14 -66 -48 -99 -102 -99h-12c-37.333 0 -80.666 33.333 -129.999 100z" />
    <glyph glyph-name="hcircumflex" unicode="&#x125;" horiz-adv-x="1074" 
d="M129 1460l18.001 -0.000976562c63.333 -13.333 95 -43.333 95 -90v-396c69.333 60 162.666 90 279.999 90c178.667 0 321.667 -84.333 429 -253c40.667 -75.333 61 -147 61 -215v-528c0 -54 -33.333 -86.667 -100 -98h-5c-51.333 0 -85.333 31.333 -102 94v510
c0 122.667 -63.667 211.334 -191 266.001c-30 8.66699 -60.667 13 -92 13c-126 0 -215 -67.667 -267 -203c-8.66699 -28.667 -13 -78 -13 -148v-434c0 -54 -33.333 -86.667 -100 -98h-5c-51.333 0 -85.333 31.333 -102 94v1298c14 65.333 45.333 98 94 98zM562.001 1510
c-49.333 -66.667 -92.668 -100 -130.001 -100h-15c-66 14 -99 48 -99 102v12c0 33.333 42 95.333 126 186c30 48 64.667 72 104 72h28c42.667 0 95.667 -46.333 159 -139c47.333 -47.333 71 -87 71 -119v-15c-14 -66 -48 -99 -102 -99h-12
c-37.333 0 -80.666 33.333 -129.999 100z" />
    <glyph glyph-name="Hbar" unicode="&#x126;" horiz-adv-x="1303" 
d="M137 1225v126.999c8 74 39.333 111 94 111h18c63.333 -13.333 95 -43.333 95 -90v-153h652v145c11.333 65.333 44 98 98 98h14c63.333 -12 95 -44.667 95 -98v-140l-7 -1c68 0 112 -35.333 132 -106c0 -52 -37 -90 -111 -114h-14v-940c0 -48.667 -33 -80 -99 -94h-10
c-65.333 12 -98 46 -98 102v530h-652v-534c0 -54 -32.667 -86.667 -98 -98h-7c-55.333 0 -89.333 34.333 -102 103v931h-2c-78 20.667 -117 58.334 -117 113.001c15.333 68.667 47 103 95 103v7zM344 1008v-203h652v203h-652z" />
    <glyph glyph-name="hbar" unicode="&#x127;" horiz-adv-x="1330" 
d="M291 1317l0.000976562 44.999c14 65.333 45.333 98 94 98h18c63.333 -13.333 95 -43.333 95 -90v-53h393l36 4c56.667 0 92.667 -35.667 108 -107c0 -50 -29.667 -87.667 -89 -113l-74 4h-374v-131c69.333 60 162.666 90 279.999 90c178.667 0 321.667 -84.333 429 -253
c40.667 -75.333 61 -147 61 -215v-528c0 -54 -33.333 -86.667 -100 -98h-5c-51.333 0 -85.333 31.333 -102 94v510c0 122.667 -63.667 211.334 -191 266.001c-30 8.66699 -60.667 13 -92 13c-126 0 -215 -67.667 -267 -203c-8.66699 -28.667 -13 -78 -13 -148v-434
c0 -54 -33.333 -86.667 -100 -98h-5c-51.333 0 -85.333 31.333 -102 94v1041h-97l-69 -4c-62.667 22 -94 59.667 -94 113c12 68.667 36 103 72 103v7l71 -7h117z" />
    <glyph glyph-name="Itilde" unicode="&#x128;" horiz-adv-x="621" 
d="M222 1479l23 -4h137l18 4c70.667 -15.333 106 -52 106 -110c-12 -68.667 -46 -103 -102 -103h14v-1087h-7c49.333 0 81 -33.333 95 -100v-10c-12 -66 -46 -99 -102 -99h-183c-66 12 -99 46 -99 102v7c14 66.667 45.667 100 95 100h-7v1087h14c-60 0 -94 36 -102 108v6
c0 46.667 33.333 79.667 100 99zM220 1769c60.667 0 128.001 -24 202.001 -72l20 -2l75 22h13c66.667 -11.333 100 -45.333 100 -102v-4c0 -64 -50 -104 -150 -120l-40 -4c-60.667 0 -125.334 24.333 -194.001 73l-17 2l-84 -23c-70.667 13.333 -106 47.333 -106 102v8
c0 66 54.667 105 164 117z" />
    <glyph glyph-name="itilde" unicode="&#x129;" horiz-adv-x="616" 
d="M330 1060c65.333 -16.667 98.001 -48 98.001 -94v-898c0 -54 -33.333 -86.667 -100 -98h-6c-54.667 0 -88.334 34 -101.001 102v874c8 76 44.333 114 109 114zM220.001 1359c60.667 0 128.001 -24 202.001 -72l20 -2l75 22h13c66.667 -11.333 100 -45.333 100 -102v-4
c0 -64 -50 -104 -150 -120l-40 -4c-60.667 0 -125.334 24.333 -194.001 73l-17 2l-84 -23c-70.667 13.333 -106 47.333 -106 102v8c0 66 54.667 105 164 117z" />
    <glyph glyph-name="Imacron" unicode="&#x12a;" horiz-adv-x="683" 
d="M266 1479l23 -4h137l18 4c70.667 -15.333 106 -52 106 -110c-12 -68.667 -46 -103 -102 -103h14v-1087h-7c49.333 0 81 -33.333 95 -100v-10c-12 -66 -46 -99 -102 -99h-183c-66 12 -99 46 -99 102v7c14 66.667 45.667 100 95 100h-7v1087h14c-60 0 -94 36 -102 108v6
c0 46.667 33.333 79.667 100 99zM94 1751l71 -7h397l36 4c54 0 90 -35.333 108 -106c0 -53.333 -31.333 -91.333 -94 -114l-65 4h-362l-69 -4c-62.667 22 -94 59.667 -94 113c12 68.667 36 103 72 103v7z" />
    <glyph glyph-name="imacron" unicode="&#x12b;" horiz-adv-x="744" 
d="M383 1060c65.333 -16.667 98.001 -48 98.001 -94v-898c0 -54 -33.333 -86.667 -100 -98h-6c-54.667 0 -88.334 34 -101.001 102v874c8 76 44.333 114 109 114zM116.001 1346l71 -7h397l36 4c54 0 90 -35.333 108 -106c0 -53.333 -31.333 -91.333 -94 -114l-65 4h-362
l-69 -4c-62.667 22 -94 59.667 -94 113c12 68.667 36 103 72 103v7z" />
    <glyph glyph-name="Ibreve" unicode="&#x12c;" horiz-adv-x="647" 
d="M252 1479l23 -4h137l18 4c70.667 -15.333 106 -52 106 -110c-12 -68.667 -46 -103 -102 -103h14v-1087h-7c49.333 0 81 -33.333 95 -100v-10c-12 -66 -46 -99 -102 -99h-183c-66 12 -99 46 -99 102v7c14 66.667 45.667 100 95 100h-7v1087h14c-60 0 -94 36 -102 108v6
c0 46.667 33.333 79.667 100 99zM132 1862h11.998c48.667 0 85.334 -32.667 110.001 -98c26.667 -30.667 58 -46 94 -46c54.667 0 95.334 32.667 122.001 98c28.667 30.667 57.334 46 86.001 46h11c68.667 -12 103 -47.333 103 -106v-4
c0 -65.333 -57.333 -138.333 -172 -219c-56 -20.667 -104.667 -31 -146 -31h-8c-140.667 0 -245.334 76 -314.001 228v33c14 66 48 99 102 99z" />
    <glyph glyph-name="ibreve" unicode="&#x12d;" horiz-adv-x="647" 
d="M124 1452h11.998c48.667 0 85.334 -32.667 110.001 -98c26.667 -30.667 58 -46 94 -46c54.667 0 95.334 32.667 122.001 98c28.667 30.667 57.334 46 86.001 46h11c68.667 -12 103 -47.333 103 -106v-4c0 -65.333 -57.333 -138.333 -172 -219
c-56 -20.667 -104.667 -31 -146 -31h-8c-140.667 0 -245.334 76 -314.001 228v33c14 66 48 99 102 99zM329.998 1060c65.333 -16.667 98.001 -48 98.001 -94v-898c0 -54 -33.333 -86.667 -100 -98h-6c-54.667 0 -88.334 34 -101.001 102v874c8 76 44.333 114 109 114z" />
    <glyph glyph-name="Iogonek" unicode="&#x12e;" horiz-adv-x="511" 
d="M131 -23c-47.333 16 -71 47.668 -71 95.001v7c14 66.667 45.667 100 95 100h-7v1087h14c-60 0 -94 36 -102 108v6c0 46.667 33.333 79.667 100 99l23 -4h137l18 4c70.667 -15.333 106 -52 106 -110c-12 -68.667 -46 -103 -102 -103h14v-1087h-7
c49.333 0 81 -33.333 95 -100v-10c-12 -66 -46 -99 -102 -99h28v-35c0 -56 -33 -89 -99 -99c-4.66699 -2.66699 -7 -8.33398 -7 -17.001c0 -15.333 12.333 -23 37 -23h98l18 5c67.333 -15.333 101 -48 101 -98v-7c0 -44.667 -27 -77 -81 -97l-80 4h-34l-56 -4
c-57.333 0 -114 35.333 -170 106c-20 38 -30 71.333 -30 100v28c0 59.333 21.333 107.333 64 144z" />
    <glyph glyph-name="iogonek" unicode="&#x12f;" horiz-adv-x="466" 
d="M237 1316c65.333 -16.667 98 -48 98 -94v-22c0 -52.667 -35.667 -84 -107 -94c-51.333 0 -85 35 -101 105c14 70 50.667 105 110 105zM137 15l-2 29.002c-2 6 -4.33301 15.333 -7 28v874c8 76 44.333 114 109 114c65.333 -16.667 98 -48 98 -94v-898
c0 -5.33301 -0.333008 -10 -1 -14c0.666992 0 1 -0.333008 1 -1v-108c0 -56 -33 -89 -99 -99c-4.66699 -2.66699 -7 -8.33398 -7 -17.001c0 -15.333 12.333 -23 37 -23h98l18 5c67.333 -15.333 101 -48 101 -98v-7c0 -44.667 -27 -77 -81 -97l-80 4h-34l-56 -4
c-57.333 0 -114 35.333 -170 106c-20 38 -30 71.333 -30 100v28c0 75.333 35 132.666 105 171.999z" />
    <glyph glyph-name="Idotaccent" unicode="&#x130;" horiz-adv-x="462" 
d="M160 1479l23 -4h137l18 4c70.667 -15.333 106 -52 106 -110c-12 -68.667 -46 -103 -102 -103h14v-1087h-7c49.333 0 81 -33.333 95 -100v-10c-12 -66 -46 -99 -102 -99h-183c-66 12 -99 46 -99 102v7c14 66.667 45.667 100 95 100h-7v1087h14c-60 0 -94 36 -102 108v6
c0 46.667 33.333 79.667 100 99zM265 1823c76 0 124.668 -44.333 146.001 -133v-25c0 -55.333 -33 -98 -99 -128c-12 -6 -27.667 -9 -47 -9h-3c-80.667 0 -129.334 48.667 -146.001 146c0 66 34.667 112.667 104 140c11.333 6 26.333 9 45 9z" />
    <glyph glyph-name="dotlessi" unicode="&#x131;" horiz-adv-x="514" 
d="M335 1000h14.998c48.667 -10.667 73 -35 73 -73v-881c-9.33301 -50.667 -35.666 -76 -78.999 -76h-5c-50.667 10.667 -76 35 -76 73v767c-22.667 -7.33301 -42.667 -11 -60 -11c-37.333 0 -61.666 24.667 -72.999 74v16c0 42 42 71.333 126 88z" />
    <glyph glyph-name="IJ" unicode="&#x132;" horiz-adv-x="1435" 
d="M160 1479l23 -4h137l18 4c70.667 -15.333 106 -52 106 -110c-12 -68.667 -46 -103 -102 -103h14v-1087h-7c49.333 0 81 -33.333 95 -100v-10c-12 -66 -46 -99 -102 -99h-183c-66 12 -99 46 -99 102v7c14 66.667 45.667 100 95 100h-7v1087h14c-60 0 -94 36 -102 108v6
c0 46.667 33.333 79.667 100 99zM1290 1473h11.9961c53.333 0 86 -33 98 -99v-926c0 -170 -79.333 -306.333 -238 -409c-75.333 -43.333 -152.666 -65 -231.999 -65h-19c-157.333 0 -288.666 75.667 -393.999 227c-48.667 80.667 -73 165.334 -73 254.001
c14.667 66 46.334 99 95.001 99h15c68 0 102 -49 102 -147c3.33301 -46.667 33 -100.334 89 -161.001c54 -42.667 113 -64 177 -64c126.667 0 213.334 66.333 260.001 199c6.66699 23.333 10 47 10 71v926c12 63.333 44.667 95 98 95z" />
    <glyph glyph-name="ij" unicode="&#x133;" horiz-adv-x="761" 
d="M189 1316c66 -16.667 99 -48 99 -94v-22c0 -52.667 -35.667 -84 -107 -94c-51.333 0 -85 35 -101 105c14 70 50.333 105 109 105zM189 1060c66 -16.667 99.001 -48 99.001 -94v-898c0 -54 -33.333 -86.667 -100 -98h-6c-54.667 0 -88.334 34 -101.001 102v874
c8 76 44 114 108 114zM580.001 1308c70 -14 105 -48.999 105 -104.999c0 -58.667 -36.667 -93.667 -110 -105c-62.667 18 -94 49.333 -94 94v22c0 45.333 33 76.666 99 93.999zM219.001 -437.999c-60 0 -94.667 36.335 -104 109.002c0 55.333 36 88.333 108 99
c126 0 209.333 62 250 186l8 106v894c0 56 34.667 89.333 104 100c66.667 -12.667 100 -46 100 -100v-928c0 -196.667 -93.667 -340.334 -281 -431.001c-58.667 -20.667 -114 -32.334 -166 -35.001h-19z" />
    <glyph glyph-name="Jcircumflex" unicode="&#x134;" horiz-adv-x="1166" 
d="M907 1473h11.9961c53.333 0 86 -33 98 -99v-926c0 -170 -79.333 -306.333 -238 -409c-75.333 -43.333 -152.666 -65 -231.999 -65h-19c-157.333 0 -288.666 75.667 -393.999 227c-48.667 80.667 -73 165.334 -73 254.001c14.667 66 46.334 99 95.001 99h15
c68 0 102 -49 102 -147c3.33301 -46.667 33 -100.334 89 -161.001c54 -42.667 113 -64 177 -64c126.667 0 213.334 66.333 260.001 199c6.66699 23.333 10 47 10 71v926c12 63.333 44.667 95 98 95zM904.996 1568c-49.333 -66.667 -92.668 -100 -130.001 -100h-15
c-66 14 -99 48 -99 102v12c0 33.333 42 95.333 126 186c30 48 64.667 72 104 72h28c42.667 0 95.667 -46.333 159 -139c47.333 -47.333 71 -87 71 -119v-15c-14 -66 -48 -99 -102 -99h-12c-37.333 0 -80.666 33.333 -129.999 100z" />
    <glyph glyph-name="jcircumflex" unicode="&#x135;" horiz-adv-x="810" 
d="M532 1056c66 -12.667 99 -45.999 99 -99.999v-928c0 -196.667 -93.333 -340.334 -280 -431.001c-66 -23.333 -127 -35 -183 -35l-4 4h23l-3 -4h-19c-59.333 0 -94 36.333 -104 109c0 55.333 36.333 88.333 109 99c125.333 0 208.333 62 249 186l8 106v894
c0 56 35 89.333 105 100zM522 1163c-49.333 -66.667 -92.668 -100 -130.001 -100h-15c-66 14 -99 48 -99 102v12c0 33.333 42 95.333 126 186c30 48 64.667 72 104 72h28c42.667 0 95.667 -46.333 159 -139c47.333 -47.333 71 -87 71 -119v-15c-14 -66 -48 -99 -102 -99h-12
c-37.333 0 -80.666 33.333 -129.999 100z" />
    <glyph glyph-name="Kcommaaccent" unicode="&#x136;" horiz-adv-x="1104" 
d="M148 1464h5c66.667 -11.333 100 -44 100 -98v-581c438.667 438 663.334 657 674.001 657l27 4h12c63.333 -12 95 -44.667 95 -98v-12c0 -34 -29.667 -75.333 -89 -124l-445 -448l522 -646l4 -33v-13c0 -54 -32.667 -86.667 -98 -98h-7c-40.667 0 -90.334 43 -149.001 129
l-423 513l-123 -126v-422c0 -54 -33.333 -86.667 -100 -98h-5c-55.333 0 -89.333 34 -102 102v1290c12.667 68 46.667 102 102 102zM506 79c14.667 5.33301 29.667 7.99902 45 7.99902c25.333 0 51.333 -7 78 -21c79.333 -52.667 119 -118 119 -196
c0 -112.667 -65.667 -185.334 -197 -218.001l-53 3h-50l-61 -3c-56.667 18.667 -85 48.334 -85 89.001v17c11.333 60 42.333 90 93 90h121c24 0 36 7.33301 36 22v3c0 10 -13.667 17.667 -41 23c-42 20 -63 47.333 -63 82c0 52.667 19.333 86.334 58 101.001z" />
    <glyph glyph-name="kcommaaccent" unicode="&#x137;" horiz-adv-x="1026" 
d="M471 88c14.667 5.33301 29.667 7.99902 45 7.99902c25.333 0 51.333 -7 78 -21c79.333 -52.667 119 -118 119 -196c0 -112.667 -65.667 -185.334 -197 -218.001l-53 3h-50l-61 -3c-56.667 18.667 -85 48.334 -85 89.001v17c11.333 60 42.333 90 93 90h121
c24 0 36 7.33301 36 22v3c0 10 -13.667 17.667 -41 23c-42 20 -63 47.333 -63 82c0 52.667 19.333 86.334 58 101.001zM393 517.999l-125 -80v-370c0 -54 -33.333 -86.667 -100 -98h-6c-51.333 0 -85.333 31.333 -102 94v1302c14 66 45.333 99 94 99h18
c64 -14 96 -44.333 96 -91v-690c326 216 521.333 342.333 586 379h27c57.333 0 91.333 -35.667 102 -107c0 -44 -45.333 -90 -136 -138l-276 -189l406 -514l6 -33v-9c-12 -66 -46 -99 -102 -99h-7c-40 0 -92.333 46.667 -157 140z" />
    <glyph glyph-name="kgreenlandic" unicode="&#x138;" horiz-adv-x="1043" 
d="M406 518l-125 -80v-370c0 -54 -33.333 -86.667 -100 -98h-6c-51.333 0 -85.333 31.333 -102 94v934c10.667 58 41.667 93 93 105l28 1c54.667 -13.333 83.667 -50 87 -110v-310c326 216 521.333 342.333 586 379h27c57.333 0 91.333 -35.667 102 -107
c0 -44 -45.333 -90 -136 -138l-276 -189l406 -514l6 -33v-9c-12 -66 -46 -99 -102 -99h-7c-40 0 -92.333 46.667 -157 140z" />
    <glyph glyph-name="Lacute" unicode="&#x139;" horiz-adv-x="947" 
d="M125 1463h17.999c63.333 -13.333 95 -43.333 95 -90v-1196h587c58 0 92.333 -37 103 -111c-19.333 -64 -53.666 -96 -102.999 -96h-692c-55.333 0 -89.333 34.333 -102 103v1279c8 74 39.333 111 94 111zM527.999 1854c62.667 0 99.333 -38.665 110 -115.998
c0 -36.667 -64 -112.334 -192 -227.001c-50.667 -62 -94 -93 -130 -93h-15c-66 12.667 -99 46.667 -99 102v16c0 31.333 49.667 91.666 149 180.999c80 91.333 139 137 177 137z" />
    <glyph glyph-name="lacute" unicode="&#x13a;" horiz-adv-x="466" 
d="M172 1457h18c63.333 -13.333 95 -43.333 95 -90v-1190h49c48.667 0 80 -33 94 -99v-8c-11.333 -66.667 -45.333 -100 -102 -100h-146c-55.333 0 -89.333 34 -102 102v1275c8 73.333 39.333 110 94 110zM325 1867c59.333 0 94 -36.666 104 -109.999
c0 -34.667 -60.667 -106.334 -182 -215.001c-48 -58.667 -89 -88 -123 -88h-14c-62.667 12 -94 44.333 -94 97v15c0 29.333 47 86.333 141 171c76 86.667 132 130 168 130z" />
    <glyph glyph-name="Lcommaaccent" unicode="&#x13b;" horiz-adv-x="929" 
d="M443 -30h-319.001c-55.333 0 -89.333 34.333 -102 103v1279c8 74 39.333 111 94 111h18c63.333 -13.333 95 -43.333 95 -90v-1196h587c58 0 92.333 -37 103 -111c-19.333 -64 -53.666 -96 -102.999 -96h-227c79.333 -52.667 119 -118 119 -196
c0 -112.667 -65.667 -185.334 -197 -218.001l-53 3h-50l-61 -3c-56.667 18.667 -85 48.334 -85 89.001v17c11.333 60 42.333 90 93 90h121c24 0 36 7.33301 36 22v3c0 10 -13.667 17.667 -41 23c-42 20 -63 47.333 -63 82c0 40.667 11.667 70 35 88z" />
    <glyph glyph-name="lcommaaccent" unicode="&#x13c;" horiz-adv-x="515" 
d="M366 -30l8 -4c79.333 -52.667 119 -118 119 -196c0 -112.667 -65.667 -185.334 -197 -218.001l-53 3h-50l-61 -3c-56.667 18.667 -85 48.334 -85 89.001v17c11.333 60 42.333 90 93 90h121c24 0 36 7.33301 36 22v3c0 10 -13.667 17.667 -41 23c-42 20 -63 47.333 -63 82
c0 44 13.333 74.667 40 92h-4c-55.333 0 -89.333 34 -102 102v1275c8 73.333 39.333 110 94 110h18c63.333 -13.333 95 -43.333 95 -90v-1190h49c48.667 0 80 -33 94 -99v-8c-11.333 -66.667 -45.333 -100 -102 -100h-9z" />
    <glyph glyph-name="Lcaron" unicode="&#x13d;" horiz-adv-x="973" 
d="M160 1463h17.999c63.333 -13.333 95 -43.333 95 -90v-1196h587c58 0 92.333 -37 103 -111c-19.333 -64 -53.666 -96 -102.999 -96h-692c-55.333 0 -89.333 34.333 -102 103v1279c8 74 39.333 111 94 111zM748.999 1606h28c73.333 0 120.666 -88 141.999 -264v-22
c0 -95.333 -52.333 -186.333 -157 -273c-25.333 -14 -47.666 -21 -66.999 -21c-22 8.66699 -39.333 24 -52 46v26c40 96 60 172.667 60 230v12c0 36 -16 81.333 -48 136v31c14 66 45.333 99 94 99z" />
    <glyph glyph-name="lcaron" unicode="&#x13e;" horiz-adv-x="559" 
d="M168 1457h18c63.333 -13.333 95 -43.333 95 -90v-1190h49c48.667 0 80 -33 94 -99v-8c-11.333 -66.667 -45.333 -100 -102 -100h-146c-55.333 0 -89.333 34 -102 102v1275c8 73.333 39.333 110 94 110zM402 1597h28c73.333 0 120.666 -88 141.999 -264v-22
c0 -95.333 -52.333 -186.333 -157 -273c-25.333 -14 -47.666 -21 -66.999 -21c-22 8.66699 -39.333 24 -52 46v26c40 96 60 172.667 60 230v12c0 36 -16 81.333 -48 136v31c14 66 45.333 99 94 99z" />
    <glyph glyph-name="Ldot" unicode="&#x13f;" horiz-adv-x="1004" 
d="M160 1463h17.999c63.333 -13.333 95 -43.333 95 -90v-1196h587c58 0 92.333 -37 103 -111c-19.333 -64 -53.666 -96 -102.999 -96h-692c-55.333 0 -89.333 34.333 -102 103v1279c8 74 39.333 111 94 111zM664.999 899c76 0 124.668 -44.333 146.001 -133v-25
c0 -55.333 -33 -98 -99 -128c-12 -6 -27.667 -9 -47 -9h-3c-80.667 0 -129.334 48.667 -146.001 146c0 66 34.667 112.667 104 140c11.333 6 26.333 9 45 9z" />
    <glyph glyph-name="ldot" unicode="&#x140;" horiz-adv-x="665" 
d="M498 864c76 0 124.668 -44.333 146.001 -133v-25c0 -55.333 -33 -98 -99 -128c-12 -6 -27.667 -9 -47 -9h-3c-80.667 0 -129.334 48.667 -146.001 146c0 66 34.667 112.667 104 140c11.333 6 26.333 9 45 9zM159.001 1457h18c63.333 -13.333 95 -43.333 95 -90v-1190h49
c48.667 0 80 -33 94 -99v-8c-11.333 -66.667 -45.333 -100 -102 -100h-146c-55.333 0 -89.333 34 -102 102v1275c8 73.333 39.333 110 94 110z" />
    <glyph glyph-name="Lslash" unicode="&#x141;" horiz-adv-x="1079" 
d="M185 714l-0.00195312 638.001c8 74 39.333 111 94 111h18c63.333 -13.333 95 -43.333 95 -90v-509c132 96.667 208.667 145 230 145h20c48.667 0 81.334 -32.667 98.001 -98v-16c0 -44 -44.333 -92.333 -133 -145l-215 -155v-418h587c58 0 92.333 -37 103 -111
c-19.333 -64 -53.666 -96 -102.999 -96h-692c-55.333 0 -89.333 34.333 -102 103v376c-4 -2.66699 -9.33301 -4 -16 -4l-23 -5c-73.333 14.667 -110 51.667 -110 111c0 49.333 49.667 103.666 149 162.999z" />
    <glyph glyph-name="lslash" unicode="&#x142;" horiz-adv-x="695" 
d="M430 830c96 69.333 153.666 104 172.999 104h20c48.667 0 81.334 -32.667 98.001 -98v-16c0 -44 -44.333 -92.333 -133 -145l-158 -114v-384h49c48.667 0 80 -33 94 -99v-8c-11.333 -66.667 -45.333 -100 -102 -100h-146c-55.333 0 -89.333 34 -102 102v340
c-40.667 -28 -65 -42 -73 -42l-23 -5c-73.333 14.667 -110 51.667 -110 111c0 50 55 107.667 165 173l41 30v668c8 73.333 39.333 110 94 110h18c63.333 -13.333 95 -43.333 95 -90v-537z" />
    <glyph glyph-name="Nacute" unicode="&#x143;" horiz-adv-x="1285" 
d="M854 1788c62.667 0 99.333 -38.665 110 -115.998c0 -36.667 -64 -112.334 -192 -227.001c-50.667 -62 -94 -93 -130 -93h-15c-66 12.667 -99 46.667 -99 102v16c0 31.333 49.667 91.666 149 180.999c80 91.333 139 137 177 137zM1033 374.002l0.00195312 992
c12 63.333 44.667 95 98 95h11c54 0 86.667 -32.667 98 -98v-1288c0 -58 -35.667 -93 -107 -105c-40.667 0 -93.334 48 -158.001 144l-733 936v-978c0 -54 -33.333 -86.667 -100 -98h-5c-55.333 0 -89.333 34 -102 102v1274c8 74 39.333 111 94 111h15
c44.667 0 80.667 -29.333 108 -88c35.333 -40 295.666 -373 780.999 -999z" />
    <glyph glyph-name="nacute" unicode="&#x144;" horiz-adv-x="1096" 
d="M678 1555c62.667 0 99.333 -38.665 110 -115.998c0 -36.667 -64 -112.334 -192 -227.001c-50.667 -62 -94 -93 -130 -93h-15c-66 12.667 -99 46.667 -99 102v16c0 31.333 49.667 91.666 149 180.999c80 91.333 139 137 177 137zM137.999 1032
c64 -16.667 95.998 -47.3311 95.998 -91.998v-13c78.667 70 184.334 105 317.001 105c146 0 275.667 -60.667 389 -182c82.667 -102 124 -209.667 124 -323v-465c0 -48.667 -32 -79.334 -96 -92.001h-10c-64.667 11.333 -97 44.666 -97 99.999v409
c0 169.333 -72 280.333 -216 333c-35.333 9.33301 -66.666 14 -93.999 14h-11c-120.667 0 -214 -62.667 -280 -188c-17.333 -38 -26 -100.667 -26 -188v-384c0 -52.667 -32.333 -84.667 -97 -96h-6c-54 0 -87.333 33.333 -100 100v849c7.33301 75.333 43 113 107 113z" />
    <glyph glyph-name="Ncommaaccent" unicode="&#x145;" horiz-adv-x="1307" 
d="M655 88c14.667 5.33301 29.667 7.99902 45 7.99902c25.333 0 51.333 -7 78 -21c79.333 -52.667 119 -118 119 -196c0 -112.667 -65.667 -185.334 -197 -218.001l-53 3h-50l-61 -3c-56.667 18.667 -85 48.334 -85 89.001v17c11.333 60 42.333 90 93 90h121
c24 0 36 7.33301 36 22v3c0 10 -13.667 17.667 -41 23c-42 20 -63 47.333 -63 82c0 52.667 19.333 86.334 58 101.001zM1064 373.999l0.00195312 992c12 63.333 44.667 95 98 95h11c54 0 86.667 -32.667 98 -98v-1288c0 -58 -35.667 -93 -107 -105
c-40.667 0 -93.334 48 -158.001 144l-733 936v-978c0 -54 -33.333 -86.667 -100 -98h-5c-55.333 0 -89.333 34 -102 102v1274c8 74 39.333 111 94 111h15c44.667 0 80.667 -29.333 108 -88c35.333 -40 295.666 -373 780.999 -999z" />
    <glyph glyph-name="ncommaaccent" unicode="&#x146;" horiz-adv-x="1140" 
d="M514 84c14.667 5.33301 29.667 7.99902 45 7.99902c25.333 0 51.333 -7 78 -21c79.333 -52.667 119 -118 119 -196c0 -112.667 -65.667 -185.334 -197 -218.001l-53 3h-50l-61 -3c-56.667 18.667 -85 48.334 -85 89.001v17c11.333 60 42.333 90 93 90h121
c24 0 36 7.33301 36 22v3c0 10 -13.667 17.667 -41 23c-42 20 -63 47.333 -63 82c0 52.667 19.333 86.334 58 101.001zM142 1032c64 -16.667 95.998 -47.3311 95.998 -91.998v-13c78.667 70 184.334 105 317.001 105c146 0 275.667 -60.667 389 -182
c82.667 -102 124 -209.667 124 -323v-465c0 -48.667 -32 -79.334 -96 -92.001h-10c-64.667 11.333 -97 44.666 -97 99.999v409c0 169.333 -72 280.333 -216 333c-35.333 9.33301 -66.666 14 -93.999 14h-11c-120.667 0 -214 -62.667 -280 -188
c-17.333 -38 -26 -100.667 -26 -188v-384c0 -52.667 -32.333 -84.667 -97 -96h-6c-54 0 -87.333 33.333 -100 100v849c7.33301 75.333 43 113 107 113z" />
    <glyph glyph-name="Ncaron" unicode="&#x147;" horiz-adv-x="1321" 
d="M670 1620c49.333 66.667 92.668 100 130.001 100h15c66 -14 99 -48 99 -102v-12c0 -31.333 -34 -84.333 -102 -159c-45.333 -66 -88 -99 -128 -99h-28c-42 0 -93.667 45 -155 135c-50 50 -75 91 -75 123v15c14 66 48 99 102 99h12c37.333 0 80.666 -33.333 129.999 -100z
M1051 374l0.00195312 992c12 63.333 44.667 95 98 95h11c54 0 86.667 -32.667 98 -98v-1288c0 -58 -35.667 -93 -107 -105c-40.667 0 -93.334 48 -158.001 144l-733 936v-978c0 -54 -33.333 -86.667 -100 -98h-5c-55.333 0 -89.333 34 -102 102v1274c8 74 39.333 111 94 111
h15c44.667 0 80.667 -29.333 108 -88c35.333 -40 295.666 -373 780.999 -999z" />
    <glyph glyph-name="ncaron" unicode="&#x148;" horiz-adv-x="1114" 
d="M147 1032c64 -16.667 95.998 -47.3311 95.998 -91.998v-13c78.667 70 184.334 105 317.001 105c146 0 275.667 -60.667 389 -182c82.667 -102 124 -209.667 124 -323v-465c0 -48.667 -32 -79.334 -96 -92.001h-10c-64.667 11.333 -97 44.666 -97 99.999v409
c0 169.333 -72 280.333 -216 333c-35.333 9.33301 -66.666 14 -93.999 14h-11c-120.667 0 -214 -62.667 -280 -188c-17.333 -38 -26 -100.667 -26 -188v-384c0 -52.667 -32.333 -84.667 -97 -96h-6c-54 0 -87.333 33.333 -100 100v849c7.33301 75.333 43 113 107 113z
M577.998 1369c49.333 66.667 92.668 100 130.001 100h15c66 -14 99 -48 99 -102v-12c0 -31.333 -34 -84.333 -102 -159c-45.333 -66 -88 -99 -128 -99h-28c-42 0 -93.667 45 -155 135c-50 50 -75 91 -75 123v15c14 66 48 99 102 99h12c37.333 0 80.666 -33.333 129.999 -100
z" />
    <glyph glyph-name="napostrophe" unicode="&#x149;" horiz-adv-x="1427" 
d="M398 1032c64 -16.667 95.998 -47.3311 95.998 -91.998v-13c78.667 70 184.334 105 317.001 105c146 0 275.667 -60.667 389 -182c82.667 -102 124 -209.667 124 -323v-465c0 -48.667 -32 -79.334 -96 -92.001h-10c-64.667 11.333 -97 44.666 -97 99.999v409
c0 169.333 -72 280.333 -216 333c-35.333 9.33301 -66.666 14 -93.999 14h-11c-120.667 0 -214 -62.667 -280 -188c-17.333 -38 -26 -100.667 -26 -188v-384c0 -52.667 -32.333 -84.667 -97 -96h-6c-54 0 -87.333 33.333 -100 100v849c7.33301 75.333 43 113 107 113z
M118.998 1306h28c73.333 0 120.666 -88 141.999 -264v-22c0 -95.333 -52.333 -186.333 -157 -273c-25.333 -14 -47.666 -21 -66.999 -21c-22 8.66699 -39.333 24 -52 46v26c40 96 60 172.667 60 230v12c0 36 -16 81.333 -48 136v31c14 66 45.333 99 94 99z" />
    <glyph glyph-name="Eng" unicode="&#x14a;" horiz-adv-x="1268" 
d="M643 1463c161.333 0 306.999 -63.334 436.999 -190.001c94.667 -110 147.667 -216.333 159 -319l7 -51l-3 -119v-207l3 -99c-10 -94 -42 -179 -96 -255c-107.333 -130.667 -238.666 -196 -393.999 -196c-111.333 0 -209.333 35.667 -294 107l-11 48v17
c12 63.333 44.667 95 98 95h13l126 -50l70 -7h6c103.333 0 184.333 50.667 243 152c21.333 32 32 98.333 32 199v230c0 202.667 -85 339.334 -255 410.001c-49.333 16 -91.333 24 -126 24h-22c-146.667 0 -262.667 -73 -348 -219c-27.333 -50 -41 -129 -41 -237v-728
c0 -54 -33.333 -86.667 -100 -98h-5c-55.333 0 -89.333 34 -102 102v1276c8 74 39.333 111 94 111h18c63.333 -13.333 95 -43.333 95 -90v-55c98 99.333 230 149 396 149z" />
    <glyph glyph-name="eng" unicode="&#x14b;" horiz-adv-x="1140" 
d="M1072 47c-2.66699 -153.333 -86.002 -261.666 -250.002 -324.999l-96 -17c-68 15.333 -102 46.333 -102 93v22c0 54.667 37.333 85 112 91c60 0 103.667 37.667 131 113c0 13.333 1 26.333 3 39v416c0 169.333 -72 280.333 -216 333
c-35.333 9.33301 -66.666 14 -93.999 14h-11c-120.667 0 -214 -62.667 -280 -188c-17.333 -38 -26 -100.667 -26 -188v-384c0 -52.667 -32.333 -84.667 -97 -96h-6c-54 0 -87.333 33.333 -100 100v849c7.33301 75.333 43 113 107 113c64 -16.667 96 -47.334 96 -92.001v-13
c78.667 70 184.334 105 317.001 105c146 0 275.667 -60.667 389 -182c82.667 -102 124 -209.667 124 -323v-465c0 -5.33301 -0.333008 -10.333 -1 -15z" />
    <glyph glyph-name="Omacron" unicode="&#x14c;" horiz-adv-x="1580" 
d="M779 1465c252 0 462.666 -116.668 631.999 -350.001c76.667 -132.667 115 -266.334 115 -401.001c0 -249.333 -112.667 -456.666 -338 -621.999c-128 -81.333 -262 -122 -402 -122h-15c-257.333 0 -467 119.333 -629 358c-74 121.333 -111 252.333 -111 393
c0 238.667 104.667 439.334 314 602.001c136.667 94.667 281.334 142 434.001 142zM237.999 709.999c0 -172.667 76.667 -318.333 230 -437c94.667 -64 195.667 -96 303 -96h19c168.667 0 311.667 75.333 429 226c66.667 96 100 201 100 315c0 195.333 -89.667 350 -269 464
c-88 50.667 -178.333 76 -271 76c-178.667 0 -327 -78 -445 -234c-64 -92 -96 -196.667 -96 -314zM369.999 1734h847.001c64.667 -12 97 -45.333 97 -100v-15c-12 -64.667 -44.333 -97 -97 -97h-847c-58 0 -91.333 38 -100 114c17.333 65.333 50.666 98 99.999 98z" />
    <glyph glyph-name="omacron" unicode="&#x14d;" horiz-adv-x="1188" 
d="M583 1048c139.333 0 265.333 -52.667 378 -158c107.333 -112.667 161 -239.667 161 -381c0 -202 -95.333 -360.667 -286 -476c-83.333 -42 -164 -63 -242 -63h-30c-145.333 0 -280.333 68 -405 204c-76.667 108 -115 219.667 -115 335c0 175.333 77.333 322 232 440
c98.667 66 201 99 307 99zM253 520l-0.000976562 -17.998c0 -124.667 60.333 -221.334 181 -290.001c42.667 -22 88.667 -33 138 -33h22c128.667 0 227.334 67 296.001 201c15.333 41.333 23 82 23 122v18c0 103.333 -47.667 190.666 -143 261.999
c-55.333 38 -119 57 -191 57c-140.667 0 -244 -74 -310 -222c-10.667 -34.667 -16 -67 -16 -97zM162.999 1355h847.001c64.667 -12 97 -45.333 97 -100v-15c-12 -64.667 -44.333 -97 -97 -97h-847c-58 0 -91.333 38 -100 114c17.333 65.333 50.666 98 99.999 98z" />
    <glyph glyph-name="Obreve" unicode="&#x14e;" horiz-adv-x="1563" 
d="M788 1465c252 0 462.666 -116.668 631.999 -350.001c76.667 -132.667 115 -266.334 115 -401.001c0 -249.333 -112.667 -456.666 -338 -621.999c-128 -81.333 -262 -122 -402 -122h-15c-257.333 0 -467 119.333 -629 358c-74 121.333 -111 252.333 -111 393
c0 238.667 104.667 439.334 314 602.001c136.667 94.667 281.334 142 434.001 142zM246.999 709.999c0 -172.667 76.667 -318.333 230 -437c94.667 -64 195.667 -96 303 -96h19c168.667 0 311.667 75.333 429 226c66.667 96 100 201 100 315c0 195.333 -89.667 350 -269 464
c-88 50.667 -178.333 76 -271 76c-178.667 0 -327 -78 -445 -234c-64 -92 -96 -196.667 -96 -314zM586.999 1866h11.998c48.667 0 85.334 -32.667 110.001 -98c26.667 -30.667 58 -46 94 -46c54.667 0 95.334 32.667 122.001 98c28.667 30.667 57.334 46 86.001 46h11
c68.667 -12 103 -47.333 103 -106v-4c0 -65.333 -57.333 -138.333 -172 -219c-56 -20.667 -104.667 -31 -146 -31h-8c-140.667 0 -245.334 76 -314.001 228v33c14 66 48 99 102 99z" />
    <glyph glyph-name="obreve" unicode="&#x14f;" horiz-adv-x="1127" 
d="M371 1466h11.998c48.667 0 85.334 -32.667 110.001 -98c26.667 -30.667 58 -46 94 -46c54.667 0 95.334 32.667 122.001 98c28.667 30.667 57.334 46 86.001 46h11c68.667 -12 103 -47.333 103 -106v-4c0 -65.333 -57.333 -138.333 -172 -219
c-56 -20.667 -104.667 -31 -146 -31h-8c-140.667 0 -245.334 76 -314.001 228v33c14 66 48 99 102 99zM578.998 1048c139.333 0 265.333 -52.667 378 -158c107.333 -112.667 161 -239.667 161 -381c0 -202 -95.333 -360.667 -286 -476c-83.333 -42 -164 -63 -242 -63h-30
c-145.333 0 -280.333 68 -405 204c-76.667 108 -115 219.667 -115 335c0 175.333 77.333 322 232 440c98.667 66 201 99 307 99zM248.998 520l-0.000976562 -17.998c0 -124.667 60.333 -221.334 181 -290.001c42.667 -22 88.667 -33 138 -33h22
c128.667 0 227.334 67 296.001 201c15.333 41.333 23 82 23 122v18c0 103.333 -47.667 190.666 -143 261.999c-55.333 38 -119 57 -191 57c-140.667 0 -244 -74 -310 -222c-10.667 -34.667 -16 -67 -16 -97z" />
    <glyph glyph-name="Ohungarumlaut" unicode="&#x150;" horiz-adv-x="1580" 
d="M238 710c0 -172.667 76.667 -318.333 230 -437c94.667 -64 195.667 -96 303 -96h19c168.667 0 311.667 75.333 429 226c66.667 96 100 201 100 315c0 195.333 -89.667 350 -269 464c-88 50.667 -178.333 76 -271 76c-178.667 0 -327 -78 -445 -234
c-64 -92 -96 -196.667 -96 -314zM597 1873h7.00098c68.667 -12 103 -46 103 -102v-20c0 -20.667 -58.333 -107 -175 -259c-18.667 -20.667 -38.334 -31 -59.001 -31h-8c-37.333 0 -62 23.333 -74 70v18c73.333 183.333 120 284 140 302c24.667 14.667 46.667 22 66 22z
M758.001 1465l21 -0.00292969c252 0 462.667 -116.667 632 -350c76.667 -132.667 115 -266.334 115 -401.001c0 -249.333 -112.667 -456.666 -338 -621.999c-128 -81.333 -262 -122 -402 -122h-15c-257.333 0 -467 119.333 -629 358c-74 121.333 -111 252.333 -111 393
c0 238.667 104.667 439.334 314 602.001c105.333 72.667 215.333 117.334 330 134.001c-18.667 10.667 -32 31.334 -40 62.001c0 18 39 115.667 117 293c31.333 32.667 63.333 49 96 49c71.333 -14 107 -50.667 107 -110c0 -28 -38 -89.667 -114 -185
c-32 -49.333 -59.667 -83 -83 -101z" />
    <glyph glyph-name="ohungarumlaut" unicode="&#x151;" horiz-adv-x="1135" 
d="M574 1048c139.333 0 265.333 -52.667 378 -158c107.333 -112.667 161 -239.667 161 -381c0 -202 -95.333 -360.667 -286 -476c-83.333 -42 -164 -63 -242 -63h-30c-145.333 0 -280.333 68 -405 204c-76.667 108 -115 219.667 -115 335c0 175.333 77.333 322 232 440
c98.667 66 201 99 307 99zM244 520l-0.000976562 -17.998c0 -124.667 60.333 -221.334 181 -290.001c42.667 -22 88.667 -33 138 -33h22c128.667 0 227.334 67 296.001 201c15.333 41.333 23 82 23 122v18c0 103.333 -47.667 190.666 -143 261.999
c-55.333 38 -119 57 -191 57c-140.667 0 -244 -74 -310 -222c-10.667 -34.667 -16 -67 -16 -97zM459.999 1499h7.00098c68.667 -12 103 -46 103 -102v-20c0 -20.667 -58.333 -107 -175 -259c-18.667 -20.667 -38.334 -31 -59.001 -31h-8c-37.333 0 -62 23.333 -74 70v18
c73.333 183.333 120 284 140 302c24.667 14.667 46.667 22 66 22zM711 1487c71.333 -14 107 -50.667 107 -110c0 -28 -38 -89.667 -114 -185c-50 -78 -90 -117 -120 -117h-12c-37.333 0 -62 23.333 -74 70c0 18 39 115.667 117 293c31.333 32.667 63.333 49 96 49z" />
    <glyph glyph-name="OE" unicode="&#x152;" horiz-adv-x="2157" 
d="M264 710c0 -174 62.999 -320.333 188.999 -439c76 -62.667 156.667 -94 242 -94h16c135.333 0 250.333 74.333 345 223c55.333 97.333 83 203.333 83 318c0 196 -73.333 351.333 -220 466c-70.667 49.333 -143 74 -217 74c-143.333 0 -262.666 -77 -357.999 -231
c-53.333 -93.333 -80 -199 -80 -317zM1141 186c-4 -6.66699 -36.998 -37.333 -98.998 -92c-106.667 -82.667 -218 -124 -334 -124h-13c-214 0 -387.667 120 -521 360c-60 120.667 -90 251 -90 391c0 237.333 85.667 437.333 257 600c113.333 96 233.666 144 360.999 144
c195.333 0 341.666 -73.667 438.999 -221v124c10 66.667 34 100 72 100v11l52 -11h737l15 4c63.333 0 100 -38 110 -114c-14 -65.333 -51.667 -98 -113 -98h-665v-452h424l54 4c50.667 0 83.667 -34.333 99 -103c0 -48.667 -28.667 -85 -86 -109l-82 4h-409v-426h683
c52.667 0 84.667 -37.333 96 -112c-19.333 -64 -52.333 -96 -99 -96h-789c-66 12 -99 46 -99 102v114z" />
    <glyph glyph-name="oe" unicode="&#x153;" horiz-adv-x="2025" 
d="M253 525l-0.000976562 -17.998c0 -124.667 60.333 -221.334 181 -290.001c42.667 -22 88.667 -33 138 -33h22c128.667 0 227.334 67 296.001 201c15.333 41.333 23 82 23 122v18c0 103.333 -47.667 190.666 -143 261.999c-55.333 38 -119 57 -191 57
c-140.667 0 -244 -74 -310 -222c-10.667 -34.667 -16 -67 -16 -97zM1133 581.002h640.001c0 23.333 -27 71.333 -81 144c-73.333 69.333 -145 104 -215 104h-41c-106.667 0 -194.334 -52.667 -263.001 -158c-24.667 -42 -38 -72 -40 -90zM1020 195.002
c-30.667 -49.333 -91.998 -101.667 -183.998 -157c-83.333 -42 -164 -63 -242 -63h-30c-145.333 0 -280.333 68 -405 204c-76.667 108 -115 219.667 -115 335c0 175.333 77.333 322 232 440c98.667 66 201 99 307 99c139.333 0 265.333 -52.667 378 -158
c34.667 -36 55.334 -59.333 62.001 -70c27.333 44.667 84.333 94 171 148c90 44 174.333 66 253 66c204.667 0 363.667 -97 477 -291c39.333 -76.667 59 -159.334 59 -248.001v-22c-12 -66.667 -45.333 -100 -100 -100h-733
c19.333 -63.333 72.666 -118.666 159.999 -165.999c51.333 -20 99.666 -30 144.999 -30c51.333 0 113.666 18.333 186.999 55h32c62 -12 93 -44 93 -96v-11c0 -78 -97.333 -129.667 -292 -155h-28c-188 0 -330.333 73.333 -427 220z" />
    <glyph glyph-name="Racute" unicode="&#x154;" horiz-adv-x="986" 
d="M243 1261v-425h185c104 0 172.667 56.333 206 169l3 27v28c0 82 -46.667 144.667 -140 188c-26 8.66699 -69 13 -129 13h-125zM411 1465l33.001 0.00195312c145.333 0 263.666 -76 354.999 -228c30 -59.333 45 -121 45 -185v-15c0 -142.667 -69.333 -259.667 -208 -351
l-10 -5c221.333 -382 332 -580 332 -594v-19c0 -54 -33.333 -86.667 -100 -98h-6c-48.667 0 -95.334 48.333 -140.001 145l-301 514h-168v-561c0 -54 -33.333 -86.667 -100 -98h-6c-55.333 0 -89.333 34.333 -102 103v1280c8 74.667 39.333 112 94 112h185
c-39.333 17.333 -59 47.333 -59 90v16c0 31.333 49.667 91.666 149 180.999c80 91.333 139 137 177 137c62.667 0 99.334 -38.667 110.001 -116c0 -36.667 -64 -112.334 -192 -227.001c-32.667 -40 -62 -67 -88 -81z" />
    <glyph glyph-name="racute" unicode="&#x155;" horiz-adv-x="928" 
d="M177 1061c65.333 -16.667 98.002 -48 98.002 -94v-16c82.667 73.333 190.334 110 323.001 110c71.333 0 148.666 -18 231.999 -54c28.667 -29.333 43 -57.666 43 -84.999v-7c-11.333 -65.333 -45 -98 -101 -98h-9c-68.667 22 -118.667 33 -150 33h-22
c-134.667 0 -233.334 -70 -296.001 -210c-13.333 -36.667 -20 -79.334 -20 -128.001v-444c0 -54 -33.333 -86.667 -100 -98h-6c-54.667 0 -88.334 34 -101.001 102v874c8 76.667 44.333 115 109 115zM603.002 1537c62.667 0 99.333 -38.665 110 -115.998
c0 -36.667 -64 -112.334 -192 -227.001c-50.667 -62 -94 -93 -130 -93h-15c-66 12.667 -99 46.667 -99 102v16c0 31.333 49.667 91.666 149 180.999c80 91.333 139 137 177 137z" />
    <glyph glyph-name="Rcommaaccent" unicode="&#x156;" horiz-adv-x="995" 
d="M134 1465h315.002c145.333 0 263.666 -76 354.999 -228c30 -59.333 45 -121 45 -185v-15c0 -142.667 -69.333 -259.667 -208 -351l-10 -5c221.333 -382 332 -580 332 -594v-19c0 -54 -33.333 -86.667 -100 -98h-6c-48.667 0 -95.334 48.333 -140.001 145l-301 514h-168
v-561c0 -54 -33.333 -86.667 -100 -98h-6c-55.333 0 -89.333 34.333 -102 103v1280c8 74.667 39.333 112 94 112zM248.002 1261v-425h185c104 0 172.667 56.333 206 169l3 27v28c0 82 -46.667 144.667 -140 188c-26 8.66699 -69 13 -129 13h-125zM466.002 120
c14.667 5.33301 29.667 7.99902 45 7.99902c25.333 0 51.333 -7 78 -21c79.333 -52.667 119 -118 119 -196c0 -112.667 -65.667 -185.334 -197 -218.001l-53 3h-50l-61 -3c-56.667 18.667 -85 48.334 -85 89.001v17c11.333 60 42.333 90 93 90h121c24 0 36 7.33301 36 22v3
c0 10 -13.667 17.667 -41 23c-42 20 -63 47.333 -63 82c0 52.667 19.333 86.334 58 101.001z" />
    <glyph glyph-name="rcommaaccent" unicode="&#x157;" horiz-adv-x="854" 
d="M303 115c14.667 5.33301 29.667 7.99902 45 7.99902c25.333 0 51.333 -7 78 -21c79.333 -52.667 119 -118 119 -196c0 -112.667 -65.667 -185.334 -197 -218.001l-53 3h-50l-61 -3c-56.667 18.667 -85 48.334 -85 89.001v17c11.333 60 42.333 90 93 90h121
c24 0 36 7.33301 36 22v3c0 10 -13.667 17.667 -41 23c-42 20 -63 47.333 -63 82c0 52.667 19.333 86.334 58 101.001zM129 1061c65.333 -16.667 98.002 -48 98.002 -94v-16c82.667 73.333 190.334 110 323.001 110c71.333 0 148.666 -18 231.999 -54
c28.667 -29.333 43 -57.666 43 -84.999v-7c-11.333 -65.333 -45 -98 -101 -98h-9c-68.667 22 -118.667 33 -150 33h-22c-134.667 0 -233.334 -70 -296.001 -210c-13.333 -36.667 -20 -79.334 -20 -128.001v-444c0 -54 -33.333 -86.667 -100 -98h-6
c-54.667 0 -88.334 34 -101.001 102v874c8 76.667 44.333 115 109 115z" />
    <glyph glyph-name="Rcaron" unicode="&#x158;" horiz-adv-x="1003" 
d="M129 1465h315.002c145.333 0 263.666 -76 354.999 -228c30 -59.333 45 -121 45 -185v-15c0 -142.667 -69.333 -259.667 -208 -351l-10 -5c221.333 -382 332 -580 332 -594v-19c0 -54 -33.333 -86.667 -100 -98h-6c-48.667 0 -95.334 48.333 -140.001 145l-301 514h-168
v-561c0 -54 -33.333 -86.667 -100 -98h-6c-55.333 0 -89.333 34.333 -102 103v1280c8 74.667 39.333 112 94 112zM243.002 1261v-425h185c104 0 172.667 56.333 206 169l3 27v28c0 82 -46.667 144.667 -140 188c-26 8.66699 -69 13 -129 13h-125zM388.002 1761
c49.333 66.667 92.668 100 130.001 100h15c66 -14 99 -48 99 -102v-12c0 -31.333 -34 -84.333 -102 -159c-45.333 -66 -88 -99 -128 -99h-28c-42 0 -93.667 45 -155 135c-50 50 -75 91 -75 123v15c14 66 48 99 102 99h12c37.333 0 80.666 -33.333 129.999 -100z" />
    <glyph glyph-name="rcaron" unicode="&#x159;" horiz-adv-x="885" 
d="M147 1061c65.333 -16.667 98.002 -48 98.002 -94v-16c82.667 73.333 190.334 110 323.001 110c71.333 0 148.666 -18 231.999 -54c28.667 -29.333 43 -57.666 43 -84.999v-7c-11.333 -65.333 -45 -98 -101 -98h-9c-68.667 22 -118.667 33 -150 33h-22
c-134.667 0 -233.334 -70 -296.001 -210c-13.333 -36.667 -20 -79.334 -20 -128.001v-444c0 -54 -33.333 -86.667 -100 -98h-6c-54.667 0 -88.334 34 -101.001 102v874c8 76.667 44.333 115 109 115zM433.002 1361c49.333 66.667 92.668 100 130.001 100h15
c66 -14 99 -48 99 -102v-12c0 -31.333 -34 -84.333 -102 -159c-45.333 -66 -88 -99 -128 -99h-28c-42 0 -93.667 45 -155 135c-50 50 -75 91 -75 123v15c14 66 48 99 102 99h12c37.333 0 80.666 -33.333 129.999 -100z" />
    <glyph glyph-name="Sacute" unicode="&#x15a;" horiz-adv-x="929" 
d="M513 1467c134 0 246.334 -61.6689 337.001 -185.002l7 -25v-27c0 -49.333 -33.667 -79.666 -101 -90.999c-30.667 0 -72.334 29.333 -125.001 88c-36.667 23.333 -72 35 -106 35h-23c-72 0 -126.667 -39 -164 -117c-8 -17.333 -12 -34.666 -12 -51.999v-31
c0 -82.667 50 -142.667 150 -180c87.333 0 183 -42 287 -126c100.667 -102 151 -214 151 -336c0 -150 -64.333 -272.667 -193 -368c-78.667 -54.667 -165.667 -82 -261 -82c-154.667 0 -283.667 68 -387 204l-11 43c12.667 68.667 47.334 103 104.001 103
c36 0 77 -29.333 123 -88c55.333 -38 106 -57 152 -57h34c89.333 0 161.666 51 216.999 153c8.66699 32.667 13 57 13 73v38c0 88.667 -51.333 161 -154 217l-195 54c-157.333 90.667 -236 209.334 -236 356.001v27c0 145.333 77 258.666 231 339.999
c58 22.667 112 34 162 34zM618.001 1893c62.667 0 99.333 -38.665 110 -115.998c0 -36.667 -64.333 -112.334 -193 -227.001c-50 -62 -93 -93 -129 -93h-15c-66 12.667 -99 46.667 -99 102v16c0 31.333 49.333 91.666 148 180.999c80.667 91.333 140 137 178 137z" />
    <glyph glyph-name="sacute" unicode="&#x15b;" horiz-adv-x="980" 
d="M612 1474c62.667 0 99.333 -38.665 110 -115.998c0 -36.667 -64 -112.334 -192 -227.001c-50.667 -62 -94 -93 -130 -93h-15c-66 12.667 -99 46.667 -99 102v16c0 31.333 49.667 91.666 149 180.999c80 91.333 139 137 177 137zM743.999 327.002
c-0.666992 13.333 -14.332 21.332 -40.999 23.999c-337.333 75.333 -517.333 123.333 -540 144c-68.667 52 -103 116.333 -103 193c0 104 72.667 202.667 218 296c80 42 159 63 237 63c182.667 0 327 -84.333 433 -253l4 -37v-6c0 -56.667 -34 -90 -102 -100
c-45.333 0 -87.333 32 -126 96c-60.667 59.333 -130.334 89 -209.001 89c-102.667 0 -183 -48 -241 -144l-2 -10c0 -13.333 28.667 -22.333 86 -27c286.667 -69.333 445 -109.666 475 -120.999c82 -54 123 -122.333 123 -205v-3c0 -114 -80.667 -217 -242 -309
c-70 -31.333 -143.667 -47 -221 -47c-160 0 -295 74.667 -405 224c-14 20 -21 39.333 -21 58v22c0 54 36.667 85 110 93c35.333 0 77 -34.333 125 -103c58.667 -54.667 127.334 -82 206.001 -82c93.333 0 170.666 43.667 231.999 131z" />
    <glyph glyph-name="Scircumflex" unicode="&#x15c;" horiz-adv-x="885" 
d="M491 1467c134 0 246.334 -61.6689 337.001 -185.002l7 -25v-27c0 -49.333 -33.667 -79.666 -101 -90.999c-30.667 0 -72.334 29.333 -125.001 88c-36.667 23.333 -72 35 -106 35h-23c-72 0 -126.667 -39 -164 -117c-8 -17.333 -12 -34.666 -12 -51.999v-31
c0 -82.667 50 -142.667 150 -180c87.333 0 183 -42 287 -126c100.667 -102 151 -214 151 -336c0 -150 -64.333 -272.667 -193 -368c-78.667 -54.667 -165.667 -82 -261 -82c-154.667 0 -283.667 68 -387 204l-11 43c12.667 68.667 47.334 103 104.001 103
c36 0 77 -29.333 123 -88c55.333 -38 106 -57 152 -57h34c89.333 0 161.666 51 216.999 153c8.66699 32.667 13 57 13 73v38c0 88.667 -51.333 161 -154 217l-195 54c-157.333 90.667 -236 209.334 -236 356.001v27c0 145.333 77 258.666 231 339.999
c58 22.667 112 34 162 34zM480.001 1564c-50 -67.333 -93.334 -101 -130.001 -101h-15c-66 14 -99 48 -99 102v12c0 33.333 42 95.333 126 186c30 48 64.667 72 104 72h28c42 0 95 -46.333 159 -139c47.333 -47.333 71 -87 71 -119v-15c-14 -66 -48 -99 -102 -99h-12
c-37.333 0 -80.666 33.667 -129.999 101z" />
    <glyph glyph-name="scircumflex" unicode="&#x15d;" horiz-adv-x="969" 
d="M518 1149c-49.333 -66.667 -92.668 -100 -130.001 -100h-15c-66 14 -99 48 -99 102v12c0 33.333 42 95.333 126 186c30 48 64.667 72 104 72h28c42.667 0 95.667 -46.333 159 -139c47.333 -47.333 71 -87 71 -119v-15c-14 -66 -48 -99 -102 -99h-12
c-37.333 0 -80.666 33.333 -129.999 100zM743.998 327c-0.666992 13.333 -14.332 21.332 -40.999 23.999c-337.333 75.333 -517.333 123.333 -540 144c-68.667 52 -103 116.333 -103 193c0 104 72.667 202.667 218 296c80 42 159 63 237 63c182.667 0 327 -84.333 433 -253
l4 -37v-6c0 -56.667 -34 -90 -102 -100c-45.333 0 -87.333 32 -126 96c-60.667 59.333 -130.334 89 -209.001 89c-102.667 0 -183 -48 -241 -144l-2 -10c0 -13.333 28.667 -22.333 86 -27c286.667 -69.333 445 -109.666 475 -120.999c82 -54 123 -122.333 123 -205v-3
c0 -114 -80.667 -217 -242 -309c-70 -31.333 -143.667 -47 -221 -47c-160 0 -295 74.667 -405 224c-14 20 -21 39.333 -21 58v22c0 54 36.667 85 110 93c35.333 0 77 -34.333 125 -103c58.667 -54.667 127.334 -82 206.001 -82c93.333 0 170.666 43.667 231.999 131z" />
    <glyph glyph-name="Scedilla" unicode="&#x15e;" horiz-adv-x="903" 
d="M558 -15c68 -45.333 102.001 -106.669 102.001 -184.002c0 -112.667 -66 -185.334 -198 -218.001l-52 3h-51l-60 -3c-56.667 18.667 -85 48.334 -85 89.001v17c11.333 60 42.333 90 93 90h121c24 0 36 7.33301 36 22v3c0 10 -14 17.667 -42 23
c-41.333 20 -62 47.333 -62 82v66c-114 11.333 -217 77.666 -309 198.999l-11 43c12.667 68.667 47.334 103 104.001 103c36 0 77 -29.333 123 -88c55.333 -38 106 -57 152 -57h34c89.333 0 161.666 51 216.999 153c8.66699 32.667 13 57 13 73v38
c0 88.667 -51.333 161 -154 217l-195 54c-157.333 90.667 -236 209.334 -236 356.001v27c0 145.333 77 258.666 231 339.999c58 22.667 112 34 162 34c134 0 246.333 -61.667 337 -185l7 -25v-27c0 -49.333 -33.667 -79.666 -101 -90.999
c-30.667 0 -72.334 29.333 -125.001 88c-36.667 23.333 -72 35 -106 35h-23c-72 0 -126.667 -39 -164 -117c-8 -17.333 -12 -34.666 -12 -51.999v-31c0 -82.667 50 -142.667 150 -180c87.333 0 183 -42 287 -126c100.667 -102 151 -214 151 -336
c0 -150 -64.333 -272.667 -193 -368c-51.333 -35.333 -98.333 -57.666 -141 -66.999z" />
    <glyph glyph-name="scedilla" unicode="&#x15f;" horiz-adv-x="978" 
d="M748 327c-0.666992 13.333 -14.333 21.333 -41 24c-337.333 75.333 -517.333 123.333 -540 144c-68.667 52 -103 116.333 -103 193c0 104 72.667 202.667 218 296c80 42 159 63 237 63c182.667 0 327 -84.333 433 -253l4 -37v-6c0 -56.667 -34 -90 -102 -100
c-45.333 0 -87.333 32 -126 96c-60.667 59.333 -130.334 89 -209.001 89c-102.667 0 -183 -48 -241 -144l-2 -10c0 -13.333 28.667 -22.333 86 -27c286.667 -69.333 445 -109.666 475 -120.999c82 -54 123 -122.333 123 -205v-3c0 -114 -80.667 -217 -242 -309
c-42 -18.667 -77 -30.334 -105 -35.001v-4c69.333 -46 104 -108 104 -186c0 -112.667 -65.667 -185.334 -197 -218.001l-53 3h-50l-61 -3c-56.667 18.667 -85 48.334 -85 89.001v17c11.333 60 42.333 90 93 90h121c24 0 36 7.33301 36 22v3c0 10 -13.667 17.667 -41 23
c-42 20 -63 47.333 -63 82v76c-119.333 13.333 -227.666 86 -324.999 218c-14 20 -21 39.333 -21 58v22c0 54 36.667 85 110 93c35.333 0 77 -34.333 125 -103c58.667 -54.667 127.334 -82 206.001 -82c93.333 0 170.666 43.667 231.999 131z" />
    <glyph glyph-name="Scaron" unicode="&#x160;" horiz-adv-x="924" 
d="M486 1467c134 0 246.334 -61.6689 337.001 -185.002l7 -25v-27c0 -49.333 -33.667 -79.666 -101 -90.999c-30.667 0 -72.334 29.333 -125.001 88c-36.667 23.333 -72 35 -106 35h-23c-72 0 -126.667 -39 -164 -117c-8 -17.333 -12 -34.666 -12 -51.999v-31
c0 -82.667 50 -142.667 150 -180c87.333 0 183 -42 287 -126c100.667 -102 151 -214 151 -336c0 -150 -64.333 -272.667 -193 -368c-78.667 -54.667 -165.667 -82 -261 -82c-154.667 0 -283.667 68 -387 204l-11 43c12.667 68.667 47.334 103 104.001 103
c36 0 77 -29.333 123 -88c55.333 -38 106 -57 152 -57h34c89.333 0 161.666 51 216.999 153c8.66699 32.667 13 57 13 73v38c0 88.667 -51.333 161 -154 217l-195 54c-157.333 90.667 -236 209.334 -236 356.001v27c0 145.333 77 258.666 231 339.999
c58 22.667 112 34 162 34zM481.001 1751c50 67.333 93.667 101 131 101h15c66 -14 99 -48 99 -102v-12c0 -31.333 -34.333 -84.333 -103 -159c-44.667 -66 -87 -99 -127 -99h-28c-42 0 -93.667 45 -155 135c-50 50 -75 91 -75 123v15c13.333 66 47.333 99 102 99h12
c36.667 0 79.667 -33.667 129 -101z" />
    <glyph glyph-name="scaron" unicode="&#x161;" horiz-adv-x="977" 
d="M512 1374c49.333 66.667 92.668 100 130.001 100h15c66 -14 99 -48 99 -102v-12c0 -31.333 -34 -84.333 -102 -159c-45.333 -66 -88 -99 -128 -99h-28c-42 0 -93.667 45 -155 135c-50 50 -75 91 -75 123v15c14 66 48 99 102 99h12c37.333 0 80.666 -33.333 129.999 -100z
M735.002 327c-0.666992 13.333 -14.332 21.332 -40.999 23.999c-337.333 75.333 -517.333 123.333 -540 144c-68.667 52 -103 116.333 -103 193c0 104 72.667 202.667 218 296c80 42 159 63 237 63c182.667 0 327 -84.333 433 -253l4 -37v-6c0 -56.667 -34 -90 -102 -100
c-45.333 0 -87.333 32 -126 96c-60.667 59.333 -130.334 89 -209.001 89c-102.667 0 -183 -48 -241 -144l-2 -10c0 -13.333 28.667 -22.333 86 -27c286.667 -69.333 445 -109.666 475 -120.999c82 -54 123 -122.333 123 -205v-3c0 -114 -80.667 -217 -242 -309
c-70 -31.333 -143.667 -47 -221 -47c-160 0 -295 74.667 -405 224c-14 20 -21 39.333 -21 58v22c0 54 36.667 85 110 93c35.333 0 77 -34.333 125 -103c58.667 -54.667 127.334 -82 206.001 -82c93.333 0 170.666 43.667 231.999 131z" />
    <glyph glyph-name="Tcommaaccent" unicode="&#x162;" horiz-adv-x="1219" 
d="M138 1466h936c63.333 -12 95 -44.667 95 -98v-15c0 -54.667 -37 -86 -111 -94h-348v-1191c0 -54 -33.333 -86.667 -100 -98h-5c-55.333 0 -89.333 34.333 -102 103v1186h-356c-68.667 13.333 -103 49.333 -103 108c14.667 66 46 99 94 99zM563 -43h28
c72 0 119.333 -56.667 142 -170v-15c0 -64.667 -54 -124 -162 -178c-24 -8 -43.667 -12 -59 -12c-20.667 4.66699 -39 15.667 -55 33v28c40 58 60 102.667 60 134v7c0 17.333 -16 42.333 -48 75v29c16 46 47.333 69 94 69z" />
    <glyph glyph-name="tcommaaccent" unicode="&#x163;" horiz-adv-x="730" 
d="M422 -27h28c72 0 119.333 -56.667 142 -170v-15c0 -64.667 -54 -124 -162 -178c-24 -8 -43.667 -12 -59 -12c-20.667 4.66699 -39 15.667 -55 33v28c40 58 60 102.667 60 134v7c0 17.333 -16 42.333 -48 75v29c16 46 47.333 69 94 69zM322 1420l16.998 0.000976562
c62 -13.333 93 -43 93 -89v-300h119l33 4c51.333 0 85 -33.333 101 -100c0 -50 -29.333 -85.667 -88 -107l-60 4h-105v-509c0 -80 22.667 -127.667 68 -143l79 -7h40c48.667 0 79.334 -32.333 92.001 -97v-9c-11.333 -64.667 -44.666 -97 -99.999 -97h-77
c-129.333 0 -225.333 70 -288 210c-11.333 35.333 -17 75.666 -17 120.999v531h-42l-64 -4c-58.667 20.667 -88 56 -88 106c11.333 64.667 33.333 97 66 97v7l69 -7h59v280c8 72.667 39 109 93 109z" />
    </font>
</defs>
</svg>
