<?xml version="1.0" standalone="no"?>
<!DOCTYPE svg PUBLIC "-//W3C//DTD SVG 1.1//EN" "http://www.w3.org/Graphics/SVG/1.1/DTD/svg11.dtd" >
<svg>
<metadata>
Created by FontForge 20090914 at Thu Feb 28 04:41:09 2019
 By www-data
&#194;&#169; 2016, Copyright by Lineto. All rights reserved.
</metadata>
<defs>
<font id="GuildCircular-Medium" horiz-adv-x="578" >
  <font-face 
    font-family="Guild Circular Medium"
    font-weight="500"
    font-stretch="normal"
    units-per-em="1000"
    panose-1="2 11 6 4 2 1 1 1 1 2"
    ascent="750"
    descent="-250"
    x-height="487"
    cap-height="709"
    bbox="-199 -240 1540 1032"
    underline-thickness="50"
    underline-position="-100"
    unicode-range="U+000D-U+FEFF"
  />
<missing-glyph horiz-adv-x="242" 
 />
    <glyph glyph-name="f_f" unicode="ff" horiz-adv-x="683" 
d="M622 625c-18.667 0 -35.3301 -5.66699 -49.9971 -17s-22 -30.333 -22 -57v-64h113v-101h-113v-386h-117v386h-203v-386h-117v386h-85v101h85v67c0 54 15.667 96.667 47 128s72.333 47 123 47c27.333 0 47.666 -3.33301 60.999 -10v-99c-12 3.33301 -26 5 -42 5
c-18.667 0 -35.334 -5.66699 -50.001 -17s-22 -30.333 -22 -57v-64h203v67c0 54 15.667 96.667 47 128s72.333 47 123 47c27.333 0 47.666 -3.33301 60.999 -10v-99c-12 3.33301 -26 5 -42 5z" />
    <glyph glyph-name="f_f_i" unicode="ffi" horiz-adv-x="948" 
d="M743 659c0 20.667 7.33301 38.5 22 53.5s32.334 22.5 53.001 22.5c21.333 0 39.333 -7.5 54 -22.5s22 -32.833 22 -53.5s-7.5 -38.334 -22.5 -53.001s-32.833 -22 -53.5 -22s-38.334 7.33301 -53.001 22s-22 32.334 -22 53.001zM622 625
c-18.667 0 -35.332 -5.66699 -49.999 -17s-22 -30.333 -22 -57v-64h326v-487h-115v386h-211v-386h-117v386h-203v-386h-117v386h-85v101h85v67c0 54 15.667 96.667 47 128s72.333 47 123 47c27.333 0 47.666 -3.33301 60.999 -10v-99c-12 3.33301 -26 5 -42 5
c-19.333 0 -36.166 -5.5 -50.499 -16.5s-21.5 -30.167 -21.5 -57.5v-64h203v67c0 54 15.667 96.667 47 128s72.333 47 123 47c27.333 0 47.666 -3.33301 60.999 -10v-99c-12 3.33301 -26 5 -42 5z" />
    <glyph glyph-name="f_f_l" unicode="ffl" horiz-adv-x="948" 
d="M622 625c-18.667 0 -35.3301 -5.66699 -49.9971 -17s-22 -30.333 -22 -57v-64h211v237h115v-724h-115v386h-211v-386h-117v386h-203v-386h-117v386h-85v101h85v67c0 54 15.667 96.667 47 128s72.333 47 123 47c27.333 0 47.666 -3.33301 60.999 -10v-99
c-12 3.33301 -26 5 -42 5c-18.667 0 -35.334 -5.66699 -50.001 -17s-22 -30.333 -22 -57v-64h203v67c0 54 15.667 96.667 47 128s72.333 47 123 47c27.333 0 47.666 -3.33301 60.999 -10v-99c-12 3.33301 -26 5 -42 5z" />
    <glyph glyph-name="f_i" unicode="fi" horiz-adv-x="627" 
d="M283 729c27.333 0 47.668 -3.33301 61.001 -10v-99c-12 3.33301 -26 5 -42 5c-18.667 0 -35.334 -5.66699 -50.001 -17s-22 -30.333 -22 -57v-64h324v-487h-114v386h-210v-386h-117v386h-85v101h85v67c0 54 15.667 96.667 47 128s72.333 47 123 47zM422.002 659
c0 21.333 7.33301 39.333 22 54s32.334 22 53.001 22s38.5 -7.5 53.5 -22.5s22.5 -32.833 22.5 -53.5s-7.5 -38.334 -22.5 -53.001s-32.833 -22 -53.5 -22s-38.334 7.33301 -53.001 22s-22 32.334 -22 53.001z" />
    <glyph glyph-name="f_l" unicode="fl" horiz-adv-x="625" 
d="M302 625c-18.667 0 -35.332 -5.66699 -49.999 -17s-22 -30.333 -22 -57v-64h208v237h115v-724h-115v386h-208v-386h-117v386h-85v101h85v67c0 54 15.667 96.667 47 128s72.333 47 123 47c27.333 0 47.666 -3.33301 60.999 -10v-99c-12 3.33301 -26 5 -42 5z" />
    <glyph glyph-name=".notdef" horiz-adv-x="242" 
 />
    <glyph glyph-name=".null" horiz-adv-x="0" 
 />
    <glyph glyph-name=".null" horiz-adv-x="0" 
 />
    <glyph glyph-name="uni000D" unicode="&#xd;" horiz-adv-x="242" 
 />
    <glyph glyph-name="space" unicode=" " horiz-adv-x="242" 
 />
    <glyph glyph-name="exclam" unicode="!" horiz-adv-x="264" 
d="M202 709l-28 -499h-84l-29 499h141zM59 66c0 20 7 37.333 21 52s31 22 51 22c20.667 0 38.167 -7.33301 52.5 -22s21.5 -32 21.5 -52s-7.16699 -37.167 -21.5 -51.5s-31.833 -21.5 -52.5 -21.5c-20 0 -37 7.16699 -51 21.5s-21 31.5 -21 51.5z" />
    <glyph glyph-name="quotedbl" unicode="&#x22;" horiz-adv-x="406" 
d="M45 651c0 20 6.5 36.667 19.5 50s29.5 20 49.5 20c19.333 0 35.5 -6.66699 48.5 -20s19.5 -30 19.5 -50c0 -4.66699 -1 -12 -3 -22l-45 -186h-42l-44 185c-2 10 -3 17.667 -3 23zM224 651c0 20 6.5 36.667 19.5 50s29.5 20 49.5 20s36.333 -6.66699 49 -20s19 -30 19 -50
c0 -8 -0.666992 -15.333 -2 -22l-45 -186h-42l-44 185c-2.66699 13.333 -4 21 -4 23z" />
    <glyph glyph-name="numbersign" unicode="#" horiz-adv-x="730" 
d="M412 262l35 169h-138l-34 -169h137zM361 0l35 175h-138l-34 -175h-96l34 175h-127v87h143l35 169h-129v87h144l39 191h96l-39 -191h138l38 191h98l-38 -191h135v-87h-152l-33 -169h135v-87h-152l-34 -175h-98z" />
    <glyph glyph-name="dollar" unicode="$" 
d="M344 -115l-92.001 0.000976562v118c-66.667 8.66699 -118.667 33.167 -156 73.5s-58.666 85.833 -63.999 136.5l106 28c4 -39.333 19.667 -72.333 47 -99s65.333 -40 114 -40c38.667 0 69 9 91 27s33 41 33 69c0 23.333 -8 43 -24 59s-38.667 27 -68 33l-101 21
c-53.333 10.667 -95.333 32.667 -126 66s-46 74.666 -46 123.999c0 52.667 18.5 98 55.5 136s83.167 61 138.5 69v119h92v-120c54 -8 96.167 -28.333 126.5 -61s49.833 -70 58.5 -112l-104 -31c-5.33301 28 -19 52.333 -41 73s-53.333 31 -94 31
c-34 0 -62.167 -9.16699 -84.5 -27.5s-33.5 -40.833 -33.5 -67.5c0 -46.667 27.333 -76 82 -88l99 -20c59.333 -12 105.333 -35.5 138 -70.5s49 -76.833 49 -125.5c0 -50 -17.5 -94.167 -52.5 -132.5s-82.833 -61.833 -143.5 -70.5v-118z" />
    <glyph glyph-name="percent" unicode="%" horiz-adv-x="835" 
d="M240 0h-107l461 709h106zM359 559c0 -45.333 -16 -83.5 -48 -114.5s-70.667 -46.5 -116 -46.5c-44.667 0 -83 15.5 -115 46.5s-48 69.167 -48 114.5c0 44.667 16 82.5 48 113.5s70.333 46.5 115 46.5s83.167 -15.5 115.5 -46.5s48.5 -68.833 48.5 -113.5zM124 559
c0 -22 6.83301 -39.833 20.5 -53.5s30.5 -20.5 50.5 -20.5c20.667 0 37.667 6.83301 51 20.5s20 31.5 20 53.5c0 20.667 -6.66699 37.834 -20 51.501s-30.333 20.5 -51 20.5c-20 0 -36.833 -6.83301 -50.5 -20.5s-20.5 -30.834 -20.5 -51.501zM475 151
c0 44.667 16.166 82.5 48.499 113.5s70.833 46.5 115.5 46.5s83.167 -15.5 115.5 -46.5s48.5 -68.833 48.5 -113.5c0 -45.333 -16.167 -83.5 -48.5 -114.5s-71.166 -46.5 -116.499 -46.5c-44.667 0 -83 15.5 -115 46.5s-48 69.167 -48 114.5zM708.999 151
c0 20.667 -6.66699 38 -20 52s-30 21 -50 21s-36.833 -7 -50.5 -21s-20.5 -31.333 -20.5 -52c0 -22 6.83301 -39.833 20.5 -53.5s30.5 -20.5 50.5 -20.5s36.667 7 50 21s20 31.667 20 53z" />
    <glyph glyph-name="ampersand" unicode="&#x26;" horiz-adv-x="694" 
d="M530 0l-80 84c-60 -64.667 -124.667 -97 -194 -97c-65.333 0 -116.833 18.5 -154.5 55.5s-56.5 80.5 -56.5 130.5c0 42 10 77.333 30 106s51 58.667 93 90l7 5l-12 13c-54 55.333 -81 107.333 -81 156c0 55.333 19.167 99.333 57.5 132s82.5 49 132.5 49
c56 0 102.333 -16.167 139 -48.5s55 -74.833 55 -127.5c0 -56 -33.333 -109.333 -100 -160l-31 -23l118 -123l169 182v-150l-97 -107l160 -167h-155zM258 92c37.333 0 76.667 22.333 118 67l1 1l-131 139l-24 -18c-38.667 -28.667 -58 -62 -58 -100
c0 -23.333 8.66699 -44 26 -62s40 -27 68 -27zM196.001 550c0 -25.333 15.667 -55 47 -89l20 -22l41 30c32 24 48 51 48 81c0 21.333 -7.5 39.333 -22.5 54s-33.833 22 -56.5 22c-20.667 0 -38.667 -6.66699 -54 -20s-23 -32 -23 -56z" />
    <glyph glyph-name="quotesingle" unicode="'" horiz-adv-x="226" 
d="M45 651c0 20 6.5 36.667 19.5 50s29.5 20 49.5 20c19.333 0 35.5 -6.66699 48.5 -20s19.5 -30 19.5 -50c0 -4.66699 -1 -12 -3 -22l-45 -186h-42l-44 185c-2 10 -3 17.667 -3 23z" />
    <glyph glyph-name="parenleft" unicode="(" horiz-adv-x="325" 
d="M43 320c0 191.333 67 354 201 488l68 -62c-114 -124.667 -171 -266.667 -171 -426c0 -160 57 -302.333 171 -427l-68 -61c-134 134 -201 296.667 -201 488z" />
    <glyph glyph-name="parenright" unicode=")" horiz-adv-x="325" 
d="M282 320c0 -192.667 -67 -355.332 -201 -487.999l-68 61c114 124 171 266.333 171 427c0 160 -57 302 -171 426l68 62c134 -132.667 201 -295.334 201 -488.001z" />
    <glyph glyph-name="asterisk" unicode="*" horiz-adv-x="464" 
d="M279 709v-130l119 40l29 -86l-121 -40l78 -102l-73 -54l-80 105l-75 -104l-74 54l76 101l-121 40l29 86l119 -41v131h94z" />
    <glyph glyph-name="plus" unicode="+" horiz-adv-x="552" 
d="M325 592v-195h189v-96h-189v-197h-99v197h-188v96h188v195h99z" />
    <glyph glyph-name="comma" unicode="," horiz-adv-x="276" 
d="M51 73c0 21.333 7.99902 39.333 23.999 54s35.667 22 59 22c26.667 0 48.5 -9.66699 65.5 -29s25.5 -45 25.5 -77c0 -63.333 -16.833 -112.5 -50.5 -147.5s-71.167 -55.167 -112.5 -60.5v59c23.333 5.33301 43.833 18.333 61.5 39s26.834 43.667 27.501 69
c-6.66699 -3.33301 -14.667 -5 -24 -5c-22 0 -40.167 7 -54.5 21s-21.5 32.333 -21.5 55z" />
    <glyph glyph-name="hyphen" unicode="-" horiz-adv-x="410" 
d="M346 241h-282v103h282v-103z" />
    <glyph glyph-name="period" unicode="." horiz-adv-x="265" 
d="M51 75c0 22.667 7.83301 42 23.5 58s34.834 24 57.501 24s42 -8 58 -24s24 -35.333 24 -58s-8 -41.834 -24 -57.501s-35.333 -23.5 -58 -23.5s-41.834 7.83301 -57.501 23.5s-23.5 34.834 -23.5 57.501z" />
    <glyph glyph-name="slash" unicode="/" horiz-adv-x="503" 
d="M478 709l-345 -709h-107l345 709h107z" />
    <glyph glyph-name="zero" unicode="0" horiz-adv-x="669" 
d="M50 354c0 108.667 21 193.667 63 255c51.333 76.667 125 115 221 115c96.667 0 170.667 -38.333 222 -115c42 -62.667 63 -147.667 63 -255c0 -106.667 -21 -191.334 -63 -254.001c-50.667 -76.667 -124.667 -115 -222 -115c-96 0 -169.667 38.333 -221 115
c-42 62.667 -63 147.334 -63 254.001zM168 354c0 -101.333 18.333 -172.668 55 -214.001c28.667 -33.333 65.667 -50 111 -50s82.333 16.667 111 50c36.667 42.667 55 114 55 214s-18.333 171.333 -55 214c-28.667 33.333 -65.667 50 -111 50s-82.333 -16.667 -111 -50
c-36.667 -41.333 -55 -112.666 -55 -213.999z" />
    <glyph glyph-name="one" unicode="1" horiz-adv-x="383" 
d="M312 0h-118v493h-171v83c49.333 1.33301 90.5 14.333 123.5 39s53.167 56 60.5 94h105v-709z" />
    <glyph glyph-name="two" unicode="2" horiz-adv-x="598" 
d="M171 447l-117 11c-2 10 -3 21.667 -3 35c0 64 22.5 118.5 67.5 163.5s105.5 67.5 181.5 67.5c74 0 133 -21.167 177 -63.5s66 -94.5 66 -156.5c0 -90.667 -44.667 -163.667 -134 -219l-139 -88c-44 -27.333 -70 -57 -78 -89h355v-108h-503
c1.33301 61.333 14.833 115.166 40.5 161.499s68.167 88.166 127.5 125.499l117 75c62 38.667 93 85.334 93 140.001c0 32.667 -10.833 60.334 -32.5 83.001s-52.5 34 -92.5 34c-42 0 -74 -12.833 -96 -38.5s-33 -58.5 -33 -98.5c0 -3.33301 0.166992 -6.83301 0.5 -10.5
s0.833008 -8 1.5 -13s1 -8.83301 1 -11.5z" />
    <glyph glyph-name="three" unicode="3" horiz-adv-x="616" 
d="M247 325l-57 93.999l202 183h-330v107h486v-103l-197 -177c57.333 -1.33301 107.5 -21 150.5 -59s64.5 -90.333 64.5 -157c0 -63.333 -23.5 -117.166 -70.5 -161.499s-110.5 -66.5 -190.5 -66.5c-78 0 -140.833 21.667 -188.5 65s-73.5 96 -77.5 158l117 25
c2 -43.333 16.833 -78.333 44.5 -105s62.167 -40 103.5 -40c44 0 78.5 12 103.5 36s37.5 53.667 37.5 89c0 40.667 -13.5 71.667 -40.5 93s-58.833 32 -95.5 32c-22 0 -42.667 -4.33301 -62 -13z" />
    <glyph glyph-name="four" unicode="4" horiz-adv-x="637" 
d="M29 157v133l301 419h159v-445h119v-107h-119v-157h-117v157h-343zM372 264v327l-235 -327h235z" />
    <glyph glyph-name="five" unicode="5" horiz-adv-x="600" 
d="M31 196l114.003 30.001c3.33301 -40.667 18.666 -73.834 45.999 -99.501s62 -38.5 104 -38.5c40.667 0 74.667 12.5 102 37.5s41 57.5 41 97.5c0 44 -13.833 78 -41.5 102s-61.834 36 -102.501 36c-50.667 0 -91.667 -16.667 -123 -50l-115 43l90 355h380v-107h-300
l-48 -190c31.333 33.333 77.666 50 138.999 50c71.333 0 129.333 -21 174 -63s67 -99.333 67 -172c0 -68 -24.167 -125.333 -72.5 -172s-111.833 -70 -190.5 -70c-73.333 0 -134.333 20.667 -183 62s-75.667 91 -81 149z" />
    <glyph glyph-name="six" unicode="6" horiz-adv-x="633" 
d="M571 686l-34 -97.002c-38.667 19.333 -80 29 -124 29c-69.333 0 -126.166 -21.833 -170.499 -65.5s-69.166 -101.167 -74.499 -172.5c15.333 24.667 38.833 45.334 70.5 62.001s69.167 25 112.5 25c72 0 130.167 -21.333 174.5 -64s66.5 -101 66.5 -175
c0 -72.667 -25.5 -131.334 -76.5 -176.001s-113.833 -67 -188.5 -67c-36.667 0 -71.334 6.5 -104.001 19.5s-62.167 32.333 -88.5 58s-47.333 59.834 -63 102.501s-23.5 91.334 -23.5 146.001c0 127.333 34.667 228 104 302s158.666 111 267.999 111
c64.667 0 115 -12.667 151 -38zM183 226.998c0 -42 14.332 -75.833 42.999 -101.5s62.334 -38.5 101.001 -38.5c40.667 0 75 12.667 103 38s42 59.333 42 102s-14 76.667 -42 102s-62.333 38 -103 38c-40 0 -74 -12.667 -102 -38s-42 -59.333 -42 -102z" />
    <glyph glyph-name="seven" unicode="7" horiz-adv-x="561" 
d="M547 709l-0.00292969 -109.002c-17.333 -14 -34.666 -29.333 -51.999 -46s-40.166 -43.5 -68.499 -80.5s-53.333 -76.167 -75 -117.5s-42.167 -93.666 -61.5 -156.999s-32 -129.666 -38 -198.999h-124c6 75.333 19.833 147.333 41.5 216s45.834 125.5 72.501 170.5
s53 84.5 79 118.5s47.667 58.667 65 74l26 23h-388v107h523z" />
    <glyph glyph-name="eight" unicode="8" horiz-adv-x="617" 
d="M308 -15c-78.667 0 -141.501 19.1699 -188.501 57.5029s-70.5 86.833 -70.5 145.5c0 40.667 12.167 76.667 36.5 108s55.833 53.666 94.5 66.999c-32.667 12 -59.667 33 -81 63s-32 63 -32 99c0 58 22.833 105.667 68.5 143s103.167 56 172.5 56
c70 0 128 -18.667 174 -56s69 -85 69 -143c0 -36 -10.667 -69 -32 -99s-49 -51 -83 -63c38.667 -12.667 70.334 -34.834 95.001 -66.501s37 -67.834 37 -108.501c0 -58.667 -23.333 -107.167 -70 -145.5s-110 -57.5 -190 -57.5zM307.999 409.003
c36.667 1.33301 66.333 12 89 32s34 46 34 78c0 30 -11.167 55.167 -33.5 75.5s-52.166 30.5 -89.499 30.5c-36.667 0 -66.334 -10.167 -89.001 -30.5s-34 -45.5 -34 -75.5c0 -32 11.5 -58 34.5 -78s52.5 -30.667 88.5 -32zM307.998 86.0029
c43.333 0 77.5 10.833 102.5 32.5s37.5 48.5 37.5 80.5c0 32.667 -12.5 60 -37.5 82s-59.167 33 -102.5 33s-77.333 -11 -102 -33s-37 -49.333 -37 -82c0 -32 12.333 -58.833 37 -80.5s58.667 -32.5 102 -32.5z" />
    <glyph glyph-name="nine" unicode="9" horiz-adv-x="631" 
d="M447 482c0 40.667 -14.3311 73.8311 -42.998 99.498s-62.334 38.5 -101.001 38.5c-39.333 0 -73 -12.667 -101 -38s-42 -58.666 -42 -99.999c0 -43.333 13.833 -77.666 41.5 -102.999s61.5 -38 101.5 -38c39.333 0 73.166 13 101.499 39s42.5 60 42.5 102z
M60.002 24.9971l35.002 98.001c37.333 -21.333 80 -32 128 -32c76.667 0 135 21.333 175 64s61.333 99.667 64 171c-14 -24.667 -36.333 -45.167 -67 -61.5s-67.334 -24.5 -110.001 -24.5c-66 0 -123.167 21.5 -171.5 64.5s-72.5 101.167 -72.5 174.5
c0 71.333 25.667 130 77 176s113.333 69 186 69c78 0 143.833 -28.167 197.5 -84.5s80.5 -137.5 80.5 -243.5c0 -130.667 -30.333 -231.834 -91 -303.501s-149.667 -107.5 -267 -107.5c-28.667 0 -58.834 3.83301 -90.501 11.5s-56.167 17.167 -73.5 28.5z" />
    <glyph glyph-name="colon" unicode=":" horiz-adv-x="289" 
d="M63 74c0 22.667 7.83301 41.834 23.5 57.501s34.834 23.5 57.501 23.5c22 0 41 -7.83301 57 -23.5s24 -34.834 24 -57.501c0 -22 -8 -40.833 -24 -56.5s-35 -23.5 -57 -23.5c-22.667 0 -41.834 7.83301 -57.501 23.5s-23.5 34.5 -23.5 56.5zM62 412
c0 22.667 7.83301 41.834 23.5 57.501s34.834 23.5 57.501 23.5c22 0 41 -7.83301 57 -23.5s24 -34.834 24 -57.501c0 -22 -8 -40.833 -24 -56.5s-35 -23.5 -57 -23.5c-22.667 0 -41.834 7.83301 -57.501 23.5s-23.5 34.5 -23.5 56.5z" />
    <glyph glyph-name="semicolon" unicode=";" horiz-adv-x="289" 
d="M59 69c0 20 7.66602 37.167 22.999 51.5s34 21.5 56 21.5c26 0 47 -9.33301 63 -28s24 -43 24 -73c0 -60 -16 -106.667 -48 -140s-67.667 -52.666 -107 -57.999v56c22.667 5.33301 42.167 17.833 58.5 37.5s24.833 41.5 25.5 65.5
c-5.33301 -3.33301 -12.666 -5 -21.999 -5c-21.333 0 -38.833 6.66699 -52.5 20s-20.5 30.666 -20.5 51.999zM57.999 412c0 22.667 7.83301 41.834 23.5 57.501s34.834 23.5 57.501 23.5c22 0 41 -7.83301 57 -23.5s24 -34.834 24 -57.501c0 -22 -8 -40.833 -24 -56.5
s-35 -23.5 -57 -23.5c-22.667 0 -41.834 7.83301 -57.501 23.5s-23.5 34.5 -23.5 56.5z" />
    <glyph glyph-name="less" unicode="&#x3c;" horiz-adv-x="526" 
d="M155 350l301 -148v-112l-422 211v94l422 213v-112z" />
    <glyph glyph-name="equal" unicode="=" horiz-adv-x="605" 
d="M540 401h-475v94h475v-94zM540 203h-475v96h475v-96z" />
    <glyph glyph-name="greater" unicode="&#x3e;" horiz-adv-x="528" 
d="M70 201l303 147l-303 148v112l423 -213v-93l-423 -212v111z" />
    <glyph glyph-name="question" unicode="?" horiz-adv-x="520" 
d="M295 210l-100 0.00195312c-1.33301 17.333 -2 30 -2 38c0 61.333 27 111.666 81 150.999l46 33c31.333 22.667 47 51.667 47 87c0 28 -9.33301 51.833 -28 71.5s-45.334 29.5 -80.001 29.5c-35.333 0 -63 -11.333 -83 -34s-30 -49.334 -30 -80.001
c0 -18.667 2 -33.667 6 -45l-113 8c-4 14 -6 29.333 -6 46c0 54.667 20 103.167 60 145.5s95.333 63.5 166 63.5s126.334 -19.667 167.001 -59s61 -86.333 61 -141c0 -70 -33.333 -128.667 -100 -176l-43 -30c-33.333 -23.333 -50 -55 -50 -95c0 -4.66699 0.333008 -9 1 -13
zM173 66.002c0 20 7.16699 37.333 21.5 52s31.5 22 51.5 22s37.167 -7.33301 51.5 -22s21.5 -32 21.5 -52s-7.16699 -37.167 -21.5 -51.5s-31.5 -21.5 -51.5 -21.5c-20.667 0 -38 7.16699 -52 21.5s-21 31.5 -21 51.5z" />
    <glyph glyph-name="at" unicode="@" horiz-adv-x="830" 
d="M599 138c-25.333 0 -46.6689 5.49805 -64.002 16.498s-28.666 26.167 -33.999 45.5c-13.333 -20.667 -30.5 -36.5 -51.5 -47.5s-42.833 -16.5 -65.5 -16.5c-44 0 -80.333 16 -109 48s-43 73.333 -43 124c0 65.333 19.333 119.833 58 163.5s85.334 65.5 140.001 65.5
c22 0 42.5 -5.16699 61.5 -15.5s32.167 -25.5 39.5 -45.5l9 48h88l-53 -248c-2 -10 -3 -17 -3 -21c0 -25.333 11.333 -38 34 -38c26.667 0 50.5 17.667 71.5 53s31.5 77.333 31.5 126c0 72 -25 131 -75 177s-115 69 -195 69c-86.667 0 -158.334 -28.667 -215.001 -86
s-85 -132 -85 -224c0 -87.333 27.833 -158.833 83.5 -214.5s130.834 -83.5 225.501 -83.5c72.667 0 137 21.333 193 64l45 -61c-27.333 -25.333 -63.333 -45.666 -108 -60.999s-88 -23 -130 -23c-118 0 -214.333 35 -289 105s-112 161.333 -112 274
c0 114.667 37.833 208.667 113.5 282s168.167 110 277.5 110c102 0 187.167 -31.167 255.5 -93.5s102.5 -140.166 102.5 -233.499c0 -74 -19.5 -135.5 -58.5 -184.5s-85.167 -73.833 -138.5 -74.5zM508.997 367.998c0 26.667 -6.50098 47.5 -19.501 62.5
s-31.5 22.5 -55.5 22.5c-32.667 0 -59 -14.167 -79 -42.5s-30 -60.166 -30 -95.499c0 -28.667 6.33301 -51.834 19 -69.501s32 -26.5 58 -26.5c30.667 0 55.834 14 75.501 42s30.167 63.667 31.5 107z" />
    <glyph glyph-name="A" unicode="A" horiz-adv-x="717" 
d="M573 0l-67 178h-300l-66 -178h-127l276 709h139l276 -709h-131zM356 579l-108 -290h216z" />
    <glyph glyph-name="B" unicode="B" horiz-adv-x="619" 
d="M89 709h243.998c66.667 0 119.334 -17.667 158.001 -53s58 -81.333 58 -138c0 -36.667 -9.66699 -68.5 -29 -95.5s-44.666 -46.167 -75.999 -57.5c38 -10 68.667 -30.333 92 -61s35 -66.667 35 -108c0 -57.333 -20.333 -104.333 -61 -141s-93.667 -55 -159 -55h-262v709z
M207.998 409l109 -0.000976562c34.667 0 62 9 82 27s30 42 30 72c0 30.667 -10.167 54.834 -30.5 72.501s-48.5 26.5 -84.5 26.5h-106v-198zM207.998 101.999l122 0.000976562c36 0 64.833 9.16699 86.5 27.5s32.5 43.166 32.5 74.499s-10.167 56.5 -30.5 75.5
s-48.5 28.5 -84.5 28.5h-126v-206z" />
    <glyph glyph-name="C" unicode="C" horiz-adv-x="751" 
d="M402 -15c-99.333 0 -183.834 33.668 -253.501 101.001s-104.5 156.666 -104.5 267.999c0 110.667 35.333 200 106 268s154.334 102 251.001 102c85.333 0 155.5 -21.667 210.5 -65s91.167 -98.333 108.5 -165l-113 -38c-11.333 46 -34.333 83.333 -69 112
s-80.334 43 -137.001 43c-63.333 0 -118.166 -22.5 -164.499 -67.5s-69.5 -108.167 -69.5 -189.5c0 -79.333 23 -141.5 69 -186.5s101.333 -67.5 166 -67.5c55.333 0 101 15 137 45s60.667 67 74 111l110 -36c-17.333 -66 -53.833 -121.667 -109.5 -167
s-126.167 -68 -211.5 -68z" />
    <glyph glyph-name="D" unicode="D" horiz-adv-x="731" 
d="M209 110h126.001c65.333 0 119.166 20.833 161.499 62.5s63.5 101.834 63.5 180.501c0 79.333 -21 140.166 -63 182.499s-95.667 63.5 -161 63.5h-127v-489zM339.001 0h-250v709h251c100 0 182.5 -31.667 247.5 -95s97.5 -150.333 97.5 -261
c0 -110 -32.667 -196.333 -98 -259s-148 -94 -248 -94z" />
    <glyph glyph-name="E" unicode="E" horiz-adv-x="580" 
d="M527 0h-438v709h438v-112h-318v-188h288v-109h-288v-188h318v-112z" />
    <glyph glyph-name="F" unicode="F" horiz-adv-x="571" 
d="M209 0h-120v709h441v-113h-321v-199h288v-111h-288v-286z" />
    <glyph glyph-name="G" unicode="G" horiz-adv-x="777" 
d="M717 0l-96.999 0.000976562l-9 90c-17.333 -29.333 -44.666 -54.166 -81.999 -74.499s-82.333 -30.5 -135 -30.5c-96.667 0 -179 33.5 -247 100.5s-102 156.833 -102 269.5c0 74.667 17.167 140.667 51.5 198s78.166 100.166 131.499 128.499s111.333 42.5 174 42.5
c82 0 150.833 -20.333 206.5 -61s93.5 -92.334 113.5 -155.001l-113 -43c-12.667 42.667 -37 78 -73 106s-80.667 42 -134 42c-63.333 0 -118.333 -22.333 -165 -67s-70 -108.334 -70 -191.001c0 -82 22.667 -145.833 68 -191.5s100.666 -68.5 165.999 -68.5
c64 0 112.833 16.833 146.5 50.5s52.5 69.834 56.5 108.501h-234v105h347v-359z" />
    <glyph glyph-name="H" unicode="H" horiz-adv-x="752" 
d="M663 0h-121v303h-333v-303h-120v709h120v-293h333v293h121v-709z" />
    <glyph glyph-name="I" unicode="I" horiz-adv-x="300" 
d="M211 0h-122v709h122v-709z" />
    <glyph glyph-name="J" unicode="J" horiz-adv-x="556" 
d="M24 214v46.001l117 24v-66c0 -40 10 -70 30 -90s46.333 -30 79 -30c32 0 57.333 10.167 76 30.5s28 48.5 28 84.5v496h120v-493c0 -64.667 -20.667 -119.334 -62 -164.001s-95 -67 -161 -67c-69.333 0 -124.5 20.833 -165.5 62.5s-61.5 97.167 -61.5 166.5z" />
    <glyph glyph-name="K" unicode="K" horiz-adv-x="677" 
d="M524 0l-221 307l-94 -103v-204h-120v709h120v-340l305 340h158l-287 -313l290 -396h-151z" />
    <glyph glyph-name="L" unicode="L" horiz-adv-x="551" 
d="M534 0h-445v709h120v-595h325v-114z" />
    <glyph glyph-name="M" unicode="M" horiz-adv-x="958" 
d="M869 0h-119v522l-221 -522h-104l-219 520v-520h-117v709h160l230 -541l227 541h163v-709z" />
    <glyph glyph-name="N" unicode="N" horiz-adv-x="773" 
d="M684 0h-125l-350 537v-537h-120v709h153l322 -503v503h120v-709z" />
    <glyph glyph-name="O" unicode="O" horiz-adv-x="809" 
d="M167 355c0 -80.667 23.333 -143.5 70 -188.5s102.334 -67.5 167.001 -67.5s120.5 22.5 167.5 67.5s70.5 107.833 70.5 188.5s-23.5 143.5 -70.5 188.5s-102.833 67.5 -167.5 67.5s-120.334 -22.5 -167.001 -67.5s-70 -107.833 -70 -188.5zM44 355
c0 74.667 17.167 140.5 51.5 197.5s78.5 99.833 132.5 128.5s112.667 43 176 43s122 -14.333 176 -43s98.333 -71.5 133 -128.5s52 -122.833 52 -197.5s-17.333 -140.667 -52 -198s-79 -100.333 -133 -129s-112.667 -43 -176 -43s-122 14.333 -176 43
s-98.167 71.667 -132.5 129s-51.5 123.333 -51.5 198z" />
    <glyph glyph-name="P" unicode="P" horiz-adv-x="605" 
d="M209 383h125c38 0 67.833 9.83301 89.5 29.5s32.5 46.167 32.5 79.5c0 34 -10.833 61 -32.5 81s-51.5 30 -89.5 30h-125v-220zM352 277h-143v-277h-120v709h263c67.333 0 121.833 -20.333 163.5 -61s62.5 -92.334 62.5 -155.001
c0 -63.333 -20.833 -115.166 -62.5 -155.499s-96.167 -60.5 -163.5 -60.5z" />
    <glyph glyph-name="Q" unicode="Q" horiz-adv-x="809" 
d="M44 355c0 74.667 17.167 140.5 51.5 197.5s78.5 99.833 132.5 128.5s112.667 43 176 43s122 -14.333 176 -43s98.333 -71.5 133 -128.5s52 -122.833 52 -197.5c0 -100.667 -30.667 -185 -92 -253l84 -94l-81 -69l-87 95c-56 -32.667 -117.667 -49 -185 -49
c-63.333 0 -122 14.333 -176 43s-98.167 71.667 -132.5 129s-51.5 123.333 -51.5 198zM167 355c0 -80.667 23.334 -143.501 70.001 -188.501s102.334 -67.5 167.001 -67.5c39.333 0 74.666 7.66699 105.999 23l-117 130l82 70l118 -131c32.667 44.667 49 99.334 49 164.001
c0 80.667 -23.5 143.5 -70.5 188.5s-102.833 67.5 -167.5 67.5s-120.334 -22.5 -167.001 -67.5s-70 -107.833 -70 -188.5z" />
    <glyph glyph-name="R" unicode="R" horiz-adv-x="630" 
d="M447 0l-149.001 280h-88v-280h-121v709h272c66.667 0 120.334 -20.5 161.001 -61.5s61 -92.167 61 -153.5c0 -50.667 -14.333 -94 -43 -130s-67.667 -60 -117 -72l160 -292h-136zM209.999 386l129 -0.000976562c36.667 0 66.167 9.83301 88.5 29.5
s33.5 45.834 33.5 78.501c0 33.333 -11.167 59.833 -33.5 79.5s-51.833 29.5 -88.5 29.5h-129v-217z" />
    <glyph glyph-name="S" unicode="S" horiz-adv-x="602" 
d="M551 543l-107.997 -33.999c-4.66699 27.333 -18.334 52.333 -41.001 75s-55.334 34 -98.001 34c-35.333 0 -64.5 -10 -87.5 -30s-34.5 -44 -34.5 -72c0 -48.667 27.667 -79 83 -91l102 -21c61.333 -12 108.666 -36.333 141.999 -73s50 -80.334 50 -131.001
c0 -58.667 -22.5 -109.167 -67.5 -151.5s-106.167 -63.5 -183.5 -63.5c-83.333 0 -148.333 21.833 -195 65.5s-73 94.5 -79 152.5l112 32c4 -40 20 -73.667 48 -101s66 -41 114 -41c41.333 0 73.166 9.16699 95.499 27.5s33.5 41.833 33.5 70.5
c0 23.333 -8.33301 43.5 -25 60.5s-40 28.833 -70 35.5l-100 21c-55.333 11.333 -99.166 34.333 -131.499 69s-48.5 78 -48.5 130c0 59.333 23.667 110.333 71 153s104 64 170 64c75.333 0 133 -18.167 173 -54.5s65 -78.5 75 -126.5z" />
    <glyph glyph-name="T" unicode="T" horiz-adv-x="615" 
d="M598 596h-231v-596h-120v596h-230v113h581v-113z" />
    <glyph glyph-name="U" unicode="U" horiz-adv-x="693" 
d="M346 -15c-77.333 0 -140.667 23 -190 69s-74 110.333 -74 193v462h119v-455c0 -49.333 12.833 -87.5 38.5 -114.5s61.167 -40.5 106.5 -40.5c46 0 81.667 13.333 107 40s38 65 38 115v455h120v-462c0 -82.667 -24.833 -147 -74.5 -193s-113.167 -69 -190.5 -69z" />
    <glyph glyph-name="V" unicode="V" horiz-adv-x="682" 
d="M343 157l199 552h127l-268 -709h-122l-264 709h130z" />
    <glyph glyph-name="W" unicode="W" horiz-adv-x="1032" 
d="M748 187l139 522h124l-199 -709h-124l-172 536l-172 -536h-123l-201 709h126l142 -518l166 518h125z" />
    <glyph glyph-name="X" unicode="X" horiz-adv-x="639" 
d="M628 709l-236 -355l235 -354h-144l-165 259l-167 -259h-141l237 355l-235 354h144l165 -260l166 260h141z" />
    <glyph glyph-name="Y" unicode="Y" horiz-adv-x="651" 
d="M265 300l-248 409h142l170 -297l171 297h135l-250 -409v-300h-120v300z" />
    <glyph glyph-name="Z" unicode="Z" horiz-adv-x="639" 
d="M595 0h-553v118l393 478h-382v113h537v-114l-398 -481h403v-114z" />
    <glyph glyph-name="bracketleft" unicode="[" horiz-adv-x="311" 
d="M284 -157h-214v956h214v-90h-116v-775h116v-91z" />
    <glyph glyph-name="backslash" unicode="\" horiz-adv-x="503" 
d="M370 0l-345 709h107l345 -709h-107z" />
    <glyph glyph-name="bracketright" unicode="]" horiz-adv-x="311" 
d="M241 -157h-214v91h116v775h-116v90h214v-956z" />
    <glyph glyph-name="asciicircum" unicode="^" horiz-adv-x="564" 
d="M525 352h-113l-129 244l-130 -244h-114l196 358h94z" />
    <glyph glyph-name="underscore" unicode="_" horiz-adv-x="521" 
d="M516 -96h-511v96h511v-96z" />
    <glyph glyph-name="grave" unicode="`" horiz-adv-x="285" 
d="M161 548l-132 148h139l88 -148h-95z" />
    <glyph glyph-name="a" unicode="a" horiz-adv-x="532" 
d="M42 132c0 41.333 13.498 74.5 40.498 99.5s62.5 40.833 106.5 47.5l125 19c24 3.33301 36 15 36 35c0 22 -7.66699 39.833 -23 53.5s-38.333 20.5 -69 20.5c-29.333 0 -52.666 -8.16699 -69.999 -24.5s-27.333 -37.5 -30 -63.5l-106 24c4.66699 44 25.667 81.5 63 112.5
s84.666 46.5 141.999 46.5c70.667 0 122.834 -17 156.501 -51s50.5 -77.667 50.5 -131v-242c0 -32 2 -58 6 -78h-108c-3.33301 10 -5 30.667 -5 62c-32 -51.333 -82 -77 -150 -77c-49.333 0 -89.166 14.5 -119.499 43.5s-45.5 63.5 -45.5 103.5zM228.998 76
c36 0 65.167 9.83105 87.5 29.498s33.5 51.834 33.5 96.501v22l-127 -19c-43.333 -7.33301 -65 -29.333 -65 -66c0 -17.333 6.33301 -32.166 19 -44.499s30 -18.5 52 -18.5z" />
    <glyph glyph-name="b" unicode="b" horiz-adv-x="606" 
d="M185 0l-113 -0.000976562v724h114v-297c12 20.667 31.667 38 59 52s58.666 21 93.999 21c70.667 0 125.834 -23.833 165.501 -71.5s59.5 -108.5 59.5 -182.5c0 -75.333 -20.833 -137.166 -62.5 -185.499s-97.167 -72.5 -166.5 -72.5s-119.333 25.667 -150 77v-65z
M447 244.999c0 47.333 -12 84.5 -36 111.5s-55.667 40.5 -95 40.5c-38 0 -69.333 -13.5 -94 -40.5s-37 -64.167 -37 -111.5c0 -46.667 12.333 -84 37 -112s56 -42 94 -42c38.667 0 70.167 13.833 94.5 41.5s36.5 65.167 36.5 112.5z" />
    <glyph glyph-name="c" unicode="c" horiz-adv-x="549" 
d="M291 395c-37.333 0 -69.0029 -13.502 -95.0029 -40.502s-39 -63.833 -39 -110.5c0 -47.333 13.167 -84.666 39.5 -111.999s58.5 -41 96.5 -41c34 0 61.167 9.16699 81.5 27.5s33.833 39.166 40.5 62.499l102 -37c-13.333 -43.333 -39.166 -80.666 -77.499 -111.999
s-87.166 -47 -146.499 -47c-71.333 0 -131.166 24.667 -179.499 74s-72.5 111 -72.5 185c0 74.667 23.833 136.334 71.5 185.001s106.834 73 177.501 73c60.667 0 110.167 -15.667 148.5 -47s63.166 -69 74.499 -113l-104 -38c-6.66699 25.333 -19.5 46.833 -38.5 64.5
s-45.5 26.5 -79.5 26.5z" />
    <glyph glyph-name="d" unicode="d" horiz-adv-x="601" 
d="M157 245c0 -46.667 12.001 -84.168 36.001 -112.501s55.667 -42.5 95 -42.5c38 0 69 14.333 93 43s36 66.334 36 113.001c0 46 -11.667 82.667 -35 110s-54.333 41 -93 41s-70.334 -13.833 -95.001 -41.5s-37 -64.5 -37 -110.5zM529.001 723.999l-0.00195312 -634.998
c0 -32.667 1.66699 -62.334 5 -89.001h-111c-3.33301 18.667 -5 39.667 -5 63c-12 -22 -30.667 -40 -56 -54s-54.333 -21 -87 -21c-69.333 0 -125.666 24.333 -168.999 73s-65 110 -65 184c0 71.333 21.833 131.666 65.5 180.999s99.167 74 166.5 74
c38.667 0 69.834 -7 93.501 -21s40.167 -30.333 49.5 -49v294h113z" />
    <glyph glyph-name="e" unicode="e" horiz-adv-x="557" 
d="M160 297h238.999c-1.33301 30.667 -12.166 56.334 -32.499 77.001s-49.5 31 -87.5 31c-34.667 0 -62.667 -10.833 -84 -32.5s-33 -46.834 -35 -75.501zM411.999 170l97.998 -30.999c-14 -44.667 -40.167 -81.5 -78.5 -110.5s-85.5 -43.5 -141.5 -43.5
c-69.333 0 -128.166 23.667 -176.499 71s-72.5 110.666 -72.5 189.999c0 74.667 23.5 136 70.5 184s102.5 72 166.5 72c74.667 0 133 -22.833 175 -68.5s63 -107.167 63 -184.5c0 -20.667 -1 -33 -3 -37h-356c1.33301 -36.667 14.833 -67 40.5 -91s56.5 -36 92.5 -36
c62.667 0 103.334 28.333 122.001 85z" />
    <glyph glyph-name="f" unicode="f" horiz-adv-x="363" 
d="M302 625c-19.333 0 -36.166 -5.5 -50.499 -16.5s-21.5 -30.167 -21.5 -57.5v-64h113v-101h-113v-386h-117v386h-85v101h85v67c0 54 15.667 96.667 47 128s72.333 47 123 47c27.333 0 47.666 -3.33301 60.999 -10v-99c-12 3.33301 -26 5 -42 5z" />
    <glyph glyph-name="g" unicode="g" horiz-adv-x="595" 
d="M41 -27l107.001 28c4 -30.667 17.167 -55.834 39.5 -75.501s49.833 -29.5 82.5 -29.5c92 0 138 48.667 138 146v51c-11.333 -20.667 -29.333 -37.667 -54 -51s-53.667 -20 -87 -20c-65.333 0 -119.166 22.333 -161.499 67s-63.5 101.334 -63.5 170.001
c0 66 21 122 63 168s96 69 162 69c71.333 0 119.333 -23.667 144 -71v62h112v-441c0 -72 -20.333 -131.833 -61 -179.5s-103.667 -71.5 -189 -71.5c-62.667 0 -115.334 17 -158.001 51s-67.334 76.333 -74.001 127zM286.001 121c37.333 0 67.5 12.5 90.5 37.5
s34.5 58.5 34.5 100.5c0 41.333 -11.667 74.5 -35 99.5s-53.333 37.5 -90 37.5c-37.333 0 -67.833 -12.5 -91.5 -37.5s-35.5 -58.167 -35.5 -99.5c0 -42 11.667 -75.5 35 -100.5s54 -37.5 92 -37.5z" />
    <glyph glyph-name="h" unicode="h" horiz-adv-x="572" 
d="M188 286l0.00195312 -286.001h-116v724h116v-284c31.333 40.667 77.666 61 138.999 61c57.333 0 101.333 -18 132 -54s46 -82.333 46 -139v-308h-116v288c0 32.667 -8 58.834 -24 78.501s-41.333 29.5 -76 29.5c-30.667 0 -54.834 -10.333 -72.501 -31
s-27.167 -47 -28.5 -79z" />
    <glyph glyph-name="i" unicode="i" horiz-adv-x="259" 
d="M187 0h-115v487h115v-487zM54 658c0 20.667 7.33301 38.5 22 53.5s32.334 22.5 53.001 22.5s38.5 -7.33301 53.5 -22s22.5 -32.667 22.5 -54c0 -20.667 -7.33301 -38.334 -22 -53.001s-32.667 -22 -54 -22c-20.667 0 -38.334 7.33301 -53.001 22s-22 32.334 -22 53.001z
" />
    <glyph glyph-name="j" unicode="j" horiz-adv-x="260" 
d="M72 -40v527h116v-536c0 -46 -13 -83.5 -39 -112.5s-61.333 -43.5 -106 -43.5c-29.333 0 -51.333 3 -66 9v96c10 -2 21.667 -3 35 -3c40 0 60 21 60 63zM54 659c0 20.667 7.33301 38.5 22 53.5s32.334 22.5 53.001 22.5s38.5 -7.5 53.5 -22.5s22.5 -32.833 22.5 -53.5
s-7.5 -38.334 -22.5 -53.001s-32.833 -22 -53.5 -22s-38.334 7.33301 -53.001 22s-22 32.334 -22 53.001z" />
    <glyph glyph-name="k" unicode="k" horiz-adv-x="544" 
d="M528 487l-200 -206l204 -281h-142l-143 199l-60 -63v-136h-115v724h115v-434l187 197h154z" />
    <glyph glyph-name="l" unicode="l" horiz-adv-x="260" 
d="M188 0h-116v724h116v-724z" />
    <glyph glyph-name="m" unicode="m" horiz-adv-x="870" 
d="M187 0h-115v487h111v-62c13.333 24 33.5 42.667 60.5 56s54.833 20 83.5 20c32.667 0 62 -7.33301 88 -22s45.333 -36 58 -64c34 57.333 86.667 86 158 86c48 0 88.667 -15.667 122 -47s50 -77.333 50 -138v-316h-112v297c0 30 -7.83301 54.167 -23.5 72.5
s-39.167 27.5 -70.5 27.5c-30 0 -54.333 -10.333 -73 -31s-28 -46.334 -28 -77.001v-289h-114v297c0 30 -7.83301 54.167 -23.5 72.5s-39.167 27.5 -70.5 27.5c-30.667 0 -55.167 -10.167 -73.5 -30.5s-27.5 -46.166 -27.5 -77.499v-289z" />
    <glyph glyph-name="n" unicode="n" horiz-adv-x="572" 
d="M188 281v-281.001h-116v487h113v-65c15.333 26.667 35.833 46.5 61.5 59.5s53.167 19.5 82.5 19.5c57.333 0 101 -18 131 -54s45 -82.333 45 -139v-308h-116v288c0 32.667 -8 58.834 -24 78.501s-41.333 29.5 -76 29.5c-32 0 -56.833 -10.833 -74.5 -32.5
s-26.5 -49.167 -26.5 -82.5z" />
    <glyph glyph-name="o" unicode="o" horiz-adv-x="587" 
d="M293 89c38 0 70.167 13.667 96.5 41s39.5 65.333 39.5 114c0 48 -13.167 85.5 -39.5 112.5s-58.5 40.5 -96.5 40.5s-70.167 -13.5 -96.5 -40.5s-39.5 -64.5 -39.5 -112.5s13.167 -85.833 39.5 -113.5s58.5 -41.5 96.5 -41.5zM293 502c73.333 0 133.833 -24.333 181.5 -73
s71.5 -110.334 71.5 -185.001s-23.833 -136.5 -71.5 -185.5s-108.167 -73.5 -181.5 -73.5c-72.667 0 -132.834 24.5 -180.501 73.5s-71.5 110.833 -71.5 185.5s23.833 136.334 71.5 185.001s107.834 73 180.501 73z" />
    <glyph glyph-name="p" unicode="p" horiz-adv-x="606" 
d="M187 -190h-115v677h112v-66c12.667 22 32.667 40.333 60 55s59 22 95 22c70 0 125 -23.833 165 -71.5s60 -108.5 60 -182.5s-21 -135.167 -63 -183.5s-97.333 -72.5 -166 -72.5c-33.333 0 -63 6.33301 -89 19s-45.667 28.667 -59 48v-245zM448 244
c0 45.333 -12 81.833 -36 109.5s-55.667 41.5 -95 41.5c-38.667 0 -70.167 -13.833 -94.5 -41.5s-36.5 -64.167 -36.5 -109.5c0 -46 12.167 -83 36.5 -111s55.833 -42 94.5 -42s70.167 14 94.5 42s36.5 65 36.5 111z" />
    <glyph glyph-name="q" unicode="q" horiz-adv-x="605" 
d="M533 -190h-113.998v248c-26 -46.667 -73.667 -70 -143 -70c-68.667 0 -124.834 24.5 -168.501 73.5s-65.5 110.167 -65.5 183.5c0 72 21.167 132.333 63.5 181s98.166 73 167.499 73c38.667 0 70.667 -7.66699 96 -23s43 -33.333 53 -54v65h111v-677zM159.002 245
c0 -46 12.167 -83.333 36.5 -112s55.5 -43 93.5 -43s69.333 14.333 94 43s37 66 37 112s-12.167 82.667 -36.5 110s-55.833 41 -94.5 41s-70 -13.667 -94 -41s-36 -64 -36 -110z" />
    <glyph glyph-name="r" unicode="r" horiz-adv-x="377" 
d="M357 490l0.000976562 -118c-13.333 2 -26 3 -38 3c-87.333 0 -131 -47.667 -131 -143v-232h-116v487h113v-78c11.333 26 29.666 46.5 54.999 61.5s54 22.5 86 22.5c10.667 0 21 -1 31 -3z" />
    <glyph glyph-name="s" unicode="s" horiz-adv-x="465" 
d="M38 132l100.998 28.001c2 -23.333 11.667 -43 29 -59s40.666 -24 69.999 -24c22.667 0 40.5 5.33301 53.5 16s19.5 24 19.5 40c0 28 -19 46 -57 54l-72 16c-42 9.33301 -74.333 26.666 -97 51.999s-34 55.333 -34 90c0 42.667 17.333 79.5 52 110.5s77 46.5 127 46.5
c32 0 60.333 -4.66699 85 -14s43.834 -21.5 57.501 -36.5s24.167 -29.5 31.5 -43.5s12 -28 14 -42l-98 -28c-2.66699 18.667 -11.167 35.5 -25.5 50.5s-35.833 22.5 -64.5 22.5c-20 0 -36.667 -5.5 -50 -16.5s-20 -24.167 -20 -39.5c0 -27.333 16.333 -44.333 49 -51l74 -15
c45.333 -10 80 -28 104 -54s36 -57.333 36 -94c0 -40.667 -16.167 -76.834 -48.5 -108.501s-77.5 -47.5 -135.5 -47.5c-33.333 0 -63.166 5 -89.499 15s-47 22.833 -62 38.5s-26.667 31.334 -35 47.001s-13.166 31.167 -14.499 46.5z" />
    <glyph glyph-name="t" unicode="t" horiz-adv-x="365" 
d="M225 636v-149h101v-103h-101v-226c0 -21.333 5 -36.833 15 -46.5s25.667 -14.5 47 -14.5c13.333 0 26.666 1.33301 39.999 4v-96c-17.333 -7.33301 -41 -11 -71 -11c-45.333 0 -81 12.833 -107 38.5s-39 61.167 -39 106.5v245h-90v103h25c24.667 0 43.334 7 56.001 21
s19 32.333 19 55v73h105z" />
    <glyph glyph-name="u" unicode="u" horiz-adv-x="571" 
d="M389 54c-11.333 -21.333 -29.834 -37.999 -55.501 -49.999s-53.167 -18 -82.5 -18c-56.667 0 -101.5 18.333 -134.5 55s-49.5 83 -49.5 139v307h116v-286c0 -32.667 8 -59.334 24 -80.001s40.667 -31 74 -31c32.667 0 57.834 10 75.501 30s26.5 46.333 26.5 79v288h116
v-398c0 -29.333 1.66699 -59 5 -89h-111c-2.66699 14.667 -4 32.667 -4 54z" />
    <glyph glyph-name="v" unicode="v" horiz-adv-x="541" 
d="M521 487l-191 -487h-116l-198 487h128l129 -348l126 348h122z" />
    <glyph glyph-name="w" unicode="w" horiz-adv-x="826" 
d="M357 487h120l115 -337l97 337h118l-156 -487h-116l-121 350l-118 -350h-119l-158 487h124l99 -337z" />
    <glyph glyph-name="x" unicode="x" horiz-adv-x="522" 
d="M16 0l177.001 246l-174 241h138c3.33301 -5.33301 21.5 -31.833 54.5 -79.5s50.5 -73.167 52.5 -76.5l106 156h132l-171 -239l177 -248h-136l-113 163c-2 -2.66699 -11.833 -17.167 -29.5 -43.5l-51.5 -76c-16.667 -24.333 -26.334 -38.833 -29.001 -43.5h-133z" />
    <glyph glyph-name="y" unicode="y" horiz-adv-x="551" 
d="M230 -197h-124l117 255l-208 429h131l140 -308l131 308h123z" />
    <glyph glyph-name="z" unicode="z" horiz-adv-x="488" 
d="M443 0h-398v101l247 284h-242v102h388v-98l-250 -287h255v-102z" />
    <glyph glyph-name="braceleft" unicode="{" horiz-adv-x="356" 
d="M14 273v99.998c31.333 0 56.666 7.83301 75.999 23.5s29 39.834 29 72.501v140c0 63.333 16.167 110.833 48.5 142.5s78.5 47.5 138.5 47.5h23v-89h-22c-30.667 0 -53.334 -7.66699 -68.001 -23s-22 -40 -22 -74v-166c0 -32.667 -9 -59.667 -27 -81
s-43 -35.666 -75 -42.999c32 -7.33301 57 -22 75 -44s27 -49 27 -81v-166c0 -34 7.33301 -58.5 22 -73.5s37.334 -22.5 68.001 -22.5h22v-89h-23c-60 0 -106.167 15.833 -138.5 47.5s-48.5 79.167 -48.5 142.5v139c0 33.333 -9.66699 57.833 -29 73.5
s-44.666 23.5 -75.999 23.5z" />
    <glyph glyph-name="bar" unicode="|" horiz-adv-x="238" 
d="M168 -153h-98v952h98v-952z" />
    <glyph glyph-name="braceright" unicode="}" horiz-adv-x="356" 
d="M342 373v-99.998c-31.333 0 -56.666 -7.83301 -75.999 -23.5s-29 -40.167 -29 -73.5v-139c0 -63.333 -16.167 -110.833 -48.5 -142.5s-78.5 -47.5 -138.5 -47.5h-23v89h22c30.667 0 53.334 7.5 68.001 22.5s22 39.5 22 73.5v166c0 32 9 59 27 81s43 36.667 75 44
c-32 7.33301 -57 21.666 -75 42.999s-27 48.333 -27 81v166c0 34 -7.33301 58.667 -22 74s-37.334 23 -68.001 23h-22v89h23c60 0 106.167 -15.833 138.5 -47.5s48.5 -79.167 48.5 -142.5v-140c0 -32.667 9.66699 -56.834 29 -72.501s44.666 -23.5 75.999 -23.5z" />
    <glyph glyph-name="asciitilde" unicode="~" horiz-adv-x="629" 
d="M314 236l-46.999 25c-18.667 9.33301 -36 14 -52 14c-34.667 0 -65.334 -18 -92.001 -54l-66 53c38 66.667 91 100 159 100c35.333 0 69 -9 101 -27l46 -25c18 -10 36.333 -15 55 -15c37.333 0 67.333 17.667 90 53l66 -53c-37.333 -66 -90 -99 -158 -99
c-33.333 0 -67.333 9.33301 -102 28z" />
    <glyph glyph-name="uni00A0" unicode="&#xa0;" horiz-adv-x="242" 
 />
    <glyph glyph-name="exclamdown" unicode="&#xa1;" horiz-adv-x="253" 
d="M168 285l29 -498h-142l30 498h83zM53 429c0 20 7.16699 37.167 21.5 51.5s31.5 21.5 51.5 21.5s37.333 -7.16699 52 -21.5s22 -31.5 22 -51.5s-7.33301 -37.167 -22 -51.5s-32 -21.5 -52 -21.5s-37.167 7 -51.5 21s-21.5 31.333 -21.5 52z" />
    <glyph glyph-name="cent" unicode="&#xa2;" horiz-adv-x="559" 
d="M297 201c34 0 61.5 8.83203 82.5 26.499s35.167 39.167 42.5 64.5l101 -35c-10 -39.333 -30.833 -74 -62.5 -104s-70.834 -49 -117.501 -57v-96h-92v97c-61.333 10 -111.333 38.167 -150 84.5s-58 102.833 -58 169.5c0 67.333 19.5 124.333 58.5 171
s88.833 74.667 149.5 84v103h92v-104c46.667 -8 85.334 -26.5 116.001 -55.5s51 -63.5 61 -103.5l-103 -35c-6.66699 26 -20 47.667 -40 65s-47 26 -81 26c-40 0 -73 -13.833 -99 -41.5s-39 -64.167 -39 -109.5s13 -81.666 39 -108.999s59.333 -41 100 -41z" />
    <glyph glyph-name="sterling" unicode="&#xa3;" horiz-adv-x="610" 
d="M436 304l-167.003 0.00195312c2.66699 -17.333 4 -30.666 4 -39.999c0 -33.333 -6.83301 -64.333 -20.5 -93s-32.167 -51.334 -55.5 -68.001h174c30.667 0 55 9.66699 73 29s27.667 44.666 29 75.999l103 -12c-1.33301 -58.667 -18.833 -106 -52.5 -142
s-79.167 -54 -136.5 -54h-334v96c32 14.667 58 36 78 64s30 60 30 96c0 14.667 -2 30.667 -6 48h-96v91h68c-18.667 52 -28 93.333 -28 124c0 58 20 106.5 60 145.5s93.667 58.5 161 58.5c66.667 0 117.667 -18.833 153 -56.5s54 -82.167 56 -133.5l-102 -21
c-1.33301 33.333 -11.666 60 -30.999 80s-44.666 30 -75.999 30s-56.666 -9.33301 -75.999 -28s-29 -46 -29 -82c0 -10 1.16699 -20.5 3.5 -31.5s4.5 -20 6.5 -27s5.5 -17.333 10.5 -31s8.16699 -22.834 9.5 -27.501h191v-91z" />
    <glyph glyph-name="currency" unicode="&#xa4;" horiz-adv-x="612" 
d="M487 98l-71 73.002c-34 -20 -70 -30 -108 -30c-40 0 -77 10.667 -111 32l-74 -75l-71 71l73 74c-21.333 33.333 -32 70.666 -32 111.999c0 42 11 79.667 33 113l-74 75l72 71l74 -77c34 20.667 70.667 31 110 31c38.667 0 74 -9.33301 106 -28l73 74l72 -71l-71 -72
c24 -34.667 36 -73.334 36 -116.001c0 -42 -11.667 -80.333 -35 -115l70 -71zM192 355.002c0 -34 11 -62 33 -84s49.667 -33 83 -33s60.833 11 82.5 33s32.5 50 32.5 84s-10.833 61.667 -32.5 83s-49.167 32 -82.5 32s-61 -10.667 -83 -32s-33 -49 -33 -83z" />
    <glyph glyph-name="yen" unicode="&#xa5;" horiz-adv-x="657" 
d="M386 0h-116v144h-185v85h185v70h-185v85h138l-193 325h133l169 -294l167 294h128l-196 -325h140v-85h-185v-70h185v-85h-185v-144z" />
    <glyph glyph-name="brokenbar" unicode="&#xa6;" horiz-adv-x="250" 
d="M76 799h98v-399h-98v399zM76 245h98v-399h-98v399z" />
    <glyph glyph-name="section" unicode="&#xa7;" horiz-adv-x="522" 
d="M464 249c0 -28 -7.83398 -52.832 -23.501 -74.499s-34.167 -38.167 -55.5 -49.5c54 -38.667 81 -86.334 81 -143.001c0 -55.333 -20.5 -100.333 -61.5 -135s-89.5 -52 -145.5 -52c-62.667 0 -112 16.833 -148 50.5s-54.667 78.5 -56 134.5l108 20
c0 -34 8.33301 -60.5 25 -79.5s40.667 -28.5 72 -28.5c26.667 0 48.167 7.16699 64.5 21.5s24.5 33.833 24.5 58.5c0 32 -16.667 56.667 -50 74l-102 52c-44.667 22.667 -79 46.834 -103 72.501s-36 58.834 -36 99.501c0 28 7.83301 52.833 23.5 74.5s34.5 38.167 56.5 49.5
c-54.667 37.333 -82 85 -82 143c0 55.333 20.5 100.166 61.5 134.499s89.833 51.5 146.5 51.5c62.667 0 111.834 -17.167 147.501 -51.5s54.167 -78.5 55.5 -132.5l-109 -20c0 34 -8.33301 60.333 -25 79s-40 28 -70 28c-26.667 0 -48.5 -7.5 -65.5 -22.5
s-25.5 -34.167 -25.5 -57.5c0 -31.333 17 -55.666 51 -72.999l101 -52c44.667 -22.667 79.167 -46.834 103.5 -72.501s36.5 -58.834 36.5 -99.501zM303.999 304.001l-101 53.001c-25.333 -17.333 -38 -39.333 -38 -66c0 -32.667 17.333 -58 52 -76l100 -53
c26 18 39 40 39 66c0 31.333 -17.333 56.666 -52 75.999z" />
    <glyph glyph-name="dieresis" unicode="&#xa8;" horiz-adv-x="393" 
d="M32 625c0 18 6.16699 33.333 18.5 46s27.5 19 45.5 19c18.667 0 34.334 -6.33301 47.001 -19s19 -28 19 -46c0 -18.667 -6.33301 -34.167 -19 -46.5s-28.334 -18.5 -47.001 -18.5c-18 0 -33.167 6.16699 -45.5 18.5s-18.5 27.833 -18.5 46.5zM232 625
c0 18 6.16699 33.333 18.5 46s27.5 19 45.5 19s33.333 -6.33301 46 -19s19 -28 19 -46c0 -18.667 -6.33301 -34.167 -19 -46.5s-28 -18.5 -46 -18.5s-33.167 6.16699 -45.5 18.5s-18.5 27.833 -18.5 46.5z" />
    <glyph glyph-name="copyright" unicode="&#xa9;" horiz-adv-x="824" 
d="M127 355c0 -82.667 27.333 -152.334 82 -209.001s122 -85 202 -85c79.333 0 146.5 28.333 201.5 85s82.5 126.334 82.5 209.001s-27.5 152.167 -82.5 208.5s-122.167 84.5 -201.5 84.5c-80 0 -147.333 -28.167 -202 -84.5s-82 -125.833 -82 -208.5zM45 355
c0 102 35.667 188.999 107 260.999s157.666 108 258.999 108s188 -36.167 260 -108.5s108 -159.166 108 -260.499c0 -102 -36 -189.167 -108 -261.5s-158.667 -108.5 -260 -108.5s-187.666 36.167 -258.999 108.5s-107 159.5 -107 261.5zM414 472.999
c-29.333 0 -54.333 -10.501 -75 -31.501s-31 -49.833 -31 -86.5c0 -37.333 10.333 -66.666 31 -87.999s46 -32 76 -32c27.333 0 49 7.16699 65 21.5s26.333 30.5 31 48.5l80 -29c-10 -34 -30.167 -63.333 -60.5 -88s-68.833 -37 -115.5 -37c-56 0 -103 19.5 -141 58.5
s-57 87.5 -57 145.5c0 58.667 18.833 107.167 56.5 145.5s84.167 57.5 139.5 57.5c48 0 87 -12.5 117 -37.5s49.333 -54.5 58 -88.5l-82 -30c-4.66699 20 -14.5 36.833 -29.5 50.5s-35.833 20.5 -62.5 20.5z" />
    <glyph glyph-name="ordfeminine" unicode="&#xaa;" horiz-adv-x="415" 
d="M262 507l0.000976562 14.999l-82 -14c-29.333 -4.66699 -44 -19 -44 -43c0 -11.333 4.16699 -21.166 12.5 -29.499s20.166 -12.5 35.499 -12.5c52 0 78 28 78 84zM48.001 459.999c0 28.667 9.66602 52.166 28.999 70.499s44 29.5 74 33.5l86 12
c16.667 2.66699 25 10.667 25 24c0 14 -5.16699 25.667 -15.5 35s-25.5 14 -45.5 14c-19.333 0 -35 -5.66699 -47 -17s-18.667 -25.333 -20 -42l-79 17c3.33301 30.667 17.833 57.167 43.5 79.5s59.834 33.5 102.501 33.5c50.667 0 88 -12.167 112 -36.5s36 -55.5 36 -93.5
v-169c0 -23.333 1.33301 -41.666 4 -54.999h-82c-2 14 -3 28 -3 42c-22 -34.667 -56 -52 -102 -52c-36 0 -64.667 10.167 -86 30.5s-32 44.833 -32 73.5z" />
    <glyph glyph-name="guillemotleft" unicode="&#xab;" horiz-adv-x="534" 
d="M282 100h-111l-135 193l136 194h111l-134 -195zM489 100h-111l-135 193l136 194h111l-134 -195z" />
    <glyph glyph-name="logicalnot" unicode="&#xac;" horiz-adv-x="591" 
d="M523 199h-101v195h-377v98h478v-293z" />
    <glyph glyph-name="uni00AD" unicode="&#xad;" horiz-adv-x="410" 
d="M346 241h-282v103h282v-103z" />
    <glyph glyph-name="registered" unicode="&#xae;" horiz-adv-x="824" 
d="M45 355c0 102 35.667 188.999 107 260.999s157.666 108 258.999 108s188 -36.167 260 -108.5s108 -159.166 108 -260.499c0 -102 -36 -189.167 -108 -261.5s-158.667 -108.5 -260 -108.5s-187.666 36.167 -258.999 108.5s-107 159.5 -107 261.5zM127 354.999
c0 -82.667 27.333 -152.334 82 -209.001s122 -85 202 -85c79.333 0 146.5 28.333 201.5 85s82.5 126.334 82.5 209.001s-27.5 152.167 -82.5 208.5s-122.167 84.5 -201.5 84.5c-80 0 -147.333 -28.167 -202 -84.5s-82 -125.833 -82 -208.5zM474 156.999l-76 144h-29v-144
h-86v401h149c38.667 0 71.167 -12.333 97.5 -37s39.5 -55 39.5 -91c0 -27.333 -7.5 -51.5 -22.5 -72.5s-34.833 -36.167 -59.5 -45.5l85 -155h-98zM369 373.999h49c20 0 35.5 4.83301 46.5 14.5s16.5 23.167 16.5 40.5s-5.5 31 -16.5 41s-26.5 15 -46.5 15h-49v-111z" />
    <glyph glyph-name="macron" unicode="&#xaf;" horiz-adv-x="338" 
d="M308 577h-278v90h278v-90z" />
    <glyph glyph-name="degree" unicode="&#xb0;" horiz-adv-x="407" 
d="M204 487c20 0 36.667 7 50 21s20 31.667 20 53c0 20.667 -6.66699 38 -20 52s-30 21 -50 21s-36.833 -7 -50.5 -21s-20.5 -31.333 -20.5 -52c0 -22 6.83301 -39.833 20.5 -53.5s30.5 -20.5 50.5 -20.5zM40 561c0 44.667 16.166 82.667 48.499 114s70.833 47 115.5 47
s83.167 -15.667 115.5 -47s48.5 -69.333 48.5 -114c0 -45.333 -16.167 -83.5 -48.5 -114.5s-71.166 -46.5 -116.499 -46.5c-44.667 0 -83 15.667 -115 47s-48 69.333 -48 114z" />
    <glyph glyph-name="plusminus" unicode="&#xb1;" horiz-adv-x="593" 
d="M524 368h-178v-127h-100v127h-177v95h177v129h100v-129h178v-95zM524 104h-455v96h455v-96z" />
    <glyph glyph-name="twosuperior" unicode="&#xb2;" horiz-adv-x="350" 
d="M124 567l-84.001 -1.00098c-2 10 -3 20 -3 30c0 34 12.333 62.667 37 86s58.334 35 101.001 35c42 0 75.333 -11.5 100 -34.5s37 -51.167 37 -84.5c0 -44 -25 -81 -75 -111l-71 -43c-11.333 -8 -18 -16.333 -20 -25h169v-76h-281v12c0 66.667 29 117.334 87 152.001
l60 36c27.333 16 41 34.667 41 56c0 12 -4.33301 22.333 -13 31s-20.667 13 -36 13c-16 0 -28.667 -4.83301 -38 -14.5s-14 -22.167 -14 -37.5c0 -8 1 -16 3 -24z" />
    <glyph glyph-name="threesuperior" unicode="&#xb3;" horiz-adv-x="363" 
d="M27 444l79.998 24c2.66699 -16.667 10.334 -30.5 23.001 -41.5s28 -16.5 46 -16.5s32.667 4.66699 44 14s17 21 17 35c0 17.333 -5.83301 30.166 -17.5 38.499s-26.167 12.5 -43.5 12.5c-10.667 0 -21 -2 -31 -6l-32 61l91 69h-164v75h279v-72l-94 -69
c30.667 -3.33301 55.5 -14.666 74.5 -33.999s28.5 -44.666 28.5 -75.999c0 -34.667 -13.833 -63.834 -41.5 -87.501s-64.167 -35.5 -109.5 -35.5c-42 0 -76.167 10.667 -102.5 32s-42.166 47 -47.499 77z" />
    <glyph glyph-name="acute" unicode="&#xb4;" horiz-adv-x="286" 
d="M256 696l-131 -148h-95l89 148h137z" />
    <glyph glyph-name="mu" unicode="&#xb5;" horiz-adv-x="562" 
d="M387 54c-11.333 -21.333 -29.834 -37.999 -55.501 -49.999s-53.167 -18 -82.5 -18c-25.333 0 -48 4 -68 12v-188h-116v677h116v-286c0 -32.667 8 -59.334 24 -80.001s40.667 -31 74 -31c32.667 0 57.834 10 75.501 30s26.5 46.333 26.5 79v288h116v-398
c0 -29.333 1.66699 -59 5 -89h-111c-2.66699 14.667 -4 32.667 -4 54z" />
    <glyph glyph-name="paragraph" unicode="&#xb6;" horiz-adv-x="667" 
d="M341 616v-806h-95v500h-17c-54.667 0 -101.5 18.833 -140.5 56.5s-58.5 83.834 -58.5 138.501c0 63.333 22.167 113.166 66.5 149.499s99.5 54.5 165.5 54.5h366v-93h-97v-806h-95v806h-95z" />
    <glyph glyph-name="periodcentered" unicode="&#xb7;" horiz-adv-x="271" 
d="M57 298c0 21.333 7.66797 39.666 23.001 54.999s33.666 23 54.999 23c22 0 40.667 -7.66699 56 -23s23 -33.666 23 -54.999c0 -22 -7.66699 -40.333 -23 -55s-34 -22 -56 -22s-40.5 7.33301 -55.5 22s-22.5 33 -22.5 55z" />
    <glyph glyph-name="cedilla" unicode="&#xb8;" horiz-adv-x="296" 
d="M117 -105l-34.998 43l48 75h78l-39 -60c28.667 -0.666992 52 -8.66699 70 -24s27 -35.333 27 -60c0 -26 -10.167 -47.833 -30.5 -65.5s-51.166 -26.5 -92.499 -26.5c-24.667 0 -47.334 4.66699 -68.001 14s-36.334 20.666 -47.001 33.999l41 50
c23.333 -23.333 47.666 -35 72.999 -35c29.333 0 44 10 44 30c0 8.66699 -3.66699 15.834 -11 21.501s-17.333 8.5 -30 8.5c-10 0 -19.333 -1.66699 -28 -5z" />
    <glyph glyph-name="onesuperior" unicode="&#xb9;" horiz-adv-x="249" 
d="M203 343l-91 0.000976562v233h-89v60c26.667 0.666992 48.667 8.16699 66 22.5s28 31.166 32 50.499h82v-366z" />
    <glyph glyph-name="ordmasculine" unicode="&#xba;" horiz-adv-x="441" 
d="M221 356c-52 0 -95 17.167 -129 51.5s-51 77.833 -51 130.5s17 96.167 51 130.5s77 51.5 129 51.5c51.333 0 94 -17.167 128 -51.5s51 -77.833 51 -130.5s-17 -96.167 -51 -130.5s-76.667 -51.5 -128 -51.5zM130 538c0 -32 8.83301 -57 26.5 -75s39.167 -27 64.5 -27
s46.666 9 63.999 27s26 43 26 75s-8.66699 56.833 -26 74.5s-38.666 26.5 -63.999 26.5c-26 0 -47.667 -8.83301 -65 -26.5s-26 -42.5 -26 -74.5z" />
    <glyph glyph-name="guillemotright" unicode="&#xbb;" horiz-adv-x="534" 
d="M363 100h-111l133 192l-134 195h111l136 -194zM156 100h-111l133 192l-134 195h111l136 -194z" />
    <glyph glyph-name="onequarter" unicode="&#xbc;" horiz-adv-x="782" 
d="M194 0h-102l461 709h101zM33 575v61c26.667 0 48.667 7.16699 66 21.5s28 31.5 32 51.5h82v-366h-91v232h-89zM416 72v87l172 208h99v-223h62v-72h-62v-72h-90v72h-181zM597 144v125l-104 -125h104z" />
    <glyph glyph-name="onehalf" unicode="&#xbd;" horiz-adv-x="805" 
d="M197 0h-102l461 709h101zM573 224l-84.001 -0.000976562c-2 9.33301 -3 19 -3 29c0 34 12.333 62.667 37 86s58.334 35 101.001 35c42 0 75.5 -11.5 100.5 -34.5s37.5 -51.167 37.5 -84.5c0 -44 -25.333 -81 -76 -111l-70 -43c-12.667 -8.66699 -19.667 -17 -21 -25h169
v-76h-281v13c0 66 29 116.333 87 151l60 36c27.333 16.667 41 35.334 41 56.001c0 12 -4.33301 22.333 -13 31s-20.667 13 -36 13c-16 0 -28.667 -5 -38 -15s-14 -23 -14 -39c0 -8.66699 1 -16 3 -22zM32.999 574.999v61c26.667 0 48.667 7.16699 66 21.5s28 31.5 32 51.5
h82v-366h-91v232h-89z" />
    <glyph glyph-name="threequarters" unicode="&#xbe;" horiz-adv-x="857" 
d="M269 0h-102l461 709h101zM491 72v87l172 208h99v-223h62v-72h-62v-72h-90v72h-181zM672 144v125l-104 -125h104zM156 504l-30.999 62.999l89 67h-166v75h278v-74l-94 -69c30.667 -3.33301 55.667 -14.666 75 -33.999s29 -44.333 29 -75c0 -34 -14 -63 -42 -87
s-64.333 -36 -109 -36c-42 0 -76.333 10.833 -103 32.5s-42.334 47.5 -47.001 77.5l80 24c2 -17.333 9.33301 -31.333 22 -42s28.334 -16 47.001 -16c18 0 32.5 4.66699 43.5 14s16.5 21 16.5 35c0 16.667 -5.83301 29 -17.5 37s-25.834 12 -42.501 12
c-8 0 -17.333 -1.33301 -28 -4z" />
    <glyph glyph-name="questiondown" unicode="&#xbf;" horiz-adv-x="512" 
d="M221 286l99.001 -0.00195312c2 -12 3 -24.667 3 -38c0 -62 -26.667 -112 -80 -150l-46 -33c-31.333 -22.667 -47 -52 -47 -88c0 -28 9.33301 -51.667 28 -71s45.334 -29 80.001 -29c36 0 63.667 11.333 83 34s29 50 29 82c0 18 -2 33 -6 45l114 -12
c3.33301 -11.333 5 -26.666 5 -45.999c0 -54.667 -19.833 -103 -59.5 -145s-94.834 -63 -165.501 -63s-126.334 19.833 -167.001 59.5s-61 86.5 -61 140.5c0 70.667 33 129.334 99 176.001l43 30c32.667 23.333 49 56 49 98v10zM197.001 428.998c0 20 7 37.167 21 51.5
s31.333 21.5 52 21.5c20 0 37.167 -7.16699 51.5 -21.5s21.5 -31.5 21.5 -51.5s-7.16699 -37.167 -21.5 -51.5s-31.5 -21.5 -51.5 -21.5c-20.667 0 -38 7.16699 -52 21.5s-21 31.5 -21 51.5z" />
    <glyph glyph-name="Agrave" unicode="&#xc0;" horiz-adv-x="717" 
d="M573 0l-67 178h-300l-66 -178h-127l276 709h139l276 -709h-131zM356 579l-108 -290h216zM309 759l-143 124h148l103 -124h-108z" />
    <glyph glyph-name="Aacute" unicode="&#xc1;" horiz-adv-x="717" 
d="M573 0l-67 178h-300l-66 -178h-127l276 709h139l276 -709h-131zM356 579l-108 -290h216zM549 883l-142 -124h-109l102 124h149z" />
    <glyph glyph-name="Acircumflex" unicode="&#xc2;" horiz-adv-x="717" 
d="M573 0l-67 178h-300l-66 -178h-127l276 709h139l276 -709h-131zM356 579l-108 -290h216zM281 759h-107l116 124h129l119 -124h-110l-75 64z" />
    <glyph glyph-name="Atilde" unicode="&#xc3;" horiz-adv-x="717" 
d="M573 0l-67 178h-300l-66 -178h-127l276 709h139l276 -709h-131zM356 579l-108 -290h216zM520 886v-22.999c0 -35.333 -9.33301 -62.5 -28 -81.5s-42.334 -28.5 -71.001 -28.5c-23.333 0 -47.666 7.66699 -72.999 23l-10 7c-18 11.333 -33 17 -45 17
c-8 0 -15 -2.83301 -21 -8.5s-9 -13.834 -9 -24.501v-10h-75v22c0 35.333 9.33301 62.5 28 81.5s42.667 28.5 72 28.5c24 0 48.667 -7.66699 74 -23l10 -6c20 -11.333 34.333 -17 43 -17c20.667 0 31 11 31 33v10h74z" />
    <glyph glyph-name="Adieresis" unicode="&#xc4;" horiz-adv-x="717" 
d="M137 821c0 18.667 6.33301 34.5 19 47.5s28.334 19.5 47.001 19.5s34.5 -6.5 47.5 -19.5s19.5 -28.833 19.5 -47.5s-6.5 -34.334 -19.5 -47.001s-28.833 -19 -47.5 -19s-34.334 6.33301 -47.001 19s-19 28.334 -19 47.001zM444 821c0 18.667 6.16699 34.5 18.5 47.5
s27.833 19.5 46.5 19.5s34.5 -6.5 47.5 -19.5s19.5 -28.833 19.5 -47.5s-6.5 -34.334 -19.5 -47.001s-28.833 -19 -47.5 -19s-34.167 6.33301 -46.5 19s-18.5 28.334 -18.5 47.001zM573 0l-67 178h-300l-66 -178h-127l276 709h139l276 -709h-131zM356 579l-108 -290h216z
" />
    <glyph glyph-name="Aring" unicode="&#xc5;" horiz-adv-x="717" 
d="M356 579l-108 -290h216zM356 709c14 0 25.833 4.66699 35.5 14s14.5 21.333 14.5 36c0 14 -4.83301 25.667 -14.5 35s-21.5 14 -35.5 14s-25.833 -4.66699 -35.5 -14s-14.5 -21 -14.5 -35c0 -14.667 4.83301 -26.667 14.5 -36s21.5 -14 35.5 -14zM486 759
c0 -37.333 -13.999 -68.333 -41.999 -93l260 -666h-131l-67 178h-300l-66 -178h-127l258 663c-29.333 24.667 -44 56.667 -44 96c0 35.333 12.667 65.166 38 89.499s55.666 36.5 90.999 36.5s65.833 -12.167 91.5 -36.5s38.5 -54.166 38.5 -89.499z" />
    <glyph glyph-name="AE" unicode="&#xc6;" horiz-adv-x="1027" 
d="M974 0h-438v180h-277l-115 -180h-149l470 709h509v-112h-318v-188h288v-109h-288v-188h318v-112zM325 283h211v328z" />
    <glyph glyph-name="Ccedilla" unicode="&#xc7;" horiz-adv-x="751" 
d="M372 -105l-34.999 43l31 49c-92 8 -169 45 -231 111s-93 151.333 -93 256c0 110.667 35.333 200 106 268s154.334 102 251.001 102c85.333 0 155.5 -21.667 210.5 -65s91.167 -98.333 108.5 -165l-113 -38c-11.333 46 -34.333 83.333 -69 112s-80.334 43 -137.001 43
c-63.333 0 -118.166 -22.5 -164.499 -67.5s-69.5 -108.167 -69.5 -189.5c0 -79.333 23 -141.5 69 -186.5s101.333 -67.5 166 -67.5c55.333 0 101 15 137 45s60.667 67 74 111l110 -36c-16 -60 -48 -111.833 -96 -155.5s-108.333 -69.167 -181 -76.5l-22 -35
c28.667 -0.666992 52 -8.66699 70 -24s27 -35.333 27 -60c0 -26 -10.167 -47.833 -30.5 -65.5s-51.166 -26.5 -92.499 -26.5c-24.667 0 -47.334 4.66699 -68.001 14s-36.334 20.666 -47.001 33.999l41 50c23.333 -23.333 47.666 -35 72.999 -35c29.333 0 44 10 44 30
c0 8.66699 -3.66699 15.834 -11 21.501s-17.333 8.5 -30 8.5c-10 0 -19.333 -1.66699 -28 -5z" />
    <glyph glyph-name="Egrave" unicode="&#xc8;" horiz-adv-x="580" 
d="M284 759l-143 124h148l103 -124h-108zM527 0h-438v709h438v-112h-318v-188h288v-109h-288v-188h318v-112z" />
    <glyph glyph-name="Eacute" unicode="&#xc9;" horiz-adv-x="580" 
d="M478 883l-142 -124h-109l102 124h149zM527 0h-438v709h438v-112h-318v-188h288v-109h-288v-188h318v-112z" />
    <glyph glyph-name="Ecircumflex" unicode="&#xca;" horiz-adv-x="580" 
d="M232 759h-107l116 124h129l119 -124h-110l-75 64zM527 0h-438v709h438v-112h-318v-188h288v-109h-288v-188h318v-112z" />
    <glyph glyph-name="Edieresis" unicode="&#xcb;" horiz-adv-x="580" 
d="M129 821c0 18.667 6.33301 34.5 19 47.5s28.334 19.5 47.001 19.5s34.5 -6.5 47.5 -19.5s19.5 -28.833 19.5 -47.5s-6.5 -34.334 -19.5 -47.001s-28.833 -19 -47.5 -19s-34.334 6.33301 -47.001 19s-19 28.334 -19 47.001zM357 821c0 18.667 6.33301 34.5 19 47.5
s28.334 19.5 47.001 19.5s34.334 -6.5 47.001 -19.5s19 -28.833 19 -47.5s-6.33301 -34.334 -19 -47.001s-28.334 -19 -47.001 -19s-34.334 6.33301 -47.001 19s-19 28.334 -19 47.001zM527 0h-438v709h438v-112h-318v-188h288v-109h-288v-188h318v-112z" />
    <glyph glyph-name="Igrave" unicode="&#xcc;" horiz-adv-x="300" 
d="M211 0h-122v709h122v-709zM100 759l-143 124h148l103 -124h-108z" />
    <glyph glyph-name="Iacute" unicode="&#xcd;" horiz-adv-x="300" 
d="M211 0h-122v709h122v-709zM343 883l-142 -124h-109l102 124h149z" />
    <glyph glyph-name="Icircumflex" unicode="&#xce;" horiz-adv-x="300" 
d="M211 0h-122v709h122v-709zM80 759h-107l116 124h129l119 -124h-110l-75 64z" />
    <glyph glyph-name="Idieresis" unicode="&#xcf;" horiz-adv-x="300" 
d="M2 821c0 17.333 6 32.166 18 44.499s26.667 18.5 44 18.5s32.166 -6.16699 44.499 -18.5s18.5 -27.166 18.5 -44.499s-6.16699 -32.166 -18.5 -44.499s-27.166 -18.5 -44.499 -18.5s-32 6.16699 -44 18.5s-18 27.166 -18 44.499zM175 821c0 17.333 6 32.166 18 44.499
s27 18.5 45 18.5c17.333 0 32 -6.16699 44 -18.5s18 -27.166 18 -44.499s-6 -32.166 -18 -44.499s-26.667 -18.5 -44 -18.5c-18 0 -33 6.16699 -45 18.5s-18 27.166 -18 44.499zM211 0h-122v709h122v-709z" />
    <glyph glyph-name="Eth" unicode="&#xd0;" horiz-adv-x="739" 
d="M347 0h-250v319h-82v93h82v297h251c100 0 182.5 -31.667 247.5 -95s97.5 -150.333 97.5 -261c0 -110 -32.667 -196.333 -98 -259s-148 -94 -248 -94zM217 110h126.001c65.333 0 119.166 20.833 161.499 62.5s63.5 101.834 63.5 180.501c0 79.333 -21 140.166 -63 182.499
s-95.667 63.5 -161 63.5h-127v-187h131v-93h-131v-209z" />
    <glyph glyph-name="Ntilde" unicode="&#xd1;" horiz-adv-x="773" 
d="M554 886v-22.999c0 -35.333 -9.33301 -62.5 -28 -81.5s-42.334 -28.5 -71.001 -28.5c-23.333 0 -47.666 7.66699 -72.999 23l-10 7c-18 11.333 -33 17 -45 17c-8 0 -15 -2.83301 -21 -8.5s-9 -13.834 -9 -24.501v-10h-75v22c0 35.333 9.33301 62.5 28 81.5
s42.667 28.5 72 28.5c24 0 48.667 -7.66699 74 -23l10 -6c20 -11.333 34.333 -17 43 -17c20.667 0 31 11 31 33v10h74zM684 0.000976562h-125l-350 537v-537h-120v709h153l322 -503v503h120v-709z" />
    <glyph glyph-name="Ograve" unicode="&#xd2;" horiz-adv-x="809" 
d="M355 759l-143 124h148l103 -124h-108zM167 355c0 -80.667 23.333 -143.5 70 -188.5s102.334 -67.5 167.001 -67.5s120.5 22.5 167.5 67.5s70.5 107.833 70.5 188.5s-23.5 143.5 -70.5 188.5s-102.833 67.5 -167.5 67.5s-120.334 -22.5 -167.001 -67.5
s-70 -107.833 -70 -188.5zM44 355c0 74.667 17.167 140.5 51.5 197.5s78.5 99.833 132.5 128.5s112.667 43 176 43s122 -14.333 176 -43s98.333 -71.5 133 -128.5s52 -122.833 52 -197.5s-17.333 -140.667 -52 -198s-79 -100.333 -133 -129s-112.667 -43 -176 -43
s-122 14.333 -176 43s-98.167 71.667 -132.5 129s-51.5 123.333 -51.5 198z" />
    <glyph glyph-name="Oacute" unicode="&#xd3;" horiz-adv-x="809" 
d="M592 883l-142 -124h-109l102 124h149zM167 355c0 -80.667 23.333 -143.5 70 -188.5s102.334 -67.5 167.001 -67.5s120.5 22.5 167.5 67.5s70.5 107.833 70.5 188.5s-23.5 143.5 -70.5 188.5s-102.833 67.5 -167.5 67.5s-120.334 -22.5 -167.001 -67.5
s-70 -107.833 -70 -188.5zM44 355c0 74.667 17.167 140.5 51.5 197.5s78.5 99.833 132.5 128.5s112.667 43 176 43s122 -14.333 176 -43s98.333 -71.5 133 -128.5s52 -122.833 52 -197.5s-17.333 -140.667 -52 -198s-79 -100.333 -133 -129s-112.667 -43 -176 -43
s-122 14.333 -176 43s-98.167 71.667 -132.5 129s-51.5 123.333 -51.5 198z" />
    <glyph glyph-name="Ocircumflex" unicode="&#xd4;" horiz-adv-x="809" 
d="M330 759h-107l116 124h129l119 -124h-110l-75 64zM167 355c0 -80.667 23.333 -143.5 70 -188.5s102.334 -67.5 167.001 -67.5s120.5 22.5 167.5 67.5s70.5 107.833 70.5 188.5s-23.5 143.5 -70.5 188.5s-102.833 67.5 -167.5 67.5s-120.334 -22.5 -167.001 -67.5
s-70 -107.833 -70 -188.5zM44 355c0 74.667 17.167 140.5 51.5 197.5s78.5 99.833 132.5 128.5s112.667 43 176 43s122 -14.333 176 -43s98.333 -71.5 133 -128.5s52 -122.833 52 -197.5s-17.333 -140.667 -52 -198s-79 -100.333 -133 -129s-112.667 -43 -176 -43
s-122 14.333 -176 43s-98.167 71.667 -132.5 129s-51.5 123.333 -51.5 198z" />
    <glyph glyph-name="Otilde" unicode="&#xd5;" horiz-adv-x="809" 
d="M571 887v-22.999c0 -35.333 -9.33301 -62.5 -28 -81.5s-42.334 -28.5 -71.001 -28.5c-23.333 0 -47.666 7.66699 -72.999 23l-10 7c-18 11.333 -33 17 -45 17c-8 0 -15 -2.83301 -21 -8.5s-9 -13.834 -9 -24.501v-10h-75v22c0 35.333 9.33301 62.5 28 81.5
s42.667 28.5 72 28.5c24 0 48.667 -7.66699 74 -23l10 -6c20 -11.333 34.333 -17 43 -17c20.667 0 31 11 31 33v10h74zM167 355.001c0 -80.667 23.333 -143.5 70 -188.5s102.334 -67.5 167.001 -67.5s120.5 22.5 167.5 67.5s70.5 107.833 70.5 188.5
s-23.5 143.5 -70.5 188.5s-102.833 67.5 -167.5 67.5s-120.334 -22.5 -167.001 -67.5s-70 -107.833 -70 -188.5zM44 355.001c0 74.667 17.167 140.5 51.5 197.5s78.5 99.833 132.5 128.5s112.667 43 176 43s122 -14.333 176 -43s98.333 -71.5 133 -128.5
s52 -122.833 52 -197.5s-17.333 -140.667 -52 -198s-79 -100.333 -133 -129s-112.667 -43 -176 -43s-122 14.333 -176 43s-98.167 71.667 -132.5 129s-51.5 123.333 -51.5 198z" />
    <glyph glyph-name="Odieresis" unicode="&#xd6;" horiz-adv-x="809" 
d="M177 821c0 18.667 6.33301 34.5 19 47.5s28.334 19.5 47.001 19.5s34.5 -6.5 47.5 -19.5s19.5 -28.833 19.5 -47.5s-6.5 -34.334 -19.5 -47.001s-28.833 -19 -47.5 -19s-34.334 6.33301 -47.001 19s-19 28.334 -19 47.001zM500 821c0 18.667 6.33301 34.5 19 47.5
s28.334 19.5 47.001 19.5s34.5 -6.5 47.5 -19.5s19.5 -28.833 19.5 -47.5s-6.5 -34.334 -19.5 -47.001s-28.833 -19 -47.5 -19s-34.334 6.33301 -47.001 19s-19 28.334 -19 47.001zM167 355c0 -80.667 23.333 -143.5 70 -188.5s102.334 -67.5 167.001 -67.5
s120.5 22.5 167.5 67.5s70.5 107.833 70.5 188.5s-23.5 143.5 -70.5 188.5s-102.833 67.5 -167.5 67.5s-120.334 -22.5 -167.001 -67.5s-70 -107.833 -70 -188.5zM44 355c0 74.667 17.167 140.5 51.5 197.5s78.5 99.833 132.5 128.5s112.667 43 176 43s122 -14.333 176 -43
s98.333 -71.5 133 -128.5s52 -122.833 52 -197.5s-17.333 -140.667 -52 -198s-79 -100.333 -133 -129s-112.667 -43 -176 -43s-122 14.333 -176 43s-98.167 71.667 -132.5 129s-51.5 123.333 -51.5 198z" />
    <glyph glyph-name="multiply" unicode="&#xd7;" horiz-adv-x="576" 
d="M123 589l165 -170l166 170l70 -68l-167 -172l167 -171l-68 -70l-168 171l-167 -171l-69 70l167 171l-166 171z" />
    <glyph glyph-name="Oslash" unicode="&#xd8;" horiz-adv-x="809" 
d="M44 355c0 74.667 17.167 140.499 51.5 197.499s78.5 99.833 132.5 128.5s112.667 43 176 43c65.333 0 127.333 -16.667 186 -50l71 91l78 -60l-72 -92c65.333 -68.667 98 -154.667 98 -258c0 -74.667 -17.333 -140.667 -52 -198s-79 -100.333 -133 -129
s-112.667 -43 -176 -43c-67.333 0 -129 16 -185 48l-68 -88l-80 59l71 91c-65.333 68.667 -98 155.334 -98 260.001zM167 354.999c0 -66 16.333 -120.667 49 -164l303 391c-35.333 19.333 -73.666 29 -114.999 29c-64.667 0 -120.334 -22.5 -167.001 -67.5
s-70 -107.833 -70 -188.5zM642 354.999c0 62.667 -16 116.667 -48 162l-303 -391c35.333 -18 73 -27 113 -27c64.667 0 120.5 22.5 167.5 67.5s70.5 107.833 70.5 188.5z" />
    <glyph glyph-name="Ugrave" unicode="&#xd9;" horiz-adv-x="693" 
d="M312 759l-143 124h148l103 -124h-108zM346 -15c-77.333 0 -140.667 23 -190 69s-74 110.333 -74 193v462h119v-455c0 -49.333 12.833 -87.5 38.5 -114.5s61.167 -40.5 106.5 -40.5c46 0 81.667 13.333 107 40s38 65 38 115v455h120v-462
c0 -82.667 -24.833 -147 -74.5 -193s-113.167 -69 -190.5 -69z" />
    <glyph glyph-name="Uacute" unicode="&#xda;" horiz-adv-x="693" 
d="M518 883l-142 -124h-109l102 124h149zM346 -15c-77.333 0 -140.667 23 -190 69s-74 110.333 -74 193v462h119v-455c0 -49.333 12.833 -87.5 38.5 -114.5s61.167 -40.5 106.5 -40.5c46 0 81.667 13.333 107 40s38 65 38 115v455h120v-462
c0 -82.667 -24.833 -147 -74.5 -193s-113.167 -69 -190.5 -69z" />
    <glyph glyph-name="Ucircumflex" unicode="&#xdb;" horiz-adv-x="693" 
d="M272 759h-107l116 124h129l119 -124h-110l-75 64zM346 -15c-77.333 0 -140.667 23 -190 69s-74 110.333 -74 193v462h119v-455c0 -49.333 12.833 -87.5 38.5 -114.5s61.167 -40.5 106.5 -40.5c46 0 81.667 13.333 107 40s38 65 38 115v455h120v-462
c0 -82.667 -24.833 -147 -74.5 -193s-113.167 -69 -190.5 -69z" />
    <glyph glyph-name="Udieresis" unicode="&#xdc;" horiz-adv-x="693" 
d="M163 821c0 18.667 6.33301 34.5 19 47.5s28.334 19.5 47.001 19.5s34.334 -6.5 47.001 -19.5s19 -28.833 19 -47.5s-6.33301 -34.334 -19 -47.001s-28.334 -19 -47.001 -19s-34.334 6.33301 -47.001 19s-19 28.334 -19 47.001zM399 821c0 18.667 6.33301 34.5 19 47.5
s28.334 19.5 47.001 19.5s34.334 -6.5 47.001 -19.5s19 -28.833 19 -47.5s-6.33301 -34.334 -19 -47.001s-28.334 -19 -47.001 -19s-34.334 6.33301 -47.001 19s-19 28.334 -19 47.001zM346 -15c-77.333 0 -140.667 23 -190 69s-74 110.333 -74 193v462h119v-455
c0 -49.333 12.833 -87.5 38.5 -114.5s61.167 -40.5 106.5 -40.5c46 0 81.667 13.333 107 40s38 65 38 115v455h120v-462c0 -82.667 -24.833 -147 -74.5 -193s-113.167 -69 -190.5 -69z" />
    <glyph glyph-name="Yacute" unicode="&#xdd;" horiz-adv-x="651" 
d="M265 300l-248 409h142l170 -297l171 297h135l-250 -409v-300h-120v300zM501 883l-142 -124h-109l102 124h149z" />
    <glyph glyph-name="Thorn" unicode="&#xde;" horiz-adv-x="605" 
d="M209 251h125c38 0 67.833 9.83301 89.5 29.5s32.5 46.167 32.5 79.5c0 34.667 -10.833 62 -32.5 82s-51.5 30 -89.5 30h-125v-221zM347 147h-137.999v-147h-120v709h120v-133h137c66.667 0 122 -20.5 166 -61.5s66 -92.167 66 -153.5s-21.833 -112.333 -65.5 -153
s-98.834 -61 -165.501 -61z" />
    <glyph glyph-name="germandbls" unicode="&#xdf;" horiz-adv-x="591" 
d="M378 343c0.666992 -10 4.00195 -17.835 10.002 -23.502s16.333 -11.5 31 -17.5l33 -15c32 -14 58 -34.167 78 -60.5s30 -56.5 30 -90.5c0 -38.667 -14.833 -73.5 -44.5 -104.5s-71.834 -46.5 -126.501 -46.5s-96 14.833 -124 44.5s-42.333 62.167 -43 97.5l96 22
c0.666992 -18 6.66699 -34.667 18 -50s29 -23 53 -23c19.333 0 34.333 5.33301 45 16s16 22.667 16 36c0 27.333 -16.667 48.333 -50 63l-32 14c-20 8.66699 -36.833 17.334 -50.5 26.001s-26.5 22.167 -38.5 40.5s-18 39.5 -18 63.5c0 47.333 21.667 85 65 113l25 17
c35.333 22 53 47.667 53 77c0 22.667 -8.83301 41.667 -26.5 57s-42.834 23 -75.501 23s-60.167 -12 -82.5 -36s-33.5 -58.667 -33.5 -104v-482h-114v489c0 74 22 131.667 66 173s98.667 62 164 62c64.667 0 117 -17 157 -51s60 -76 60 -126
c0 -61.333 -29.333 -111 -88 -149l-24 -15c-19.333 -11.333 -29 -24.666 -29 -39.999z" />
    <glyph glyph-name="agrave" unicode="&#xe0;" horiz-adv-x="532" 
d="M42 132c0 41.333 13.498 74.5 40.498 99.5s62.5 40.833 106.5 47.5l125 19c24 3.33301 36 15 36 35c0 22 -7.66699 39.833 -23 53.5s-38.333 20.5 -69 20.5c-29.333 0 -52.666 -8.16699 -69.999 -24.5s-27.333 -37.5 -30 -63.5l-106 24c4.66699 44 25.667 81.5 63 112.5
s84.666 46.5 141.999 46.5c70.667 0 122.834 -17 156.501 -51s50.5 -77.667 50.5 -131v-242c0 -32 2 -58 6 -78h-108c-3.33301 10 -5 30.667 -5 62c-32 -51.333 -82 -77 -150 -77c-49.333 0 -89.166 14.5 -119.499 43.5s-45.5 63.5 -45.5 103.5zM228.998 76
c36 0 65.167 9.83105 87.5 29.498s33.5 51.834 33.5 96.501v22l-127 -19c-43.333 -7.33301 -65 -29.333 -65 -66c0 -17.333 6.33301 -32.166 19 -44.499s30 -18.5 52 -18.5zM226.998 547.998l-132 148h139l88 -148h-95z" />
    <glyph glyph-name="aacute" unicode="&#xe1;" horiz-adv-x="532" 
d="M42 132c0 41.333 13.498 74.5 40.498 99.5s62.5 40.833 106.5 47.5l125 19c24 3.33301 36 15 36 35c0 22 -7.66699 39.833 -23 53.5s-38.333 20.5 -69 20.5c-29.333 0 -52.666 -8.16699 -69.999 -24.5s-27.333 -37.5 -30 -63.5l-106 24c4.66699 44 25.667 81.5 63 112.5
s84.666 46.5 141.999 46.5c70.667 0 122.834 -17 156.501 -51s50.5 -77.667 50.5 -131v-242c0 -32 2 -58 6 -78h-108c-3.33301 10 -5 30.667 -5 62c-32 -51.333 -82 -77 -150 -77c-49.333 0 -89.166 14.5 -119.499 43.5s-45.5 63.5 -45.5 103.5zM228.998 76
c36 0 65.167 9.83105 87.5 29.498s33.5 51.834 33.5 96.501v22l-127 -19c-43.333 -7.33301 -65 -29.333 -65 -66c0 -17.333 6.33301 -32.166 19 -44.499s30 -18.5 52 -18.5zM418.998 695.998l-131 -148h-95l89 148h137z" />
    <glyph glyph-name="acircumflex" unicode="&#xe2;" horiz-adv-x="532" 
d="M42 132c0 41.333 13.498 74.5 40.498 99.5s62.5 40.833 106.5 47.5l125 19c24 3.33301 36 15 36 35c0 22 -7.66699 39.833 -23 53.5s-38.333 20.5 -69 20.5c-29.333 0 -52.666 -8.16699 -69.999 -24.5s-27.333 -37.5 -30 -63.5l-106 24c4.66699 44 25.667 81.5 63 112.5
s84.666 46.5 141.999 46.5c70.667 0 122.834 -17 156.501 -51s50.5 -77.667 50.5 -131v-242c0 -32 2 -58 6 -78h-108c-3.33301 10 -5 30.667 -5 62c-32 -51.333 -82 -77 -150 -77c-49.333 0 -89.166 14.5 -119.499 43.5s-45.5 63.5 -45.5 103.5zM228.998 76
c36 0 65.167 9.83105 87.5 29.498s33.5 51.834 33.5 96.501v22l-127 -19c-43.333 -7.33301 -65 -29.333 -65 -66c0 -17.333 6.33301 -32.166 19 -44.499s30 -18.5 52 -18.5zM189.998 548.998h-97l107 143h121l108 -143h-99l-70 77z" />
    <glyph glyph-name="atilde" unicode="&#xe3;" horiz-adv-x="532" 
d="M42 132c0 41.333 13.498 74.5 40.498 99.5s62.5 40.833 106.5 47.5l125 19c24 3.33301 36 15 36 35c0 22 -7.66699 39.833 -23 53.5s-38.333 20.5 -69 20.5c-29.333 0 -52.666 -8.16699 -69.999 -24.5s-27.333 -37.5 -30 -63.5l-106 24c4.66699 44 25.667 81.5 63 112.5
s84.666 46.5 141.999 46.5c70.667 0 122.834 -17 156.501 -51s50.5 -77.667 50.5 -131v-242c0 -32 2 -58 6 -78h-108c-3.33301 10 -5 30.667 -5 62c-32 -51.333 -82 -77 -150 -77c-49.333 0 -89.166 14.5 -119.499 43.5s-45.5 63.5 -45.5 103.5zM228.998 76
c36 0 65.167 9.83105 87.5 29.498s33.5 51.834 33.5 96.501v22l-127 -19c-43.333 -7.33301 -65 -29.333 -65 -66c0 -17.333 6.33301 -32.166 19 -44.499s30 -18.5 52 -18.5zM98.998 555.998l-1 17.999c0 37.333 9.5 65.833 28.5 85.5s43.833 29.5 74.5 29.5
c22 0 45.333 -7.33301 70 -22l10 -6c18.667 -11.333 33 -17 43 -17c20.667 0 31 14.667 31 44h76v-17c0 -37.333 -9.5 -66.166 -28.5 -86.499s-43.5 -30.5 -73.5 -30.5c-22 0 -45.667 7.66699 -71 23l-10 6c-18 10.667 -32.333 16 -43 16c-20 0 -30 -14.333 -30 -43h-76z
" />
    <glyph glyph-name="adieresis" unicode="&#xe4;" horiz-adv-x="532" 
d="M42 132c0 41.333 13.498 74.5 40.498 99.5s62.5 40.833 106.5 47.5l125 19c24 3.33301 36 15 36 35c0 22 -7.66699 39.833 -23 53.5s-38.333 20.5 -69 20.5c-29.333 0 -52.666 -8.16699 -69.999 -24.5s-27.333 -37.5 -30 -63.5l-106 24c4.66699 44 25.667 81.5 63 112.5
s84.666 46.5 141.999 46.5c70.667 0 122.834 -17 156.501 -51s50.5 -77.667 50.5 -131v-242c0 -32 2 -58 6 -78h-108c-3.33301 10 -5 30.667 -5 62c-32 -51.333 -82 -77 -150 -77c-49.333 0 -89.166 14.5 -119.499 43.5s-45.5 63.5 -45.5 103.5zM228.998 76
c36 0 65.167 9.83105 87.5 29.498s33.5 51.834 33.5 96.501v22l-127 -19c-43.333 -7.33301 -65 -29.333 -65 -66c0 -17.333 6.33301 -32.166 19 -44.499s30 -18.5 52 -18.5zM95.998 624.998c0 18 6.16699 33.333 18.5 46s27.5 19 45.5 19
c18.667 0 34.334 -6.33301 47.001 -19s19 -28 19 -46c0 -18.667 -6.33301 -34.167 -19 -46.5s-28.334 -18.5 -47.001 -18.5c-18 0 -33.167 6.16699 -45.5 18.5s-18.5 27.833 -18.5 46.5zM295.998 624.998c0 18 6.16699 33.333 18.5 46s27.5 19 45.5 19
s33.333 -6.33301 46 -19s19 -28 19 -46c0 -18.667 -6.33301 -34.167 -19 -46.5s-28 -18.5 -46 -18.5s-33.167 6.16699 -45.5 18.5s-18.5 27.833 -18.5 46.5z" />
    <glyph glyph-name="aring" unicode="&#xe5;" horiz-adv-x="532" 
d="M42 132c0 41.333 13.498 74.5 40.498 99.5s62.5 40.833 106.5 47.5l125 19c24 3.33301 36 15 36 35c0 22 -7.66699 39.833 -23 53.5s-38.333 20.5 -69 20.5c-29.333 0 -52.666 -8.16699 -69.999 -24.5s-27.333 -37.5 -30 -63.5l-106 24c4.66699 44 25.667 81.5 63 112.5
s84.666 46.5 141.999 46.5c70.667 0 122.834 -17 156.501 -51s50.5 -77.667 50.5 -131v-242c0 -32 2 -58 6 -78h-108c-3.33301 10 -5 30.667 -5 62c-32 -51.333 -82 -77 -150 -77c-49.333 0 -89.166 14.5 -119.499 43.5s-45.5 63.5 -45.5 103.5zM228.998 76
c36 0 65.167 9.83105 87.5 29.498s33.5 51.834 33.5 96.501v22l-127 -19c-43.333 -7.33301 -65 -29.333 -65 -66c0 -17.333 6.33301 -32.166 19 -44.499s30 -18.5 52 -18.5zM369.998 647.998c0 -31.333 -11.167 -57.5 -33.5 -78.5s-49.166 -31.5 -80.499 -31.5
c-30.667 0 -57.167 10.667 -79.5 32s-33.5 47.333 -33.5 78c0 31.333 11.167 57.666 33.5 78.999s48.833 32 79.5 32c31.333 0 58.166 -10.667 80.499 -32s33.5 -47.666 33.5 -78.999zM299.998 647.998c0 13.333 -4.33301 24.168 -13 32.501s-19.334 12.5 -32.001 12.5
c-12 0 -22.167 -4.33301 -30.5 -13s-12.5 -19.334 -12.5 -32.001s4.16699 -23.167 12.5 -31.5s18.5 -12.5 30.5 -12.5c12.667 0 23.334 4.16699 32.001 12.5s13 18.833 13 31.5z" />
    <glyph glyph-name="ae" unicode="&#xe6;" horiz-adv-x="871" 
d="M727 171l98 -32c-13.333 -44 -40 -80.667 -80 -110s-87.333 -44 -142 -44c-39.333 0 -76 8.33301 -110 25s-62.333 40 -85 70c-42 -63.333 -104.667 -95 -188 -95c-55.333 0 -99 14.333 -131 43s-48 63.334 -48 104.001c0 41.333 13.5 74.5 40.5 99.5
s62.5 40.833 106.5 47.5l132 19c24.667 3.33301 37 15 37 35c0 21.333 -8.5 39.166 -25.5 53.499s-40.833 21.5 -71.5 21.5c-30 0 -54.667 -8.33301 -74 -25s-30.333 -37 -33 -61l-102 21c4 44 26.167 81.5 66.5 112.5s88.166 46.5 143.499 46.5c76 0 132 -23.667 168 -71
c45.333 47.333 100.333 71 165 71c74 0 131.833 -22.667 173.5 -68s62.5 -107 62.5 -185c0 -12.667 -0.666992 -25 -2 -37h-358c1.33301 -37.333 14.833 -67.833 40.5 -91.5s56.834 -35.5 93.501 -35.5c62 0 103 28.667 123 86zM232 76c34 0 63.334 10 88.001 30
s37 51.667 37 95v23l-135 -19c-43.333 -6 -65 -28.667 -65 -68c0 -16.667 6.66699 -31 20 -43s31.666 -18 54.999 -18zM473.001 297h241.001c-1.33301 30.667 -12.333 56.334 -33 77.001s-50 31 -88 31c-34.667 0 -62.834 -10.833 -84.501 -32.5
s-33.5 -46.834 -35.5 -75.501z" />
    <glyph glyph-name="ccedilla" unicode="&#xe7;" horiz-adv-x="549" 
d="M259 -106l-34.9971 43l33 51c-62.667 8 -114.334 35.833 -155.001 83.5s-61 105.167 -61 172.5c0 74.667 23.833 136.334 71.5 185.001s106.834 73 177.501 73c60.667 0 110.167 -15.667 148.5 -47s63.166 -69 74.499 -113l-104 -38
c-6.66699 25.333 -19.5 46.833 -38.5 64.5s-45.5 26.5 -79.5 26.5c-37.333 0 -69 -13.5 -95 -40.5s-39 -63.833 -39 -110.5c0 -47.333 13.167 -84.666 39.5 -111.999s58.5 -41 96.5 -41c34 0 61.167 9.16699 81.5 27.5s33.833 39.166 40.5 62.499l102 -37
c-12 -38 -33.5 -71.833 -64.5 -101.5s-70.5 -47.834 -118.5 -54.501l-23 -36c28.667 -0.666992 52 -8.66699 70 -24s27 -35.333 27 -60c0 -26 -10.167 -47.833 -30.5 -65.5s-51.166 -26.5 -92.499 -26.5c-24.667 0 -47.334 4.66699 -68.001 14
s-36.334 20.666 -47.001 33.999l41 50c23.333 -23.333 47.666 -35 72.999 -35c29.333 0 44 10 44 30c0 8.66699 -3.66699 15.834 -11 21.501s-17.333 8.5 -30 8.5c-10 0 -19.333 -1.66699 -28 -5z" />
    <glyph glyph-name="egrave" unicode="&#xe8;" horiz-adv-x="557" 
d="M160 297h238.999c-1.33301 30.667 -12.166 56.334 -32.499 77.001s-49.5 31 -87.5 31c-34.667 0 -62.667 -10.833 -84 -32.5s-33 -46.834 -35 -75.501zM411.999 170l97.998 -30.999c-14 -44.667 -40.167 -81.5 -78.5 -110.5s-85.5 -43.5 -141.5 -43.5
c-69.333 0 -128.166 23.667 -176.499 71s-72.5 110.666 -72.5 189.999c0 74.667 23.5 136 70.5 184s102.5 72 166.5 72c74.667 0 133 -22.833 175 -68.5s63 -107.167 63 -184.5c0 -20.667 -1 -33 -3 -37h-356c1.33301 -36.667 14.833 -67 40.5 -91s56.5 -36 92.5 -36
c62.667 0 103.334 28.333 122.001 85zM247.997 548.001l-132 148h139l88 -148h-95z" />
    <glyph glyph-name="eacute" unicode="&#xe9;" horiz-adv-x="557" 
d="M452 696l-131 -148h-95l89 148h137zM160 297h238.999c-1.33301 30.667 -12.166 56.334 -32.499 77.001s-49.5 31 -87.5 31c-34.667 0 -62.667 -10.833 -84 -32.5s-33 -46.834 -35 -75.501zM411.999 170l97.998 -30.999c-14 -44.667 -40.167 -81.5 -78.5 -110.5
s-85.5 -43.5 -141.5 -43.5c-69.333 0 -128.166 23.667 -176.499 71s-72.5 110.666 -72.5 189.999c0 74.667 23.5 136 70.5 184s102.5 72 166.5 72c74.667 0 133 -22.833 175 -68.5s63 -107.167 63 -184.5c0 -20.667 -1 -33 -3 -37h-356c1.33301 -36.667 14.833 -67 40.5 -91
s56.5 -36 92.5 -36c62.667 0 103.334 28.333 122.001 85z" />
    <glyph glyph-name="ecircumflex" unicode="&#xea;" horiz-adv-x="557" 
d="M214 549h-97l107 143h121l108 -143h-99l-70 77zM160 297h238.999c-1.33301 30.667 -12.166 56.334 -32.499 77.001s-49.5 31 -87.5 31c-34.667 0 -62.667 -10.833 -84 -32.5s-33 -46.834 -35 -75.501zM411.999 170l97.998 -30.999
c-14 -44.667 -40.167 -81.5 -78.5 -110.5s-85.5 -43.5 -141.5 -43.5c-69.333 0 -128.166 23.667 -176.499 71s-72.5 110.666 -72.5 189.999c0 74.667 23.5 136 70.5 184s102.5 72 166.5 72c74.667 0 133 -22.833 175 -68.5s63 -107.167 63 -184.5c0 -20.667 -1 -33 -3 -37
h-356c1.33301 -36.667 14.833 -67 40.5 -91s56.5 -36 92.5 -36c62.667 0 103.334 28.333 122.001 85z" />
    <glyph glyph-name="edieresis" unicode="&#xeb;" horiz-adv-x="557" 
d="M119 625c0 18 6.16699 33.333 18.5 46s27.5 19 45.5 19c18.667 0 34.334 -6.33301 47.001 -19s19 -28 19 -46c0 -18.667 -6.33301 -34.167 -19 -46.5s-28.334 -18.5 -47.001 -18.5c-18 0 -33.167 6.16699 -45.5 18.5s-18.5 27.833 -18.5 46.5zM319 625
c0 18 6.16699 33.333 18.5 46s27.5 19 45.5 19s33.333 -6.33301 46 -19s19 -28 19 -46c0 -18.667 -6.33301 -34.167 -19 -46.5s-28 -18.5 -46 -18.5s-33.167 6.16699 -45.5 18.5s-18.5 27.833 -18.5 46.5zM160 297h238.999c-1.33301 30.667 -12.166 56.334 -32.499 77.001
s-49.5 31 -87.5 31c-34.667 0 -62.667 -10.833 -84 -32.5s-33 -46.834 -35 -75.501zM411.999 170l97.998 -30.999c-14 -44.667 -40.167 -81.5 -78.5 -110.5s-85.5 -43.5 -141.5 -43.5c-69.333 0 -128.166 23.667 -176.499 71s-72.5 110.666 -72.5 189.999
c0 74.667 23.5 136 70.5 184s102.5 72 166.5 72c74.667 0 133 -22.833 175 -68.5s63 -107.167 63 -184.5c0 -20.667 -1 -33 -3 -37h-356c1.33301 -36.667 14.833 -67 40.5 -91s56.5 -36 92.5 -36c62.667 0 103.334 28.333 122.001 85z" />
    <glyph glyph-name="igrave" unicode="&#xec;" horiz-adv-x="259" 
d="M187 0h-115v487h115v-487zM90 548l-132 148h139l88 -148h-95z" />
    <glyph glyph-name="iacute" unicode="&#xed;" horiz-adv-x="259" 
d="M304 696l-131 -148h-95l89 148h137zM187 0h-115v487h115v-487z" />
    <glyph glyph-name="icircumflex" unicode="&#xee;" horiz-adv-x="259" 
d="M59 549h-97l107 143h121l108 -143h-99l-70 77zM187 0h-115v487h115v-487z" />
    <glyph glyph-name="idieresis" unicode="&#xef;" horiz-adv-x="259" 
d="M-13 625c0 17.333 5.83301 32 17.5 44s26.167 18 43.5 18s32 -6 44 -18s18 -26.667 18 -44s-6 -31.833 -18 -43.5s-26.667 -17.5 -44 -17.5s-31.833 5.83301 -43.5 17.5s-17.5 26.167 -17.5 43.5zM149 625c0 17.333 5.83301 32 17.5 44s26.167 18 43.5 18s32 -6 44 -18
s18 -26.667 18 -44s-6 -31.833 -18 -43.5s-26.667 -17.5 -44 -17.5s-31.833 5.83301 -43.5 17.5s-17.5 26.167 -17.5 43.5zM187 0h-115v487h115v-487z" />
    <glyph glyph-name="eth" unicode="&#xf0;" horiz-adv-x="593" 
d="M500 629l-77.998 -35.001c82 -85.333 123 -193.333 123 -324c0 -82 -22.333 -149.833 -67 -203.5s-106.334 -80.5 -185.001 -80.5c-72.667 0 -132.667 23 -180 69s-71 103.667 -71 173c0 72 23.667 129.167 71 171.5s102.333 63.5 165 63.5
c59.333 0 101.666 -14.667 126.999 -44c-16.667 49.333 -45 92.333 -85 129l-135 -61l-31 72l92 42c-29.333 16.667 -67 32 -113 46l36 89c70 -17.333 132.333 -45.666 187 -84.999l112 51zM293.002 88.999c38 0 70 12.5 96 37.5s39 59.167 39 102.5
c0 44 -13 78.333 -39 103s-58 37 -96 37c-37.333 0 -69.333 -12.5 -96 -37.5s-40 -59.167 -40 -102.5s13.333 -77.5 40 -102.5s58.667 -37.5 96 -37.5z" />
    <glyph glyph-name="ntilde" unicode="&#xf1;" horiz-adv-x="572" 
d="M188 281v-281.001h-116v487h113v-65c15.333 26.667 35.833 46.5 61.5 59.5s53.167 19.5 82.5 19.5c57.333 0 101 -18 131 -54s45 -82.333 45 -139v-308h-116v288c0 32.667 -8 58.834 -24 78.501s-41.333 29.5 -76 29.5c-32 0 -56.833 -10.833 -74.5 -32.5
s-26.5 -49.167 -26.5 -82.5zM130 555.999l-1 17.999c0 37.333 9.5 65.833 28.5 85.5s43.833 29.5 74.5 29.5c22 0 45.333 -7.33301 70 -22l10 -6c18.667 -11.333 33 -17 43 -17c20.667 0 31 14.667 31 44h76v-17c0 -37.333 -9.5 -66.166 -28.5 -86.499
s-43.5 -30.5 -73.5 -30.5c-22 0 -45.667 7.66699 -71 23l-10 6c-18 10.667 -32.333 16 -43 16c-20 0 -30 -14.333 -30 -43h-76z" />
    <glyph glyph-name="ograve" unicode="&#xf2;" horiz-adv-x="587" 
d="M293 89c38 0 70.167 13.667 96.5 41s39.5 65.333 39.5 114c0 48 -13.167 85.5 -39.5 112.5s-58.5 40.5 -96.5 40.5s-70.167 -13.5 -96.5 -40.5s-39.5 -64.5 -39.5 -112.5s13.167 -85.833 39.5 -113.5s58.5 -41.5 96.5 -41.5zM293 502c73.333 0 133.833 -24.333 181.5 -73
s71.5 -110.334 71.5 -185.001s-23.833 -136.5 -71.5 -185.5s-108.167 -73.5 -181.5 -73.5c-72.667 0 -132.834 24.5 -180.501 73.5s-71.5 110.833 -71.5 185.5s23.833 136.334 71.5 185.001s107.834 73 180.501 73zM251 548l-132 148h139l88 -148h-95z" />
    <glyph glyph-name="oacute" unicode="&#xf3;" horiz-adv-x="587" 
d="M462 696l-131 -148h-95l89 148h137zM293 89c38 0 70.167 13.667 96.5 41s39.5 65.333 39.5 114c0 48 -13.167 85.5 -39.5 112.5s-58.5 40.5 -96.5 40.5s-70.167 -13.5 -96.5 -40.5s-39.5 -64.5 -39.5 -112.5s13.167 -85.833 39.5 -113.5s58.5 -41.5 96.5 -41.5zM293 502
c73.333 0 133.833 -24.333 181.5 -73s71.5 -110.334 71.5 -185.001s-23.833 -136.5 -71.5 -185.5s-108.167 -73.5 -181.5 -73.5c-72.667 0 -132.834 24.5 -180.501 73.5s-71.5 110.833 -71.5 185.5s23.833 136.334 71.5 185.001s107.834 73 180.501 73z" />
    <glyph glyph-name="ocircumflex" unicode="&#xf4;" horiz-adv-x="587" 
d="M224 549h-97l107 143h121l108 -143h-99l-70 77zM293 89c38 0 70.167 13.667 96.5 41s39.5 65.333 39.5 114c0 48 -13.167 85.5 -39.5 112.5s-58.5 40.5 -96.5 40.5s-70.167 -13.5 -96.5 -40.5s-39.5 -64.5 -39.5 -112.5s13.167 -85.833 39.5 -113.5
s58.5 -41.5 96.5 -41.5zM293 502c73.333 0 133.833 -24.333 181.5 -73s71.5 -110.334 71.5 -185.001s-23.833 -136.5 -71.5 -185.5s-108.167 -73.5 -181.5 -73.5c-72.667 0 -132.834 24.5 -180.501 73.5s-71.5 110.833 -71.5 185.5s23.833 136.334 71.5 185.001
s107.834 73 180.501 73z" />
    <glyph glyph-name="otilde" unicode="&#xf5;" horiz-adv-x="587" 
d="M293 89c38 0 70.167 13.667 96.5 41s39.5 65.333 39.5 114c0 48 -13.167 85.5 -39.5 112.5s-58.5 40.5 -96.5 40.5s-70.167 -13.5 -96.5 -40.5s-39.5 -64.5 -39.5 -112.5s13.167 -85.833 39.5 -113.5s58.5 -41.5 96.5 -41.5zM293 502c73.333 0 133.833 -24.333 181.5 -73
s71.5 -110.334 71.5 -185.001s-23.833 -136.5 -71.5 -185.5s-108.167 -73.5 -181.5 -73.5c-72.667 0 -132.834 24.5 -180.501 73.5s-71.5 110.833 -71.5 185.5s23.833 136.334 71.5 185.001s107.834 73 180.501 73zM130 556l-1 17.999c0 37.333 9.5 65.833 28.5 85.5
s43.833 29.5 74.5 29.5c22 0 45.333 -7.33301 70 -22l10 -6c18.667 -11.333 33 -17 43 -17c20.667 0 31 14.667 31 44h76v-17c0 -37.333 -9.5 -66.166 -28.5 -86.499s-43.5 -30.5 -73.5 -30.5c-22 0 -45.667 7.66699 -71 23l-10 6c-18 10.667 -32.333 16 -43 16
c-20 0 -30 -14.333 -30 -43h-76z" />
    <glyph glyph-name="odieresis" unicode="&#xf6;" horiz-adv-x="587" 
d="M128 625c0 18 6.16699 33.333 18.5 46s27.5 19 45.5 19c18.667 0 34.334 -6.33301 47.001 -19s19 -28 19 -46c0 -18.667 -6.33301 -34.167 -19 -46.5s-28.334 -18.5 -47.001 -18.5c-18 0 -33.167 6.16699 -45.5 18.5s-18.5 27.833 -18.5 46.5zM328 625
c0 18 6.16699 33.333 18.5 46s27.5 19 45.5 19s33.333 -6.33301 46 -19s19 -28 19 -46c0 -18.667 -6.33301 -34.167 -19 -46.5s-28 -18.5 -46 -18.5s-33.167 6.16699 -45.5 18.5s-18.5 27.833 -18.5 46.5zM293 89c38 0 70.167 13.667 96.5 41s39.5 65.333 39.5 114
c0 48 -13.167 85.5 -39.5 112.5s-58.5 40.5 -96.5 40.5s-70.167 -13.5 -96.5 -40.5s-39.5 -64.5 -39.5 -112.5s13.167 -85.833 39.5 -113.5s58.5 -41.5 96.5 -41.5zM293 502c73.333 0 133.833 -24.333 181.5 -73s71.5 -110.334 71.5 -185.001s-23.833 -136.5 -71.5 -185.5
s-108.167 -73.5 -181.5 -73.5c-72.667 0 -132.834 24.5 -180.501 73.5s-71.5 110.833 -71.5 185.5s23.833 136.334 71.5 185.001s107.834 73 180.501 73z" />
    <glyph glyph-name="divide" unicode="&#xf7;" horiz-adv-x="571" 
d="M211 168c0 20 7.16699 37 21.5 51s31.5 21 51.5 21c19.333 0 36 -7 50 -21s21 -31 21 -51c0 -19.333 -7 -36.166 -21 -50.499s-30.667 -21.5 -50 -21.5c-20 0 -37.167 7.16699 -51.5 21.5s-21.5 31.166 -21.5 50.499zM523 299h-475v99h475v-99zM211 530
c0 19.333 7.16699 36 21.5 50s31.5 21 51.5 21c19.333 0 36 -7 50 -21s21 -30.667 21 -50s-7 -36.333 -21 -51s-30.667 -22 -50 -22c-20 0 -37.167 7.33301 -51.5 22s-21.5 31.667 -21.5 51z" />
    <glyph glyph-name="oslash" unicode="&#xf8;" horiz-adv-x="587" 
d="M293 502c47.333 0 90.332 -11.001 128.999 -33.001l52 65l62 -51l-52 -65c41.333 -48 62 -106 62 -174c0 -74.667 -23.833 -136.5 -71.5 -185.5s-108.167 -73.5 -181.5 -73.5c-46.667 0 -88.667 10.667 -126 32l-50 -63l-63 51l50 63c-42 47.333 -63 106 -63 176
c0 74.667 23.833 136.334 71.5 185.001s107.834 73 180.501 73zM156.999 243.999c0 -32.667 6.33301 -61 19 -85l178 224c-20 9.33301 -40.333 14 -61 14c-38 0 -70.167 -13.5 -96.5 -40.5s-39.5 -64.5 -39.5 -112.5zM292.999 88.999c38 0 70.167 13.667 96.5 41
s39.5 65.333 39.5 114c0 30.667 -6 58 -18 82l-177 -224c17.333 -8.66699 37 -13 59 -13z" />
    <glyph glyph-name="ugrave" unicode="&#xf9;" horiz-adv-x="571" 
d="M389 54c-11.333 -21.333 -29.834 -37.999 -55.501 -49.999s-53.167 -18 -82.5 -18c-56.667 0 -101.5 18.333 -134.5 55s-49.5 83 -49.5 139v307h116v-286c0 -32.667 8 -59.334 24 -80.001s40.667 -31 74 -31c32.667 0 57.834 10 75.501 30s26.5 46.333 26.5 79v288h116
v-398c0 -29.333 1.66699 -59 5 -89h-111c-2.66699 14.667 -4 32.667 -4 54zM253.999 548.001l-132 148h139l88 -148h-95z" />
    <glyph glyph-name="uacute" unicode="&#xfa;" horiz-adv-x="571" 
d="M432 696l-131 -148h-95l89 148h137zM389 54c-11.333 -21.333 -29.834 -37.999 -55.501 -49.999s-53.167 -18 -82.5 -18c-56.667 0 -101.5 18.333 -134.5 55s-49.5 83 -49.5 139v307h116v-286c0 -32.667 8 -59.334 24 -80.001s40.667 -31 74 -31
c32.667 0 57.834 10 75.501 30s26.5 46.333 26.5 79v288h116v-398c0 -29.333 1.66699 -59 5 -89h-111c-2.66699 14.667 -4 32.667 -4 54z" />
    <glyph glyph-name="ucircumflex" unicode="&#xfb;" horiz-adv-x="571" 
d="M213 549h-97l107 143h121l108 -143h-99l-70 77zM389 54c-11.333 -21.333 -29.834 -37.999 -55.501 -49.999s-53.167 -18 -82.5 -18c-56.667 0 -101.5 18.333 -134.5 55s-49.5 83 -49.5 139v307h116v-286c0 -32.667 8 -59.334 24 -80.001s40.667 -31 74 -31
c32.667 0 57.834 10 75.501 30s26.5 46.333 26.5 79v288h116v-398c0 -29.333 1.66699 -59 5 -89h-111c-2.66699 14.667 -4 32.667 -4 54z" />
    <glyph glyph-name="udieresis" unicode="&#xfc;" horiz-adv-x="571" 
d="M119 625c0 18 6.16699 33.333 18.5 46s27.5 19 45.5 19c18.667 0 34.334 -6.33301 47.001 -19s19 -28 19 -46c0 -18.667 -6.33301 -34.167 -19 -46.5s-28.334 -18.5 -47.001 -18.5c-18 0 -33.167 6.16699 -45.5 18.5s-18.5 27.833 -18.5 46.5zM319 625
c0 18 6.16699 33.333 18.5 46s27.5 19 45.5 19s33.333 -6.33301 46 -19s19 -28 19 -46c0 -18.667 -6.33301 -34.167 -19 -46.5s-28 -18.5 -46 -18.5s-33.167 6.16699 -45.5 18.5s-18.5 27.833 -18.5 46.5zM389 54c-11.333 -21.333 -29.834 -37.999 -55.501 -49.999
s-53.167 -18 -82.5 -18c-56.667 0 -101.5 18.333 -134.5 55s-49.5 83 -49.5 139v307h116v-286c0 -32.667 8 -59.334 24 -80.001s40.667 -31 74 -31c32.667 0 57.834 10 75.501 30s26.5 46.333 26.5 79v288h116v-398c0 -29.333 1.66699 -59 5 -89h-111
c-2.66699 14.667 -4 32.667 -4 54z" />
    <glyph glyph-name="yacute" unicode="&#xfd;" horiz-adv-x="551" 
d="M230 -197h-124l117 255l-208 429h131l140 -308l131 308h123zM438 696l-131 -148h-95l89 148h137z" />
    <glyph glyph-name="thorn" unicode="&#xfe;" horiz-adv-x="606" 
d="M187 -190h-115v914h116v-297c14 20.667 34.167 37.667 60.5 51s56.5 20 90.5 20c70 0 125 -23.833 165 -71.5s60 -108.5 60 -182.5s-21 -135.167 -63 -183.5s-97.333 -72.5 -166 -72.5c-33.333 0 -63 6.33301 -89 19s-45.667 28.667 -59 48v-245zM448 244
c0 45.333 -12 81.833 -36 109.5s-55.667 41.5 -95 41.5c-38.667 0 -70.167 -13.833 -94.5 -41.5s-36.5 -64.167 -36.5 -109.5c0 -46 12.167 -83 36.5 -111s55.833 -42 94.5 -42s70.167 14 94.5 42s36.5 65 36.5 111z" />
    <glyph glyph-name="ydieresis" unicode="&#xff;" horiz-adv-x="551" 
d="M230 -197h-124l117 255l-208 429h131l140 -308l131 308h123zM115 625c0 18 6.16699 33.333 18.5 46s27.5 19 45.5 19c18.667 0 34.334 -6.33301 47.001 -19s19 -28 19 -46c0 -18.667 -6.33301 -34.167 -19 -46.5s-28.334 -18.5 -47.001 -18.5
c-18 0 -33.167 6.16699 -45.5 18.5s-18.5 27.833 -18.5 46.5zM315 625c0 18 6.16699 33.333 18.5 46s27.5 19 45.5 19s33.333 -6.33301 46 -19s19 -28 19 -46c0 -18.667 -6.33301 -34.167 -19 -46.5s-28 -18.5 -46 -18.5s-33.167 6.16699 -45.5 18.5
s-18.5 27.833 -18.5 46.5z" />
    <glyph glyph-name="Amacron" unicode="&#x100;" horiz-adv-x="717" 
d="M573 0l-67 178h-300l-66 -178h-127l276 709h139l276 -709h-131zM356 579l-108 -290h216zM506 776h-300v93h300v-93z" />
    <glyph glyph-name="amacron" unicode="&#x101;" horiz-adv-x="532" 
d="M42 132c0 41.333 13.498 74.5 40.498 99.5s62.5 40.833 106.5 47.5l125 19c24 3.33301 36 15 36 35c0 22 -7.66699 39.833 -23 53.5s-38.333 20.5 -69 20.5c-29.333 0 -52.666 -8.16699 -69.999 -24.5s-27.333 -37.5 -30 -63.5l-106 24c4.66699 44 25.667 81.5 63 112.5
s84.666 46.5 141.999 46.5c70.667 0 122.834 -17 156.501 -51s50.5 -77.667 50.5 -131v-242c0 -32 2 -58 6 -78h-108c-3.33301 10 -5 30.667 -5 62c-32 -51.333 -82 -77 -150 -77c-49.333 0 -89.166 14.5 -119.499 43.5s-45.5 63.5 -45.5 103.5zM228.998 76
c36 0 65.167 9.83105 87.5 29.498s33.5 51.834 33.5 96.501v22l-127 -19c-43.333 -7.33301 -65 -29.333 -65 -66c0 -17.333 6.33301 -32.166 19 -44.499s30 -18.5 52 -18.5zM400.998 576.998h-278v90h278v-90z" />
    <glyph glyph-name="Abreve" unicode="&#x102;" horiz-adv-x="717" 
d="M573 0l-67 178h-300l-66 -178h-127l276 709h139l276 -709h-131zM356 579l-108 -290h216zM357 754c-49.333 0 -87.9971 13 -115.997 39s-43 57 -45 93h93c1.33301 -14.667 7.66602 -27.334 18.999 -38.001s27.666 -16 48.999 -16s37.666 5.33301 48.999 16
s17.333 23.334 18 38.001h93c-1.33301 -36 -16 -67 -44 -93s-66.667 -39 -116 -39z" />
    <glyph glyph-name="abreve" unicode="&#x103;" horiz-adv-x="532" 
d="M42 132c0 41.333 13.498 74.5 40.498 99.5s62.5 40.833 106.5 47.5l125 19c24 3.33301 36 15 36 35c0 22 -7.66699 39.833 -23 53.5s-38.333 20.5 -69 20.5c-29.333 0 -52.666 -8.16699 -69.999 -24.5s-27.333 -37.5 -30 -63.5l-106 24c4.66699 44 25.667 81.5 63 112.5
s84.666 46.5 141.999 46.5c70.667 0 122.834 -17 156.501 -51s50.5 -77.667 50.5 -131v-242c0 -32 2 -58 6 -78h-108c-3.33301 10 -5 30.667 -5 62c-32 -51.333 -82 -77 -150 -77c-49.333 0 -89.166 14.5 -119.499 43.5s-45.5 63.5 -45.5 103.5zM228.998 76
c36 0 65.167 9.83105 87.5 29.498s33.5 51.834 33.5 96.501v22l-127 -19c-43.333 -7.33301 -65 -29.333 -65 -66c0 -17.333 6.33301 -32.166 19 -44.499s30 -18.5 52 -18.5zM257.998 546.998c-47.333 0 -84.5 14.333 -111.5 43s-41.167 63.334 -42.5 104.001h82
c1.33301 -16.667 7.83301 -31 19.5 -43s29.167 -18 52.5 -18s41 6.16699 53 18.5s18.667 26.5 20 42.5h82c-1.33301 -40.667 -15.5 -75.334 -42.5 -104.001s-64.5 -43 -112.5 -43z" />
    <glyph glyph-name="Aogonek" unicode="&#x104;" horiz-adv-x="717" 
d="M622 -95c0 -15.333 4.83203 -26.833 14.499 -34.5s21.834 -11.5 36.501 -11.5c10.667 0 21 1 31 3v-74c-14 -5.33301 -31 -8 -51 -8c-34 0 -62.333 9.5 -85 28.5s-34 44.167 -34 75.5c0 49.333 23.667 88 71 116h-32l-67 178h-300l-66 -178h-127l276 709h139l276 -709
c-54.667 -26 -82 -57.667 -82 -95zM355.999 579l-108 -290h216z" />
    <glyph glyph-name="aogonek" unicode="&#x105;" horiz-adv-x="532" 
d="M229 76c36 0 65.167 9.83105 87.5 29.498s33.5 51.834 33.5 96.501v22l-127 -19c-43.333 -7.33301 -65 -29.333 -65 -66c0 -17.333 6.33301 -32.166 19 -44.499s30 -18.5 52 -18.5zM300 -116.002c0 49.333 23.6641 88 70.9971 116h-9c-3.33301 13.333 -5 34 -5 62
c-32 -51.333 -82 -77 -150 -77c-49.333 0 -89.166 14.5 -119.499 43.5s-45.5 63.5 -45.5 103.5c0 41.333 13.5 74.5 40.5 99.5s62.5 40.833 106.5 47.5l125 19c24 3.33301 36 15 36 35c0 22 -7.66699 39.833 -23 53.5s-38.333 20.5 -69 20.5
c-29.333 0 -52.666 -8.16699 -69.999 -24.5s-27.333 -37.5 -30 -63.5l-106 24c4.66699 44 25.667 81.5 63 112.5s84.666 46.5 141.999 46.5c70.667 0 122.834 -17 156.501 -51s50.5 -77.667 50.5 -131v-242c0 -26.667 2 -52.667 6 -78c-54.667 -26 -82 -57.667 -82 -95
c0 -15.333 4.83301 -26.833 14.5 -34.5s21.834 -11.5 36.501 -11.5c10.667 0 21 1 31 3v-74c-14 -5.33301 -31 -8 -51 -8c-34 0 -62.333 9.5 -85 28.5s-34 44.167 -34 75.5z" />
    <glyph glyph-name="Cacute" unicode="&#x106;" horiz-adv-x="751" 
d="M402 -15c-99.333 0 -183.834 33.668 -253.501 101.001s-104.5 156.666 -104.5 267.999c0 110.667 35.333 200 106 268s154.334 102 251.001 102c85.333 0 155.5 -21.667 210.5 -65s91.167 -98.333 108.5 -165l-113 -38c-11.333 46 -34.333 83.333 -69 112
s-80.334 43 -137.001 43c-63.333 0 -118.166 -22.5 -164.499 -67.5s-69.5 -108.167 -69.5 -189.5c0 -79.333 23 -141.5 69 -186.5s101.333 -67.5 166 -67.5c55.333 0 101 15 137 45s60.667 67 74 111l110 -36c-17.333 -66 -53.833 -121.667 -109.5 -167
s-126.167 -68 -211.5 -68zM587.999 883.001l-142 -124h-109l102 124h149z" />
    <glyph glyph-name="cacute" unicode="&#x107;" horiz-adv-x="549" 
d="M457 696l-131 -148h-95l89 148h137zM291 395c-37.333 0 -69.0029 -13.502 -95.0029 -40.502s-39 -63.833 -39 -110.5c0 -47.333 13.167 -84.666 39.5 -111.999s58.5 -41 96.5 -41c34 0 61.167 9.16699 81.5 27.5s33.833 39.166 40.5 62.499l102 -37
c-13.333 -43.333 -39.166 -80.666 -77.499 -111.999s-87.166 -47 -146.499 -47c-71.333 0 -131.166 24.667 -179.499 74s-72.5 111 -72.5 185c0 74.667 23.833 136.334 71.5 185.001s106.834 73 177.501 73c60.667 0 110.167 -15.667 148.5 -47s63.166 -69 74.499 -113
l-104 -38c-6.66699 25.333 -19.5 46.833 -38.5 64.5s-45.5 26.5 -79.5 26.5z" />
    <glyph glyph-name="Ccircumflex" unicode="&#x108;" horiz-adv-x="751" 
d="M329 759h-107l116 124h129l119 -124h-110l-75 64zM402 -15c-99.333 0 -183.834 33.668 -253.501 101.001s-104.5 156.666 -104.5 267.999c0 110.667 35.333 200 106 268s154.334 102 251.001 102c85.333 0 155.5 -21.667 210.5 -65s91.167 -98.333 108.5 -165l-113 -38
c-11.333 46 -34.333 83.333 -69 112s-80.334 43 -137.001 43c-63.333 0 -118.166 -22.5 -164.499 -67.5s-69.5 -108.167 -69.5 -189.5c0 -79.333 23 -141.5 69 -186.5s101.333 -67.5 166 -67.5c55.333 0 101 15 137 45s60.667 67 74 111l110 -36
c-17.333 -66 -53.833 -121.667 -109.5 -167s-126.167 -68 -211.5 -68z" />
    <glyph glyph-name="ccircumflex" unicode="&#x109;" horiz-adv-x="549" 
d="M219 549h-97l107 143h121l108 -143h-99l-70 77zM291 395c-37.333 0 -69.0029 -13.502 -95.0029 -40.502s-39 -63.833 -39 -110.5c0 -47.333 13.167 -84.666 39.5 -111.999s58.5 -41 96.5 -41c34 0 61.167 9.16699 81.5 27.5s33.833 39.166 40.5 62.499l102 -37
c-13.333 -43.333 -39.166 -80.666 -77.499 -111.999s-87.166 -47 -146.499 -47c-71.333 0 -131.166 24.667 -179.499 74s-72.5 111 -72.5 185c0 74.667 23.833 136.334 71.5 185.001s106.834 73 177.501 73c60.667 0 110.167 -15.667 148.5 -47s63.166 -69 74.499 -113
l-104 -38c-6.66699 25.333 -19.5 46.833 -38.5 64.5s-45.5 26.5 -79.5 26.5z" />
    <glyph glyph-name="Cdotaccent" unicode="&#x10a;" horiz-adv-x="751" 
d="M402 -15c-99.333 0 -183.834 33.668 -253.501 101.001s-104.5 156.666 -104.5 267.999c0 110.667 35.333 200 106 268s154.334 102 251.001 102c85.333 0 155.5 -21.667 210.5 -65s91.167 -98.333 108.5 -165l-113 -38c-11.333 46 -34.333 83.333 -69 112
s-80.334 43 -137.001 43c-63.333 0 -118.166 -22.5 -164.499 -67.5s-69.5 -108.167 -69.5 -189.5c0 -79.333 23 -141.5 69 -186.5s101.333 -67.5 166 -67.5c55.333 0 101 15 137 45s60.667 67 74 111l110 -36c-17.333 -66 -53.833 -121.667 -109.5 -167
s-126.167 -68 -211.5 -68zM326.999 829.001c0 20.667 7.16699 38 21.5 52s31.5 21 51.5 21s37.167 -7 51.5 -21s21.5 -31.333 21.5 -52c0 -19.333 -7.16699 -36 -21.5 -50s-31.5 -21 -51.5 -21s-37.167 7 -51.5 21s-21.5 30.667 -21.5 50z" />
    <glyph glyph-name="cdotaccent" unicode="&#x10b;" horiz-adv-x="549" 
d="M291 395c-37.333 0 -69.0029 -13.502 -95.0029 -40.502s-39 -63.833 -39 -110.5c0 -47.333 13.167 -84.666 39.5 -111.999s58.5 -41 96.5 -41c34 0 61.167 9.16699 81.5 27.5s33.833 39.166 40.5 62.499l102 -37c-13.333 -43.333 -39.166 -80.666 -77.499 -111.999
s-87.166 -47 -146.499 -47c-71.333 0 -131.166 24.667 -179.499 74s-72.5 111 -72.5 185c0 74.667 23.833 136.334 71.5 185.001s106.834 73 177.501 73c60.667 0 110.167 -15.667 148.5 -47s63.166 -69 74.499 -113l-104 -38c-6.66699 25.333 -19.5 46.833 -38.5 64.5
s-45.5 26.5 -79.5 26.5zM216.997 622.998c0 20 7 37 21 51s31 21 51 21s37 -7 51 -21s21 -31 21 -51c0 -19.333 -7 -36 -21 -50s-31 -21 -51 -21s-37 7 -51 21s-21 30.667 -21 50z" />
    <glyph glyph-name="Ccaron" unicode="&#x10c;" horiz-adv-x="751" 
d="M219 883h109l72 -65l75 65h108l-119 -124h-129zM402 -15c-99.333 0 -183.834 33.668 -253.501 101.001s-104.5 156.666 -104.5 267.999c0 110.667 35.333 200 106 268s154.334 102 251.001 102c85.333 0 155.5 -21.667 210.5 -65s91.167 -98.333 108.5 -165l-113 -38
c-11.333 46 -34.333 83.333 -69 112s-80.334 43 -137.001 43c-63.333 0 -118.166 -22.5 -164.499 -67.5s-69.5 -108.167 -69.5 -189.5c0 -79.333 23 -141.5 69 -186.5s101.333 -67.5 166 -67.5c55.333 0 101 15 137 45s60.667 67 74 111l110 -36
c-17.333 -66 -53.833 -121.667 -109.5 -167s-126.167 -68 -211.5 -68z" />
    <glyph glyph-name="ccaron" unicode="&#x10d;" horiz-adv-x="549" 
d="M115 694h98l70 -77l70 77h98l-106 -145h-124zM291 395c-37.333 0 -69.0029 -13.502 -95.0029 -40.502s-39 -63.833 -39 -110.5c0 -47.333 13.167 -84.666 39.5 -111.999s58.5 -41 96.5 -41c34 0 61.167 9.16699 81.5 27.5s33.833 39.166 40.5 62.499l102 -37
c-13.333 -43.333 -39.166 -80.666 -77.499 -111.999s-87.166 -47 -146.499 -47c-71.333 0 -131.166 24.667 -179.499 74s-72.5 111 -72.5 185c0 74.667 23.833 136.334 71.5 185.001s106.834 73 177.501 73c60.667 0 110.167 -15.667 148.5 -47s63.166 -69 74.499 -113
l-104 -38c-6.66699 25.333 -19.5 46.833 -38.5 64.5s-45.5 26.5 -79.5 26.5z" />
    <glyph glyph-name="Dcaron" unicode="&#x10e;" horiz-adv-x="731" 
d="M177 883h109l72 -65l75 65h108l-119 -124h-129zM209 110h126.001c65.333 0 119.166 20.833 161.499 62.5s63.5 101.834 63.5 180.501c0 79.333 -21 140.166 -63 182.499s-95.667 63.5 -161 63.5h-127v-489zM339.001 0h-250v709h251c100 0 182.5 -31.667 247.5 -95
s97.5 -150.333 97.5 -261c0 -110 -32.667 -196.333 -98 -259s-148 -94 -248 -94z" />
    <glyph glyph-name="dcaron" unicode="&#x10f;" horiz-adv-x="601" 
d="M718 724l-68 -189h-80l29 189h119zM157 245c0 -46.667 12.001 -84.168 36.001 -112.501s55.667 -42.5 95 -42.5c38 0 69 14.333 93 43s36 66.334 36 113.001c0 46 -11.667 82.667 -35 110s-54.333 41 -93 41s-70.334 -13.833 -95.001 -41.5s-37 -64.5 -37 -110.5z
M529.001 723.999l-0.00195312 -634.998c0 -32.667 1.66699 -62.334 5 -89.001h-111c-3.33301 18.667 -5 39.667 -5 63c-12 -22 -30.667 -40 -56 -54s-54.333 -21 -87 -21c-69.333 0 -125.666 24.333 -168.999 73s-65 110 -65 184c0 71.333 21.833 131.666 65.5 180.999
s99.167 74 166.5 74c38.667 0 69.834 -7 93.501 -21s40.167 -30.333 49.5 -49v294h113z" />
    <glyph glyph-name="Dcroat" unicode="&#x110;" horiz-adv-x="739" 
d="M347 0h-250v319h-82v93h82v297h251c100 0 182.5 -31.667 247.5 -95s97.5 -150.333 97.5 -261c0 -110 -32.667 -196.333 -98 -259s-148 -94 -248 -94zM217 110h126.001c65.333 0 119.166 20.833 161.499 62.5s63.5 101.834 63.5 180.501c0 79.333 -21 140.166 -63 182.499
s-95.667 63.5 -161 63.5h-127v-187h131v-93h-131v-209z" />
    <glyph glyph-name="dcroat" unicode="&#x111;" horiz-adv-x="601" 
d="M157 245c0 -46.667 12.001 -84.168 36.001 -112.501s55.667 -42.5 95 -42.5c38 0 69 14.333 93 43s36 66.334 36 113.001c0 46 -11.667 82.667 -35 110s-54.333 41 -93 41s-70.334 -13.833 -95.001 -41.5s-37 -64.5 -37 -110.5zM418.001 62.999
c-12 -22 -30.6689 -39.998 -56.002 -53.998s-54.333 -21 -87 -21c-69.333 0 -125.666 24.333 -168.999 73s-65 110 -65 184c0 71.333 21.833 131.666 65.5 180.999s99.167 74 166.5 74c38.667 0 69.834 -7 93.501 -21s40.167 -30.333 49.5 -49v123h-123v86h123v85h113v-85
h75v-86h-75v-464c0 -32.667 1.66699 -62.334 5 -89.001h-111c-3.33301 18.667 -5 39.667 -5 63z" />
    <glyph glyph-name="Emacron" unicode="&#x112;" horiz-adv-x="580" 
d="M527 0h-438v709h438v-112h-318v-188h288v-109h-288v-188h318v-112zM456 776h-300v93h300v-93z" />
    <glyph glyph-name="emacron" unicode="&#x113;" horiz-adv-x="557" 
d="M160 297h238.999c-1.33301 30.667 -12.166 56.334 -32.499 77.001s-49.5 31 -87.5 31c-34.667 0 -62.667 -10.833 -84 -32.5s-33 -46.834 -35 -75.501zM411.999 170l97.998 -30.999c-14 -44.667 -40.167 -81.5 -78.5 -110.5s-85.5 -43.5 -141.5 -43.5
c-69.333 0 -128.166 23.667 -176.499 71s-72.5 110.666 -72.5 189.999c0 74.667 23.5 136 70.5 184s102.5 72 166.5 72c74.667 0 133 -22.833 175 -68.5s63 -107.167 63 -184.5c0 -20.667 -1 -33 -3 -37h-356c1.33301 -36.667 14.833 -67 40.5 -91s56.5 -36 92.5 -36
c62.667 0 103.334 28.333 122.001 85zM422.997 577.001h-278v90h278v-90z" />
    <glyph glyph-name="Ebreve" unicode="&#x114;" horiz-adv-x="580" 
d="M527 0h-438v709h438v-112h-318v-188h288v-109h-288v-188h318v-112zM307 754c-49.333 0 -87.9971 13 -115.997 39s-43 57 -45 93h93c1.33301 -14.667 7.66602 -27.334 18.999 -38.001s27.666 -16 48.999 -16s37.666 5.33301 48.999 16s17.333 23.334 18 38.001h93
c-1.33301 -36 -16 -67 -44 -93s-66.667 -39 -116 -39z" />
    <glyph glyph-name="ebreve" unicode="&#x115;" horiz-adv-x="557" 
d="M160 297h238.999c-1.33301 30.667 -12.166 56.334 -32.499 77.001s-49.5 31 -87.5 31c-34.667 0 -62.667 -10.833 -84 -32.5s-33 -46.834 -35 -75.501zM411.999 170l97.998 -30.999c-14 -44.667 -40.167 -81.5 -78.5 -110.5s-85.5 -43.5 -141.5 -43.5
c-69.333 0 -128.166 23.667 -176.499 71s-72.5 110.666 -72.5 189.999c0 74.667 23.5 136 70.5 184s102.5 72 166.5 72c74.667 0 133 -22.833 175 -68.5s63 -107.167 63 -184.5c0 -20.667 -1 -33 -3 -37h-356c1.33301 -36.667 14.833 -67 40.5 -91s56.5 -36 92.5 -36
c62.667 0 103.334 28.333 122.001 85zM282.997 547.001c-47.333 0 -84.5 14.333 -111.5 43s-41.167 63.334 -42.5 104.001h82c1.33301 -16.667 7.83301 -31 19.5 -43s29.167 -18 52.5 -18s41 6.16699 53 18.5s18.667 26.5 20 42.5h82
c-1.33301 -40.667 -15.5 -75.334 -42.5 -104.001s-64.5 -43 -112.5 -43z" />
    <glyph glyph-name="Edotaccent" unicode="&#x116;" horiz-adv-x="580" 
d="M235 826c0 20.667 7.16699 38 21.5 52s31.5 21 51.5 21s37.167 -7 51.5 -21s21.5 -31.333 21.5 -52c0 -19.333 -7.16699 -36 -21.5 -50s-31.5 -21 -51.5 -21s-37.167 7 -51.5 21s-21.5 30.667 -21.5 50zM527 0h-438v709h438v-112h-318v-188h288v-109h-288v-188h318v-112z
" />
    <glyph glyph-name="edotaccent" unicode="&#x117;" horiz-adv-x="557" 
d="M160 297h238.999c-1.33301 30.667 -12.166 56.334 -32.499 77.001s-49.5 31 -87.5 31c-34.667 0 -62.667 -10.833 -84 -32.5s-33 -46.834 -35 -75.501zM411.999 170l97.998 -30.999c-14 -44.667 -40.167 -81.5 -78.5 -110.5s-85.5 -43.5 -141.5 -43.5
c-69.333 0 -128.166 23.667 -176.499 71s-72.5 110.666 -72.5 189.999c0 74.667 23.5 136 70.5 184s102.5 72 166.5 72c74.667 0 133 -22.833 175 -68.5s63 -107.167 63 -184.5c0 -20.667 -1 -33 -3 -37h-356c1.33301 -36.667 14.833 -67 40.5 -91s56.5 -36 92.5 -36
c62.667 0 103.334 28.333 122.001 85zM212.997 622.001c0 20 7 37 21 51s31 21 51 21s37 -7 51 -21s21 -31 21 -51c0 -19.333 -7 -36 -21 -50s-31 -21 -51 -21s-37 7 -51 21s-21 30.667 -21 50z" />
    <glyph glyph-name="Eogonek" unicode="&#x118;" horiz-adv-x="580" 
d="M527 0c-54.667 -26 -82.001 -57.668 -82.001 -95.001c0 -15.333 4.83301 -26.833 14.5 -34.5s21.834 -11.5 36.501 -11.5c10.667 0 21 1 31 3v-74c-14 -5.33301 -31 -8 -51 -8c-34 0 -62.333 9.5 -85 28.5s-34 44.167 -34 75.5c0 48.667 23.667 87.334 71 116.001h-339
v709h438v-112h-318v-188h288v-109h-288v-188h318v-112z" />
    <glyph glyph-name="eogonek" unicode="&#x119;" horiz-adv-x="557" 
d="M412 170l97.999 -31.001c-10 -32.667 -27.167 -61.5 -51.5 -86.5s-53.833 -43.5 -88.5 -55.5c-22.667 -7.33301 -40.667 -18.666 -54 -33.999s-20 -33 -20 -53c0 -16.667 4.83301 -29.167 14.5 -37.5s21.834 -12.5 36.501 -12.5c11.333 0 21.666 1 30.999 3v-74
c-14 -5.33301 -31 -8 -51 -8c-34 0 -62.333 9.5 -85 28.5s-34 44.167 -34 75.5c0 41.333 17 75.333 51 102c-62 7.33301 -113.833 34 -155.5 80s-62.5 105.667 -62.5 179c0 74.667 23.5 136 70.5 184s102.5 72 166.5 72c74.667 0 133 -22.833 175 -68.5
s63 -107.167 63 -184.5c0 -20.667 -1 -33 -3 -37h-356c1.33301 -36.667 14.833 -67 40.5 -91s56.5 -36 92.5 -36c62.667 0 103.334 28.333 122.001 85zM159.999 296.999h238.999c-1.33301 30.667 -12.166 56.334 -32.499 77.001s-49.5 31 -87.5 31
c-34.667 0 -62.667 -10.833 -84 -32.5s-33 -46.834 -35 -75.501z" />
    <glyph glyph-name="Ecaron" unicode="&#x11a;" horiz-adv-x="580" 
d="M131 883h109l72 -65l75 65h108l-119 -124h-129zM527 0h-438v709h438v-112h-318v-188h288v-109h-288v-188h318v-112z" />
    <glyph glyph-name="ecaron" unicode="&#x11b;" horiz-adv-x="557" 
d="M115 694h98l70 -77l70 77h98l-106 -145h-124zM160 297h238.999c-1.33301 30.667 -12.166 56.334 -32.499 77.001s-49.5 31 -87.5 31c-34.667 0 -62.667 -10.833 -84 -32.5s-33 -46.834 -35 -75.501zM411.999 170l97.998 -30.999c-14 -44.667 -40.167 -81.5 -78.5 -110.5
s-85.5 -43.5 -141.5 -43.5c-69.333 0 -128.166 23.667 -176.499 71s-72.5 110.666 -72.5 189.999c0 74.667 23.5 136 70.5 184s102.5 72 166.5 72c74.667 0 133 -22.833 175 -68.5s63 -107.167 63 -184.5c0 -20.667 -1 -33 -3 -37h-356c1.33301 -36.667 14.833 -67 40.5 -91
s56.5 -36 92.5 -36c62.667 0 103.334 28.333 122.001 85z" />
    <glyph glyph-name="Gcircumflex" unicode="&#x11c;" horiz-adv-x="777" 
d="M327 759h-107l116 124h129l119 -124h-110l-75 64zM717 0l-96.999 0.000976562l-9 90c-17.333 -29.333 -44.666 -54.166 -81.999 -74.499s-82.333 -30.5 -135 -30.5c-96.667 0 -179 33.5 -247 100.5s-102 156.833 -102 269.5c0 74.667 17.167 140.667 51.5 198
s78.166 100.166 131.499 128.499s111.333 42.5 174 42.5c82 0 150.833 -20.333 206.5 -61s93.5 -92.334 113.5 -155.001l-113 -43c-12.667 42.667 -37 78 -73 106s-80.667 42 -134 42c-63.333 0 -118.333 -22.333 -165 -67s-70 -108.334 -70 -191.001
c0 -82 22.667 -145.833 68 -191.5s100.666 -68.5 165.999 -68.5c64 0 112.833 16.833 146.5 50.5s52.5 69.834 56.5 108.501h-234v105h347v-359z" />
    <glyph glyph-name="gcircumflex" unicode="&#x11d;" horiz-adv-x="595" 
d="M219 549h-97l107 143h121l108 -143h-99l-70 77zM41 -27l107.001 28c4 -30.667 17.167 -55.834 39.5 -75.501s49.833 -29.5 82.5 -29.5c92 0 138 48.667 138 146v51c-11.333 -20.667 -29.333 -37.667 -54 -51s-53.667 -20 -87 -20c-65.333 0 -119.166 22.333 -161.499 67
s-63.5 101.334 -63.5 170.001c0 66 21 122 63 168s96 69 162 69c71.333 0 119.333 -23.667 144 -71v62h112v-441c0 -72 -20.333 -131.833 -61 -179.5s-103.667 -71.5 -189 -71.5c-62.667 0 -115.334 17 -158.001 51s-67.334 76.333 -74.001 127zM286.001 121
c37.333 0 67.5 12.5 90.5 37.5s34.5 58.5 34.5 100.5c0 41.333 -11.667 74.5 -35 99.5s-53.333 37.5 -90 37.5c-37.333 0 -67.833 -12.5 -91.5 -37.5s-35.5 -58.167 -35.5 -99.5c0 -42 11.667 -75.5 35 -100.5s54 -37.5 92 -37.5z" />
    <glyph glyph-name="Gbreve" unicode="&#x11e;" horiz-adv-x="777" 
d="M398 754c-49.333 0 -87.9971 13 -115.997 39s-43 57 -45 93h93c1.33301 -14.667 7.66602 -27.334 18.999 -38.001s27.666 -16 48.999 -16s37.666 5.33301 48.999 16s17.333 23.334 18 38.001h93c-1.33301 -36 -16 -67 -44 -93s-66.667 -39 -116 -39zM717.003 0
l-96.999 0.000976562l-9 90c-17.333 -29.333 -44.666 -54.166 -81.999 -74.499s-82.333 -30.5 -135 -30.5c-96.667 0 -179 33.5 -247 100.5s-102 156.833 -102 269.5c0 74.667 17.167 140.667 51.5 198s78.166 100.166 131.499 128.499s111.333 42.5 174 42.5
c82 0 150.833 -20.333 206.5 -61s93.5 -92.334 113.5 -155.001l-113 -43c-12.667 42.667 -37 78 -73 106s-80.667 42 -134 42c-63.333 0 -118.333 -22.333 -165 -67s-70 -108.334 -70 -191.001c0 -82 22.667 -145.833 68 -191.5s100.666 -68.5 165.999 -68.5
c64 0 112.833 16.833 146.5 50.5s52.5 69.834 56.5 108.501h-234v105h347v-359z" />
    <glyph glyph-name="gbreve" unicode="&#x11f;" horiz-adv-x="595" 
d="M41 -27l107.001 28c4 -30.667 17.167 -55.834 39.5 -75.501s49.833 -29.5 82.5 -29.5c92 0 138 48.667 138 146v51c-11.333 -20.667 -29.333 -37.667 -54 -51s-53.667 -20 -87 -20c-65.333 0 -119.166 22.333 -161.499 67s-63.5 101.334 -63.5 170.001
c0 66 21 122 63 168s96 69 162 69c71.333 0 119.333 -23.667 144 -71v62h112v-441c0 -72 -20.333 -131.833 -61 -179.5s-103.667 -71.5 -189 -71.5c-62.667 0 -115.334 17 -158.001 51s-67.334 76.333 -74.001 127zM286.001 121c37.333 0 67.5 12.5 90.5 37.5
s34.5 58.5 34.5 100.5c0 41.333 -11.667 74.5 -35 99.5s-53.333 37.5 -90 37.5c-37.333 0 -67.833 -12.5 -91.5 -37.5s-35.5 -58.167 -35.5 -99.5c0 -42 11.667 -75.5 35 -100.5s54 -37.5 92 -37.5zM283.001 547c-47.333 0 -84.5 14.333 -111.5 43
s-41.167 63.334 -42.5 104.001h82c1.33301 -16.667 7.83301 -31 19.5 -43s29.167 -18 52.5 -18s41 6.16699 53 18.5s18.667 26.5 20 42.5h82c-1.33301 -40.667 -15.5 -75.334 -42.5 -104.001s-64.5 -43 -112.5 -43z" />
    <glyph glyph-name="Gdotaccent" unicode="&#x120;" horiz-adv-x="777" 
d="M328 828c0 20.667 7.16699 38 21.5 52s31.5 21 51.5 21s37.167 -7 51.5 -21s21.5 -31.333 21.5 -52c0 -19.333 -7.16699 -36 -21.5 -50s-31.5 -21 -51.5 -21s-37.167 7 -51.5 21s-21.5 30.667 -21.5 50zM717 0l-96.999 0.000976562l-9 90
c-17.333 -29.333 -44.666 -54.166 -81.999 -74.499s-82.333 -30.5 -135 -30.5c-96.667 0 -179 33.5 -247 100.5s-102 156.833 -102 269.5c0 74.667 17.167 140.667 51.5 198s78.166 100.166 131.499 128.499s111.333 42.5 174 42.5c82 0 150.833 -20.333 206.5 -61
s93.5 -92.334 113.5 -155.001l-113 -43c-12.667 42.667 -37 78 -73 106s-80.667 42 -134 42c-63.333 0 -118.333 -22.333 -165 -67s-70 -108.334 -70 -191.001c0 -82 22.667 -145.833 68 -191.5s100.666 -68.5 165.999 -68.5c64 0 112.833 16.833 146.5 50.5
s52.5 69.834 56.5 108.501h-234v105h347v-359z" />
    <glyph glyph-name="gdotaccent" unicode="&#x121;" horiz-adv-x="595" 
d="M41 -27l107.001 28c4 -30.667 17.167 -55.834 39.5 -75.501s49.833 -29.5 82.5 -29.5c92 0 138 48.667 138 146v51c-11.333 -20.667 -29.333 -37.667 -54 -51s-53.667 -20 -87 -20c-65.333 0 -119.166 22.333 -161.499 67s-63.5 101.334 -63.5 170.001
c0 66 21 122 63 168s96 69 162 69c71.333 0 119.333 -23.667 144 -71v62h112v-441c0 -72 -20.333 -131.833 -61 -179.5s-103.667 -71.5 -189 -71.5c-62.667 0 -115.334 17 -158.001 51s-67.334 76.333 -74.001 127zM286.001 121c37.333 0 67.5 12.5 90.5 37.5
s34.5 58.5 34.5 100.5c0 41.333 -11.667 74.5 -35 99.5s-53.333 37.5 -90 37.5c-37.333 0 -67.833 -12.5 -91.5 -37.5s-35.5 -58.167 -35.5 -99.5c0 -42 11.667 -75.5 35 -100.5s54 -37.5 92 -37.5zM209.001 622c0 20 7 37 21 51s31 21 51 21s37 -7 51 -21s21 -31 21 -51
c0 -19.333 -7 -36 -21 -50s-31 -21 -51 -21s-37 7 -51 21s-21 30.667 -21 50z" />
    <glyph glyph-name="Gcommaaccent" unicode="&#x122;" horiz-adv-x="777" 
d="M334 -98c0 16.667 6.49902 30.665 19.499 41.998s28.833 17 47.5 17c20 0 37.333 -7.16699 52 -21.5s22 -34.166 22 -59.499c0 -41.333 -13.167 -71.666 -39.5 -90.999s-56.166 -29 -89.499 -29v44c20 0 36.833 4.83301 50.5 14.5s21.167 20.834 22.5 33.501
c-4.66699 -4.66699 -13 -7 -25 -7c-18 0 -32.5 5.16699 -43.5 15.5s-16.5 24.166 -16.5 41.499zM716.999 -0.00195312l-96.999 0.000976562l-9 90c-17.333 -29.333 -44.666 -54.166 -81.999 -74.499s-82.333 -30.5 -135 -30.5c-96.667 0 -179 33.5 -247 100.5
s-102 156.833 -102 269.5c0 74.667 17.167 140.667 51.5 198s78.166 100.166 131.499 128.499s111.333 42.5 174 42.5c82 0 150.833 -20.333 206.5 -61s93.5 -92.334 113.5 -155.001l-113 -43c-12.667 42.667 -37 78 -73 106s-80.667 42 -134 42
c-63.333 0 -118.333 -22.333 -165 -67s-70 -108.334 -70 -191.001c0 -82 22.667 -145.833 68 -191.5s100.666 -68.5 165.999 -68.5c64 0 112.833 16.833 146.5 50.5s52.5 69.834 56.5 108.501h-234v105h347v-359z" />
    <glyph glyph-name="gcommaaccent" unicode="&#x123;" horiz-adv-x="595" 
d="M346 596c0 -16.667 -6.33301 -30.501 -19 -41.501s-28.667 -16.5 -48 -16.5s-36.5 7.16699 -51.5 21.5s-22.5 33.833 -22.5 58.5c0 38.667 13.5 68.334 40.5 89.001s56.5 31 88.5 31v-44c-20 0 -36.833 -4.83301 -50.5 -14.5s-21.167 -20.5 -22.5 -32.5
c4.66699 4.66699 13 7 25 7c18 0 32.5 -5.33301 43.5 -16s16.5 -24.667 16.5 -42zM41 -27.001l107.001 28c4 -30.667 17.167 -55.834 39.5 -75.501s49.833 -29.5 82.5 -29.5c92 0 138 48.667 138 146v51c-11.333 -20.667 -29.333 -37.667 -54 -51s-53.667 -20 -87 -20
c-65.333 0 -119.166 22.333 -161.499 67s-63.5 101.334 -63.5 170.001c0 66 21 122 63 168s96 69 162 69c71.333 0 119.333 -23.667 144 -71v62h112v-441c0 -72 -20.333 -131.833 -61 -179.5s-103.667 -71.5 -189 -71.5c-62.667 0 -115.334 17 -158.001 51
s-67.334 76.333 -74.001 127zM286.001 120.999c37.333 0 67.5 12.5 90.5 37.5s34.5 58.5 34.5 100.5c0 41.333 -11.667 74.5 -35 99.5s-53.333 37.5 -90 37.5c-37.333 0 -67.833 -12.5 -91.5 -37.5s-35.5 -58.167 -35.5 -99.5c0 -42 11.667 -75.5 35 -100.5
s54 -37.5 92 -37.5z" />
    <glyph glyph-name="Hcircumflex" unicode="&#x124;" horiz-adv-x="752" 
d="M663 0h-121v303h-333v-303h-120v709h120v-293h333v293h121v-709zM301 759h-107l116 124h129l119 -124h-110l-75 64z" />
    <glyph glyph-name="hcircumflex" unicode="&#x125;" horiz-adv-x="572" 
d="M216 769h-107l116 124h129l119 -124h-110l-75 64zM188 286l0.00195312 -286.001h-116v724h116v-284c31.333 40.667 77.666 61 138.999 61c57.333 0 101.333 -18 132 -54s46 -82.333 46 -139v-308h-116v288c0 32.667 -8 58.834 -24 78.501s-41.333 29.5 -76 29.5
c-30.667 0 -54.834 -10.333 -72.501 -31s-27.167 -47 -28.5 -79z" />
    <glyph glyph-name="Hbar" unicode="&#x126;" horiz-adv-x="757" 
d="M666 0h-121v303h-333v-303h-120v515h-72v82h72v112h120v-112h333v112h121v-112h71v-82h-71v-515zM212 416h333v99h-333v-99z" />
    <glyph glyph-name="hbar" unicode="&#x127;" horiz-adv-x="572" 
d="M188 286l0.00195312 -286.001h-116v554h-83v87h83v83h116v-83h115v-87h-115v-114c31.333 40.667 77.666 61 138.999 61c57.333 0 101.333 -18 132 -54s46 -82.333 46 -139v-308h-116v288c0 32.667 -8 58.834 -24 78.501s-41.333 29.5 -76 29.5
c-30.667 0 -54.834 -10.333 -72.501 -31s-27.167 -47 -28.5 -79z" />
    <glyph glyph-name="Itilde" unicode="&#x128;" horiz-adv-x="300" 
d="M211 0h-122v709h122v-709zM318 886v-22.999c0 -35.333 -9.33301 -62.5 -28 -81.5s-42.334 -28.5 -71.001 -28.5c-23.333 0 -47.666 7.66699 -72.999 23l-10 7c-18 11.333 -33 17 -45 17c-8 0 -15 -2.83301 -21 -8.5s-9 -13.834 -9 -24.501v-10h-75v22
c0 35.333 9.33301 62.5 28 81.5s42.667 28.5 72 28.5c24 0 48.667 -7.66699 74 -23l10 -6c20 -11.333 34.333 -17 43 -17c20.667 0 31 11 31 33v10h74z" />
    <glyph glyph-name="itilde" unicode="&#x129;" horiz-adv-x="259" 
d="M187 0h-115v487h115v-487zM-36 556l-1 17.999c0 37.333 9.5 65.833 28.5 85.5s43.833 29.5 74.5 29.5c22 0 45.333 -7.33301 70 -22l10 -6c18.667 -11.333 33 -17 43 -17c20.667 0 31 14.667 31 44h76v-17c0 -37.333 -9.5 -66.166 -28.5 -86.499s-43.5 -30.5 -73.5 -30.5
c-22 0 -45.667 7.66699 -71 23l-10 6c-18 10.667 -32.333 16 -43 16c-20 0 -30 -14.333 -30 -43h-76z" />
    <glyph glyph-name="Imacron" unicode="&#x12a;" horiz-adv-x="300" 
d="M211 0h-122v709h122v-709zM301 776h-300v93h300v-93z" />
    <glyph glyph-name="imacron" unicode="&#x12b;" horiz-adv-x="259" 
d="M187 0h-115v487h115v-487zM269 577h-278v90h278v-90z" />
    <glyph glyph-name="Ibreve" unicode="&#x12c;" horiz-adv-x="300" 
d="M211 0h-122v709h122v-709zM151 754c-49.333 0 -87.9971 13 -115.997 39s-43 57 -45 93h93c1.33301 -14.667 7.66602 -27.334 18.999 -38.001s27.666 -16 48.999 -16s37.666 5.33301 48.999 16s17.333 23.334 18 38.001h93c-1.33301 -36 -16 -67 -44 -93
s-66.667 -39 -116 -39z" />
    <glyph glyph-name="ibreve" unicode="&#x12d;" horiz-adv-x="259" 
d="M187 0h-115v487h115v-487zM129 547c-47.333 0 -84.5 14.333 -111.5 43s-41.167 63.334 -42.5 104.001h82c1.33301 -16.667 7.83301 -31 19.5 -43s29.167 -18 52.5 -18s41 6.16699 53 18.5s18.667 26.5 20 42.5h82c-1.33301 -40.667 -15.5 -75.334 -42.5 -104.001
s-64.5 -43 -112.5 -43z" />
    <glyph glyph-name="Iogonek" unicode="&#x12e;" horiz-adv-x="300" 
d="M41 -116c0 49.333 23.666 88 70.999 116h-23v709h122v-709c-54.667 -26 -82 -57.667 -82 -95c0 -15.333 4.83301 -26.833 14.5 -34.5s21.834 -11.5 36.501 -11.5c10.667 0 21 1 31 3v-74c-14 -5.33301 -31 -8 -51 -8c-34 0 -62.333 9.5 -85 28.5s-34 44.167 -34 75.5z
" />
    <glyph glyph-name="iogonek" unicode="&#x12f;" horiz-adv-x="259" 
d="M54 658c0 20.667 7.33301 38.5 22 53.5s32.334 22.5 53.001 22.5s38.5 -7.33301 53.5 -22s22.5 -32.667 22.5 -54c0 -20.667 -7.33301 -38.334 -22 -53.001s-32.667 -22 -54 -22c-20.667 0 -38.334 7.33301 -53.001 22s-22 32.334 -22 53.001zM17 -116
c0 49.333 23.666 88 70.999 116h-16v487h115v-487c-54.667 -26 -82 -57.667 -82 -95c0 -15.333 4.83301 -26.833 14.5 -34.5s21.834 -11.5 36.501 -11.5c10.667 0 21 1 31 3v-74c-14 -5.33301 -31 -8 -51 -8c-34 0 -62.333 9.5 -85 28.5s-34 44.167 -34 75.5z" />
    <glyph glyph-name="Idotaccent" unicode="&#x130;" horiz-adv-x="300" 
d="M211 0h-122v709h122v-709zM77 826c0 20.667 7.16699 38 21.5 52s31.5 21 51.5 21s37.167 -7 51.5 -21s21.5 -31.333 21.5 -52c0 -19.333 -7.16699 -36 -21.5 -50s-31.5 -21 -51.5 -21s-37.167 7 -51.5 21s-21.5 30.667 -21.5 50z" />
    <glyph glyph-name="dotlessi" unicode="&#x131;" horiz-adv-x="259" 
d="M187 0h-115v487h115v-487z" />
    <glyph glyph-name="IJ" unicode="&#x132;" horiz-adv-x="616" 
d="M204 305h-122v404h122v-404zM82 214l122 21.001v-17c0 -40 9.5 -70 28.5 -90s44.833 -30 77.5 -30c32 0 57.167 10.167 75.5 30.5s27.5 48.5 27.5 84.5v496h121v-493c0 -64.667 -20.667 -119.334 -62 -164.001s-95 -67 -161 -67c-70 0 -125.667 20.833 -167 62.5
s-62 97.167 -62 166.5z" />
    <glyph glyph-name="ij" unicode="&#x133;" horiz-adv-x="519" 
d="M187 0h-115v487h115v-487zM54 658c0 20.667 7.33301 38.5 22 53.5s32.334 22.5 53.001 22.5s38.5 -7.33301 53.5 -22s22.5 -32.667 22.5 -54c0 -20.667 -7.33301 -38.334 -22 -53.001s-32.667 -22 -54 -22c-20.667 0 -38.334 7.33301 -53.001 22s-22 32.334 -22 53.001z
M331 -40v527h116v-536c0 -46 -13 -83.5 -39 -112.5s-61.333 -43.5 -106 -43.5c-29.333 0 -51.333 3 -66 9v96c10 -2 21.667 -3 35 -3c40 0 60 21 60 63zM313 659c0 20.667 7.33301 38.5 22 53.5s32.334 22.5 53.001 22.5c21.333 0 39.333 -7.5 54 -22.5s22 -32.833 22 -53.5
s-7.5 -38.334 -22.5 -53.001s-32.833 -22 -53.5 -22s-38.334 7.33301 -53.001 22s-22 32.334 -22 53.001z" />
    <glyph glyph-name="Jcircumflex" unicode="&#x134;" horiz-adv-x="556" 
d="M340 759h-107l116 124h129l119 -124h-110l-75 64zM24 214v46.001l117 24v-66c0 -40 10 -70 30 -90s46.333 -30 79 -30c32 0 57.333 10.167 76 30.5s28 48.5 28 84.5v496h120v-493c0 -64.667 -20.667 -119.334 -62 -164.001s-95 -67 -161 -67
c-69.333 0 -124.5 20.833 -165.5 62.5s-61.5 97.167 -61.5 166.5z" />
    <glyph glyph-name="jcircumflex" unicode="&#x135;" horiz-adv-x="260" 
d="M58 549h-97l107 143h121l108 -143h-99l-70 77zM72 -40v527h116v-536c0 -46 -13 -83.5 -39 -112.5s-61.333 -43.5 -106 -43.5c-29.333 0 -51.333 3 -66 9v96c10 -2 21.667 -3 35 -3c40 0 60 21 60 63z" />
    <glyph glyph-name="Kcommaaccent" unicode="&#x136;" horiz-adv-x="677" 
d="M524 0l-221 307l-94 -103v-204h-120v709h120v-340l305 340h158l-287 -313l290 -396h-151zM297 -94c0 16.667 6.49902 30.665 19.499 41.998s28.833 17 47.5 17c20 0 37.333 -7.16699 52 -21.5s22 -34.166 22 -59.499c0 -41.333 -13.167 -71.666 -39.5 -90.999
s-56.166 -29 -89.499 -29v44c20 0 36.833 4.83301 50.5 14.5s21.167 20.834 22.5 33.501c-4.66699 -4.66699 -13 -7 -25 -7c-18 0 -32.5 5.16699 -43.5 15.5s-16.5 24.166 -16.5 41.499z" />
    <glyph glyph-name="kcommaaccent" unicode="&#x137;" horiz-adv-x="544" 
d="M528 487l-200 -206l204 -281h-142l-143 199l-60 -63v-136h-115v724h115v-434l187 197h154zM228 -96c0 16.667 6.49902 30.665 19.499 41.998s28.833 17 47.5 17c20 0 37.333 -7.16699 52 -21.5s22 -34.166 22 -59.499c0 -41.333 -13.167 -71.666 -39.5 -90.999
s-56.166 -29 -89.499 -29v44c20 0 36.833 4.83301 50.5 14.5s21.167 20.834 22.5 33.501c-4.66699 -4.66699 -13 -7 -25 -7c-18 0 -32.5 5.16699 -43.5 15.5s-16.5 24.166 -16.5 41.499z" />
    <glyph glyph-name="kgreenlandic" unicode="&#x138;" horiz-adv-x="544" 
d="M528 487l-200 -206l204 -281h-142l-143 199l-60 -63v-136h-115v487h115v-197l187 197h154z" />
    <glyph glyph-name="Lacute" unicode="&#x139;" horiz-adv-x="551" 
d="M349 883l-142 -124h-109l102 124h149zM534 0h-445v709h120v-595h325v-114z" />
    <glyph glyph-name="lacute" unicode="&#x13a;" horiz-adv-x="260" 
d="M323 893l-142 -124h-109l102 124h149zM188 0h-116v724h116v-724z" />
    <glyph glyph-name="Lcommaaccent" unicode="&#x13b;" horiz-adv-x="551" 
d="M534 0h-445v709h120v-595h325v-114zM249 -96c0 16.667 6.49902 30.665 19.499 41.998s28.833 17 47.5 17c20 0 37.333 -7.16699 52 -21.5s22 -34.166 22 -59.499c0 -41.333 -13.167 -71.666 -39.5 -90.999s-56.166 -29 -89.499 -29v44c20 0 36.833 4.83301 50.5 14.5
s21.167 20.834 22.5 33.501c-4.66699 -4.66699 -13 -7 -25 -7c-18 0 -32.5 5.16699 -43.5 15.5s-16.5 24.166 -16.5 41.499z" />
    <glyph glyph-name="lcommaaccent" unicode="&#x13c;" horiz-adv-x="260" 
d="M188 0h-116v724h116v-724zM59 -96c0 16.667 6.49902 30.665 19.499 41.998s28.833 17 47.5 17c20 0 37.333 -7.16699 52 -21.5s22 -34.166 22 -59.499c0 -41.333 -13.167 -71.666 -39.5 -90.999s-56.166 -29 -89.499 -29v44c20 0 36.833 4.83301 50.5 14.5
s21.167 20.834 22.5 33.501c-4.66699 -4.66699 -13 -7 -25 -7c-18 0 -32.5 5.16699 -43.5 15.5s-16.5 24.166 -16.5 41.499z" />
    <glyph glyph-name="Lcaron" unicode="&#x13d;" horiz-adv-x="551" 
d="M459 759l-72 -200h-85l31 200h126zM534 0h-445v709h120v-595h325v-114z" />
    <glyph glyph-name="lcaron" unicode="&#x13e;" horiz-adv-x="260" 
d="M371 724l-68 -189h-80l29 189h119zM188 0h-116v724h116v-724z" />
    <glyph glyph-name="Ldot" unicode="&#x13f;" horiz-adv-x="551" 
d="M301 390c0 19.333 7 35.833 21 49.5s30.667 20.5 50 20.5s36 -6.83301 50 -20.5s21 -30.167 21 -49.5s-7 -35.833 -21 -49.5s-30.667 -20.5 -50 -20.5s-36 6.83301 -50 20.5s-21 30.167 -21 49.5zM534 0h-445v709h120v-595h325v-114z" />
    <glyph glyph-name="ldot" unicode="&#x140;" horiz-adv-x="377" 
d="M188 0h-116v724h116v-724zM242 321c0 20 7 37 21 51s31 21 51 21s37 -7 51 -21s21 -31 21 -51c0 -19.333 -7 -36 -21 -50s-31 -21 -51 -21s-37 7 -51 21s-21 30.667 -21 50z" />
    <glyph glyph-name="Lslash" unicode="&#x141;" horiz-adv-x="571" 
d="M554 0h-445v273l-94 -42v100l94 42v336h120v-282l159 71v-100l-159 -71v-213h325v-114z" />
    <glyph glyph-name="lslash" unicode="&#x142;" horiz-adv-x="358" 
d="M238 0h-116v264l-87 -39v101l87 39v359h116v-307l90 40v-100l-90 -41v-316z" />
    <glyph glyph-name="Nacute" unicode="&#x143;" horiz-adv-x="773" 
d="M551 883l-142 -124h-109l102 124h149zM684 0h-125l-350 537v-537h-120v709h153l322 -503v503h120v-709z" />
    <glyph glyph-name="nacute" unicode="&#x144;" horiz-adv-x="572" 
d="M438 696l-131 -148h-95l89 148h137zM188 281v-281.001h-116v487h113v-65c15.333 26.667 35.833 46.5 61.5 59.5s53.167 19.5 82.5 19.5c57.333 0 101 -18 131 -54s45 -82.333 45 -139v-308h-116v288c0 32.667 -8 58.834 -24 78.501s-41.333 29.5 -76 29.5
c-32 0 -56.833 -10.833 -74.5 -32.5s-26.5 -49.167 -26.5 -82.5z" />
    <glyph glyph-name="Ncommaaccent" unicode="&#x145;" horiz-adv-x="773" 
d="M334 -96c0 16.667 6.49902 30.665 19.499 41.998s28.833 17 47.5 17c20 0 37.333 -7.16699 52 -21.5s22 -34.166 22 -59.499c0 -41.333 -13.167 -71.666 -39.5 -90.999s-56.166 -29 -89.499 -29v44c20 0 36.833 4.83301 50.5 14.5s21.167 20.834 22.5 33.501
c-4.66699 -4.66699 -13 -7 -25 -7c-18 0 -32.5 5.16699 -43.5 15.5s-16.5 24.166 -16.5 41.499zM683.999 -0.00195312h-125l-350 537v-537h-120v709h153l322 -503v503h120v-709z" />
    <glyph glyph-name="ncommaaccent" unicode="&#x146;" horiz-adv-x="572" 
d="M224 -95c0 16.667 6.49902 30.665 19.499 41.998s28.833 17 47.5 17c20 0 37.333 -7.16699 52 -21.5s22 -34.166 22 -59.499c0 -41.333 -13.167 -71.666 -39.5 -90.999s-56.166 -29 -89.499 -29v44c20 0 36.833 4.83301 50.5 14.5s21.167 20.834 22.5 33.501
c-4.66699 -4.66699 -13 -7 -25 -7c-18 0 -32.5 5.16699 -43.5 15.5s-16.5 24.166 -16.5 41.499zM187.999 280.998v-281.001h-116v487h113v-65c15.333 26.667 35.833 46.5 61.5 59.5s53.167 19.5 82.5 19.5c57.333 0 101 -18 131 -54s45 -82.333 45 -139v-308h-116v288
c0 32.667 -8 58.834 -24 78.501s-41.333 29.5 -76 29.5c-32 0 -56.833 -10.833 -74.5 -32.5s-26.5 -49.167 -26.5 -82.5z" />
    <glyph glyph-name="Ncaron" unicode="&#x147;" horiz-adv-x="773" 
d="M205 883h109l72 -65l75 65h108l-119 -124h-129zM684 0h-125l-350 537v-537h-120v709h153l322 -503v503h120v-709z" />
    <glyph glyph-name="ncaron" unicode="&#x148;" horiz-adv-x="572" 
d="M107 694h98l70 -77l70 77h98l-106 -145h-124zM188 281v-281.001h-116v487h113v-65c15.333 26.667 35.833 46.5 61.5 59.5s53.167 19.5 82.5 19.5c57.333 0 101 -18 131 -54s45 -82.333 45 -139v-308h-116v288c0 32.667 -8 58.834 -24 78.501s-41.333 29.5 -76 29.5
c-32 0 -56.833 -10.833 -74.5 -32.5s-26.5 -49.167 -26.5 -82.5z" />
    <glyph glyph-name="napostrophe" unicode="&#x149;" horiz-adv-x="572" 
d="M60 671c0 17.333 6.50098 31.501 19.501 42.501s28.833 16.5 47.5 16.5c20.667 0 38.167 -7.16699 52.5 -21.5s21.5 -33.833 21.5 -58.5c0 -42.667 -13 -73.5 -39 -92.5s-56 -28.5 -90 -28.5v45c20.667 0 37.667 4.33301 51 13s20.666 19.667 21.999 33
c-8 -4 -16.333 -6 -25 -6c-18 0 -32.5 5.16699 -43.5 15.5s-16.5 24.166 -16.5 41.499zM188.001 281.001v-281.001h-116v487h113v-65c15.333 26.667 35.833 46.5 61.5 59.5s53.167 19.5 82.5 19.5c57.333 0 101 -18 131 -54s45 -82.333 45 -139v-308h-116v288
c0 32.667 -8 58.834 -24 78.501s-41.333 29.5 -76 29.5c-32 0 -56.833 -10.833 -74.5 -32.5s-26.5 -49.167 -26.5 -82.5z" />
    <glyph glyph-name="Eng" unicode="&#x14a;" horiz-adv-x="773" 
d="M564 -7l-355 544v-537h-120v709h153l322 -501v501h120v-750c0 -46.667 -13.5 -84.667 -40.5 -114s-63.167 -44 -108.5 -44c-32.667 0 -55.667 3.33301 -69 10v97c12 -2.66699 24.667 -4 38 -4c22 0 37.5 5.16699 46.5 15.5s13.5 25.5 13.5 45.5v28z" />
    <glyph glyph-name="eng" unicode="&#x14b;" horiz-adv-x="572" 
d="M188 281l0.000976562 -281h-116v487h113v-65c15.333 26.667 35.833 46.5 61.5 59.5s53.167 19.5 82.5 19.5c57.333 0 101 -18 131 -54s45 -82.333 45 -139v-355c0 -46.667 -13.333 -84.334 -40 -113.001s-62.334 -43 -107.001 -43c-34.667 0 -57 3 -67 9v95
c12 -2 24.333 -3 37 -3c40.667 0 61 21.333 61 64v326c0 32.667 -8 58.834 -24 78.501s-41.333 29.5 -76 29.5c-32 0 -56.833 -10.833 -74.5 -32.5s-26.5 -49.167 -26.5 -82.5z" />
    <glyph glyph-name="Omacron" unicode="&#x14c;" horiz-adv-x="809" 
d="M167 355c0 -80.667 23.333 -143.5 70 -188.5s102.334 -67.5 167.001 -67.5s120.5 22.5 167.5 67.5s70.5 107.833 70.5 188.5s-23.5 143.5 -70.5 188.5s-102.833 67.5 -167.5 67.5s-120.334 -22.5 -167.001 -67.5s-70 -107.833 -70 -188.5zM44 355
c0 74.667 17.167 140.5 51.5 197.5s78.5 99.833 132.5 128.5s112.667 43 176 43s122 -14.333 176 -43s98.333 -71.5 133 -128.5s52 -122.833 52 -197.5s-17.333 -140.667 -52 -198s-79 -100.333 -133 -129s-112.667 -43 -176 -43s-122 14.333 -176 43
s-98.167 71.667 -132.5 129s-51.5 123.333 -51.5 198zM554 776h-300v93h300v-93z" />
    <glyph glyph-name="omacron" unicode="&#x14d;" horiz-adv-x="587" 
d="M433 577h-278v90h278v-90zM293 89c38 0 70.167 13.667 96.5 41s39.5 65.333 39.5 114c0 48 -13.167 85.5 -39.5 112.5s-58.5 40.5 -96.5 40.5s-70.167 -13.5 -96.5 -40.5s-39.5 -64.5 -39.5 -112.5s13.167 -85.833 39.5 -113.5s58.5 -41.5 96.5 -41.5zM293 502
c73.333 0 133.833 -24.333 181.5 -73s71.5 -110.334 71.5 -185.001s-23.833 -136.5 -71.5 -185.5s-108.167 -73.5 -181.5 -73.5c-72.667 0 -132.834 24.5 -180.501 73.5s-71.5 110.833 -71.5 185.5s23.833 136.334 71.5 185.001s107.834 73 180.501 73z" />
    <glyph glyph-name="Obreve" unicode="&#x14e;" horiz-adv-x="809" 
d="M410 754c-49.333 0 -87.9971 13 -115.997 39s-43 57 -45 93h93c1.33301 -14.667 7.66602 -27.334 18.999 -38.001s27.666 -16 48.999 -16s37.666 5.33301 48.999 16s17.333 23.334 18 38.001h93c-1.33301 -36 -16 -67 -44 -93s-66.667 -39 -116 -39zM167.003 355
c0 -80.667 23.333 -143.5 70 -188.5s102.334 -67.5 167.001 -67.5s120.5 22.5 167.5 67.5s70.5 107.833 70.5 188.5s-23.5 143.5 -70.5 188.5s-102.833 67.5 -167.5 67.5s-120.334 -22.5 -167.001 -67.5s-70 -107.833 -70 -188.5zM44.0029 355
c0 74.667 17.167 140.5 51.5 197.5s78.5 99.833 132.5 128.5s112.667 43 176 43s122 -14.333 176 -43s98.333 -71.5 133 -128.5s52 -122.833 52 -197.5s-17.333 -140.667 -52 -198s-79 -100.333 -133 -129s-112.667 -43 -176 -43s-122 14.333 -176 43
s-98.167 71.667 -132.5 129s-51.5 123.333 -51.5 198z" />
    <glyph glyph-name="obreve" unicode="&#x14f;" horiz-adv-x="587" 
d="M293 89c38 0 70.167 13.667 96.5 41s39.5 65.333 39.5 114c0 48 -13.167 85.5 -39.5 112.5s-58.5 40.5 -96.5 40.5s-70.167 -13.5 -96.5 -40.5s-39.5 -64.5 -39.5 -112.5s13.167 -85.833 39.5 -113.5s58.5 -41.5 96.5 -41.5zM293 502c73.333 0 133.833 -24.333 181.5 -73
s71.5 -110.334 71.5 -185.001s-23.833 -136.5 -71.5 -185.5s-108.167 -73.5 -181.5 -73.5c-72.667 0 -132.834 24.5 -180.501 73.5s-71.5 110.833 -71.5 185.5s23.833 136.334 71.5 185.001s107.834 73 180.501 73zM293 547c-47.333 0 -84.5 14.333 -111.5 43
s-41.167 63.334 -42.5 104.001h82c1.33301 -16.667 7.83301 -31 19.5 -43s29.167 -18 52.5 -18s41 6.16699 53 18.5s18.667 26.5 20 42.5h82c-1.33301 -40.667 -15.5 -75.334 -42.5 -104.001s-64.5 -43 -112.5 -43z" />
    <glyph glyph-name="Ohungarumlaut" unicode="&#x150;" horiz-adv-x="809" 
d="M453 883l-95 -124h-79l56 124h118zM615 883l-107 -124h-80l69 124h118zM167 355c0 -80.667 23.333 -143.5 70 -188.5s102.334 -67.5 167.001 -67.5s120.5 22.5 167.5 67.5s70.5 107.833 70.5 188.5s-23.5 143.5 -70.5 188.5s-102.833 67.5 -167.5 67.5
s-120.334 -22.5 -167.001 -67.5s-70 -107.833 -70 -188.5zM44 355c0 74.667 17.167 140.5 51.5 197.5s78.5 99.833 132.5 128.5s112.667 43 176 43s122 -14.333 176 -43s98.333 -71.5 133 -128.5s52 -122.833 52 -197.5s-17.333 -140.667 -52 -198s-79 -100.333 -133 -129
s-112.667 -43 -176 -43s-122 14.333 -176 43s-98.167 71.667 -132.5 129s-51.5 123.333 -51.5 198z" />
    <glyph glyph-name="ohungarumlaut" unicode="&#x151;" horiz-adv-x="587" 
d="M293 89c38 0 70.167 13.667 96.5 41s39.5 65.333 39.5 114c0 48 -13.167 85.5 -39.5 112.5s-58.5 40.5 -96.5 40.5s-70.167 -13.5 -96.5 -40.5s-39.5 -64.5 -39.5 -112.5s13.167 -85.833 39.5 -113.5s58.5 -41.5 96.5 -41.5zM293 502c73.333 0 133.833 -24.333 181.5 -73
s71.5 -110.334 71.5 -185.001s-23.833 -136.5 -71.5 -185.5s-108.167 -73.5 -181.5 -73.5c-72.667 0 -132.834 24.5 -180.501 73.5s-71.5 110.833 -71.5 185.5s23.833 136.334 71.5 185.001s107.834 73 180.501 73zM348 696l-94 -148h-76l52 148h118zM503 696l-107 -148h-76
l64 148h119z" />
    <glyph glyph-name="OE" unicode="&#x152;" horiz-adv-x="1132" 
d="M1080 0h-437.999v81c-62 -64 -141.333 -96 -238 -96c-63.333 0 -122 14.333 -176 43s-98.167 71.667 -132.5 129s-51.5 123.333 -51.5 198s17.167 140.5 51.5 197.5s78.5 99.833 132.5 128.5s112.667 43 176 43c97.333 0 176.666 -32.333 237.999 -97v82h437v-112h-317
v-188h288v-109h-288v-188h318v-112zM167.001 355c0 -80.667 23.333 -143.5 70 -188.5s102.334 -67.5 167.001 -67.5s120.5 22.5 167.5 67.5s70.5 107.833 70.5 188.5s-23.5 143.5 -70.5 188.5s-102.833 67.5 -167.5 67.5s-120.334 -22.5 -167.001 -67.5
s-70 -107.833 -70 -188.5z" />
    <glyph glyph-name="oe" unicode="&#x153;" horiz-adv-x="946" 
d="M293 502c80.667 0 145.331 -29.002 193.998 -87.002c22 26.667 48.833 47.834 80.5 63.501s64.834 23.5 99.501 23.5c74.667 0 133 -22.833 175 -68.5s63 -107.167 63 -184.5c0 -20.667 -1 -33 -3 -37h-356c1.33301 -36.667 14.833 -67 40.5 -91s56.5 -36 92.5 -36
c62.667 0 103.334 28.333 122.001 85l98 -31c-14 -44.667 -40.167 -81.5 -78.5 -110.5s-85.5 -43.5 -141.5 -43.5c-79.333 0 -143.333 29.333 -192 88c-48 -58.667 -112.667 -88 -194 -88c-72.667 0 -132.834 24.5 -180.501 73.5s-71.5 110.833 -71.5 185.5
s23.833 136.334 71.5 185.001s107.834 73 180.501 73zM292.997 88.998c38 0 70.167 13.667 96.5 41s39.5 65.333 39.5 114c0 48 -13.167 85.5 -39.5 112.5s-58.5 40.5 -96.5 40.5s-70.167 -13.5 -96.5 -40.5s-39.5 -64.5 -39.5 -112.5s13.167 -85.833 39.5 -113.5
s58.5 -41.5 96.5 -41.5zM548.997 296.998h238.999c-1.33301 30.667 -12.166 56.334 -32.499 77.001s-49.5 31 -87.5 31c-34.667 0 -62.667 -10.833 -84 -32.5s-33 -46.834 -35 -75.501z" />
    <glyph glyph-name="Racute" unicode="&#x154;" horiz-adv-x="630" 
d="M485 883l-142 -124h-109l102 124h149zM447 0l-149.001 280h-88v-280h-121v709h272c66.667 0 120.334 -20.5 161.001 -61.5s61 -92.167 61 -153.5c0 -50.667 -14.333 -94 -43 -130s-67.667 -60 -117 -72l160 -292h-136zM209.999 386l129 -0.000976562
c36.667 0 66.167 9.83301 88.5 29.5s33.5 45.834 33.5 78.501c0 33.333 -11.167 59.833 -33.5 79.5s-51.833 29.5 -88.5 29.5h-129v-217z" />
    <glyph glyph-name="racute" unicode="&#x155;" horiz-adv-x="377" 
d="M349 696l-131 -148h-95l89 148h137zM357 490l0.000976562 -118c-13.333 2 -26 3 -38 3c-87.333 0 -131 -47.667 -131 -143v-232h-116v487h113v-78c11.333 26 29.666 46.5 54.999 61.5s54 22.5 86 22.5c10.667 0 21 -1 31 -3z" />
    <glyph glyph-name="Rcommaaccent" unicode="&#x156;" horiz-adv-x="630" 
d="M447 0l-149.001 280h-88v-280h-121v709h272c66.667 0 120.334 -20.5 161.001 -61.5s61 -92.167 61 -153.5c0 -50.667 -14.333 -94 -43 -130s-67.667 -60 -117 -72l160 -292h-136zM209.999 386l129 -0.000976562c36.667 0 66.167 9.83301 88.5 29.5
s33.5 45.834 33.5 78.501c0 33.333 -11.167 59.833 -33.5 79.5s-51.833 29.5 -88.5 29.5h-129v-217zM267.999 -94.001c0 16.667 6.49902 30.665 19.499 41.998s28.833 17 47.5 17c20 0 37.333 -7.16699 52 -21.5s22 -34.166 22 -59.499
c0 -41.333 -13.167 -71.666 -39.5 -90.999s-56.166 -29 -89.499 -29v44c20 0 36.833 4.83301 50.5 14.5s21.167 20.834 22.5 33.501c-4.66699 -4.66699 -13 -7 -25 -7c-18 0 -32.5 5.16699 -43.5 15.5s-16.5 24.166 -16.5 41.499z" />
    <glyph glyph-name="rcommaaccent" unicode="&#x157;" horiz-adv-x="377" 
d="M357 490l0.000976562 -118c-13.333 2 -26 3 -38 3c-87.333 0 -131 -47.667 -131 -143v-232h-116v487h113v-78c11.333 26 29.666 46.5 54.999 61.5s54 22.5 86 22.5c10.667 0 21 -1 31 -3zM61.001 -96c0 16.667 6.49902 30.665 19.499 41.998s28.833 17 47.5 17
c20 0 37.333 -7.16699 52 -21.5s22 -34.166 22 -59.499c0 -41.333 -13.167 -71.666 -39.5 -90.999s-56.166 -29 -89.499 -29v44c20 0 36.833 4.83301 50.5 14.5s21.167 20.834 22.5 33.501c-4.66699 -4.66699 -13 -7 -25 -7c-18 0 -32.5 5.16699 -43.5 15.5
s-16.5 24.166 -16.5 41.499z" />
    <glyph glyph-name="Rcaron" unicode="&#x158;" horiz-adv-x="630" 
d="M131 883h109l72 -65l75 65h108l-119 -124h-129zM447 0l-149.001 280h-88v-280h-121v709h272c66.667 0 120.334 -20.5 161.001 -61.5s61 -92.167 61 -153.5c0 -50.667 -14.333 -94 -43 -130s-67.667 -60 -117 -72l160 -292h-136zM209.999 386l129 -0.000976562
c36.667 0 66.167 9.83301 88.5 29.5s33.5 45.834 33.5 78.501c0 33.333 -11.167 59.833 -33.5 79.5s-51.833 29.5 -88.5 29.5h-129v-217z" />
    <glyph glyph-name="rcaron" unicode="&#x159;" horiz-adv-x="377" 
d="M40 694h98l70 -77l70 77h98l-106 -145h-124zM357 490l0.000976562 -118c-13.333 2 -26 3 -38 3c-87.333 0 -131 -47.667 -131 -143v-232h-116v487h113v-78c11.333 26 29.666 46.5 54.999 61.5s54 22.5 86 22.5c10.667 0 21 -1 31 -3z" />
    <glyph glyph-name="Sacute" unicode="&#x15a;" horiz-adv-x="602" 
d="M493 883l-142 -124h-109l102 124h149zM551 543l-107.997 -33.999c-4.66699 27.333 -18.334 52.333 -41.001 75s-55.334 34 -98.001 34c-35.333 0 -64.5 -10 -87.5 -30s-34.5 -44 -34.5 -72c0 -48.667 27.667 -79 83 -91l102 -21c61.333 -12 108.666 -36.333 141.999 -73
s50 -80.334 50 -131.001c0 -58.667 -22.5 -109.167 -67.5 -151.5s-106.167 -63.5 -183.5 -63.5c-83.333 0 -148.333 21.833 -195 65.5s-73 94.5 -79 152.5l112 32c4 -40 20 -73.667 48 -101s66 -41 114 -41c41.333 0 73.166 9.16699 95.499 27.5s33.5 41.833 33.5 70.5
c0 23.333 -8.33301 43.5 -25 60.5s-40 28.833 -70 35.5l-100 21c-55.333 11.333 -99.166 34.333 -131.499 69s-48.5 78 -48.5 130c0 59.333 23.667 110.333 71 153s104 64 170 64c75.333 0 133 -18.167 173 -54.5s65 -78.5 75 -126.5z" />
    <glyph glyph-name="sacute" unicode="&#x15b;" horiz-adv-x="465" 
d="M402 696l-131 -148h-95l89 148h137zM38 132l100.998 28.001c2 -23.333 11.667 -43 29 -59s40.666 -24 69.999 -24c22.667 0 40.5 5.33301 53.5 16s19.5 24 19.5 40c0 28 -19 46 -57 54l-72 16c-42 9.33301 -74.333 26.666 -97 51.999s-34 55.333 -34 90
c0 42.667 17.333 79.5 52 110.5s77 46.5 127 46.5c32 0 60.333 -4.66699 85 -14s43.834 -21.5 57.501 -36.5s24.167 -29.5 31.5 -43.5s12 -28 14 -42l-98 -28c-2.66699 18.667 -11.167 35.5 -25.5 50.5s-35.833 22.5 -64.5 22.5c-20 0 -36.667 -5.5 -50 -16.5
s-20 -24.167 -20 -39.5c0 -27.333 16.333 -44.333 49 -51l74 -15c45.333 -10 80 -28 104 -54s36 -57.333 36 -94c0 -40.667 -16.167 -76.834 -48.5 -108.501s-77.5 -47.5 -135.5 -47.5c-33.333 0 -63.166 5 -89.499 15s-47 22.833 -62 38.5s-26.667 31.334 -35 47.001
s-13.166 31.167 -14.499 46.5z" />
    <glyph glyph-name="Scircumflex" unicode="&#x15c;" horiz-adv-x="602" 
d="M244 759h-107l116 124h129l119 -124h-110l-75 64zM551 543l-107.997 -33.999c-4.66699 27.333 -18.334 52.333 -41.001 75s-55.334 34 -98.001 34c-35.333 0 -64.5 -10 -87.5 -30s-34.5 -44 -34.5 -72c0 -48.667 27.667 -79 83 -91l102 -21
c61.333 -12 108.666 -36.333 141.999 -73s50 -80.334 50 -131.001c0 -58.667 -22.5 -109.167 -67.5 -151.5s-106.167 -63.5 -183.5 -63.5c-83.333 0 -148.333 21.833 -195 65.5s-73 94.5 -79 152.5l112 32c4 -40 20 -73.667 48 -101s66 -41 114 -41
c41.333 0 73.166 9.16699 95.499 27.5s33.5 41.833 33.5 70.5c0 23.333 -8.33301 43.5 -25 60.5s-40 28.833 -70 35.5l-100 21c-55.333 11.333 -99.166 34.333 -131.499 69s-48.5 78 -48.5 130c0 59.333 23.667 110.333 71 153s104 64 170 64
c75.333 0 133 -18.167 173 -54.5s65 -78.5 75 -126.5z" />
    <glyph glyph-name="scircumflex" unicode="&#x15d;" horiz-adv-x="465" 
d="M172 549h-97l107 143h121l108 -143h-99l-70 77zM38 132l100.998 28.001c2 -23.333 11.667 -43 29 -59s40.666 -24 69.999 -24c22.667 0 40.5 5.33301 53.5 16s19.5 24 19.5 40c0 28 -19 46 -57 54l-72 16c-42 9.33301 -74.333 26.666 -97 51.999s-34 55.333 -34 90
c0 42.667 17.333 79.5 52 110.5s77 46.5 127 46.5c32 0 60.333 -4.66699 85 -14s43.834 -21.5 57.501 -36.5s24.167 -29.5 31.5 -43.5s12 -28 14 -42l-98 -28c-2.66699 18.667 -11.167 35.5 -25.5 50.5s-35.833 22.5 -64.5 22.5c-20 0 -36.667 -5.5 -50 -16.5
s-20 -24.167 -20 -39.5c0 -27.333 16.333 -44.333 49 -51l74 -15c45.333 -10 80 -28 104 -54s36 -57.333 36 -94c0 -40.667 -16.167 -76.834 -48.5 -108.501s-77.5 -47.5 -135.5 -47.5c-33.333 0 -63.166 5 -89.499 15s-47 22.833 -62 38.5s-26.667 31.334 -35 47.001
s-13.166 31.167 -14.499 46.5z" />
    <glyph glyph-name="Scedilla" unicode="&#x15e;" horiz-adv-x="602" 
d="M277 -105l-34.9941 43.002l31 49c-72.667 6 -129.334 30.167 -170.001 72.5s-63.667 90.166 -69 143.499l112 32c4 -40 20 -73.667 48 -101s66 -41 114 -41c41.333 0 73.166 9.16699 95.499 27.5s33.5 41.833 33.5 70.5c0 23.333 -8.33301 43.5 -25 60.5
s-40 28.833 -70 35.5l-100 21c-55.333 11.333 -99.166 34.333 -131.499 69s-48.5 78 -48.5 130c0 59.333 23.667 110.333 71 153s104 64 170 64c75.333 0 133 -18.167 173 -54.5s65 -78.5 75 -126.5l-108 -34c-4.66699 27.333 -18.334 52.333 -41.001 75
s-55.334 34 -98.001 34c-35.333 0 -64.5 -10 -87.5 -30s-34.5 -44 -34.5 -72c0 -48.667 27.667 -79 83 -91l102 -21c61.333 -12 108.666 -36.333 141.999 -73s50 -80.334 50 -131.001c0 -52.667 -18.5 -99.167 -55.5 -139.5s-87.833 -64.5 -152.5 -72.5l-22 -35
c28.667 -0.666992 52 -8.66699 70 -24s27 -35.333 27 -60c0 -26 -10.167 -47.833 -30.5 -65.5s-51.166 -26.5 -92.499 -26.5c-24.667 0 -47.334 4.66699 -68.001 14s-36.334 20.666 -47.001 33.999l41 50c23.333 -23.333 47.666 -35 72.999 -35c29.333 0 44 10 44 30
c0 8.66699 -3.66699 15.834 -11 21.501s-17.333 8.5 -30 8.5c-10 0 -19.333 -1.66699 -28 -5z" />
    <glyph glyph-name="scedilla" unicode="&#x15f;" horiz-adv-x="465" 
d="M201 -105l-34.9971 43.001l32 50c-50 7.33301 -88.333 25.5 -115 54.5s-41.667 58.833 -45 89.5l101 28c2 -23.333 11.667 -43 29 -59s40.666 -24 69.999 -24c22.667 0 40.5 5.33301 53.5 16s19.5 24 19.5 40c0 28 -19 46 -57 54l-72 16
c-42 9.33301 -74.333 26.666 -97 51.999s-34 55.333 -34 90c0 42.667 17.333 79.5 52 110.5s77 46.5 127 46.5c32 0 60.333 -4.66699 85 -14s43.834 -21.5 57.501 -36.5s24.167 -29.5 31.5 -43.5s12 -28 14 -42l-98 -28c-2.66699 18.667 -11.167 35.5 -25.5 50.5
s-35.833 22.5 -64.5 22.5c-20 0 -36.667 -5.5 -50 -16.5s-20 -24.167 -20 -39.5c0 -27.333 16.333 -44.333 49 -51l74 -15c45.333 -10 80 -28 104 -54s36 -57.333 36 -94c0 -35.333 -12.833 -68 -38.5 -98s-61.834 -48.333 -108.501 -55l-23 -35
c28.667 -0.666992 52 -8.66699 70 -24s27 -35.333 27 -60c0 -26 -10.167 -47.833 -30.5 -65.5s-51.166 -26.5 -92.499 -26.5c-24.667 0 -47.334 4.66699 -68.001 14s-36.334 20.666 -47.001 33.999l41 50c23.333 -23.333 47.666 -35 72.999 -35c29.333 0 44 10 44 30
c0 8.66699 -3.66699 15.834 -11 21.501s-17.333 8.5 -30 8.5c-10 0 -19.333 -1.66699 -28 -5z" />
    <glyph glyph-name="Scaron" unicode="&#x160;" horiz-adv-x="602" 
d="M127 883h109l72 -65l75 65h108l-119 -124h-129zM551 543l-107.997 -33.999c-4.66699 27.333 -18.334 52.333 -41.001 75s-55.334 34 -98.001 34c-35.333 0 -64.5 -10 -87.5 -30s-34.5 -44 -34.5 -72c0 -48.667 27.667 -79 83 -91l102 -21
c61.333 -12 108.666 -36.333 141.999 -73s50 -80.334 50 -131.001c0 -58.667 -22.5 -109.167 -67.5 -151.5s-106.167 -63.5 -183.5 -63.5c-83.333 0 -148.333 21.833 -195 65.5s-73 94.5 -79 152.5l112 32c4 -40 20 -73.667 48 -101s66 -41 114 -41
c41.333 0 73.166 9.16699 95.499 27.5s33.5 41.833 33.5 70.5c0 23.333 -8.33301 43.5 -25 60.5s-40 28.833 -70 35.5l-100 21c-55.333 11.333 -99.166 34.333 -131.499 69s-48.5 78 -48.5 130c0 59.333 23.667 110.333 71 153s104 64 170 64
c75.333 0 133 -18.167 173 -54.5s65 -78.5 75 -126.5z" />
    <glyph glyph-name="scaron" unicode="&#x161;" horiz-adv-x="465" 
d="M67 694h98l70 -77l70 77h98l-106 -145h-124zM38 132l100.998 28.001c2 -23.333 11.667 -43 29 -59s40.666 -24 69.999 -24c22.667 0 40.5 5.33301 53.5 16s19.5 24 19.5 40c0 28 -19 46 -57 54l-72 16c-42 9.33301 -74.333 26.666 -97 51.999s-34 55.333 -34 90
c0 42.667 17.333 79.5 52 110.5s77 46.5 127 46.5c32 0 60.333 -4.66699 85 -14s43.834 -21.5 57.501 -36.5s24.167 -29.5 31.5 -43.5s12 -28 14 -42l-98 -28c-2.66699 18.667 -11.167 35.5 -25.5 50.5s-35.833 22.5 -64.5 22.5c-20 0 -36.667 -5.5 -50 -16.5
s-20 -24.167 -20 -39.5c0 -27.333 16.333 -44.333 49 -51l74 -15c45.333 -10 80 -28 104 -54s36 -57.333 36 -94c0 -40.667 -16.167 -76.834 -48.5 -108.501s-77.5 -47.5 -135.5 -47.5c-33.333 0 -63.166 5 -89.499 15s-47 22.833 -62 38.5s-26.667 31.334 -35 47.001
s-13.166 31.167 -14.499 46.5z" />
    <glyph glyph-name="Tcommaaccent" unicode="&#x162;" horiz-adv-x="615" 
d="M265 -105l-34.998 43l39 62h-22v596h-230v113h581v-113h-231v-596h-20l-30 -47c28.667 -0.666992 52 -8.66699 70 -24s27 -35.333 27 -60c0 -26 -10.167 -47.833 -30.5 -65.5s-51.166 -26.5 -92.499 -26.5c-24.667 0 -47.334 4.66699 -68.001 14
s-36.334 20.666 -47.001 33.999l41 50c23.333 -23.333 47.666 -35 72.999 -35c29.333 0 44 10 44 30c0 8.66699 -3.66699 15.834 -11 21.501s-17.333 8.5 -30 8.5c-10 0 -19.333 -1.66699 -28 -5z" />
    <glyph glyph-name="tcommaaccent" unicode="&#x163;" horiz-adv-x="365" 
d="M225 636v-149h101v-103h-101v-226c0 -21.333 5 -36.833 15 -46.5s25.667 -14.5 47 -14.5c13.333 0 26.666 1.33301 39.999 4v-96c-17.333 -7.33301 -41 -11 -71 -11c-45.333 0 -81 12.833 -107 38.5s-39 61.167 -39 106.5v245h-90v103h25c24.667 0 43.334 7 56.001 21
s19 32.333 19 55v73h105zM148 -96c0 16.667 6.49902 30.665 19.499 41.998s28.833 17 47.5 17c20 0 37.333 -7.16699 52 -21.5s22 -34.166 22 -59.499c0 -41.333 -13.167 -71.666 -39.5 -90.999s-56.166 -29 -89.499 -29v44c20 0 36.833 4.83301 50.5 14.5
s21.167 20.834 22.5 33.501c-4.66699 -4.66699 -13 -7 -25 -7c-18 0 -32.5 5.16699 -43.5 15.5s-16.5 24.166 -16.5 41.499z" />
    <glyph glyph-name="Tcaron" unicode="&#x164;" horiz-adv-x="615" 
d="M126 883h109l72 -65l75 65h108l-119 -124h-129zM598 596h-231v-596h-120v596h-230v113h581v-113z" />
    <glyph glyph-name="tcaron" unicode="&#x165;" horiz-adv-x="365" 
d="M430 750l-68 -189h-80l29 189h119zM225 636v-149h101v-103h-101v-226c0 -21.333 5 -36.833 15 -46.5s25.667 -14.5 47 -14.5c13.333 0 26.666 1.33301 39.999 4v-96c-17.333 -7.33301 -41 -11 -71 -11c-45.333 0 -81 12.833 -107 38.5s-39 61.167 -39 106.5v245h-90v103
h25c24.667 0 43.334 7 56.001 21s19 32.333 19 55v73h105z" />
    <glyph glyph-name="Tbar" unicode="&#x166;" horiz-adv-x="615" 
d="M598 596h-231v-224h117v-93h-117v-279h-120v279h-113v93h113v224h-230v113h581v-113z" />
    <glyph glyph-name="tbar" unicode="&#x167;" horiz-adv-x="365" 
d="M110 139v63h-90v86h90v96h-90v103h25c24.667 0 43.334 7 56.001 21s19 32.333 19 55v73h105v-149h101v-103h-101v-96h101v-86h-101v-44c0 -21.333 5 -36.833 15 -46.5s25.667 -14.5 47 -14.5c13.333 0 26.666 1.33301 39.999 4v-96c-17.333 -7.33301 -41 -11 -71 -11
c-45.333 0 -81 12.833 -107 38.5s-39 61.167 -39 106.5z" />
    <glyph glyph-name="Utilde" unicode="&#x168;" horiz-adv-x="693" 
d="M346 -15c-77.333 0 -140.667 23 -190 69s-74 110.333 -74 193v462h119v-455c0 -49.333 12.833 -87.5 38.5 -114.5s61.167 -40.5 106.5 -40.5c46 0 81.667 13.333 107 40s38 65 38 115v455h120v-462c0 -82.667 -24.833 -147 -74.5 -193s-113.167 -69 -190.5 -69z
M513.999 886v-22.999c0 -35.333 -9.33301 -62.5 -28 -81.5s-42.334 -28.5 -71.001 -28.5c-23.333 0 -47.666 7.66699 -72.999 23l-10 7c-18 11.333 -33 17 -45 17c-8 0 -15 -2.83301 -21 -8.5s-9 -13.834 -9 -24.501v-10h-75v22c0 35.333 9.33301 62.5 28 81.5
s42.667 28.5 72 28.5c24 0 48.667 -7.66699 74 -23l10 -6c20 -11.333 34.333 -17 43 -17c20.667 0 31 11 31 33v10h74z" />
    <glyph glyph-name="utilde" unicode="&#x169;" horiz-adv-x="571" 
d="M389 54c-11.333 -21.333 -29.834 -37.999 -55.501 -49.999s-53.167 -18 -82.5 -18c-56.667 0 -101.5 18.333 -134.5 55s-49.5 83 -49.5 139v307h116v-286c0 -32.667 8 -59.334 24 -80.001s40.667 -31 74 -31c32.667 0 57.834 10 75.501 30s26.5 46.333 26.5 79v288h116
v-398c0 -29.333 1.66699 -59 5 -89h-111c-2.66699 14.667 -4 32.667 -4 54zM118.999 556.001l-1 17.999c0 37.333 9.5 65.833 28.5 85.5s43.833 29.5 74.5 29.5c22 0 45.333 -7.33301 70 -22l10 -6c18.667 -11.333 33 -17 43 -17c20.667 0 31 14.667 31 44h76v-17
c0 -37.333 -9.5 -66.166 -28.5 -86.499s-43.5 -30.5 -73.5 -30.5c-22 0 -45.667 7.66699 -71 23l-10 6c-18 10.667 -32.333 16 -43 16c-20 0 -30 -14.333 -30 -43h-76z" />
    <glyph glyph-name="Umacron" unicode="&#x16a;" horiz-adv-x="693" 
d="M346 -15c-77.333 0 -140.667 23 -190 69s-74 110.333 -74 193v462h119v-455c0 -49.333 12.833 -87.5 38.5 -114.5s61.167 -40.5 106.5 -40.5c46 0 81.667 13.333 107 40s38 65 38 115v455h120v-462c0 -82.667 -24.833 -147 -74.5 -193s-113.167 -69 -190.5 -69z
M496.999 776h-300v93h300v-93z" />
    <glyph glyph-name="umacron" unicode="&#x16b;" horiz-adv-x="571" 
d="M389 54c-11.333 -21.333 -29.834 -37.999 -55.501 -49.999s-53.167 -18 -82.5 -18c-56.667 0 -101.5 18.333 -134.5 55s-49.5 83 -49.5 139v307h116v-286c0 -32.667 8 -59.334 24 -80.001s40.667 -31 74 -31c32.667 0 57.834 10 75.501 30s26.5 46.333 26.5 79v288h116
v-398c0 -29.333 1.66699 -59 5 -89h-111c-2.66699 14.667 -4 32.667 -4 54zM421.999 577.001h-278v90h278v-90z" />
    <glyph glyph-name="Ubreve" unicode="&#x16c;" horiz-adv-x="693" 
d="M346 -15c-77.333 0 -140.667 23 -190 69s-74 110.333 -74 193v462h119v-455c0 -49.333 12.833 -87.5 38.5 -114.5s61.167 -40.5 106.5 -40.5c46 0 81.667 13.333 107 40s38 65 38 115v455h120v-462c0 -82.667 -24.833 -147 -74.5 -193s-113.167 -69 -190.5 -69z
M346.999 754c-49.333 0 -87.9971 13 -115.997 39s-43 57 -45 93h93c1.33301 -14.667 7.66602 -27.334 18.999 -38.001s27.666 -16 48.999 -16s37.666 5.33301 48.999 16s17.333 23.334 18 38.001h93c-1.33301 -36 -16 -67 -44 -93s-66.667 -39 -116 -39z" />
    <glyph glyph-name="ubreve" unicode="&#x16d;" horiz-adv-x="571" 
d="M389 54c-11.333 -21.333 -29.834 -37.999 -55.501 -49.999s-53.167 -18 -82.5 -18c-56.667 0 -101.5 18.333 -134.5 55s-49.5 83 -49.5 139v307h116v-286c0 -32.667 8 -59.334 24 -80.001s40.667 -31 74 -31c32.667 0 57.834 10 75.501 30s26.5 46.333 26.5 79v288h116
v-398c0 -29.333 1.66699 -59 5 -89h-111c-2.66699 14.667 -4 32.667 -4 54zM281.999 547.001c-47.333 0 -84.5 14.333 -111.5 43s-41.167 63.334 -42.5 104.001h82c1.33301 -16.667 7.83301 -31 19.5 -43s29.167 -18 52.5 -18s41 6.16699 53 18.5s18.667 26.5 20 42.5h82
c-1.33301 -40.667 -15.5 -75.334 -42.5 -104.001s-64.5 -43 -112.5 -43z" />
    <glyph glyph-name="Uring" unicode="&#x16e;" horiz-adv-x="693" 
d="M346 -15c-77.333 0 -140.667 23 -190 69s-74 110.333 -74 193v462h119v-455c0 -49.333 12.833 -87.5 38.5 -114.5s61.167 -40.5 106.5 -40.5c46 0 81.667 13.333 107 40s38 65 38 115v455h120v-462c0 -82.667 -24.833 -147 -74.5 -193s-113.167 -69 -190.5 -69z
M468.999 853c0 -33.333 -12.167 -61.5 -36.5 -84.5s-53.166 -34.5 -86.499 -34.5s-62 11.5 -86 34.5s-36 51.167 -36 84.5s12 61.5 36 84.5s52.667 34.5 86 34.5s62.166 -11.5 86.499 -34.5s36.5 -51.167 36.5 -84.5zM392.999 853c0 14 -4.5 25.333 -13.5 34
s-20.167 13 -33.5 13s-24.5 -4.33301 -33.5 -13s-13.5 -20 -13.5 -34s4.5 -25.333 13.5 -34s20.167 -13 33.5 -13s24.5 4.33301 33.5 13s13.5 20 13.5 34z" />
    <glyph glyph-name="uring" unicode="&#x16f;" horiz-adv-x="571" 
d="M397 645c0 -31.333 -11.167 -57.5 -33.5 -78.5s-49.166 -31.5 -80.499 -31.5c-30.667 0 -57.167 10.667 -79.5 32s-33.5 47.333 -33.5 78c0 31.333 11.167 57.666 33.5 78.999s48.833 32 79.5 32c31.333 0 58.166 -10.667 80.499 -32s33.5 -47.666 33.5 -78.999zM327 645
c0 12.667 -4.16895 23.334 -12.502 32.001s-19.166 13 -32.499 13c-12 0 -22.167 -4.33301 -30.5 -13s-12.5 -19.334 -12.5 -32.001s4.16699 -23.167 12.5 -31.5s18.5 -12.5 30.5 -12.5c12.667 0 23.334 4.16699 32.001 12.5s13 18.833 13 31.5zM388.998 54
c-11.333 -21.333 -29.834 -37.999 -55.501 -49.999s-53.167 -18 -82.5 -18c-56.667 0 -101.5 18.333 -134.5 55s-49.5 83 -49.5 139v307h116v-286c0 -32.667 8 -59.334 24 -80.001s40.667 -31 74 -31c32.667 0 57.834 10 75.501 30s26.5 46.333 26.5 79v288h116v-398
c0 -29.333 1.66699 -59 5 -89h-111c-2.66699 14.667 -4 32.667 -4 54z" />
    <glyph glyph-name="Uhungarumlaut" unicode="&#x170;" horiz-adv-x="693" 
d="M394 883l-95 -124h-79l56 124h118zM556 883l-107 -124h-80l69 124h118zM346 -15c-77.333 0 -140.667 23 -190 69s-74 110.333 -74 193v462h119v-455c0 -49.333 12.833 -87.5 38.5 -114.5s61.167 -40.5 106.5 -40.5c46 0 81.667 13.333 107 40s38 65 38 115v455h120v-462
c0 -82.667 -24.833 -147 -74.5 -193s-113.167 -69 -190.5 -69z" />
    <glyph glyph-name="uhungarumlaut" unicode="&#x171;" horiz-adv-x="571" 
d="M389 54c-11.333 -21.333 -29.834 -37.999 -55.501 -49.999s-53.167 -18 -82.5 -18c-56.667 0 -101.5 18.333 -134.5 55s-49.5 83 -49.5 139v307h116v-286c0 -32.667 8 -59.334 24 -80.001s40.667 -31 74 -31c32.667 0 57.834 10 75.501 30s26.5 46.333 26.5 79v288h116
v-398c0 -29.333 1.66699 -59 5 -89h-111c-2.66699 14.667 -4 32.667 -4 54zM326.999 696.001l-94 -148h-76l52 148h118zM481.999 696.001l-107 -148h-76l64 148h119z" />
    <glyph glyph-name="Uogonek" unicode="&#x172;" horiz-adv-x="693" 
d="M397 -220c-34 0 -62.3311 9.50098 -84.998 28.501s-34 44.167 -34 75.5c0 40.667 16.667 74.667 50 102c-72.667 3.33301 -131.834 27.833 -177.501 73.5s-68.5 108.167 -68.5 187.5v462h119v-455c0 -49.333 12.833 -87.5 38.5 -114.5s61.167 -40.5 106.5 -40.5
c46 0 81.667 13.333 107 40s38 65 38 115v455h120v-462c0 -122 -53.667 -204.333 -161 -247c-56.667 -22.667 -85 -53.334 -85 -92.001c0 -16 5 -28.167 15 -36.5s22.333 -12.5 37 -12.5c11.333 0 21.666 1 30.999 3v-74c-14 -5.33301 -31 -8 -51 -8z" />
    <glyph glyph-name="uogonek" unicode="&#x173;" horiz-adv-x="571" 
d="M334 -116c0 49.333 23.665 88.001 70.998 116.001h-12c-2.66699 14.667 -4 32.667 -4 54c-11.333 -21.333 -29.833 -38 -55.5 -50s-53.167 -18 -82.5 -18c-56.667 0 -101.5 18.333 -134.5 55s-49.5 83 -49.5 139v307h116v-286c0 -32.667 8 -59.334 24 -80.001
s40.667 -31 74 -31c32.667 0 57.834 10 75.501 30s26.5 46.333 26.5 79v288h116v-398c0 -27.333 1.66699 -57 5 -89c-54.667 -26 -82 -57.667 -82 -95c0 -15.333 4.83301 -26.833 14.5 -34.5s21.834 -11.5 36.501 -11.5c10.667 0 21 1 31 3v-74c-14 -5.33301 -31 -8 -51 -8
c-34 0 -62.333 9.5 -85 28.5s-34 44.167 -34 75.5z" />
    <glyph glyph-name="Wcircumflex" unicode="&#x174;" horiz-adv-x="1032" 
d="M441 759h-107l116 124h129l119 -124h-110l-75 64zM748 187l139 522h124l-199 -709h-124l-172 536l-172 -536h-123l-201 709h126l142 -518l166 518h125z" />
    <glyph glyph-name="wcircumflex" unicode="&#x175;" horiz-adv-x="826" 
d="M344 549h-97l107 143h121l108 -143h-99l-70 77zM357 487h120l115 -337l97 337h118l-156 -487h-116l-121 350l-118 -350h-119l-158 487h124l99 -337z" />
    <glyph glyph-name="Ycircumflex" unicode="&#x176;" horiz-adv-x="651" 
d="M265 300l-248 409h142l170 -297l171 297h135l-250 -409v-300h-120v300zM251 759h-107l116 124h129l119 -124h-110l-75 64z" />
    <glyph glyph-name="ycircumflex" unicode="&#x177;" horiz-adv-x="551" 
d="M230 -197h-124l117 255l-208 429h131l140 -308l131 308h123zM207 549h-97l107 143h121l108 -143h-99l-70 77z" />
    <glyph glyph-name="Ydieresis" unicode="&#x178;" horiz-adv-x="651" 
d="M142 821c0 18.667 6.33301 34.5 19 47.5s28.334 19.5 47.001 19.5s34.334 -6.5 47.001 -19.5s19 -28.833 19 -47.5s-6.33301 -34.334 -19 -47.001s-28.334 -19 -47.001 -19s-34.334 6.33301 -47.001 19s-19 28.334 -19 47.001zM381 821c0 18.667 6.33301 34.5 19 47.5
s28.334 19.5 47.001 19.5s34.5 -6.5 47.5 -19.5s19.5 -28.833 19.5 -47.5s-6.5 -34.334 -19.5 -47.001s-28.833 -19 -47.5 -19s-34.334 6.33301 -47.001 19s-19 28.334 -19 47.001zM265 300l-248 409h142l170 -297l171 297h135l-250 -409v-300h-120v300z" />
    <glyph glyph-name="Zacute" unicode="&#x179;" horiz-adv-x="639" 
d="M486 883l-142 -124h-109l102 124h149zM595 0h-553v118l393 478h-382v113h537v-114l-398 -481h403v-114z" />
    <glyph glyph-name="zacute" unicode="&#x17a;" horiz-adv-x="488" 
d="M397 696l-131 -148h-95l89 148h137zM443 0h-398v101l247 284h-242v102h388v-98l-250 -287h255v-102z" />
    <glyph glyph-name="Zdotaccent" unicode="&#x17b;" horiz-adv-x="639" 
d="M595 0h-553v118l393 478h-382v113h537v-114l-398 -481h403v-114zM250 826c0 20.667 7.16699 38 21.5 52s31.5 21 51.5 21s37.167 -7 51.5 -21s21.5 -31.333 21.5 -52c0 -19.333 -7.16699 -36 -21.5 -50s-31.5 -21 -51.5 -21s-37.167 7 -51.5 21s-21.5 30.667 -21.5 50z
" />
    <glyph glyph-name="zdotaccent" unicode="&#x17c;" horiz-adv-x="488" 
d="M443 0h-398v101l247 284h-242v102h388v-98l-250 -287h255v-102zM173 622c0 20 7 37 21 51s31 21 51 21s37 -7 51 -21s21 -31 21 -51c0 -19.333 -7 -36 -21 -50s-31 -21 -51 -21s-37 7 -51 21s-21 30.667 -21 50z" />
    <glyph glyph-name="Zcaron" unicode="&#x17d;" horiz-adv-x="639" 
d="M143 883h109l72 -65l75 65h108l-119 -124h-129zM595 0h-553v118l393 478h-382v113h537v-114l-398 -481h403v-114z" />
    <glyph glyph-name="zcaron" unicode="&#x17e;" horiz-adv-x="488" 
d="M80 694h98l70 -77l70 77h98l-106 -145h-124zM443 0h-398v101l247 284h-242v102h388v-98l-250 -287h255v-102z" />
    <glyph glyph-name="uni018F" unicode="&#x18f;" horiz-adv-x="790" 
d="M385 724c104 0 189.998 -32.832 257.998 -98.499s102 -156.834 102 -273.501c0 -74.667 -16.833 -140.5 -50.5 -197.5s-77 -99.5 -130 -127.5s-111.167 -42 -174.5 -42c-46 0 -89.833 7.83301 -131.5 23.5s-79.167 38.167 -112.5 67.5s-59.833 67.833 -79.5 115.5
s-29.5 101.167 -29.5 160.5c0 8.66699 0.333008 17.334 1 26.001h582c-3.33301 75.333 -27.666 133.166 -72.999 173.499s-100 60.5 -164 60.5c-56 0 -104.667 -15.667 -146 -47s-68.333 -68 -81 -110l-110 39c18.667 64 58.834 118.333 120.501 163s134.5 67 218.5 67z
M389.998 95.001c57.333 0 105.667 16.167 145 48.5s64.333 76.166 75 131.499h-441c8 -53.333 32.167 -96.666 72.5 -129.999s89.833 -50 148.5 -50z" />
    <glyph glyph-name="florin" unicode="&#x192;" horiz-adv-x="502" 
d="M112 24l72.9971 364h-103v99h123l21 101c10.667 50.667 32.334 88.667 65.001 114s70 38 112 38c28.667 0 56 -4 82 -12v-101c-17.333 5.33301 -36.333 8 -57 8c-48.667 0 -78.667 -28 -90 -84l-13 -64h122v-99h-142l-81 -401c-10 -50.667 -31.5 -88.667 -64.5 -114
s-70.5 -38 -112.5 -38c-29.333 0 -57.666 4 -84.999 12v101c18.667 -4.66699 39 -7 61 -7c48.667 0 78.334 27.667 89.001 83z" />
    <glyph glyph-name="uni01B5" unicode="&#x1b5;" horiz-adv-x="639" 
d="M595 0h-553v118l163 199h-130v101h213l147 178h-382v113h537v-114l-147 -177h117v-101h-200l-168 -203h403v-114z" />
    <glyph glyph-name="uni01B6" unicode="&#x1b6;" horiz-adv-x="488" 
d="M443 0h-398v91l98 115h-90v86h163l81 95h-247v100h388v-93l-87 -102h83v-86h-156l-90 -106h255v-100z" />
    <glyph glyph-name="Aringacute" unicode="&#x1fa;" horiz-adv-x="717" 
d="M552 1032l-142 -124h-109l102 124h149zM356 579l-108 -290h216zM356 709c14 0 25.833 4.66699 35.5 14s14.5 21.333 14.5 36c0 14 -4.83301 25.667 -14.5 35s-21.5 14 -35.5 14s-25.833 -4.66699 -35.5 -14s-14.5 -21 -14.5 -35c0 -14.667 4.83301 -26.667 14.5 -36
s21.5 -14 35.5 -14zM486 759c0 -37.333 -13.999 -68.333 -41.999 -93l260 -666h-131l-67 178h-300l-66 -178h-127l258 663c-29.333 24.667 -44 56.667 -44 96c0 35.333 12.667 65.166 38 89.499s55.666 36.5 90.999 36.5s65.833 -12.167 91.5 -36.5
s38.5 -54.166 38.5 -89.499z" />
    <glyph glyph-name="aringacute" unicode="&#x1fb;" horiz-adv-x="532" 
d="M42 132c0 41.333 13.498 74.5 40.498 99.5s62.5 40.833 106.5 47.5l125 19c24 3.33301 36 15 36 35c0 22 -7.66699 39.833 -23 53.5s-38.333 20.5 -69 20.5c-29.333 0 -52.666 -8.16699 -69.999 -24.5s-27.333 -37.5 -30 -63.5l-106 24c4.66699 44 25.667 81.5 63 112.5
s84.666 46.5 141.999 46.5c70.667 0 122.834 -17 156.501 -51s50.5 -77.667 50.5 -131v-242c0 -32 2 -58 6 -78h-108c-3.33301 10 -5 30.667 -5 62c-32 -51.333 -82 -77 -150 -77c-49.333 0 -89.166 14.5 -119.499 43.5s-45.5 63.5 -45.5 103.5zM228.998 76
c36 0 65.167 9.83105 87.5 29.498s33.5 51.834 33.5 96.501v22l-127 -19c-43.333 -7.33301 -65 -29.333 -65 -66c0 -17.333 6.33301 -32.166 19 -44.499s30 -18.5 52 -18.5zM434.998 930.998l-131 -148h-95l89 148h137zM373.998 639.998
c0 -31.333 -11.167 -57.5 -33.5 -78.5s-49.166 -31.5 -80.499 -31.5c-30.667 0 -57.167 10.667 -79.5 32s-33.5 47.333 -33.5 78c0 31.333 11.167 57.666 33.5 78.999s48.833 32 79.5 32c31.333 0 58.166 -10.667 80.499 -32s33.5 -47.666 33.5 -78.999zM303.998 639.998
c0 13.333 -4.33301 24.168 -13 32.501s-19.334 12.5 -32.001 12.5c-12 0 -22.167 -4.33301 -30.5 -13s-12.5 -19.334 -12.5 -32.001s4.16699 -23.167 12.5 -31.5s18.5 -12.5 30.5 -12.5c12.667 0 23.334 4.16699 32.001 12.5s13 18.833 13 31.5z" />
    <glyph glyph-name="AEacute" unicode="&#x1fc;" horiz-adv-x="1027" 
d="M743 883l-142 -124h-109l102 124h149zM974 0h-438v180h-277l-115 -180h-149l470 709h509v-112h-318v-188h288v-109h-288v-188h318v-112zM325 283h211v328z" />
    <glyph glyph-name="aeacute" unicode="&#x1fd;" horiz-adv-x="871" 
d="M603 696l-131 -148h-95l89 148h137zM727 171l98 -32c-13.333 -44 -40 -80.667 -80 -110s-87.333 -44 -142 -44c-39.333 0 -76 8.33301 -110 25s-62.333 40 -85 70c-42 -63.333 -104.667 -95 -188 -95c-55.333 0 -99 14.333 -131 43s-48 63.334 -48 104.001
c0 41.333 13.5 74.5 40.5 99.5s62.5 40.833 106.5 47.5l132 19c24.667 3.33301 37 15 37 35c0 21.333 -8.5 39.166 -25.5 53.499s-40.833 21.5 -71.5 21.5c-30 0 -54.667 -8.33301 -74 -25s-30.333 -37 -33 -61l-102 21c4 44 26.167 81.5 66.5 112.5
s88.166 46.5 143.499 46.5c76 0 132 -23.667 168 -71c45.333 47.333 100.333 71 165 71c74 0 131.833 -22.667 173.5 -68s62.5 -107 62.5 -185c0 -12.667 -0.666992 -25 -2 -37h-358c1.33301 -37.333 14.833 -67.833 40.5 -91.5s56.834 -35.5 93.501 -35.5
c62 0 103 28.667 123 86zM232 76c34 0 63.334 10 88.001 30s37 51.667 37 95v23l-135 -19c-43.333 -6 -65 -28.667 -65 -68c0 -16.667 6.66699 -31 20 -43s31.666 -18 54.999 -18zM473.001 297h241.001c-1.33301 30.667 -12.333 56.334 -33 77.001s-50 31 -88 31
c-34.667 0 -62.834 -10.833 -84.501 -32.5s-33.5 -46.834 -35.5 -75.501z" />
    <glyph glyph-name="Oslashacute" unicode="&#x1fe;" horiz-adv-x="809" 
d="M596 883l-142 -124h-109l102 124h149zM44 355c0 74.667 17.167 140.499 51.5 197.499s78.5 99.833 132.5 128.5s112.667 43 176 43c65.333 0 127.333 -16.667 186 -50l71 91l78 -60l-72 -92c65.333 -68.667 98 -154.667 98 -258c0 -74.667 -17.333 -140.667 -52 -198
s-79 -100.333 -133 -129s-112.667 -43 -176 -43c-67.333 0 -129 16 -185 48l-68 -88l-80 59l71 91c-65.333 68.667 -98 155.334 -98 260.001zM167 354.999c0 -66 16.333 -120.667 49 -164l303 391c-35.333 19.333 -73.666 29 -114.999 29
c-64.667 0 -120.334 -22.5 -167.001 -67.5s-70 -107.833 -70 -188.5zM642 354.999c0 62.667 -16 116.667 -48 162l-303 -391c35.333 -18 73 -27 113 -27c64.667 0 120.5 22.5 167.5 67.5s70.5 107.833 70.5 188.5z" />
    <glyph glyph-name="oslashacute" unicode="&#x1ff;" horiz-adv-x="587" 
d="M468 696l-131 -148h-95l89 148h137zM293 502c47.333 0 90.332 -11.001 128.999 -33.001l52 65l62 -51l-52 -65c41.333 -48 62 -106 62 -174c0 -74.667 -23.833 -136.5 -71.5 -185.5s-108.167 -73.5 -181.5 -73.5c-46.667 0 -88.667 10.667 -126 32l-50 -63l-63 51l50 63
c-42 47.333 -63 106 -63 176c0 74.667 23.833 136.334 71.5 185.001s107.834 73 180.501 73zM156.999 243.999c0 -32.667 6.33301 -61 19 -85l178 224c-20 9.33301 -40.333 14 -61 14c-38 0 -70.167 -13.5 -96.5 -40.5s-39.5 -64.5 -39.5 -112.5zM292.999 88.999
c38 0 70.167 13.667 96.5 41s39.5 65.333 39.5 114c0 30.667 -6 58 -18 82l-177 -224c17.333 -8.66699 37 -13 59 -13z" />
    <glyph glyph-name="Scommaaccent" unicode="&#x218;" horiz-adv-x="602" 
d="M551 543l-107.997 -33.999c-4.66699 27.333 -18.334 52.333 -41.001 75s-55.334 34 -98.001 34c-35.333 0 -64.5 -10 -87.5 -30s-34.5 -44 -34.5 -72c0 -48.667 27.667 -79 83 -91l102 -21c61.333 -12 108.666 -36.333 141.999 -73s50 -80.334 50 -131.001
c0 -58.667 -22.5 -109.167 -67.5 -151.5s-106.167 -63.5 -183.5 -63.5c-83.333 0 -148.333 21.833 -195 65.5s-73 94.5 -79 152.5l112 32c4 -40 20 -73.667 48 -101s66 -41 114 -41c41.333 0 73.166 9.16699 95.499 27.5s33.5 41.833 33.5 70.5
c0 23.333 -8.33301 43.5 -25 60.5s-40 28.833 -70 35.5l-100 21c-55.333 11.333 -99.166 34.333 -131.499 69s-48.5 78 -48.5 130c0 59.333 23.667 110.333 71 153s104 64 170 64c75.333 0 133 -18.167 173 -54.5s65 -78.5 75 -126.5zM243.003 -95.999
c0 16.667 6.49902 30.665 19.499 41.998s28.833 17 47.5 17c20 0 37.333 -7.16699 52 -21.5s22 -34.166 22 -59.499c0 -41.333 -13.167 -71.666 -39.5 -90.999s-56.166 -29 -89.499 -29v44c20 0 36.833 4.83301 50.5 14.5s21.167 20.834 22.5 33.501
c-4.66699 -4.66699 -13 -7 -25 -7c-18 0 -32.5 5.16699 -43.5 15.5s-16.5 24.166 -16.5 41.499z" />
    <glyph glyph-name="scommaaccent" unicode="&#x219;" horiz-adv-x="465" 
d="M38 132l100.998 28.001c2 -23.333 11.667 -43 29 -59s40.666 -24 69.999 -24c22.667 0 40.5 5.33301 53.5 16s19.5 24 19.5 40c0 28 -19 46 -57 54l-72 16c-42 9.33301 -74.333 26.666 -97 51.999s-34 55.333 -34 90c0 42.667 17.333 79.5 52 110.5s77 46.5 127 46.5
c32 0 60.333 -4.66699 85 -14s43.834 -21.5 57.501 -36.5s24.167 -29.5 31.5 -43.5s12 -28 14 -42l-98 -28c-2.66699 18.667 -11.167 35.5 -25.5 50.5s-35.833 22.5 -64.5 22.5c-20 0 -36.667 -5.5 -50 -16.5s-20 -24.167 -20 -39.5c0 -27.333 16.333 -44.333 49 -51l74 -15
c45.333 -10 80 -28 104 -54s36 -57.333 36 -94c0 -40.667 -16.167 -76.834 -48.5 -108.501s-77.5 -47.5 -135.5 -47.5c-33.333 0 -63.166 5 -89.499 15s-47 22.833 -62 38.5s-26.667 31.334 -35 47.001s-13.166 31.167 -14.499 46.5zM167.998 -97.999
c0 16.667 6.49902 30.665 19.499 41.998s28.833 17 47.5 17c20 0 37.333 -7.16699 52 -21.5s22 -34.166 22 -59.499c0 -41.333 -13.167 -71.666 -39.5 -90.999s-56.166 -29 -89.499 -29v44c20 0 36.833 4.83301 50.5 14.5s21.167 20.834 22.5 33.501
c-4.66699 -4.66699 -13 -7 -25 -7c-18 0 -32.5 5.16699 -43.5 15.5s-16.5 24.166 -16.5 41.499z" />
    <glyph glyph-name="uni021A" unicode="&#x21a;" horiz-adv-x="615" 
d="M598 596h-231v-596h-120v596h-230v113h581v-113zM237 -96c0 16.667 6.49902 30.665 19.499 41.998s28.833 17 47.5 17c20 0 37.333 -7.16699 52 -21.5s22 -34.166 22 -59.499c0 -41.333 -13.167 -71.666 -39.5 -90.999s-56.166 -29 -89.499 -29v44
c20 0 36.833 4.83301 50.5 14.5s21.167 20.834 22.5 33.501c-4.66699 -4.66699 -13 -7 -25 -7c-18 0 -32.5 5.16699 -43.5 15.5s-16.5 24.166 -16.5 41.499z" />
    <glyph glyph-name="uni021B" unicode="&#x21b;" horiz-adv-x="365" 
d="M182 -105l-34.999 43.001l43 68c-53.333 20.667 -80 65 -80 133v245h-90v103h25c24.667 0 43.334 7 56.001 21s19 32.333 19 55v73h105v-149h101v-103h-101v-226c0 -21.333 5 -36.833 15 -46.5s25.667 -14.5 47 -14.5c13.333 0 26.666 1.33301 39.999 4v-96
c-15.333 -6.66699 -37.666 -10.334 -66.999 -11.001l-26 -41c28.667 -0.666992 52 -8.66699 70 -24s27 -35.333 27 -60c0 -26 -10.167 -47.833 -30.5 -65.5s-51.166 -26.5 -92.499 -26.5c-24.667 0 -47.334 4.66699 -68.001 14s-36.334 20.666 -47.001 33.999l41 50
c23.333 -23.333 47.666 -35 72.999 -35c29.333 0 44 10 44 30c0 8.66699 -3.66699 15.834 -11 21.501s-17.333 8.5 -30 8.5c-10 0 -19.333 -1.66699 -28 -5z" />
    <glyph glyph-name="dotlessj" unicode="&#x237;" horiz-adv-x="260" 
d="M72 -40v527h116v-536c0 -46 -13 -83.5 -39 -112.5s-61.333 -43.5 -106 -43.5c-29.333 0 -51.333 3 -66 9v96c10 -2 21.667 -3 35 -3c40 0 60 21 60 63z" />
    <glyph glyph-name="uni0259" unicode="&#x259;" horiz-adv-x="560" 
d="M400 188h-244.001c1.33301 -30.667 12.833 -56.167 34.5 -76.5s51.5 -30.5 89.5 -30.5c34.667 0 62.834 10.667 84.501 32s33.5 46.333 35.5 75zM140.999 316l-95.998 33.999c14.667 43.333 42.5 79.5 83.5 108.5s89.5 43.5 145.5 43.5c74 0 133.167 -23.833 177.5 -71.5
s66.5 -110.5 66.5 -188.5c0 -75.333 -23 -137 -69 -185s-102 -72 -168 -72c-73.333 0 -132 22.833 -176 68.5s-66 106.5 -66 182.5c0 4.66699 0.166992 9.83398 0.5 15.501s0.5 10.5 0.5 14.5l1 5h362c-1.33301 39.333 -13.833 71.166 -37.5 95.499
s-54.834 36.5 -93.501 36.5c-32.667 0 -60.334 -8.16699 -83.001 -24.5s-38.667 -37.166 -48 -62.499z" />
    <glyph glyph-name="circumflex" unicode="&#x2c6;" horiz-adv-x="396" 
d="M127 549h-97l107 143h121l108 -143h-99l-70 77z" />
    <glyph glyph-name="caron" unicode="&#x2c7;" horiz-adv-x="396" 
d="M30 694h98l70 -77l70 77h98l-106 -145h-124z" />
    <glyph glyph-name="uni02C9" unicode="&#x2c9;" horiz-adv-x="338" 
d="M308 577h-278v90h278v-90z" />
    <glyph glyph-name="breve" unicode="&#x2d8;" horiz-adv-x="369" 
d="M184 547c-47.333 0 -84.5 14.333 -111.5 43s-41.167 63.334 -42.5 104.001h82c1.33301 -16.667 7.83301 -31 19.5 -43s29.167 -18 52.5 -18s41 6.16699 53 18.5s18.667 26.5 20 42.5h82c-1.33301 -40.667 -15.5 -75.334 -42.5 -104.001s-64.5 -43 -112.5 -43z" />
    <glyph glyph-name="dotaccent" unicode="&#x2d9;" horiz-adv-x="184" 
d="M20 622c0 20 7 37 21 51s31 21 51 21s37 -7 51 -21s21 -31 21 -51c0 -19.333 -7 -36 -21 -50s-31 -21 -51 -21s-37 7 -51 21s-21 30.667 -21 50z" />
    <glyph glyph-name="ring" unicode="&#x2da;" horiz-adv-x="287" 
d="M257 645c0 -31.333 -11.167 -57.5 -33.5 -78.5s-49.166 -31.5 -80.499 -31.5c-30.667 0 -57.167 10.667 -79.5 32s-33.5 47.333 -33.5 78c0 31.333 11.167 57.666 33.5 78.999s48.833 32 79.5 32c31.333 0 58.166 -10.667 80.499 -32s33.5 -47.666 33.5 -78.999zM187 645
c0 12.667 -4.16895 23.334 -12.502 32.001s-19.166 13 -32.499 13c-12 0 -22.167 -4.33301 -30.5 -13s-12.5 -19.334 -12.5 -32.001s4.16699 -23.167 12.5 -31.5s18.5 -12.5 30.5 -12.5c12.667 0 23.334 4.16699 32.001 12.5s13 18.833 13 31.5z" />
    <glyph glyph-name="ogonek" unicode="&#x2db;" horiz-adv-x="228" 
d="M147 -220c-34 0 -62.334 9.5 -85.001 28.5s-34 44.167 -34 75.5c0 58 34 102 102 132l68 -16c-54.667 -26 -82 -57.667 -82 -95c0 -15.333 4.83301 -26.833 14.5 -34.5s21.834 -11.5 36.501 -11.5c10.667 0 21 1 31 3v-74c-14 -5.33301 -31 -8 -51 -8z" />
    <glyph glyph-name="tilde" unicode="&#x2dc;" horiz-adv-x="385" 
d="M27 556l-1 17.999c0 37.333 9.5 65.833 28.5 85.5s43.833 29.5 74.5 29.5c22 0 45.333 -7.33301 70 -22l10 -6c18.667 -11.333 33 -17 43 -17c20.667 0 31 14.667 31 44h76v-17c0 -37.333 -9.5 -66.166 -28.5 -86.499s-43.5 -30.5 -73.5 -30.5
c-22 0 -45.667 7.66699 -71 23l-10 6c-18 10.667 -32.333 16 -43 16c-20 0 -30 -14.333 -30 -43h-76z" />
    <glyph glyph-name="hungarumlaut" unicode="&#x2dd;" horiz-adv-x="383" 
d="M199 696l-94 -148h-76l52 148h118zM354 696l-107 -148h-76l64 148h119z" />
    <glyph glyph-name="uni0394" unicode="&#x394;" horiz-adv-x="732" 
d="M27 0l274 709h129l275 -709h-678zM365 576l-171 -465h343z" />
    <glyph glyph-name="uni03A9" unicode="&#x3a9;" horiz-adv-x="806" 
d="M403 614c-60 0 -112.667 -20.167 -158 -60.5s-68 -94.5 -68 -162.5c0 -60 18.667 -110.167 56 -150.5s81 -65.833 131 -76.5v-164h-304v109h189c-54 21.333 -100 57.333 -138 108s-57 110.334 -57 179.001c0 98.667 34.333 178 103 238s150.667 90 246 90
s177.333 -30 246 -90s103 -139.333 103 -238c0 -68.667 -19 -128.334 -57 -179.001s-84 -86.667 -138 -108h189v-109h-304v164c50 10.667 93.667 36.167 131 76.5s56 90.5 56 150.5c0 68 -22.667 122.167 -68 162.5s-98 60.5 -158 60.5z" />
    <glyph glyph-name="uni03BC" unicode="&#x3bc;" horiz-adv-x="562" 
d="M387 54c-11.333 -21.333 -29.834 -37.999 -55.501 -49.999s-53.167 -18 -82.5 -18c-25.333 0 -48 4 -68 12v-188h-116v677h116v-286c0 -32.667 8 -59.334 24 -80.001s40.667 -31 74 -31c32.667 0 57.834 10 75.501 30s26.5 46.333 26.5 79v288h116v-398
c0 -29.333 1.66699 -59 5 -89h-111c-2.66699 14.667 -4 32.667 -4 54z" />
    <glyph glyph-name="pi" unicode="&#x3c0;" horiz-adv-x="620" 
d="M573 5c-23.333 -8.66699 -45.001 -13 -65.001 -13c-43.333 0 -76.166 12.333 -98.499 37s-33.5 56.667 -33.5 96v262h-147v-387h-115v387h-83v100h540v-100h-80v-248c0 -32 17 -48 51 -48c12.667 0 23 1.33301 31 4v-90z" />
    <glyph glyph-name="Wgrave" unicode="&#x1e80;" horiz-adv-x="1032" 
d="M468 759l-143 124h148l103 -124h-108zM748 187l139 522h124l-199 -709h-124l-172 536l-172 -536h-123l-201 709h126l142 -518l166 518h125z" />
    <glyph glyph-name="wgrave" unicode="&#x1e81;" horiz-adv-x="826" 
d="M357 487h120l115 -337l97 337h118l-156 -487h-116l-121 350l-118 -350h-119l-158 487h124l99 -337zM369 548l-132 148h139l88 -148h-95z" />
    <glyph glyph-name="Wacute" unicode="&#x1e82;" horiz-adv-x="1032" 
d="M711 883l-142 -124h-109l102 124h149zM748 187l139 522h124l-199 -709h-124l-172 536l-172 -536h-123l-201 709h126l142 -518l166 518h125z" />
    <glyph glyph-name="wacute" unicode="&#x1e83;" horiz-adv-x="826" 
d="M591 696l-131 -148h-95l89 148h137zM357 487h120l115 -337l97 337h118l-156 -487h-116l-121 350l-118 -350h-119l-158 487h124l99 -337z" />
    <glyph glyph-name="Wdieresis" unicode="&#x1e84;" horiz-adv-x="1032" 
d="M307 821c0 18.667 6.33301 34.5 19 47.5s28.334 19.5 47.001 19.5s34.5 -6.5 47.5 -19.5s19.5 -28.833 19.5 -47.5s-6.5 -34.334 -19.5 -47.001s-28.833 -19 -47.5 -19s-34.334 6.33301 -47.001 19s-19 28.334 -19 47.001zM594 821c0 18.667 6.33301 34.5 19 47.5
s28.334 19.5 47.001 19.5s34.334 -6.5 47.001 -19.5s19 -28.833 19 -47.5s-6.33301 -34.334 -19 -47.001s-28.334 -19 -47.001 -19s-34.334 6.33301 -47.001 19s-19 28.334 -19 47.001zM748 187l139 522h124l-199 -709h-124l-172 536l-172 -536h-123l-201 709h126l142 -518
l166 518h125z" />
    <glyph glyph-name="wdieresis" unicode="&#x1e85;" horiz-adv-x="826" 
d="M236 625c0 18 6.16699 33.333 18.5 46s27.5 19 45.5 19c18.667 0 34.167 -6.33301 46.5 -19s18.5 -28 18.5 -46c0 -18.667 -6.16699 -34.167 -18.5 -46.5s-27.833 -18.5 -46.5 -18.5c-18 0 -33.167 6.16699 -45.5 18.5s-18.5 27.833 -18.5 46.5zM462 625
c0 18 6.16699 33.333 18.5 46s27.833 19 46.5 19c18 0 33.333 -6.33301 46 -19s19 -28 19 -46c0 -18.667 -6.33301 -34.167 -19 -46.5s-28 -18.5 -46 -18.5c-18.667 0 -34.167 6.16699 -46.5 18.5s-18.5 27.833 -18.5 46.5zM357 487h120l115 -337l97 337h118l-156 -487h-116
l-121 350l-118 -350h-119l-158 487h124l99 -337z" />
    <glyph glyph-name="uni1E8A" unicode="&#x1e8a;" horiz-adv-x="639" 
d="M628 709l-236 -355l235 -354h-144l-165 259l-167 -259h-141l237 355l-235 354h144l165 -260l166 260h141zM245 826c0 20.667 7.16699 38 21.5 52s31.5 21 51.5 21s37.167 -7 51.5 -21s21.5 -31.333 21.5 -52c0 -19.333 -7.16699 -36 -21.5 -50s-31.5 -21 -51.5 -21
s-37.167 7 -51.5 21s-21.5 30.667 -21.5 50z" />
    <glyph glyph-name="uni1E8B" unicode="&#x1e8b;" horiz-adv-x="522" 
d="M16 0l177.001 246l-174 241h138c3.33301 -5.33301 21.5 -31.833 54.5 -79.5s50.5 -73.167 52.5 -76.5l106 156h132l-171 -239l177 -248h-136l-113 163c-2 -2.66699 -11.833 -17.167 -29.5 -43.5l-51.5 -76c-16.667 -24.333 -26.334 -38.833 -29.001 -43.5h-133z
M189.001 622c0 20 7 37 21 51s31 21 51 21s37 -7 51 -21s21 -31 21 -51c0 -19.333 -7 -36 -21 -50s-31 -21 -51 -21s-37 7 -51 21s-21 30.667 -21 50z" />
    <glyph glyph-name="Ygrave" unicode="&#x1ef2;" horiz-adv-x="651" 
d="M265 300l-248 409h142l170 -297l171 297h135l-250 -409v-300h-120v300zM287 759l-143 124h148l103 -124h-108z" />
    <glyph glyph-name="ygrave" unicode="&#x1ef3;" horiz-adv-x="551" 
d="M230 -197h-124l117 255l-208 429h131l140 -308l131 308h123zM248 548l-132 148h139l88 -148h-95z" />
    <glyph glyph-name="uni2007" unicode="&#x2007;" horiz-adv-x="623" 
 />
    <glyph glyph-name="uni2008" unicode="&#x2008;" horiz-adv-x="265" 
 />
    <glyph glyph-name="uni200B" unicode="&#x200b;" horiz-adv-x="0" 
 />
    <glyph glyph-name="endash" unicode="&#x2013;" horiz-adv-x="646" 
d="M580 242h-514v101h514v-101z" />
    <glyph glyph-name="emdash" unicode="&#x2014;" horiz-adv-x="1078" 
d="M1012 242h-946v101h946v-101z" />
    <glyph glyph-name="quoteleft" unicode="&#x2018;" horiz-adv-x="250" 
d="M199 509c0 -18 -6.99902 -33.499 -20.999 -46.499s-31.333 -19.5 -52 -19.5c-23.333 0 -42.5 8.33301 -57.5 25s-22.5 38.667 -22.5 66c0 56.667 14.833 100.167 44.5 130.5s62.834 47.166 99.501 50.499v-55c-20.667 -4 -38.834 -14.5 -54.501 -31.5
s-23.834 -36.167 -24.501 -57.5c6.66699 3.33301 13.667 5 21 5c19.333 0 35.333 -6.16699 48 -18.5s19 -28.5 19 -48.5z" />
    <glyph glyph-name="quoteright" unicode="&#x2019;" horiz-adv-x="254" 
d="M56 649c0 18.667 7 34.666 21 47.999s31.667 20 53 20c24 0 43.833 -8.66699 59.5 -26s23.5 -39.666 23.5 -66.999c0 -58.667 -15.333 -103.334 -46 -134.001s-64.667 -48 -102 -52v55c20.667 4 39 14.833 55 32.5s24.333 37.5 25 59.5
c-6.66699 -3.33301 -13.667 -5 -21 -5c-20 0 -36.333 6.33301 -49 19s-19 29.334 -19 50.001z" />
    <glyph glyph-name="quotesinglbase" unicode="&#x201a;" horiz-adv-x="260" 
d="M52 65c0 18.667 7 34.666 21 47.999s31.667 20 53 20c24 0 43.833 -8.5 59.5 -25.5s23.5 -39.5 23.5 -67.5c0 -58 -15.333 -102.5 -46 -133.5s-64.667 -48.5 -102 -52.5v56c20.667 3.33301 39 13.833 55 31.5s24.333 37.834 25 60.501
c-3.33301 -3.33301 -10.333 -5 -21 -5c-20 0 -36.333 6.16699 -49 18.5s-19 28.833 -19 49.5z" />
    <glyph glyph-name="quotedblleft" unicode="&#x201c;" horiz-adv-x="435" 
d="M385 512c0 -18 -7 -33.502 -21 -46.502s-31.333 -19.5 -52 -19.5c-23.333 0 -42.5 8.33301 -57.5 25s-22.5 38.667 -22.5 66c0 56.667 15 100 45 130s63 47 99 51v-55c-20 -3.33301 -37.833 -13.666 -53.5 -30.999s-23.834 -36.666 -24.501 -57.999
c6.66699 3.33301 13.334 5 20.001 5c20 0 36.167 -6.16699 48.5 -18.5s18.5 -28.5 18.5 -48.5zM200 511.998c0 -18 -6.99902 -33.501 -20.999 -46.501s-31.333 -19.5 -52 -19.5c-23.333 0 -42.5 8.33301 -57.5 25s-22.5 38.667 -22.5 66c0 56.667 14.833 100.167 44.5 130.5
s62.834 47.166 99.501 50.499v-55c-20.667 -3.33301 -38.834 -13.666 -54.501 -30.999s-23.834 -36.666 -24.501 -57.999c6.66699 3.33301 13.667 5 21 5c19.333 0 35.333 -6.16699 48 -18.5s19 -28.5 19 -48.5z" />
    <glyph glyph-name="quotedblright" unicode="&#x201d;" horiz-adv-x="435" 
d="M57 648c0 18.667 6.83203 34.5 20.499 47.5s30.834 19.5 51.501 19.5c24 0 43.5 -8.33301 58.5 -25s22.5 -38.667 22.5 -66c0 -56.667 -15 -100 -45 -130s-63.333 -47 -100 -51v54c21.333 4 39.666 14.5 54.999 31.5s23.333 36.5 24 58.5
c-3.33301 -3.33301 -10.333 -5 -21 -5c-19.333 0 -35.166 6 -47.499 18s-18.5 28 -18.5 48zM240.999 648c0 18.667 7.00098 34.5 21.001 47.5s31.333 19.5 52 19.5c23.333 0 42.5 -8.33301 57.5 -25s22.5 -38.667 22.5 -66c0 -56.667 -14.833 -100 -44.5 -130
s-62.834 -47 -99.501 -51v54c21.333 4 39.5 14.5 54.5 31.5s22.833 36.5 23.5 58.5c-3.33301 -3.33301 -10 -5 -20 -5c-20 0 -36.167 6 -48.5 18s-18.5 28 -18.5 48z" />
    <glyph glyph-name="quotedblbase" unicode="&#x201e;" horiz-adv-x="441" 
d="M52 63c0 18.667 6.83203 34.5 20.499 47.5s30.834 19.5 51.501 19.5c24 0 43.5 -8.33301 58.5 -25s22.5 -38.667 22.5 -66c0 -56.667 -15 -100 -45 -130s-63.333 -47 -100 -51v54c21.333 4 39.666 14.5 54.999 31.5s23.333 36.5 24 58.5
c-3.33301 -3.33301 -10.333 -5 -21 -5c-19.333 0 -35.166 6 -47.499 18s-18.5 28 -18.5 48zM235.999 63c0 18.667 7.00098 34.5 21.001 47.5s31.333 19.5 52 19.5c23.333 0 42.5 -8.33301 57.5 -25s22.5 -38.667 22.5 -66c0 -56.667 -14.833 -100 -44.5 -130
s-62.834 -47 -99.501 -51v54c21.333 4 39.5 14.5 54.5 31.5s22.833 36.5 23.5 58.5c-3.33301 -3.33301 -10 -5 -20 -5c-20 0 -36.167 6 -48.5 18s-18.5 28 -18.5 48z" />
    <glyph glyph-name="dagger" unicode="&#x2020;" horiz-adv-x="417" 
d="M258 162h-99v308h-124v94h124v145h99v-145h124v-94h-124v-308z" />
    <glyph glyph-name="daggerdbl" unicode="&#x2021;" horiz-adv-x="455" 
d="M54 239h124v231h-124v93h124v146h99v-146h124v-93h-124v-231h124v-93h-124v-146h-99v146h-124v93z" />
    <glyph glyph-name="bullet" unicode="&#x2022;" horiz-adv-x="550" 
d="M67 294c0 58 20.333 107.333 61 148s89.667 61 147 61s106.333 -20.333 147 -61s61 -90 61 -148c0 -56.667 -20.5 -105.334 -61.5 -146.001s-89.833 -61 -146.5 -61s-105.5 20.333 -146.5 61s-61.5 89.334 -61.5 146.001z" />
    <glyph glyph-name="ellipsis" unicode="&#x2026;" horiz-adv-x="865" 
d="M813 65c0 -20 -7 -37.167 -21 -51.5s-31.333 -21.5 -52 -21.5s-38.167 7.16699 -52.5 21.5s-21.5 31.5 -21.5 51.5c0 20.667 7.16699 38.167 21.5 52.5s31.833 21.5 52.5 21.5s38 -7.16699 52 -21.5s21 -31.833 21 -52.5zM505 65c0 -20 -7 -37.167 -21 -51.5
s-31.333 -21.5 -52 -21.5s-38.167 7.16699 -52.5 21.5s-21.5 31.5 -21.5 51.5c0 20.667 7.16699 38.167 21.5 52.5s31.833 21.5 52.5 21.5s38 -7.16699 52 -21.5s21 -31.833 21 -52.5zM198 65c0 -20 -7.16699 -37.167 -21.5 -51.5s-31.833 -21.5 -52.5 -21.5
c-20 0 -37.167 7.16699 -51.5 21.5s-21.5 31.5 -21.5 51.5c0 20.667 7.16699 38.167 21.5 52.5s31.5 21.5 51.5 21.5c20.667 0 38.167 -7.16699 52.5 -21.5s21.5 -31.833 21.5 -52.5z" />
    <glyph glyph-name="perthousand" unicode="&#x2030;" horiz-adv-x="1075" 
d="M240 0h-107l461 709h106zM195 485c20.667 0 37.667 6.83301 51 20.5s20 31.5 20 53.5c0 20.667 -6.66699 37.834 -20 51.501s-30.333 20.5 -51 20.5c-20 0 -36.833 -6.83301 -50.5 -20.5s-20.5 -30.834 -20.5 -51.501c0 -22 6.83301 -39.833 20.5 -53.5
s30.5 -20.5 50.5 -20.5zM32 559c0 44.667 16 82.5 48 113.5s70.333 46.5 115 46.5s83.167 -15.5 115.5 -46.5s48.5 -68.833 48.5 -113.5c0 -45.333 -16 -83.5 -48 -114.5s-70.667 -46.5 -116 -46.5c-44.667 0 -83 15.5 -115 46.5s-48 69.167 -48 114.5zM475 151
c0 44.667 16.167 82.5 48.5 113.5s70.833 46.5 115.5 46.5c47.333 0 87.333 -17.333 120 -52c32.667 34.667 73 52 121 52c44.667 0 83.167 -15.5 115.5 -46.5s48.5 -68.833 48.5 -113.5c0 -45.333 -16.167 -83.5 -48.5 -114.5s-70.833 -46.5 -115.5 -46.5
c-48 0 -88.333 17.333 -121 52c-32.667 -34.667 -73 -52 -121 -52c-44.667 0 -83 15.5 -115 46.5s-48 69.167 -48 114.5zM568 151c0 -22 6.83301 -39.833 20.5 -53.5s30.5 -20.5 50.5 -20.5s36.667 7 50 21s20 31.667 20 53c0 20.667 -6.66699 38 -20 52s-30 21 -50 21
s-36.833 -7 -50.5 -21s-20.5 -31.333 -20.5 -52zM880 224c-20 0 -36.833 -7 -50.5 -21s-20.5 -31.333 -20.5 -52c0 -22 6.83301 -39.833 20.5 -53.5s30.5 -20.5 50.5 -20.5s36.667 7 50 21s20 31.667 20 53c0 20.667 -6.66699 38 -20 52s-30 21 -50 21z" />
    <glyph glyph-name="guilsinglleft" unicode="&#x2039;" horiz-adv-x="327" 
d="M282 100h-111l-135 193l136 194h111l-134 -195z" />
    <glyph glyph-name="guilsinglright" unicode="&#x203a;" horiz-adv-x="327" 
d="M156 100h-111l133 192l-134 195h112l135 -194z" />
    <glyph glyph-name="uni2042" unicode="&#x2042;" horiz-adv-x="828" 
d="M452 709v-114l106 35l25 -76l-107 -35l69 -91l-64 -47l-71 93l-66 -92l-66 47l68 90l-107 35l25 76l105 -36v115h83zM242 317v-114l106 35l25 -76l-107 -35l69 -91l-64 -47l-71 93l-66 -92l-66 47l68 90l-107 35l25 76l105 -36v115h83zM666 317v-114l106 35l25 -76
l-107 -35l69 -91l-64 -47l-71 93l-66 -92l-66 47l68 90l-107 35l25 76l105 -36v115h83z" />
    <glyph glyph-name="fraction" unicode="&#x2044;" horiz-adv-x="161" 
d="M262 709h101l-460 -709h-102z" />
    <glyph glyph-name="uni2051" unicode="&#x2051;" horiz-adv-x="444" 
d="M262 709v-114l106 35l25 -76l-107 -35l69 -91l-64 -47l-71 93l-66 -92l-66 47l68 90l-107 35l25 76l105 -36v115h83zM262 319v-114l106 35l25 -76l-107 -35l69 -91l-64 -47l-71 93l-66 -92l-66 47l68 90l-107 35l25 76l105 -36v115h83z" />
    <glyph glyph-name="uni2070" unicode="&#x2070;" horiz-adv-x="388" 
d="M126 526c0 -76 22.667 -114 68 -114s68 38 68 114c0 76.667 -22.667 115 -68 115s-68 -38.333 -68 -115zM34 526c0 24.667 2.66406 47.666 7.99707 68.999s13.833 41.5 25.5 60.5s28.334 34 50.001 45s47.167 16.5 76.5 16.5c30 0 55.833 -5.66699 77.5 -17
s38.334 -26.5 50.001 -45.5s20.167 -39.167 25.5 -60.5s8 -44 8 -68c0 -23.333 -2.66699 -45.5 -8 -66.5s-13.666 -41.167 -24.999 -60.5s-28 -34.666 -50 -45.999s-48 -17 -78 -17c-39.333 0 -71.5 10 -96.5 30s-41.833 43.333 -50.5 70s-13 56.667 -13 90z" />
    <glyph glyph-name="uni2074" unicode="&#x2074;" horiz-adv-x="383" 
d="M25 414v88l172 207h99v-222h62v-73h-62v-71h-90v71h-181zM206 487v125l-103 -125h103z" />
    <glyph glyph-name="uni2075" unicode="&#x2075;" horiz-adv-x="349" 
d="M25 439l79 25c2.66699 -16 10.167 -28.667 22.5 -38s26.833 -14 43.5 -14c18 0 32.333 4.66699 43 14s16 22.333 16 39c0 18.667 -5.5 32.667 -16.5 42s-25.5 14 -43.5 14c-22.667 0 -42 -8 -58 -24l-74 24l47 188h214v-75h-158l-19 -73c16.667 16.667 40.667 25 72 25
c38 0 68.5 -10.667 91.5 -32s34.5 -50.333 34.5 -87c0 -37.333 -13.167 -68.5 -39.5 -93.5s-62.833 -37.5 -109.5 -37.5c-37.333 0 -69.333 10 -96 30s-43 44.333 -49 73z" />
    <glyph glyph-name="uni2076" unicode="&#x2076;" horiz-adv-x="371" 
d="M325 699l-18.002 -68.001c-18.667 8 -40 12 -64 12c-30 0 -55.833 -7.83301 -77.5 -23.5s-35.5 -38.5 -41.5 -68.5c20 24.667 49 37 87 37c38.667 0 70 -10.667 94 -32s36 -51.333 36 -90s-14.333 -70.167 -43 -94.5s-65 -36.5 -109 -36.5
c-43.333 0 -80.166 14.833 -110.499 44.5s-45.5 70.834 -45.5 123.501c0 64.667 19.333 116.5 58 155.5s87.334 58.5 146.001 58.5c32.667 0 62 -6 88 -18zM128.998 463.999c0 -16.667 5.99902 -30 17.999 -40s26.333 -15 43 -15s30.834 5 42.501 15s17.5 23.333 17.5 40
s-6 30.167 -18 40.5s-26 15.5 -42 15.5c-16.667 0 -31 -5.16699 -43 -15.5s-18 -23.833 -18 -40.5z" />
    <glyph glyph-name="uni2077" unicode="&#x2077;" horiz-adv-x="343" 
d="M325 709l0.00195312 -77.002c-12.667 -9.33301 -24.834 -20.166 -36.501 -32.499s-26 -30 -43 -53s-31.667 -52.167 -44 -87.5s-20.5 -74 -24.5 -116h-96c2.66699 35.333 9.16699 69.5 19.5 102.5s21.666 60.333 33.999 82s24.5 40.834 36.5 57.501s22 29 30 37l12 11
h-191v76h303z" />
    <glyph glyph-name="uni2078" unicode="&#x2078;" horiz-adv-x="368" 
d="M184 562c15.333 0 27.501 4 36.501 12s13.5 18.333 13.5 31c0 11.333 -4.33301 20.833 -13 28.5s-21 11.5 -37 11.5s-28.5 -3.83301 -37.5 -11.5s-13.5 -17.167 -13.5 -28.5c0 -12.667 4.66699 -23 14 -31s21.666 -12 36.999 -12zM184.001 408
c20 0 34.999 4.16699 44.999 12.5s15 19.5 15 33.5c0 12.667 -5.16699 23.167 -15.5 31.5s-25.166 12.5 -44.499 12.5s-34.333 -4.16699 -45 -12.5s-16 -18.833 -16 -31.5c0 -13.333 5.16699 -24.333 15.5 -33s25.5 -13 45.5 -13zM184 335
c-46.667 0 -83.499 10.167 -110.499 30.5s-40.5 46.5 -40.5 78.5c0 19.333 6.5 36.833 19.5 52.5s30.167 27.167 51.5 34.5c-18.667 6.66699 -33.334 17.5 -44.001 32.5s-16 31.167 -16 48.5c0 30.667 12.833 55.834 38.5 75.501s59.5 29.5 101.5 29.5
s75.667 -9.83301 101 -29.5s38 -44.834 38 -75.501c0 -17.333 -5.16699 -33.5 -15.5 -48.5s-24.833 -25.833 -43.5 -32.5c21.333 -7.33301 38.5 -18.666 51.5 -33.999s19.5 -32.333 19.5 -51c0 -32.667 -13.333 -59.334 -40 -80.001s-63.667 -31 -111 -31z" />
    <glyph glyph-name="uni2079" unicode="&#x2079;" horiz-adv-x="369" 
d="M48 352l17.001 70.001c23.333 -8.66699 44 -13 62 -13c32 0 59 7.5 81 22.5s35.333 38.167 40 69.5c-20 -24.667 -49.333 -37 -88 -37c-37.333 0 -68.5 11 -93.5 33s-37.5 51.667 -37.5 89c0 38.667 14.167 70.167 42.5 94.5s64.833 36.5 109.5 36.5
c42.667 0 79.167 -14.333 109.5 -43s45.5 -68.667 45.5 -120c0 -68.667 -18.333 -122.334 -55 -161.001s-84.667 -58 -144 -58c-34.667 0 -64.334 5.66699 -89.001 17zM239.001 587.001c0 16.667 -5.83301 30.167 -17.5 40.5s-26.167 15.5 -43.5 15.5
c-16.667 0 -30.834 -5.16699 -42.501 -15.5s-17.5 -23.833 -17.5 -40.5s5.83301 -30.167 17.5 -40.5s25.834 -15.5 42.501 -15.5c17.333 0 31.833 5.16699 43.5 15.5s17.5 23.833 17.5 40.5z" />
    <glyph glyph-name="uni2080" unicode="&#x2080;" horiz-adv-x="390" 
d="M127 110c0 -76 22.667 -114 68 -114s68 38 68 114c0 76.667 -22.667 115 -68 115s-68 -38.333 -68 -115zM35 110c0 24.667 2.66406 47.666 7.99707 68.999s13.833 41.5 25.5 60.5s28.334 34 50.001 45s47.167 16.5 76.5 16.5c30 0 55.833 -5.66699 77.5 -17
s38.334 -26.5 50.001 -45.5s20.167 -39.167 25.5 -60.5s8 -44 8 -68c0 -23.333 -2.66699 -45.5 -8 -66.5s-13.666 -41.167 -24.999 -60.5s-28 -34.666 -50 -45.999s-48 -17 -78 -17c-39.333 0 -71.5 10 -96.5 30s-41.833 43.333 -50.5 70s-13 56.667 -13 90z" />
    <glyph glyph-name="uni2081" unicode="&#x2081;" horiz-adv-x="249" 
d="M202 -90l-91 0.000976562v233h-89v60c26.667 0.666992 48.667 8.16699 66 22.5s28 31.166 32 50.499h82v-366z" />
    <glyph glyph-name="uni2082" unicode="&#x2082;" horiz-adv-x="355" 
d="M126 134l-84.001 -1.00098c-2 10 -3 20 -3 30c0 34 12.333 62.667 37 86s58.334 35 101.001 35c42 0 75.333 -11.5 100 -34.5s37 -51.167 37 -84.5c0 -44 -25 -81 -75 -111l-71 -43c-11.333 -8 -18 -16.333 -20 -25h169v-76h-281v12c0 66.667 29 117.334 87 152.001
l60 36c27.333 16 41 34.667 41 56c0 12 -4.33301 22.333 -13 31s-20.667 13 -36 13c-16 0 -28.667 -4.83301 -38 -14.5s-14 -22.167 -14 -37.5c0 -8 1 -16 3 -24z" />
    <glyph glyph-name="uni2083" unicode="&#x2083;" horiz-adv-x="365" 
d="M28 12l79.998 24c2.66699 -16.667 10.334 -30.5 23.001 -41.5s28 -16.5 46 -16.5s32.667 4.66699 44 14s17 21 17 35c0 17.333 -5.83301 30.166 -17.5 38.499s-26.167 12.5 -43.5 12.5c-10.667 0 -21 -2 -31 -6l-32 61l91 69h-164v75h279v-72l-94 -69
c30.667 -3.33301 55.5 -14.666 74.5 -33.999s28.5 -44.666 28.5 -75.999c0 -34.667 -13.833 -63.834 -41.5 -87.501s-64.167 -35.5 -109.5 -35.5c-42 0 -76.167 10.667 -102.5 32s-42.166 47 -47.499 77z" />
    <glyph glyph-name="uni2084" unicode="&#x2084;" horiz-adv-x="385" 
d="M26 -19v88l172 207h99v-222h62v-73h-62v-71h-90v71h-181zM207 54v125l-103 -125h103z" />
    <glyph glyph-name="uni2085" unicode="&#x2085;" horiz-adv-x="351" 
d="M26 6l79 25c2.66699 -16 10.167 -28.667 22.5 -38s26.833 -14 43.5 -14c18 0 32.333 4.66699 43 14s16 22.333 16 39c0 18.667 -5.5 32.667 -16.5 42s-25.5 14 -43.5 14c-22.667 0 -42 -8 -58 -24l-74 24l47 188h214v-75h-158l-19 -73c16.667 16.667 40.667 25 72 25
c38 0 68.5 -10.667 91.5 -32s34.5 -50.333 34.5 -87c0 -37.333 -13.167 -68.5 -39.5 -93.5s-62.833 -37.5 -109.5 -37.5c-37.333 0 -69.333 10 -96 30s-43 44.333 -49 73z" />
    <glyph glyph-name="uni2086" unicode="&#x2086;" horiz-adv-x="373" 
d="M326 267l-18.002 -68.001c-18.667 8 -40 12 -64 12c-30 0 -55.833 -7.83301 -77.5 -23.5s-35.5 -38.5 -41.5 -68.5c20 24.667 49 37 87 37c38.667 0 70 -10.667 94 -32s36 -51.333 36 -90s-14.333 -70.167 -43 -94.5s-65 -36.5 -109 -36.5
c-43.333 0 -80.166 14.833 -110.499 44.5s-45.5 70.834 -45.5 123.501c0 64.667 19.333 116.5 58 155.5s87.334 58.5 146.001 58.5c32.667 0 62 -6 88 -18zM129.998 31.999c0 -16.667 5.99902 -30 17.999 -40s26.333 -15 43 -15s30.834 5 42.501 15s17.5 23.333 17.5 40
s-6 30.167 -18 40.5s-26 15.5 -42 15.5c-16.667 0 -31 -5.16699 -43 -15.5s-18 -23.833 -18 -40.5z" />
    <glyph glyph-name="uni2087" unicode="&#x2087;" horiz-adv-x="346" 
d="M327 276l0.00195312 -77.002c-12.667 -9.33301 -24.834 -20.166 -36.501 -32.499s-26 -30 -43 -53s-31.667 -52.167 -44 -87.5s-20.5 -74 -24.5 -116h-96c2.66699 35.333 9.16699 69.5 19.5 102.5s21.666 60.333 33.999 82s24.5 40.834 36.5 57.501s22 28.667 30 36
l12 12h-191v76h303z" />
    <glyph glyph-name="uni2088" unicode="&#x2088;" horiz-adv-x="370" 
d="M185 129c15.333 0 27.501 4 36.501 12s13.5 18.333 13.5 31c0 11.333 -4.33301 20.833 -13 28.5s-21 11.5 -37 11.5s-28.5 -3.83301 -37.5 -11.5s-13.5 -17.167 -13.5 -28.5c0 -12.667 4.66699 -23 14 -31s21.666 -12 36.999 -12zM185.001 -25
c20 0 34.999 4.16699 44.999 12.5s15 19.5 15 33.5c0 12.667 -5.16699 23.167 -15.5 31.5s-25.166 12.5 -44.499 12.5s-34.333 -4.16699 -45 -12.5s-16 -18.833 -16 -31.5c0 -13.333 5.16699 -24.333 15.5 -33s25.5 -13 45.5 -13zM185 -98
c-46.667 0 -83.499 10.167 -110.499 30.5s-40.5 46.5 -40.5 78.5c0 19.333 6.5 36.833 19.5 52.5s30.167 27.167 51.5 34.5c-18.667 6.66699 -33.334 17.5 -44.001 32.5s-16 31.167 -16 48.5c0 30.667 12.833 55.834 38.5 75.501s59.5 29.5 101.5 29.5
s75.667 -9.83301 101 -29.5s38 -44.834 38 -75.501c0 -17.333 -5.16699 -33.5 -15.5 -48.5s-24.833 -25.833 -43.5 -32.5c21.333 -7.33301 38.5 -18.666 51.5 -33.999s19.5 -32.333 19.5 -51c0 -32.667 -13.333 -59.334 -40 -80.001s-63.667 -31 -111 -31z" />
    <glyph glyph-name="uni2089" unicode="&#x2089;" horiz-adv-x="371" 
d="M49 -80l17.001 70.001c23.333 -8.66699 44 -13 62 -13c32 0 59 7.5 81 22.5s35.333 38.167 40 69.5c-20 -24.667 -49.333 -37 -88 -37c-37.333 0 -68.5 11 -93.5 33s-37.5 51.667 -37.5 89c0 38.667 14.167 70.167 42.5 94.5s64.833 36.5 109.5 36.5
c42.667 0 79.167 -14.333 109.5 -43s45.5 -68.667 45.5 -120c0 -68.667 -18.333 -122.334 -55 -161.001s-84.667 -58 -144 -58c-34.667 0 -64.334 5.66699 -89.001 17zM240.001 155.001c0 16.667 -5.83301 30.167 -17.5 40.5s-26.167 15.5 -43.5 15.5
c-16.667 0 -30.834 -5.16699 -42.501 -15.5s-17.5 -23.833 -17.5 -40.5s5.83301 -30.167 17.5 -40.5s25.834 -15.5 42.501 -15.5c17.333 0 31.833 5.16699 43.5 15.5s17.5 23.833 17.5 40.5z" />
    <glyph glyph-name="Euro" unicode="&#x20ac;" horiz-adv-x="730" 
d="M697 59c-56 -48.667 -126.665 -73.001 -211.998 -73.001c-83.333 0 -156.333 21.667 -219 65s-104.667 104 -126 182h-97v85h80c-1.33301 10.667 -2 23 -2 37c0 10.667 0.333008 21 1 31h-79v85h96c22 78.667 65.5 140.334 130.5 185.001s138.833 67 221.5 67
c74.667 0 135.667 -16.667 183 -50l-46 -93c-34 24.667 -79.667 37 -137 37c-50.667 0 -96.834 -12.333 -138.501 -37s-71.167 -61 -88.5 -109h307l-38 -85h-289c-1.33301 -12 -2 -22.667 -2 -32c0 -12 0.666992 -24 2 -36h259c-21.333 -46 -34 -74.333 -38 -85h-197
c15.333 -45.333 43.166 -80 83.499 -104s84.833 -36 133.5 -36c64 0 116.667 17.667 158 53z" />
    <glyph glyph-name="uni2113" unicode="&#x2113;" horiz-adv-x="416" 
d="M373 116v-94.002c-24.667 -18 -58.667 -27 -102 -27c-48.667 0 -87.667 13.333 -117 40s-44 63.334 -44 110.001v104c-27.333 -10 -50.666 -17 -69.999 -21v101c19.333 4.66699 42.666 13 69.999 25v205c0 50.667 13.5 90.5 40.5 119.5s60.833 43.5 101.5 43.5
c44 0 78.333 -13.333 103 -40s37 -63.667 37 -111c0 -54 -16 -105.5 -48 -154.5s-75.333 -90.833 -130 -125.5v-115c0 -27.333 7 -47.666 21 -60.999s32.667 -20 56 -20c32.667 0 60 7 82 21zM214 564.998v-151c49.333 43.333 74 97 74 161c0 34 -11.333 51 -34 51
c-26.667 0 -40 -20.333 -40 -61z" />
    <glyph glyph-name="trademark" unicode="&#x2122;" horiz-adv-x="885" 
d="M336 632h-107v-288h-86v288h-107v77h300v-77zM812 344h-82v227l-95 -227h-64l-93 224v-224h-84v365h115l97 -232l95 232h111v-365z" />
    <glyph glyph-name="Omega" unicode="&#x2126;" horiz-adv-x="806" 
d="M403 614c-60 0 -112.667 -20.167 -158 -60.5s-68 -94.5 -68 -162.5c0 -60 18.667 -110.167 56 -150.5s81 -65.833 131 -76.5v-164h-304v109h189c-54 21.333 -100 57.333 -138 108s-57 110.334 -57 179.001c0 98.667 34.333 178 103 238s150.667 90 246 90
s177.333 -30 246 -90s103 -139.333 103 -238c0 -68.667 -19 -128.334 -57 -179.001s-84 -86.667 -138 -108h189v-109h-304v164c50 10.667 93.667 36.167 131 76.5s56 90.5 56 150.5c0 68 -22.667 122.167 -68 162.5s-98 60.5 -158 60.5z" />
    <glyph glyph-name="uni2160" unicode="&#x2160;" horiz-adv-x="484" 
d="M443 709v-104h-141v-501h141v-104h-402v104h142v501h-142v104h402z" />
    <glyph glyph-name="uni2161" unicode="&#x2161;" horiz-adv-x="772" 
d="M731 709v-104h-145v-501h145v-104h-690v104h146v501h-146v104h690zM306 605v-501h161v501h-161z" />
    <glyph glyph-name="uni2162" unicode="&#x2162;" horiz-adv-x="1043" 
d="M1002 709v-104h-144v-501h144v-104h-961v104h146v501h-146v104h961zM306 605v-501h157v501h-157zM582 104h157v501h-157v-501z" />
    <glyph glyph-name="uni2163" unicode="&#x2163;" horiz-adv-x="1040" 
d="M999 104v-104h-958v104h143v501h-143v104h958v-104h-103l-141 -501h244zM389 605h-86v-501h227zM642 139l127 466h-253z" />
    <glyph glyph-name="uni2164" unicode="&#x2164;" horiz-adv-x="790" 
d="M749 104v-104h-708v104h244l-141 501h-103v104h709v-104h-99l-141 -501h239zM398 139l126 466h-253z" />
    <glyph glyph-name="uni2165" unicode="&#x2165;" horiz-adv-x="1036" 
d="M738 104v501h-86l-141 -501h227zM398 139l127 466h-254zM41 0v104h244l-140 501h-104v104h954v-104h-138v-501h138v-104h-954z" />
    <glyph glyph-name="uni2166" unicode="&#x2166;" horiz-adv-x="1316" 
d="M1276 709v-104h-145v-501h144v-104h-1234v104h244l-140 501h-104v104h1235zM652 605l-141 -501h227v501h-86zM857 605v-501h155v501h-155zM398 139l127 466h-254z" />
    <glyph glyph-name="uni2167" unicode="&#x2167;" horiz-adv-x="1580" 
d="M1540 709v-104h-145v-501h144v-104h-1498v104h244l-140 501h-104v104h1499zM652 605l-141 -501h226v501h-85zM856 605v-501h152v501h-152zM1127 605v-501h149v501h-149zM398 139l127 466h-254z" />
    <glyph glyph-name="uni2168" unicode="&#x2168;" horiz-adv-x="1013" 
d="M869 605l-169 -251l167 -250h105v-104h-931v104h143v501h-143v104h931v-104h-103zM555 353l-168 252h-84v-501h85zM530 104h194l-97 151zM530 605l99 -154l98 154h-197z" />
    <glyph glyph-name="uni2169" unicode="&#x2169;" horiz-adv-x="766" 
d="M625 605l-171 -252l167 -249h104v-104h-684v104h103l166 247l-170 254h-99v104h684v-104h-100zM285 104h192l-95 150zM284 605l99 -155l100 155h-199z" />
    <glyph glyph-name="uni216C" unicode="&#x216c;" horiz-adv-x="639" 
d="M604 0h-563v104h124v501h-124v104h378v-104h-134v-501h205v186h114v-290z" />
    <glyph glyph-name="uni216D" unicode="&#x216d;" horiz-adv-x="782" 
d="M604 0v86.002c-45.333 -66.667 -115.666 -100 -210.999 -100c-98.667 0 -181.5 33.667 -248.5 101s-100.5 156.333 -100.5 267c0 109.333 33.667 198.166 101 266.499s149.333 102.5 246 102.5c92 0 161.333 -33 208 -99v85h116v-254h-116
c-9.33301 45.333 -30.5 84 -63.5 116s-79.5 48 -139.5 48c-64.667 0 -120.334 -23.333 -167.001 -70s-70 -111.667 -70 -195c0 -80.667 23 -144.334 69 -191.001s102.667 -70 170 -70c31.333 0 59.833 5 85.5 15s46.5 23.5 62.5 40.5s28.667 34.667 38 53s16 37.5 20 57.5
h116v-259h-116z" />
    <glyph glyph-name="uni216E" unicode="&#x216e;" horiz-adv-x="766" 
d="M290 104h79c68.667 0 124.167 20.667 166.5 62s63.5 104 63.5 188s-21.167 146.833 -63.5 188.5s-97.833 62.5 -166.5 62.5h-79v-501zM41 709l336 -0.000976562c102 0 184.833 -31.333 248.5 -94s95.5 -149.667 95.5 -261s-32 -198.166 -96 -260.499
s-147.333 -93.5 -250 -93.5h-334v104h130v501h-130v104z" />
    <glyph glyph-name="uni216F" unicode="&#x216f;" horiz-adv-x="1051" 
d="M329 709l196 -528l189 528h295v-104h-120v-501h122v-104h-331v104h91v428l-194 -529h-106l-194 526v-425h89v-104h-325v104h120v501h-120v104h288z" />
    <glyph glyph-name="arrowleft" unicode="&#x2190;" horiz-adv-x="1069" 
d="M305 68l-274 224l274 225v-175h716v-100h-716v-174z" />
    <glyph glyph-name="arrowup" unicode="&#x2191;" horiz-adv-x="484" 
d="M243 800l215 -257h-165v-690h-100v690h-167z" />
    <glyph glyph-name="arrowright" unicode="&#x2192;" horiz-adv-x="1069" 
d="M1038 292l-274 -224v174h-716v100h716v175z" />
    <glyph glyph-name="arrowdown" unicode="&#x2193;" horiz-adv-x="501" 
d="M475 105l-224 -262l-225 262h174v686h101v-686h174z" />
    <glyph glyph-name="uni2196" unicode="&#x2196;" horiz-adv-x="799" 
d="M54 709h314l-121 -122l527 -526l-71 -71l-527 526l-122 -123v316z" />
    <glyph glyph-name="uni2197" unicode="&#x2197;" horiz-adv-x="800" 
d="M432 709h314v-316l-123 123l-526 -526l-71 71l527 526z" />
    <glyph glyph-name="uni2198" unicode="&#x2198;" horiz-adv-x="801" 
d="M746 0h-314l121 122l-527 526l71 71l526 -527l123 124v-316z" />
    <glyph glyph-name="uni2199" unicode="&#x2199;" horiz-adv-x="801" 
d="M369 0h-314v316l122 -124l527 527l71 -71l-527 -526z" />
    <glyph glyph-name="uni21A9" unicode="&#x21a9;" horiz-adv-x="912" 
d="M443 557l-0.000976562 99.999h193c68 0 123.833 -20.333 167.5 -61s65.5 -91.667 65.5 -153c0 -60 -21.667 -110.667 -65 -152s-98.333 -62 -165 -62h-366v-156l-244 207l244 208v-158h362c38.667 0 70.334 10.667 95.001 32s37 48.333 37 81
c0 34.667 -12.5 62.334 -37.5 83.001s-57.5 31 -97.5 31h-189z" />
    <glyph glyph-name="uni21B0" unicode="&#x21b0;" horiz-adv-x="757" 
d="M267 310l-245 207l245 207v-157h418v-567h-100v467h-318v-157z" />
    <glyph glyph-name="uni21B1" unicode="&#x21b1;" horiz-adv-x="790" 
d="M172 0h-100v567h452v157l244 -207l-244 -207v157h-352v-467z" />
    <glyph glyph-name="uni21B2" unicode="&#x21b2;" horiz-adv-x="800" 
d="M622 709h101v-567h-453v-157l-244 207l244 207v-157h352v467z" />
    <glyph glyph-name="uni21B3" unicode="&#x21b3;" horiz-adv-x="800" 
d="M530 399l244 -207l-244 -207v157h-453v567h101v-467h352v157z" />
    <glyph glyph-name="uni21B4" unicode="&#x21b4;" horiz-adv-x="789" 
d="M32 609v100h572v-484h157l-206 -241l-207 241h156v384h-472z" />
    <glyph glyph-name="uni21B5" unicode="&#x21b5;" horiz-adv-x="1077" 
d="M224 122l-198.999 232.999h143c0.666992 102.667 37 189.834 109 261.501s159 107.5 261 107.5c63.333 0 122.333 -14.667 177 -44l-45 -90c-41.333 22.667 -85 34 -131 34c-74.667 0 -138.334 -26.167 -191.001 -78.5s-79 -115.833 -79 -190.5h153zM906.001 352.999
c-0.666992 -102 -37 -188.833 -109 -260.5s-159 -107.5 -261 -107.5c-62.667 0 -121.667 14.667 -177 44l45 90c41.333 -22.667 85.333 -34 132 -34c74.667 0 138 26.167 190 78.5s78 115.833 78 190.5h-150l199 232l199 -233h-146z" />
    <glyph glyph-name="uni21C6" unicode="&#x21c6;" horiz-adv-x="1091" 
d="M278 342l-244 207l244 208v-158h756v-101h-756v-156zM1058 166l-244 -207v157h-755v100h755v157z" />
    <glyph glyph-name="partialdiff" unicode="&#x2202;" horiz-adv-x="621" 
d="M251 617c-50.667 0 -98.3311 -10.999 -142.998 -32.999l-40 92c55.333 30.667 119 46 191 46c27.333 0 54.166 -2.83301 80.499 -8.5s54 -17 83 -34s54.333 -38.667 76 -65s39.5 -62.5 53.5 -108.5s21 -98.667 21 -158c0 -110.667 -24.167 -198.834 -72.5 -264.501
s-118.5 -98.5 -210.5 -98.5c-68 0 -126.333 21 -175 63s-73 101 -73 177c0 70 24.167 126 72.5 168s105.5 63 171.5 63c76 0 131 -19 165 -57c-14.667 145.333 -81.334 218 -200.001 218zM309.003 356.001c-48 0 -85 -12.833 -111 -38.5s-39 -58.5 -39 -98.5
c0 -39.333 13.5 -70.5 40.5 -93.5s58.833 -34.5 95.5 -34.5c52 0 91.333 20 118 60s40 87.333 40 142c-32.667 42 -80.667 63 -144 63z" />
    <glyph glyph-name="Delta" unicode="&#x2206;" horiz-adv-x="732" 
d="M27 0l274 709h129l275 -709h-678zM365 576l-171 -465h343z" />
    <glyph glyph-name="product" unicode="&#x220f;" horiz-adv-x="658" 
d="M587 0h-118v600h-278v-600h-120v709h516v-709z" />
    <glyph glyph-name="summation" unicode="&#x2211;" horiz-adv-x="606" 
d="M48 0v107l263 248l-263 247v107h507v-111h-344l260 -243l-269 -244h353v-111h-507z" />
    <glyph glyph-name="minus" unicode="&#x2212;" horiz-adv-x="582" 
d="M517 301h-452v96h452v-96z" />
    <glyph glyph-name="uni2215" unicode="&#x2215;" horiz-adv-x="408" 
d="M410 648l-314 -648h-108l314 648h108z" />
    <glyph glyph-name="uni2219" unicode="&#x2219;" horiz-adv-x="272" 
d="M57 298c0 22 7.66699 40.5 23 55.5s34 22.5 56 22.5s40.667 -7.5 56 -22.5s23 -33.5 23 -55.5s-7.66699 -40.333 -23 -55s-34 -22 -56 -22s-40.667 7.33301 -56 22s-23 33 -23 55z" />
    <glyph glyph-name="radical" unicode="&#x221a;" horiz-adv-x="699" 
d="M693 773h-126l-261 -773h-106l-190 534h120l124 -364l231 704h208v-101z" />
    <glyph glyph-name="infinity" unicode="&#x221e;" horiz-adv-x="826" 
d="M151 346c0 -22.667 7.5 -41.5 22.5 -56.5s35.167 -22.5 60.5 -22.5c34 0 72.667 25.667 116 77c-23.333 28 -43.5 48.667 -60.5 62s-35.5 20 -55.5 20c-25.333 0 -45.5 -7.5 -60.5 -22.5s-22.5 -34.167 -22.5 -57.5zM675 346c0 23.333 -7.5 42.5 -22.5 57.5
s-34.833 22.5 -59.5 22.5c-20.667 0 -39.667 -6.5 -57 -19.5s-37.333 -32.833 -60 -59.5c22 -26.667 42 -46.667 60 -60s37 -20 57 -20c24.667 0 44.5 7.5 59.5 22.5s22.5 33.833 22.5 56.5zM412 270c-62 -67.333 -122 -101 -180 -101c-53.333 0 -97.5 17 -132.5 51
s-52.5 76.333 -52.5 127c0 51.333 17.5 94 52.5 128s79.167 51 132.5 51c64 0 125 -34 183 -102c60.667 68 120.667 102 180 102c52.667 0 96.5 -17 131.5 -51s52.5 -76.667 52.5 -128c0 -50.667 -17.5 -93 -52.5 -127s-78.833 -51 -131.5 -51c-66 0 -127 33.667 -183 101z
" />
    <glyph glyph-name="integral" unicode="&#x222b;" horiz-adv-x="360" 
d="M123 -14v550c0 53.333 15.5 95.5 46.5 126.5s73.167 46.5 126.5 46.5h45v-103h-38c-20 0 -35.833 -6.16699 -47.5 -18.5s-17.5 -29.833 -17.5 -52.5v-551c0 -54 -15 -96.5 -45 -127.5s-71.667 -46.5 -125 -46.5h-49v103h39c19.333 0 35 6.5 47 19.5s18 30.833 18 53.5z
" />
    <glyph glyph-name="approxequal" unicode="&#x2248;" horiz-adv-x="628" 
d="M511 505l61.999 -52c-38 -62 -89.667 -93 -155 -93c-34 0 -69 10 -105 30l-47 26c-20 10.667 -39.333 16 -58 16c-33.333 0 -62.666 -15.667 -87.999 -47l-64 54c39.333 62.667 90.333 94 153 94c36 0 71.667 -10 107 -30l46 -26c20.667 -11.333 41.667 -17 63 -17
c34 0 62.667 15 86 45zM510.999 307l62.0039 -53c-38.667 -61.333 -90.334 -92 -155.001 -92c-34 0 -69 10 -105 30l-47 26c-18.667 10 -37.667 15 -57 15c-34.667 0 -64.334 -15.333 -89.001 -46l-64 54c39.333 62.667 90.666 94 153.999 94
c33.333 0 68.666 -10 105.999 -30l46 -26c22.667 -12 43.667 -18 63 -18c33.333 0 62 15.333 86 46z" />
    <glyph glyph-name="notequal" unicode="&#x2260;" horiz-adv-x="608" 
d="M193 105h-110l69 98h-86v96h150l71 102h-221v94h285l66 94h109l-65 -94h80v-94h-144l-71 -102h215v-96h-280z" />
    <glyph glyph-name="lessequal" unicode="&#x2264;" horiz-adv-x="566" 
d="M489 229l-422 139v98l422 140v-99l-291 -89l291 -89v-100zM489 104h-422v96h422v-96z" />
    <glyph glyph-name="greaterequal" unicode="&#x2265;" horiz-adv-x="566" 
d="M77 229v99l291 89l-291 90v99l422 -140v-98zM499 104h-422v96h422v-96z" />
    <glyph glyph-name="dotmath" unicode="&#x22c5;" horiz-adv-x="272" 
d="M57 298c0 22 7.66699 40.5 23 55.5s34 22.5 56 22.5s40.667 -7.5 56 -22.5s23 -33.5 23 -55.5s-7.66699 -40.333 -23 -55s-34 -22 -56 -22s-40.667 7.33301 -56 22s-23 33 -23 55z" />
    <glyph glyph-name="uni24C5" unicode="&#x24c5;" horiz-adv-x="818" 
d="M124 355c0 -82.667 27.333 -152.334 82 -209.001s122 -85 202 -85c79.333 0 146.5 28.333 201.5 85s82.5 126.334 82.5 209.001s-27.5 152.167 -82.5 208.5s-122.167 84.5 -201.5 84.5c-80 0 -147.333 -28.167 -202 -84.5s-82 -125.833 -82 -208.5zM42 355
c0 102 35.667 188.999 107 260.999s157.666 108 258.999 108s188 -36.167 260 -108.5s108 -159.166 108 -260.499c0 -102 -36 -189.167 -108 -261.5s-158.667 -108.5 -260 -108.5s-187.666 36.167 -258.999 108.5s-107 159.5 -107 261.5zM371 368.999l61 0.000976562
c20 0 35.667 5.16699 47 15.5s17 24.166 17 41.499s-5.66699 31.333 -17 42s-27 16 -47 16h-61v-115zM447 296h-76v-140h-86v401h162c38.667 0 71.167 -12.833 97.5 -38.5s39.5 -56.5 39.5 -92.5s-13.167 -66.667 -39.5 -92s-58.833 -38 -97.5 -38z" />
    <glyph glyph-name="filledbox" unicode="&#x25a0;" horiz-adv-x="838" 
d="M67 0v709h704v-709h-704z" />
    <glyph glyph-name="H22073" unicode="&#x25a1;" horiz-adv-x="838" 
d="M771 0h-704v709h704v-709zM167 613v-518h503v518h-503z" />
    <glyph glyph-name="uni25AF" unicode="&#x25af;" horiz-adv-x="569" 
d="M502 0h-435v709h435v-709zM164 617v-524h241v524h-241z" />
    <glyph glyph-name="triagup" unicode="&#x25b2;" horiz-adv-x="882" 
d="M442 724l418 -724h-838z" />
    <glyph glyph-name="uni25B3" unicode="&#x25b3;" horiz-adv-x="881" 
d="M442 724l417 -724h-837zM687 95l-246 430l-247 -430h493z" />
    <glyph glyph-name="lozenge" unicode="&#x25ca;" horiz-adv-x="582" 
d="M156 354l135 -231l134 231l-134 232zM28 354l205 355h116l205 -355l-205 -354h-116z" />
    <glyph glyph-name="circle" unicode="&#x25cb;" horiz-adv-x="825" 
d="M42 354c0 102.667 36 190 108 262s159.333 108 262 108s190.167 -36 262.5 -108s108.5 -159.333 108.5 -262s-36.167 -189.834 -108.5 -261.501s-159.833 -107.5 -262.5 -107.5s-190 35.833 -262 107.5s-108 158.834 -108 261.501zM143 354
c0 -75.333 26.167 -139.5 78.5 -192.5s115.833 -79.5 190.5 -79.5s138.167 26.5 190.5 79.5s78.5 117.167 78.5 192.5s-26.167 139.5 -78.5 192.5s-115.833 79.5 -190.5 79.5s-138.167 -26.5 -190.5 -79.5s-78.5 -117.167 -78.5 -192.5z" />
    <glyph glyph-name="H18533" unicode="&#x25cf;" horiz-adv-x="825" 
d="M42 354c0 102.667 36 190 108 262s159.333 108 262 108s190.167 -36 262.5 -108s108.5 -159.333 108.5 -262s-36.167 -189.834 -108.5 -261.501s-159.833 -107.5 -262.5 -107.5s-190 35.833 -262 107.5s-108 158.834 -108 261.501z" />
    <glyph glyph-name="uni262E" unicode="&#x262e;" horiz-adv-x="818" 
d="M776 355c0 -102 -35.833 -189.167 -107.5 -261.5s-158.5 -108.5 -260.5 -108.5c-101.333 0 -187.666 36.167 -258.999 108.5s-107 159.5 -107 261.5s35.667 189 107 261s157.666 108 258.999 108c102 0 188.833 -36 260.5 -108s107.5 -159 107.5 -261zM677 355
c0 68 -20.833 127.499 -62.5 178.499s-94.5 82.167 -158.5 93.5v-215l192 -179c19.333 38.667 29 79.334 29 122.001zM138 354.999c0 -44 9.33203 -84 27.999 -120l191 177v214c-63.333 -11.333 -115.666 -42.333 -156.999 -93s-62 -110 -62 -178zM455.999 81.999
c52 8.66699 97.333 32 136 70l-136 130v-200zM220.999 152.999c37.333 -38 82.667 -61.667 136 -71v200z" />
    <glyph glyph-name="uni2713" unicode="&#x2713;" horiz-adv-x="964" 
d="M941 656l-626 -673l-288 321l73 68l219 -239l551 594z" />
    <glyph glyph-name="uni2715" unicode="&#x2715;" horiz-adv-x="771" 
d="M671 -5l-286 289l-285 -289l-70 71l284 289l-284 287l72 71l283 -287l282 287l71 -71l-283 -287l287 -289z" />
    <glyph glyph-name="uni2780" unicode="&#x2780;" horiz-adv-x="819" 
d="M124 355c0 -82.667 27.5 -152.334 82.5 -209.001s122.5 -85 202.5 -85c79.333 0 146.5 28.333 201.5 85s82.5 126.334 82.5 209.001s-27.5 152.167 -82.5 208.5s-122.167 84.5 -201.5 84.5c-80 0 -147.5 -28.167 -202.5 -84.5s-82.5 -125.833 -82.5 -208.5zM42 355
c0 101.333 35.833 188.166 107.5 260.499s158.167 108.5 259.5 108.5s188 -36.167 260 -108.5s108 -159.166 108 -260.499c0 -102 -36 -189.167 -108 -261.5s-158.667 -108.5 -260 -108.5s-187.833 36.167 -259.5 108.5s-107.5 159.5 -107.5 261.5zM470 172l-91 0.000976562
v233h-89v60c26.667 0.666992 48.667 8.16699 66 22.5s28 31.166 32 50.499h82v-366z" />
    </font>
</defs>
</svg>
