<?xml version="1.0" encoding="utf-8"?>
<!-- Generator: Adobe Illustrator 17.0.0, SVG Export Plug-In . SVG Version: 6.00 Build 0)  -->
<!DOCTYPE svg PUBLIC "-//W3C//DTD SVG 1.1//EN" "http://www.w3.org/Graphics/SVG/1.1/DTD/svg11.dtd">
<svg version="1.1" id="Layer_1" xmlns="http://www.w3.org/2000/svg" xmlns:xlink="http://www.w3.org/1999/xlink" x="0px" y="0px"
	 width="20px" height="20px" viewBox="0 0 20 20" enable-background="new 0 0 20 20" xml:space="preserve">
<g>
	<path fill="#3589C0" d="M19.802,8.864V2.737c0-0.338-0.274-0.613-0.613-0.613H0.811c-0.338,0-0.613,0.274-0.613,0.613v6.126
		c0,0.338,0.274,0.613,0.613,0.613h18.379C19.528,9.476,19.802,9.202,19.802,8.864z M1.423,8.251V3.35h1.838v3.063h1.225V3.35h1.838
		v1.838h1.225V3.35h1.838v3.063h1.225V3.35h1.838v1.838h1.225V3.35h1.838v3.063h1.225V3.35h1.838v4.901H1.423z"/>
	<path fill="#3589C0" d="M2.287,14.99h15.426l-2.016,2.016l0.864,0.864l3.063-3.063c0.238-0.239,0.238-0.625,0-0.864l-3.063-3.063
		l-0.864,0.864l2.016,2.022H2.287l2.016-2.016l-0.864-0.864l-3.063,3.063c-0.238,0.239-0.238,0.625,0,0.864l3.063,3.063l0.864-0.864
		L2.287,14.99z"/>
</g>
</svg>
