<?xml version="1.0" standalone="no"?>
<!DOCTYPE svg PUBLIC "-//W3C//DTD SVG 1.1//EN" "http://www.w3.org/Graphics/SVG/1.1/DTD/svg11.dtd" >
<svg>
<metadata>
Created by FontForge 20090914 at Mon Jan  2 12:00:28 2017
 By www-data
Copyright 2000 Adobe Systems Incorporated. All Rights Reserved.Trajan is either a registered trademark or a trademark of Adobe Systems Incorporated in the United States and/or other countries.
</metadata>
<defs>
<font id="TrajanPro-Bold" horiz-adv-x="632" >
  <font-face 
    font-family="Trajan Pro"
    font-weight="700"
    font-stretch="normal"
    units-per-em="1000"
    panose-1="2 2 6 2 5 5 6 2 3 1"
    ascent="750"
    descent="-250"
    x-height="640"
    cap-height="753"
    bbox="-247.788 -284 1528 985"
    underline-thickness="50"
    underline-position="-50"
    stemh="47"
    stemv="118"
    unicode-range="U+0020-U+FB02"
  />
<missing-glyph horiz-adv-x="500" 
d="M0 0v700h500v-700h-500zM250 395l170 255h-340zM280 350l170 -255v510zM80 50h340l-170 255zM50 605v-510l170 255z" />
    <glyph glyph-name=".notdef" horiz-adv-x="500" 
d="M0 0v700h500v-700h-500zM250 395l170 255h-340zM280 350l170 -255v510zM80 50h340l-170 255zM50 605v-510l170 255z" />
    <glyph glyph-name="space" unicode=" " horiz-adv-x="300" 
 />
    <glyph glyph-name="exclam" unicode="!" horiz-adv-x="320" 
d="M160 -17c-39 0 -55 31 -55 56c0 24 16 57 56 57c32 0 56 -21 56 -53c0 -33 -23 -60 -57 -60zM158 164c-11 0 -13 13 -15 36c-4 48 -23 257 -25 272c-1 15 -12 143 -21 180c-3 12 -8 20 -8 26c0 7 2 11 5 16c23 29 63 52 90 63c13 6 28 10 38 10c6 0 9 -6 9 -13
c0 -9 -9 -55 -16 -129c-2 -18 -39 -404 -42 -429c-2 -21 -4 -32 -15 -32z" />
    <glyph glyph-name="quotedbl" unicode="&#x22;" horiz-adv-x="360" 
d="M109 755c31 0 51 0 51 -15s-25 -65 -37 -190c-4 -35 -8 -50 -14 -50s-10 15 -14 50c-12 125 -37 175 -37 190s20 15 51 15zM251 755c31 0 51 0 51 -15s-25 -65 -37 -190c-4 -35 -8 -50 -14 -50s-10 15 -14 50c-12 125 -37 175 -37 190s20 15 51 15z" />
    <glyph glyph-name="numbersign" unicode="#" horiz-adv-x="600" 
d="M571 460h-118l-22 -150h112v-81h-123l-33 -229h-59l31 229h-152l-34 -229h-60l35 229h-119v81h130l23 150h-123v82h134l32 212h61l-33 -212h151l31 212h60l-31 -212h107v-82zM393 460h-150l-24 -150h153z" />
    <glyph glyph-name="dollar" unicode="$" horiz-adv-x="600" 
d="M303 0l-9 -81c-1 -5 -5 -7 -10 -8l-31 -6c-6 -1 -8 2 -7 10l10 85c-21 0 -88 6 -126 21c-28 12 -34 16 -34 43c0 57 12 108 15 121c4 16 8 24 15 24s8 -6 7 -27c-2 -27 5 -65 29 -91c28 -31 69 -45 98 -45l32 295c-110 84 -163 143 -163 238c0 123 121 180 212 180l10 80
c1 6 7 8 11 9l30 7c5 1 9 0 8 -5l-12 -91c46 0 92 -12 110 -19c14 -5 17 -9 17 -25c0 -22 -8 -91 -12 -110c-2 -11 -5 -14 -11 -14c-7 0 -10 4 -10 19c-1 26 -3 50 -30 77c-18 19 -52 30 -68 30l-31 -271c100 -67 166 -130 166 -240c0 -154 -137 -206 -216 -206zM309 475
l27 242c-37 0 -116 -18 -116 -112c0 -55 42 -92 89 -130zM337 311l-27 -265c66 4 115 56 115 128c0 61 -38 103 -88 137z" />
    <glyph glyph-name="percent" unicode="%" horiz-adv-x="868" 
d="M645 0c-127 0 -177 98 -177 176c0 92 51 191 184 191c127 0 179 -97 179 -176c0 -91 -53 -191 -186 -191zM649 34c61 0 96 59 96 143c0 74 -38 156 -98 156c-63 0 -93 -66 -93 -143c0 -73 36 -156 95 -156zM310 -4l-63 -8c-13 -2 -15 1 -10 13c99 222 308 707 318 728
c-61 -5 -202 -15 -220 -16v-2c34 -20 64 -74 64 -138c0 -91 -55 -191 -185 -191c-127 0 -177 98 -177 176c0 92 56 192 189 192c170 0 354 23 382 23c7 0 10 -1 10 -4c0 -5 -5 -14 -11 -29l-287 -732c-3 -9 -5 -11 -10 -12zM218 416c61 0 96 59 96 143c0 74 -38 156 -98 156
c-63 0 -93 -66 -93 -143c0 -73 36 -156 95 -156z" />
    <glyph glyph-name="ampersand" unicode="&#x26;" horiz-adv-x="830" 
d="M58 204c0 117 103 208 163 237c-42 56 -50 97 -51 142c-1 79 69 184 243 184c49 0 94 -10 121 -21c17 -6 17 -14 17 -26c0 -33 -8 -113 -11 -128c-2 -15 -6 -17 -12 -17s-7 4 -7 19c0 26 -7 58 -29 84c-20 24 -55 45 -111 45c-42 0 -107 -29 -107 -114
c0 -94 86 -174 166 -263c34 -39 157 -150 176 -167c20 28 48 93 48 154c0 15 -4 33 -19 46c-13 12 -34 15 -49 15c-6 0 -12 2 -12 8c0 8 8 10 16 10c24 0 64 -1 120 -7c19 -2 34 -8 34 -20c0 -77 -41 -170 -98 -237c67 -55 112 -82 139 -98c32 -19 87 -35 107 -35
c9 0 14 -1 14 -9c0 -6 -8 -9 -30 -9h-77c-114 0 -150 11 -236 77c-33 -30 -100 -91 -237 -91c-214 0 -278 134 -278 221zM370 46c77 0 143 40 164 60c-58 50 -154 144 -180 172s-90 100 -107 125c-34 -25 -69 -72 -69 -152c0 -125 88 -205 192 -205z" />
    <glyph glyph-name="quotesingle" unicode="'" horiz-adv-x="218" 
d="M109 755c31 0 51 0 51 -15s-25 -65 -37 -190c-4 -35 -8 -50 -14 -50s-10 15 -14 50c-12 125 -37 175 -37 190s20 15 51 15z" />
    <glyph glyph-name="parenleft" unicode="(" horiz-adv-x="360" 
d="M154 321c0 -191 59 -320 138 -421c3 -4 8 -9 8 -15c0 -5 -4 -7 -8 -7c-3 0 -6 2 -10 5c-78 55 -225 208 -225 425c0 218 162 391 224 432c4 3 8 6 12 6s7 -4 7 -8c0 -3 -3 -8 -6 -11c-45 -53 -140 -218 -140 -406z" />
    <glyph glyph-name="parenright" unicode=")" horiz-adv-x="360" 
d="M206 303c0 191 -59 320 -138 421c-3 4 -8 9 -8 15c0 5 4 7 8 7c3 0 6 -2 10 -5c78 -55 225 -208 225 -425c0 -218 -162 -391 -224 -432c-4 -3 -8 -6 -12 -6s-7 4 -7 8c0 3 3 8 6 11c45 53 140 218 140 406z" />
    <glyph glyph-name="asterisk" unicode="*" horiz-adv-x="380" 
d="M185 634c-1 0 -3 0 -4 -3c-5 -8 -27 -67 -31 -83c-2 -7 -5 -15 -5 -23c0 -6 -5 -8 -12 -8c-32 0 -67 18 -67 26c0 5 3 9 10 17c10 15 81 73 93 80c2 2 3 4 3 6s-2 3 -4 3c-22 4 -80 2 -90 1c-7 -1 -11 -2 -17 -2c-7 0 -12 50 -12 71c0 11 3 13 13 13
c30 0 101 -56 112 -68c2 -2 5 -2 7 -1c1 2 1 4 1 7c-3 32 -27 87 -30 94c-3 6 -6 10 -6 16c0 13 57 28 74 28c7 0 10 -3 10 -11c0 -25 -20 -89 -33 -128c-1 -1 -1 -4 0 -6c1 -1 2 -1 5 0c43 13 83 52 91 59c4 6 8 10 14 10c9 0 24 -56 24 -77c0 -5 -3 -7 -10 -8
c-5 -1 -85 -1 -115 2c-2 0 -3 -1 -5 -2c-1 -1 -1 -4 1 -7c14 -20 72 -63 84 -67c8 -2 14 -4 14 -10c0 -15 -50 -52 -60 -52c-5 0 -10 5 -16 14c-9 20 -29 78 -35 103c-1 2 -2 6 -4 6z" />
    <glyph glyph-name="plus" unicode="+" horiz-adv-x="549" 
d="M509 223h-203v-204h-64v204h-202v61h202v204h64v-204h203v-61z" />
    <glyph glyph-name="comma" unicode="," horiz-adv-x="250" 
d="M64 71c0 35 45 69 75 69c9 0 12 -5 25 -25c17 -25 22 -41 22 -52c0 -10 -6 -32 -13 -48c-13 -30 -45 -94 -79 -133c-7 -6 -11 -12 -17 -12c-3 0 -8 5 -8 10s6 12 8 17c21 36 29 64 29 87c0 57 -42 73 -42 87z" />
    <glyph glyph-name="hyphen" unicode="-" horiz-adv-x="425" 
d="M75 315h284c18 0 32 -2 32 -14c0 -14 -17 -17 -45 -22c-40 -6 -223 -38 -258 -48c-20 -5 -36 -16 -44 -16s-10 8 -8 18l15 69c3 12 7 13 24 13z" />
    <glyph glyph-name="period" unicode="." horiz-adv-x="250" 
d="M124 0c-42 0 -60 33 -60 61c0 25 18 61 61 61c34 0 61 -23 61 -58s-24 -64 -62 -64z" />
    <glyph glyph-name="slash" unicode="/" horiz-adv-x="542" 
d="M53 -19l-35 23c-5 3 -5 8 0 17l456 740c5 8 9 8 14 5l36 -22c4 -2 5 -6 1 -12l-459 -745c-4 -7 -8 -9 -13 -6z" />
    <glyph glyph-name="zero" unicode="0" horiz-adv-x="600" 
d="M559 398c0 -248 -95 -415 -267 -415c-197 0 -251 228 -251 370c0 233 82 414 267 414c198 0 251 -210 251 -369zM442 359c0 173 -46 363 -155 363c-75 0 -129 -103 -129 -331c0 -173 43 -363 153 -363c81 0 131 137 131 331z" />
    <glyph glyph-name="one" unicode="1" horiz-adv-x="600" 
d="M258 301l-1 159v131c0 24 0 36 -15 36c-19 0 -94 -39 -116 -48c-5 -2 -10 -4 -14 -4c-3 0 -8 5 -8 11s5 11 10 14c4 2 196 128 231 154c9 6 18 13 26 13c9 0 12 -11 12 -21c0 -8 -6 -107 -6 -260v-185c0 -96 0 -181 4 -225c3 -32 8 -47 40 -54c15 -3 58 -6 66 -6
c4 0 9 -3 9 -10s-5 -9 -16 -9c-76 0 -140 3 -167 3c-23 0 -107 -3 -171 -3c-11 0 -17 2 -17 9s4 10 8 10c11 0 62 3 80 7c32 7 37 21 40 53c4 44 6 129 5 225z" />
    <glyph glyph-name="two" unicode="2" horiz-adv-x="600" 
d="M445 0h-392c-7 0 -14 6 -14 14s10 17 20 26c140 123 339 279 339 490c0 158 -87 190 -137 190c-43 0 -76 -8 -106 -36c-24 -23 -42 -70 -42 -96c0 -10 -3 -19 -13 -19c-5 0 -8 7 -9 19c-1 9 -6 92 -6 121c0 9 1 13 12 20c39 20 93 38 181 38c176 0 251 -96 251 -213
c0 -194 -215 -363 -344 -466c-5 -4 -3 -7 2 -7h68c17 0 135 1 172 6c69 8 102 42 114 89c3 12 6 16 12 16c7 0 8 -9 8 -19c0 -16 -19 -109 -29 -143c-8 -27 -24 -30 -87 -30z" />
    <glyph glyph-name="three" unicode="3" horiz-adv-x="600" 
d="M226 -17c-71 0 -128 11 -151 24c-15 8 -17 16 -17 28c0 47 3 103 7 125c2 12 5 19 11 19s9 -6 9 -14c0 -64 49 -133 150 -133c99 0 181 52 181 171c0 134 -120 181 -169 190c-26 5 -32 9 -32 17c0 7 7 12 18 14c45 9 155 55 155 172c0 42 -31 123 -133 123
c-79 0 -139 -47 -139 -106c0 -12 -4 -15 -9 -15c-4 0 -7 3 -8 14c-4 32 -7 77 -7 100c0 9 1 13 14 19c34 15 94 36 177 36c192 0 227 -101 227 -148c0 -98 -106 -166 -146 -180v-2c74 -17 178 -76 178 -197c0 -140 -121 -257 -316 -257z" />
    <glyph glyph-name="four" unicode="4" horiz-adv-x="600" 
d="M347 197h-307c-12 0 -25 4 -25 15c0 12 9 21 13 26c7 8 380 501 388 511c8 9 16 18 26 18c9 0 12 -7 12 -17c0 -15 -1 -85 -1 -150v-325h77c27 0 40 10 46 10c5 0 9 -4 9 -12c0 -9 -10 -50 -17 -63c-5 -9 -10 -13 -27 -13h-88c0 -32 -1 -77 3 -121c3 -31 9 -49 42 -56
c14 -3 35 -4 45 -4c5 0 9 -3 9 -10s-5 -9 -16 -9c-56 0 -120 3 -141 3c-28 0 -82 -3 -137 -3c-11 0 -16 2 -16 9s3 10 8 10c9 0 31 1 47 3c38 4 45 26 47 57c4 44 3 89 3 121zM347 275v309h-3l-223 -309h226z" />
    <glyph glyph-name="five" unicode="5" horiz-adv-x="600" 
d="M192 -17c-32 0 -69 6 -94 18c-17 9 -19 18 -19 39c0 33 -1 93 4 126c2 10 5 18 11 18c7 0 9 -6 9 -17c0 -107 66 -134 136 -134c80 0 165 53 165 183c0 160 -174 226 -253 237c-12 2 -19 7 -18 20l23 264c1 10 8 13 19 13h245c28 0 45 2 56 4c11 1 17 3 20 3
c8 0 10 -4 10 -19c0 -21 -3 -65 -13 -128c-1 -6 -4 -12 -11 -12c-6 0 -8 6 -8 14c0 28 -7 54 -88 54h-182l-14 -122c149 -24 331 -106 331 -280c0 -133 -97 -281 -329 -281z" />
    <glyph glyph-name="six" unicode="6" horiz-adv-x="600" 
d="M305 -17c-154 0 -264 106 -264 287c0 195 154 404 371 491c9 4 17 6 22 6c6 0 12 -3 12 -9c0 -9 -14 -16 -25 -22c-117 -66 -255 -228 -255 -467c0 -117 51 -242 152 -242c69 0 126 52 126 168c0 139 -75 200 -141 200c-25 0 -38 -3 -52 -7c-8 -2 -17 -6 -22 -6
c-4 0 -8 3 -8 10s5 11 11 15c30 21 75 36 130 36c141 0 204 -114 204 -203c0 -155 -115 -257 -261 -257z" />
    <glyph glyph-name="seven" unicode="7" horiz-adv-x="600" 
d="M230 750h320c19 0 24 -3 24 -8c0 -6 -4 -14 -7 -18c-83 -118 -239 -515 -254 -643c-2 -17 0 -24 0 -37c0 -20 -81 -61 -126 -61c-11 0 -14 3 -14 12c0 10 2 25 7 41c28 96 156 391 294 622h-259c-28 0 -70 -2 -94 -18c-18 -12 -31 -44 -33 -60c-1 -8 -4 -13 -10 -13
c-7 0 -8 5 -8 15c0 37 15 154 15 164s4 14 10 14s29 -10 135 -10z" />
    <glyph glyph-name="eight" unicode="8" horiz-adv-x="600" 
d="M293 -17c-148 0 -251 73 -251 196c0 111 87 185 184 224c-83 43 -145 98 -145 183c0 78 67 181 237 181c122 0 205 -56 205 -153c0 -105 -92 -164 -147 -185c71 -38 182 -100 182 -224c0 -118 -97 -222 -265 -222zM155 185c0 -89 65 -156 146 -156c78 0 141 59 141 151
c0 100 -80 147 -169 199c-54 -31 -118 -92 -118 -194zM417 605c0 75 -50 119 -110 119c-87 0 -122 -62 -122 -118c0 -62 43 -103 134 -154c29 13 98 52 98 153z" />
    <glyph glyph-name="nine" unicode="9" horiz-adv-x="600" 
d="M298 767c163 0 252 -120 252 -272c0 -280 -245 -456 -369 -514c-5 -3 -10 -4 -18 -4c-4 0 -9 5 -9 10c0 7 7 13 12 17c104 63 260 227 260 463c0 177 -75 255 -152 255c-72 0 -120 -64 -120 -149c0 -153 99 -189 133 -189c35 0 55 6 68 12c11 6 16 11 20 11s8 -4 8 -9
c0 -3 -3 -9 -5 -11c-29 -31 -81 -46 -132 -46c-144 0 -204 109 -204 193c0 135 102 233 256 233z" />
    <glyph glyph-name="colon" unicode=":" horiz-adv-x="250" 
d="M124 30c-42 0 -60 33 -60 61c0 25 18 61 61 61c34 0 61 -23 61 -58s-24 -64 -62 -64zM124 368c-42 0 -60 34 -60 61c0 26 18 61 61 61c34 0 61 -22 61 -58c0 -35 -25 -64 -62 -64z" />
    <glyph glyph-name="semicolon" unicode=";" horiz-adv-x="250" 
d="M64 81c0 35 45 69 75 69c9 0 12 -5 25 -25c17 -25 22 -41 22 -52c0 -10 -6 -32 -13 -48c-13 -30 -45 -94 -79 -133c-7 -6 -11 -12 -17 -12c-3 0 -8 5 -8 10s6 12 8 17c21 36 29 64 29 87c0 57 -42 73 -42 87zM124 368c-42 0 -60 33 -60 60s18 62 61 62
c34 0 61 -22 61 -58s-25 -64 -62 -64z" />
    <glyph glyph-name="less" unicode="&#x3c;" horiz-adv-x="549" 
d="M509 19l-469 200v70l469 200v-67l-393 -168l393 -168v-67z" />
    <glyph glyph-name="equal" unicode="=" horiz-adv-x="549" 
d="M509 317h-469v61h469v-61zM509 128h-469v61h469v-61z" />
    <glyph glyph-name="greater" unicode="&#x3e;" horiz-adv-x="549" 
d="M509 219l-469 -200v67l393 168l-393 168v67l469 -200v-70z" />
    <glyph glyph-name="question" unicode="?" horiz-adv-x="532" 
d="M250 767c165 0 212 -89 212 -150c0 -126 -92 -194 -170 -285c-34 -40 -51 -71 -51 -88c0 -16 5 -36 16 -51c6 -9 8 -14 8 -18c0 -3 -3 -8 -9 -8c-8 0 -28 13 -51 31c-36 29 -45 45 -45 63c0 14 5 31 20 51c23 29 47 54 66 80c67 91 88 140 88 206c0 58 -28 125 -119 125
c-46 0 -79 -19 -95 -39c-22 -29 -33 -59 -35 -83c-1 -11 -3 -20 -9 -20c-7 0 -8 5 -10 13c-3 14 -4 78 -4 117c0 6 1 10 11 16c30 18 89 40 177 40zM232 -17c-39 0 -55 31 -55 56c0 24 16 57 56 57c32 0 56 -21 56 -53c0 -33 -23 -60 -57 -60z" />
    <glyph glyph-name="at" unicode="@" horiz-adv-x="902" 
d="M705 161c-45 -31 -96 -47 -137 -47c-43 0 -72 30 -77 93c-1 14 -1 38 3 61c-51 -69 -116 -150 -181 -150c-48 0 -64 48 -64 84c0 93 38 177 117 243c35 29 110 72 157 72c20 0 41 -4 54 -8c10 11 30 27 49 33c10 3 13 -8 11 -15c-28 -64 -50 -183 -50 -258
c0 -69 21 -91 54 -91c52 0 147 71 147 228c0 143 -94 258 -279 258c-220 0 -371 -180 -371 -417c0 -186 117 -295 281 -295c131 0 193 36 259 90c15 12 28 15 32 6c3 -6 -2 -15 -17 -30c-52 -52 -162 -109 -296 -109c-179 0 -331 104 -331 330c0 245 230 458 450 458
c219 0 324 -119 324 -286c0 -102 -52 -192 -135 -250zM498 476c-50 0 -94 -28 -122 -94c-21 -49 -27 -100 -27 -140c0 -28 6 -53 19 -53c33 0 95 76 134 130c9 37 23 93 42 143c-9 7 -27 14 -46 14z" />
    <glyph glyph-name="A" unicode="A" horiz-adv-x="700" 
d="M427 258h-223c-5 0 -7 -2 -9 -8l-54 -143c-10 -25 -15 -49 -15 -61c0 -18 9 -31 40 -31h15c12 0 15 -2 15 -8c0 -8 -6 -10 -17 -10c-32 0 -75 3 -106 3c-11 0 -66 -3 -118 -3c-13 0 -19 2 -19 10c0 6 4 8 12 8c9 0 23 1 31 2c46 6 65 40 85 90l251 628c12 29 18 40 28 40
c9 0 15 -9 25 -32c24 -55 184 -463 248 -615c38 -90 67 -104 88 -109c15 -3 30 -4 42 -4c8 0 13 -1 13 -8c0 -8 -9 -10 -46 -10c-36 0 -109 0 -189 2c-18 1 -30 1 -30 8c0 6 4 8 14 9c7 2 14 11 9 23l-80 212c-2 5 -5 7 -10 7zM224 308h184c5 0 6 3 5 6l-90 247
c-1 4 -2 9 -5 9s-5 -5 -6 -9l-92 -246c-1 -4 0 -7 4 -7z" />
    <glyph glyph-name="B" unicode="B" horiz-adv-x="707" 
d="M164 287v176c0 152 0 180 -2 212c-2 34 -10 50 -43 57c-8 2 -25 3 -39 3c-11 0 -17 2 -17 9s7 9 22 9c53 0 116 -3 136 -3c49 0 88 3 122 3c181 0 213 -97 213 -150c0 -82 -47 -131 -102 -175c82 -28 182 -99 182 -216c0 -107 -83 -218 -267 -218c-12 0 -41 2 -70 3
c-30 2 -60 3 -75 3c-11 0 -33 0 -57 -1c-23 0 -49 -2 -69 -2c-13 0 -20 3 -20 10c0 5 4 8 16 8c15 0 27 2 36 4c20 4 25 26 29 55c5 42 5 121 5 213zM284 693v-247c0 -8 3 -10 7 -11c9 -2 24 -3 47 -3c33 0 55 4 72 19c26 21 41 57 41 106c0 67 -39 155 -125 155
c-14 0 -23 0 -33 -2c-7 -2 -9 -6 -9 -17zM513 167c0 62 -21 146 -97 199c-21 15 -44 22 -83 24c-18 1 -28 1 -43 1c-4 0 -6 -2 -6 -7v-237c0 -66 3 -83 35 -96c27 -11 50 -12 73 -12c45 0 121 24 121 128z" />
    <glyph glyph-name="C" unicode="C" horiz-adv-x="800" 
d="M522 -17c-137 0 -252 30 -343 109c-98 86 -124 198 -124 295c0 68 21 186 117 274c72 66 167 106 316 106c62 0 99 -4 145 -10c38 -5 70 -14 100 -17c11 -1 15 -6 15 -12c0 -8 -3 -20 -5 -55c-2 -33 -1 -88 -3 -108c-1 -15 -3 -23 -12 -23c-8 0 -10 8 -10 22
c-1 31 -14 66 -39 92c-33 35 -111 62 -203 62c-87 0 -144 -22 -188 -62c-73 -67 -92 -162 -92 -259c0 -238 181 -356 315 -356c89 0 143 10 183 56c17 19 30 48 34 66c3 16 5 20 13 20c7 0 9 -7 9 -15c0 -12 -12 -99 -22 -133c-5 -17 -9 -22 -26 -29
c-40 -16 -116 -23 -180 -23z" />
    <glyph glyph-name="D" unicode="D" horiz-adv-x="936" 
d="M164 287v176c0 152 0 180 -2 212c-2 34 -10 50 -43 57c-8 2 -25 3 -39 3c-11 0 -17 2 -17 9s7 9 22 9c53 0 116 -3 144 -3c31 0 94 3 154 3c125 0 292 0 401 -114c50 -52 97 -135 97 -254c0 -126 -53 -222 -109 -279c-46 -47 -150 -118 -335 -118c-36 0 -77 3 -115 6
s-73 6 -98 6c-11 0 -33 0 -57 -1c-23 0 -49 -2 -69 -2c-13 0 -20 3 -20 10c0 5 4 8 16 8c15 0 27 2 36 4c20 4 25 26 29 55c5 42 5 121 5 213zM289 479v-126c0 -106 1 -183 2 -202c1 -25 3 -65 11 -76c13 -19 52 -40 131 -40c102 0 170 20 230 72c64 55 84 146 84 249
c0 127 -53 209 -96 250c-92 88 -206 100 -284 100c-20 0 -57 -3 -65 -7c-9 -4 -12 -9 -12 -20c-1 -34 -1 -121 -1 -200z" />
    <glyph glyph-name="E" unicode="E" 
d="M164 287v176c0 152 0 180 -2 212c-2 34 -10 50 -43 57c-8 2 -25 3 -39 3c-11 0 -17 2 -17 9s7 9 22 9c27 0 56 -1 81 -1c26 -1 49 -2 63 -2c32 0 231 0 250 1c19 2 35 4 43 6c5 1 11 4 16 4s6 -4 6 -9c0 -7 -5 -19 -8 -65c-1 -10 -3 -54 -5 -66c-1 -5 -3 -11 -10 -11
s-9 5 -9 14c0 7 -1 24 -6 36c-7 18 -17 30 -67 36c-17 2 -122 4 -142 4c-5 0 -7 -3 -7 -10v-253c0 -7 1 -11 7 -11c22 0 137 0 160 2c24 2 39 5 48 15c7 8 11 13 16 13c4 0 7 -2 7 -8s-4 -22 -8 -73c-1 -20 -4 -60 -4 -67c0 -8 0 -19 -9 -19c-7 0 -9 4 -9 9
c-1 10 -1 23 -4 36c-5 20 -19 35 -56 39c-19 2 -118 3 -142 3c-5 0 -6 -4 -6 -10v-79c0 -34 -1 -126 0 -155c2 -69 18 -84 120 -84c26 0 68 0 94 12s38 33 45 74c2 11 4 15 11 15c8 0 8 -8 8 -18c0 -23 -8 -91 -13 -111c-7 -26 -16 -26 -54 -26c-75 0 -130 2 -173 3
c-43 2 -74 3 -104 3c-11 0 -33 0 -57 -1c-23 0 -49 -2 -69 -2c-13 0 -20 3 -20 10c0 5 4 8 16 8c15 0 27 2 36 4c20 4 25 26 29 55c5 42 5 121 5 213z" />
    <glyph glyph-name="F" unicode="F" horiz-adv-x="622" 
d="M290 368v-81c0 -96 0 -171 5 -213c3 -29 9 -51 39 -55c14 -2 36 -4 50 -4c13 0 17 -3 17 -8c0 -7 -7 -10 -22 -10c-63 0 -126 3 -152 3s-89 -3 -127 -3c-14 0 -21 2 -21 10c0 5 4 8 15 8c15 0 27 2 36 4c20 4 25 26 29 55c5 42 5 117 5 213v176c0 152 0 180 -2 212
c-2 34 -10 50 -43 57c-8 2 -25 3 -39 3c-10 0 -17 2 -17 8c0 8 8 10 23 10c26 0 55 -1 81 -1c26 -1 49 -2 63 -2c38 0 241 0 264 1c19 1 31 1 41 4c6 2 11 6 16 6c4 0 7 -4 7 -9c0 -7 -5 -19 -8 -45c-1 -10 -3 -69 -5 -81c-1 -8 -3 -14 -10 -14s-9 5 -10 16c0 8 0 24 -6 38
c-7 14 -28 29 -66 30l-154 3c-6 0 -9 -3 -9 -14v-250c0 -6 1 -9 7 -9l128 1c17 0 31 0 45 1c19 1 33 5 43 18c5 6 7 10 13 10c4 0 6 -3 6 -9s-5 -31 -8 -62c-2 -20 -4 -66 -4 -73c0 -9 0 -19 -10 -19c-6 0 -8 7 -8 14s-2 19 -6 31c-5 14 -20 32 -51 36c-25 3 -131 3 -148 3
c-5 0 -7 -2 -7 -9z" />
    <glyph glyph-name="G" unicode="G" horiz-adv-x="886" 
d="M771 174v-110c0 -27 -1 -29 -13 -36c-65 -34 -163 -45 -241 -45c-245 0 -462 116 -462 392c0 160 83 272 174 327c96 58 185 65 269 65c69 0 157 -12 177 -16c21 -4 56 -10 79 -11c12 -1 14 -5 14 -12c0 -11 -7 -39 -7 -164c0 -16 -3 -21 -11 -21c-7 0 -9 5 -10 13
c-3 23 -8 55 -34 83c-30 32 -110 78 -223 78c-55 0 -128 -4 -198 -62c-56 -47 -92 -122 -92 -245c0 -215 137 -376 348 -376c26 0 61 0 85 11c15 7 19 20 19 37v94c0 50 0 88 -1 118c-1 34 -10 50 -43 57c-8 2 -25 3 -39 3c-9 0 -15 2 -15 8c0 8 7 10 21 10
c52 0 115 -3 145 -3c31 0 84 3 117 3c13 0 20 -2 20 -10c0 -6 -6 -8 -13 -8c-8 0 -15 -1 -27 -3c-27 -5 -37 -22 -38 -57c-1 -30 -1 -70 -1 -120z" />
    <glyph glyph-name="H" unicode="H" horiz-adv-x="972" 
d="M295 435h382c3 0 6 2 6 7v21c0 152 0 180 -2 212c-2 34 -10 50 -43 57c-8 2 -25 3 -39 3c-11 0 -17 2 -17 9s7 9 21 9c54 0 117 -3 144 -3c24 0 87 3 126 3c14 0 21 -2 21 -9s-6 -9 -18 -9c-8 0 -17 -1 -29 -3c-27 -5 -35 -22 -37 -57c-2 -32 -2 -60 -2 -212v-176
c0 -92 0 -171 5 -214c3 -28 9 -50 39 -54c14 -2 36 -4 51 -4c11 0 16 -3 16 -8c0 -7 -8 -10 -20 -10c-65 0 -128 3 -156 3c-23 0 -86 -3 -125 -3c-14 0 -21 3 -21 10c0 5 4 8 16 8c15 0 27 2 36 4c20 4 25 26 29 55c5 42 5 121 5 213v88c0 4 -3 6 -6 6h-382
c-3 0 -6 -1 -6 -6v-88c0 -92 0 -171 5 -214c3 -28 9 -50 39 -54c14 -2 36 -4 51 -4c11 0 16 -3 16 -8c0 -7 -8 -10 -20 -10c-65 0 -128 3 -156 3c-23 0 -86 -3 -126 -3c-13 0 -20 3 -20 10c0 5 4 8 16 8c15 0 27 2 36 4c20 4 25 26 29 55c5 42 5 121 5 213v176
c0 152 0 180 -2 212c-2 34 -10 50 -43 57c-8 2 -25 3 -39 3c-11 0 -17 2 -17 9s7 9 21 9c54 0 117 -3 144 -3c24 0 87 3 126 3c14 0 21 -2 21 -9s-6 -9 -18 -9c-8 0 -17 -1 -29 -3c-27 -5 -35 -22 -37 -57c-2 -32 -2 -60 -2 -212v-21c0 -5 3 -7 6 -7z" />
    <glyph glyph-name="I" unicode="I" horiz-adv-x="452" 
d="M164 287v176c0 152 0 180 -2 212c-2 34 -12 51 -34 56c-11 3 -24 4 -36 4c-10 0 -16 2 -16 10c0 6 8 8 24 8c38 0 101 -3 130 -3c25 0 84 3 122 3c13 0 21 -2 21 -8c0 -8 -6 -10 -16 -10s-18 -1 -30 -3c-27 -5 -35 -22 -37 -57c-2 -32 -2 -60 -2 -212v-176
c0 -97 0 -176 4 -219c3 -27 10 -45 40 -49c14 -2 36 -4 51 -4c11 0 16 -3 16 -8c0 -7 -8 -10 -19 -10c-66 0 -129 3 -156 3c-23 0 -86 -3 -126 -3c-13 0 -20 3 -20 10c0 5 4 8 16 8c15 0 27 2 36 4c20 4 26 21 29 50c5 42 5 121 5 218z" />
    <glyph glyph-name="J" unicode="J" horiz-adv-x="416" 
d="M164 176v287c0 152 0 180 -2 212c-2 34 -10 50 -43 57c-8 2 -25 3 -39 3c-11 0 -17 2 -17 9s7 9 22 9c53 0 116 -3 142 -3c24 0 87 3 126 3c14 0 21 -2 21 -9s-6 -9 -18 -9c-11 0 -17 -1 -29 -3c-27 -5 -35 -22 -37 -57c-2 -32 -2 -60 -2 -212v-185c0 -43 3 -91 3 -141
c0 -57 -4 -121 -24 -177c-21 -61 -74 -130 -170 -189c-13 -8 -29 -16 -50 -26c-7 -4 -15 -6 -20 -6c-4 0 -8 3 -8 8s5 9 22 18c13 7 28 18 48 38c76 77 75 177 75 373z" />
    <glyph glyph-name="K" unicode="K" horiz-adv-x="768" 
d="M286 463v-44h5c34 37 180 186 209 220c28 33 50 58 50 75c0 11 -4 18 -14 20c-9 2 -13 4 -13 10c0 7 5 9 16 9c21 0 76 -3 103 -3c31 0 86 3 117 3c10 0 17 -2 17 -9s-5 -9 -15 -9c-14 0 -39 -4 -58 -11c-31 -12 -65 -33 -108 -75c-31 -30 -182 -180 -216 -216
c36 -47 232 -258 271 -295c44 -42 89 -87 143 -108c30 -12 50 -15 62 -15c7 0 13 -2 13 -8c0 -7 -5 -10 -24 -10h-87c-30 0 -48 0 -69 2c-54 5 -81 27 -124 65c-44 39 -241 270 -262 299l-11 15h-5v-91c0 -92 0 -171 3 -214c2 -28 11 -50 36 -54c14 -2 36 -4 49 -4
c8 0 13 -3 13 -8c0 -7 -8 -10 -19 -10c-56 0 -119 3 -144 3c-23 0 -86 -3 -126 -3c-13 0 -20 3 -20 10c0 5 4 8 16 8c15 0 27 2 36 4c20 4 25 26 29 55c5 42 5 121 5 213v176c0 152 0 180 -2 212c-2 34 -10 50 -43 57c-8 2 -25 3 -39 3c-11 0 -17 2 -17 9s7 9 22 9
c53 0 116 -3 140 -3s87 3 121 3c14 0 21 -2 21 -9s-6 -9 -14 -9c-10 0 -16 -1 -28 -3c-27 -5 -35 -22 -37 -57c-2 -32 -2 -60 -2 -212z" />
    <glyph glyph-name="L" unicode="L" horiz-adv-x="605" 
d="M289 463v-176c0 -128 0 -197 21 -215c17 -15 43 -22 121 -22c53 0 92 1 117 28c12 13 24 41 26 60c1 9 3 15 11 15c7 0 8 -5 8 -17c0 -11 -7 -86 -15 -115c-6 -22 -11 -27 -63 -27c-72 0 -124 2 -169 3c-45 2 -81 3 -122 3c-11 0 -33 0 -57 -1c-23 0 -49 -2 -69 -2
c-13 0 -20 3 -20 10c0 5 4 8 16 8c15 0 27 2 36 4c20 4 25 26 29 55c5 42 5 121 5 213v176c0 152 0 180 -2 212c-2 34 -10 50 -43 57c-8 2 -20 3 -33 3c-11 0 -17 2 -17 9s7 9 22 9c47 0 110 -3 137 -3c24 0 97 3 136 3c14 0 21 -2 21 -9s-6 -9 -18 -9c-11 0 -27 -1 -39 -3
c-27 -5 -35 -22 -37 -57c-2 -32 -2 -60 -2 -212z" />
    <glyph glyph-name="M" unicode="M" horiz-adv-x="1043" 
d="M102 97l99 652c3 17 9 26 17 26s14 -5 27 -31l273 -564l272 571c8 16 13 24 22 24s15 -10 18 -31l91 -618c9 -63 19 -92 49 -101c29 -9 49 -10 62 -10c9 0 16 -1 16 -7c0 -8 -12 -11 -26 -11c-25 0 -163 3 -203 6c-23 2 -29 5 -29 11c0 5 4 8 11 11c6 2 9 15 5 43
l-60 440h-4l-218 -454c-23 -47 -28 -56 -37 -56s-19 20 -35 50c-24 46 -103 199 -115 227c-9 21 -69 147 -104 222h-4l-52 -398c-2 -18 -3 -31 -3 -47c0 -19 13 -28 30 -32c18 -4 32 -5 42 -5c8 0 15 -2 15 -7c0 -9 -9 -11 -24 -11c-42 0 -87 3 -105 3c-19 0 -67 -3 -99 -3
c-10 0 -18 2 -18 11c0 5 6 7 16 7c8 0 15 0 30 3c28 6 36 45 41 79z" />
    <glyph glyph-name="N" unicode="N" horiz-adv-x="947" 
d="M209 553l11 -420c2 -78 15 -104 35 -111c17 -6 36 -7 52 -7c11 0 17 -2 17 -8c0 -8 -9 -10 -23 -10c-65 0 -105 3 -124 3c-9 0 -56 -3 -108 -3c-13 0 -22 1 -22 10c0 6 6 8 16 8c13 0 31 1 45 5c26 8 30 37 31 124l9 592c0 20 3 34 13 34c11 0 20 -13 37 -31l310 -321
c68 -68 203 -212 220 -228h5l-10 449c-1 61 -10 80 -34 90c-15 6 -39 6 -53 6c-12 0 -16 3 -16 9c0 8 11 9 26 9c52 0 100 -3 121 -3c11 0 49 3 98 3c13 0 23 -1 23 -9c0 -6 -6 -9 -18 -9c-10 0 -18 0 -30 -3c-28 -8 -36 -29 -37 -85l-11 -631c0 -22 -4 -31 -13 -31
c-11 0 -23 11 -34 22l-295 294c-109 108 -220 233 -238 252h-3z" />
    <glyph glyph-name="O" unicode="O" horiz-adv-x="927" 
d="M458 -17c-287 0 -403 215 -403 392c0 171 113 392 413 392c249 0 404 -145 404 -374s-160 -410 -414 -410zM500 33c70 0 232 34 232 323c0 224 -129 363 -293 363c-115 0 -246 -64 -246 -313c0 -208 115 -373 307 -373z" />
    <glyph glyph-name="P" unicode="P" horiz-adv-x="655" 
d="M164 287v176c0 152 0 180 -2 212c-2 34 -10 50 -43 57c-8 2 -25 3 -39 3c-11 0 -17 2 -17 9s7 9 22 9c53 0 116 -3 144 -3c41 0 99 3 145 3c125 0 170 -42 186 -57c22 -21 50 -66 50 -119c0 -142 -104 -242 -246 -242c-5 0 -16 0 -21 1s-12 2 -12 9c0 8 7 11 28 11
c56 0 134 63 134 165c0 33 -3 100 -59 150c-36 33 -77 39 -100 39c-15 0 -30 -1 -39 -4c-5 -2 -8 -8 -8 -19v-400c0 -92 0 -171 5 -214c3 -28 9 -50 39 -54c14 -2 36 -4 51 -4c11 0 16 -3 16 -8c0 -7 -8 -10 -19 -10c-66 0 -129 3 -155 3c-23 0 -86 -3 -126 -3
c-13 0 -20 3 -20 10c0 5 4 8 16 8c15 0 27 2 36 4c20 4 25 26 29 55c5 42 5 121 5 213z" />
    <glyph glyph-name="Q" unicode="Q" horiz-adv-x="930" 
d="M776 -83l-157 92c-40 -15 -104 -26 -157 -26c-293 0 -407 217 -407 397c0 163 117 387 410 387c239 0 405 -145 405 -379c0 -176 -111 -287 -174 -329l201 -103c211 -108 344 -119 412 -119c52 0 126 8 195 35c6 2 11 5 15 5c5 0 9 -4 9 -9c0 -6 -5 -9 -12 -12
c-60 -29 -173 -75 -317 -75c-151 0 -258 39 -423 136zM499 33c80 0 231 35 231 328c0 242 -150 358 -288 358c-131 0 -248 -84 -248 -316c0 -238 144 -370 305 -370z" />
    <glyph glyph-name="R" unicode="R" horiz-adv-x="755" 
d="M164 287v176c0 152 0 180 -2 212c-2 34 -10 50 -43 57c-8 2 -25 3 -39 3c-11 0 -17 2 -17 9s7 9 22 9c53 0 116 -3 137 -3c34 0 110 3 141 3c63 0 130 -6 184 -43c28 -19 68 -70 68 -137c0 -74 -31 -142 -132 -224c89 -112 158 -201 217 -263c56 -58 97 -65 112 -68
c11 -2 20 -3 28 -3s12 -3 12 -8c0 -8 -7 -10 -19 -10h-95c-56 0 -81 5 -107 19c-43 23 -81 70 -137 147c-40 55 -86 123 -99 138c-5 6 -11 7 -18 7l-87 2c-5 0 -8 -2 -8 -8v-14c0 -93 0 -172 5 -214c3 -29 9 -51 39 -55c15 -2 37 -4 49 -4c8 0 12 -3 12 -8
c0 -7 -7 -10 -20 -10c-58 0 -132 3 -147 3c-19 0 -82 -3 -122 -3c-13 0 -20 3 -20 10c0 5 4 8 16 8c15 0 27 2 36 4c20 4 25 26 29 55c5 42 5 121 5 213zM282 688v-304c0 -11 2 -15 9 -18c21 -7 51 -10 76 -10c40 0 53 4 71 17c30 22 59 68 59 150c0 142 -94 183 -153 183
c-25 0 -43 -1 -53 -4c-7 -2 -9 -6 -9 -14z" />
    <glyph glyph-name="S" unicode="S" horiz-adv-x="582" 
d="M255 -17c-58 0 -103 7 -146 26c-16 7 -19 12 -19 34c0 55 4 115 5 131c1 15 4 26 12 26c9 0 10 -9 10 -17c0 -13 4 -34 9 -51c22 -74 81 -101 143 -101c90 0 134 61 134 114c0 49 -15 95 -98 160l-46 36c-110 86 -148 156 -148 237c0 110 92 189 231 189
c65 0 107 -10 133 -17c9 -2 14 -5 14 -12c0 -13 -4 -42 -4 -120c0 -22 -3 -30 -11 -30c-7 0 -10 6 -10 18c0 9 -5 40 -26 66c-15 19 -44 49 -109 49c-74 0 -119 -43 -119 -103c0 -46 23 -81 106 -144l28 -21c121 -91 164 -160 164 -255c0 -58 -22 -127 -94 -174
c-50 -32 -106 -41 -159 -41z" />
    <glyph glyph-name="T" unicode="T" horiz-adv-x="710" 
d="M297 287v410l-149 -4c-58 -2 -82 -7 -97 -29c-10 -15 -15 -27 -17 -35s-5 -12 -11 -12c-7 0 -9 5 -9 16c0 16 19 107 21 115c3 13 6 19 12 19c8 0 18 -10 43 -12c29 -3 67 -5 100 -5h396c32 0 54 3 69 5c15 3 23 5 27 5c7 0 8 -6 8 -21c0 -21 -3 -90 -3 -116
c-1 -10 -3 -16 -9 -16c-8 0 -10 5 -11 20l-1 11c-2 26 -29 54 -118 56l-126 3v-410c0 -92 0 -171 5 -214c3 -28 9 -50 39 -54c14 -2 36 -4 51 -4c11 0 16 -3 16 -8c0 -7 -8 -10 -19 -10c-66 0 -129 3 -157 3c-23 0 -86 -3 -126 -3c-13 0 -20 3 -20 10c0 5 4 8 16 8
c15 0 27 2 36 4c20 4 26 26 29 55c5 42 5 121 5 213z" />
    <glyph glyph-name="U" unicode="U" horiz-adv-x="852" 
d="M121 317v146c0 152 0 180 -2 212c-2 34 -10 50 -43 57c-8 2 -25 3 -39 3c-11 0 -17 2 -17 9s7 9 22 9c53 0 116 -3 146 -3c24 0 87 3 123 3c15 0 22 -2 22 -9s-6 -9 -16 -9c-11 0 -17 -1 -29 -3c-27 -5 -35 -22 -37 -57c-2 -32 -2 -60 -2 -212v-140
c0 -145 29 -206 78 -246c45 -37 91 -41 125 -41c44 0 98 14 138 54c55 55 58 145 58 248v125c0 152 0 180 -2 212c-2 34 -10 50 -43 57c-8 2 -25 3 -36 3s-17 2 -17 9s7 9 21 9c51 0 114 -3 115 -3c12 0 75 3 114 3c14 0 21 -2 21 -9s-6 -9 -18 -9c-11 0 -17 -1 -29 -3
c-27 -5 -35 -22 -37 -57c-2 -32 -2 -60 -2 -212v-107c0 -111 -11 -229 -95 -301c-71 -61 -143 -72 -208 -72c-53 0 -149 3 -222 69c-51 46 -89 120 -89 265z" />
    <glyph glyph-name="V" unicode="V" horiz-adv-x="724" 
d="M324 44l-252 611c-23 55 -40 66 -76 76c-15 4 -31 4 -39 4c-9 0 -12 3 -12 9c0 8 11 9 26 9c53 0 110 -3 145 -3c25 0 73 3 123 3c12 0 23 -2 23 -9s-6 -9 -15 -9c-16 0 -31 -1 -39 -7c-7 -5 -10 -12 -10 -21c0 -13 9 -41 23 -77l172 -454h4c43 110 173 432 197 498
c5 13 9 28 9 37c0 8 -4 16 -13 19c-12 4 -27 5 -40 5c-9 0 -17 1 -17 8c0 8 9 10 28 10c50 0 92 -3 105 -3c17 0 64 3 94 3c13 0 21 -2 21 -9s-6 -9 -16 -9s-31 0 -49 -12c-13 -9 -28 -26 -55 -90c-39 -94 -66 -148 -120 -271l-133 -305c-26 -58 -32 -74 -46 -74
c-13 0 -19 14 -38 61z" />
    <glyph glyph-name="W" unicode="W" horiz-adv-x="1085" 
d="M287 20l-212 635c-12 37 -23 61 -37 71c-11 7 -31 9 -40 9c-10 0 -16 1 -16 9c0 7 8 9 22 9c52 0 107 -3 116 -3s53 3 111 3c14 0 21 -3 21 -9c0 -8 -8 -9 -18 -9c-8 0 -18 0 -25 -4c-9 -4 -11 -11 -11 -22c0 -13 10 -47 22 -92c17 -66 110 -369 128 -425h3l194 521
c10 28 17 36 25 36c11 0 16 -15 29 -47l208 -503h3c18 67 98 331 133 448c7 23 10 44 10 58c0 16 -9 30 -48 30c-10 0 -17 3 -17 9c0 7 8 9 23 9c53 0 95 -3 104 -3c7 0 50 3 83 3c11 0 18 -2 18 -8c0 -7 -5 -10 -14 -10c-10 0 -24 -1 -35 -5c-24 -9 -35 -49 -56 -106
c-46 -126 -151 -444 -200 -594c-11 -35 -16 -47 -29 -47c-10 0 -16 12 -31 49l-208 501h-2c-19 -51 -152 -405 -195 -497c-19 -41 -24 -53 -36 -53c-10 0 -14 11 -23 37z" />
    <glyph glyph-name="X" unicode="X" horiz-adv-x="712" 
d="M576 651l-164 -236c32 -49 194 -320 219 -352c17 -22 32 -34 58 -42c17 -5 29 -6 38 -6c7 0 13 -2 13 -8c0 -7 -8 -10 -19 -10h-30c-24 0 -103 0 -180 2c-26 1 -34 3 -34 10c0 6 5 9 14 11c5 1 9 10 2 23c-55 98 -112 197 -158 272l-148 -239c-10 -16 -15 -31 -14 -42
c1 -9 10 -15 19 -17c6 -1 15 -2 23 -2c6 0 12 -3 12 -9c0 -7 -7 -9 -20 -9h-18c-6 0 -69 3 -94 3c-19 0 -68 -3 -84 -3h-17c-10 0 -15 3 -15 9s6 9 14 9c7 0 22 1 37 5c29 8 48 27 82 75l191 273l-172 285c-24 40 -48 64 -83 75c-16 5 -32 7 -42 7c-6 0 -10 3 -10 10
c0 6 7 8 20 8c24 0 105 -3 152 -3c14 0 70 3 107 3c14 0 20 -2 20 -9s-6 -9 -15 -9c-6 0 -19 -1 -27 -4c-9 -3 -12 -10 -12 -16s4 -18 10 -29c43 -80 88 -153 127 -221c29 44 121 183 136 211c8 14 11 30 11 38c0 7 -7 15 -17 18s-24 3 -32 3c-6 0 -12 2 -12 9c0 6 7 9 21 9
c39 0 81 -3 100 -3c20 0 61 3 98 3c11 0 18 -3 18 -9s-6 -9 -16 -9s-22 -2 -36 -6c-23 -6 -43 -34 -73 -78z" />
    <glyph glyph-name="Y" unicode="Y" horiz-adv-x="670" 
d="M276 174v82c0 54 -10 76 -23 105c-7 16 -141 236 -176 288c-25 37 -50 62 -69 73c-13 7 -30 13 -42 13c-8 0 -15 2 -15 9c0 6 7 9 19 9c18 0 93 -3 126 -3c21 0 62 3 107 3c10 0 15 -3 15 -9s-7 -7 -22 -11c-9 -2 -14 -10 -14 -18s5 -20 12 -34c14 -30 154 -271 170 -299
c10 24 136 244 150 275c10 22 14 39 14 52c0 10 -4 21 -21 25c-9 2 -18 4 -18 10c0 7 5 9 17 9c33 0 65 -3 94 -3c22 0 88 3 107 3c11 0 18 -2 18 -8c0 -7 -8 -10 -19 -10c-10 0 -29 -4 -44 -12c-21 -10 -32 -22 -54 -49c-33 -40 -173 -275 -191 -318
c-15 -36 -15 -67 -15 -100v-82c0 -16 0 -58 3 -100c2 -29 11 -51 41 -55c14 -2 36 -4 50 -4c11 0 16 -3 16 -8c0 -7 -8 -10 -21 -10c-63 0 -126 3 -153 3c-25 0 -88 -3 -125 -3c-14 0 -22 2 -22 10c0 5 5 8 16 8c14 0 26 2 35 4c20 4 29 26 31 55c3 42 3 84 3 100z" />
    <glyph glyph-name="Z" unicode="Z" horiz-adv-x="710" 
d="M222 55h246c102 0 141 25 157 55c9 16 15 34 18 48c2 10 4 16 10 16c8 0 10 -7 10 -31c0 -32 -13 -97 -20 -122c-5 -18 -12 -26 -30 -26c-167 0 -335 5 -537 5c-11 0 -17 3 -17 10s3 12 15 30l423 657h-196c-51 0 -112 -3 -144 -21c-33 -18 -51 -55 -54 -78
c-2 -14 -6 -18 -12 -18c-7 0 -8 5 -8 17c0 23 15 114 20 144c2 14 6 19 12 19c9 0 15 -6 40 -7c95 -4 143 -3 184 -3h305c10 0 17 -3 17 -8c0 -6 -4 -12 -8 -19z" />
    <glyph glyph-name="bracketleft" unicode="[" horiz-adv-x="360" 
d="M188 617v-606c0 -42 2 -72 7 -93c29 -14 77 -18 107 -21c12 -1 17 -3 17 -10s-4 -9 -12 -9h-190c-15 0 -16 1 -16 16v839c0 11 2 13 16 13h191c8 0 12 -2 12 -9c0 -6 -5 -9 -17 -10c-30 -3 -77 -7 -108 -21c-5 -21 -7 -51 -7 -89z" />
    <glyph glyph-name="backslash" unicode="\" horiz-adv-x="542" 
d="M525 4l-35 -23c-5 -3 -9 -1 -13 6l-459 745c-4 6 -3 10 1 12l36 22c5 3 9 3 14 -5l456 -740c5 -9 5 -14 0 -17z" />
    <glyph glyph-name="bracketright" unicode="]" horiz-adv-x="360" 
d="M172 7v606c0 42 -2 72 -7 93c-29 14 -77 18 -107 21c-12 1 -17 3 -17 10s4 9 12 9h190c15 0 16 -1 16 -16v-839c0 -11 -2 -13 -16 -13h-191c-8 0 -12 2 -12 9c0 6 5 9 17 10c30 3 78 7 108 21c5 21 7 51 7 89z" />
    <glyph glyph-name="asciicircum" unicode="^" horiz-adv-x="549" 
d="M501 300h-68l-159 372l-159 -372h-68l192 448h70z" />
    <glyph glyph-name="underscore" unicode="_" horiz-adv-x="500" 
d="M0 -75h500v-50h-500v50z" />
    <glyph glyph-name="grave" unicode="`" horiz-adv-x="927" 
d="M537 837c0 -5 -7 -7 -11 -7c-15 0 -186 75 -203 83c-19 8 -33 19 -33 25c0 5 5 7 13 9c19 6 54 19 67 25c11 5 14 7 19 7s6 -8 16 -22c9 -12 65 -69 111 -102c10 -8 21 -11 21 -18z" />
    <glyph glyph-name="a" unicode="a" 
d="M389 211h-207c-5 0 -6 -1 -8 -6l-47 -114c-9 -21 -13 -42 -13 -52c0 -15 8 -24 35 -24h13c11 0 13 -4 13 -9c0 -7 -5 -9 -14 -9c-29 0 -70 3 -98 3c-9 0 -56 -3 -102 -3c-11 0 -16 2 -16 9c0 5 3 9 10 9c8 0 18 1 26 1c40 6 55 32 73 75l230 535c10 24 17 34 26 34
c13 0 17 -8 26 -27l224 -524c34 -77 59 -88 75 -91c13 -2 23 -3 33 -3c8 0 12 -3 12 -9c0 -7 -5 -9 -38 -9c-31 0 -95 0 -169 2c-16 1 -26 1 -26 7c0 5 2 8 11 9c6 1 12 9 8 19l-68 171c-2 5 -5 6 -9 6zM200 258h170c4 0 5 2 4 5l-83 216c-1 3 -2 8 -4 8c-3 0 -4 -5 -5 -8
l-85 -215c-2 -4 0 -6 3 -6z" />
    <glyph glyph-name="b" unicode="b" horiz-adv-x="640" 
d="M144 244v150c0 129 0 153 -1 180c-2 29 -10 38 -38 46c-7 2 -22 3 -35 3c-9 0 -15 3 -15 9s7 8 20 8c46 0 102 -2 119 -2c44 0 102 2 132 2c159 0 187 -82 187 -127c0 -66 -49 -117 -99 -149c72 -23 162 -84 162 -184c0 -91 -72 -185 -234 -185c-10 0 -40 1 -70 3
c-30 1 -61 2 -75 2c-10 0 -29 -1 -50 -1c-21 -1 -43 -2 -61 -2c-11 0 -17 3 -17 9c0 4 3 9 14 9c13 0 23 1 31 3c18 4 23 20 26 45c4 36 4 103 4 181zM258 585v-205c0 -7 3 -8 6 -9c8 -2 21 -3 41 -3c29 0 54 3 69 15c23 18 40 49 40 90c0 57 -34 128 -110 128
c-12 0 -29 0 -38 -2c-6 -1 -8 -5 -8 -14zM258 323v-193c0 -56 3 -73 31 -84c23 -9 43 -10 63 -10c47 0 108 26 108 120c0 39 -17 106 -83 151c-18 13 -42 22 -76 22h-38c-3 0 -5 -1 -5 -6z" />
    <glyph glyph-name="c" unicode="c" horiz-adv-x="705" 
d="M460 -14c-120 0 -222 25 -302 92c-87 73 -110 169 -110 251c0 58 19 158 103 233c64 56 148 90 279 90c55 0 88 -4 128 -9c33 -5 62 -11 88 -14c10 -1 13 -5 13 -10c0 -7 -2 -17 -4 -47c-2 -28 -2 -75 -3 -92c-1 -12 -4 -21 -12 -21c-7 0 -9 7 -9 18c-1 27 -12 57 -34 79
c-30 29 -89 50 -170 50c-77 0 -126 -14 -166 -48c-65 -56 -81 -138 -81 -221c0 -202 156 -298 274 -298c78 0 121 6 156 45c15 17 27 41 30 57c2 13 4 17 11 17c6 0 10 -8 10 -15c0 -10 -10 -84 -19 -113c-4 -15 -8 -19 -23 -25c-35 -14 -102 -19 -159 -19z" />
    <glyph glyph-name="d" unicode="d" horiz-adv-x="831" 
d="M144 244v150c0 129 0 153 -1 180c-2 29 -10 38 -38 46c-7 2 -22 3 -35 3c-9 0 -15 3 -15 9s7 8 20 8c46 0 102 -2 127 -2c27 0 90 2 143 2c110 0 258 0 354 -97c44 -44 83 -115 83 -216c0 -107 -46 -188 -96 -237c-40 -40 -133 -100 -295 -100c-32 0 -70 3 -105 5
c-35 3 -67 5 -89 5c-10 0 -29 -1 -50 -1c-21 -1 -43 -2 -61 -2c-11 0 -17 3 -17 9c0 4 3 9 14 9c13 0 23 1 31 3c18 4 23 20 26 45c4 36 4 103 4 181zM262 407v-107c0 -90 1 -155 2 -172c1 -21 3 -51 10 -60c11 -16 46 -34 115 -34c80 0 139 14 192 58c57 47 75 123 75 211
c0 108 -43 178 -82 212c-81 72 -177 81 -246 81c-18 0 -47 -2 -54 -6c-8 -3 -11 -7 -11 -17c-1 -29 -1 -99 -1 -166z" />
    <glyph glyph-name="e" unicode="e" horiz-adv-x="576" 
d="M144 244v150c0 129 0 153 -1 180c-2 29 -10 38 -38 46c-7 2 -22 3 -35 3c-9 0 -15 3 -15 9s7 8 20 8c46 0 102 -2 127 -2c28 0 223 -1 240 0c16 1 30 4 37 5c5 1 10 4 14 4c5 0 6 -4 6 -8c0 -6 -5 -16 -7 -55c-1 -9 -3 -46 -5 -56c-1 -4 -3 -14 -10 -14c-6 0 -7 4 -7 11
c0 6 -1 21 -6 31c-7 15 -14 27 -58 31c-15 2 -120 4 -138 4c-4 0 -6 -3 -6 -8v-210c0 -5 1 -9 6 -9c20 0 134 0 154 2c21 2 34 4 42 13c7 6 10 11 14 11s7 -4 7 -9s-2 -19 -7 -62c-2 -17 -4 -51 -4 -57c0 -7 -1 -19 -9 -19c-6 0 -8 3 -8 7c-1 9 -1 20 -3 31
c-5 17 -16 30 -49 33c-16 2 -116 4 -138 4c-4 0 -5 -4 -5 -9v-68c0 -29 -1 -101 0 -126c2 -58 29 -71 119 -71c23 0 60 1 83 11c22 10 32 28 38 63c2 9 4 13 10 13c7 0 8 -11 8 -20c0 -19 -7 -77 -12 -94c-6 -22 -14 -22 -47 -22c-66 0 -119 1 -162 3c-43 1 -76 2 -102 2
c-10 0 -29 -1 -50 -1c-21 -1 -43 -2 -61 -2c-11 0 -17 3 -17 9c0 4 3 9 14 9c13 0 23 1 31 3c18 4 23 20 26 45c4 36 4 103 4 181z" />
    <glyph glyph-name="f" unicode="f" horiz-adv-x="567" 
d="M262 311v-70c0 -82 1 -142 5 -178c3 -25 9 -41 35 -45c12 -2 31 -3 43 -3c11 0 15 -5 15 -9c0 -6 -6 -9 -19 -9c-56 0 -118 3 -141 3s-79 -3 -112 -3c-12 0 -18 2 -18 9c0 4 3 9 13 9c13 0 23 1 31 3c18 4 23 20 26 45c4 36 4 99 4 181v150c0 129 0 153 -1 180
c-2 29 -10 39 -38 46c-7 2 -22 3 -35 3c-8 0 -15 3 -15 9s7 8 21 8c45 0 101 -2 126 -2c34 0 229 -1 250 0c16 1 27 2 36 4c5 1 9 5 14 5c3 0 6 -4 6 -8c0 -6 -4 -16 -7 -38c-1 -9 -3 -59 -4 -69c-1 -7 -3 -17 -9 -17s-11 4 -11 14c0 7 1 20 -5 32s-23 25 -56 26l-146 3
c-5 0 -8 -2 -8 -12v-206c0 -5 1 -8 6 -8l123 1c15 0 27 0 40 1c16 1 29 4 37 15c5 5 7 9 12 9c3 0 5 -3 5 -8s-4 -28 -7 -55c-2 -17 -3 -56 -3 -62c0 -7 -1 -19 -10 -19c-5 0 -8 6 -8 12s-2 16 -6 26c-4 12 -15 29 -42 31c-22 2 -126 3 -141 3c-4 0 -6 -1 -6 -7z" />
    <glyph glyph-name="g" unicode="g" horiz-adv-x="783" 
d="M681 148v-94c0 -23 0 -24 -11 -30c-59 -29 -146 -38 -215 -38c-216 0 -407 98 -407 333c0 136 73 231 154 278c84 49 163 55 237 55c61 0 138 -10 156 -14c18 -3 49 -8 70 -9c10 -1 12 -4 12 -10c0 -10 -6 -33 -6 -140c0 -13 -5 -19 -12 -19c-6 0 -8 4 -9 11
c-2 19 -7 46 -30 70c-26 27 -92 65 -191 65c-48 0 -109 -1 -170 -50c-49 -40 -81 -103 -81 -207c0 -183 118 -316 306 -316c23 0 41 0 62 9c13 6 17 15 17 30v78c0 42 0 74 -1 100c-1 29 -10 38 -38 46c-7 2 -22 3 -34 3c-8 0 -14 4 -14 9c0 7 7 8 19 8c46 0 109 -2 135 -2
c28 0 74 2 103 2c12 0 18 -1 18 -8c0 -5 -5 -9 -11 -9c-7 0 -14 -1 -24 -3c-24 -4 -33 -16 -34 -46c-1 -26 -1 -60 -1 -102z" />
    <glyph glyph-name="h" unicode="h" horiz-adv-x="867" 
d="M268 363h332c2 0 5 1 5 6v18c0 129 -1 160 -2 187c-2 29 -10 38 -38 46c-7 2 -22 3 -34 3c-10 0 -15 3 -15 9s6 8 19 8c47 0 109 -2 132 -2c21 0 79 2 113 2c13 0 19 -2 19 -8s-6 -9 -16 -9c-7 0 -15 -1 -26 -3c-23 -4 -30 -16 -32 -46c-2 -27 -2 -51 -2 -180v-150
c0 -78 0 -145 4 -182c3 -24 8 -40 35 -44c12 -2 31 -3 45 -3c9 0 14 -5 14 -9c0 -6 -7 -9 -18 -9c-57 0 -115 3 -139 3c-20 0 -82 -3 -116 -3c-12 0 -19 3 -19 9c0 4 4 9 14 9c14 0 24 1 32 3c18 4 23 20 26 45c4 36 4 101 4 179v65c0 3 -3 5 -5 5h-332c-3 0 -6 -1 -6 -5
v-65c0 -78 1 -143 5 -180c3 -24 8 -40 34 -44c12 -2 32 -3 45 -3c10 0 14 -5 14 -9c0 -6 -7 -9 -18 -9c-57 0 -118 3 -143 3c-20 0 -78 -3 -113 -3c-11 0 -17 3 -17 9c0 4 3 9 14 9c13 0 23 1 31 3c18 4 23 20 26 45c4 36 4 103 4 181v150c0 129 0 153 -1 180
c-2 29 -10 38 -38 46c-7 2 -22 3 -35 3c-9 0 -15 3 -15 9s7 8 19 8c47 0 105 -2 129 -2c21 0 82 2 117 2c12 0 18 -2 18 -8s-5 -9 -16 -9c-7 0 -15 -1 -25 -3c-24 -4 -31 -16 -33 -46c-2 -27 -2 -58 -2 -187v-18c0 -5 3 -6 6 -6z" />
    <glyph glyph-name="i" unicode="i" horiz-adv-x="407" 
d="M144 244v150c0 129 0 153 -1 180c-2 29 -11 39 -30 45c-10 3 -21 4 -32 4c-9 0 -14 2 -14 10c0 5 7 7 21 7c33 0 93 -2 118 -2c22 0 79 2 113 2c11 0 18 -2 18 -7c0 -8 -5 -10 -14 -10s-16 -1 -26 -3c-24 -4 -31 -16 -33 -46c-2 -27 -2 -51 -2 -180v-150
c0 -82 0 -150 4 -186c3 -23 9 -36 35 -40c12 -2 32 -3 45 -3c10 0 14 -5 14 -9c0 -6 -7 -9 -17 -9c-58 0 -118 3 -142 3c-20 0 -80 -3 -115 -3c-11 0 -17 3 -17 9c0 4 3 9 14 9c13 0 23 1 31 3c18 4 23 16 26 41c4 35 4 103 4 185z" />
    <glyph glyph-name="j" unicode="j" horiz-adv-x="373" 
d="M144 150v244c0 129 0 153 -1 180c-2 29 -10 38 -38 46c-7 2 -22 3 -35 3c-9 0 -15 3 -15 9s7 8 20 8c46 0 110 -2 133 -2c21 0 77 2 112 2c12 0 18 -2 18 -8s-5 -9 -16 -9c-9 0 -15 -1 -25 -3c-24 -4 -31 -16 -33 -46c-2 -27 -2 -51 -2 -180v-158c0 -36 3 -77 3 -120
c0 -48 -3 -102 -21 -150c-19 -52 -73 -112 -158 -162c-11 -6 -25 -13 -44 -22c-6 -3 -14 -4 -18 -4s-7 4 -7 8s4 8 19 15c12 6 25 16 42 33c67 65 66 149 66 316z" />
    <glyph glyph-name="k" unicode="k" horiz-adv-x="685" 
d="M259 394v-38h4c30 32 158 158 184 187c25 28 44 48 44 63c0 9 -4 15 -12 17s-12 4 -12 9c0 6 5 8 14 8c19 0 67 -2 91 -2c27 0 76 2 103 2c9 0 15 -2 15 -8s-5 -9 -13 -9c-13 0 -35 -4 -51 -10c-28 -10 -56 -28 -93 -63c-28 -26 -159 -150 -186 -181
c31 -40 204 -220 238 -252c39 -35 73 -72 120 -91c26 -11 44 -11 54 -11c7 0 12 -4 12 -9c0 -6 -5 -9 -21 -9h-77c-26 0 -42 0 -61 2c-47 4 -76 22 -114 55s-207 229 -226 255l-9 12h-4v-77c0 -78 0 -145 2 -182c2 -24 10 -40 32 -44c12 -2 32 -3 43 -3c7 0 12 -5 12 -9
c0 -6 -7 -9 -17 -9c-49 0 -112 3 -134 3c-20 0 -76 -3 -111 -3c-11 0 -17 3 -17 9c0 4 3 9 14 9c13 0 23 1 31 3c18 4 23 20 26 45c4 36 4 103 4 181v150c0 129 0 153 -1 180c-2 29 -10 38 -38 46c-7 2 -22 3 -35 3c-9 0 -15 3 -15 9s7 8 20 8c46 0 102 -2 123 -2
s84 2 113 2c13 0 19 -2 19 -8s-5 -9 -12 -9c-9 0 -14 -1 -25 -3c-24 -4 -31 -16 -33 -46c-1 -27 -1 -51 -1 -180z" />
    <glyph glyph-name="l" unicode="l" horiz-adv-x="552" 
d="M262 394v-150c0 -109 0 -163 19 -179c15 -13 49 -18 117 -18c47 0 81 1 103 24c11 11 20 35 22 51c1 8 3 13 10 13c6 0 8 -9 8 -19s-6 -73 -13 -98c-6 -19 -10 -23 -56 -23c-63 0 -114 1 -158 3c-44 1 -81 2 -117 2c-10 0 -29 -1 -50 -1c-21 -1 -43 -2 -61 -2
c-11 0 -17 3 -17 9c0 4 3 9 14 9c13 0 23 1 31 3c18 4 23 20 26 45c4 36 4 103 4 181v150c0 129 0 153 -1 180c-2 29 -10 38 -38 46c-7 2 -18 3 -29 3c-10 0 -15 3 -15 9s6 8 19 8c41 0 97 -2 121 -2c21 0 93 2 127 2c13 0 19 -2 19 -8s-5 -9 -16 -9c-10 0 -24 -1 -34 -3
c-24 -4 -31 -16 -33 -46c-2 -27 -2 -51 -2 -180z" />
    <glyph glyph-name="m" unicode="m" horiz-adv-x="923" 
d="M90 82l87 555c2 14 10 22 17 22c9 0 15 -4 27 -27l236 -474l236 480c7 14 15 21 23 21c7 0 17 -9 20 -27l80 -525c8 -53 16 -76 43 -84c25 -7 39 -8 50 -8c8 0 14 -3 14 -8c0 -7 -10 -10 -23 -10c-22 0 -147 4 -182 6c-21 1 -26 5 -26 10c0 4 4 7 10 9c5 2 7 12 4 36
l-49 368h-3l-189 -380c-20 -40 -25 -48 -35 -48c-11 0 -21 17 -35 43c-21 39 -91 169 -101 193c-7 16 -59 123 -88 182h-3l-42 -332c-2 -15 -3 -26 -3 -40c0 -16 12 -22 27 -25s23 -4 31 -4s14 -4 14 -8c0 -8 -8 -10 -21 -10c-37 0 -77 3 -93 3c-17 0 -59 -3 -87 -3
c-9 0 -16 2 -16 10c0 4 5 8 14 8c7 0 13 0 27 2c24 3 32 37 36 65z" />
    <glyph glyph-name="n" unicode="n" horiz-adv-x="841" 
d="M189 460l10 -347c2 -66 13 -86 30 -92c15 -5 32 -6 46 -6c10 0 15 -4 15 -9c0 -7 -8 -9 -20 -9c-57 0 -98 3 -114 3c-8 0 -50 -3 -95 -3c-12 0 -20 1 -20 9c0 5 6 9 14 9c12 0 28 1 40 4c23 6 26 29 27 103l8 504c0 17 6 29 15 29c11 0 23 -13 38 -28l271 -271
c60 -59 177 -179 190 -191h4l-9 378c-1 52 -9 67 -30 75c-13 5 -34 5 -46 5c-11 0 -14 4 -14 9c0 7 9 8 22 8c46 0 93 -2 112 -2c10 0 43 2 86 2c12 0 20 -1 20 -8c0 -5 -5 -9 -15 -9c-9 0 -16 0 -27 -3c-24 -7 -31 -22 -32 -70l-10 -536c0 -19 -7 -27 -14 -27
c-15 0 -27 9 -36 18l-257 245c-96 92 -189 195 -206 210h-3z" />
    <glyph glyph-name="o" unicode="o" horiz-adv-x="827" 
d="M408 -14c-256 0 -360 182 -360 333c0 145 102 333 369 333c222 0 360 -123 360 -318s-142 -348 -369 -348zM444 32c62 0 202 29 202 271c0 188 -113 304 -255 304c-98 0 -213 -52 -213 -262c0 -175 100 -313 266 -313z" />
    <glyph glyph-name="p" unicode="p" horiz-adv-x="596" 
d="M144 244v150c0 129 0 153 -1 180c-2 29 -10 38 -38 46c-7 2 -22 3 -35 3c-9 0 -15 3 -15 9s7 8 20 8c46 0 102 -2 127 -2c36 0 106 2 146 2c110 0 150 -36 164 -48c19 -18 44 -56 44 -102c0 -120 -96 -206 -221 -206c-4 0 -22 0 -26 1c-5 0 -11 3 -11 9c0 7 10 11 29 11
c49 0 118 51 118 138c0 28 -3 84 -52 126c-32 28 -68 32 -88 32c-13 0 -30 -1 -38 -4c-5 -2 -7 -7 -7 -16v-337c0 -78 0 -145 4 -182c3 -24 8 -40 34 -44c13 -2 32 -3 45 -3c10 0 14 -5 14 -9c0 -6 -7 -9 -16 -9c-59 0 -121 3 -144 3c-20 0 -76 -3 -111 -3
c-11 0 -17 3 -17 9c0 4 3 9 14 9c13 0 23 1 31 3c18 4 23 20 26 45c4 36 4 103 4 181z" />
    <glyph glyph-name="q" unicode="q" horiz-adv-x="826" 
d="M683 -74l-137 81c-32 -12 -93 -21 -139 -21c-258 0 -359 184 -359 337c0 139 107 329 365 329c211 0 361 -123 361 -322c0 -150 -98 -243 -151 -279l173 -84c185 -90 300 -101 360 -101c46 0 111 4 172 27c5 2 9 4 13 4s8 -4 8 -8c0 -5 -5 -8 -11 -11
c-53 -25 -155 -67 -282 -67c-135 0 -228 29 -373 115zM443 32c71 0 199 29 199 275c0 203 -128 300 -249 300c-115 0 -214 -70 -214 -264c0 -202 122 -311 264 -311z" />
    <glyph glyph-name="r" unicode="r" horiz-adv-x="686" 
d="M144 244v150c0 129 0 153 -1 180c-2 29 -10 38 -38 46c-7 2 -22 3 -35 3c-9 0 -15 3 -15 9s7 8 20 8c46 0 102 -2 120 -2c30 0 110 2 137 2c56 0 120 -5 167 -36c25 -17 62 -60 62 -117c0 -63 -36 -119 -122 -188c78 -96 140 -173 193 -226c49 -49 80 -53 94 -56
c9 -2 14 -2 21 -2s11 -5 11 -9c0 -7 -6 -9 -17 -9h-84c-49 0 -73 5 -96 17c-38 19 -71 59 -120 125c-35 46 -72 103 -83 116c-5 5 -10 6 -16 6l-79 2c-4 0 -7 -2 -7 -7v-12c0 -79 1 -145 5 -181c3 -25 7 -41 34 -45c13 -2 32 -3 43 -3c7 0 11 -5 11 -9c0 -6 -7 -9 -18 -9
c-51 0 -124 3 -137 3c-17 0 -73 -3 -108 -3c-11 0 -17 3 -17 9c0 4 3 9 14 9c13 0 23 1 31 3c18 4 23 20 26 45c4 36 4 103 4 181zM256 581v-253c0 -9 2 -12 8 -15c19 -6 45 -8 67 -8c35 0 47 3 62 14c27 19 57 56 57 126c0 120 -82 151 -134 151c-22 0 -43 -1 -52 -3
c-6 -2 -8 -5 -8 -12z" />
    <glyph glyph-name="s" unicode="s" horiz-adv-x="540" 
d="M239 -14c-51 0 -105 5 -143 22c-14 6 -17 10 -17 29c0 46 4 99 5 113c0 13 4 22 11 22c8 0 9 -8 9 -14c0 -11 3 -29 8 -44c19 -63 85 -84 140 -84c76 0 122 48 122 108c0 37 -9 74 -87 120l-51 30c-104 61 -138 118 -138 193c0 104 100 171 222 171c57 0 102 -8 125 -14
c8 -2 12 -5 12 -11c0 -11 -3 -35 -3 -102c0 -18 -4 -27 -11 -27c-6 0 -9 5 -9 15c0 8 -4 34 -23 56c-13 16 -41 40 -98 40c-63 0 -120 -33 -120 -91c0 -38 14 -68 93 -112l36 -20c116 -64 152 -129 152 -206c0 -63 -24 -114 -88 -159c-42 -30 -100 -35 -147 -35z" />
    <glyph glyph-name="t" unicode="t" horiz-adv-x="633" 
d="M261 244v344l-131 -3c-51 -1 -72 -7 -85 -26c-9 -12 -13 -23 -15 -29c-2 -7 -4 -11 -10 -11s-8 5 -8 14c0 14 17 96 19 103c2 11 5 16 10 16c7 0 16 -7 38 -10c26 -3 59 -4 88 -4h357c28 0 47 2 60 4c14 2 21 4 24 4c6 0 7 -5 7 -18c0 -18 -2 -81 -2 -103
c-1 -9 -3 -14 -8 -14c-7 0 -9 4 -10 17l-1 9c-2 22 -25 48 -104 49l-111 2v-344c0 -78 1 -145 5 -182c3 -24 8 -40 34 -44c12 -2 32 -3 45 -3c10 0 14 -5 14 -9c0 -6 -7 -9 -17 -9c-58 0 -117 3 -142 3c-20 0 -80 -3 -115 -3c-11 0 -17 3 -17 9c0 4 3 9 14 9c13 0 24 1 31 3
c18 4 23 20 26 45c4 36 4 103 4 181z" />
    <glyph glyph-name="u" unicode="u" horiz-adv-x="760" 
d="M106 269v125c0 129 1 153 -1 180c-2 30 -10 38 -38 46c-7 2 -22 3 -34 3c-10 0 -15 3 -15 9s6 8 19 8c47 0 106 -2 132 -2c22 0 81 2 113 2c13 0 19 -2 19 -8s-5 -9 -14 -9c-10 0 -15 -1 -26 -3c-23 -4 -30 -16 -32 -46c-2 -27 -2 -51 -2 -180v-119
c0 -124 24 -172 67 -206c39 -31 81 -34 111 -34c38 0 83 11 118 45c49 46 51 120 51 207v107c0 129 -1 153 -2 180c-2 29 -9 38 -37 46c-7 2 -22 3 -32 3s-15 3 -15 9s6 8 18 8c45 0 104 -2 105 -2c10 0 69 2 103 2c12 0 18 -2 18 -8s-5 -9 -15 -9s-15 -1 -26 -3
c-24 -4 -30 -16 -32 -46c-1 -27 -2 -51 -2 -180v-91c0 -95 -10 -195 -84 -256c-62 -52 -129 -61 -186 -61c-46 0 -137 2 -201 58c-45 39 -80 102 -80 225z" />
    <glyph glyph-name="v" unicode="v" horiz-adv-x="637" 
d="M283 37l-222 520c-20 47 -33 55 -65 63c-13 3 -27 3 -34 3c-8 0 -10 4 -10 9c0 7 9 8 22 8c47 0 97 -2 128 -2c22 0 68 2 112 2c11 0 21 -2 21 -8s-6 -9 -14 -9c-14 0 -27 -1 -34 -6c-6 -4 -9 -9 -9 -17c0 -11 8 -34 20 -64l148 -381h3c38 88 151 362 172 418
c4 11 8 24 8 31c0 9 -4 12 -12 15c-10 3 -24 4 -35 4c-8 0 -15 3 -15 9s8 8 25 8c44 0 83 -2 94 -2c15 0 56 2 83 2c11 0 18 -2 18 -8s-5 -9 -14 -9s-28 1 -43 -10c-11 -8 -23 -21 -46 -75c-35 -80 -58 -126 -106 -230l-117 -260c-22 -49 -30 -62 -42 -62s-19 11 -36 51z
" />
    <glyph glyph-name="w" unicode="w" horiz-adv-x="955" 
d="M249 17l-186 540c-11 31 -18 51 -31 59c-9 6 -26 7 -34 7c-9 0 -14 3 -14 9s7 8 20 8c45 0 94 -2 102 -2s51 2 102 2c13 0 19 -2 19 -8s-7 -9 -16 -9c-7 0 -15 -1 -22 -4c-8 -3 -9 -8 -9 -17c0 -11 8 -39 19 -78c15 -56 95 -313 108 -352h3l168 434c9 24 18 31 26 31
c10 0 18 -13 29 -40l176 -419h3c17 49 84 273 115 372c6 20 9 37 9 49c0 14 -8 24 -43 24c-8 0 -15 4 -15 9c0 6 7 8 21 8c46 0 86 -2 94 -2c6 0 44 2 73 2c10 0 16 -2 16 -7c0 -6 -4 -10 -12 -10c-9 0 -21 -1 -31 -4c-21 -8 -31 -40 -49 -89c-41 -107 -131 -377 -174 -504
c-10 -30 -15 -40 -28 -40c-12 0 -18 10 -31 41l-179 419h-2c-15 -36 -133 -337 -169 -415c-16 -35 -21 -45 -34 -45c-11 0 -16 9 -24 31z" />
    <glyph glyph-name="x" unicode="x" horiz-adv-x="635" 
d="M516 553l-146 -199c28 -42 174 -273 196 -300c15 -19 29 -28 48 -34c12 -4 26 -5 34 -5c6 0 11 -4 11 -9c0 -6 -7 -9 -17 -9h-26c-21 0 -91 0 -163 2c-23 1 -31 3 -31 9c0 5 4 9 12 11c4 1 10 7 3 18l-139 228l-129 -200c-9 -14 -14 -27 -13 -36c1 -8 9 -13 17 -13
c5 0 12 -1 19 -1c5 0 11 -5 11 -10c0 -6 -6 -8 -18 -8h-16c-5 0 -63 3 -85 3c-17 0 -60 -3 -74 -3h-15c-9 0 -13 3 -13 8s5 10 12 10c6 0 19 1 32 4c26 7 40 21 70 62l172 232l-155 242c-22 34 -40 52 -71 62c-14 4 -28 6 -37 6c-5 0 -9 4 -9 10c0 5 7 7 18 7
c21 0 92 -2 134 -2c12 0 66 2 99 2c12 0 18 -2 18 -8s-6 -9 -14 -9c-5 0 -14 -1 -21 -3c-8 -2 -12 -7 -12 -12s4 -16 9 -25l110 -185c26 38 104 153 119 177c7 12 10 24 10 31c0 6 -6 12 -15 14c-9 3 -21 3 -28 3c-5 0 -11 3 -11 9s6 8 19 8c34 0 75 -2 92 -2s53 2 86 2
c10 0 16 -2 16 -8c0 -5 -5 -9 -14 -9s-20 -2 -32 -5c-20 -5 -36 -28 -63 -65z" />
    <glyph glyph-name="y" unicode="y" horiz-adv-x="590" 
d="M239 148v70c0 46 -8 64 -20 89c-6 13 -126 200 -157 245c-22 31 -40 51 -57 60c-11 6 -26 11 -37 11c-7 0 -13 3 -13 9s6 8 17 8c15 0 81 -2 110 -2c19 0 60 2 100 2c8 0 13 -2 13 -8c0 -7 -6 -7 -20 -11c-7 -2 -12 -6 -12 -13s4 -17 11 -29c16 -26 131 -225 146 -249
c11 20 118 202 131 228c9 19 13 34 13 45c0 8 -4 16 -19 19c-8 2 -16 3 -16 10c0 6 5 8 15 8c29 0 60 -2 86 -2c19 0 77 2 94 2c10 0 16 -2 16 -7c0 -6 -7 -10 -17 -10c-9 0 -25 -4 -38 -10c-19 -9 -27 -17 -46 -40c-29 -34 -155 -236 -171 -272c-13 -31 -11 -57 -11 -85
v-68c0 -14 0 -49 2 -85c2 -25 10 -41 36 -45c13 -2 32 -3 44 -3c10 0 15 -5 15 -9c0 -6 -7 -9 -19 -9c-55 0 -114 3 -138 3c-22 0 -81 -3 -114 -3c-12 0 -19 2 -19 9c0 4 4 9 14 9c12 0 23 1 31 3c18 4 25 20 27 45c3 36 3 71 3 85z" />
    <glyph glyph-name="z" unicode="z" horiz-adv-x="625" 
d="M201 51h211c90 0 121 18 136 44c7 13 13 27 16 39c2 9 4 14 10 14c7 0 9 -6 9 -26c0 -28 -11 -83 -17 -104c-5 -15 -11 -22 -27 -22c-147 0 -296 4 -474 4c-10 0 -15 3 -15 9c0 5 1 10 11 25l370 554h-166c-45 0 -97 0 -125 -15c-29 -16 -45 -45 -47 -65
c-2 -12 -6 -15 -11 -15c-6 0 -9 4 -9 14c0 20 13 97 18 123c1 12 5 16 10 16c8 0 13 -5 35 -6c84 -3 126 -2 162 -2h271c9 0 15 -3 15 -7c0 -7 -2 -10 -5 -16z" />
    <glyph glyph-name="braceleft" unicode="{" horiz-adv-x="360" 
d="M136 351v-1c27 -10 59 -38 70 -78c12 -43 10 -77 10 -150c0 -168 40 -216 75 -224c19 -5 24 -7 24 -13s-5 -7 -36 -7c-23 0 -70 16 -107 67c-26 36 -51 86 -51 228c0 31 8 84 8 107c0 12 -2 23 -7 30c-11 17 -32 21 -60 25c-11 2 -14 3 -14 10c0 8 3 10 14 11
c15 1 39 -1 57 15c10 8 12 27 12 49c0 37 -10 84 -10 109c0 101 26 141 64 176c31 28 73 41 109 41c14 0 20 -2 20 -7c0 -6 -6 -7 -18 -9c-24 -4 -80 -38 -80 -123c0 -90 3 -139 -8 -180c-9 -35 -45 -68 -72 -76z" />
    <glyph glyph-name="bar" unicode="|" horiz-adv-x="500" 
d="M281 -250h-61v1000h61v-1000z" />
    <glyph glyph-name="braceright" unicode="}" horiz-adv-x="360" 
d="M224 350c-27 9 -63 42 -72 77c-11 41 -8 90 -8 180c0 85 -56 119 -80 123c-12 2 -18 3 -18 9c0 5 6 7 20 7c36 0 78 -13 109 -41c38 -35 64 -75 64 -176c0 -25 -10 -72 -10 -109c0 -22 2 -41 12 -49c18 -16 42 -14 57 -15c11 -1 14 -3 14 -11c0 -7 -3 -8 -14 -10
c-28 -4 -49 -8 -60 -25c-5 -7 -7 -18 -7 -30c0 -23 8 -76 8 -107c0 -142 -25 -192 -51 -228c-37 -51 -84 -67 -107 -67c-31 0 -36 1 -36 7s5 8 24 13c35 8 75 56 75 224c0 73 -2 107 10 150c11 40 43 68 70 78z" />
    <glyph glyph-name="asciitilde" unicode="~" horiz-adv-x="549" 
d="M512 342c5 -111 -50 -146 -112 -146c-39 0 -74 12 -136 43c-45 22 -84 41 -116 41s-52 -26 -54 -83h-57c-3 101 48 145 116 145c41 0 72 -13 134 -43c47 -22 86 -40 118 -40s49 31 50 83h57z" />
    <glyph glyph-name="uni00A0" unicode="&#xa0;" horiz-adv-x="300" 
 />
    <glyph glyph-name="exclamdown" unicode="&#xa1;" horiz-adv-x="320" 
d="M162 466c11 0 13 -13 15 -36c4 -48 23 -257 25 -272c1 -15 12 -143 21 -180c3 -12 8 -20 8 -26c0 -7 -2 -11 -5 -16c-23 -29 -63 -52 -90 -63c-13 -6 -28 -10 -38 -10c-6 0 -9 6 -9 13c0 9 9 55 16 129c2 18 39 404 42 429c2 21 4 32 15 32zM169 647c39 0 55 -31 55 -56
c0 -24 -16 -57 -56 -57c-32 0 -56 21 -56 53c0 33 23 60 57 60z" />
    <glyph glyph-name="cent" unicode="&#xa2;" horiz-adv-x="600" 
d="M388 585l-45 -414c17 -3 30 -4 42 -4c61 0 106 13 125 86c3 12 7 16 13 16s8 -4 8 -12c0 -17 -8 -83 -13 -109c-2 -11 -5 -14 -14 -17c-44 -13 -97 -17 -123 -17c-21 0 -31 0 -45 1l-14 -134c-1 -7 -3 -10 -8 -11l-37 -5c-7 -1 -10 1 -9 6l18 150
c-131 23 -225 114 -225 259c0 96 49 160 78 184c55 47 117 68 206 68l11 100c1 6 2 9 10 10l32 4c8 1 12 -1 11 -6l-14 -108c27 0 83 -7 132 -26c7 -3 7 -5 7 -21c0 -23 -4 -77 -6 -103c-1 -8 -4 -11 -10 -11s-8 4 -9 11c-2 29 -10 48 -24 66c-14 17 -48 37 -97 37zM293 182
l45 403c-94 6 -168 -78 -168 -178c0 -133 78 -209 123 -225z" />
    <glyph glyph-name="sterling" unicode="&#xa3;" horiz-adv-x="600" 
d="M404 359h-146l-5 -45c-5 -45 -30 -164 -110 -230l2 -7l253 3c101 1 132 21 143 85c2 9 5 12 11 12s9 -3 9 -16c0 -15 -7 -100 -19 -146c-4 -17 -7 -20 -63 -20c-37 0 -69 1 -108 3c-38 1 -84 2 -149 2h-202c-20 0 -30 1 -30 12c0 10 10 15 30 20c77 18 99 104 113 220
l13 108h-71c-13 0 -17 -2 -22 -2c-4 0 -5 5 -3 12l10 29c2 6 7 7 15 7h77l8 53c14 93 38 187 109 246c62 53 114 62 173 62c36 0 69 -5 90 -12c10 -2 18 -4 27 -5c8 -1 10 -6 10 -21c0 -50 -5 -102 -8 -118c-1 -8 -3 -14 -10 -14s-10 5 -10 16c-1 18 -9 56 -24 74
c-19 24 -51 37 -92 37c-70 0 -124 -57 -142 -182l-19 -135h126c27 0 39 4 44 4c6 0 9 -5 7 -10l-12 -34c-2 -6 -7 -8 -25 -8z" />
    <glyph glyph-name="currency" unicode="&#xa4;" horiz-adv-x="600" 
d="M535 524l-80 -72c18 -27 34 -68 34 -117c0 -55 -16 -97 -35 -123l77 -74l-49 -49l-69 79c-30 -28 -77 -42 -117 -42c-41 0 -87 14 -114 39l-68 -76l-47 49l74 71c-20 27 -37 70 -37 120c0 54 18 95 38 123l-77 72l48 50l70 -77c29 25 71 40 115 40h1c46 0 87 -15 115 -39
l72 76zM410 334c0 69 -41 133 -113 133h-1c-69 0 -113 -60 -113 -136c0 -94 63 -135 113 -135c54 0 114 39 114 138z" />
    <glyph glyph-name="yen" unicode="&#xa5;" horiz-adv-x="600" 
d="M348 286v-121c0 -32 0 -72 1 -94c1 -31 13 -47 46 -52c14 -2 36 -3 50 -3c10 0 14 -3 14 -10s-5 -9 -14 -9c-66 0 -130 3 -149 3s-81 -3 -146 -3c-12 0 -15 2 -15 9s3 10 13 10c15 0 37 1 51 3c33 5 46 21 47 52c1 22 1 62 1 94v121h-162c-5 0 -7 3 -6 8l9 34
c1 4 5 6 11 6h142c-25 51 -150 263 -181 317c-21 37 -45 61 -63 71c-17 9 -35 12 -46 12c-7 0 -13 2 -13 9s5 10 17 10c19 0 91 -3 110 -3c25 0 61 3 107 3c8 0 14 -2 14 -10c0 -6 -7 -9 -19 -11c-13 -2 -17 -10 -17 -18c0 -6 4 -19 11 -34c14 -28 144 -265 159 -296
c28 50 128 243 142 274c9 21 13 39 13 54c0 7 -4 15 -25 20c-10 3 -16 4 -16 11c0 8 6 10 14 10c37 0 67 -3 89 -3c13 0 81 3 101 3c9 0 16 -2 16 -9s-6 -10 -15 -10c-14 0 -33 -2 -46 -9c-21 -9 -31 -23 -52 -50c-31 -41 -153 -266 -189 -341h161c7 0 9 -4 8 -10l-7 -30
c-1 -4 -6 -8 -13 -8h-153z" />
    <glyph glyph-name="brokenbar" unicode="&#xa6;" horiz-adv-x="500" 
d="M281 325h-61v350h61v-350zM281 -175h-61v350h61v-350z" />
    <glyph glyph-name="section" unicode="&#xa7;" horiz-adv-x="596" 
d="M177 476c-37 38 -56 73 -56 120c0 103 103 170 225 170c57 0 101 -8 124 -14c8 -2 12 -5 12 -11c0 -11 -3 -35 -3 -102c0 -18 -4 -27 -11 -27c-6 0 -9 5 -9 15c0 8 -4 34 -23 56c-13 16 -40 40 -97 40c-63 0 -125 -33 -125 -100c0 -40 19 -60 95 -109l36 -23
c112 -71 180 -134 180 -228c0 -57 -40 -130 -101 -169c34 -43 50 -78 50 -119c0 -57 -25 -112 -89 -155c-37 -25 -95 -35 -150 -35c-51 0 -104 5 -142 22c-14 6 -17 10 -17 29c0 46 4 99 5 113c0 13 4 22 11 22c8 0 9 -8 9 -14c0 -11 3 -29 8 -44c19 -63 85 -84 140 -84
c76 0 127 48 127 104c0 55 -18 80 -92 131l-51 35c-99 68 -161 116 -161 206c0 83 66 150 105 171zM216 443c-27 -17 -59 -43 -59 -98c0 -60 40 -82 125 -139l36 -24c26 -17 54 -35 71 -51c29 24 47 56 47 97c0 67 -52 92 -125 145l-51 37c-14 10 -29 21 -44 33z" />
    <glyph glyph-name="dieresis" unicode="&#xa8;" horiz-adv-x="927" 
d="M568 830c-32 0 -45 26 -45 47c0 20 14 47 46 47c26 0 47 -16 47 -44s-19 -50 -48 -50zM357 830c-32 0 -45 26 -45 47c0 19 14 46 46 46c26 0 47 -16 47 -43c0 -28 -19 -50 -48 -50z" />
    <glyph glyph-name="copyright" unicode="&#xa9;" horiz-adv-x="902" 
d="M452 -17c-228 0 -397 167 -397 391c0 218 175 393 397 393c226 0 395 -168 395 -393c0 -217 -175 -391 -395 -391zM119 375c0 -189 148 -345 333 -345c191 0 331 152 331 345c0 186 -145 345 -331 345c-192 0 -333 -149 -333 -345zM478 153c-151 0 -255 89 -255 231
c0 79 40 138 66 162c45 41 100 57 176 57c14 0 47 -2 82 -8c15 -2 58 -12 60 -12c4 0 8 1 11 1s1 -8 1 -19c0 -6 -2 -72 -5 -87c-1 -6 -3 -10 -8 -10c-6 0 -8 7 -9 15c-1 16 -7 33 -19 47c-10 11 -46 36 -112 36c-85 0 -144 -59 -144 -159c0 -137 93 -212 168 -212
c49 0 75 13 88 26s18 33 22 49c2 6 4 12 10 12s7 -6 7 -11c0 -8 -3 -40 -11 -78c-4 -22 -5 -24 -21 -28c-44 -12 -91 -12 -107 -12z" />
    <glyph glyph-name="ordfeminine" unicode="&#xaa;" horiz-adv-x="425" 
d="M254 515h-118c-3 0 -5 -2 -7 -6l-19 -51c-3 -9 -4 -19 -4 -23c0 -5 4 -13 17 -13h7c5 0 8 -2 8 -7c0 -4 -4 -7 -9 -7c-16 0 -37 2 -56 2c-15 0 -43 -2 -69 -2c-5 0 -9 3 -9 7s3 7 7 7s10 1 15 1c22 3 31 14 42 37l139 296c7 15 12 19 17 19c7 0 11 -6 15 -15
c12 -27 94 -218 129 -290c18 -37 30 -45 40 -46c7 -1 15 -2 21 -2c4 0 6 -2 6 -7s-5 -7 -23 -7s-54 0 -104 2c-9 0 -15 1 -15 5s2 8 7 8c3 0 5 5 3 9l-33 77c-2 4 -4 6 -7 6zM149 549h93c2 0 2 1 2 3l-40 99c-3 8 -5 13 -8 13c-4 0 -6 -5 -8 -10l-42 -102c-1 -2 0 -3 3 -3z
" />
    <glyph glyph-name="guillemotleft" unicode="&#xab;" horiz-adv-x="550" 
d="M478 127l-38 -43c-4 -4 -7 -7 -10 -7s-10 7 -32 33c-24 27 -121 133 -141 153c-13 13 -18 18 -18 24c0 3 5 10 19 22c21 18 181 165 193 174c9 7 14 11 19 11c6 0 12 -4 12 -8c0 -5 -3 -10 -6 -13c-16 -18 -127 -149 -148 -181c17 -23 94 -100 140 -143
c11 -10 14 -13 14 -15s-2 -5 -4 -7zM281 127l-38 -43c-4 -4 -7 -7 -10 -7s-10 7 -32 33c-24 27 -121 133 -141 153c-13 13 -18 18 -18 24c0 3 5 10 19 22c21 18 181 165 193 174c9 7 14 11 19 11c6 0 12 -4 12 -8c0 -5 -3 -10 -6 -13c-16 -18 -127 -149 -148 -181
c17 -23 94 -100 140 -143c11 -10 14 -13 14 -15s-2 -5 -4 -7z" />
    <glyph glyph-name="logicalnot" unicode="&#xac;" horiz-adv-x="549" 
d="M509 128h-64v189h-405v61h469v-250z" />
    <glyph glyph-name="uni00AD" unicode="&#xad;" horiz-adv-x="425" 
d="M75 315h284c18 0 32 -2 32 -14c0 -14 -17 -17 -45 -22c-40 -6 -223 -38 -258 -48c-20 -5 -36 -16 -44 -16s-10 8 -8 18l15 69c3 12 7 13 24 13z" />
    <glyph glyph-name="registered" unicode="&#xae;" horiz-adv-x="206" 
d="M103 591c-53 0 -92 38 -92 87c0 51 39 88 92 88s92 -37 92 -88c0 -49 -39 -87 -92 -87zM104 608c42 0 72 29 72 71c0 43 -30 70 -73 70s-73 -27 -73 -70c0 -42 30 -71 74 -71zM65 671v22v25c0 6 -4 7 -12 7c-1 0 -2 1 -2 3c0 3 2 4 5 4h4c2 0 10 -1 17 -1c9 0 13 1 23 1
c17 0 44 -3 44 -27c0 -10 -4 -18 -21 -30l18 -21c13 -15 15 -15 17 -15s3 -1 3 -3c0 -3 -1 -4 -9 -4c-13 0 -24 -1 -39 19l-14 19h-12v-9c0 -18 1 -20 2 -21c2 -1 7 -1 10 -1c2 0 3 0 3 -3s-2 -4 -4 -4h-4c-2 0 -11 1 -16 1c-3 0 -13 -1 -15 -1h-5c-2 0 -7 1 -7 4
c0 2 1 3 3 3c9 0 10 0 11 6c1 5 0 12 0 26zM87 719v-36c3 -2 10 -3 14 -3c3 0 6 0 9 2c5 3 9 9 9 17c0 12 -9 22 -23 22c-1 0 -7 0 -9 -2z" />
    <glyph glyph-name="macron" unicode="&#xaf;" horiz-adv-x="927" 
d="M578 857h-240c-7 0 -9 2 -8 7l8 36c2 7 4 9 11 9h240c7 0 10 -3 8 -10l-8 -36c-1 -4 -4 -6 -11 -6z" />
    <glyph glyph-name="degree" unicode="&#xb0;" horiz-adv-x="363" 
d="M311 579c0 -77 -63 -130 -131 -130c-76 0 -128 58 -128 125c0 73 57 130 130 130h1c79 0 128 -59 128 -125zM255 577c0 36 -22 79 -74 79h-1c-47 0 -72 -42 -72 -81c0 -43 31 -77 73 -77c43 0 74 34 74 79z" />
    <glyph glyph-name="plusminus" unicode="&#xb1;" horiz-adv-x="549" 
d="M509 317h-203v-203h-64v203h-202v61h202v204h64v-204h203v-61zM509 0h-469v61h469v-61z" />
    <glyph glyph-name="twosuperior" unicode="&#xb2;" horiz-adv-x="444" 
d="M309 305h-258c-7 0 -11 3 -11 8c0 6 8 12 12 16c143 118 221 201 221 303c0 76 -55 101 -91 101c-29 0 -50 -9 -69 -28c-12 -12 -20 -29 -21 -51c0 -8 -4 -11 -9 -11c-4 0 -6 5 -7 16c-1 0 -4 52 -4 69c0 9 1 11 7 14c29 14 68 25 120 25c114 0 165 -58 165 -118
c0 -107 -86 -179 -218 -286c-2 -2 -2 -5 1 -5h29c11 0 104 3 115 4c47 4 64 19 74 51c3 8 5 10 10 10s6 -4 6 -9c0 -11 -12 -60 -23 -92c-7 -13 -21 -17 -49 -17z" />
    <glyph glyph-name="threesuperior" unicode="&#xb3;" horiz-adv-x="423" 
d="M151 301c-35 0 -74 5 -88 13c-11 6 -11 9 -11 32c0 17 1 51 3 64c1 8 3 11 6 11c5 0 7 -2 8 -10c5 -40 28 -74 102 -74c51 0 102 29 104 95c3 76 -69 107 -110 112c-18 2 -22 5 -22 10c0 7 5 10 20 12c16 2 89 34 89 97c0 24 -18 72 -81 72c-46 0 -85 -28 -85 -64
c0 -9 -1 -13 -6 -13s-7 3 -8 11c-3 18 -6 45 -6 64c0 5 0 11 14 16c21 7 61 18 113 18c119 0 143 -56 143 -85c0 -59 -66 -98 -96 -109v-2c40 -6 122 -41 122 -115c0 -83 -84 -155 -211 -155z" />
    <glyph glyph-name="acute" unicode="&#xb4;" horiz-adv-x="927" 
d="M600 972c8 -14 17 -33 29 -60c6 -12 0 -15 -5 -15s-14 2 -34 0c-55 -7 -134 -39 -171 -59c-8 -4 -15 -8 -17 -8s-6 2 -6 6s4 8 9 13c40 38 145 116 161 126c10 7 17 9 20 9c7 0 9 -3 14 -12z" />
    <glyph glyph-name="mu" unicode="&#xb5;" horiz-adv-x="576" 
d="M70 150v300h95v-200c0 -125 35 -190 125 -190c60 0 100 30 100 140v250h95v-349c0 -40 13 -56 32 -56c18 0 28 13 34 23l15 -7c-8 -46 -41 -76 -81 -76c-35 0 -75 20 -80 115c-15 -70 -65 -115 -135 -115s-105 15 -135 75c5 -110 25 -205 45 -255l-110 -55l-15 5
c10 145 15 245 15 395z" />
    <glyph glyph-name="mu" unicode="&#x3bc;" horiz-adv-x="576" 
d="M70 150v300h95v-200c0 -125 35 -190 125 -190c60 0 100 30 100 140v250h95v-349c0 -40 13 -56 32 -56c18 0 28 13 34 23l15 -7c-8 -46 -41 -76 -81 -76c-35 0 -75 20 -80 115c-15 -70 -65 -115 -135 -115s-105 15 -135 75c5 -110 25 -205 45 -255l-110 -55l-15 5
c10 145 15 245 15 395z" />
    <glyph glyph-name="paragraph" unicode="&#xb6;" horiz-adv-x="712" 
d="M384 675c0 26 -2 40 -20 40c-26 0 -62 -15 -86 -53c-29 -45 -35 -112 -35 -145c0 -92 26 -164 66 -190c17 -11 24 -9 24 -20c0 -5 -7 -9 -12 -10s-16 -2 -21 -2c-142 0 -250 88 -250 222c0 70 34 128 69 161c41 39 110 75 231 75c19 0 117 -3 139 -3c10 0 105 3 150 3
c11 0 16 -3 16 -9c0 -4 -4 -8 -8 -8c-9 0 -20 -1 -28 -3c-26 -7 -34 -20 -36 -54c-2 -32 -2 -60 -2 -216v-393c0 -96 -1 -154 2 -196c0 -5 -3 -10 -7 -14c-13 -12 -46 -25 -59 -25c-5 0 -6 2 -6 5c0 5 4 17 5 38c2 22 5 96 5 192v606c0 21 -6 39 -35 39
c-23 0 -39 -10 -41 -37c-2 -39 -1 -59 -1 -215v-389c0 -96 -1 -196 3 -238c1 -5 -2 -9 -6 -13c-13 -12 -46 -25 -61 -25c-4 0 -8 1 -8 6c0 2 3 10 6 38c4 41 6 136 6 232v601z" />
    <glyph glyph-name="periodcentered" unicode="&#xb7;" horiz-adv-x="250" 
d="M124 207c-42 0 -60 33 -60 61c0 25 18 61 61 61c34 0 61 -23 61 -58s-24 -64 -62 -64z" />
    <glyph glyph-name="cedilla" unicode="&#xb8;" horiz-adv-x="927" 
d="M480 0h57l-93 -69c73 -7 118 -35 118 -80c0 -40 -41 -107 -184 -107c-9 0 -17 3 -17 10c0 9 12 13 26 13c33 0 84 25 84 67c0 27 -12 63 -79 73c-14 2 -22 5 -22 8s3 5 16 15z" />
    <glyph glyph-name="onesuperior" unicode="&#xb9;" horiz-adv-x="340" 
d="M136 485v110c0 32 0 52 -1 64s-4 18 -12 18c-14 0 -67 -25 -83 -32c-4 -2 -7 -3 -11 -3c-2 0 -6 4 -6 9c0 3 3 7 5 8c4 3 143 87 157 96c12 7 20 12 27 12s8 -6 8 -13c0 -13 -3 -61 -3 -159v-110c0 -50 0 -101 3 -127c2 -17 6 -27 29 -32c12 -3 39 -5 46 -5
c8 0 15 -2 15 -8c0 -7 -6 -10 -18 -10c-54 0 -94 2 -121 2c-23 0 -72 -2 -121 -2c-11 0 -18 2 -18 9c0 6 6 9 14 9s43 2 57 5c24 5 28 15 30 32c3 26 3 77 3 127z" />
    <glyph glyph-name="ordmasculine" unicode="&#xba;" horiz-adv-x="472" 
d="M233 405c-144 0 -203 97 -203 181c0 80 57 181 208 181c126 0 204 -66 204 -173c0 -106 -80 -189 -209 -189zM352 579c0 93 -55 157 -129 157c-47 0 -103 -30 -103 -139c0 -84 57 -161 129 -161c34 0 103 17 103 143z" />
    <glyph glyph-name="guillemotright" unicode="&#xbb;" horiz-adv-x="550" 
d="M72 444l38 43c4 4 7 7 10 7s10 -7 32 -33c24 -27 121 -133 141 -153c13 -13 18 -18 18 -24c0 -3 -5 -10 -19 -22c-21 -18 -181 -165 -193 -174c-9 -7 -14 -11 -19 -11c-6 0 -12 4 -12 8c0 5 3 10 6 13c16 18 127 149 148 181c-17 23 -94 100 -140 143
c-11 10 -14 13 -14 15s2 5 4 7zM269 444l38 43c4 4 7 7 10 7s10 -7 32 -33c24 -27 121 -133 141 -153c13 -13 18 -18 18 -24c0 -3 -5 -10 -19 -22c-21 -18 -181 -165 -193 -174c-9 -7 -14 -11 -19 -11c-6 0 -12 4 -12 8c0 5 3 10 6 13c16 18 127 149 148 181
c-17 23 -94 100 -140 143c-11 10 -14 13 -14 15s2 5 4 7z" />
    <glyph glyph-name="onequarter" unicode="&#xbc;" horiz-adv-x="841" 
d="M802 170c0 -3 -8 -29 -11 -40c-2 -6 -6 -8 -13 -8h-69c0 -7 -1 -49 1 -76c2 -18 7 -26 28 -28c9 -1 22 -3 29 -3c3 0 6 -5 6 -8s-3 -9 -10 -9c-36 0 -102 2 -107 2c-4 0 -43 -2 -79 -2c-7 0 -8 6 -8 9c0 5 4 8 8 8c5 0 19 2 29 3c22 2 28 10 29 28c1 27 1 69 1 76h-227
c-8 0 -14 6 -14 11c0 7 7 14 10 17c18 21 252 275 276 301c6 7 13 11 18 11c6 0 10 -4 10 -10v-282h54c18 0 30 7 33 7s6 -4 6 -7zM636 170v177h-4l-162 -177h166zM714 744c3 -2 3 -6 -1 -12l-539 -742c-5 -6 -8 -8 -12 -5l-29 21c-4 3 -4 9 2 17l536 737c5 7 8 7 13 4z
M310 313c0 -7 -6 -10 -18 -10c-54 0 -94 2 -121 2c-23 0 -72 -2 -121 -2c-11 0 -18 2 -18 9c0 6 6 9 14 9s43 2 57 5c24 5 28 15 30 32c3 26 3 77 3 127v110c0 32 0 52 -1 64s-4 18 -12 18c-14 0 -67 -25 -83 -32c-4 -2 -7 -3 -11 -3c-2 0 -6 4 -6 9c0 3 3 7 5 8
c4 3 143 87 157 96c12 7 20 12 27 12s8 -6 8 -13c0 -13 -3 -61 -3 -159v-110c0 -50 0 -101 3 -127c2 -17 6 -27 29 -32c12 -3 39 -5 46 -5c8 0 15 -2 15 -8z" />
    <glyph glyph-name="onehalf" unicode="&#xbd;" horiz-adv-x="924" 
d="M861 109c0 -11 -12 -60 -23 -92c-7 -13 -21 -17 -49 -17h-258c-7 0 -11 3 -11 8c0 6 8 12 12 16c143 118 221 201 221 303c0 76 -55 101 -91 101c-29 0 -50 -9 -69 -28c-12 -12 -20 -29 -21 -51c0 -8 -4 -11 -9 -11c-4 0 -6 5 -7 16c-1 0 -4 52 -4 69c0 9 1 11 7 14
c29 14 68 25 120 25c114 0 165 -58 165 -118c0 -107 -86 -179 -218 -286c-2 -2 -2 -5 1 -5h29c11 0 104 3 115 4c47 4 64 19 74 51c3 8 5 10 10 10s6 -4 6 -9zM714 744c3 -2 3 -6 -1 -12l-539 -742c-5 -6 -8 -8 -12 -5l-29 21c-4 3 -4 9 2 17l536 737c5 7 8 7 13 4zM310 313
c0 -7 -6 -10 -18 -10c-54 0 -94 2 -121 2c-23 0 -72 -2 -121 -2c-11 0 -18 2 -18 9c0 6 6 9 14 9s43 2 57 5c24 5 28 15 30 32c3 26 3 77 3 127v110c0 32 0 52 -1 64s-4 18 -12 18c-14 0 -67 -25 -83 -32c-4 -2 -7 -3 -11 -3c-2 0 -6 4 -6 9c0 3 3 7 5 8c4 3 143 87 157 96
c12 7 20 12 27 12s8 -6 8 -13c0 -13 -3 -61 -3 -159v-110c0 -50 0 -101 3 -127c2 -17 6 -27 29 -32c12 -3 39 -5 46 -5c8 0 15 -2 15 -8z" />
    <glyph glyph-name="threequarters" unicode="&#xbe;" horiz-adv-x="882" 
d="M842 170c0 -3 -8 -29 -11 -40c-2 -6 -6 -8 -13 -8h-69c0 -7 -1 -49 1 -76c2 -18 7 -26 28 -28c9 -1 22 -3 29 -3c3 0 6 -5 6 -8s-3 -9 -10 -9c-36 0 -102 2 -107 2c-4 0 -43 -2 -79 -2c-7 0 -8 6 -8 9c0 5 4 8 8 8c5 0 19 2 29 3c22 2 28 10 29 28c1 27 1 69 1 76h-227
c-8 0 -14 6 -14 11c0 7 7 14 10 17c18 21 252 275 276 301c6 7 13 11 18 11c6 0 10 -4 10 -10v-282h54c18 0 30 7 33 7s6 -4 6 -7zM676 170v177h-4l-162 -177h166zM754 744c3 -2 3 -6 -1 -12l-539 -742c-5 -6 -8 -8 -12 -5l-29 21c-4 3 -4 9 2 17l536 737c5 7 8 7 13 4z
M362 456c0 -83 -84 -155 -211 -155c-35 0 -74 5 -88 13c-11 6 -11 9 -11 32c0 17 1 51 3 64c1 8 3 11 6 11c5 0 7 -2 8 -10c5 -40 28 -74 102 -74c51 0 102 29 104 95c3 76 -69 107 -110 112c-18 2 -22 5 -22 10c0 7 5 10 20 12c16 2 89 34 89 97c0 24 -18 72 -81 72
c-46 0 -85 -28 -85 -64c0 -9 -1 -13 -6 -13s-7 3 -8 11c-3 18 -6 45 -6 64c0 5 0 11 14 16c21 7 61 18 113 18c119 0 143 -56 143 -85c0 -59 -66 -98 -96 -109v-2c40 -6 122 -41 122 -115z" />
    <glyph glyph-name="questiondown" unicode="&#xbf;" horiz-adv-x="532" 
d="M282 -137c-165 0 -212 89 -212 150c0 126 92 194 170 285c34 40 51 71 51 88c0 16 -5 36 -16 51c-6 9 -8 14 -8 18c0 3 3 8 9 8c8 0 28 -13 51 -31c36 -29 45 -45 45 -63c0 -14 -5 -31 -20 -51c-23 -29 -47 -54 -66 -80c-67 -91 -88 -139 -88 -205
c0 -58 28 -126 119 -126c46 0 79 19 95 39c22 29 33 59 35 83c1 11 3 20 9 20c7 0 8 -5 10 -13c3 -14 4 -78 4 -117c0 -6 -1 -10 -11 -16c-30 -18 -89 -40 -177 -40zM296 647c39 0 55 -31 55 -56c0 -24 -16 -57 -56 -57c-32 0 -56 21 -56 53c0 33 23 60 57 60z" />
    <glyph glyph-name="Agrave" unicode="&#xc0;" horiz-adv-x="700" 
d="M427 258h-223c-5 0 -7 -2 -9 -8l-54 -143c-10 -25 -15 -49 -15 -61c0 -18 9 -31 40 -31h15c12 0 15 -2 15 -8c0 -8 -6 -10 -17 -10c-32 0 -75 3 -106 3c-11 0 -66 -3 -118 -3c-13 0 -19 2 -19 10c0 6 4 8 12 8c9 0 23 1 31 2c46 6 65 40 85 90l251 628c12 29 18 40 28 40
c9 0 15 -9 25 -32c24 -55 184 -463 248 -615c38 -90 67 -104 88 -109c15 -3 30 -4 42 -4c8 0 13 -1 13 -8c0 -8 -9 -10 -46 -10c-36 0 -109 0 -189 2c-18 1 -30 1 -30 8c0 6 4 8 14 9c7 2 14 11 9 23l-80 212c-2 5 -5 7 -10 7zM224 308h184c5 0 6 3 5 6l-90 247
c-1 4 -2 9 -5 9s-5 -5 -6 -9l-92 -246c-1 -4 0 -7 4 -7zM424 837c0 -5 -7 -7 -11 -7c-15 0 -186 75 -203 83c-19 8 -33 19 -33 25c0 5 5 7 13 9c19 6 54 19 67 25c11 5 14 7 19 7s6 -8 16 -22c9 -12 65 -69 111 -102c10 -8 21 -11 21 -18z" />
    <glyph glyph-name="Aacute" unicode="&#xc1;" horiz-adv-x="700" 
d="M427 258h-223c-5 0 -7 -2 -9 -8l-54 -143c-10 -25 -15 -49 -15 -61c0 -18 9 -31 40 -31h15c12 0 15 -2 15 -8c0 -8 -6 -10 -17 -10c-32 0 -75 3 -106 3c-11 0 -66 -3 -118 -3c-13 0 -19 2 -19 10c0 6 4 8 12 8c9 0 23 1 31 2c46 6 65 40 85 90l251 628c12 29 18 40 28 40
c9 0 15 -9 25 -32c24 -55 184 -463 248 -615c38 -90 67 -104 88 -109c15 -3 30 -4 42 -4c8 0 13 -1 13 -8c0 -8 -9 -10 -46 -10c-36 0 -109 0 -189 2c-18 1 -30 1 -30 8c0 6 4 8 14 9c7 2 14 11 9 23l-80 212c-2 5 -5 7 -10 7zM224 308h184c5 0 6 3 5 6l-90 247
c-1 4 -2 9 -5 9s-5 -5 -6 -9l-92 -246c-1 -4 0 -7 4 -7zM487 972c8 -14 17 -33 29 -60c6 -12 0 -15 -5 -15s-14 2 -34 0c-55 -7 -134 -39 -171 -59c-8 -4 -15 -8 -17 -8s-6 2 -6 6s4 8 9 13c40 38 145 116 161 126c10 7 17 9 20 9c7 0 9 -3 14 -12z" />
    <glyph glyph-name="Acircumflex" unicode="&#xc2;" horiz-adv-x="700" 
d="M427 258h-223c-5 0 -7 -2 -9 -8l-54 -143c-10 -25 -15 -49 -15 -61c0 -18 9 -31 40 -31h15c12 0 15 -2 15 -8c0 -8 -6 -10 -17 -10c-32 0 -75 3 -106 3c-11 0 -66 -3 -118 -3c-13 0 -19 2 -19 10c0 6 4 8 12 8c9 0 23 1 31 2c46 6 65 40 85 90l251 628c12 29 18 40 28 40
c9 0 15 -9 25 -32c24 -55 184 -463 248 -615c38 -90 67 -104 88 -109c15 -3 30 -4 42 -4c8 0 13 -1 13 -8c0 -8 -9 -10 -46 -10c-36 0 -109 0 -189 2c-18 1 -30 1 -30 8c0 6 4 8 14 9c7 2 14 11 9 23l-80 212c-2 5 -5 7 -10 7zM224 308h184c5 0 6 3 5 6l-90 247
c-1 4 -2 9 -5 9s-5 -5 -6 -9l-92 -246c-1 -4 0 -7 4 -7zM356 981c3 0 7 -3 18 -11c8 -7 104 -79 119 -90c11 -8 14 -11 14 -14s-2 -7 -5 -10l-29 -29c-4 -4 -8 -7 -13 -7c-4 0 -7 3 -15 11c-18 19 -78 67 -88 74c-5 4 -9 6 -13 6s-9 -2 -15 -5c-28 -16 -76 -48 -106 -74
c-10 -9 -15 -12 -20 -12s-9 4 -9 10c0 4 4 9 9 15c11 12 118 112 132 124c10 9 15 12 21 12z" />
    <glyph glyph-name="Atilde" unicode="&#xc3;" horiz-adv-x="700" 
d="M427 258h-223c-5 0 -7 -2 -9 -8l-54 -143c-10 -25 -15 -49 -15 -61c0 -18 9 -31 40 -31h15c12 0 15 -2 15 -8c0 -8 -6 -10 -17 -10c-32 0 -75 3 -106 3c-11 0 -66 -3 -118 -3c-13 0 -19 2 -19 10c0 6 4 8 12 8c9 0 23 1 31 2c46 6 65 40 85 90l251 628c12 29 18 40 28 40
c9 0 15 -9 25 -32c24 -55 184 -463 248 -615c38 -90 67 -104 88 -109c15 -3 30 -4 42 -4c8 0 13 -1 13 -8c0 -8 -9 -10 -46 -10c-36 0 -109 0 -189 2c-18 1 -30 1 -30 8c0 6 4 8 14 9c7 2 14 11 9 23l-80 212c-2 5 -5 7 -10 7zM224 308h184c5 0 6 3 5 6l-90 247
c-1 4 -2 9 -5 9s-5 -5 -6 -9l-92 -246c-1 -4 0 -7 4 -7zM421 830c-42 0 -69 17 -90 28c-18 10 -37 22 -64 22c-39 0 -60 -27 -68 -36c-9 -9 -12 -10 -16 -10s-7 3 -7 7c0 5 5 15 8 19c15 24 56 77 104 77c35 0 57 -15 80 -28c25 -14 48 -22 72 -22c36 0 57 25 61 30
c6 8 11 13 16 13c4 0 8 -3 8 -8s-3 -11 -6 -17c-9 -17 -51 -75 -98 -75z" />
    <glyph glyph-name="Adieresis" unicode="&#xc4;" horiz-adv-x="700" 
d="M427 258h-223c-5 0 -7 -2 -9 -8l-54 -143c-10 -25 -15 -49 -15 -61c0 -18 9 -31 40 -31h15c12 0 15 -2 15 -8c0 -8 -6 -10 -17 -10c-32 0 -75 3 -106 3c-11 0 -66 -3 -118 -3c-13 0 -19 2 -19 10c0 6 4 8 12 8c9 0 23 1 31 2c46 6 65 40 85 90l251 628c12 29 18 40 28 40
c9 0 15 -9 25 -32c24 -55 184 -463 248 -615c38 -90 67 -104 88 -109c15 -3 30 -4 42 -4c8 0 13 -1 13 -8c0 -8 -9 -10 -46 -10c-36 0 -109 0 -189 2c-18 1 -30 1 -30 8c0 6 4 8 14 9c7 2 14 11 9 23l-80 212c-2 5 -5 7 -10 7zM224 308h184c5 0 6 3 5 6l-90 247
c-1 4 -2 9 -5 9s-5 -5 -6 -9l-92 -246c-1 -4 0 -7 4 -7zM455 830c-32 0 -45 26 -45 47c0 20 14 47 46 47c26 0 47 -16 47 -44s-19 -50 -48 -50zM244 830c-32 0 -45 26 -45 47c0 19 14 46 46 46c26 0 47 -16 47 -43c0 -28 -19 -50 -48 -50z" />
    <glyph glyph-name="Aring" unicode="&#xc5;" horiz-adv-x="700" 
d="M427 258h-223c-5 0 -7 -2 -9 -8l-54 -143c-10 -25 -15 -49 -15 -61c0 -18 9 -31 40 -31h15c12 0 15 -2 15 -8c0 -8 -6 -10 -17 -10c-32 0 -75 3 -106 3c-11 0 -66 -3 -118 -3c-13 0 -19 2 -19 10c0 6 4 8 12 8c9 0 23 1 31 2c46 6 65 40 85 90l251 628c12 29 18 40 28 40
c9 0 15 -9 25 -32c24 -55 184 -463 248 -615c38 -90 67 -104 88 -109c15 -3 30 -4 42 -4c8 0 13 -1 13 -8c0 -8 -9 -10 -46 -10c-36 0 -109 0 -189 2c-18 1 -30 1 -30 8c0 6 4 8 14 9c7 2 14 11 9 23l-80 212c-2 5 -5 7 -10 7zM224 308h184c5 0 6 3 5 6l-90 247
c-1 4 -2 9 -5 9s-5 -5 -6 -9l-92 -246c-1 -4 0 -7 4 -7zM324 820c-55 0 -89 26 -89 60c0 46 59 88 137 88c58 0 95 -24 95 -58c1 -56 -78 -90 -143 -90zM296 894c0 -30 26 -49 50 -49c33 0 60 24 60 52c0 24 -17 46 -53 46c-23 0 -57 -15 -57 -49z" />
    <glyph glyph-name="AE" unicode="&#xc6;" horiz-adv-x="927" 
d="M466 287v48c0 6 -3 8 -9 8h-161c-8 0 -13 -1 -17 -7c-11 -16 -91 -158 -108 -186c-34 -57 -44 -84 -44 -98s8 -24 17 -28c13 -6 33 -9 51 -9c10 0 15 -2 15 -8c0 -7 -8 -10 -19 -10c-64 0 -123 3 -143 3c-18 0 -75 -3 -127 -3c-11 0 -14 3 -14 10c0 6 4 8 14 8
c9 0 28 2 43 9c58 25 85 78 106 104c32 41 353 545 367 567c15 24 20 37 22 44c2 8 6 14 13 14c4 0 9 -1 17 -1c9 -1 20 -2 36 -2c32 0 231 0 250 1c19 2 35 4 43 6c5 1 11 4 16 4s6 -4 6 -9c0 -7 -5 -19 -8 -65c-1 -10 -3 -54 -5 -66c-1 -5 -3 -11 -10 -11s-9 5 -9 14
c0 7 -1 24 -6 36c-7 18 -17 30 -67 36c-17 2 -122 4 -142 4c-5 0 -7 -3 -7 -10v-285c0 -7 1 -11 7 -11c22 0 137 0 160 2c24 2 39 5 48 15c7 8 11 13 16 13c4 0 7 -2 7 -9c0 -6 -4 -22 -8 -73c-1 -20 -4 -60 -4 -67c0 -8 0 -19 -9 -19c-7 0 -9 4 -9 9c-1 10 -1 23 -4 36
c-5 20 -19 35 -56 39c-19 2 -118 4 -142 4c-5 0 -6 -4 -6 -10v-47c0 -34 -1 -150 -1 -155c2 -69 18 -84 120 -84c26 0 68 0 94 12s38 33 45 74c2 11 4 15 11 15c8 0 8 -8 8 -18c0 -23 -8 -91 -13 -111c-7 -26 -16 -26 -54 -26c-75 0 -130 2 -173 3c-43 2 -74 3 -104 3
c-12 0 -32 -1 -53 -1c-22 -1 -44 -2 -63 -2c-14 0 -19 2 -19 9c0 6 2 9 13 9c14 0 26 2 35 4c20 4 25 26 29 55c5 42 5 121 5 213zM466 398v242h-5c-22 -38 -134 -221 -143 -240c-4 -8 -2 -10 5 -10h134c7 0 9 3 9 8z" />
    <glyph glyph-name="Ccedilla" unicode="&#xc7;" horiz-adv-x="800" 
d="M469 -15l-72 -54c73 -7 118 -35 118 -80c0 -40 -41 -107 -184 -107c-9 0 -17 3 -17 10c0 9 12 13 26 13c33 0 84 25 84 67c0 27 -12 63 -79 73c-14 2 -22 5 -22 8s3 5 16 15l80 60c-186 25 -364 142 -364 397c0 68 21 186 117 274c72 66 167 106 316 106
c62 0 99 -4 145 -10c38 -5 70 -14 100 -17c11 -1 15 -6 15 -12c0 -8 -3 -20 -5 -55c-2 -33 -1 -88 -3 -108c-1 -15 -3 -23 -12 -23c-8 0 -10 8 -10 22c-1 31 -14 66 -39 92c-33 35 -111 62 -203 62c-87 0 -144 -22 -188 -62c-73 -67 -92 -162 -92 -259
c0 -238 181 -356 315 -356c89 0 143 10 183 56c17 19 30 48 34 66c3 16 5 20 13 20c7 0 9 -7 9 -15c0 -12 -12 -99 -22 -133c-5 -17 -9 -22 -26 -29c-40 -16 -116 -23 -180 -23c-19 0 -37 1 -53 2z" />
    <glyph glyph-name="Egrave" unicode="&#xc8;" 
d="M164 287v176c0 152 0 180 -2 212c-2 34 -10 50 -43 57c-8 2 -25 3 -39 3c-11 0 -17 2 -17 9s7 9 22 9c27 0 56 -1 81 -1c26 -1 49 -2 63 -2c32 0 231 0 250 1c19 2 35 4 43 6c5 1 11 4 16 4s6 -4 6 -9c0 -7 -5 -19 -8 -65c-1 -10 -3 -54 -5 -66c-1 -5 -3 -11 -10 -11
s-9 5 -9 14c0 7 -1 24 -6 36c-7 18 -17 30 -67 36c-17 2 -122 4 -142 4c-5 0 -7 -3 -7 -10v-253c0 -7 1 -11 7 -11c22 0 137 0 160 2c24 2 39 5 48 15c7 8 11 13 16 13c4 0 7 -2 7 -8s-4 -22 -8 -73c-1 -20 -4 -60 -4 -67c0 -8 0 -19 -9 -19c-7 0 -9 4 -9 9
c-1 10 -1 23 -4 36c-5 20 -19 35 -56 39c-19 2 -118 3 -142 3c-5 0 -6 -4 -6 -10v-79c0 -34 -1 -126 0 -155c2 -69 18 -84 120 -84c26 0 68 0 94 12s38 33 45 74c2 11 4 15 11 15c8 0 8 -8 8 -18c0 -23 -8 -91 -13 -111c-7 -26 -16 -26 -54 -26c-75 0 -130 2 -173 3
c-43 2 -74 3 -104 3c-11 0 -33 0 -57 -1c-23 0 -49 -2 -69 -2c-13 0 -20 3 -20 10c0 5 4 8 16 8c15 0 27 2 36 4c20 4 25 26 29 55c5 42 5 121 5 213zM409 837c0 -5 -7 -7 -11 -7c-15 0 -186 75 -203 83c-19 8 -33 19 -33 25c0 5 5 7 13 9c19 6 54 19 67 25c11 5 14 7 19 7
s6 -8 16 -22c9 -12 65 -69 111 -102c10 -8 21 -11 21 -18z" />
    <glyph glyph-name="Eacute" unicode="&#xc9;" 
d="M164 287v176c0 152 0 180 -2 212c-2 34 -10 50 -43 57c-8 2 -25 3 -39 3c-11 0 -17 2 -17 9s7 9 22 9c27 0 56 -1 81 -1c26 -1 49 -2 63 -2c32 0 231 0 250 1c19 2 35 4 43 6c5 1 11 4 16 4s6 -4 6 -9c0 -7 -5 -19 -8 -65c-1 -10 -3 -54 -5 -66c-1 -5 -3 -11 -10 -11
s-9 5 -9 14c0 7 -1 24 -6 36c-7 18 -17 30 -67 36c-17 2 -122 4 -142 4c-5 0 -7 -3 -7 -10v-253c0 -7 1 -11 7 -11c22 0 137 0 160 2c24 2 39 5 48 15c7 8 11 13 16 13c4 0 7 -2 7 -8s-4 -22 -8 -73c-1 -20 -4 -60 -4 -67c0 -8 0 -19 -9 -19c-7 0 -9 4 -9 9
c-1 10 -1 23 -4 36c-5 20 -19 35 -56 39c-19 2 -118 3 -142 3c-5 0 -6 -4 -6 -10v-79c0 -34 -1 -126 0 -155c2 -69 18 -84 120 -84c26 0 68 0 94 12s38 33 45 74c2 11 4 15 11 15c8 0 8 -8 8 -18c0 -23 -8 -91 -13 -111c-7 -26 -16 -26 -54 -26c-75 0 -130 2 -173 3
c-43 2 -74 3 -104 3c-11 0 -33 0 -57 -1c-23 0 -49 -2 -69 -2c-13 0 -20 3 -20 10c0 5 4 8 16 8c15 0 27 2 36 4c20 4 25 26 29 55c5 42 5 121 5 213zM462 972c8 -14 17 -33 29 -60c6 -12 0 -15 -5 -15s-14 2 -34 0c-55 -7 -134 -39 -171 -59c-8 -4 -15 -8 -17 -8s-6 2 -6 6
s4 8 9 13c40 38 145 116 161 126c10 7 17 9 20 9c7 0 9 -3 14 -12z" />
    <glyph glyph-name="Ecircumflex" unicode="&#xca;" 
d="M164 287v176c0 152 0 180 -2 212c-2 34 -10 50 -43 57c-8 2 -25 3 -39 3c-11 0 -17 2 -17 9s7 9 22 9c27 0 56 -1 81 -1c26 -1 49 -2 63 -2c32 0 231 0 250 1c19 2 35 4 43 6c5 1 11 4 16 4s6 -4 6 -9c0 -7 -5 -19 -8 -65c-1 -10 -3 -54 -5 -66c-1 -5 -3 -11 -10 -11
s-9 5 -9 14c0 7 -1 24 -6 36c-7 18 -17 30 -67 36c-17 2 -122 4 -142 4c-5 0 -7 -3 -7 -10v-253c0 -7 1 -11 7 -11c22 0 137 0 160 2c24 2 39 5 48 15c7 8 11 13 16 13c4 0 7 -2 7 -8s-4 -22 -8 -73c-1 -20 -4 -60 -4 -67c0 -8 0 -19 -9 -19c-7 0 -9 4 -9 9
c-1 10 -1 23 -4 36c-5 20 -19 35 -56 39c-19 2 -118 3 -142 3c-5 0 -6 -4 -6 -10v-79c0 -34 -1 -126 0 -155c2 -69 18 -84 120 -84c26 0 68 0 94 12s38 33 45 74c2 11 4 15 11 15c8 0 8 -8 8 -18c0 -23 -8 -91 -13 -111c-7 -26 -16 -26 -54 -26c-75 0 -130 2 -173 3
c-43 2 -74 3 -104 3c-11 0 -33 0 -57 -1c-23 0 -49 -2 -69 -2c-13 0 -20 3 -20 10c0 5 4 8 16 8c15 0 27 2 36 4c20 4 25 26 29 55c5 42 5 121 5 213zM341 981c3 0 7 -3 18 -11c8 -7 104 -79 119 -90c11 -8 14 -11 14 -14s-2 -7 -5 -10l-29 -29c-4 -4 -8 -7 -13 -7
c-4 0 -7 3 -15 11c-18 19 -78 67 -88 74c-5 4 -9 6 -13 6s-9 -2 -15 -5c-28 -16 -76 -48 -106 -74c-10 -9 -15 -12 -20 -12s-9 4 -9 10c0 4 4 9 9 15c11 12 118 112 132 124c10 9 15 12 21 12z" />
    <glyph glyph-name="Edieresis" unicode="&#xcb;" 
d="M164 287v176c0 152 0 180 -2 212c-2 34 -10 50 -43 57c-8 2 -25 3 -39 3c-11 0 -17 2 -17 9s7 9 22 9c27 0 56 -1 81 -1c26 -1 49 -2 63 -2c32 0 231 0 250 1c19 2 35 4 43 6c5 1 11 4 16 4s6 -4 6 -9c0 -7 -5 -19 -8 -65c-1 -10 -3 -54 -5 -66c-1 -5 -3 -11 -10 -11
s-9 5 -9 14c0 7 -1 24 -6 36c-7 18 -17 30 -67 36c-17 2 -122 4 -142 4c-5 0 -7 -3 -7 -10v-253c0 -7 1 -11 7 -11c22 0 137 0 160 2c24 2 39 5 48 15c7 8 11 13 16 13c4 0 7 -2 7 -8s-4 -22 -8 -73c-1 -20 -4 -60 -4 -67c0 -8 0 -19 -9 -19c-7 0 -9 4 -9 9
c-1 10 -1 23 -4 36c-5 20 -19 35 -56 39c-19 2 -118 3 -142 3c-5 0 -6 -4 -6 -10v-79c0 -34 -1 -126 0 -155c2 -69 18 -84 120 -84c26 0 68 0 94 12s38 33 45 74c2 11 4 15 11 15c8 0 8 -8 8 -18c0 -23 -8 -91 -13 -111c-7 -26 -16 -26 -54 -26c-75 0 -130 2 -173 3
c-43 2 -74 3 -104 3c-11 0 -33 0 -57 -1c-23 0 -49 -2 -69 -2c-13 0 -20 3 -20 10c0 5 4 8 16 8c15 0 27 2 36 4c20 4 25 26 29 55c5 42 5 121 5 213zM440 830c-32 0 -45 26 -45 47c0 20 14 47 46 47c26 0 47 -16 47 -44s-19 -50 -48 -50zM229 830c-32 0 -45 26 -45 47
c0 19 14 46 46 46c26 0 47 -16 47 -43c0 -28 -19 -50 -48 -50z" />
    <glyph glyph-name="Igrave" unicode="&#xcc;" horiz-adv-x="452" 
d="M164 287v176c0 152 0 180 -2 212c-2 34 -12 51 -34 56c-11 3 -24 4 -36 4c-10 0 -16 2 -16 10c0 6 8 8 24 8c38 0 101 -3 130 -3c25 0 84 3 122 3c13 0 21 -2 21 -8c0 -8 -6 -10 -16 -10s-18 -1 -30 -3c-27 -5 -35 -22 -37 -57c-2 -32 -2 -60 -2 -212v-176
c0 -97 0 -176 4 -219c3 -27 10 -45 40 -49c14 -2 36 -4 51 -4c11 0 16 -3 16 -8c0 -7 -8 -10 -19 -10c-66 0 -129 3 -156 3c-23 0 -86 -3 -126 -3c-13 0 -20 3 -20 10c0 5 4 8 16 8c15 0 27 2 36 4c20 4 26 21 29 50c5 42 5 121 5 218zM300 837c0 -5 -7 -7 -11 -7
c-15 0 -186 75 -203 83c-19 8 -33 19 -33 25c0 5 5 7 13 9c19 6 54 19 67 25c11 5 14 7 19 7s6 -8 16 -22c9 -12 65 -69 111 -102c10 -8 21 -11 21 -18z" />
    <glyph glyph-name="Iacute" unicode="&#xcd;" horiz-adv-x="452" 
d="M164 287v176c0 152 0 180 -2 212c-2 34 -12 51 -34 56c-11 3 -24 4 -36 4c-10 0 -16 2 -16 10c0 6 8 8 24 8c38 0 101 -3 130 -3c25 0 84 3 122 3c13 0 21 -2 21 -8c0 -8 -6 -10 -16 -10s-18 -1 -30 -3c-27 -5 -35 -22 -37 -57c-2 -32 -2 -60 -2 -212v-176
c0 -97 0 -176 4 -219c3 -27 10 -45 40 -49c14 -2 36 -4 51 -4c11 0 16 -3 16 -8c0 -7 -8 -10 -19 -10c-66 0 -129 3 -156 3c-23 0 -86 -3 -126 -3c-13 0 -20 3 -20 10c0 5 4 8 16 8c15 0 27 2 36 4c20 4 26 21 29 50c5 42 5 121 5 218zM363 972c8 -14 17 -33 29 -60
c6 -12 0 -15 -5 -15s-14 2 -34 0c-55 -7 -134 -39 -171 -59c-8 -4 -15 -8 -17 -8s-6 2 -6 6s4 8 9 13c40 38 145 116 161 126c10 7 17 9 20 9c7 0 9 -3 14 -12z" />
    <glyph glyph-name="Icircumflex" unicode="&#xce;" horiz-adv-x="452" 
d="M164 287v176c0 152 0 180 -2 212c-2 34 -12 51 -34 56c-11 3 -24 4 -36 4c-10 0 -16 2 -16 10c0 6 8 8 24 8c38 0 101 -3 130 -3c25 0 84 3 122 3c13 0 21 -2 21 -8c0 -8 -6 -10 -16 -10s-18 -1 -30 -3c-27 -5 -35 -22 -37 -57c-2 -32 -2 -60 -2 -212v-176
c0 -97 0 -176 4 -219c3 -27 10 -45 40 -49c14 -2 36 -4 51 -4c11 0 16 -3 16 -8c0 -7 -8 -10 -19 -10c-66 0 -129 3 -156 3c-23 0 -86 -3 -126 -3c-13 0 -20 3 -20 10c0 5 4 8 16 8c15 0 27 2 36 4c20 4 26 21 29 50c5 42 5 121 5 218zM232 981c3 0 7 -3 18 -11
c8 -7 104 -79 119 -90c11 -8 14 -11 14 -14s-2 -7 -5 -10l-29 -29c-4 -4 -8 -7 -13 -7c-4 0 -7 3 -15 11c-18 19 -78 67 -88 74c-5 4 -9 6 -13 6s-9 -2 -15 -5c-28 -16 -76 -48 -106 -74c-10 -9 -15 -12 -20 -12s-9 4 -9 10c0 4 4 9 9 15c11 12 118 112 132 124
c10 9 15 12 21 12z" />
    <glyph glyph-name="Idieresis" unicode="&#xcf;" horiz-adv-x="452" 
d="M164 287v176c0 152 0 180 -2 212c-2 34 -12 51 -34 56c-11 3 -24 4 -36 4c-10 0 -16 2 -16 10c0 6 8 8 24 8c38 0 101 -3 130 -3c25 0 84 3 122 3c13 0 21 -2 21 -8c0 -8 -6 -10 -16 -10s-18 -1 -30 -3c-27 -5 -35 -22 -37 -57c-2 -32 -2 -60 -2 -212v-176
c0 -97 0 -176 4 -219c3 -27 10 -45 40 -49c14 -2 36 -4 51 -4c11 0 16 -3 16 -8c0 -7 -8 -10 -19 -10c-66 0 -129 3 -156 3c-23 0 -86 -3 -126 -3c-13 0 -20 3 -20 10c0 5 4 8 16 8c15 0 27 2 36 4c20 4 26 21 29 50c5 42 5 121 5 218zM331 830c-32 0 -45 26 -45 47
c0 20 14 47 46 47c26 0 47 -16 47 -44s-19 -50 -48 -50zM120 830c-32 0 -45 26 -45 47c0 19 14 46 46 46c26 0 47 -16 47 -43c0 -28 -19 -50 -48 -50z" />
    <glyph glyph-name="Eth" unicode="&#xd0;" horiz-adv-x="936" 
d="M164 353h-101c-6 0 -6 5 -5 12l5 30c1 7 5 10 13 10h88v58c0 152 0 180 -2 212c-2 34 -10 50 -43 57c-8 2 -25 3 -39 3c-11 0 -17 2 -17 9s7 9 22 9c53 0 116 -3 144 -3c31 0 94 3 154 3c125 0 292 0 401 -114c50 -52 97 -135 97 -254c0 -126 -52 -223 -108 -281
c-46 -47 -167 -116 -320 -116c-34 0 -83 3 -128 6c-44 3 -84 6 -101 6c-11 0 -33 0 -57 -1c-23 0 -49 -2 -69 -2c-13 0 -20 3 -20 10c0 5 4 8 16 8c15 0 27 2 36 4c20 4 25 26 29 55c5 42 5 121 5 213v66zM289 406h200c7 0 8 -4 7 -12l-6 -33c-1 -6 -5 -9 -12 -9h-189v-46
c0 -58 1 -135 2 -154c1 -25 3 -65 11 -76c13 -19 52 -41 131 -41c101 0 175 22 234 75c57 51 80 142 80 246c0 127 -53 209 -96 250c-92 88 -206 100 -284 100c-20 0 -57 -3 -65 -7c-9 -4 -12 -9 -12 -20c-1 -34 -1 -121 -1 -200v-73z" />
    <glyph glyph-name="Ntilde" unicode="&#xd1;" horiz-adv-x="947" 
d="M209 553l11 -420c2 -78 15 -104 35 -111c17 -6 36 -7 52 -7c11 0 17 -2 17 -8c0 -8 -9 -10 -23 -10c-65 0 -105 3 -124 3c-9 0 -56 -3 -108 -3c-13 0 -22 1 -22 10c0 6 6 8 16 8c13 0 31 1 45 5c26 8 30 37 31 124l9 592c0 20 3 34 13 34c11 0 20 -13 37 -31l310 -321
c68 -68 203 -212 220 -228h5l-10 449c-1 61 -10 80 -34 90c-15 6 -39 6 -53 6c-12 0 -16 3 -16 9c0 8 11 9 26 9c52 0 100 -3 121 -3c11 0 49 3 98 3c13 0 23 -1 23 -9c0 -6 -6 -9 -18 -9c-10 0 -18 0 -30 -3c-28 -8 -36 -29 -37 -85l-11 -631c0 -22 -4 -31 -13 -31
c-11 0 -23 11 -34 22l-295 294c-109 108 -220 233 -238 252h-3zM554 830c-42 0 -69 17 -90 28c-18 10 -37 22 -64 22c-39 0 -60 -27 -68 -36c-9 -9 -12 -10 -16 -10s-7 3 -7 7c0 5 5 15 8 19c15 24 56 77 104 77c35 0 57 -15 80 -28c25 -14 48 -22 72 -22c36 0 57 25 61 30
c6 8 11 13 16 13c4 0 8 -3 8 -8s-3 -11 -6 -17c-9 -17 -51 -75 -98 -75z" />
    <glyph glyph-name="Ograve" unicode="&#xd2;" horiz-adv-x="927" 
d="M458 -17c-287 0 -403 215 -403 392c0 171 113 392 413 392c249 0 404 -145 404 -374s-160 -410 -414 -410zM500 33c70 0 232 34 232 323c0 224 -129 363 -293 363c-115 0 -246 -64 -246 -313c0 -208 115 -373 307 -373zM537 837c0 -5 -7 -7 -11 -7c-15 0 -186 75 -203 83
c-19 8 -33 19 -33 25c0 5 5 7 13 9c19 6 54 19 67 25c11 5 14 7 19 7s6 -8 16 -22c9 -12 65 -69 111 -102c10 -8 21 -11 21 -18z" />
    <glyph glyph-name="Oacute" unicode="&#xd3;" horiz-adv-x="927" 
d="M458 -17c-287 0 -403 215 -403 392c0 171 113 392 413 392c249 0 404 -145 404 -374s-160 -410 -414 -410zM500 33c70 0 232 34 232 323c0 224 -129 363 -293 363c-115 0 -246 -64 -246 -313c0 -208 115 -373 307 -373zM600 972c8 -14 17 -33 29 -60c6 -12 0 -15 -5 -15
s-14 2 -34 0c-55 -7 -134 -39 -171 -59c-8 -4 -15 -8 -17 -8s-6 2 -6 6s4 8 9 13c40 38 145 116 161 126c10 7 17 9 20 9c7 0 9 -3 14 -12z" />
    <glyph glyph-name="Ocircumflex" unicode="&#xd4;" horiz-adv-x="927" 
d="M458 -17c-287 0 -403 215 -403 392c0 171 113 392 413 392c249 0 404 -145 404 -374s-160 -410 -414 -410zM500 33c70 0 232 34 232 323c0 224 -129 363 -293 363c-115 0 -246 -64 -246 -313c0 -208 115 -373 307 -373zM469 981c3 0 7 -3 18 -11c8 -7 104 -79 119 -90
c11 -8 14 -11 14 -14s-2 -7 -5 -10l-29 -29c-4 -4 -8 -7 -13 -7c-4 0 -7 3 -15 11c-18 19 -78 67 -88 74c-5 4 -9 6 -13 6s-9 -2 -15 -5c-28 -16 -76 -48 -106 -74c-10 -9 -15 -12 -20 -12s-9 4 -9 10c0 4 4 9 9 15c11 12 118 112 132 124c10 9 15 12 21 12z" />
    <glyph glyph-name="Otilde" unicode="&#xd5;" horiz-adv-x="927" 
d="M458 -17c-287 0 -403 215 -403 392c0 171 113 392 413 392c249 0 404 -145 404 -374s-160 -410 -414 -410zM500 33c70 0 232 34 232 323c0 224 -129 363 -293 363c-115 0 -246 -64 -246 -313c0 -208 115 -373 307 -373zM534 830c-42 0 -69 17 -90 28
c-18 10 -37 22 -64 22c-39 0 -60 -27 -68 -36c-9 -9 -12 -10 -16 -10s-7 3 -7 7c0 5 5 15 8 19c15 24 56 77 104 77c35 0 57 -15 80 -28c25 -14 48 -22 72 -22c36 0 57 25 61 30c6 8 11 13 16 13c4 0 8 -3 8 -8s-3 -11 -6 -17c-9 -17 -51 -75 -98 -75z" />
    <glyph glyph-name="Odieresis" unicode="&#xd6;" horiz-adv-x="927" 
d="M458 -17c-287 0 -403 215 -403 392c0 171 113 392 413 392c249 0 404 -145 404 -374s-160 -410 -414 -410zM500 33c70 0 232 34 232 323c0 224 -129 363 -293 363c-115 0 -246 -64 -246 -313c0 -208 115 -373 307 -373zM568 830c-32 0 -45 26 -45 47c0 20 14 47 46 47
c26 0 47 -16 47 -44s-19 -50 -48 -50zM357 830c-32 0 -45 26 -45 47c0 19 14 46 46 46c26 0 47 -16 47 -43c0 -28 -19 -50 -48 -50z" />
    <glyph glyph-name="multiply" unicode="&#xd7;" horiz-adv-x="549" 
d="M496 67l-41 -41l-180 184l-180 -184l-41 41l180 185l-180 185l41 41l180 -185l180 185l41 -41l-180 -185z" />
    <glyph glyph-name="Oslash" unicode="&#xd8;" horiz-adv-x="927" 
d="M204 61l-84 -88c-3 -3 -6 -4 -10 0l-28 25c-4 4 -5 7 -2 10l84 89c-76 77 -109 183 -109 278c0 171 113 392 413 392c113 0 194 -26 260 -73l75 79c4 4 8 3 14 -2l28 -24c4 -4 3 -8 0 -11l-74 -78c65 -64 101 -155 101 -265c0 -229 -160 -410 -414 -410
c-108 0 -191 30 -254 78zM684 566l-407 -428c53 -65 129 -106 224 -106c70 0 232 34 232 323c0 83 -19 154 -49 211zM246 184l407 430c-53 67 -129 104 -213 104c-115 0 -246 -64 -246 -313c0 -83 18 -160 52 -221z" />
    <glyph glyph-name="Ugrave" unicode="&#xd9;" horiz-adv-x="852" 
d="M121 317v146c0 152 0 180 -2 212c-2 34 -10 50 -43 57c-8 2 -25 3 -39 3c-11 0 -17 2 -17 9s7 9 22 9c53 0 116 -3 146 -3c24 0 87 3 123 3c15 0 22 -2 22 -9s-6 -9 -16 -9c-11 0 -17 -1 -29 -3c-27 -5 -35 -22 -37 -57c-2 -32 -2 -60 -2 -212v-140
c0 -145 29 -206 78 -246c45 -37 91 -41 125 -41c44 0 98 14 138 54c55 55 58 145 58 248v125c0 152 0 180 -2 212c-2 34 -10 50 -43 57c-8 2 -25 3 -36 3s-17 2 -17 9s7 9 21 9c51 0 114 -3 115 -3c12 0 75 3 114 3c14 0 21 -2 21 -9s-6 -9 -18 -9c-11 0 -17 -1 -29 -3
c-27 -5 -35 -22 -37 -57c-2 -32 -2 -60 -2 -212v-107c0 -111 -11 -229 -95 -301c-71 -61 -143 -72 -208 -72c-53 0 -149 3 -222 69c-51 46 -89 120 -89 265zM504 837c0 -5 -7 -7 -11 -7c-15 0 -186 75 -203 83c-19 8 -33 19 -33 25c0 5 5 7 13 9c19 6 54 19 67 25
c11 5 14 7 19 7s6 -8 16 -22c9 -12 65 -69 111 -102c10 -8 21 -11 21 -18z" />
    <glyph glyph-name="Uacute" unicode="&#xda;" horiz-adv-x="852" 
d="M121 317v146c0 152 0 180 -2 212c-2 34 -10 50 -43 57c-8 2 -25 3 -39 3c-11 0 -17 2 -17 9s7 9 22 9c53 0 116 -3 146 -3c24 0 87 3 123 3c15 0 22 -2 22 -9s-6 -9 -16 -9c-11 0 -17 -1 -29 -3c-27 -5 -35 -22 -37 -57c-2 -32 -2 -60 -2 -212v-140
c0 -145 29 -206 78 -246c45 -37 91 -41 125 -41c44 0 98 14 138 54c55 55 58 145 58 248v125c0 152 0 180 -2 212c-2 34 -10 50 -43 57c-8 2 -25 3 -36 3s-17 2 -17 9s7 9 21 9c51 0 114 -3 115 -3c12 0 75 3 114 3c14 0 21 -2 21 -9s-6 -9 -18 -9c-11 0 -17 -1 -29 -3
c-27 -5 -35 -22 -37 -57c-2 -32 -2 -60 -2 -212v-107c0 -111 -11 -229 -95 -301c-71 -61 -143 -72 -208 -72c-53 0 -149 3 -222 69c-51 46 -89 120 -89 265zM582 972c8 -14 17 -33 29 -60c6 -12 0 -15 -5 -15s-14 2 -34 0c-55 -7 -134 -39 -171 -59c-8 -4 -15 -8 -17 -8
s-6 2 -6 6s4 8 9 13c40 38 145 116 161 126c10 7 17 9 20 9c7 0 9 -3 14 -12z" />
    <glyph glyph-name="Ucircumflex" unicode="&#xdb;" horiz-adv-x="852" 
d="M121 317v146c0 152 0 180 -2 212c-2 34 -10 50 -43 57c-8 2 -25 3 -39 3c-11 0 -17 2 -17 9s7 9 22 9c53 0 116 -3 146 -3c24 0 87 3 123 3c15 0 22 -2 22 -9s-6 -9 -16 -9c-11 0 -17 -1 -29 -3c-27 -5 -35 -22 -37 -57c-2 -32 -2 -60 -2 -212v-140
c0 -145 29 -206 78 -246c45 -37 91 -41 125 -41c44 0 98 14 138 54c55 55 58 145 58 248v125c0 152 0 180 -2 212c-2 34 -10 50 -43 57c-8 2 -25 3 -36 3s-17 2 -17 9s7 9 21 9c51 0 114 -3 115 -3c12 0 75 3 114 3c14 0 21 -2 21 -9s-6 -9 -18 -9c-11 0 -17 -1 -29 -3
c-27 -5 -35 -22 -37 -57c-2 -32 -2 -60 -2 -212v-107c0 -111 -11 -229 -95 -301c-71 -61 -143 -72 -208 -72c-53 0 -149 3 -222 69c-51 46 -89 120 -89 265zM446 981c3 0 7 -3 18 -11c8 -7 104 -79 119 -90c11 -8 14 -11 14 -14s-2 -7 -5 -10l-29 -29c-4 -4 -8 -7 -13 -7
c-4 0 -7 3 -15 11c-18 19 -78 67 -88 74c-5 4 -9 6 -13 6s-9 -2 -15 -5c-28 -16 -76 -48 -106 -74c-10 -9 -15 -12 -20 -12s-9 4 -9 10c0 4 4 9 9 15c11 12 118 112 132 124c10 9 15 12 21 12z" />
    <glyph glyph-name="Udieresis" unicode="&#xdc;" horiz-adv-x="852" 
d="M121 317v146c0 152 0 180 -2 212c-2 34 -10 50 -43 57c-8 2 -25 3 -39 3c-11 0 -17 2 -17 9s7 9 22 9c53 0 116 -3 146 -3c24 0 87 3 123 3c15 0 22 -2 22 -9s-6 -9 -16 -9c-11 0 -17 -1 -29 -3c-27 -5 -35 -22 -37 -57c-2 -32 -2 -60 -2 -212v-140
c0 -145 29 -206 78 -246c45 -37 91 -41 125 -41c44 0 98 14 138 54c55 55 58 145 58 248v125c0 152 0 180 -2 212c-2 34 -10 50 -43 57c-8 2 -25 3 -36 3s-17 2 -17 9s7 9 21 9c51 0 114 -3 115 -3c12 0 75 3 114 3c14 0 21 -2 21 -9s-6 -9 -18 -9c-11 0 -17 -1 -29 -3
c-27 -5 -35 -22 -37 -57c-2 -32 -2 -60 -2 -212v-107c0 -111 -11 -229 -95 -301c-71 -61 -143 -72 -208 -72c-53 0 -149 3 -222 69c-51 46 -89 120 -89 265zM550 830c-32 0 -45 26 -45 47c0 20 14 47 46 47c26 0 47 -16 47 -44s-19 -50 -48 -50zM339 830
c-32 0 -45 26 -45 47c0 19 14 46 46 46c26 0 47 -16 47 -43c0 -28 -19 -50 -48 -50z" />
    <glyph glyph-name="Yacute" unicode="&#xdd;" horiz-adv-x="670" 
d="M276 174v82c0 54 -10 76 -23 105c-7 16 -141 236 -176 288c-25 37 -50 62 -69 73c-13 7 -30 13 -42 13c-8 0 -15 2 -15 9c0 6 7 9 19 9c18 0 93 -3 126 -3c21 0 62 3 107 3c10 0 15 -3 15 -9s-7 -7 -22 -11c-9 -2 -14 -10 -14 -18s5 -20 12 -34c14 -30 154 -271 170 -299
c10 24 136 244 150 275c10 22 14 39 14 52c0 10 -4 21 -21 25c-9 2 -18 4 -18 10c0 7 5 9 17 9c33 0 65 -3 94 -3c22 0 88 3 107 3c11 0 18 -2 18 -8c0 -7 -8 -10 -19 -10c-10 0 -29 -4 -44 -12c-21 -10 -32 -22 -54 -49c-33 -40 -173 -275 -191 -318
c-15 -36 -15 -67 -15 -100v-82c0 -16 0 -58 3 -100c2 -29 11 -51 41 -55c14 -2 36 -4 50 -4c11 0 16 -3 16 -8c0 -7 -8 -10 -21 -10c-63 0 -126 3 -153 3c-25 0 -88 -3 -125 -3c-14 0 -22 2 -22 10c0 5 5 8 16 8c14 0 26 2 35 4c20 4 29 26 31 55c3 42 3 84 3 100zM501 972
c8 -14 17 -33 29 -60c6 -12 0 -15 -5 -15s-14 2 -34 0c-55 -7 -134 -39 -171 -59c-8 -4 -15 -8 -17 -8s-6 2 -6 6s4 8 9 13c40 38 145 116 161 126c10 7 17 9 20 9c7 0 9 -3 14 -12z" />
    <glyph glyph-name="Thorn" unicode="&#xde;" horiz-adv-x="655" 
d="M164 287v176c0 152 0 180 -2 212c-2 34 -10 50 -43 57c-8 2 -25 3 -39 3c-11 0 -17 2 -17 9s7 9 22 9c53 0 116 -3 143 -3c25 0 88 3 140 3c11 0 19 -2 19 -9c0 -6 -7 -9 -15 -9s-24 -2 -38 -4c-32 -6 -44 -24 -45 -53c-1 -38 -2 -74 -2 -90c30 2 49 4 88 4
c125 0 169 -42 186 -57c23 -20 49 -66 49 -118c0 -142 -104 -238 -246 -238c-5 0 -16 0 -21 1c-5 0 -12 2 -12 9c0 9 9 11 28 11c58 0 131 67 131 161c0 33 -2 100 -56 154c-34 34 -72 35 -96 35c-17 0 -34 -2 -43 -6c-6 -2 -8 -9 -8 -19v-238c0 -92 0 -171 5 -214
c3 -28 9 -50 39 -54c14 -2 36 -4 49 -4c8 0 13 -3 13 -8c0 -7 -8 -10 -20 -10c-60 0 -123 3 -149 3c-23 0 -86 -3 -126 -3c-13 0 -20 3 -20 10c0 5 4 8 16 8c15 0 27 2 36 4c20 4 25 26 29 55c5 42 5 121 5 213z" />
    <glyph glyph-name="germandbls" unicode="&#xdf;" horiz-adv-x="1080" 
d="M239 -14c-51 0 -105 5 -143 22c-14 6 -17 10 -17 29c0 46 4 99 5 113c0 13 4 22 11 22c8 0 9 -8 9 -14c0 -11 3 -29 8 -44c19 -63 85 -84 140 -84c76 0 122 48 122 108c0 37 -9 74 -87 120l-51 30c-104 61 -138 118 -138 193c0 104 100 171 222 171c57 0 102 -8 125 -14
c8 -2 12 -5 12 -11c0 -11 -3 -35 -3 -102c0 -18 -4 -27 -11 -27c-6 0 -9 5 -9 15c0 8 -4 34 -23 56c-13 16 -41 40 -98 40c-63 0 -120 -33 -120 -91c0 -38 14 -68 93 -112l36 -20c116 -64 152 -129 152 -206c0 -63 -24 -114 -88 -159c-42 -30 -100 -35 -147 -35zM779 -14
c-51 0 -105 5 -143 22c-14 6 -17 10 -17 29c0 46 4 99 5 113c0 13 4 22 11 22c8 0 9 -8 9 -14c0 -11 3 -29 8 -44c19 -63 85 -84 140 -84c76 0 122 48 122 108c0 37 -9 74 -87 120l-51 30c-104 61 -138 118 -138 193c0 104 100 171 222 171c57 0 102 -8 125 -14
c8 -2 12 -5 12 -11c0 -11 -3 -35 -3 -102c0 -18 -4 -27 -11 -27c-6 0 -9 5 -9 15c0 8 -4 34 -23 56c-13 16 -41 40 -98 40c-63 0 -120 -33 -120 -91c0 -38 14 -68 93 -112l36 -20c116 -64 152 -129 152 -206c0 -63 -24 -114 -88 -159c-42 -30 -100 -35 -147 -35z" />
    <glyph glyph-name="agrave" unicode="&#xe0;" 
d="M389 211h-207c-5 0 -6 -1 -8 -6l-47 -114c-9 -21 -13 -42 -13 -52c0 -15 8 -24 35 -24h13c11 0 13 -4 13 -9c0 -7 -5 -9 -14 -9c-29 0 -70 3 -98 3c-9 0 -56 -3 -102 -3c-11 0 -16 2 -16 9c0 5 3 9 10 9c8 0 18 1 26 1c40 6 55 32 73 75l230 535c10 24 17 34 26 34
c13 0 17 -8 26 -27l224 -524c34 -77 59 -88 75 -91c13 -2 23 -3 33 -3c8 0 12 -3 12 -9c0 -7 -5 -9 -38 -9c-31 0 -95 0 -169 2c-16 1 -26 1 -26 7c0 5 2 8 11 9c6 1 12 9 8 19l-68 171c-2 5 -5 6 -9 6zM200 258h170c4 0 5 2 4 5l-83 216c-1 3 -2 8 -4 8c-3 0 -4 -5 -5 -8
l-85 -215c-2 -4 0 -6 3 -6zM390 725c0 -5 -7 -7 -11 -7c-15 0 -186 75 -203 83c-19 8 -33 19 -33 25c0 5 5 7 13 9c19 6 54 19 67 25c11 5 14 7 19 7s6 -8 16 -22c9 -12 65 -69 111 -102c10 -8 21 -11 21 -18z" />
    <glyph glyph-name="aacute" unicode="&#xe1;" 
d="M389 211h-207c-5 0 -6 -1 -8 -6l-47 -114c-9 -21 -13 -42 -13 -52c0 -15 8 -24 35 -24h13c11 0 13 -4 13 -9c0 -7 -5 -9 -14 -9c-29 0 -70 3 -98 3c-9 0 -56 -3 -102 -3c-11 0 -16 2 -16 9c0 5 3 9 10 9c8 0 18 1 26 1c40 6 55 32 73 75l230 535c10 24 17 34 26 34
c13 0 17 -8 26 -27l224 -524c34 -77 59 -88 75 -91c13 -2 23 -3 33 -3c8 0 12 -3 12 -9c0 -7 -5 -9 -38 -9c-31 0 -95 0 -169 2c-16 1 -26 1 -26 7c0 5 2 8 11 9c6 1 12 9 8 19l-68 171c-2 5 -5 6 -9 6zM200 258h170c4 0 5 2 4 5l-83 216c-1 3 -2 8 -4 8c-3 0 -4 -5 -5 -8
l-85 -215c-2 -4 0 -6 3 -6zM453 860c8 -14 17 -33 29 -60c6 -12 0 -15 -5 -15s-14 2 -34 0c-55 -7 -134 -39 -171 -59c-8 -4 -15 -8 -17 -8s-6 2 -6 6s4 8 9 13c40 38 145 116 161 126c10 7 17 9 20 9c7 0 9 -3 14 -12z" />
    <glyph glyph-name="acircumflex" unicode="&#xe2;" 
d="M389 211h-207c-5 0 -6 -1 -8 -6l-47 -114c-9 -21 -13 -42 -13 -52c0 -15 8 -24 35 -24h13c11 0 13 -4 13 -9c0 -7 -5 -9 -14 -9c-29 0 -70 3 -98 3c-9 0 -56 -3 -102 -3c-11 0 -16 2 -16 9c0 5 3 9 10 9c8 0 18 1 26 1c40 6 55 32 73 75l230 535c10 24 17 34 26 34
c13 0 17 -8 26 -27l224 -524c34 -77 59 -88 75 -91c13 -2 23 -3 33 -3c8 0 12 -3 12 -9c0 -7 -5 -9 -38 -9c-31 0 -95 0 -169 2c-16 1 -26 1 -26 7c0 5 2 8 11 9c6 1 12 9 8 19l-68 171c-2 5 -5 6 -9 6zM200 258h170c4 0 5 2 4 5l-83 216c-1 3 -2 8 -4 8c-3 0 -4 -5 -5 -8
l-85 -215c-2 -4 0 -6 3 -6zM322 869c3 0 7 -3 18 -11c8 -7 104 -79 119 -90c11 -8 14 -11 14 -14s-2 -7 -5 -10l-29 -29c-4 -4 -8 -7 -13 -7c-4 0 -7 3 -15 11c-18 19 -78 67 -88 74c-5 4 -9 6 -13 6s-9 -2 -15 -5c-28 -16 -76 -48 -106 -74c-10 -9 -15 -12 -20 -12
s-9 4 -9 10c0 4 4 9 9 15c11 12 118 112 132 124c10 9 15 12 21 12z" />
    <glyph glyph-name="atilde" unicode="&#xe3;" 
d="M389 211h-207c-5 0 -6 -1 -8 -6l-47 -114c-9 -21 -13 -42 -13 -52c0 -15 8 -24 35 -24h13c11 0 13 -4 13 -9c0 -7 -5 -9 -14 -9c-29 0 -70 3 -98 3c-9 0 -56 -3 -102 -3c-11 0 -16 2 -16 9c0 5 3 9 10 9c8 0 18 1 26 1c40 6 55 32 73 75l230 535c10 24 17 34 26 34
c13 0 17 -8 26 -27l224 -524c34 -77 59 -88 75 -91c13 -2 23 -3 33 -3c8 0 12 -3 12 -9c0 -7 -5 -9 -38 -9c-31 0 -95 0 -169 2c-16 1 -26 1 -26 7c0 5 2 8 11 9c6 1 12 9 8 19l-68 171c-2 5 -5 6 -9 6zM200 258h170c4 0 5 2 4 5l-83 216c-1 3 -2 8 -4 8c-3 0 -4 -5 -5 -8
l-85 -215c-2 -4 0 -6 3 -6zM387 718c-42 0 -69 17 -90 28c-18 10 -37 22 -64 22c-39 0 -60 -27 -68 -36c-9 -9 -12 -10 -16 -10s-7 3 -7 7c0 5 5 15 8 19c15 24 56 77 104 77c35 0 57 -15 80 -28c25 -14 48 -22 72 -22c36 0 57 25 61 30c6 8 11 13 16 13c4 0 8 -3 8 -8
s-3 -11 -6 -17c-9 -17 -51 -75 -98 -75z" />
    <glyph glyph-name="adieresis" unicode="&#xe4;" 
d="M389 211h-207c-5 0 -6 -1 -8 -6l-47 -114c-9 -21 -13 -42 -13 -52c0 -15 8 -24 35 -24h13c11 0 13 -4 13 -9c0 -7 -5 -9 -14 -9c-29 0 -70 3 -98 3c-9 0 -56 -3 -102 -3c-11 0 -16 2 -16 9c0 5 3 9 10 9c8 0 18 1 26 1c40 6 55 32 73 75l230 535c10 24 17 34 26 34
c13 0 17 -8 26 -27l224 -524c34 -77 59 -88 75 -91c13 -2 23 -3 33 -3c8 0 12 -3 12 -9c0 -7 -5 -9 -38 -9c-31 0 -95 0 -169 2c-16 1 -26 1 -26 7c0 5 2 8 11 9c6 1 12 9 8 19l-68 171c-2 5 -5 6 -9 6zM200 258h170c4 0 5 2 4 5l-83 216c-1 3 -2 8 -4 8c-3 0 -4 -5 -5 -8
l-85 -215c-2 -4 0 -6 3 -6zM421 718c-32 0 -45 26 -45 47c0 20 14 47 46 47c26 0 47 -16 47 -44s-19 -50 -48 -50zM210 718c-32 0 -45 26 -45 47c0 19 14 46 46 46c26 0 47 -16 47 -43c0 -28 -19 -50 -48 -50z" />
    <glyph glyph-name="aring" unicode="&#xe5;" 
d="M389 211h-207c-5 0 -6 -1 -8 -6l-47 -114c-9 -21 -13 -42 -13 -52c0 -15 8 -24 35 -24h13c11 0 13 -4 13 -9c0 -7 -5 -9 -14 -9c-29 0 -70 3 -98 3c-9 0 -56 -3 -102 -3c-11 0 -16 2 -16 9c0 5 3 9 10 9c8 0 18 1 26 1c40 6 55 32 73 75l230 535c10 24 17 34 26 34
c13 0 17 -8 26 -27l224 -524c34 -77 59 -88 75 -91c13 -2 23 -3 33 -3c8 0 12 -3 12 -9c0 -7 -5 -9 -38 -9c-31 0 -95 0 -169 2c-16 1 -26 1 -26 7c0 5 2 8 11 9c6 1 12 9 8 19l-68 171c-2 5 -5 6 -9 6zM200 258h170c4 0 5 2 4 5l-83 216c-1 3 -2 8 -4 8c-3 0 -4 -5 -5 -8
l-85 -215c-2 -4 0 -6 3 -6zM290 708c-55 0 -89 26 -89 60c0 46 59 88 137 88c58 0 95 -24 95 -58c1 -56 -78 -90 -143 -90zM262 782c0 -30 26 -49 50 -49c33 0 60 24 60 52c0 24 -17 46 -53 46c-23 0 -57 -15 -57 -49z" />
    <glyph glyph-name="ae" unicode="&#xe6;" horiz-adv-x="836" 
d="M414 240v41c0 5 -3 7 -8 7h-146c-7 0 -11 -1 -14 -6c-10 -14 -78 -131 -92 -154c-30 -49 -38 -72 -38 -84s7 -18 15 -22c11 -5 29 -7 45 -7c8 0 13 -4 13 -9c0 -6 -7 -9 -17 -9c-56 0 -112 3 -130 3c-16 0 -66 -3 -112 -3c-9 0 -12 3 -12 9c0 5 4 9 12 9s26 1 39 7
c51 22 75 64 93 87c28 35 310 463 323 482c13 20 17 31 19 37c2 7 5 12 11 12c7 0 19 -2 47 -2s203 -1 240 0c17 0 31 4 38 5c4 1 10 4 14 4s5 -4 5 -8c0 -6 -4 -16 -7 -55c-1 -9 -2 -46 -4 -56c-1 -4 -5 -13 -11 -13s-8 4 -8 11c0 6 -1 21 -5 31c-6 15 -13 27 -57 31
c-15 2 -122 3 -139 3c-5 0 -6 -3 -6 -8v-238c0 -6 1 -9 6 -9c19 0 134 1 155 2s34 4 42 12c6 7 10 11 14 11c3 0 6 -1 6 -7c0 -5 -2 -20 -7 -63c-2 -17 -3 -51 -3 -57c0 -7 -2 -18 -10 -18c-7 0 -8 3 -8 7c-1 9 -1 20 -4 31c-4 17 -15 30 -47 33c-17 2 -118 3 -139 3
c-4 0 -5 -3 -5 -8v-40v-130c0 -58 29 -67 118 -67c23 0 58 0 81 10s34 28 40 63c1 9 3 13 9 13c7 0 9 -11 9 -20c0 -19 -7 -77 -11 -94c-6 -22 -14 -22 -48 -22c-66 0 -119 2 -161 3c-43 2 -76 2 -102 2c-11 0 -27 -1 -45 -1c-18 -1 -37 -2 -53 -2c-13 0 -17 2 -17 8
c0 5 2 10 11 10c13 0 23 1 31 3c18 4 23 20 26 45c4 36 4 99 4 177zM414 337v213h-4c-24 -38 -118 -195 -127 -211c-4 -7 -2 -8 4 -8h119c6 0 8 2 8 6z" />
    <glyph glyph-name="ccedilla" unicode="&#xe7;" horiz-adv-x="705" 
d="M661 143c0 -10 -10 -84 -19 -113c-4 -15 -8 -19 -23 -25c-35 -14 -102 -19 -159 -19h-21l-75 -55c73 -7 118 -35 118 -80c0 -40 -41 -107 -184 -107c-9 0 -17 3 -17 10c0 9 12 13 26 13c33 0 84 25 84 67c0 27 -12 63 -79 73c-14 2 -22 5 -22 8s3 5 16 15l80 60
c-88 9 -165 35 -228 88c-87 73 -110 169 -110 251c0 58 19 158 103 233c64 56 148 90 279 90c55 0 88 -4 128 -9c33 -5 62 -11 88 -14c10 -1 13 -5 13 -10c0 -7 -2 -17 -4 -47c-2 -28 -2 -75 -3 -92c-1 -12 -4 -21 -12 -21c-7 0 -9 7 -9 18c-1 27 -12 57 -34 79
c-30 29 -89 50 -170 50c-77 0 -126 -14 -166 -48c-65 -56 -81 -138 -81 -221c0 -202 156 -298 274 -298c78 0 121 6 156 45c15 17 27 41 30 57c2 13 4 17 11 17c6 0 10 -8 10 -15z" />
    <glyph glyph-name="egrave" unicode="&#xe8;" horiz-adv-x="576" 
d="M144 244v150c0 129 0 153 -1 180c-2 29 -10 38 -38 46c-7 2 -22 3 -35 3c-9 0 -15 3 -15 9s7 8 20 8c46 0 102 -2 127 -2c28 0 223 -1 240 0c16 1 30 4 37 5c5 1 10 4 14 4c5 0 6 -4 6 -8c0 -6 -5 -16 -7 -55c-1 -9 -3 -46 -5 -56c-1 -4 -3 -14 -10 -14c-6 0 -7 4 -7 11
c0 6 -1 21 -6 31c-7 15 -14 27 -58 31c-15 2 -120 4 -138 4c-4 0 -6 -3 -6 -8v-210c0 -5 1 -9 6 -9c20 0 134 0 154 2c21 2 34 4 42 13c7 6 10 11 14 11s7 -4 7 -9s-2 -19 -7 -62c-2 -17 -4 -51 -4 -57c0 -7 -1 -19 -9 -19c-6 0 -8 3 -8 7c-1 9 -1 20 -3 31
c-5 17 -16 30 -49 33c-16 2 -116 4 -138 4c-4 0 -5 -4 -5 -9v-68c0 -29 -1 -101 0 -126c2 -58 29 -71 119 -71c23 0 60 1 83 11c22 10 32 28 38 63c2 9 4 13 10 13c7 0 8 -11 8 -20c0 -19 -7 -77 -12 -94c-6 -22 -14 -22 -47 -22c-66 0 -119 1 -162 3c-43 1 -76 2 -102 2
c-10 0 -29 -1 -50 -1c-21 -1 -43 -2 -61 -2c-11 0 -17 3 -17 9c0 4 3 9 14 9c13 0 23 1 31 3c18 4 23 20 26 45c4 36 4 103 4 181zM381 725c0 -5 -7 -7 -11 -7c-15 0 -186 75 -203 83c-19 8 -33 19 -33 25c0 5 5 7 13 9c19 6 54 19 67 25c11 5 14 7 19 7s6 -8 16 -22
c9 -12 65 -69 111 -102c10 -8 21 -11 21 -18z" />
    <glyph glyph-name="eacute" unicode="&#xe9;" horiz-adv-x="576" 
d="M144 244v150c0 129 0 153 -1 180c-2 29 -10 38 -38 46c-7 2 -22 3 -35 3c-9 0 -15 3 -15 9s7 8 20 8c46 0 102 -2 127 -2c28 0 223 -1 240 0c16 1 30 4 37 5c5 1 10 4 14 4c5 0 6 -4 6 -8c0 -6 -5 -16 -7 -55c-1 -9 -3 -46 -5 -56c-1 -4 -3 -14 -10 -14c-6 0 -7 4 -7 11
c0 6 -1 21 -6 31c-7 15 -14 27 -58 31c-15 2 -120 4 -138 4c-4 0 -6 -3 -6 -8v-210c0 -5 1 -9 6 -9c20 0 134 0 154 2c21 2 34 4 42 13c7 6 10 11 14 11s7 -4 7 -9s-2 -19 -7 -62c-2 -17 -4 -51 -4 -57c0 -7 -1 -19 -9 -19c-6 0 -8 3 -8 7c-1 9 -1 20 -3 31
c-5 17 -16 30 -49 33c-16 2 -116 4 -138 4c-4 0 -5 -4 -5 -9v-68c0 -29 -1 -101 0 -126c2 -58 29 -71 119 -71c23 0 60 1 83 11c22 10 32 28 38 63c2 9 4 13 10 13c7 0 8 -11 8 -20c0 -19 -7 -77 -12 -94c-6 -22 -14 -22 -47 -22c-66 0 -119 1 -162 3c-43 1 -76 2 -102 2
c-10 0 -29 -1 -50 -1c-21 -1 -43 -2 -61 -2c-11 0 -17 3 -17 9c0 4 3 9 14 9c13 0 23 1 31 3c18 4 23 20 26 45c4 36 4 103 4 181zM425 860c8 -14 17 -33 29 -60c6 -12 0 -15 -5 -15s-14 2 -34 0c-55 -7 -134 -39 -171 -59c-8 -4 -15 -8 -17 -8s-6 2 -6 6s4 8 9 13
c40 38 145 116 161 126c10 7 17 9 20 9c7 0 9 -3 14 -12z" />
    <glyph glyph-name="ecircumflex" unicode="&#xea;" horiz-adv-x="576" 
d="M144 244v150c0 129 0 153 -1 180c-2 29 -10 38 -38 46c-7 2 -22 3 -35 3c-9 0 -15 3 -15 9s7 8 20 8c46 0 102 -2 127 -2c28 0 223 -1 240 0c16 1 30 4 37 5c5 1 10 4 14 4c5 0 6 -4 6 -8c0 -6 -5 -16 -7 -55c-1 -9 -3 -46 -5 -56c-1 -4 -3 -14 -10 -14c-6 0 -7 4 -7 11
c0 6 -1 21 -6 31c-7 15 -14 27 -58 31c-15 2 -120 4 -138 4c-4 0 -6 -3 -6 -8v-210c0 -5 1 -9 6 -9c20 0 134 0 154 2c21 2 34 4 42 13c7 6 10 11 14 11s7 -4 7 -9s-2 -19 -7 -62c-2 -17 -4 -51 -4 -57c0 -7 -1 -19 -9 -19c-6 0 -8 3 -8 7c-1 9 -1 20 -3 31
c-5 17 -16 30 -49 33c-16 2 -116 4 -138 4c-4 0 -5 -4 -5 -9v-68c0 -29 -1 -101 0 -126c2 -58 29 -71 119 -71c23 0 60 1 83 11c22 10 32 28 38 63c2 9 4 13 10 13c7 0 8 -11 8 -20c0 -19 -7 -77 -12 -94c-6 -22 -14 -22 -47 -22c-66 0 -119 1 -162 3c-43 1 -76 2 -102 2
c-10 0 -29 -1 -50 -1c-21 -1 -43 -2 -61 -2c-11 0 -17 3 -17 9c0 4 3 9 14 9c13 0 23 1 31 3c18 4 23 20 26 45c4 36 4 103 4 181zM294 869c3 0 7 -3 18 -11c8 -7 104 -79 119 -90c11 -8 14 -11 14 -14s-2 -7 -5 -10l-29 -29c-4 -4 -8 -7 -13 -7c-4 0 -7 3 -15 11
c-18 19 -78 67 -88 74c-5 4 -9 6 -13 6s-9 -2 -15 -5c-28 -16 -76 -48 -106 -74c-10 -9 -15 -12 -20 -12s-9 4 -9 10c0 4 4 9 9 15c11 12 118 112 132 124c10 9 15 12 21 12z" />
    <glyph glyph-name="edieresis" unicode="&#xeb;" horiz-adv-x="576" 
d="M144 244v150c0 129 0 153 -1 180c-2 29 -10 38 -38 46c-7 2 -22 3 -35 3c-9 0 -15 3 -15 9s7 8 20 8c46 0 102 -2 127 -2c28 0 223 -1 240 0c16 1 30 4 37 5c5 1 10 4 14 4c5 0 6 -4 6 -8c0 -6 -5 -16 -7 -55c-1 -9 -3 -46 -5 -56c-1 -4 -3 -14 -10 -14c-6 0 -7 4 -7 11
c0 6 -1 21 -6 31c-7 15 -14 27 -58 31c-15 2 -120 4 -138 4c-4 0 -6 -3 -6 -8v-210c0 -5 1 -9 6 -9c20 0 134 0 154 2c21 2 34 4 42 13c7 6 10 11 14 11s7 -4 7 -9s-2 -19 -7 -62c-2 -17 -4 -51 -4 -57c0 -7 -1 -19 -9 -19c-6 0 -8 3 -8 7c-1 9 -1 20 -3 31
c-5 17 -16 30 -49 33c-16 2 -116 4 -138 4c-4 0 -5 -4 -5 -9v-68c0 -29 -1 -101 0 -126c2 -58 29 -71 119 -71c23 0 60 1 83 11c22 10 32 28 38 63c2 9 4 13 10 13c7 0 8 -11 8 -20c0 -19 -7 -77 -12 -94c-6 -22 -14 -22 -47 -22c-66 0 -119 1 -162 3c-43 1 -76 2 -102 2
c-10 0 -29 -1 -50 -1c-21 -1 -43 -2 -61 -2c-11 0 -17 3 -17 9c0 4 3 9 14 9c13 0 23 1 31 3c18 4 23 20 26 45c4 36 4 103 4 181zM402 718c-32 0 -45 26 -45 47c0 20 14 47 46 47c26 0 47 -16 47 -44s-19 -50 -48 -50zM191 718c-32 0 -45 26 -45 47c0 19 14 46 46 46
c26 0 47 -16 47 -43c0 -28 -19 -50 -48 -50z" />
    <glyph glyph-name="igrave" unicode="&#xec;" horiz-adv-x="407" 
d="M144 244v150c0 129 0 153 -1 180c-2 29 -11 39 -30 45c-10 3 -21 4 -32 4c-9 0 -14 2 -14 10c0 5 7 7 21 7c33 0 93 -2 118 -2c22 0 79 2 113 2c11 0 18 -2 18 -7c0 -8 -5 -10 -14 -10s-16 -1 -26 -3c-24 -4 -31 -16 -33 -46c-2 -27 -2 -51 -2 -180v-150
c0 -82 0 -150 4 -186c3 -23 9 -36 35 -40c12 -2 32 -3 45 -3c10 0 14 -5 14 -9c0 -6 -7 -9 -17 -9c-58 0 -118 3 -142 3c-20 0 -80 -3 -115 -3c-11 0 -17 3 -17 9c0 4 3 9 14 9c13 0 23 1 31 3c18 4 23 16 26 41c4 35 4 103 4 185zM277 725c0 -5 -7 -7 -11 -7
c-15 0 -186 75 -203 83c-19 8 -33 19 -33 25c0 5 5 7 13 9c19 6 54 19 67 25c11 5 14 7 19 7s6 -8 16 -22c9 -12 65 -69 111 -102c10 -8 21 -11 21 -18z" />
    <glyph glyph-name="iacute" unicode="&#xed;" horiz-adv-x="407" 
d="M144 244v150c0 129 0 153 -1 180c-2 29 -11 39 -30 45c-10 3 -21 4 -32 4c-9 0 -14 2 -14 10c0 5 7 7 21 7c33 0 93 -2 118 -2c22 0 79 2 113 2c11 0 18 -2 18 -7c0 -8 -5 -10 -14 -10s-16 -1 -26 -3c-24 -4 -31 -16 -33 -46c-2 -27 -2 -51 -2 -180v-150
c0 -82 0 -150 4 -186c3 -23 9 -36 35 -40c12 -2 32 -3 45 -3c10 0 14 -5 14 -9c0 -6 -7 -9 -17 -9c-58 0 -118 3 -142 3c-20 0 -80 -3 -115 -3c-11 0 -17 3 -17 9c0 4 3 9 14 9c13 0 23 1 31 3c18 4 23 16 26 41c4 35 4 103 4 185zM340 860c8 -14 17 -33 29 -60
c6 -12 0 -15 -5 -15s-14 2 -34 0c-55 -7 -134 -39 -171 -59c-8 -4 -15 -8 -17 -8s-6 2 -6 6s4 8 9 13c40 38 145 116 161 126c10 7 17 9 20 9c7 0 9 -3 14 -12z" />
    <glyph glyph-name="icircumflex" unicode="&#xee;" horiz-adv-x="407" 
d="M144 244v150c0 129 0 153 -1 180c-2 29 -11 39 -30 45c-10 3 -21 4 -32 4c-9 0 -14 2 -14 10c0 5 7 7 21 7c33 0 93 -2 118 -2c22 0 79 2 113 2c11 0 18 -2 18 -7c0 -8 -5 -10 -14 -10s-16 -1 -26 -3c-24 -4 -31 -16 -33 -46c-2 -27 -2 -51 -2 -180v-150
c0 -82 0 -150 4 -186c3 -23 9 -36 35 -40c12 -2 32 -3 45 -3c10 0 14 -5 14 -9c0 -6 -7 -9 -17 -9c-58 0 -118 3 -142 3c-20 0 -80 -3 -115 -3c-11 0 -17 3 -17 9c0 4 3 9 14 9c13 0 23 1 31 3c18 4 23 16 26 41c4 35 4 103 4 185zM209 869c3 0 7 -3 18 -11
c8 -7 104 -79 119 -90c11 -8 14 -11 14 -14s-2 -7 -5 -10l-29 -29c-4 -4 -8 -7 -13 -7c-4 0 -7 3 -15 11c-18 19 -78 67 -88 74c-5 4 -9 6 -13 6s-9 -2 -15 -5c-28 -16 -76 -48 -106 -74c-10 -9 -15 -12 -20 -12s-9 4 -9 10c0 4 4 9 9 15c11 12 118 112 132 124
c10 9 15 12 21 12z" />
    <glyph glyph-name="idieresis" unicode="&#xef;" horiz-adv-x="407" 
d="M144 244v150c0 129 0 153 -1 180c-2 29 -11 39 -30 45c-10 3 -21 4 -32 4c-9 0 -14 2 -14 10c0 5 7 7 21 7c33 0 93 -2 118 -2c22 0 79 2 113 2c11 0 18 -2 18 -7c0 -8 -5 -10 -14 -10s-16 -1 -26 -3c-24 -4 -31 -16 -33 -46c-2 -27 -2 -51 -2 -180v-150
c0 -82 0 -150 4 -186c3 -23 9 -36 35 -40c12 -2 32 -3 45 -3c10 0 14 -5 14 -9c0 -6 -7 -9 -17 -9c-58 0 -118 3 -142 3c-20 0 -80 -3 -115 -3c-11 0 -17 3 -17 9c0 4 3 9 14 9c13 0 23 1 31 3c18 4 23 16 26 41c4 35 4 103 4 185zM308 718c-32 0 -45 26 -45 47
c0 20 14 47 46 47c26 0 47 -16 47 -44s-19 -50 -48 -50zM97 718c-32 0 -45 26 -45 47c0 19 14 46 46 46c26 0 47 -16 47 -43c0 -28 -19 -50 -48 -50z" />
    <glyph glyph-name="eth" unicode="&#xf0;" horiz-adv-x="833" 
d="M144 298h-89c-5 0 -5 4 -4 10l4 30c1 6 5 8 12 8h77v48c0 129 0 153 -1 180c-2 29 -10 38 -38 46c-7 2 -22 3 -35 3c-9 0 -15 3 -15 9s7 8 20 8c46 0 102 -2 127 -2c27 0 90 2 143 2c110 0 258 0 354 -97c44 -44 85 -115 85 -216c0 -107 -45 -189 -95 -239
c-41 -40 -148 -98 -282 -98c-30 0 -75 2 -117 5c-41 2 -78 5 -93 5c-10 0 -29 -1 -50 -1c-21 -1 -43 -2 -61 -2c-11 0 -17 3 -17 9c0 4 3 9 14 9c13 0 23 1 31 3c18 4 23 20 26 45c4 36 4 103 4 181v54zM262 347h176c6 0 7 -3 6 -10l-5 -32c-1 -5 -4 -8 -10 -8h-167v-39
c0 -49 1 -109 2 -125c1 -21 4 -55 10 -64c12 -17 45 -35 114 -35c89 0 148 14 200 60c50 43 70 120 70 209c0 108 -46 177 -84 212c-81 75 -174 81 -239 81c-29 0 -53 -3 -61 -6s-11 -7 -11 -17c-1 -29 -1 -99 -1 -166v-60z" />
    <glyph glyph-name="ntilde" unicode="&#xf1;" horiz-adv-x="841" 
d="M189 460l10 -347c2 -66 13 -86 30 -92c15 -5 32 -6 46 -6c10 0 15 -4 15 -9c0 -7 -8 -9 -20 -9c-57 0 -98 3 -114 3c-8 0 -50 -3 -95 -3c-12 0 -20 1 -20 9c0 5 6 9 14 9c12 0 28 1 40 4c23 6 26 29 27 103l8 504c0 17 6 29 15 29c11 0 23 -13 38 -28l271 -271
c60 -59 177 -179 190 -191h4l-9 378c-1 52 -9 67 -30 75c-13 5 -34 5 -46 5c-11 0 -14 4 -14 9c0 7 9 8 22 8c46 0 93 -2 112 -2c10 0 43 2 86 2c12 0 20 -1 20 -8c0 -5 -5 -9 -15 -9c-9 0 -16 0 -27 -3c-24 -7 -31 -22 -32 -70l-10 -536c0 -19 -7 -27 -14 -27
c-15 0 -27 9 -36 18l-257 245c-96 92 -189 195 -206 210h-3zM491 718c-42 0 -69 17 -90 28c-18 10 -37 22 -64 22c-39 0 -60 -27 -68 -36c-9 -9 -12 -10 -16 -10s-7 3 -7 7c0 5 5 15 8 19c15 24 56 77 104 77c35 0 57 -15 80 -28c25 -14 48 -22 72 -22c36 0 57 25 61 30
c6 8 11 13 16 13c4 0 8 -3 8 -8s-3 -11 -6 -17c-9 -17 -51 -75 -98 -75z" />
    <glyph glyph-name="ograve" unicode="&#xf2;" horiz-adv-x="827" 
d="M408 -14c-256 0 -360 182 -360 333c0 145 102 333 369 333c222 0 360 -123 360 -318s-142 -348 -369 -348zM444 32c62 0 202 29 202 271c0 188 -113 304 -255 304c-98 0 -213 -52 -213 -262c0 -175 100 -313 266 -313zM487 725c0 -5 -7 -7 -11 -7c-15 0 -186 75 -203 83
c-19 8 -33 19 -33 25c0 5 5 7 13 9c19 6 54 19 67 25c11 5 14 7 19 7s6 -8 16 -22c9 -12 65 -69 111 -102c10 -8 21 -11 21 -18z" />
    <glyph glyph-name="oacute" unicode="&#xf3;" horiz-adv-x="827" 
d="M408 -14c-256 0 -360 182 -360 333c0 145 102 333 369 333c222 0 360 -123 360 -318s-142 -348 -369 -348zM444 32c62 0 202 29 202 271c0 188 -113 304 -255 304c-98 0 -213 -52 -213 -262c0 -175 100 -313 266 -313zM550 860c8 -14 17 -33 29 -60c6 -12 0 -15 -5 -15
s-14 2 -34 0c-55 -7 -134 -39 -171 -59c-8 -4 -15 -8 -17 -8s-6 2 -6 6s4 8 9 13c40 38 145 116 161 126c10 7 17 9 20 9c7 0 9 -3 14 -12z" />
    <glyph glyph-name="ocircumflex" unicode="&#xf4;" horiz-adv-x="827" 
d="M408 -14c-256 0 -360 182 -360 333c0 145 102 333 369 333c222 0 360 -123 360 -318s-142 -348 -369 -348zM444 32c62 0 202 29 202 271c0 188 -113 304 -255 304c-98 0 -213 -52 -213 -262c0 -175 100 -313 266 -313zM419 869c3 0 7 -3 18 -11c8 -7 104 -79 119 -90
c11 -8 14 -11 14 -14s-2 -7 -5 -10l-29 -29c-4 -4 -8 -7 -13 -7c-4 0 -7 3 -15 11c-18 19 -78 67 -88 74c-5 4 -9 6 -13 6s-9 -2 -15 -5c-28 -16 -76 -48 -106 -74c-10 -9 -15 -12 -20 -12s-9 4 -9 10c0 4 4 9 9 15c11 12 118 112 132 124c10 9 15 12 21 12z" />
    <glyph glyph-name="otilde" unicode="&#xf5;" horiz-adv-x="827" 
d="M408 -14c-256 0 -360 182 -360 333c0 145 102 333 369 333c222 0 360 -123 360 -318s-142 -348 -369 -348zM444 32c62 0 202 29 202 271c0 188 -113 304 -255 304c-98 0 -213 -52 -213 -262c0 -175 100 -313 266 -313zM484 718c-42 0 -69 17 -90 28c-18 10 -37 22 -64 22
c-39 0 -60 -27 -68 -36c-9 -9 -12 -10 -16 -10s-7 3 -7 7c0 5 5 15 8 19c15 24 56 77 104 77c35 0 57 -15 80 -28c25 -14 48 -22 72 -22c36 0 57 25 61 30c6 8 11 13 16 13c4 0 8 -3 8 -8s-3 -11 -6 -17c-9 -17 -51 -75 -98 -75z" />
    <glyph glyph-name="odieresis" unicode="&#xf6;" horiz-adv-x="827" 
d="M408 -14c-256 0 -360 182 -360 333c0 145 102 333 369 333c222 0 360 -123 360 -318s-142 -348 -369 -348zM444 32c62 0 202 29 202 271c0 188 -113 304 -255 304c-98 0 -213 -52 -213 -262c0 -175 100 -313 266 -313zM518 718c-32 0 -45 26 -45 47c0 20 14 47 46 47
c26 0 47 -16 47 -44s-19 -50 -48 -50zM307 718c-32 0 -45 26 -45 47c0 19 14 46 46 46c26 0 47 -16 47 -43c0 -28 -19 -50 -48 -50z" />
    <glyph glyph-name="divide" unicode="&#xf7;" horiz-adv-x="549" 
d="M326 420c0 -32 -21 -56 -54 -56h-1c-30 0 -52 24 -52 56c0 33 22 56 54 56s53 -23 53 -56zM509 223h-469v61h469v-61zM326 87c0 -32 -21 -56 -54 -56h-1c-30 0 -52 24 -52 56c0 33 22 56 54 56s53 -23 53 -56z" />
    <glyph glyph-name="oslash" unicode="&#xf8;" horiz-adv-x="822" 
d="M181 51l-74 -75c-3 -3 -6 -3 -9 0l-27 25c-4 3 -5 6 -2 9l75 72c-67 66 -96 156 -96 237c0 145 100 333 364 333c99 0 173 -22 231 -62l66 70c3 3 6 4 12 -2l25 -26c3 -3 2 -7 0 -9l-65 -65c59 -54 90 -130 90 -224c0 -195 -140 -348 -364 -348c-95 0 -174 21 -226 65z
M600 476l-351 -356c45 -59 110 -89 194 -89c61 0 198 30 198 271c0 70 -15 126 -41 174zM222 160l352 358c-47 65 -111 88 -185 88c-96 0 -210 -50 -210 -262c0 -70 14 -132 43 -184z" />
    <glyph glyph-name="ugrave" unicode="&#xf9;" horiz-adv-x="760" 
d="M106 269v125c0 129 1 153 -1 180c-2 30 -10 38 -38 46c-7 2 -22 3 -34 3c-10 0 -15 3 -15 9s6 8 19 8c47 0 106 -2 132 -2c22 0 81 2 113 2c13 0 19 -2 19 -8s-5 -9 -14 -9c-10 0 -15 -1 -26 -3c-23 -4 -30 -16 -32 -46c-2 -27 -2 -51 -2 -180v-119
c0 -124 24 -172 67 -206c39 -31 81 -34 111 -34c38 0 83 11 118 45c49 46 51 120 51 207v107c0 129 -1 153 -2 180c-2 29 -9 38 -37 46c-7 2 -22 3 -32 3s-15 3 -15 9s6 8 18 8c45 0 104 -2 105 -2c10 0 69 2 103 2c12 0 18 -2 18 -8s-5 -9 -15 -9s-15 -1 -26 -3
c-24 -4 -30 -16 -32 -46c-1 -27 -2 -51 -2 -180v-91c0 -95 -10 -195 -84 -256c-62 -52 -129 -61 -186 -61c-46 0 -137 2 -201 58c-45 39 -80 102 -80 225zM454 725c0 -5 -7 -7 -11 -7c-15 0 -186 75 -203 83c-19 8 -33 19 -33 25c0 5 5 7 13 9c19 6 54 19 67 25
c11 5 14 7 19 7s6 -8 16 -22c9 -12 65 -69 111 -102c10 -8 21 -11 21 -18z" />
    <glyph glyph-name="uacute" unicode="&#xfa;" horiz-adv-x="760" 
d="M106 269v125c0 129 1 153 -1 180c-2 30 -10 38 -38 46c-7 2 -22 3 -34 3c-10 0 -15 3 -15 9s6 8 19 8c47 0 106 -2 132 -2c22 0 81 2 113 2c13 0 19 -2 19 -8s-5 -9 -14 -9c-10 0 -15 -1 -26 -3c-23 -4 -30 -16 -32 -46c-2 -27 -2 -51 -2 -180v-119
c0 -124 24 -172 67 -206c39 -31 81 -34 111 -34c38 0 83 11 118 45c49 46 51 120 51 207v107c0 129 -1 153 -2 180c-2 29 -9 38 -37 46c-7 2 -22 3 -32 3s-15 3 -15 9s6 8 18 8c45 0 104 -2 105 -2c10 0 69 2 103 2c12 0 18 -2 18 -8s-5 -9 -15 -9s-15 -1 -26 -3
c-24 -4 -30 -16 -32 -46c-1 -27 -2 -51 -2 -180v-91c0 -95 -10 -195 -84 -256c-62 -52 -129 -61 -186 -61c-46 0 -137 2 -201 58c-45 39 -80 102 -80 225zM517 860c8 -14 17 -33 29 -60c6 -12 0 -15 -5 -15s-14 2 -34 0c-55 -7 -134 -39 -171 -59c-8 -4 -15 -8 -17 -8
s-6 2 -6 6s4 8 9 13c40 38 145 116 161 126c10 7 17 9 20 9c7 0 9 -3 14 -12z" />
    <glyph glyph-name="ucircumflex" unicode="&#xfb;" horiz-adv-x="760" 
d="M106 269v125c0 129 1 153 -1 180c-2 30 -10 38 -38 46c-7 2 -22 3 -34 3c-10 0 -15 3 -15 9s6 8 19 8c47 0 106 -2 132 -2c22 0 81 2 113 2c13 0 19 -2 19 -8s-5 -9 -14 -9c-10 0 -15 -1 -26 -3c-23 -4 -30 -16 -32 -46c-2 -27 -2 -51 -2 -180v-119
c0 -124 24 -172 67 -206c39 -31 81 -34 111 -34c38 0 83 11 118 45c49 46 51 120 51 207v107c0 129 -1 153 -2 180c-2 29 -9 38 -37 46c-7 2 -22 3 -32 3s-15 3 -15 9s6 8 18 8c45 0 104 -2 105 -2c10 0 69 2 103 2c12 0 18 -2 18 -8s-5 -9 -15 -9s-15 -1 -26 -3
c-24 -4 -30 -16 -32 -46c-1 -27 -2 -51 -2 -180v-91c0 -95 -10 -195 -84 -256c-62 -52 -129 -61 -186 -61c-46 0 -137 2 -201 58c-45 39 -80 102 -80 225zM386 869c3 0 7 -3 18 -11c8 -7 104 -79 119 -90c11 -8 14 -11 14 -14s-2 -7 -5 -10l-29 -29c-4 -4 -8 -7 -13 -7
c-4 0 -7 3 -15 11c-18 19 -78 67 -88 74c-5 4 -9 6 -13 6s-9 -2 -15 -5c-28 -16 -76 -48 -106 -74c-10 -9 -15 -12 -20 -12s-9 4 -9 10c0 4 4 9 9 15c11 12 118 112 132 124c10 9 15 12 21 12z" />
    <glyph glyph-name="udieresis" unicode="&#xfc;" horiz-adv-x="760" 
d="M106 269v125c0 129 1 153 -1 180c-2 30 -10 38 -38 46c-7 2 -22 3 -34 3c-10 0 -15 3 -15 9s6 8 19 8c47 0 106 -2 132 -2c22 0 81 2 113 2c13 0 19 -2 19 -8s-5 -9 -14 -9c-10 0 -15 -1 -26 -3c-23 -4 -30 -16 -32 -46c-2 -27 -2 -51 -2 -180v-119
c0 -124 24 -172 67 -206c39 -31 81 -34 111 -34c38 0 83 11 118 45c49 46 51 120 51 207v107c0 129 -1 153 -2 180c-2 29 -9 38 -37 46c-7 2 -22 3 -32 3s-15 3 -15 9s6 8 18 8c45 0 104 -2 105 -2c10 0 69 2 103 2c12 0 18 -2 18 -8s-5 -9 -15 -9s-15 -1 -26 -3
c-24 -4 -30 -16 -32 -46c-1 -27 -2 -51 -2 -180v-91c0 -95 -10 -195 -84 -256c-62 -52 -129 -61 -186 -61c-46 0 -137 2 -201 58c-45 39 -80 102 -80 225zM494 718c-32 0 -45 26 -45 47c0 20 14 47 46 47c26 0 47 -16 47 -44s-19 -50 -48 -50zM283 718c-32 0 -45 26 -45 47
c0 19 14 46 46 46c26 0 47 -16 47 -43c0 -28 -19 -50 -48 -50z" />
    <glyph glyph-name="yacute" unicode="&#xfd;" horiz-adv-x="590" 
d="M239 148v70c0 46 -8 64 -20 89c-6 13 -126 200 -157 245c-22 31 -40 51 -57 60c-11 6 -26 11 -37 11c-7 0 -13 3 -13 9s6 8 17 8c15 0 81 -2 110 -2c19 0 60 2 100 2c8 0 13 -2 13 -8c0 -7 -6 -7 -20 -11c-7 -2 -12 -6 -12 -13s4 -17 11 -29c16 -26 131 -225 146 -249
c11 20 118 202 131 228c9 19 13 34 13 45c0 8 -4 16 -19 19c-8 2 -16 3 -16 10c0 6 5 8 15 8c29 0 60 -2 86 -2c19 0 77 2 94 2c10 0 16 -2 16 -7c0 -6 -7 -10 -17 -10c-9 0 -25 -4 -38 -10c-19 -9 -27 -17 -46 -40c-29 -34 -155 -236 -171 -272c-13 -31 -11 -57 -11 -85
v-68c0 -14 0 -49 2 -85c2 -25 10 -41 36 -45c13 -2 32 -3 44 -3c10 0 15 -5 15 -9c0 -6 -7 -9 -19 -9c-55 0 -114 3 -138 3c-22 0 -81 -3 -114 -3c-12 0 -19 2 -19 9c0 4 4 9 14 9c12 0 23 1 31 3c18 4 25 20 27 45c3 36 3 71 3 85zM432 860c8 -14 17 -33 29 -60
c6 -12 0 -15 -5 -15s-14 2 -34 0c-55 -7 -134 -39 -171 -59c-8 -4 -15 -8 -17 -8s-6 2 -6 6s4 8 9 13c40 38 145 116 161 126c10 7 17 9 20 9c7 0 9 -3 14 -12z" />
    <glyph glyph-name="thorn" unicode="&#xfe;" horiz-adv-x="598" 
d="M144 244v150c0 129 0 153 -1 180c-2 29 -10 39 -38 46c-7 2 -22 3 -35 3c-9 0 -15 3 -15 9s7 8 20 8c46 0 102 -2 126 -2c22 0 85 2 131 2c10 0 17 -2 17 -8c0 -5 -7 -9 -14 -9s-21 -2 -33 -4c-28 -4 -39 -18 -40 -43c-1 -32 -1 -63 -1 -76c26 2 43 3 77 3
c113 0 161 -35 176 -48c20 -17 43 -56 43 -101c0 -120 -91 -202 -221 -202c-4 0 -22 0 -26 1c-5 0 -11 2 -11 8c0 7 8 11 25 11c56 0 119 55 119 135c0 28 -1 82 -49 128c-30 28 -67 29 -89 29c-15 0 -29 -2 -37 -6c-6 -1 -7 -7 -7 -16v-198c0 -78 0 -145 4 -182
c3 -24 8 -40 34 -44c13 -2 32 -3 43 -3c7 0 12 -5 12 -9c0 -6 -7 -9 -18 -9c-53 0 -116 3 -139 3c-20 0 -76 -3 -111 -3c-11 0 -17 3 -17 9c0 4 3 9 14 9c13 0 23 1 31 3c18 4 23 20 26 45c4 36 4 103 4 181z" />
    <glyph glyph-name="ydieresis" unicode="&#xff;" horiz-adv-x="590" 
d="M239 148v70c0 46 -8 64 -20 89c-6 13 -126 200 -157 245c-22 31 -40 51 -57 60c-11 6 -26 11 -37 11c-7 0 -13 3 -13 9s6 8 17 8c15 0 81 -2 110 -2c19 0 60 2 100 2c8 0 13 -2 13 -8c0 -7 -6 -7 -20 -11c-7 -2 -12 -6 -12 -13s4 -17 11 -29c16 -26 131 -225 146 -249
c11 20 118 202 131 228c9 19 13 34 13 45c0 8 -4 16 -19 19c-8 2 -16 3 -16 10c0 6 5 8 15 8c29 0 60 -2 86 -2c19 0 77 2 94 2c10 0 16 -2 16 -7c0 -6 -7 -10 -17 -10c-9 0 -25 -4 -38 -10c-19 -9 -27 -17 -46 -40c-29 -34 -155 -236 -171 -272c-13 -31 -11 -57 -11 -85
v-68c0 -14 0 -49 2 -85c2 -25 10 -41 36 -45c13 -2 32 -3 44 -3c10 0 15 -5 15 -9c0 -6 -7 -9 -19 -9c-55 0 -114 3 -138 3c-22 0 -81 -3 -114 -3c-12 0 -19 2 -19 9c0 4 4 9 14 9c12 0 23 1 31 3c18 4 25 20 27 45c3 36 3 71 3 85zM400 718c-32 0 -45 26 -45 47
c0 20 14 47 46 47c26 0 47 -16 47 -44s-19 -50 -48 -50zM189 718c-32 0 -45 26 -45 47c0 19 14 46 46 46c26 0 47 -16 47 -43c0 -28 -19 -50 -48 -50z" />
    <glyph glyph-name="Amacron" unicode="&#x100;" horiz-adv-x="700" 
d="M427 258h-223c-5 0 -7 -2 -9 -8l-54 -143c-10 -25 -15 -49 -15 -61c0 -18 9 -31 40 -31h15c12 0 15 -2 15 -8c0 -8 -6 -10 -17 -10c-32 0 -75 3 -106 3c-11 0 -66 -3 -118 -3c-13 0 -19 2 -19 10c0 6 4 8 12 8c9 0 23 1 31 2c46 6 65 40 85 90l251 628c12 29 18 40 28 40
c9 0 15 -9 25 -32c24 -55 184 -463 248 -615c38 -90 67 -104 88 -109c15 -3 30 -4 42 -4c8 0 13 -1 13 -8c0 -8 -9 -10 -46 -10c-36 0 -109 0 -189 2c-18 1 -30 1 -30 8c0 6 4 8 14 9c7 2 14 11 9 23l-80 212c-2 5 -5 7 -10 7zM224 308h184c5 0 6 3 5 6l-90 247
c-1 4 -2 9 -5 9s-5 -5 -6 -9l-92 -246c-1 -4 0 -7 4 -7zM465 857h-240c-7 0 -9 2 -8 7l8 36c2 7 4 9 11 9h240c7 0 10 -3 8 -10l-8 -36c-1 -4 -4 -6 -11 -6z" />
    <glyph glyph-name="amacron" unicode="&#x101;" 
d="M389 211h-207c-5 0 -6 -1 -8 -6l-47 -114c-9 -21 -13 -42 -13 -52c0 -15 8 -24 35 -24h13c11 0 13 -4 13 -9c0 -7 -5 -9 -14 -9c-29 0 -70 3 -98 3c-9 0 -56 -3 -102 -3c-11 0 -16 2 -16 9c0 5 3 9 10 9c8 0 18 1 26 1c40 6 55 32 73 75l230 535c10 24 17 34 26 34
c13 0 17 -8 26 -27l224 -524c34 -77 59 -88 75 -91c13 -2 23 -3 33 -3c8 0 12 -3 12 -9c0 -7 -5 -9 -38 -9c-31 0 -95 0 -169 2c-16 1 -26 1 -26 7c0 5 2 8 11 9c6 1 12 9 8 19l-68 171c-2 5 -5 6 -9 6zM200 258h170c4 0 5 2 4 5l-83 216c-1 3 -2 8 -4 8c-3 0 -4 -5 -5 -8
l-85 -215c-2 -4 0 -6 3 -6zM431 745h-240c-7 0 -9 2 -8 7l8 36c2 7 4 9 11 9h240c7 0 10 -3 8 -10l-8 -36c-1 -4 -4 -6 -11 -6z" />
    <glyph glyph-name="Abreve" unicode="&#x102;" horiz-adv-x="700" 
d="M427 258h-223c-5 0 -7 -2 -9 -8l-54 -143c-10 -25 -15 -49 -15 -61c0 -18 9 -31 40 -31h15c12 0 15 -2 15 -8c0 -8 -6 -10 -17 -10c-32 0 -75 3 -106 3c-11 0 -66 -3 -118 -3c-13 0 -19 2 -19 10c0 6 4 8 12 8c9 0 23 1 31 2c46 6 65 40 85 90l251 628c12 29 18 40 28 40
c9 0 15 -9 25 -32c24 -55 184 -463 248 -615c38 -90 67 -104 88 -109c15 -3 30 -4 42 -4c8 0 13 -1 13 -8c0 -8 -9 -10 -46 -10c-36 0 -109 0 -189 2c-18 1 -30 1 -30 8c0 6 4 8 14 9c7 2 14 11 9 23l-80 212c-2 5 -5 7 -10 7zM224 308h184c5 0 6 3 5 6l-90 247
c-1 4 -2 9 -5 9s-5 -5 -6 -9l-92 -246c-1 -4 0 -7 4 -7zM197 921c0 6 5 8 8 10l33 26c7 6 10 7 13 7c6 0 12 -13 21 -23c35 -41 66 -44 92 -44c44 0 78 21 88 28c31 24 37 37 44 37c5 0 8 -4 8 -9c0 -15 -40 -59 -63 -74c-33 -22 -58 -34 -108 -34c-28 0 -70 12 -99 36
c-15 12 -37 32 -37 40z" />
    <glyph glyph-name="abreve" unicode="&#x103;" 
d="M389 211h-207c-5 0 -6 -1 -8 -6l-47 -114c-9 -21 -13 -42 -13 -52c0 -15 8 -24 35 -24h13c11 0 13 -4 13 -9c0 -7 -5 -9 -14 -9c-29 0 -70 3 -98 3c-9 0 -56 -3 -102 -3c-11 0 -16 2 -16 9c0 5 3 9 10 9c8 0 18 1 26 1c40 6 55 32 73 75l230 535c10 24 17 34 26 34
c13 0 17 -8 26 -27l224 -524c34 -77 59 -88 75 -91c13 -2 23 -3 33 -3c8 0 12 -3 12 -9c0 -7 -5 -9 -38 -9c-31 0 -95 0 -169 2c-16 1 -26 1 -26 7c0 5 2 8 11 9c6 1 12 9 8 19l-68 171c-2 5 -5 6 -9 6zM200 258h170c4 0 5 2 4 5l-83 216c-1 3 -2 8 -4 8c-3 0 -4 -5 -5 -8
l-85 -215c-2 -4 0 -6 3 -6zM163 794c0 6 5 8 8 10l33 26c7 6 10 7 13 7c6 0 12 -13 21 -23c35 -41 66 -44 92 -44c44 0 78 21 88 28c31 24 37 37 44 37c5 0 8 -4 8 -9c0 -15 -40 -59 -63 -74c-33 -22 -58 -34 -108 -34c-28 0 -70 12 -99 36c-15 12 -37 32 -37 40z" />
    <glyph glyph-name="Aogonek" unicode="&#x104;" horiz-adv-x="700" 
d="M224 308h184c5 0 6 3 5 6l-90 247c-1 4 -2 9 -5 9s-5 -5 -6 -9l-92 -246c-1 -4 0 -7 4 -7zM554 -170c38 0 56 33 66 33c5 0 9 -3 9 -8c0 -4 -4 -11 -8 -16c-10 -11 -56 -66 -124 -66c-61 0 -91 22 -91 76c0 60 81 132 106 146c9 5 12 13 12 22c0 7 -4 13 -7 22l-80 212
c-2 5 -5 7 -10 7h-223c-5 0 -7 -2 -9 -8l-54 -143c-10 -25 -15 -49 -15 -61c0 -18 9 -31 40 -31h15c12 0 15 -2 15 -8c0 -8 -6 -10 -17 -10c-32 0 -75 3 -106 3c-11 0 -66 -3 -118 -3c-13 0 -19 2 -19 10c0 6 4 8 12 8c9 0 23 1 31 2c46 6 65 40 85 90l251 628
c12 29 18 40 28 40c9 0 15 -9 25 -32c24 -55 184 -463 248 -615c38 -90 67 -104 88 -109c15 -3 30 -4 42 -4c8 0 13 -1 13 -8c0 -8 -9 -10 -46 -10c-32 0 -121 10 -154 -6c-44 -21 -63 -72 -63 -112c0 -33 21 -49 58 -49z" />
    <glyph glyph-name="aogonek" unicode="&#x105;" 
d="M200 258h170c4 0 5 2 4 5l-83 216c-1 3 -2 8 -4 8c-3 0 -4 -5 -5 -8l-85 -215c-2 -4 0 -6 3 -6zM488 -170c38 0 56 33 66 33c5 0 9 -3 9 -8c0 -4 -4 -11 -8 -16c-10 -11 -56 -66 -124 -66c-61 0 -91 22 -91 76c0 81 130 158 130 168c0 6 0 7 -4 17l-68 171
c-2 5 -5 6 -9 6h-207c-5 0 -6 -1 -8 -6l-47 -114c-9 -21 -13 -42 -13 -52c0 -15 8 -24 35 -24h13c11 0 13 -4 13 -9c0 -7 -5 -9 -14 -9c-29 0 -70 3 -98 3c-9 0 -56 -3 -102 -3c-11 0 -16 2 -16 9c0 5 3 9 10 9c8 0 18 1 26 1c40 6 55 32 73 75l230 535c10 24 17 34 26 34
c13 0 17 -8 26 -27l224 -524c34 -77 59 -88 75 -91c13 -2 23 -3 33 -3c8 0 12 -3 12 -9c0 -7 -5 -9 -38 -9c-7 0 -26 1 -47 2c-21 0 -45 1 -62 1c-36 0 -103 -36 -103 -121c0 -33 21 -49 58 -49z" />
    <glyph glyph-name="Cacute" unicode="&#x106;" horiz-adv-x="800" 
d="M522 -17c-137 0 -252 30 -343 109c-98 86 -124 198 -124 295c0 68 21 186 117 274c72 66 167 106 316 106c62 0 99 -4 145 -10c38 -5 70 -14 100 -17c11 -1 15 -6 15 -12c0 -8 -3 -20 -5 -55c-2 -33 -1 -88 -3 -108c-1 -15 -3 -23 -12 -23c-8 0 -10 8 -10 22
c-1 31 -14 66 -39 92c-33 35 -111 62 -203 62c-87 0 -144 -22 -188 -62c-73 -67 -92 -162 -92 -259c0 -238 181 -356 315 -356c89 0 143 10 183 56c17 19 30 48 34 66c3 16 5 20 13 20c7 0 9 -7 9 -15c0 -12 -12 -99 -22 -133c-5 -17 -9 -22 -26 -29
c-40 -16 -116 -23 -180 -23zM591 972c8 -14 17 -33 29 -60c6 -12 0 -15 -5 -15s-14 2 -34 0c-55 -7 -134 -39 -171 -59c-8 -4 -15 -8 -17 -8s-6 2 -6 6s4 8 9 13c40 38 145 116 161 126c10 7 17 9 20 9c7 0 9 -3 14 -12z" />
    <glyph glyph-name="cacute" unicode="&#x107;" horiz-adv-x="705" 
d="M460 -14c-120 0 -222 25 -302 92c-87 73 -110 169 -110 251c0 58 19 158 103 233c64 56 148 90 279 90c55 0 88 -4 128 -9c33 -5 62 -11 88 -14c10 -1 13 -5 13 -10c0 -7 -2 -17 -4 -47c-2 -28 -2 -75 -3 -92c-1 -12 -4 -21 -12 -21c-7 0 -9 7 -9 18c-1 27 -12 57 -34 79
c-30 29 -89 50 -170 50c-77 0 -126 -14 -166 -48c-65 -56 -81 -138 -81 -221c0 -202 156 -298 274 -298c78 0 121 6 156 45c15 17 27 41 30 57c2 13 4 17 11 17c6 0 10 -8 10 -15c0 -10 -10 -84 -19 -113c-4 -15 -8 -19 -23 -25c-35 -14 -102 -19 -159 -19zM539 860
c8 -14 17 -33 29 -60c6 -12 0 -15 -5 -15s-14 2 -34 0c-55 -7 -134 -39 -171 -59c-8 -4 -15 -8 -17 -8s-6 2 -6 6s4 8 9 13c40 38 145 116 161 126c10 7 17 9 20 9c7 0 9 -3 14 -12z" />
    <glyph glyph-name="Ccaron" unicode="&#x10c;" horiz-adv-x="800" 
d="M522 -17c-137 0 -252 30 -343 109c-98 86 -124 198 -124 295c0 68 21 186 117 274c72 66 167 106 316 106c62 0 99 -4 145 -10c38 -5 70 -14 100 -17c11 -1 15 -6 15 -12c0 -8 -3 -20 -5 -55c-2 -33 -1 -88 -3 -108c-1 -15 -3 -23 -12 -23c-8 0 -10 8 -10 22
c-1 31 -14 66 -39 92c-33 35 -111 62 -203 62c-87 0 -144 -22 -188 -62c-73 -67 -92 -162 -92 -259c0 -238 181 -356 315 -356c89 0 143 10 183 56c17 19 30 48 34 66c3 16 5 20 13 20c7 0 9 -7 9 -15c0 -12 -12 -99 -22 -133c-5 -17 -9 -22 -26 -29
c-40 -16 -116 -23 -180 -23zM308 945l29 29c4 4 8 7 11 7c4 0 8 -2 17 -11c19 -19 78 -67 88 -74c5 -4 9 -6 13 -6s10 1 15 4c28 17 76 51 104 74c12 10 17 13 22 13s9 -4 9 -10c0 -4 -3 -9 -9 -15c-11 -12 -118 -112 -132 -124c-10 -9 -15 -12 -21 -12c-3 0 -7 3 -18 11
c-8 7 -104 79 -119 90c-11 8 -14 11 -14 14s2 7 5 10z" />
    <glyph glyph-name="ccaron" unicode="&#x10d;" horiz-adv-x="705" 
d="M460 -14c-120 0 -222 25 -302 92c-87 73 -110 169 -110 251c0 58 19 158 103 233c64 56 148 90 279 90c55 0 88 -4 128 -9c33 -5 62 -11 88 -14c10 -1 13 -5 13 -10c0 -7 -2 -17 -4 -47c-2 -28 -2 -75 -3 -92c-1 -12 -4 -21 -12 -21c-7 0 -9 7 -9 18c-1 27 -12 57 -34 79
c-30 29 -89 50 -170 50c-77 0 -126 -14 -166 -48c-65 -56 -81 -138 -81 -221c0 -202 156 -298 274 -298c78 0 121 6 156 45c15 17 27 41 30 57c2 13 4 17 11 17c6 0 10 -8 10 -15c0 -10 -10 -84 -19 -113c-4 -15 -8 -19 -23 -25c-35 -14 -102 -19 -159 -19zM261 833l29 29
c4 4 8 7 11 7c4 0 8 -2 17 -11c19 -19 78 -67 88 -74c5 -4 9 -6 13 -6s10 1 15 4c28 17 76 51 104 74c12 10 17 13 22 13s9 -4 9 -10c0 -4 -3 -9 -9 -15c-11 -12 -118 -112 -132 -124c-10 -9 -15 -12 -21 -12c-3 0 -7 3 -18 11c-8 7 -104 79 -119 90c-11 8 -14 11 -14 14
s2 7 5 10z" />
    <glyph glyph-name="Dcaron" unicode="&#x10e;" horiz-adv-x="936" 
d="M164 287v176c0 152 0 180 -2 212c-2 34 -10 50 -43 57c-8 2 -25 3 -39 3c-11 0 -17 2 -17 9s7 9 22 9c53 0 116 -3 144 -3c31 0 94 3 154 3c125 0 292 0 401 -114c50 -52 97 -135 97 -254c0 -126 -53 -222 -109 -279c-46 -47 -150 -118 -335 -118c-36 0 -77 3 -115 6
s-73 6 -98 6c-11 0 -33 0 -57 -1c-23 0 -49 -2 -69 -2c-13 0 -20 3 -20 10c0 5 4 8 16 8c15 0 27 2 36 4c20 4 25 26 29 55c5 42 5 121 5 213zM289 479v-126c0 -106 1 -183 2 -202c1 -25 3 -65 11 -76c13 -19 52 -40 131 -40c102 0 170 20 230 72c64 55 84 146 84 249
c0 127 -53 209 -96 250c-92 88 -206 100 -284 100c-20 0 -57 -3 -65 -7c-9 -4 -12 -9 -12 -20c-1 -34 -1 -121 -1 -200zM296 945l29 29c4 4 8 7 11 7c4 0 8 -2 17 -11c19 -19 78 -67 88 -74c5 -4 9 -6 13 -6s10 1 15 4c28 17 76 51 104 74c12 10 17 13 22 13s9 -4 9 -10
c0 -4 -3 -9 -9 -15c-11 -12 -118 -112 -132 -124c-10 -9 -15 -12 -21 -12c-3 0 -7 3 -18 11c-8 7 -104 79 -119 90c-11 8 -14 11 -14 14s2 7 5 10z" />
    <glyph glyph-name="dcaron" unicode="&#x10f;" horiz-adv-x="831" 
d="M144 244v150c0 129 0 153 -1 180c-2 29 -10 38 -38 46c-7 2 -22 3 -35 3c-9 0 -15 3 -15 9s7 8 20 8c46 0 102 -2 127 -2c27 0 90 2 143 2c110 0 258 0 354 -97c44 -44 83 -115 83 -216c0 -107 -46 -188 -96 -237c-40 -40 -133 -100 -295 -100c-32 0 -70 3 -105 5
c-35 3 -67 5 -89 5c-10 0 -29 -1 -50 -1c-21 -1 -43 -2 -61 -2c-11 0 -17 3 -17 9c0 4 3 9 14 9c13 0 23 1 31 3c18 4 23 20 26 45c4 36 4 103 4 181zM262 407v-107c0 -90 1 -155 2 -172c1 -21 3 -51 10 -60c11 -16 46 -34 115 -34c80 0 139 14 192 58c57 47 75 123 75 211
c0 108 -43 178 -82 212c-81 72 -177 81 -246 81c-18 0 -47 -2 -54 -6c-8 -3 -11 -7 -11 -17c-1 -29 -1 -99 -1 -166zM244 833l29 29c4 4 8 7 11 7c4 0 8 -2 17 -11c19 -19 78 -67 88 -74c5 -4 9 -6 13 -6s10 1 15 4c28 17 76 51 104 74c12 10 17 13 22 13s9 -4 9 -10
c0 -4 -3 -9 -9 -15c-11 -12 -118 -112 -132 -124c-10 -9 -15 -12 -21 -12c-3 0 -7 3 -18 11c-8 7 -104 79 -119 90c-11 8 -14 11 -14 14s2 7 5 10z" />
    <glyph glyph-name="Dcroat" unicode="&#x110;" horiz-adv-x="936" 
d="M164 353h-101c-6 0 -6 5 -5 12l5 30c1 7 5 10 13 10h88v58c0 152 0 180 -2 212c-2 34 -10 50 -43 57c-8 2 -25 3 -39 3c-11 0 -17 2 -17 9s7 9 22 9c53 0 116 -3 144 -3c31 0 94 3 154 3c125 0 292 0 401 -114c50 -52 97 -135 97 -254c0 -126 -52 -223 -108 -281
c-46 -47 -167 -116 -320 -116c-34 0 -83 3 -128 6c-44 3 -84 6 -101 6c-11 0 -33 0 -57 -1c-23 0 -49 -2 -69 -2c-13 0 -20 3 -20 10c0 5 4 8 16 8c15 0 27 2 36 4c20 4 25 26 29 55c5 42 5 121 5 213v66zM289 406h200c7 0 8 -4 7 -12l-6 -33c-1 -6 -5 -9 -12 -9h-189v-46
c0 -58 1 -135 2 -154c1 -25 3 -65 11 -76c13 -19 52 -41 131 -41c101 0 175 22 234 75c57 51 80 142 80 246c0 127 -53 209 -96 250c-92 88 -206 100 -284 100c-20 0 -57 -3 -65 -7c-9 -4 -12 -9 -12 -20c-1 -34 -1 -121 -1 -200v-73z" />
    <glyph glyph-name="dcroat" unicode="&#x111;" horiz-adv-x="833" 
d="M144 298h-89c-5 0 -5 4 -4 10l4 30c1 6 5 8 12 8h77v48c0 129 0 153 -1 180c-2 29 -10 38 -38 46c-7 2 -22 3 -35 3c-9 0 -15 3 -15 9s7 8 20 8c46 0 102 -2 127 -2c27 0 90 2 143 2c110 0 258 0 354 -97c44 -44 85 -115 85 -216c0 -107 -45 -189 -95 -239
c-41 -40 -148 -98 -282 -98c-30 0 -75 2 -117 5c-41 2 -78 5 -93 5c-10 0 -29 -1 -50 -1c-21 -1 -43 -2 -61 -2c-11 0 -17 3 -17 9c0 4 3 9 14 9c13 0 23 1 31 3c18 4 23 20 26 45c4 36 4 103 4 181v54zM262 347h176c6 0 7 -3 6 -10l-5 -32c-1 -5 -4 -8 -10 -8h-167v-39
c0 -49 1 -109 2 -125c1 -21 4 -55 10 -64c12 -17 45 -35 114 -35c89 0 148 14 200 60c50 43 70 120 70 209c0 108 -46 177 -84 212c-81 75 -174 81 -239 81c-29 0 -53 -3 -61 -6s-11 -7 -11 -17c-1 -29 -1 -99 -1 -166v-60z" />
    <glyph glyph-name="Emacron" unicode="&#x112;" 
d="M164 287v176c0 152 0 180 -2 212c-2 34 -10 50 -43 57c-8 2 -25 3 -39 3c-11 0 -17 2 -17 9s7 9 22 9c27 0 56 -1 81 -1c26 -1 49 -2 63 -2c32 0 231 0 250 1c19 2 35 4 43 6c5 1 11 4 16 4s6 -4 6 -9c0 -7 -5 -19 -8 -65c-1 -10 -3 -54 -5 -66c-1 -5 -3 -11 -10 -11
s-9 5 -9 14c0 7 -1 24 -6 36c-7 18 -17 30 -67 36c-17 2 -122 4 -142 4c-5 0 -7 -3 -7 -10v-253c0 -7 1 -11 7 -11c22 0 137 0 160 2c24 2 39 5 48 15c7 8 11 13 16 13c4 0 7 -2 7 -8s-4 -22 -8 -73c-1 -20 -4 -60 -4 -67c0 -8 0 -19 -9 -19c-7 0 -9 4 -9 9
c-1 10 -1 23 -4 36c-5 20 -19 35 -56 39c-19 2 -118 3 -142 3c-5 0 -6 -4 -6 -10v-79c0 -34 -1 -126 0 -155c2 -69 18 -84 120 -84c26 0 68 0 94 12s38 33 45 74c2 11 4 15 11 15c8 0 8 -8 8 -18c0 -23 -8 -91 -13 -111c-7 -26 -16 -26 -54 -26c-75 0 -130 2 -173 3
c-43 2 -74 3 -104 3c-11 0 -33 0 -57 -1c-23 0 -49 -2 -69 -2c-13 0 -20 3 -20 10c0 5 4 8 16 8c15 0 27 2 36 4c20 4 25 26 29 55c5 42 5 121 5 213zM450 857h-240c-7 0 -9 2 -8 7l8 36c2 7 4 9 11 9h240c7 0 10 -3 8 -10l-8 -36c-1 -4 -4 -6 -11 -6z" />
    <glyph glyph-name="emacron" unicode="&#x113;" horiz-adv-x="576" 
d="M144 244v150c0 129 0 153 -1 180c-2 29 -10 38 -38 46c-7 2 -22 3 -35 3c-9 0 -15 3 -15 9s7 8 20 8c46 0 102 -2 127 -2c28 0 223 -1 240 0c16 1 30 4 37 5c5 1 10 4 14 4c5 0 6 -4 6 -8c0 -6 -5 -16 -7 -55c-1 -9 -3 -46 -5 -56c-1 -4 -3 -14 -10 -14c-6 0 -7 4 -7 11
c0 6 -1 21 -6 31c-7 15 -14 27 -58 31c-15 2 -120 4 -138 4c-4 0 -6 -3 -6 -8v-210c0 -5 1 -9 6 -9c20 0 134 0 154 2c21 2 34 4 42 13c7 6 10 11 14 11s7 -4 7 -9s-2 -19 -7 -62c-2 -17 -4 -51 -4 -57c0 -7 -1 -19 -9 -19c-6 0 -8 3 -8 7c-1 9 -1 20 -3 31
c-5 17 -16 30 -49 33c-16 2 -116 4 -138 4c-4 0 -5 -4 -5 -9v-68c0 -29 -1 -101 0 -126c2 -58 29 -71 119 -71c23 0 60 1 83 11c22 10 32 28 38 63c2 9 4 13 10 13c7 0 8 -11 8 -20c0 -19 -7 -77 -12 -94c-6 -22 -14 -22 -47 -22c-66 0 -119 1 -162 3c-43 1 -76 2 -102 2
c-10 0 -29 -1 -50 -1c-21 -1 -43 -2 -61 -2c-11 0 -17 3 -17 9c0 4 3 9 14 9c13 0 23 1 31 3c18 4 23 20 26 45c4 36 4 103 4 181zM422 745h-240c-7 0 -9 2 -8 7l8 36c2 7 4 9 11 9h240c7 0 10 -3 8 -10l-8 -36c-1 -4 -4 -6 -11 -6z" />
    <glyph glyph-name="Edotaccent" unicode="&#x116;" 
d="M164 287v176c0 152 0 180 -2 212c-2 34 -10 50 -43 57c-8 2 -25 3 -39 3c-11 0 -17 2 -17 9s7 9 22 9c27 0 56 -1 81 -1c26 -1 49 -2 63 -2c32 0 231 0 250 1c19 2 35 4 43 6c5 1 11 4 16 4s6 -4 6 -9c0 -7 -5 -19 -8 -65c-1 -10 -3 -54 -5 -66c-1 -5 -3 -11 -10 -11
s-9 5 -9 14c0 7 -1 24 -6 36c-7 18 -17 30 -67 36c-17 2 -122 4 -142 4c-5 0 -7 -3 -7 -10v-253c0 -7 1 -11 7 -11c22 0 137 0 160 2c24 2 39 5 48 15c7 8 11 13 16 13c4 0 7 -2 7 -8s-4 -22 -8 -73c-1 -20 -4 -60 -4 -67c0 -8 0 -19 -9 -19c-7 0 -9 4 -9 9
c-1 10 -1 23 -4 36c-5 20 -19 35 -56 39c-19 2 -118 3 -142 3c-5 0 -6 -4 -6 -10v-79c0 -34 -1 -126 0 -155c2 -69 18 -84 120 -84c26 0 68 0 94 12s38 33 45 74c2 11 4 15 11 15c8 0 8 -8 8 -18c0 -23 -8 -91 -13 -111c-7 -26 -16 -26 -54 -26c-75 0 -130 2 -173 3
c-43 2 -74 3 -104 3c-11 0 -33 0 -57 -1c-23 0 -49 -2 -69 -2c-13 0 -20 3 -20 10c0 5 4 8 16 8c15 0 27 2 36 4c20 4 25 26 29 55c5 42 5 121 5 213zM340 830c-40 0 -56 31 -56 56s16 58 56 58c32 0 57 -21 57 -54s-23 -60 -57 -60z" />
    <glyph glyph-name="edotaccent" unicode="&#x117;" horiz-adv-x="576" 
d="M144 244v150c0 129 0 153 -1 180c-2 29 -10 38 -38 46c-7 2 -22 3 -35 3c-9 0 -15 3 -15 9s7 8 20 8c46 0 102 -2 127 -2c28 0 223 -1 240 0c16 1 30 4 37 5c5 1 10 4 14 4c5 0 6 -4 6 -8c0 -6 -5 -16 -7 -55c-1 -9 -3 -46 -5 -56c-1 -4 -3 -14 -10 -14c-6 0 -7 4 -7 11
c0 6 -1 21 -6 31c-7 15 -14 27 -58 31c-15 2 -120 4 -138 4c-4 0 -6 -3 -6 -8v-210c0 -5 1 -9 6 -9c20 0 134 0 154 2c21 2 34 4 42 13c7 6 10 11 14 11s7 -4 7 -9s-2 -19 -7 -62c-2 -17 -4 -51 -4 -57c0 -7 -1 -19 -9 -19c-6 0 -8 3 -8 7c-1 9 -1 20 -3 31
c-5 17 -16 30 -49 33c-16 2 -116 4 -138 4c-4 0 -5 -4 -5 -9v-68c0 -29 -1 -101 0 -126c2 -58 29 -71 119 -71c23 0 60 1 83 11c22 10 32 28 38 63c2 9 4 13 10 13c7 0 8 -11 8 -20c0 -19 -7 -77 -12 -94c-6 -22 -14 -22 -47 -22c-66 0 -119 1 -162 3c-43 1 -76 2 -102 2
c-10 0 -29 -1 -50 -1c-21 -1 -43 -2 -61 -2c-11 0 -17 3 -17 9c0 4 3 9 14 9c13 0 23 1 31 3c18 4 23 20 26 45c4 36 4 103 4 181zM317 718c-40 0 -56 31 -56 56s16 58 56 58c32 0 57 -21 57 -54s-23 -60 -57 -60z" />
    <glyph glyph-name="Eogonek" unicode="&#x118;" 
d="M480 -170c38 0 56 33 66 33c5 0 9 -3 9 -8c0 -4 -4 -11 -8 -16c-10 -11 -56 -66 -124 -66c-61 0 -91 22 -91 76c0 53 73 124 104 145c-44 1 -78 2 -108 3c-43 1 -74 3 -104 3c-11 0 -33 0 -57 -1c-23 0 -49 -2 -69 -2c-13 0 -20 3 -20 10c0 5 4 8 16 8c15 0 27 2 36 4
c20 4 25 26 29 55c5 42 5 121 5 213v176c0 152 0 180 -2 212c-2 34 -10 50 -43 57c-8 2 -25 3 -39 3c-11 0 -17 2 -17 9s7 9 22 9c27 0 56 -1 81 -1c26 -1 49 -2 63 -2c32 0 231 0 250 1c19 2 35 4 43 6c5 1 11 4 16 4s6 -4 6 -9c0 -7 -5 -19 -8 -65c-1 -10 -3 -54 -5 -66
c-1 -5 -3 -11 -10 -11s-9 5 -9 14c0 7 -1 24 -6 36c-7 18 -17 30 -67 36c-17 2 -122 4 -142 4c-5 0 -7 -3 -7 -10v-253c0 -7 1 -11 7 -11c22 0 137 0 160 2c24 2 39 5 48 15c7 8 11 13 16 13c4 0 7 -2 7 -8s-4 -22 -8 -73c-1 -20 -4 -60 -4 -67c0 -8 0 -19 -9 -19
c-7 0 -9 4 -9 9c-1 10 -1 23 -4 36c-5 20 -19 35 -56 39c-19 2 -118 3 -142 3c-5 0 -6 -4 -6 -10v-79c0 -34 -1 -126 0 -155c2 -69 18 -84 120 -84c26 0 68 0 94 12s38 33 45 74c2 11 4 15 11 15c8 0 8 -8 8 -18c0 -23 -8 -91 -13 -111c-7 -26 -36 -20 -63 -26
c-40 -9 -70 -69 -70 -115c0 -33 21 -49 58 -49z" />
    <glyph glyph-name="eogonek" unicode="&#x119;" horiz-adv-x="576" 
d="M433 -170c38 0 56 33 66 33c5 0 9 -3 9 -8c0 -4 -4 -11 -8 -16c-10 -11 -56 -66 -124 -66c-61 0 -91 22 -91 76s77 128 106 147c-35 1 -65 1 -92 2c-43 1 -76 2 -102 2c-10 0 -29 -1 -50 -1s-43 -2 -61 -2c-11 0 -17 3 -17 9c0 4 3 9 14 9c13 0 23 1 31 3
c18 4 23 20 26 45c4 36 4 103 4 181v150c0 129 0 153 -1 180c-2 29 -10 38 -38 46c-7 2 -22 3 -35 3c-9 0 -15 3 -15 9s7 8 20 8c46 0 102 -2 127 -2c28 0 223 -1 240 0c16 1 30 4 37 5c5 1 10 4 14 4c5 0 6 -4 6 -8c0 -6 -5 -16 -7 -55c-1 -9 -3 -46 -5 -56
c-1 -4 -3 -14 -10 -14c-6 0 -7 4 -7 11c0 6 -1 21 -6 31c-7 15 -14 27 -58 31c-15 2 -120 4 -138 4c-4 0 -6 -3 -6 -8v-210c0 -5 1 -9 6 -9c20 0 134 0 154 2c21 2 34 4 42 13c7 6 10 11 14 11s7 -4 7 -9s-2 -19 -7 -62c-2 -17 -4 -51 -4 -57c0 -7 -1 -19 -9 -19
c-6 0 -8 3 -8 7c-1 9 -1 20 -3 31c-5 17 -16 30 -49 33c-16 2 -116 4 -138 4c-4 0 -5 -4 -5 -9v-68c0 -29 -1 -101 0 -126c2 -58 29 -71 119 -71c23 0 60 1 83 11c22 10 32 28 38 63c2 9 4 13 10 13c7 0 8 -11 8 -20c0 -19 -7 -77 -12 -94c-6 -22 -26 -16 -58 -22
c-45 -8 -75 -64 -75 -116c0 -33 21 -49 58 -49z" />
    <glyph glyph-name="Ecaron" unicode="&#x11a;" 
d="M164 287v176c0 152 0 180 -2 212c-2 34 -10 50 -43 57c-8 2 -25 3 -39 3c-11 0 -17 2 -17 9s7 9 22 9c27 0 56 -1 81 -1c26 -1 49 -2 63 -2c32 0 231 0 250 1c19 2 35 4 43 6c5 1 11 4 16 4s6 -4 6 -9c0 -7 -5 -19 -8 -65c-1 -10 -3 -54 -5 -66c-1 -5 -3 -11 -10 -11
s-9 5 -9 14c0 7 -1 24 -6 36c-7 18 -17 30 -67 36c-17 2 -122 4 -142 4c-5 0 -7 -3 -7 -10v-253c0 -7 1 -11 7 -11c22 0 137 0 160 2c24 2 39 5 48 15c7 8 11 13 16 13c4 0 7 -2 7 -8s-4 -22 -8 -73c-1 -20 -4 -60 -4 -67c0 -8 0 -19 -9 -19c-7 0 -9 4 -9 9
c-1 10 -1 23 -4 36c-5 20 -19 35 -56 39c-19 2 -118 3 -142 3c-5 0 -6 -4 -6 -10v-79c0 -34 -1 -126 0 -155c2 -69 18 -84 120 -84c26 0 68 0 94 12s38 33 45 74c2 11 4 15 11 15c8 0 8 -8 8 -18c0 -23 -8 -91 -13 -111c-7 -26 -16 -26 -54 -26c-75 0 -130 2 -173 3
c-43 2 -74 3 -104 3c-11 0 -33 0 -57 -1c-23 0 -49 -2 -69 -2c-13 0 -20 3 -20 10c0 5 4 8 16 8c15 0 27 2 36 4c20 4 25 26 29 55c5 42 5 121 5 213zM194 945l29 29c4 4 8 7 11 7c4 0 8 -2 17 -11c19 -19 78 -67 88 -74c5 -4 9 -6 13 -6s10 1 15 4c28 17 76 51 104 74
c12 10 17 13 22 13s9 -4 9 -10c0 -4 -3 -9 -9 -15c-11 -12 -118 -112 -132 -124c-10 -9 -15 -12 -21 -12c-3 0 -7 3 -18 11c-8 7 -104 79 -119 90c-11 8 -14 11 -14 14s2 7 5 10z" />
    <glyph glyph-name="ecaron" unicode="&#x11b;" horiz-adv-x="576" 
d="M144 244v150c0 129 0 153 -1 180c-2 29 -10 38 -38 46c-7 2 -22 3 -35 3c-9 0 -15 3 -15 9s7 8 20 8c46 0 102 -2 127 -2c28 0 223 -1 240 0c16 1 30 4 37 5c5 1 10 4 14 4c5 0 6 -4 6 -8c0 -6 -5 -16 -7 -55c-1 -9 -3 -46 -5 -56c-1 -4 -3 -14 -10 -14c-6 0 -7 4 -7 11
c0 6 -1 21 -6 31c-7 15 -14 27 -58 31c-15 2 -120 4 -138 4c-4 0 -6 -3 -6 -8v-210c0 -5 1 -9 6 -9c20 0 134 0 154 2c21 2 34 4 42 13c7 6 10 11 14 11s7 -4 7 -9s-2 -19 -7 -62c-2 -17 -4 -51 -4 -57c0 -7 -1 -19 -9 -19c-6 0 -8 3 -8 7c-1 9 -1 20 -3 31
c-5 17 -16 30 -49 33c-16 2 -116 4 -138 4c-4 0 -5 -4 -5 -9v-68c0 -29 -1 -101 0 -126c2 -58 29 -71 119 -71c23 0 60 1 83 11c22 10 32 28 38 63c2 9 4 13 10 13c7 0 8 -11 8 -20c0 -19 -7 -77 -12 -94c-6 -22 -14 -22 -47 -22c-66 0 -119 1 -162 3c-43 1 -76 2 -102 2
c-10 0 -29 -1 -50 -1c-21 -1 -43 -2 -61 -2c-11 0 -17 3 -17 9c0 4 3 9 14 9c13 0 23 1 31 3c18 4 23 20 26 45c4 36 4 103 4 181zM166 833l29 29c4 4 8 7 11 7c4 0 8 -2 17 -11c19 -19 78 -67 88 -74c5 -4 9 -6 13 -6s10 1 15 4c28 17 76 51 104 74c12 10 17 13 22 13
s9 -4 9 -10c0 -4 -3 -9 -9 -15c-11 -12 -118 -112 -132 -124c-10 -9 -15 -12 -21 -12c-3 0 -7 3 -18 11c-8 7 -104 79 -119 90c-11 8 -14 11 -14 14s2 7 5 10z" />
    <glyph glyph-name="Gbreve" unicode="&#x11e;" horiz-adv-x="886" 
d="M771 174v-110c0 -27 -1 -29 -13 -36c-65 -34 -163 -45 -241 -45c-245 0 -462 116 -462 392c0 160 83 272 174 327c96 58 185 65 269 65c69 0 157 -12 177 -16c21 -4 56 -10 79 -11c12 -1 14 -5 14 -12c0 -11 -7 -39 -7 -164c0 -16 -3 -21 -11 -21c-7 0 -9 5 -10 13
c-3 23 -8 55 -34 83c-30 32 -110 78 -223 78c-55 0 -128 -4 -198 -62c-56 -47 -92 -122 -92 -245c0 -215 137 -376 348 -376c26 0 61 0 85 11c15 7 19 20 19 37v94c0 50 0 88 -1 118c-1 34 -10 50 -43 57c-8 2 -25 3 -39 3c-9 0 -15 2 -15 8c0 8 7 10 21 10
c52 0 115 -3 145 -3c31 0 84 3 117 3c13 0 20 -2 20 -10c0 -6 -6 -8 -13 -8c-8 0 -15 -1 -27 -3c-27 -5 -37 -22 -38 -57c-1 -30 -1 -70 -1 -120zM330 906c0 6 5 8 8 10l33 26c7 6 10 7 13 7c6 0 12 -13 21 -23c35 -41 66 -44 92 -44c44 0 78 21 88 28c31 24 37 37 44 37
c5 0 8 -4 8 -9c0 -15 -40 -59 -63 -74c-33 -22 -58 -34 -108 -34c-28 0 -70 12 -99 36c-15 12 -37 32 -37 40z" />
    <glyph glyph-name="gbreve" unicode="&#x11f;" horiz-adv-x="783" 
d="M681 148v-94c0 -23 0 -24 -11 -30c-59 -29 -146 -38 -215 -38c-216 0 -407 98 -407 333c0 136 73 231 154 278c84 49 163 55 237 55c61 0 138 -10 156 -14c18 -3 49 -8 70 -9c10 -1 12 -4 12 -10c0 -10 -6 -33 -6 -140c0 -13 -5 -19 -12 -19c-6 0 -8 4 -9 11
c-2 19 -7 46 -30 70c-26 27 -92 65 -191 65c-48 0 -109 -1 -170 -50c-49 -40 -81 -103 -81 -207c0 -183 118 -316 306 -316c23 0 41 0 62 9c13 6 17 15 17 30v78c0 42 0 74 -1 100c-1 29 -10 38 -38 46c-7 2 -22 3 -34 3c-8 0 -14 4 -14 9c0 7 7 8 19 8c46 0 109 -2 135 -2
c28 0 74 2 103 2c12 0 18 -1 18 -8c0 -5 -5 -9 -11 -9c-7 0 -14 -1 -24 -3c-24 -4 -33 -16 -34 -46c-1 -26 -1 -60 -1 -102zM268 794c0 6 5 8 8 10l33 26c7 6 10 7 13 7c6 0 12 -13 21 -23c35 -41 66 -44 92 -44c44 0 78 21 88 28c31 24 37 37 44 37c5 0 8 -4 8 -9
c0 -15 -40 -59 -63 -74c-33 -22 -58 -34 -108 -34c-28 0 -70 12 -99 36c-15 12 -37 32 -37 40z" />
    <glyph glyph-name="Gcommaaccent" unicode="&#x122;" horiz-adv-x="886" 
d="M771 174v-110c0 -27 -1 -29 -13 -36c-65 -34 -163 -45 -241 -45c-245 0 -462 116 -462 392c0 160 83 272 174 327c96 58 185 65 269 65c69 0 157 -12 177 -16c21 -4 56 -10 79 -11c12 -1 14 -5 14 -12c0 -11 -7 -39 -7 -164c0 -16 -3 -21 -11 -21c-7 0 -9 5 -10 13
c-3 23 -8 55 -34 83c-30 32 -110 78 -223 78c-55 0 -128 -4 -198 -62c-56 -47 -92 -122 -92 -245c0 -215 137 -376 348 -376c26 0 61 0 85 11c15 7 19 20 19 37v94c0 50 0 88 -1 118c-1 34 -10 50 -43 57c-8 2 -25 3 -39 3c-9 0 -15 2 -15 8c0 8 7 10 21 10
c52 0 115 -3 145 -3c31 0 84 3 117 3c13 0 20 -2 20 -10c0 -6 -6 -8 -13 -8c-8 0 -15 -1 -27 -3c-27 -5 -37 -22 -38 -57c-1 -30 -1 -70 -1 -120zM551 -118c0 -9 -5 -28 -11 -42c-11 -26 -39 -81 -68 -114c-6 -5 -10 -10 -15 -10c-3 0 -7 5 -7 9s5 10 7 14
c18 31 25 55 25 75c0 49 -36 62 -36 74c0 30 38 60 64 60c8 0 11 -5 22 -22c14 -22 19 -35 19 -44z" />
    <glyph glyph-name="gcommaaccent" unicode="&#x123;" horiz-adv-x="783" 
d="M681 148v-94c0 -23 0 -24 -11 -30c-59 -29 -146 -38 -215 -38c-216 0 -407 98 -407 333c0 136 73 231 154 278c84 49 163 55 237 55c61 0 138 -10 156 -14c18 -3 49 -8 70 -9c10 -1 12 -4 12 -10c0 -10 -6 -33 -6 -140c0 -13 -5 -19 -12 -19c-6 0 -8 4 -9 11
c-2 19 -7 46 -30 70c-26 27 -92 65 -191 65c-48 0 -109 -1 -170 -50c-49 -40 -81 -103 -81 -207c0 -183 118 -316 306 -316c23 0 41 0 62 9c13 6 17 15 17 30v78c0 42 0 74 -1 100c-1 29 -10 38 -38 46c-7 2 -22 3 -34 3c-8 0 -14 4 -14 9c0 7 7 8 19 8c46 0 109 -2 135 -2
c28 0 74 2 103 2c12 0 18 -1 18 -8c0 -5 -5 -9 -11 -9c-7 0 -14 -1 -24 -3c-24 -4 -33 -16 -34 -46c-1 -26 -1 -60 -1 -102zM494 -118c0 -9 -5 -28 -11 -42c-11 -26 -39 -81 -68 -114c-6 -5 -10 -10 -15 -10c-3 0 -7 5 -7 9s5 10 7 14c18 31 25 55 25 75c0 49 -36 62 -36 74
c0 30 38 60 64 60c8 0 11 -5 22 -22c14 -22 19 -35 19 -44z" />
    <glyph glyph-name="Imacron" unicode="&#x12a;" horiz-adv-x="452" 
d="M164 287v176c0 152 0 180 -2 212c-2 34 -12 51 -34 56c-11 3 -24 4 -36 4c-10 0 -16 2 -16 10c0 6 8 8 24 8c38 0 101 -3 130 -3c25 0 84 3 122 3c13 0 21 -2 21 -8c0 -8 -6 -10 -16 -10s-18 -1 -30 -3c-27 -5 -35 -22 -37 -57c-2 -32 -2 -60 -2 -212v-176
c0 -97 0 -176 4 -219c3 -27 10 -45 40 -49c14 -2 36 -4 51 -4c11 0 16 -3 16 -8c0 -7 -8 -10 -19 -10c-66 0 -129 3 -156 3c-23 0 -86 -3 -126 -3c-13 0 -20 3 -20 10c0 5 4 8 16 8c15 0 27 2 36 4c20 4 26 21 29 50c5 42 5 121 5 218zM341 857h-240c-7 0 -9 2 -8 7l8 36
c2 7 4 9 11 9h240c7 0 10 -3 8 -10l-8 -36c-1 -4 -4 -6 -11 -6z" />
    <glyph glyph-name="imacron" unicode="&#x12b;" horiz-adv-x="407" 
d="M144 244v150c0 129 0 153 -1 180c-2 29 -11 39 -30 45c-10 3 -21 4 -32 4c-9 0 -14 2 -14 10c0 5 7 7 21 7c33 0 93 -2 118 -2c22 0 79 2 113 2c11 0 18 -2 18 -7c0 -8 -5 -10 -14 -10s-16 -1 -26 -3c-24 -4 -31 -16 -33 -46c-2 -27 -2 -51 -2 -180v-150
c0 -82 0 -150 4 -186c3 -23 9 -36 35 -40c12 -2 32 -3 45 -3c10 0 14 -5 14 -9c0 -6 -7 -9 -17 -9c-58 0 -118 3 -142 3c-20 0 -80 -3 -115 -3c-11 0 -17 3 -17 9c0 4 3 9 14 9c13 0 23 1 31 3c18 4 23 16 26 41c4 35 4 103 4 185zM318 745h-240c-7 0 -9 2 -8 7l8 36
c2 7 4 9 11 9h240c7 0 10 -3 8 -10l-8 -36c-1 -4 -4 -6 -11 -6z" />
    <glyph glyph-name="Iogonek" unicode="&#x12e;" horiz-adv-x="452" 
d="M276 -170c38 0 56 33 66 33c5 0 9 -3 9 -8c0 -4 -4 -11 -8 -16c-10 -11 -56 -66 -124 -66c-61 0 -91 22 -91 76c0 60 95 144 114 151h-18c-11 0 -33 0 -57 -1c-23 0 -49 -2 -69 -2c-13 0 -20 3 -20 10c0 5 4 8 16 8c15 0 27 2 36 4c20 4 26 21 29 50c5 42 5 121 5 218
v176c0 152 0 180 -2 212c-2 34 -12 51 -34 56c-11 3 -24 4 -36 4c-10 0 -16 2 -16 10c0 6 8 8 24 8c38 0 101 -3 130 -3c25 0 84 3 122 3c13 0 21 -2 21 -8c0 -8 -6 -10 -16 -10s-18 -1 -30 -3c-27 -5 -35 -22 -37 -57c-2 -32 -2 -60 -2 -212v-176c0 -97 0 -176 4 -219
c3 -27 10 -45 40 -49c14 -2 36 -4 51 -4c11 0 16 -3 16 -8c0 -7 -8 -10 -19 -10c-36 0 -73 9 -99 -4c-38 -20 -63 -74 -63 -114c0 -33 21 -49 58 -49z" />
    <glyph glyph-name="iogonek" unicode="&#x12f;" horiz-adv-x="407" 
d="M251 -170c38 0 56 33 66 33c5 0 9 -3 9 -8c0 -4 -4 -11 -8 -16c-10 -11 -56 -66 -124 -66c-61 0 -91 22 -91 76c0 60 95 145 114 151h-16c-10 0 -30 -1 -52 -1c-22 -1 -45 -2 -63 -2c-11 0 -17 3 -17 9c0 4 3 9 14 9c13 0 23 1 31 3c18 4 23 16 26 41c4 35 4 103 4 185
v150c0 129 0 153 -1 180c-2 29 -11 39 -30 45c-10 3 -21 4 -32 4c-9 0 -14 2 -14 10c0 5 7 7 21 7c33 0 93 -2 118 -2c22 0 79 2 113 2c11 0 18 -2 18 -7c0 -8 -5 -10 -14 -10s-16 -1 -26 -3c-24 -4 -31 -16 -33 -46c-2 -27 -2 -51 -2 -180v-150c0 -82 0 -150 4 -186
c3 -23 9 -36 35 -40c12 -2 32 -3 45 -3c10 0 14 -5 14 -9c0 -6 -7 -9 -17 -9c-31 0 -65 8 -89 -5c-35 -20 -61 -73 -61 -113c0 -33 21 -49 58 -49z" />
    <glyph glyph-name="Idotaccent" unicode="&#x130;" horiz-adv-x="452" 
d="M164 287v176c0 152 0 180 -2 212c-2 34 -12 51 -34 56c-11 3 -24 4 -36 4c-10 0 -16 2 -16 10c0 6 8 8 24 8c38 0 101 -3 130 -3c25 0 84 3 122 3c13 0 21 -2 21 -8c0 -8 -6 -10 -16 -10s-18 -1 -30 -3c-27 -5 -35 -22 -37 -57c-2 -32 -2 -60 -2 -212v-176
c0 -97 0 -176 4 -219c3 -27 10 -45 40 -49c14 -2 36 -4 51 -4c11 0 16 -3 16 -8c0 -7 -8 -10 -19 -10c-66 0 -129 3 -156 3c-23 0 -86 -3 -126 -3c-13 0 -20 3 -20 10c0 5 4 8 16 8c15 0 27 2 36 4c20 4 26 21 29 50c5 42 5 121 5 218zM226 830c-40 0 -56 31 -56 56
s16 58 56 58c32 0 57 -21 57 -54s-23 -60 -57 -60z" />
    <glyph glyph-name="dotlessi" unicode="&#x131;" horiz-adv-x="407" 
d="M144 244v150c0 129 0 153 -1 180c-2 29 -11 39 -30 45c-10 3 -21 4 -32 4c-9 0 -14 2 -14 10c0 5 7 7 21 7c33 0 93 -2 118 -2c22 0 79 2 113 2c11 0 18 -2 18 -7c0 -8 -5 -10 -14 -10s-16 -1 -26 -3c-24 -4 -31 -16 -33 -46c-2 -27 -2 -51 -2 -180v-150
c0 -82 0 -150 4 -186c3 -23 9 -36 35 -40c12 -2 32 -3 45 -3c10 0 14 -5 14 -9c0 -6 -7 -9 -17 -9c-58 0 -118 3 -142 3c-20 0 -80 -3 -115 -3c-11 0 -17 3 -17 9c0 4 3 9 14 9c13 0 23 1 31 3c18 4 23 16 26 41c4 35 4 103 4 185z" />
    <glyph glyph-name="Kcommaaccent" unicode="&#x136;" horiz-adv-x="768" 
d="M286 463v-44h5c34 37 180 186 209 220c28 33 50 58 50 75c0 11 -4 18 -14 20c-9 2 -13 4 -13 10c0 7 5 9 16 9c21 0 76 -3 103 -3c31 0 86 3 117 3c10 0 17 -2 17 -9s-5 -9 -15 -9c-14 0 -39 -4 -58 -11c-31 -12 -65 -33 -108 -75c-31 -30 -182 -180 -216 -216
c36 -47 232 -258 271 -295c44 -42 89 -87 143 -108c30 -12 50 -15 62 -15c7 0 13 -2 13 -8c0 -7 -5 -10 -24 -10h-87c-30 0 -48 0 -69 2c-54 5 -81 27 -124 65c-44 39 -241 270 -262 299l-11 15h-5v-91c0 -92 0 -171 3 -214c2 -28 11 -50 36 -54c14 -2 36 -4 49 -4
c8 0 13 -3 13 -8c0 -7 -8 -10 -19 -10c-56 0 -119 3 -144 3c-23 0 -86 -3 -126 -3c-13 0 -20 3 -20 10c0 5 4 8 16 8c15 0 27 2 36 4c20 4 25 26 29 55c5 42 5 121 5 213v176c0 152 0 180 -2 212c-2 34 -10 50 -43 57c-8 2 -25 3 -39 3c-11 0 -17 2 -17 9s7 9 22 9
c53 0 116 -3 140 -3s87 3 121 3c14 0 21 -2 21 -9s-6 -9 -14 -9c-10 0 -16 -1 -28 -3c-27 -5 -35 -22 -37 -57c-2 -32 -2 -60 -2 -212zM511 -98c0 -9 -5 -28 -11 -42c-11 -26 -39 -81 -68 -114c-6 -5 -10 -10 -15 -10c-3 0 -7 5 -7 9s5 10 7 14c18 31 25 55 25 75
c0 49 -36 62 -36 74c0 30 38 60 64 60c8 0 11 -5 22 -22c14 -22 19 -35 19 -44z" />
    <glyph glyph-name="kcommaaccent" unicode="&#x137;" horiz-adv-x="685" 
d="M259 394v-38h4c30 32 158 158 184 187c25 28 44 48 44 63c0 9 -4 15 -12 17s-12 4 -12 9c0 6 5 8 14 8c19 0 67 -2 91 -2c27 0 76 2 103 2c9 0 15 -2 15 -8s-5 -9 -13 -9c-13 0 -35 -4 -51 -10c-28 -10 -56 -28 -93 -63c-28 -26 -159 -150 -186 -181
c31 -40 204 -220 238 -252c39 -35 73 -72 120 -91c26 -11 44 -11 54 -11c7 0 12 -4 12 -9c0 -6 -5 -9 -21 -9h-77c-26 0 -42 0 -61 2c-47 4 -76 22 -114 55s-207 229 -226 255l-9 12h-4v-77c0 -78 0 -145 2 -182c2 -24 10 -40 32 -44c12 -2 32 -3 43 -3c7 0 12 -5 12 -9
c0 -6 -7 -9 -17 -9c-49 0 -112 3 -134 3c-20 0 -76 -3 -111 -3c-11 0 -17 3 -17 9c0 4 3 9 14 9c13 0 23 1 31 3c18 4 23 20 26 45c4 36 4 103 4 181v150c0 129 0 153 -1 180c-2 29 -10 38 -38 46c-7 2 -22 3 -35 3c-9 0 -15 3 -15 9s7 8 20 8c46 0 102 -2 123 -2
s84 2 113 2c13 0 19 -2 19 -8s-5 -9 -12 -9c-9 0 -14 -1 -25 -3c-24 -4 -31 -16 -33 -46c-1 -27 -1 -51 -1 -180zM465 -118c0 -9 -5 -28 -11 -42c-11 -26 -39 -81 -68 -114c-6 -5 -10 -10 -15 -10c-3 0 -7 5 -7 9s5 10 7 14c18 31 25 55 25 75c0 49 -36 62 -36 74
c0 30 38 60 64 60c8 0 11 -5 22 -22c14 -22 19 -35 19 -44z" />
    <glyph glyph-name="Lacute" unicode="&#x139;" horiz-adv-x="605" 
d="M289 463v-176c0 -128 0 -197 21 -215c17 -15 43 -22 121 -22c53 0 92 1 117 28c12 13 24 41 26 60c1 9 3 15 11 15c7 0 8 -5 8 -17c0 -11 -7 -86 -15 -115c-6 -22 -11 -27 -63 -27c-72 0 -124 2 -169 3c-45 2 -81 3 -122 3c-11 0 -33 0 -57 -1c-23 0 -49 -2 -69 -2
c-13 0 -20 3 -20 10c0 5 4 8 16 8c15 0 27 2 36 4c20 4 25 26 29 55c5 42 5 121 5 213v176c0 152 0 180 -2 212c-2 34 -10 50 -43 57c-8 2 -20 3 -33 3c-11 0 -17 2 -17 9s7 9 22 9c47 0 110 -3 137 -3c24 0 97 3 136 3c14 0 21 -2 21 -9s-6 -9 -18 -9c-11 0 -27 -1 -39 -3
c-27 -5 -35 -22 -37 -57c-2 -32 -2 -60 -2 -212zM414 972c8 -14 17 -33 29 -60c6 -12 0 -15 -5 -15s-14 2 -34 0c-55 -7 -134 -39 -171 -59c-8 -4 -15 -8 -17 -8s-6 2 -6 6s4 8 9 13c40 38 145 116 161 126c10 7 17 9 20 9c7 0 9 -3 14 -12z" />
    <glyph glyph-name="lacute" unicode="&#x13a;" horiz-adv-x="552" 
d="M262 394v-150c0 -109 0 -163 19 -179c15 -13 49 -18 117 -18c47 0 81 1 103 24c11 11 20 35 22 51c1 8 3 13 10 13c6 0 8 -9 8 -19s-6 -73 -13 -98c-6 -19 -10 -23 -56 -23c-63 0 -114 1 -158 3c-44 1 -81 2 -117 2c-10 0 -29 -1 -50 -1c-21 -1 -43 -2 -61 -2
c-11 0 -17 3 -17 9c0 4 3 9 14 9c13 0 23 1 31 3c18 4 23 20 26 45c4 36 4 103 4 181v150c0 129 0 153 -1 180c-2 29 -10 38 -38 46c-7 2 -18 3 -29 3c-10 0 -15 3 -15 9s6 8 19 8c41 0 97 -2 121 -2c21 0 93 2 127 2c13 0 19 -2 19 -8s-5 -9 -16 -9c-10 0 -24 -1 -34 -3
c-24 -4 -31 -16 -33 -46c-2 -27 -2 -51 -2 -180zM392 860c8 -14 17 -33 29 -60c6 -12 0 -15 -5 -15s-14 2 -34 0c-55 -7 -134 -39 -171 -59c-8 -4 -15 -8 -17 -8s-6 2 -6 6s4 8 9 13c40 38 145 116 161 126c10 7 17 9 20 9c7 0 9 -3 14 -12z" />
    <glyph glyph-name="Lcommaaccent" unicode="&#x13b;" horiz-adv-x="605" 
d="M289 463v-176c0 -128 0 -197 21 -215c17 -15 43 -22 121 -22c53 0 92 1 117 28c12 13 24 41 26 60c1 9 3 15 11 15c7 0 8 -5 8 -17c0 -11 -7 -86 -15 -115c-6 -22 -11 -27 -63 -27c-72 0 -124 2 -169 3c-45 2 -81 3 -122 3c-11 0 -33 0 -57 -1c-23 0 -49 -2 -69 -2
c-13 0 -20 3 -20 10c0 5 4 8 16 8c15 0 27 2 36 4c20 4 25 26 29 55c5 42 5 121 5 213v176c0 152 0 180 -2 212c-2 34 -10 50 -43 57c-8 2 -20 3 -33 3c-11 0 -17 2 -17 9s7 9 22 9c47 0 110 -3 137 -3c24 0 97 3 136 3c14 0 21 -2 21 -9s-6 -9 -18 -9c-11 0 -27 -1 -39 -3
c-27 -5 -35 -22 -37 -57c-2 -32 -2 -60 -2 -212zM425 -118c0 -9 -5 -28 -11 -42c-11 -26 -39 -81 -68 -114c-6 -5 -10 -10 -15 -10c-3 0 -7 5 -7 9s5 10 7 14c18 31 25 55 25 75c0 49 -36 62 -36 74c0 30 38 60 64 60c8 0 11 -5 22 -22c14 -22 19 -35 19 -44z" />
    <glyph glyph-name="lcommaaccent" unicode="&#x13c;" horiz-adv-x="552" 
d="M262 394v-150c0 -109 0 -163 19 -179c15 -13 49 -18 117 -18c47 0 81 1 103 24c11 11 20 35 22 51c1 8 3 13 10 13c6 0 8 -9 8 -19s-6 -73 -13 -98c-6 -19 -10 -23 -56 -23c-63 0 -114 1 -158 3c-44 1 -81 2 -117 2c-10 0 -29 -1 -50 -1c-21 -1 -43 -2 -61 -2
c-11 0 -17 3 -17 9c0 4 3 9 14 9c13 0 23 1 31 3c18 4 23 20 26 45c4 36 4 103 4 181v150c0 129 0 153 -1 180c-2 29 -10 38 -38 46c-7 2 -18 3 -29 3c-10 0 -15 3 -15 9s6 8 19 8c41 0 97 -2 121 -2c21 0 93 2 127 2c13 0 19 -2 19 -8s-5 -9 -16 -9c-10 0 -24 -1 -34 -3
c-24 -4 -31 -16 -33 -46c-2 -27 -2 -51 -2 -180zM388 -118c0 -9 -5 -28 -11 -42c-11 -26 -39 -81 -68 -114c-6 -5 -10 -10 -15 -10c-3 0 -7 5 -7 9s5 10 7 14c18 31 25 55 25 75c0 49 -36 62 -36 74c0 30 38 60 64 60c8 0 11 -5 22 -22c14 -22 19 -35 19 -44z" />
    <glyph glyph-name="Lcaron" unicode="&#x13d;" horiz-adv-x="605" 
d="M289 463v-176c0 -128 0 -197 21 -215c17 -15 43 -22 121 -22c53 0 92 1 117 28c12 13 24 41 26 60c1 9 3 15 11 15c7 0 8 -5 8 -17c0 -11 -7 -86 -15 -115c-6 -22 -11 -27 -63 -27c-72 0 -124 2 -169 3c-45 2 -81 3 -122 3c-11 0 -33 0 -57 -1c-23 0 -49 -2 -69 -2
c-13 0 -20 3 -20 10c0 5 4 8 16 8c15 0 27 2 36 4c20 4 25 26 29 55c5 42 5 121 5 213v176c0 152 0 180 -2 212c-2 34 -10 50 -43 57c-8 2 -20 3 -33 3c-11 0 -17 2 -17 9s7 9 22 9c47 0 110 -3 137 -3c24 0 97 3 136 3c14 0 21 -2 21 -9s-6 -9 -18 -9c-11 0 -27 -1 -39 -3
c-27 -5 -35 -22 -37 -57c-2 -32 -2 -60 -2 -212zM585 687c0 -9 -5 -28 -11 -42c-11 -26 -39 -81 -68 -114c-6 -5 -10 -10 -15 -10c-3 0 -7 5 -7 9s5 10 7 14c18 31 25 55 25 75c0 49 -36 62 -36 74c0 30 38 60 64 60c8 0 11 -5 22 -22c14 -22 19 -35 19 -44z" />
    <glyph glyph-name="lcaron" unicode="&#x13e;" horiz-adv-x="552" 
d="M262 394v-150c0 -109 0 -163 19 -179c15 -13 49 -18 117 -18c47 0 81 1 103 24c11 11 20 35 22 51c1 8 3 13 10 13c6 0 8 -9 8 -19s-6 -73 -13 -98c-6 -19 -10 -23 -56 -23c-63 0 -114 1 -158 3c-44 1 -81 2 -117 2c-10 0 -29 -1 -50 -1c-21 -1 -43 -2 -61 -2
c-11 0 -17 3 -17 9c0 4 3 9 14 9c13 0 23 1 31 3c18 4 23 20 26 45c4 36 4 103 4 181v150c0 129 0 153 -1 180c-2 29 -10 38 -38 46c-7 2 -18 3 -29 3c-10 0 -15 3 -15 9s6 8 19 8c41 0 97 -2 121 -2c21 0 93 2 127 2c13 0 19 -2 19 -8s-5 -9 -16 -9c-10 0 -24 -1 -34 -3
c-24 -4 -31 -16 -33 -46c-2 -27 -2 -51 -2 -180zM539 582c0 -9 -5 -28 -11 -42c-11 -26 -39 -81 -68 -114c-6 -5 -10 -10 -15 -10c-3 0 -7 5 -7 9s5 10 7 14c18 31 25 55 25 75c0 49 -36 62 -36 74c0 30 38 60 64 60c8 0 11 -5 22 -22c14 -22 19 -35 19 -44z" />
    <glyph glyph-name="Lslash" unicode="&#x141;" horiz-adv-x="605" 
d="M289 380v-93c0 -128 0 -197 21 -215c17 -15 43 -22 121 -22c53 0 92 1 117 28c12 13 24 41 26 60c1 9 3 18 11 18c7 0 8 -8 8 -20c0 -11 -7 -86 -15 -115c-6 -22 -11 -27 -63 -27c-72 0 -124 2 -169 3c-45 2 -81 3 -122 3c-11 0 -33 0 -57 -1c-23 0 -49 -2 -69 -2
c-13 0 -20 3 -20 10c0 5 4 8 16 8c15 0 27 2 36 4c20 4 25 26 29 55c5 42 5 121 5 213v42l-83 -44c-4 -2 -8 -2 -11 4l-16 34c-2 4 -2 6 3 9l107 54v77c0 152 0 180 -2 212c-2 34 -10 50 -43 57c-8 2 -22 3 -34 3c-11 0 -17 2 -17 9s7 9 22 9c48 0 111 -3 138 -3
c24 0 92 3 131 3c14 0 21 -2 21 -9s-6 -9 -18 -9c-11 0 -22 -1 -34 -3c-27 -5 -35 -22 -37 -57c-2 -32 -2 -60 -2 -212v-24l133 65c9 4 14 3 16 -3l12 -33c3 -7 1 -11 -7 -14z" />
    <glyph glyph-name="lslash" unicode="&#x142;" horiz-adv-x="552" 
d="M262 320v-76c0 -109 0 -163 19 -179c15 -13 50 -18 118 -18c47 0 81 0 103 23c11 11 19 35 21 51c1 8 3 16 10 16c6 0 9 -11 9 -21s-6 -73 -13 -98c-6 -19 -10 -23 -56 -23c-63 0 -115 1 -159 3c-44 1 -81 2 -117 2c-10 0 -29 -1 -50 -1c-21 -1 -43 -2 -61 -2
c-11 0 -17 3 -17 9c0 4 3 9 14 9c13 0 23 1 31 3c18 4 23 20 26 45c4 36 4 96 4 174v36l-73 -38c-3 -1 -7 -1 -9 4l-14 32c-1 3 -2 5 2 7l94 46v70c0 129 0 153 -1 180c-2 29 -10 38 -38 46c-7 2 -20 3 -30 3s-15 3 -15 9s6 8 19 8c42 0 98 -2 122 -2c21 0 89 2 123 2
c12 0 18 -2 18 -8s-5 -9 -15 -9s-20 -1 -30 -3c-24 -4 -31 -16 -33 -46c-2 -27 -2 -51 -2 -180v-21l117 55c8 4 12 3 14 -2l11 -31c2 -6 1 -9 -6 -12z" />
    <glyph glyph-name="Nacute" unicode="&#x143;" horiz-adv-x="947" 
d="M209 553l11 -420c2 -78 15 -104 35 -111c17 -6 36 -7 52 -7c11 0 17 -2 17 -8c0 -8 -9 -10 -23 -10c-65 0 -105 3 -124 3c-9 0 -56 -3 -108 -3c-13 0 -22 1 -22 10c0 6 6 8 16 8c13 0 31 1 45 5c26 8 30 37 31 124l9 592c0 20 3 34 13 34c11 0 20 -13 37 -31l310 -321
c68 -68 203 -212 220 -228h5l-10 449c-1 61 -10 80 -34 90c-15 6 -39 6 -53 6c-12 0 -16 3 -16 9c0 8 11 9 26 9c52 0 100 -3 121 -3c11 0 49 3 98 3c13 0 23 -1 23 -9c0 -6 -6 -9 -18 -9c-10 0 -18 0 -30 -3c-28 -8 -36 -29 -37 -85l-11 -631c0 -22 -4 -31 -13 -31
c-11 0 -23 11 -34 22l-295 294c-109 108 -220 233 -238 252h-3zM595 947c8 -14 17 -33 29 -60c6 -12 0 -15 -5 -15s-14 2 -34 0c-55 -7 -134 -39 -171 -59c-8 -4 -15 -8 -17 -8s-6 2 -6 6s4 8 9 13c40 38 145 116 161 126c10 7 17 9 20 9c7 0 9 -3 14 -12z" />
    <glyph glyph-name="nacute" unicode="&#x144;" horiz-adv-x="841" 
d="M189 460l10 -347c2 -66 13 -86 30 -92c15 -5 32 -6 46 -6c10 0 15 -4 15 -9c0 -7 -8 -9 -20 -9c-57 0 -98 3 -114 3c-8 0 -50 -3 -95 -3c-12 0 -20 1 -20 9c0 5 6 9 14 9c12 0 28 1 40 4c23 6 26 29 27 103l8 504c0 17 6 29 15 29c11 0 23 -13 38 -28l271 -271
c60 -59 177 -179 190 -191h4l-9 378c-1 52 -9 67 -30 75c-13 5 -34 5 -46 5c-11 0 -14 4 -14 9c0 7 9 8 22 8c46 0 93 -2 112 -2c10 0 43 2 86 2c12 0 20 -1 20 -8c0 -5 -5 -9 -15 -9c-9 0 -16 0 -27 -3c-24 -7 -31 -22 -32 -70l-10 -536c0 -19 -7 -27 -14 -27
c-15 0 -27 9 -36 18l-257 245c-96 92 -189 195 -206 210h-3zM557 860c8 -14 17 -33 29 -60c6 -12 0 -15 -5 -15s-14 2 -34 0c-55 -7 -134 -39 -171 -59c-8 -4 -15 -8 -17 -8s-6 2 -6 6s4 8 9 13c40 38 145 116 161 126c10 7 17 9 20 9c7 0 9 -3 14 -12z" />
    <glyph glyph-name="Ncommaaccent" unicode="&#x145;" horiz-adv-x="947" 
d="M209 553l11 -420c2 -78 15 -104 35 -111c17 -6 36 -7 52 -7c11 0 17 -2 17 -8c0 -8 -9 -10 -23 -10c-65 0 -105 3 -124 3c-9 0 -56 -3 -108 -3c-13 0 -22 1 -22 10c0 6 6 8 16 8c13 0 31 1 45 5c26 8 30 37 31 124l9 592c0 20 3 34 13 34c11 0 20 -13 37 -31l310 -321
c68 -68 203 -212 220 -228h5l-10 449c-1 61 -10 80 -34 90c-15 6 -39 6 -53 6c-12 0 -16 3 -16 9c0 8 11 9 26 9c52 0 100 -3 121 -3c11 0 49 3 98 3c13 0 23 -1 23 -9c0 -6 -6 -9 -18 -9c-10 0 -18 0 -30 -3c-28 -8 -36 -29 -37 -85l-11 -631c0 -22 -4 -31 -13 -31
c-11 0 -23 11 -34 22l-295 294c-109 108 -220 233 -238 252h-3zM536 -88c0 -9 -5 -28 -11 -42c-11 -26 -39 -81 -68 -114c-6 -5 -10 -10 -15 -10c-3 0 -7 5 -7 9s5 10 7 14c18 31 25 55 25 75c0 49 -36 62 -36 74c0 30 38 60 64 60c8 0 11 -5 22 -22c14 -22 19 -35 19 -44z
" />
    <glyph glyph-name="ncommaaccent" unicode="&#x146;" horiz-adv-x="841" 
d="M189 460l10 -347c2 -66 13 -86 30 -92c15 -5 32 -6 46 -6c10 0 15 -4 15 -9c0 -7 -8 -9 -20 -9c-57 0 -98 3 -114 3c-8 0 -50 -3 -95 -3c-12 0 -20 1 -20 9c0 5 6 9 14 9c12 0 28 1 40 4c23 6 26 29 27 103l8 504c0 17 6 29 15 29c11 0 23 -13 38 -28l271 -271
c60 -59 177 -179 190 -191h4l-9 378c-1 52 -9 67 -30 75c-13 5 -34 5 -46 5c-11 0 -14 4 -14 9c0 7 9 8 22 8c46 0 93 -2 112 -2c10 0 43 2 86 2c12 0 20 -1 20 -8c0 -5 -5 -9 -15 -9c-9 0 -16 0 -27 -3c-24 -7 -31 -22 -32 -70l-10 -536c0 -19 -7 -27 -14 -27
c-15 0 -27 9 -36 18l-257 245c-96 92 -189 195 -206 210h-3zM473 -88c0 -9 -5 -28 -11 -42c-11 -26 -39 -81 -68 -114c-6 -5 -10 -10 -15 -10c-3 0 -7 5 -7 9s5 10 7 14c18 31 25 55 25 75c0 49 -36 62 -36 74c0 30 38 60 64 60c8 0 11 -5 22 -22c14 -22 19 -35 19 -44z" />
    <glyph glyph-name="Ncaron" unicode="&#x147;" horiz-adv-x="947" 
d="M209 553l11 -420c2 -78 15 -104 35 -111c17 -6 36 -7 52 -7c11 0 17 -2 17 -8c0 -8 -9 -10 -23 -10c-65 0 -105 3 -124 3c-9 0 -56 -3 -108 -3c-13 0 -22 1 -22 10c0 6 6 8 16 8c13 0 31 1 45 5c26 8 30 37 31 124l9 592c0 20 3 34 13 34c11 0 20 -13 37 -31l310 -321
c68 -68 203 -212 220 -228h5l-10 449c-1 61 -10 80 -34 90c-15 6 -39 6 -53 6c-12 0 -16 3 -16 9c0 8 11 9 26 9c52 0 100 -3 121 -3c11 0 49 3 98 3c13 0 23 -1 23 -9c0 -6 -6 -9 -18 -9c-10 0 -18 0 -30 -3c-28 -8 -36 -29 -37 -85l-11 -631c0 -22 -4 -31 -13 -31
c-11 0 -23 11 -34 22l-295 294c-109 108 -220 233 -238 252h-3zM327 925l29 29c4 4 8 7 11 7c4 0 8 -2 17 -11c19 -19 78 -67 88 -74c5 -4 9 -6 13 -6s10 1 15 4c28 17 76 51 104 74c12 10 17 13 22 13s9 -4 9 -10c0 -4 -3 -9 -9 -15c-11 -12 -118 -112 -132 -124
c-10 -9 -15 -12 -21 -12c-3 0 -7 3 -18 11c-8 7 -104 79 -119 90c-11 8 -14 11 -14 14s2 7 5 10z" />
    <glyph glyph-name="ncaron" unicode="&#x148;" horiz-adv-x="841" 
d="M189 460l10 -347c2 -66 13 -86 30 -92c15 -5 32 -6 46 -6c10 0 15 -4 15 -9c0 -7 -8 -9 -20 -9c-57 0 -98 3 -114 3c-8 0 -50 -3 -95 -3c-12 0 -20 1 -20 9c0 5 6 9 14 9c12 0 28 1 40 4c23 6 26 29 27 103l8 504c0 17 6 29 15 29c11 0 23 -13 38 -28l271 -271
c60 -59 177 -179 190 -191h4l-9 378c-1 52 -9 67 -30 75c-13 5 -34 5 -46 5c-11 0 -14 4 -14 9c0 7 9 8 22 8c46 0 93 -2 112 -2c10 0 43 2 86 2c12 0 20 -1 20 -8c0 -5 -5 -9 -15 -9c-9 0 -16 0 -27 -3c-24 -7 -31 -22 -32 -70l-10 -536c0 -19 -7 -27 -14 -27
c-15 0 -27 9 -36 18l-257 245c-96 92 -189 195 -206 210h-3zM269 833l29 29c4 4 8 7 11 7c4 0 8 -2 17 -11c19 -19 78 -67 88 -74c5 -4 9 -6 13 -6s10 1 15 4c28 17 76 51 104 74c12 10 17 13 22 13s9 -4 9 -10c0 -4 -3 -9 -9 -15c-11 -12 -118 -112 -132 -124
c-10 -9 -15 -12 -21 -12c-3 0 -7 3 -18 11c-8 7 -104 79 -119 90c-11 8 -14 11 -14 14s2 7 5 10z" />
    <glyph glyph-name="Omacron" unicode="&#x14c;" horiz-adv-x="927" 
d="M458 -17c-287 0 -403 215 -403 392c0 171 113 392 413 392c249 0 404 -145 404 -374s-160 -410 -414 -410zM500 33c70 0 232 34 232 323c0 224 -129 363 -293 363c-115 0 -246 -64 -246 -313c0 -208 115 -373 307 -373zM578 857h-240c-7 0 -9 2 -8 7l8 36c2 7 4 9 11 9
h240c7 0 10 -3 8 -10l-8 -36c-1 -4 -4 -6 -11 -6z" />
    <glyph glyph-name="omacron" unicode="&#x14d;" horiz-adv-x="827" 
d="M408 -14c-256 0 -360 182 -360 333c0 145 102 333 369 333c222 0 360 -123 360 -318s-142 -348 -369 -348zM444 32c62 0 202 29 202 271c0 188 -113 304 -255 304c-98 0 -213 -52 -213 -262c0 -175 100 -313 266 -313zM538 745h-240c-7 0 -9 2 -8 7l8 36c2 7 4 9 11 9
h240c7 0 10 -3 8 -10l-8 -36c-1 -4 -4 -6 -11 -6z" />
    <glyph glyph-name="Ohungarumlaut" unicode="&#x150;" horiz-adv-x="927" 
d="M458 -17c-287 0 -403 215 -403 392c0 171 113 392 413 392c249 0 404 -145 404 -374s-160 -410 -414 -410zM500 33c70 0 232 34 232 323c0 224 -129 363 -293 363c-115 0 -246 -64 -246 -313c0 -208 115 -373 307 -373zM440 961c14 16 20 24 25 24c6 0 11 -1 19 -4
c15 -6 33 -18 46 -29c7 -6 6 -12 2 -14c-7 -2 -17 -4 -39 -14c-39 -18 -102 -54 -136 -82c-11 -9 -16 -12 -22 -12s-7 6 -5 10c5 10 96 105 110 121zM613 961c14 16 20 24 25 24c6 0 11 -1 19 -4c17 -7 33 -18 46 -29c7 -6 6 -12 2 -14c-7 -2 -17 -4 -39 -14
c-39 -18 -102 -54 -136 -82c-11 -9 -16 -12 -22 -12s-7 6 -5 10c5 10 96 105 110 121z" />
    <glyph glyph-name="ohungarumlaut" unicode="&#x151;" horiz-adv-x="827" 
d="M408 -14c-256 0 -360 182 -360 333c0 145 102 333 369 333c222 0 360 -123 360 -318s-142 -348 -369 -348zM444 32c62 0 202 29 202 271c0 188 -113 304 -255 304c-98 0 -213 -52 -213 -262c0 -175 100 -313 266 -313zM375 849c14 16 20 24 25 24c6 0 11 -1 19 -4
c15 -6 33 -18 46 -29c7 -6 6 -12 2 -14c-7 -2 -17 -4 -39 -14c-39 -18 -102 -54 -136 -82c-11 -9 -16 -12 -22 -12s-7 6 -5 10c5 10 96 105 110 121zM548 849c14 16 20 24 25 24c6 0 11 -1 19 -4c17 -7 33 -18 46 -29c7 -6 6 -12 2 -14c-7 -2 -17 -4 -39 -14
c-39 -18 -102 -54 -136 -82c-11 -9 -16 -12 -22 -12s-7 6 -5 10c5 10 96 105 110 121z" />
    <glyph glyph-name="OE" unicode="&#x152;" horiz-adv-x="1190" 
d="M848 367v-80c0 -34 -1 -125 0 -154c2 -70 18 -85 120 -85c26 0 68 0 94 12s38 33 45 74c2 11 4 15 11 15c8 0 8 -8 8 -18c0 -23 -8 -91 -13 -111c-7 -26 -16 -26 -54 -26c-75 0 -130 2 -174 3c-44 2 -78 3 -113 3c-8 0 -14 -1 -20 -1c-5 -1 -9 -2 -14 -2
c-6 0 -10 3 -10 7c0 8 2 16 3 30c1 11 1 30 1 55c-65 -63 -150 -106 -288 -106c-277 0 -389 214 -389 393c0 186 117 391 395 391c152 0 228 -55 279 -114h3c0 42 0 59 -1 71c0 6 -2 13 -2 20c0 5 4 9 10 9c3 0 6 -1 14 -1c7 -1 18 -2 34 -2c32 0 231 0 250 1
c19 2 35 4 43 6c5 1 11 4 16 4s6 -4 6 -9c0 -7 -5 -19 -8 -65c-1 -10 -3 -54 -5 -66c-1 -5 -3 -11 -10 -11s-9 5 -9 14c0 7 -1 24 -6 36c-7 18 -17 30 -67 36c-17 2 -122 4 -142 4c-5 0 -7 -3 -7 -10v-252c0 -7 1 -11 7 -11c22 0 137 0 160 2c24 2 39 5 48 15
c7 8 11 13 16 13c4 0 7 -2 7 -9c0 -6 -4 -22 -8 -73c-1 -20 -4 -60 -4 -67c0 -8 0 -19 -9 -19c-7 0 -9 4 -9 9c-1 10 -1 23 -4 36c-5 20 -19 35 -56 39c-19 2 -118 4 -142 4c-5 0 -6 -4 -6 -10zM191 406c0 -239 140 -374 298 -374c141 0 239 97 239 308
c0 208 -105 378 -295 378c-127 0 -242 -94 -242 -312z" />
    <glyph glyph-name="oe" unicode="&#x153;" horiz-adv-x="1067" 
d="M754 310v-68c0 -29 -1 -100 0 -125c2 -59 28 -72 118 -72c23 0 58 0 81 10c22 10 33 28 39 63c2 9 4 13 10 13c7 0 9 -11 9 -20c0 -19 -7 -77 -12 -94c-6 -22 -14 -22 -47 -22c-66 0 -126 0 -165 2s-72 3 -103 3c-14 0 -22 -3 -30 -3c-5 0 -8 3 -8 6c0 7 1 14 2 26
c1 9 1 31 1 53c-62 -59 -137 -96 -258 -96c-244 0 -343 181 -343 334c0 158 103 332 348 332c134 0 201 -47 251 -103h2c0 42 0 56 -1 66c0 6 -1 11 -1 17c0 5 3 8 8 8s14 -2 43 -2h235c16 0 30 3 37 5c5 1 10 4 14 4c5 0 6 -4 6 -8c0 -6 -5 -16 -7 -55c-1 -9 -3 -46 -5 -56
c-1 -4 -4 -13 -10 -13c-7 0 -8 4 -8 11c0 6 -1 21 -6 31c-7 15 -13 27 -57 31c-15 2 -119 3 -137 3c-4 0 -6 -3 -6 -8v-209c0 -6 1 -9 6 -9c20 0 133 1 153 2c21 1 35 4 42 12c7 7 10 11 15 11c3 0 6 -1 6 -7c0 -5 -2 -21 -7 -64c-2 -17 -4 -51 -4 -57c0 -7 -1 -18 -9 -18
c-6 0 -8 3 -8 7c-1 9 -1 20 -3 31c-5 17 -16 30 -49 33c-16 2 -115 3 -136 3c-5 0 -6 -3 -6 -8zM176 345c0 -203 121 -311 260 -311c109 0 212 79 212 255c0 177 -106 317 -261 317c-112 0 -211 -76 -211 -261z" />
    <glyph glyph-name="Racute" unicode="&#x154;" horiz-adv-x="755" 
d="M164 287v176c0 152 0 180 -2 212c-2 34 -10 50 -43 57c-8 2 -25 3 -39 3c-11 0 -17 2 -17 9s7 9 22 9c53 0 116 -3 137 -3c34 0 110 3 141 3c63 0 130 -6 184 -43c28 -19 68 -70 68 -137c0 -74 -31 -142 -132 -224c89 -112 158 -201 217 -263c56 -58 97 -65 112 -68
c11 -2 20 -3 28 -3s12 -3 12 -8c0 -8 -7 -10 -19 -10h-95c-56 0 -81 5 -107 19c-43 23 -81 70 -137 147c-40 55 -86 123 -99 138c-5 6 -11 7 -18 7l-87 2c-5 0 -8 -2 -8 -8v-14c0 -93 0 -172 5 -214c3 -29 9 -51 39 -55c15 -2 37 -4 49 -4c8 0 12 -3 12 -8
c0 -7 -7 -10 -20 -10c-58 0 -132 3 -147 3c-19 0 -82 -3 -122 -3c-13 0 -20 3 -20 10c0 5 4 8 16 8c15 0 27 2 36 4c20 4 25 26 29 55c5 42 5 121 5 213zM282 688v-304c0 -11 2 -15 9 -18c21 -7 51 -10 76 -10c40 0 53 4 71 17c30 22 59 68 59 150c0 142 -94 183 -153 183
c-25 0 -43 -1 -53 -4c-7 -2 -9 -6 -9 -14zM494 972c8 -14 17 -33 29 -60c6 -12 0 -15 -5 -15s-14 2 -34 0c-55 -7 -134 -39 -171 -59c-8 -4 -15 -8 -17 -8s-6 2 -6 6s4 8 9 13c40 38 145 116 161 126c10 7 17 9 20 9c7 0 9 -3 14 -12z" />
    <glyph glyph-name="racute" unicode="&#x155;" horiz-adv-x="686" 
d="M144 244v150c0 129 0 153 -1 180c-2 29 -10 38 -38 46c-7 2 -22 3 -35 3c-9 0 -15 3 -15 9s7 8 20 8c46 0 102 -2 120 -2c30 0 110 2 137 2c56 0 120 -5 167 -36c25 -17 62 -60 62 -117c0 -63 -36 -119 -122 -188c78 -96 140 -173 193 -226c49 -49 80 -53 94 -56
c9 -2 14 -2 21 -2s11 -5 11 -9c0 -7 -6 -9 -17 -9h-84c-49 0 -73 5 -96 17c-38 19 -71 59 -120 125c-35 46 -72 103 -83 116c-5 5 -10 6 -16 6l-79 2c-4 0 -7 -2 -7 -7v-12c0 -79 1 -145 5 -181c3 -25 7 -41 34 -45c13 -2 32 -3 43 -3c7 0 11 -5 11 -9c0 -6 -7 -9 -18 -9
c-51 0 -124 3 -137 3c-17 0 -73 -3 -108 -3c-11 0 -17 3 -17 9c0 4 3 9 14 9c13 0 23 1 31 3c18 4 23 20 26 45c4 36 4 103 4 181zM256 581v-253c0 -9 2 -12 8 -15c19 -6 45 -8 67 -8c35 0 47 3 62 14c27 19 57 56 57 126c0 120 -82 151 -134 151c-22 0 -43 -1 -52 -3
c-6 -2 -8 -5 -8 -12zM469 860c8 -14 17 -33 29 -60c6 -12 0 -15 -5 -15s-14 2 -34 0c-55 -7 -134 -39 -171 -59c-8 -4 -15 -8 -17 -8s-6 2 -6 6s4 8 9 13c40 38 145 116 161 126c10 7 17 9 20 9c7 0 9 -3 14 -12z" />
    <glyph glyph-name="Rcommaaccent" unicode="&#x156;" horiz-adv-x="755" 
d="M164 287v176c0 152 0 180 -2 212c-2 34 -10 50 -43 57c-8 2 -25 3 -39 3c-11 0 -17 2 -17 9s7 9 22 9c53 0 116 -3 137 -3c34 0 110 3 141 3c63 0 130 -6 184 -43c28 -19 68 -70 68 -137c0 -74 -31 -142 -132 -224c89 -112 158 -201 217 -263c56 -58 97 -65 112 -68
c11 -2 20 -3 28 -3s12 -3 12 -8c0 -8 -7 -10 -19 -10h-95c-56 0 -81 5 -107 19c-43 23 -81 70 -137 147c-40 55 -86 123 -99 138c-5 6 -11 7 -18 7l-87 2c-5 0 -8 -2 -8 -8v-14c0 -93 0 -172 5 -214c3 -29 9 -51 39 -55c15 -2 37 -4 49 -4c8 0 12 -3 12 -8
c0 -7 -7 -10 -20 -10c-58 0 -132 3 -147 3c-19 0 -82 -3 -122 -3c-13 0 -20 3 -20 10c0 5 4 8 16 8c15 0 27 2 36 4c20 4 25 26 29 55c5 42 5 121 5 213zM282 688v-304c0 -11 2 -15 9 -18c21 -7 51 -10 76 -10c40 0 53 4 71 17c30 22 59 68 59 150c0 142 -94 183 -153 183
c-25 0 -43 -1 -53 -4c-7 -2 -9 -6 -9 -14zM505 -98c0 -9 -5 -28 -11 -42c-11 -26 -39 -81 -68 -114c-6 -5 -10 -10 -15 -10c-3 0 -7 5 -7 9s5 10 7 14c18 31 25 55 25 75c0 49 -36 62 -36 74c0 30 38 60 64 60c8 0 11 -5 22 -22c14 -22 19 -35 19 -44z" />
    <glyph glyph-name="rcommaaccent" unicode="&#x157;" horiz-adv-x="686" 
d="M144 244v150c0 129 0 153 -1 180c-2 29 -10 38 -38 46c-7 2 -22 3 -35 3c-9 0 -15 3 -15 9s7 8 20 8c46 0 102 -2 120 -2c30 0 110 2 137 2c56 0 120 -5 167 -36c25 -17 62 -60 62 -117c0 -63 -36 -119 -122 -188c78 -96 140 -173 193 -226c49 -49 80 -53 94 -56
c9 -2 14 -2 21 -2s11 -5 11 -9c0 -7 -6 -9 -17 -9h-84c-49 0 -73 5 -96 17c-38 19 -71 59 -120 125c-35 46 -72 103 -83 116c-5 5 -10 6 -16 6l-79 2c-4 0 -7 -2 -7 -7v-12c0 -79 1 -145 5 -181c3 -25 7 -41 34 -45c13 -2 32 -3 43 -3c7 0 11 -5 11 -9c0 -6 -7 -9 -18 -9
c-51 0 -124 3 -137 3c-17 0 -73 -3 -108 -3c-11 0 -17 3 -17 9c0 4 3 9 14 9c13 0 23 1 31 3c18 4 23 20 26 45c4 36 4 103 4 181zM256 581v-253c0 -9 2 -12 8 -15c19 -6 45 -8 67 -8c35 0 47 3 62 14c27 19 57 56 57 126c0 120 -82 151 -134 151c-22 0 -43 -1 -52 -3
c-6 -2 -8 -5 -8 -12zM455 -118c0 -9 -5 -28 -11 -42c-11 -26 -39 -81 -68 -114c-6 -5 -10 -10 -15 -10c-3 0 -7 5 -7 9s5 10 7 14c18 31 25 55 25 75c0 49 -36 62 -36 74c0 30 38 60 64 60c8 0 11 -5 22 -22c14 -22 19 -35 19 -44z" />
    <glyph glyph-name="Rcaron" unicode="&#x158;" horiz-adv-x="755" 
d="M164 287v176c0 152 0 180 -2 212c-2 34 -10 50 -43 57c-8 2 -25 3 -39 3c-11 0 -17 2 -17 9s7 9 22 9c53 0 116 -3 137 -3c34 0 110 3 141 3c63 0 130 -6 184 -43c28 -19 68 -70 68 -137c0 -74 -31 -142 -132 -224c89 -112 158 -201 217 -263c56 -58 97 -65 112 -68
c11 -2 20 -3 28 -3s12 -3 12 -8c0 -8 -7 -10 -19 -10h-95c-56 0 -81 5 -107 19c-43 23 -81 70 -137 147c-40 55 -86 123 -99 138c-5 6 -11 7 -18 7l-87 2c-5 0 -8 -2 -8 -8v-14c0 -93 0 -172 5 -214c3 -29 9 -51 39 -55c15 -2 37 -4 49 -4c8 0 12 -3 12 -8
c0 -7 -7 -10 -20 -10c-58 0 -132 3 -147 3c-19 0 -82 -3 -122 -3c-13 0 -20 3 -20 10c0 5 4 8 16 8c15 0 27 2 36 4c20 4 25 26 29 55c5 42 5 121 5 213zM282 688v-304c0 -11 2 -15 9 -18c21 -7 51 -10 76 -10c40 0 53 4 71 17c30 22 59 68 59 150c0 142 -94 183 -153 183
c-25 0 -43 -1 -53 -4c-7 -2 -9 -6 -9 -14zM206 945l29 29c4 4 8 7 11 7c4 0 8 -2 17 -11c19 -19 78 -67 88 -74c5 -4 9 -6 13 -6s10 1 15 4c28 17 76 51 104 74c12 10 17 13 22 13s9 -4 9 -10c0 -4 -3 -9 -9 -15c-11 -12 -118 -112 -132 -124c-10 -9 -15 -12 -21 -12
c-3 0 -7 3 -18 11c-8 7 -104 79 -119 90c-11 8 -14 11 -14 14s2 7 5 10z" />
    <glyph glyph-name="rcaron" unicode="&#x159;" horiz-adv-x="686" 
d="M144 244v150c0 129 0 153 -1 180c-2 29 -10 38 -38 46c-7 2 -22 3 -35 3c-9 0 -15 3 -15 9s7 8 20 8c46 0 102 -2 120 -2c30 0 110 2 137 2c56 0 120 -5 167 -36c25 -17 62 -60 62 -117c0 -63 -36 -119 -122 -188c78 -96 140 -173 193 -226c49 -49 80 -53 94 -56
c9 -2 14 -2 21 -2s11 -5 11 -9c0 -7 -6 -9 -17 -9h-84c-49 0 -73 5 -96 17c-38 19 -71 59 -120 125c-35 46 -72 103 -83 116c-5 5 -10 6 -16 6l-79 2c-4 0 -7 -2 -7 -7v-12c0 -79 1 -145 5 -181c3 -25 7 -41 34 -45c13 -2 32 -3 43 -3c7 0 11 -5 11 -9c0 -6 -7 -9 -18 -9
c-51 0 -124 3 -137 3c-17 0 -73 -3 -108 -3c-11 0 -17 3 -17 9c0 4 3 9 14 9c13 0 23 1 31 3c18 4 23 20 26 45c4 36 4 103 4 181zM256 581v-253c0 -9 2 -12 8 -15c19 -6 45 -8 67 -8c35 0 47 3 62 14c27 19 57 56 57 126c0 120 -82 151 -134 151c-22 0 -43 -1 -52 -3
c-6 -2 -8 -5 -8 -12zM192 833l29 29c4 4 8 7 11 7c4 0 8 -2 17 -11c19 -19 78 -67 88 -74c5 -4 9 -6 13 -6s10 1 15 4c28 17 76 51 104 74c12 10 17 13 22 13s9 -4 9 -10c0 -4 -3 -9 -9 -15c-11 -12 -118 -112 -132 -124c-10 -9 -15 -12 -21 -12c-3 0 -7 3 -18 11
c-8 7 -104 79 -119 90c-11 8 -14 11 -14 14s2 7 5 10z" />
    <glyph glyph-name="Sacute" unicode="&#x15a;" horiz-adv-x="582" 
d="M255 -17c-58 0 -103 7 -146 26c-16 7 -19 12 -19 34c0 55 4 115 5 131c1 15 4 26 12 26c9 0 10 -9 10 -17c0 -13 4 -34 9 -51c22 -74 81 -101 143 -101c90 0 134 61 134 114c0 49 -15 95 -98 160l-46 36c-110 86 -148 156 -148 237c0 110 92 189 231 189
c65 0 107 -10 133 -17c9 -2 14 -5 14 -12c0 -13 -4 -42 -4 -120c0 -22 -3 -30 -11 -30c-7 0 -10 6 -10 18c0 9 -5 40 -26 66c-15 19 -44 49 -109 49c-74 0 -119 -43 -119 -103c0 -46 23 -81 106 -144l28 -21c121 -91 164 -160 164 -255c0 -58 -22 -127 -94 -174
c-50 -32 -106 -41 -159 -41zM462 972c8 -14 17 -33 29 -60c6 -12 0 -15 -5 -15s-14 2 -34 0c-55 -7 -134 -39 -171 -59c-8 -4 -15 -8 -17 -8s-6 2 -6 6s4 8 9 13c40 38 145 116 161 126c10 7 17 9 20 9c7 0 9 -3 14 -12z" />
    <glyph glyph-name="sacute" unicode="&#x15b;" horiz-adv-x="540" 
d="M239 -14c-51 0 -105 5 -143 22c-14 6 -17 10 -17 29c0 46 4 99 5 113c0 13 4 22 11 22c8 0 9 -8 9 -14c0 -11 3 -29 8 -44c19 -63 85 -84 140 -84c76 0 122 48 122 108c0 37 -9 74 -87 120l-51 30c-104 61 -138 118 -138 193c0 104 100 171 222 171c57 0 102 -8 125 -14
c8 -2 12 -5 12 -11c0 -11 -3 -35 -3 -102c0 -18 -4 -27 -11 -27c-6 0 -9 5 -9 15c0 8 -4 34 -23 56c-13 16 -41 40 -98 40c-63 0 -120 -33 -120 -91c0 -38 14 -68 93 -112l36 -20c116 -64 152 -129 152 -206c0 -63 -24 -114 -88 -159c-42 -30 -100 -35 -147 -35zM426 860
c8 -14 17 -33 29 -60c6 -12 0 -15 -5 -15s-14 2 -34 0c-55 -7 -134 -39 -171 -59c-8 -4 -15 -8 -17 -8s-6 2 -6 6s4 8 9 13c40 38 145 116 161 126c10 7 17 9 20 9c7 0 9 -3 14 -12z" />
    <glyph glyph-name="Scedilla" unicode="&#x15e;" horiz-adv-x="582" 
d="M508 198c0 -116 -84 -180 -147 -199l-92 -68c73 -7 118 -35 118 -80c0 -40 -41 -107 -184 -107c-9 0 -17 3 -17 10c0 9 12 13 26 13c33 0 84 25 84 67c0 27 -12 63 -79 73c-14 2 -22 5 -22 8s3 5 16 15l72 54c-8 -1 -18 -1 -28 -1c-58 0 -103 7 -146 26
c-16 7 -19 12 -19 34c0 55 4 115 5 131c1 15 4 26 12 26c9 0 10 -9 10 -17c0 -13 4 -34 9 -51c22 -74 81 -101 143 -101c90 0 134 61 134 114c0 49 -15 95 -98 160l-46 36c-110 86 -148 156 -148 237c0 110 92 189 231 189c65 0 107 -10 133 -17c9 -2 14 -5 14 -12
c0 -13 -4 -42 -4 -120c0 -22 -3 -30 -11 -30c-7 0 -10 6 -10 18c0 9 -5 40 -26 66c-15 19 -44 49 -109 49c-74 0 -119 -43 -119 -103c0 -46 23 -81 106 -144l28 -21c121 -91 164 -160 164 -255z" />
    <glyph glyph-name="Scedilla" unicode="&#xf6c1;" horiz-adv-x="582" 
d="M508 198c0 -116 -84 -180 -147 -199l-92 -68c73 -7 118 -35 118 -80c0 -40 -41 -107 -184 -107c-9 0 -17 3 -17 10c0 9 12 13 26 13c33 0 84 25 84 67c0 27 -12 63 -79 73c-14 2 -22 5 -22 8s3 5 16 15l72 54c-8 -1 -18 -1 -28 -1c-58 0 -103 7 -146 26
c-16 7 -19 12 -19 34c0 55 4 115 5 131c1 15 4 26 12 26c9 0 10 -9 10 -17c0 -13 4 -34 9 -51c22 -74 81 -101 143 -101c90 0 134 61 134 114c0 49 -15 95 -98 160l-46 36c-110 86 -148 156 -148 237c0 110 92 189 231 189c65 0 107 -10 133 -17c9 -2 14 -5 14 -12
c0 -13 -4 -42 -4 -120c0 -22 -3 -30 -11 -30c-7 0 -10 6 -10 18c0 9 -5 40 -26 66c-15 19 -44 49 -109 49c-74 0 -119 -43 -119 -103c0 -46 23 -81 106 -144l28 -21c121 -91 164 -160 164 -255z" />
    <glyph glyph-name="scedilla" unicode="&#x15f;" horiz-adv-x="540" 
d="M474 180c0 -63 -24 -114 -88 -159c-23 -17 -51 -25 -80 -30l-81 -60c73 -7 118 -35 118 -80c0 -40 -41 -107 -184 -107c-9 0 -17 3 -17 10c0 9 12 13 26 13c33 0 84 25 84 67c0 27 -12 63 -79 73c-14 2 -22 5 -22 8s3 5 16 15l75 56h-3c-51 0 -105 5 -143 22
c-14 6 -17 10 -17 29c0 46 4 99 5 113c0 13 4 22 11 22c8 0 9 -8 9 -14c0 -11 3 -29 8 -44c19 -63 85 -84 140 -84c76 0 122 48 122 108c0 37 -9 74 -87 120l-51 30c-104 61 -138 118 -138 193c0 104 100 171 222 171c57 0 102 -8 125 -14c8 -2 12 -5 12 -11
c0 -11 -3 -35 -3 -102c0 -18 -4 -27 -11 -27c-6 0 -9 5 -9 15c0 8 -4 34 -23 56c-13 16 -41 40 -98 40c-63 0 -120 -33 -120 -91c0 -38 14 -68 93 -112l36 -20c116 -64 152 -129 152 -206z" />
    <glyph glyph-name="scedilla" unicode="&#xf6c2;" horiz-adv-x="540" 
d="M474 180c0 -63 -24 -114 -88 -159c-23 -17 -51 -25 -80 -30l-81 -60c73 -7 118 -35 118 -80c0 -40 -41 -107 -184 -107c-9 0 -17 3 -17 10c0 9 12 13 26 13c33 0 84 25 84 67c0 27 -12 63 -79 73c-14 2 -22 5 -22 8s3 5 16 15l75 56h-3c-51 0 -105 5 -143 22
c-14 6 -17 10 -17 29c0 46 4 99 5 113c0 13 4 22 11 22c8 0 9 -8 9 -14c0 -11 3 -29 8 -44c19 -63 85 -84 140 -84c76 0 122 48 122 108c0 37 -9 74 -87 120l-51 30c-104 61 -138 118 -138 193c0 104 100 171 222 171c57 0 102 -8 125 -14c8 -2 12 -5 12 -11
c0 -11 -3 -35 -3 -102c0 -18 -4 -27 -11 -27c-6 0 -9 5 -9 15c0 8 -4 34 -23 56c-13 16 -41 40 -98 40c-63 0 -120 -33 -120 -91c0 -38 14 -68 93 -112l36 -20c116 -64 152 -129 152 -206z" />
    <glyph glyph-name="Scaron" unicode="&#x160;" horiz-adv-x="582" 
d="M255 -17c-58 0 -103 7 -146 26c-16 7 -19 12 -19 34c0 55 4 115 5 131c1 15 4 26 12 26c9 0 10 -9 10 -17c0 -13 4 -34 9 -51c22 -74 81 -101 143 -101c90 0 134 61 134 114c0 49 -15 95 -98 160l-46 36c-110 86 -148 156 -148 237c0 110 92 189 231 189
c65 0 107 -10 133 -17c9 -2 14 -5 14 -12c0 -13 -4 -42 -4 -120c0 -22 -3 -30 -11 -30c-7 0 -10 6 -10 18c0 9 -5 40 -26 66c-15 19 -44 49 -109 49c-74 0 -119 -43 -119 -103c0 -46 23 -81 106 -144l28 -21c121 -91 164 -160 164 -255c0 -58 -22 -127 -94 -174
c-50 -32 -106 -41 -159 -41zM159 945l29 29c4 4 8 7 11 7c4 0 8 -2 17 -11c19 -19 78 -67 88 -74c5 -4 9 -6 13 -6s10 1 15 4c28 17 76 51 104 74c12 10 17 13 22 13s9 -4 9 -10c0 -4 -3 -9 -9 -15c-11 -12 -118 -112 -132 -124c-10 -9 -15 -12 -21 -12c-3 0 -7 3 -18 11
c-8 7 -104 79 -119 90c-11 8 -14 11 -14 14s2 7 5 10z" />
    <glyph glyph-name="scaron" unicode="&#x161;" horiz-adv-x="540" 
d="M239 -14c-51 0 -105 5 -143 22c-14 6 -17 10 -17 29c0 46 4 99 5 113c0 13 4 22 11 22c8 0 9 -8 9 -14c0 -11 3 -29 8 -44c19 -63 85 -84 140 -84c76 0 122 48 122 108c0 37 -9 74 -87 120l-51 30c-104 61 -138 118 -138 193c0 104 100 171 222 171c57 0 102 -8 125 -14
c8 -2 12 -5 12 -11c0 -11 -3 -35 -3 -102c0 -18 -4 -27 -11 -27c-6 0 -9 5 -9 15c0 8 -4 34 -23 56c-13 16 -41 40 -98 40c-63 0 -120 -33 -120 -91c0 -38 14 -68 93 -112l36 -20c116 -64 152 -129 152 -206c0 -63 -24 -114 -88 -159c-42 -30 -100 -35 -147 -35zM148 833
l29 29c4 4 8 7 11 7c4 0 8 -2 17 -11c19 -19 78 -67 88 -74c5 -4 9 -6 13 -6s10 1 15 4c28 17 76 51 104 74c12 10 17 13 22 13s9 -4 9 -10c0 -4 -3 -9 -9 -15c-11 -12 -118 -112 -132 -124c-10 -9 -15 -12 -21 -12c-3 0 -7 3 -18 11c-8 7 -104 79 -119 90
c-11 8 -14 11 -14 14s2 7 5 10z" />
    <glyph glyph-name="Tcommaaccent" unicode="&#x162;" horiz-adv-x="710" 
d="M297 287v410l-149 -4c-58 -2 -82 -7 -97 -29c-10 -15 -15 -27 -17 -35s-5 -12 -11 -12c-7 0 -9 5 -9 16c0 16 19 107 21 115c3 13 6 19 12 19c8 0 18 -10 43 -12c29 -3 67 -5 100 -5h396c32 0 54 3 69 5c15 3 23 5 27 5c7 0 8 -6 8 -21c0 -21 -3 -90 -3 -116
c-1 -10 -3 -16 -9 -16c-8 0 -10 5 -11 20l-1 11c-2 26 -29 54 -118 56l-126 3v-410c0 -92 0 -171 5 -214c3 -28 9 -50 39 -54c14 -2 36 -4 51 -4c11 0 16 -3 16 -8c0 -7 -8 -10 -19 -10c-66 0 -129 3 -157 3c-23 0 -86 -3 -126 -3c-13 0 -20 3 -20 10c0 5 4 8 16 8
c15 0 27 2 36 4c20 4 26 26 29 55c5 42 5 121 5 213zM412 -118c0 -9 -5 -28 -11 -42c-11 -26 -39 -81 -68 -114c-6 -5 -10 -10 -15 -10c-3 0 -7 5 -7 9s5 10 7 14c18 31 25 55 25 75c0 49 -36 62 -36 74c0 30 38 60 64 60c8 0 11 -5 22 -22c14 -22 19 -35 19 -44z" />
    <glyph glyph-name="tcommaaccent" unicode="&#x163;" horiz-adv-x="633" 
d="M261 244v344l-131 -3c-51 -1 -72 -7 -85 -26c-9 -12 -13 -23 -15 -29c-2 -7 -4 -11 -10 -11s-8 5 -8 14c0 14 17 96 19 103c2 11 5 16 10 16c7 0 16 -7 38 -10c26 -3 59 -4 88 -4h357c28 0 47 2 60 4c14 2 21 4 24 4c6 0 7 -5 7 -18c0 -18 -2 -81 -2 -103
c-1 -9 -3 -14 -8 -14c-7 0 -9 4 -10 17l-1 9c-2 22 -25 48 -104 49l-111 2v-344c0 -78 1 -145 5 -182c3 -24 8 -40 34 -44c12 -2 32 -3 45 -3c10 0 14 -5 14 -9c0 -6 -7 -9 -17 -9c-58 0 -117 3 -142 3c-20 0 -80 -3 -115 -3c-11 0 -17 3 -17 9c0 4 3 9 14 9c13 0 24 1 31 3
c18 4 23 20 26 45c4 36 4 103 4 181zM369 -118c0 -9 -5 -28 -11 -42c-11 -26 -39 -81 -68 -114c-6 -5 -10 -10 -15 -10c-3 0 -7 5 -7 9s5 10 7 14c18 31 25 55 25 75c0 49 -36 62 -36 74c0 30 38 60 64 60c8 0 11 -5 22 -22c14 -22 19 -35 19 -44z" />
    <glyph glyph-name="Tcaron" unicode="&#x164;" horiz-adv-x="710" 
d="M297 287v410l-149 -4c-58 -2 -82 -7 -97 -29c-10 -15 -15 -27 -17 -35s-5 -12 -11 -12c-7 0 -9 5 -9 16c0 16 19 107 21 115c3 13 6 19 12 19c8 0 18 -10 43 -12c29 -3 67 -5 100 -5h396c32 0 54 3 69 5c15 3 23 5 27 5c7 0 8 -6 8 -21c0 -21 -3 -90 -3 -116
c-1 -10 -3 -16 -9 -16c-8 0 -10 5 -11 20l-1 11c-2 26 -29 54 -118 56l-126 3v-410c0 -92 0 -171 5 -214c3 -28 9 -50 39 -54c14 -2 36 -4 51 -4c11 0 16 -3 16 -8c0 -7 -8 -10 -19 -10c-66 0 -129 3 -157 3c-23 0 -86 -3 -126 -3c-13 0 -20 3 -20 10c0 5 4 8 16 8
c15 0 27 2 36 4c20 4 26 26 29 55c5 42 5 121 5 213zM208 945l29 29c4 4 8 7 11 7c4 0 8 -2 17 -11c19 -19 78 -67 88 -74c5 -4 9 -6 13 -6s10 1 15 4c28 17 76 51 104 74c12 10 17 13 22 13s9 -4 9 -10c0 -4 -3 -9 -9 -15c-11 -12 -118 -112 -132 -124
c-10 -9 -15 -12 -21 -12c-3 0 -7 3 -18 11c-8 7 -104 79 -119 90c-11 8 -14 11 -14 14s2 7 5 10z" />
    <glyph glyph-name="tcaron" unicode="&#x165;" horiz-adv-x="633" 
d="M261 244v344l-131 -3c-51 -1 -72 -7 -85 -26c-9 -12 -13 -23 -15 -29c-2 -7 -4 -11 -10 -11s-8 5 -8 14c0 14 17 96 19 103c2 11 5 16 10 16c7 0 16 -7 38 -10c26 -3 59 -4 88 -4h357c28 0 47 2 60 4c14 2 21 4 24 4c6 0 7 -5 7 -18c0 -18 -2 -81 -2 -103
c-1 -9 -3 -14 -8 -14c-7 0 -9 4 -10 17l-1 9c-2 22 -25 48 -104 49l-111 2v-344c0 -78 1 -145 5 -182c3 -24 8 -40 34 -44c12 -2 32 -3 45 -3c10 0 14 -5 14 -9c0 -6 -7 -9 -17 -9c-58 0 -117 3 -142 3c-20 0 -80 -3 -115 -3c-11 0 -17 3 -17 9c0 4 3 9 14 9c13 0 24 1 31 3
c18 4 23 20 26 45c4 36 4 103 4 181zM165 833l29 29c4 4 8 7 11 7c4 0 8 -2 17 -11c19 -19 78 -67 88 -74c5 -4 9 -6 13 -6s10 1 15 4c28 17 76 51 104 74c12 10 17 13 22 13s9 -4 9 -10c0 -4 -3 -9 -9 -15c-11 -12 -118 -112 -132 -124c-10 -9 -15 -12 -21 -12
c-3 0 -7 3 -18 11c-8 7 -104 79 -119 90c-11 8 -14 11 -14 14s2 7 5 10z" />
    <glyph glyph-name="Umacron" unicode="&#x16a;" horiz-adv-x="852" 
d="M121 317v146c0 152 0 180 -2 212c-2 34 -10 50 -43 57c-8 2 -25 3 -39 3c-11 0 -17 2 -17 9s7 9 22 9c53 0 116 -3 146 -3c24 0 87 3 123 3c15 0 22 -2 22 -9s-6 -9 -16 -9c-11 0 -17 -1 -29 -3c-27 -5 -35 -22 -37 -57c-2 -32 -2 -60 -2 -212v-140
c0 -145 29 -206 78 -246c45 -37 91 -41 125 -41c44 0 98 14 138 54c55 55 58 145 58 248v125c0 152 0 180 -2 212c-2 34 -10 50 -43 57c-8 2 -25 3 -36 3s-17 2 -17 9s7 9 21 9c51 0 114 -3 115 -3c12 0 75 3 114 3c14 0 21 -2 21 -9s-6 -9 -18 -9c-11 0 -17 -1 -29 -3
c-27 -5 -35 -22 -37 -57c-2 -32 -2 -60 -2 -212v-107c0 -111 -11 -229 -95 -301c-71 -61 -143 -72 -208 -72c-53 0 -149 3 -222 69c-51 46 -89 120 -89 265zM560 857h-240c-7 0 -9 2 -8 7l8 36c2 7 4 9 11 9h240c7 0 10 -3 8 -10l-8 -36c-1 -4 -4 -6 -11 -6z" />
    <glyph glyph-name="umacron" unicode="&#x16b;" horiz-adv-x="760" 
d="M106 269v125c0 129 1 153 -1 180c-2 30 -10 38 -38 46c-7 2 -22 3 -34 3c-10 0 -15 3 -15 9s6 8 19 8c47 0 106 -2 132 -2c22 0 81 2 113 2c13 0 19 -2 19 -8s-5 -9 -14 -9c-10 0 -15 -1 -26 -3c-23 -4 -30 -16 -32 -46c-2 -27 -2 -51 -2 -180v-119
c0 -124 24 -172 67 -206c39 -31 81 -34 111 -34c38 0 83 11 118 45c49 46 51 120 51 207v107c0 129 -1 153 -2 180c-2 29 -9 38 -37 46c-7 2 -22 3 -32 3s-15 3 -15 9s6 8 18 8c45 0 104 -2 105 -2c10 0 69 2 103 2c12 0 18 -2 18 -8s-5 -9 -15 -9s-15 -1 -26 -3
c-24 -4 -30 -16 -32 -46c-1 -27 -2 -51 -2 -180v-91c0 -95 -10 -195 -84 -256c-62 -52 -129 -61 -186 -61c-46 0 -137 2 -201 58c-45 39 -80 102 -80 225zM514 745h-240c-7 0 -9 2 -8 7l8 36c2 7 4 9 11 9h240c7 0 10 -3 8 -10l-8 -36c-1 -4 -4 -6 -11 -6z" />
    <glyph glyph-name="Uring" unicode="&#x16e;" horiz-adv-x="852" 
d="M121 317v146c0 152 0 180 -2 212c-2 34 -10 50 -43 57c-8 2 -25 3 -39 3c-11 0 -17 2 -17 9s7 9 22 9c53 0 116 -3 146 -3c24 0 87 3 123 3c15 0 22 -2 22 -9s-6 -9 -16 -9c-11 0 -17 -1 -29 -3c-27 -5 -35 -22 -37 -57c-2 -32 -2 -60 -2 -212v-140
c0 -145 29 -206 78 -246c45 -37 91 -41 125 -41c44 0 98 14 138 54c55 55 58 145 58 248v125c0 152 0 180 -2 212c-2 34 -10 50 -43 57c-8 2 -25 3 -36 3s-17 2 -17 9s7 9 21 9c51 0 114 -3 115 -3c12 0 75 3 114 3c14 0 21 -2 21 -9s-6 -9 -18 -9c-11 0 -17 -1 -29 -3
c-27 -5 -35 -22 -37 -57c-2 -32 -2 -60 -2 -212v-107c0 -111 -11 -229 -95 -301c-71 -61 -143 -72 -208 -72c-53 0 -149 3 -222 69c-51 46 -89 120 -89 265zM429 820c-55 0 -89 26 -89 60c0 46 59 88 137 88c58 0 95 -24 95 -58c1 -56 -78 -90 -143 -90zM401 894
c0 -30 26 -49 50 -49c33 0 60 24 60 52c0 24 -17 46 -53 46c-23 0 -57 -15 -57 -49z" />
    <glyph glyph-name="uring" unicode="&#x16f;" horiz-adv-x="760" 
d="M106 269v125c0 129 1 153 -1 180c-2 30 -10 38 -38 46c-7 2 -22 3 -34 3c-10 0 -15 3 -15 9s6 8 19 8c47 0 106 -2 132 -2c22 0 81 2 113 2c13 0 19 -2 19 -8s-5 -9 -14 -9c-10 0 -15 -1 -26 -3c-23 -4 -30 -16 -32 -46c-2 -27 -2 -51 -2 -180v-119
c0 -124 24 -172 67 -206c39 -31 81 -34 111 -34c38 0 83 11 118 45c49 46 51 120 51 207v107c0 129 -1 153 -2 180c-2 29 -9 38 -37 46c-7 2 -22 3 -32 3s-15 3 -15 9s6 8 18 8c45 0 104 -2 105 -2c10 0 69 2 103 2c12 0 18 -2 18 -8s-5 -9 -15 -9s-15 -1 -26 -3
c-24 -4 -30 -16 -32 -46c-1 -27 -2 -51 -2 -180v-91c0 -95 -10 -195 -84 -256c-62 -52 -129 -61 -186 -61c-46 0 -137 2 -201 58c-45 39 -80 102 -80 225zM373 708c-55 0 -89 26 -89 60c0 46 59 88 137 88c58 0 95 -24 95 -58c1 -56 -78 -90 -143 -90zM345 782
c0 -30 26 -49 50 -49c33 0 60 24 60 52c0 24 -17 46 -53 46c-23 0 -57 -15 -57 -49z" />
    <glyph glyph-name="Uhungarumlaut" unicode="&#x170;" horiz-adv-x="852" 
d="M121 317v146c0 152 0 180 -2 212c-2 34 -10 50 -43 57c-8 2 -25 3 -39 3c-11 0 -17 2 -17 9s7 9 22 9c53 0 116 -3 146 -3c24 0 87 3 123 3c15 0 22 -2 22 -9s-6 -9 -16 -9c-11 0 -17 -1 -29 -3c-27 -5 -35 -22 -37 -57c-2 -32 -2 -60 -2 -212v-140
c0 -145 29 -206 78 -246c45 -37 91 -41 125 -41c44 0 98 14 138 54c55 55 58 145 58 248v125c0 152 0 180 -2 212c-2 34 -10 50 -43 57c-8 2 -25 3 -36 3s-17 2 -17 9s7 9 21 9c51 0 114 -3 115 -3c12 0 75 3 114 3c14 0 21 -2 21 -9s-6 -9 -18 -9c-11 0 -17 -1 -29 -3
c-27 -5 -35 -22 -37 -57c-2 -32 -2 -60 -2 -212v-107c0 -111 -11 -229 -95 -301c-71 -61 -143 -72 -208 -72c-53 0 -149 3 -222 69c-51 46 -89 120 -89 265zM428 961c14 16 20 24 25 24c6 0 11 -1 19 -4c15 -6 33 -18 46 -29c7 -6 6 -12 2 -14c-7 -2 -17 -4 -39 -14
c-39 -18 -102 -54 -136 -82c-11 -9 -16 -12 -22 -12s-7 6 -5 10c5 10 96 105 110 121zM601 961c14 16 20 24 25 24c6 0 11 -1 19 -4c17 -7 33 -18 46 -29c7 -6 6 -12 2 -14c-7 -2 -17 -4 -39 -14c-39 -18 -102 -54 -136 -82c-11 -9 -16 -12 -22 -12s-7 6 -5 10
c5 10 96 105 110 121z" />
    <glyph glyph-name="uhungarumlaut" unicode="&#x171;" horiz-adv-x="760" 
d="M106 269v125c0 129 1 153 -1 180c-2 30 -10 38 -38 46c-7 2 -22 3 -34 3c-10 0 -15 3 -15 9s6 8 19 8c47 0 106 -2 132 -2c22 0 81 2 113 2c13 0 19 -2 19 -8s-5 -9 -14 -9c-10 0 -15 -1 -26 -3c-23 -4 -30 -16 -32 -46c-2 -27 -2 -51 -2 -180v-119
c0 -124 24 -172 67 -206c39 -31 81 -34 111 -34c38 0 83 11 118 45c49 46 51 120 51 207v107c0 129 -1 153 -2 180c-2 29 -9 38 -37 46c-7 2 -22 3 -32 3s-15 3 -15 9s6 8 18 8c45 0 104 -2 105 -2c10 0 69 2 103 2c12 0 18 -2 18 -8s-5 -9 -15 -9s-15 -1 -26 -3
c-24 -4 -30 -16 -32 -46c-1 -27 -2 -51 -2 -180v-91c0 -95 -10 -195 -84 -256c-62 -52 -129 -61 -186 -61c-46 0 -137 2 -201 58c-45 39 -80 102 -80 225zM341 849c14 16 20 24 25 24c6 0 11 -1 19 -4c15 -6 33 -18 46 -29c7 -6 6 -12 2 -14c-7 -2 -17 -4 -39 -14
c-39 -18 -102 -54 -136 -82c-11 -9 -16 -12 -22 -12s-7 6 -5 10c5 10 96 105 110 121zM514 849c14 16 20 24 25 24c6 0 11 -1 19 -4c17 -7 33 -18 46 -29c7 -6 6 -12 2 -14c-7 -2 -17 -4 -39 -14c-39 -18 -102 -54 -136 -82c-11 -9 -16 -12 -22 -12s-7 6 -5 10
c5 10 96 105 110 121z" />
    <glyph glyph-name="Uogonek" unicode="&#x172;" horiz-adv-x="852" 
d="M542 -170c38 0 56 33 66 33c5 0 9 -3 9 -8c0 -4 -4 -11 -8 -16c-10 -11 -56 -66 -124 -66c-61 0 -91 22 -91 76c0 46 56 107 91 135c-19 1 -35 -1 -53 -1c-53 0 -149 3 -222 69c-51 46 -89 120 -89 265v146c0 152 0 180 -2 212c-2 34 -10 50 -43 57c-8 2 -25 3 -39 3
c-11 0 -17 2 -17 9s7 9 22 9c53 0 116 -3 146 -3c24 0 87 3 123 3c15 0 22 -2 22 -9s-6 -9 -16 -9c-11 0 -17 -1 -29 -3c-27 -5 -35 -22 -37 -57c-2 -32 -2 -60 -2 -212v-140c0 -145 29 -206 78 -246c45 -37 91 -41 125 -41c44 0 98 14 138 54c55 55 58 145 58 248v125
c0 152 0 180 -2 212c-2 34 -10 50 -43 57c-8 2 -25 3 -36 3s-17 2 -17 9s7 9 21 9c51 0 114 -3 115 -3c12 0 75 3 114 3c14 0 21 -2 21 -9s-6 -9 -18 -9c-11 0 -17 -1 -29 -3c-27 -5 -35 -22 -37 -57c-2 -32 -2 -60 -2 -212v-107c0 -111 -11 -229 -95 -301
c-33 -28 -67 -43 -96 -60c-35 -21 -60 -76 -60 -116c0 -33 21 -49 58 -49z" />
    <glyph glyph-name="uogonek" unicode="&#x173;" horiz-adv-x="760" 
d="M481 -170c38 0 56 33 66 33c5 0 9 -3 9 -8c0 -4 -4 -11 -8 -16c-10 -11 -56 -66 -124 -66c-61 0 -91 22 -91 76c0 50 65 116 98 141c-3 1 -6 1 -10 0c-4 0 -8 -1 -12 -2c-7 -1 -15 -2 -22 -2c-46 0 -137 2 -201 58c-45 39 -80 102 -80 225v125c0 129 1 153 -1 180
c-2 30 -10 38 -38 46c-7 2 -22 3 -34 3c-10 0 -15 3 -15 9s6 8 19 8c47 0 106 -2 132 -2c22 0 81 2 113 2c13 0 19 -2 19 -8s-5 -9 -14 -9c-10 0 -15 -1 -26 -3c-23 -4 -30 -16 -32 -46c-2 -27 -2 -51 -2 -180v-119c0 -124 24 -172 67 -206c39 -31 81 -34 111 -34
c38 0 83 11 118 45c49 46 51 120 51 207v107c0 129 -1 153 -2 180c-2 29 -9 38 -37 46c-7 2 -22 3 -32 3s-15 3 -15 9s6 8 18 8c45 0 104 -2 105 -2c10 0 69 2 103 2c12 0 18 -2 18 -8s-5 -9 -15 -9s-15 -1 -26 -3c-24 -4 -30 -16 -32 -46c-1 -27 -2 -51 -2 -180v-91
c0 -95 -10 -195 -84 -256c-29 -24 -56 -33 -84 -48c-39 -21 -66 -76 -66 -120c0 -33 21 -49 58 -49z" />
    <glyph glyph-name="Ydieresis" unicode="&#x178;" horiz-adv-x="670" 
d="M276 174v82c0 54 -10 76 -23 105c-7 16 -141 236 -176 288c-25 37 -50 62 -69 73c-13 7 -30 13 -42 13c-8 0 -15 2 -15 9c0 6 7 9 19 9c18 0 93 -3 126 -3c21 0 62 3 107 3c10 0 15 -3 15 -9s-7 -7 -22 -11c-9 -2 -14 -10 -14 -18s5 -20 12 -34c14 -30 154 -271 170 -299
c10 24 136 244 150 275c10 22 14 39 14 52c0 10 -4 21 -21 25c-9 2 -18 4 -18 10c0 7 5 9 17 9c33 0 65 -3 94 -3c22 0 88 3 107 3c11 0 18 -2 18 -8c0 -7 -8 -10 -19 -10c-10 0 -29 -4 -44 -12c-21 -10 -32 -22 -54 -49c-33 -40 -173 -275 -191 -318
c-15 -36 -15 -67 -15 -100v-82c0 -16 0 -58 3 -100c2 -29 11 -51 41 -55c14 -2 36 -4 50 -4c11 0 16 -3 16 -8c0 -7 -8 -10 -21 -10c-63 0 -126 3 -153 3c-25 0 -88 -3 -125 -3c-14 0 -22 2 -22 10c0 5 5 8 16 8c14 0 26 2 35 4c20 4 29 26 31 55c3 42 3 84 3 100zM464 830
c-32 0 -45 26 -45 47c0 20 14 47 46 47c26 0 47 -16 47 -44s-19 -50 -48 -50zM253 830c-32 0 -45 26 -45 47c0 19 14 46 46 46c26 0 47 -16 47 -43c0 -28 -19 -50 -48 -50z" />
    <glyph glyph-name="Zacute" unicode="&#x179;" horiz-adv-x="710" 
d="M222 55h246c102 0 141 25 157 55c9 16 15 34 18 48c2 10 4 16 10 16c8 0 10 -7 10 -31c0 -32 -13 -97 -20 -122c-5 -18 -12 -26 -30 -26c-167 0 -335 5 -537 5c-11 0 -17 3 -17 10s3 12 15 30l423 657h-196c-51 0 -112 -3 -144 -21c-33 -18 -51 -55 -54 -78
c-2 -14 -6 -18 -12 -18c-7 0 -8 5 -8 17c0 23 15 114 20 144c2 14 6 19 12 19c9 0 15 -6 40 -7c95 -4 143 -3 184 -3h305c10 0 17 -3 17 -8c0 -6 -4 -12 -8 -19zM511 972c8 -14 17 -33 29 -60c6 -12 0 -15 -5 -15s-14 2 -34 0c-55 -7 -134 -39 -171 -59c-8 -4 -15 -8 -17 -8
s-6 2 -6 6s4 8 9 13c40 38 145 116 161 126c10 7 17 9 20 9c7 0 9 -3 14 -12z" />
    <glyph glyph-name="zacute" unicode="&#x17a;" horiz-adv-x="625" 
d="M201 51h211c90 0 121 18 136 44c7 13 13 27 16 39c2 9 4 14 10 14c7 0 9 -6 9 -26c0 -28 -11 -83 -17 -104c-5 -15 -11 -22 -27 -22c-147 0 -296 4 -474 4c-10 0 -15 3 -15 9c0 5 1 10 11 25l370 554h-166c-45 0 -97 0 -125 -15c-29 -16 -45 -45 -47 -65
c-2 -12 -6 -15 -11 -15c-6 0 -9 4 -9 14c0 20 13 97 18 123c1 12 5 16 10 16c8 0 13 -5 35 -6c84 -3 126 -2 162 -2h271c9 0 15 -3 15 -7c0 -7 -2 -10 -5 -16zM469 860c8 -14 17 -33 29 -60c6 -12 0 -15 -5 -15s-14 2 -34 0c-55 -7 -134 -39 -171 -59c-8 -4 -15 -8 -17 -8
s-6 2 -6 6s4 8 9 13c40 38 145 116 161 126c10 7 17 9 20 9c7 0 9 -3 14 -12z" />
    <glyph glyph-name="Zdotaccent" unicode="&#x17b;" horiz-adv-x="710" 
d="M222 55h246c102 0 141 25 157 55c9 16 15 34 18 48c2 10 4 16 10 16c8 0 10 -7 10 -31c0 -32 -13 -97 -20 -122c-5 -18 -12 -26 -30 -26c-167 0 -335 5 -537 5c-11 0 -17 3 -17 10s3 12 15 30l423 657h-196c-51 0 -112 -3 -144 -21c-33 -18 -51 -55 -54 -78
c-2 -14 -6 -18 -12 -18c-7 0 -8 5 -8 17c0 23 15 114 20 144c2 14 6 19 12 19c9 0 15 -6 40 -7c95 -4 143 -3 184 -3h305c10 0 17 -3 17 -8c0 -6 -4 -12 -8 -19zM369 830c-40 0 -56 31 -56 56s16 58 56 58c32 0 57 -21 57 -54s-23 -60 -57 -60z" />
    <glyph glyph-name="zdotaccent" unicode="&#x17c;" horiz-adv-x="625" 
d="M201 51h211c90 0 121 18 136 44c7 13 13 27 16 39c2 9 4 14 10 14c7 0 9 -6 9 -26c0 -28 -11 -83 -17 -104c-5 -15 -11 -22 -27 -22c-147 0 -296 4 -474 4c-10 0 -15 3 -15 9c0 5 1 10 11 25l370 554h-166c-45 0 -97 0 -125 -15c-29 -16 -45 -45 -47 -65
c-2 -12 -6 -15 -11 -15c-6 0 -9 4 -9 14c0 20 13 97 18 123c1 12 5 16 10 16c8 0 13 -5 35 -6c84 -3 126 -2 162 -2h271c9 0 15 -3 15 -7c0 -7 -2 -10 -5 -16zM332 718c-40 0 -56 31 -56 56s16 58 56 58c32 0 57 -21 57 -54s-23 -60 -57 -60z" />
    <glyph glyph-name="Zcaron" unicode="&#x17d;" horiz-adv-x="710" 
d="M222 55h246c102 0 141 25 157 55c9 16 15 34 18 48c2 10 4 16 10 16c8 0 10 -7 10 -31c0 -32 -13 -97 -20 -122c-5 -18 -12 -26 -30 -26c-167 0 -335 5 -537 5c-11 0 -17 3 -17 10s3 12 15 30l423 657h-196c-51 0 -112 -3 -144 -21c-33 -18 -51 -55 -54 -78
c-2 -14 -6 -18 -12 -18c-7 0 -8 5 -8 17c0 23 15 114 20 144c2 14 6 19 12 19c9 0 15 -6 40 -7c95 -4 143 -3 184 -3h305c10 0 17 -3 17 -8c0 -6 -4 -12 -8 -19zM208 945l29 29c4 4 8 7 11 7c4 0 8 -2 17 -11c19 -19 78 -67 88 -74c5 -4 9 -6 13 -6s10 1 15 4
c28 17 76 51 104 74c12 10 17 13 22 13s9 -4 9 -10c0 -4 -3 -9 -9 -15c-11 -12 -118 -112 -132 -124c-10 -9 -15 -12 -21 -12c-3 0 -7 3 -18 11c-8 7 -104 79 -119 90c-11 8 -14 11 -14 14s2 7 5 10z" />
    <glyph glyph-name="zcaron" unicode="&#x17e;" horiz-adv-x="625" 
d="M201 51h211c90 0 121 18 136 44c7 13 13 27 16 39c2 9 4 14 10 14c7 0 9 -6 9 -26c0 -28 -11 -83 -17 -104c-5 -15 -11 -22 -27 -22c-147 0 -296 4 -474 4c-10 0 -15 3 -15 9c0 5 1 10 11 25l370 554h-166c-45 0 -97 0 -125 -15c-29 -16 -45 -45 -47 -65
c-2 -12 -6 -15 -11 -15c-6 0 -9 4 -9 14c0 20 13 97 18 123c1 12 5 16 10 16c8 0 13 -5 35 -6c84 -3 126 -2 162 -2h271c9 0 15 -3 15 -7c0 -7 -2 -10 -5 -16zM181 833l29 29c4 4 8 7 11 7c4 0 8 -2 17 -11c19 -19 78 -67 88 -74c5 -4 9 -6 13 -6s10 1 15 4
c28 17 76 51 104 74c12 10 17 13 22 13s9 -4 9 -10c0 -4 -3 -9 -9 -15c-11 -12 -118 -112 -132 -124c-10 -9 -15 -12 -21 -12c-3 0 -7 3 -18 11c-8 7 -104 79 -119 90c-11 8 -14 11 -14 14s2 7 5 10z" />
    <glyph glyph-name="florin" unicode="&#x192;" horiz-adv-x="600" 
d="M364 339h-62c-12 -81 -26 -230 -50 -338c-25 -113 -58 -175 -146 -215c-26 -12 -66 -18 -89 -18c-26 0 -37 3 -37 11c0 7 3 11 7 11c7 0 16 0 25 1c19 2 63 5 93 52c24 38 40 102 53 218l31 279l-34 2c-11 1 -65 -5 -70 -5c-6 0 -10 3 -8 9l9 31c2 7 6 12 12 12
c7 0 24 -2 53 -2h44c13 129 42 233 100 299c34 39 90 81 187 81c42 0 73 -6 102 -18c11 -5 12 -10 12 -22c0 -15 -3 -50 -11 -110c-2 -15 -5 -22 -12 -22c-8 0 -9 7 -9 22c0 28 -6 47 -18 67c-13 21 -39 42 -87 42c-38 0 -79 -25 -104 -76c-27 -56 -40 -174 -50 -263h113
c45 0 64 3 71 3s9 -4 5 -15l-11 -30c-3 -7 -13 -10 -21 -10c-7 0 -55 4 -98 4z" />
    <glyph glyph-name="Scommaaccent" unicode="&#x218;" horiz-adv-x="582" 
d="M255 -17c-58 0 -103 7 -146 26c-16 7 -19 12 -19 34c0 55 4 115 5 131c1 15 4 26 12 26c9 0 10 -9 10 -17c0 -13 4 -34 9 -51c22 -74 81 -101 143 -101c90 0 134 61 134 114c0 49 -15 95 -98 160l-46 36c-110 86 -148 156 -148 237c0 110 92 189 231 189
c65 0 107 -10 133 -17c9 -2 14 -5 14 -12c0 -13 -4 -42 -4 -120c0 -22 -3 -30 -11 -30c-7 0 -10 6 -10 18c0 9 -5 40 -26 66c-15 19 -44 49 -109 49c-74 0 -119 -43 -119 -103c0 -46 23 -81 106 -144l28 -21c121 -91 164 -160 164 -255c0 -58 -22 -127 -94 -174
c-50 -32 -106 -41 -159 -41zM344 -118c0 -9 -5 -28 -11 -42c-11 -26 -39 -81 -68 -114c-6 -5 -10 -10 -15 -10c-3 0 -7 5 -7 9s5 10 7 14c18 31 25 55 25 75c0 49 -36 62 -36 74c0 30 38 60 64 60c8 0 11 -5 22 -22c14 -22 19 -35 19 -44z" />
    <glyph glyph-name="scommaaccent" unicode="&#x219;" horiz-adv-x="540" 
d="M239 -14c-51 0 -105 5 -143 22c-14 6 -17 10 -17 29c0 46 4 99 5 113c0 13 4 22 11 22c8 0 9 -8 9 -14c0 -11 3 -29 8 -44c19 -63 85 -84 140 -84c76 0 122 48 122 108c0 37 -9 74 -87 120l-51 30c-104 61 -138 118 -138 193c0 104 100 171 222 171c57 0 102 -8 125 -14
c8 -2 12 -5 12 -11c0 -11 -3 -35 -3 -102c0 -18 -4 -27 -11 -27c-6 0 -9 5 -9 15c0 8 -4 34 -23 56c-13 16 -41 40 -98 40c-63 0 -120 -33 -120 -91c0 -38 14 -68 93 -112l36 -20c116 -64 152 -129 152 -206c0 -63 -24 -114 -88 -159c-42 -30 -100 -35 -147 -35zM323 -118
c0 -9 -5 -28 -11 -42c-11 -26 -39 -81 -68 -114c-6 -5 -10 -10 -15 -10c-3 0 -7 5 -7 9s5 10 7 14c18 31 25 55 25 75c0 49 -36 62 -36 74c0 30 38 60 64 60c8 0 11 -5 22 -22c14 -22 19 -35 19 -44z" />
    <glyph glyph-name="uni021A" unicode="&#x21a;" horiz-adv-x="710" 
d="M297 287v410l-149 -4c-58 -2 -82 -7 -97 -29c-10 -15 -15 -27 -17 -35s-5 -12 -11 -12c-7 0 -9 5 -9 16c0 16 19 107 21 115c3 13 6 19 12 19c8 0 18 -10 43 -12c29 -3 67 -5 100 -5h396c32 0 54 3 69 5c15 3 23 5 27 5c7 0 8 -6 8 -21c0 -21 -3 -90 -3 -116
c-1 -10 -3 -16 -9 -16c-8 0 -10 5 -11 20l-1 11c-2 26 -29 54 -118 56l-126 3v-410c0 -92 0 -171 5 -214c3 -28 9 -50 39 -54c14 -2 36 -4 51 -4c11 0 16 -3 16 -8c0 -7 -8 -10 -19 -10c-66 0 -129 3 -157 3c-23 0 -86 -3 -126 -3c-13 0 -20 3 -20 10c0 5 4 8 16 8
c15 0 27 2 36 4c20 4 26 26 29 55c5 42 5 121 5 213zM412 -118c0 -9 -5 -28 -11 -42c-11 -26 -39 -81 -68 -114c-6 -5 -10 -10 -15 -10c-3 0 -7 5 -7 9s5 10 7 14c18 31 25 55 25 75c0 49 -36 62 -36 74c0 30 38 60 64 60c8 0 11 -5 22 -22c14 -22 19 -35 19 -44z" />
    <glyph glyph-name="uni021B" unicode="&#x21b;" horiz-adv-x="633" 
d="M261 244v344l-131 -3c-51 -1 -72 -7 -85 -26c-9 -12 -13 -23 -15 -29c-2 -7 -4 -11 -10 -11s-8 5 -8 14c0 14 17 96 19 103c2 11 5 16 10 16c7 0 16 -7 38 -10c26 -3 59 -4 88 -4h357c28 0 47 2 60 4c14 2 21 4 24 4c6 0 7 -5 7 -18c0 -18 -2 -81 -2 -103
c-1 -9 -3 -14 -8 -14c-7 0 -9 4 -10 17l-1 9c-2 22 -25 48 -104 49l-111 2v-344c0 -78 1 -145 5 -182c3 -24 8 -40 34 -44c12 -2 32 -3 45 -3c10 0 14 -5 14 -9c0 -6 -7 -9 -17 -9c-58 0 -117 3 -142 3c-20 0 -80 -3 -115 -3c-11 0 -17 3 -17 9c0 4 3 9 14 9c13 0 24 1 31 3
c18 4 23 20 26 45c4 36 4 103 4 181zM369 -118c0 -9 -5 -28 -11 -42c-11 -26 -39 -81 -68 -114c-6 -5 -10 -10 -15 -10c-3 0 -7 5 -7 9s5 10 7 14c18 31 25 55 25 75c0 49 -36 62 -36 74c0 30 38 60 64 60c8 0 11 -5 22 -22c14 -22 19 -35 19 -44z" />
    <glyph glyph-name="circumflex" unicode="&#x2c6;" horiz-adv-x="927" 
d="M469 981c3 0 7 -3 18 -11c8 -7 104 -79 119 -90c11 -8 14 -11 14 -14s-2 -7 -5 -10l-29 -29c-4 -4 -8 -7 -13 -7c-4 0 -7 3 -15 11c-18 19 -78 67 -88 74c-5 4 -9 6 -13 6s-9 -2 -15 -5c-28 -16 -76 -48 -106 -74c-10 -9 -15 -12 -20 -12s-9 4 -9 10c0 4 4 9 9 15
c11 12 118 112 132 124c10 9 15 12 21 12z" />
    <glyph glyph-name="caron" unicode="&#x2c7;" horiz-adv-x="927" 
d="M312 945l29 29c4 4 8 7 11 7c4 0 8 -2 17 -11c19 -19 78 -67 88 -74c5 -4 9 -6 13 -6s10 1 15 4c28 17 76 51 104 74c12 10 17 13 22 13s9 -4 9 -10c0 -4 -3 -9 -9 -15c-11 -12 -118 -112 -132 -124c-10 -9 -15 -12 -21 -12c-3 0 -7 3 -18 11c-8 7 -104 79 -119 90
c-11 8 -14 11 -14 14s2 7 5 10z" />
    <glyph glyph-name="uni02C9" unicode="&#x2c9;" horiz-adv-x="927" 
d="M578 857h-240c-7 0 -9 2 -8 7l8 36c2 7 4 9 11 9h240c7 0 10 -3 8 -10l-8 -36c-1 -4 -4 -6 -11 -6z" />
    <glyph glyph-name="breve" unicode="&#x2d8;" horiz-adv-x="927" 
d="M310 906c0 6 5 8 8 10l33 26c7 6 10 7 13 7c6 0 12 -13 21 -23c35 -41 66 -44 92 -44c44 0 78 21 88 28c31 24 37 37 44 37c5 0 8 -4 8 -9c0 -15 -40 -59 -63 -74c-33 -22 -58 -34 -108 -34c-28 0 -70 12 -99 36c-15 12 -37 32 -37 40z" />
    <glyph glyph-name="dotaccent" unicode="&#x2d9;" horiz-adv-x="927" 
d="M463 830c-40 0 -56 31 -56 56s16 58 56 58c32 0 57 -21 57 -54s-23 -60 -57 -60z" />
    <glyph glyph-name="ring" unicode="&#x2da;" horiz-adv-x="927" 
d="M437 820c-55 0 -89 26 -89 60c0 46 59 88 137 88c58 0 95 -24 95 -58c1 -56 -78 -90 -143 -90zM409 894c0 -30 26 -49 50 -49c33 0 60 24 60 52c0 24 -17 46 -53 46c-23 0 -57 -15 -57 -49z" />
    <glyph glyph-name="ogonek" unicode="&#x2db;" horiz-adv-x="927" 
d="M498 -170c-37 0 -58 16 -58 49c0 41 21 87 63 121h-38c-17 -4 -115 -90 -115 -151c0 -54 30 -76 91 -76c68 0 114 55 124 66c4 5 8 12 8 16c0 5 -4 8 -9 8c-10 0 -28 -33 -66 -33z" />
    <glyph glyph-name="tilde" unicode="&#x2dc;" horiz-adv-x="927" 
d="M534 830c-42 0 -69 17 -90 28c-18 10 -37 22 -64 22c-39 0 -60 -27 -68 -36c-9 -9 -12 -10 -16 -10s-7 3 -7 7c0 5 5 15 8 19c15 24 56 77 104 77c35 0 57 -15 80 -28c25 -14 48 -22 72 -22c36 0 57 25 61 30c6 8 11 13 16 13c4 0 8 -3 8 -8s-3 -11 -6 -17
c-9 -17 -51 -75 -98 -75z" />
    <glyph glyph-name="hungarumlaut" unicode="&#x2dd;" horiz-adv-x="927" 
d="M385 961c14 16 20 24 25 24c6 0 11 -1 19 -4c15 -6 33 -18 46 -29c7 -6 6 -12 2 -14c-7 -2 -17 -4 -39 -14c-39 -18 -102 -54 -136 -82c-11 -9 -16 -12 -22 -12s-7 6 -5 10c5 10 96 105 110 121zM558 961c14 16 20 24 25 24c6 0 11 -1 19 -4c17 -7 33 -18 46 -29
c7 -6 6 -12 2 -14c-7 -2 -17 -4 -39 -14c-39 -18 -102 -54 -136 -82c-11 -9 -16 -12 -22 -12s-7 6 -5 10c5 10 96 105 110 121z" />
    <glyph glyph-name="Delta" unicode="&#x394;" horiz-adv-x="688" 
d="M364 774c13 0 21 -17 31 -43l277 -696c5 -12 11 -28 7 -31c-6 -5 -30 -4 -37 -4h-600c-10 0 -25 -1 -28 4c-4 6 2 16 7 28l314 701c12 26 18 41 29 41zM106 63h419c5 0 6 3 5 6l-194 512c-1 4 -2 9 -5 9s-4 -5 -6 -9l-223 -511c-1 -4 0 -7 4 -7z" />
    <glyph glyph-name="Delta" unicode="&#x2206;" horiz-adv-x="688" 
d="M364 774c13 0 21 -17 31 -43l277 -696c5 -12 11 -28 7 -31c-6 -5 -30 -4 -37 -4h-600c-10 0 -25 -1 -28 4c-4 6 2 16 7 28l314 701c12 26 18 41 29 41zM106 63h419c5 0 6 3 5 6l-194 512c-1 4 -2 9 -5 9s-4 -5 -6 -9l-223 -511c-1 -4 0 -7 4 -7z" />
    <glyph glyph-name="Omega" unicode="&#x3a9;" horiz-adv-x="907" 
d="M55 396c0 257 247 371 423 371c239 0 374 -143 374 -352c0 -135 -76 -235 -186 -321h77c43 0 80 6 99 28c11 12 18 32 22 57c2 11 4 15 11 15c8 0 8 -8 8 -18c0 -22 -7 -131 -13 -153c-7 -26 -16 -26 -54 -26c-75 0 -191 2 -234 3c-23 -2 -13 -2 -35 -2c-6 0 -7 4 -7 11
v48c97 61 171 142 171 337c0 174 -72 325 -261 325c-201 0 -257 -178 -257 -307c0 -136 65 -298 173 -355v-48c0 -7 -1 -11 -7 -11c-22 0 -12 0 -35 2c-43 -1 -159 -3 -234 -3c-38 0 -47 0 -54 26c-5 20 -13 130 -13 153c0 10 0 18 8 18c7 0 9 -4 11 -15
c4 -25 12 -43 18 -52c15 -23 53 -33 91 -33h79c-117 67 -175 187 -175 302z" />
    <glyph glyph-name="Omega" unicode="&#x2126;" horiz-adv-x="907" 
d="M55 396c0 257 247 371 423 371c239 0 374 -143 374 -352c0 -135 -76 -235 -186 -321h77c43 0 80 6 99 28c11 12 18 32 22 57c2 11 4 15 11 15c8 0 8 -8 8 -18c0 -22 -7 -131 -13 -153c-7 -26 -16 -26 -54 -26c-75 0 -191 2 -234 3c-23 -2 -13 -2 -35 -2c-6 0 -7 4 -7 11
v48c97 61 171 142 171 337c0 174 -72 325 -261 325c-201 0 -257 -178 -257 -307c0 -136 65 -298 173 -355v-48c0 -7 -1 -11 -7 -11c-22 0 -12 0 -35 2c-43 -1 -159 -3 -234 -3c-38 0 -47 0 -54 26c-5 20 -13 130 -13 153c0 10 0 18 8 18c7 0 9 -4 11 -15
c4 -25 12 -43 18 -52c15 -23 53 -33 91 -33h79c-117 67 -175 187 -175 302z" />
    <glyph glyph-name="pi" unicode="&#x3c0;" horiz-adv-x="555" 
d="M520 386c-4 -21 -10 -29 -66 -29h-25c-5 -71 -7 -138 -7 -208c0 -71 18 -87 34 -87c29 0 40 12 48 23c4 5 5 12 12 12c9 0 12 -8 12 -20c0 -42 -54 -88 -87 -88c-69 0 -101 19 -101 126c0 92 3 163 8 244c-51 1 -90 1 -127 1c0 -93 -1 -178 -21 -270
c-14 -65 -46 -104 -120 -104c-9 0 -21 1 -21 12c0 7 4 8 9 11c33 27 42 46 55 84c29 85 39 189 39 267c-25 -4 -41 1 -64 -12c-29 -15 -35 -24 -38 -43c-2 -15 -8 -19 -16 -19c-9 0 -10 9 -10 16c0 51 31 139 81 142c82 5 162 -1 244 0l67 1c53 1 75 15 82 53
c1 7 5 14 13 14c9 0 12 -8 12 -20c0 -11 -6 -71 -13 -106z" />
    <glyph glyph-name="endash" unicode="&#x2013;" horiz-adv-x="500" 
d="M0 257v58h500v-58h-500z" />
    <glyph glyph-name="emdash" unicode="&#x2014;" horiz-adv-x="1000" 
d="M1000 257h-1000v58h1000v-58z" />
    <glyph glyph-name="quoteleft" unicode="&#x2018;" horiz-adv-x="218" 
d="M131 645c0 -33 15 -60 24 -69c10 -10 11 -13 11 -18c0 -3 -6 -8 -11 -8c-20 0 -64 13 -83 19c-25 7 -29 14 -29 29c0 61 65 168 110 214c6 6 10 8 16 8c3 0 6 -2 6 -6c0 -2 -1 -5 -5 -13c-18 -35 -39 -94 -39 -156z" />
    <glyph glyph-name="quoteright" unicode="&#x2019;" horiz-adv-x="218" 
d="M87 725c0 33 -15 60 -24 69c-10 10 -11 13 -11 18c0 3 6 8 11 8c20 0 64 -13 83 -19c25 -7 29 -14 29 -29c0 -61 -65 -168 -110 -214c-6 -6 -10 -8 -16 -8c-3 0 -6 2 -6 6c0 2 1 5 5 13c18 35 39 94 39 156z" />
    <glyph glyph-name="quotesinglbase" unicode="&#x201a;" horiz-adv-x="218" 
d="M87 49c0 33 -15 60 -24 69c-10 10 -11 13 -11 18c0 3 6 8 11 8c20 0 64 -13 83 -19c25 -7 29 -14 29 -29c0 -61 -65 -168 -110 -214c-6 -6 -10 -8 -16 -8c-3 0 -6 2 -6 6c0 2 1 5 5 13c18 35 39 94 39 156z" />
    </font>
</defs>
</svg>
